<?xml version="1.0" encoding="utf-8" standalone="no"?>
<!DOCTYPE svg PUBLIC "-//W3C//DTD SVG 1.1//EN"
  "http://www.w3.org/Graphics/SVG/1.1/DTD/svg11.dtd">
<!-- Created with matplotlib (https://matplotlib.org/) -->
<svg height="648pt" version="1.1" viewBox="0 0 432 648" width="432pt" xmlns="http://www.w3.org/2000/svg" xmlns:xlink="http://www.w3.org/1999/xlink">
 <defs>
  <style type="text/css">
*{stroke-linecap:butt;stroke-linejoin:round;}
  </style>
 </defs>
 <g id="figure_1">
  <g id="patch_1">
   <path d="M 0 648 
L 432 648 
L 432 0 
L 0 0 
z
" style="fill:#ffffff;"/>
  </g>
  <g id="axes_1">
   <g id="patch_2">
    <path d="M 73.82 606.04 
L 413.28 606.04 
L 413.28 45.888 
L 73.82 45.888 
z
" style="fill:#ffffff;"/>
   </g>
   <g id="PathCollection_1">
    <path clip-path="url(#pa6043ab6d9)" d="M 87.113702 584.662724 
C 88.223126 584.662724 89.287261 584.221945 90.071742 583.437464 
C 90.856223 582.652982 91.297002 581.588848 91.297002 580.479424 
C 91.297002 579.37 90.856223 578.305865 90.071742 577.521384 
C 89.287261 576.736903 88.223126 576.296124 87.113702 576.296124 
C 86.004278 576.296124 84.940144 576.736903 84.155662 577.521384 
C 83.371181 578.305865 82.930402 579.37 82.930402 580.479424 
C 82.930402 581.588848 83.371181 582.652982 84.155662 583.437464 
C 84.940144 584.221945 86.004278 584.662724 87.113702 584.662724 
z
" style="fill:#ff0000;fill-opacity:0.7;stroke:#ff0000;stroke-opacity:0.7;"/>
    <path clip-path="url(#pa6043ab6d9)" d="M 103.586748 568.242374 
C 104.696172 568.242374 105.760306 567.801595 106.544787 567.017114 
C 107.329269 566.232632 107.770048 565.168498 107.770048 564.059074 
C 107.770048 562.94965 107.329269 561.885515 106.544787 561.101034 
C 105.760306 560.316553 104.696172 559.875774 103.586748 559.875774 
C 102.477323 559.875774 101.413189 560.316553 100.628708 561.101034 
C 99.844226 561.885515 99.403447 562.94965 99.403447 564.059074 
C 99.403447 565.168498 99.844226 566.232632 100.628708 567.017114 
C 101.413189 567.801595 102.477323 568.242374 103.586748 568.242374 
z
" style="fill:#ff0000;fill-opacity:0.7;stroke:#ff0000;stroke-opacity:0.7;"/>
    <path clip-path="url(#pa6043ab6d9)" d="M 112.999916 551.822024 
C 114.109341 551.822024 115.173475 551.381245 115.957956 550.596764 
C 116.742438 549.812283 117.183216 548.748148 117.183216 547.638724 
C 117.183216 546.5293 116.742438 545.465165 115.957956 544.680684 
C 115.173475 543.896203 114.109341 543.455424 112.999916 543.455424 
C 111.890492 543.455424 110.826358 543.896203 110.041876 544.680684 
C 109.257395 545.465165 108.816616 546.5293 108.816616 547.638724 
C 108.816616 548.748148 109.257395 549.812283 110.041876 550.596764 
C 110.826358 551.381245 111.890492 551.822024 112.999916 551.822024 
z
" style="fill:#ff0000;fill-opacity:0.7;stroke:#ff0000;stroke-opacity:0.7;"/>
    <path clip-path="url(#pa6043ab6d9)" d="M 117.314285 535.401674 
C 118.42371 535.401674 119.487844 534.960895 120.272325 534.176414 
C 121.056807 533.391933 121.497586 532.327798 121.497586 531.218374 
C 121.497586 530.10895 121.056807 529.044816 120.272325 528.260334 
C 119.487844 527.475853 118.42371 527.035074 117.314285 527.035074 
C 116.204861 527.035074 115.140727 527.475853 114.356245 528.260334 
C 113.571764 529.044816 113.130985 530.10895 113.130985 531.218374 
C 113.130985 532.327798 113.571764 533.391933 114.356245 534.176414 
C 115.140727 534.960895 116.204861 535.401674 117.314285 535.401674 
z
" style="fill:#ff0000;fill-opacity:0.7;stroke:#ff0000;stroke-opacity:0.7;"/>
    <path clip-path="url(#pa6043ab6d9)" d="M 120.059793 518.981324 
C 121.169217 518.981324 122.233351 518.540545 123.017833 517.756064 
C 123.802314 516.971583 124.243093 515.907448 124.243093 514.798024 
C 124.243093 513.6886 123.802314 512.624466 123.017833 511.839984 
C 122.233351 511.055503 121.169217 510.614724 120.059793 510.614724 
C 118.950369 510.614724 117.886234 511.055503 117.101753 511.839984 
C 116.317272 512.624466 115.876493 513.6886 115.876493 514.798024 
C 115.876493 515.907448 116.317272 516.971583 117.101753 517.756064 
C 117.886234 518.540545 118.950369 518.981324 120.059793 518.981324 
z
" style="fill:#ff0000;fill-opacity:0.7;stroke:#ff0000;stroke-opacity:0.7;"/>
    <path clip-path="url(#pa6043ab6d9)" d="M 124.475248 502.560974 
C 125.584673 502.560974 126.648807 502.120195 127.433288 501.335714 
C 128.21777 500.551233 128.658549 499.487098 128.658549 498.377674 
C 128.658549 497.26825 128.21777 496.204116 127.433288 495.419634 
C 126.648807 494.635153 125.584673 494.194374 124.475248 494.194374 
C 123.365824 494.194374 122.30169 494.635153 121.517208 495.419634 
C 120.732727 496.204116 120.291948 497.26825 120.291948 498.377674 
C 120.291948 499.487098 120.732727 500.551233 121.517208 501.335714 
C 122.30169 502.120195 123.365824 502.560974 124.475248 502.560974 
z
" style="fill:#ff0000;fill-opacity:0.7;stroke:#ff0000;stroke-opacity:0.7;"/>
    <path clip-path="url(#pa6043ab6d9)" d="M 127.381146 486.140624 
C 128.490571 486.140624 129.554705 485.699846 130.339186 484.915364 
C 131.123668 484.130883 131.564447 483.066748 131.564447 481.957324 
C 131.564447 480.8479 131.123668 479.783766 130.339186 478.999284 
C 129.554705 478.214803 128.490571 477.774024 127.381146 477.774024 
C 126.271722 477.774024 125.207588 478.214803 124.423107 478.999284 
C 123.638625 479.783766 123.197846 480.8479 123.197846 481.957324 
C 123.197846 483.066748 123.638625 484.130883 124.423107 484.915364 
C 125.207588 485.699846 126.271722 486.140624 127.381146 486.140624 
z
" style="fill:#ff0000;fill-opacity:0.7;stroke:#ff0000;stroke-opacity:0.7;"/>
    <path clip-path="url(#pa6043ab6d9)" d="M 128.929894 469.720275 
C 130.039318 469.720275 131.103453 469.279496 131.887934 468.495014 
C 132.672416 467.710533 133.113194 466.646399 133.113194 465.536974 
C 133.113194 464.42755 132.672416 463.363416 131.887934 462.578934 
C 131.103453 461.794453 130.039318 461.353674 128.929894 461.353674 
C 127.82047 461.353674 126.756336 461.794453 125.971854 462.578934 
C 125.187373 463.363416 124.746594 464.42755 124.746594 465.536974 
C 124.746594 466.646399 125.187373 467.710533 125.971854 468.495014 
C 126.756336 469.279496 127.82047 469.720275 128.929894 469.720275 
z
" style="fill:#ff0000;fill-opacity:0.7;stroke:#ff0000;stroke-opacity:0.7;"/>
    <path clip-path="url(#pa6043ab6d9)" d="M 131.041823 453.299925 
C 132.151247 453.299925 133.215382 452.859146 133.999863 452.074664 
C 134.784344 451.290183 135.225123 450.226049 135.225123 449.116624 
C 135.225123 448.0072 134.784344 446.943066 133.999863 446.158585 
C 133.215382 445.374103 132.151247 444.933324 131.041823 444.933324 
C 129.932399 444.933324 128.868265 445.374103 128.083783 446.158585 
C 127.299302 446.943066 126.858523 448.0072 126.858523 449.116624 
C 126.858523 450.226049 127.299302 451.290183 128.083783 452.074664 
C 128.868265 452.859146 129.932399 453.299925 131.041823 453.299925 
z
" style="fill:#ff0000;fill-opacity:0.7;stroke:#ff0000;stroke-opacity:0.7;"/>
    <path clip-path="url(#pa6043ab6d9)" d="M 131.041823 436.879575 
C 132.151247 436.879575 133.215382 436.438796 133.999863 435.654314 
C 134.784344 434.869833 135.225123 433.805699 135.225123 432.696275 
C 135.225123 431.58685 134.784344 430.522716 133.999863 429.738235 
C 133.215382 428.953753 132.151247 428.512974 131.041823 428.512974 
C 129.932399 428.512974 128.868265 428.953753 128.083783 429.738235 
C 127.299302 430.522716 126.858523 431.58685 126.858523 432.696275 
C 126.858523 433.805699 127.299302 434.869833 128.083783 435.654314 
C 128.868265 436.438796 129.932399 436.879575 131.041823 436.879575 
z
" style="fill:#ff0000;fill-opacity:0.7;stroke:#ff0000;stroke-opacity:0.7;"/>
    <path clip-path="url(#pa6043ab6d9)" d="M 131.407891 420.459225 
C 132.517315 420.459225 133.581449 420.018446 134.365931 419.233964 
C 135.150412 418.449483 135.591191 417.385349 135.591191 416.275925 
C 135.591191 415.1665 135.150412 414.102366 134.365931 413.317885 
C 133.581449 412.533403 132.517315 412.092624 131.407891 412.092624 
C 130.298467 412.092624 129.234332 412.533403 128.449851 413.317885 
C 127.66537 414.102366 127.224591 415.1665 127.224591 416.275925 
C 127.224591 417.385349 127.66537 418.449483 128.449851 419.233964 
C 129.234332 420.018446 130.298467 420.459225 131.407891 420.459225 
z
" style="fill:#ff0000;fill-opacity:0.7;stroke:#ff0000;stroke-opacity:0.7;"/>
    <path clip-path="url(#pa6043ab6d9)" d="M 132.714583 404.038875 
C 133.824007 404.038875 134.888141 403.598096 135.672623 402.813615 
C 136.457104 402.029133 136.897883 400.964999 136.897883 399.855575 
C 136.897883 398.746151 136.457104 397.682016 135.672623 396.897535 
C 134.888141 396.113053 133.824007 395.672275 132.714583 395.672275 
C 131.605159 395.672275 130.541024 396.113053 129.756543 396.897535 
C 128.972061 397.682016 128.531283 398.746151 128.531283 399.855575 
C 128.531283 400.964999 128.972061 402.029133 129.756543 402.813615 
C 130.541024 403.598096 131.605159 404.038875 132.714583 404.038875 
z
" style="fill:#ff0000;fill-opacity:0.7;stroke:#ff0000;stroke-opacity:0.7;"/>
    <path clip-path="url(#pa6043ab6d9)" d="M 134.978777 387.618525 
C 136.088202 387.618525 137.152336 387.177746 137.936817 386.393265 
C 138.721299 385.608783 139.162078 384.544649 139.162078 383.435225 
C 139.162078 382.325801 138.721299 381.261666 137.936817 380.477185 
C 137.152336 379.692704 136.088202 379.251925 134.978777 379.251925 
C 133.869353 379.251925 132.805219 379.692704 132.020738 380.477185 
C 131.236256 381.261666 130.795477 382.325801 130.795477 383.435225 
C 130.795477 384.544649 131.236256 385.608783 132.020738 386.393265 
C 132.805219 387.177746 133.869353 387.618525 134.978777 387.618525 
z
" style="fill:#ff0000;fill-opacity:0.7;stroke:#ff0000;stroke-opacity:0.7;"/>
    <path clip-path="url(#pa6043ab6d9)" d="M 135.434635 371.198175 
C 136.544059 371.198175 137.608194 370.757396 138.392675 369.972915 
C 139.177156 369.188433 139.617935 368.124299 139.617935 367.014875 
C 139.617935 365.905451 139.177156 364.841316 138.392675 364.056835 
C 137.608194 363.272354 136.544059 362.831575 135.434635 362.831575 
C 134.325211 362.831575 133.261077 363.272354 132.476595 364.056835 
C 131.692114 364.841316 131.251335 365.905451 131.251335 367.014875 
C 131.251335 368.124299 131.692114 369.188433 132.476595 369.972915 
C 133.261077 370.757396 134.325211 371.198175 135.434635 371.198175 
z
" style="fill:#ff0000;fill-opacity:0.7;stroke:#ff0000;stroke-opacity:0.7;"/>
    <path clip-path="url(#pa6043ab6d9)" d="M 136.532838 354.777825 
C 137.642262 354.777825 138.706397 354.337046 139.490878 353.552565 
C 140.27536 352.768083 140.716138 351.703949 140.716138 350.594525 
C 140.716138 349.485101 140.27536 348.420966 139.490878 347.636485 
C 138.706397 346.852004 137.642262 346.411225 136.532838 346.411225 
C 135.423414 346.411225 134.35928 346.852004 133.574798 347.636485 
C 132.790317 348.420966 132.349538 349.485101 132.349538 350.594525 
C 132.349538 351.703949 132.790317 352.768083 133.574798 353.552565 
C 134.35928 354.337046 135.423414 354.777825 136.532838 354.777825 
z
" style="fill:#ff0000;fill-opacity:0.7;stroke:#ff0000;stroke-opacity:0.7;"/>
    <path clip-path="url(#pa6043ab6d9)" d="M 136.532838 338.357475 
C 137.642262 338.357475 138.706397 337.916696 139.490878 337.132215 
C 140.27536 336.347734 140.716138 335.283599 140.716138 334.174175 
C 140.716138 333.064751 140.27536 332.000616 139.490878 331.216135 
C 138.706397 330.431654 137.642262 329.990875 136.532838 329.990875 
C 135.423414 329.990875 134.35928 330.431654 133.574798 331.216135 
C 132.790317 332.000616 132.349538 333.064751 132.349538 334.174175 
C 132.349538 335.283599 132.790317 336.347734 133.574798 337.132215 
C 134.35928 337.916696 135.423414 338.357475 136.532838 338.357475 
z
" style="fill:#ff0000;fill-opacity:0.7;stroke:#ff0000;stroke-opacity:0.7;"/>
    <path clip-path="url(#pa6043ab6d9)" d="M 136.855839 321.937125 
C 137.965263 321.937125 139.029398 321.496346 139.813879 320.711865 
C 140.59836 319.927384 141.039139 318.863249 141.039139 317.753825 
C 141.039139 316.644401 140.59836 315.580266 139.813879 314.795785 
C 139.029398 314.011304 137.965263 313.570525 136.855839 313.570525 
C 135.746415 313.570525 134.682281 314.011304 133.897799 314.795785 
C 133.113318 315.580266 132.672539 316.644401 132.672539 317.753825 
C 132.672539 318.863249 133.113318 319.927384 133.897799 320.711865 
C 134.682281 321.496346 135.746415 321.937125 136.855839 321.937125 
z
" style="fill:#ff0000;fill-opacity:0.7;stroke:#ff0000;stroke-opacity:0.7;"/>
    <path clip-path="url(#pa6043ab6d9)" d="M 139.240736 305.516775 
C 140.35016 305.516775 141.414295 305.075996 142.198776 304.291515 
C 142.983257 303.507034 143.424036 302.442899 143.424036 301.333475 
C 143.424036 300.224051 142.983257 299.159917 142.198776 298.375435 
C 141.414295 297.590954 140.35016 297.150175 139.240736 297.150175 
C 138.131312 297.150175 137.067178 297.590954 136.282696 298.375435 
C 135.498215 299.159917 135.057436 300.224051 135.057436 301.333475 
C 135.057436 302.442899 135.498215 303.507034 136.282696 304.291515 
C 137.067178 305.075996 138.131312 305.516775 139.240736 305.516775 
z
" style="fill:#ff0000;fill-opacity:0.7;stroke:#ff0000;stroke-opacity:0.7;"/>
    <path clip-path="url(#pa6043ab6d9)" d="M 140.408849 289.096425 
C 141.518273 289.096425 142.582407 288.655646 143.366889 287.871165 
C 144.15137 287.086684 144.592149 286.022549 144.592149 284.913125 
C 144.592149 283.803701 144.15137 282.739567 143.366889 281.955085 
C 142.582407 281.170604 141.518273 280.729825 140.408849 280.729825 
C 139.299425 280.729825 138.23529 281.170604 137.450809 281.955085 
C 136.666328 282.739567 136.225549 283.803701 136.225549 284.913125 
C 136.225549 286.022549 136.666328 287.086684 137.450809 287.871165 
C 138.23529 288.655646 139.299425 289.096425 140.408849 289.096425 
z
" style="fill:#ff0000;fill-opacity:0.7;stroke:#ff0000;stroke-opacity:0.7;"/>
    <path clip-path="url(#pa6043ab6d9)" d="M 141.474752 272.676075 
C 142.584176 272.676075 143.64831 272.235296 144.432792 271.450815 
C 145.217273 270.666334 145.658052 269.602199 145.658052 268.492775 
C 145.658052 267.383351 145.217273 266.319217 144.432792 265.534735 
C 143.64831 264.750254 142.584176 264.309475 141.474752 264.309475 
C 140.365328 264.309475 139.301193 264.750254 138.516712 265.534735 
C 137.732231 266.319217 137.291452 267.383351 137.291452 268.492775 
C 137.291452 269.602199 137.732231 270.666334 138.516712 271.450815 
C 139.301193 272.235296 140.365328 272.676075 141.474752 272.676075 
z
" style="fill:#ff0000;fill-opacity:0.7;stroke:#ff0000;stroke-opacity:0.7;"/>
    <path clip-path="url(#pa6043ab6d9)" d="M 143.554136 256.255725 
C 144.66356 256.255725 145.727695 255.814947 146.512176 255.030465 
C 147.296658 254.245984 147.737436 253.181849 147.737436 252.072425 
C 147.737436 250.963001 147.296658 249.898867 146.512176 249.114385 
C 145.727695 248.329904 144.66356 247.889125 143.554136 247.889125 
C 142.444712 247.889125 141.380578 248.329904 140.596096 249.114385 
C 139.811615 249.898867 139.370836 250.963001 139.370836 252.072425 
C 139.370836 253.181849 139.811615 254.245984 140.596096 255.030465 
C 141.380578 255.814947 142.444712 256.255725 143.554136 256.255725 
z
" style="fill:#ff0000;fill-opacity:0.7;stroke:#ff0000;stroke-opacity:0.7;"/>
    <path clip-path="url(#pa6043ab6d9)" d="M 148.242593 239.835376 
C 149.352018 239.835376 150.416152 239.394597 151.200633 238.610115 
C 151.985115 237.825634 152.425894 236.7615 152.425894 235.652075 
C 152.425894 234.542651 151.985115 233.478517 151.200633 232.694036 
C 150.416152 231.909554 149.352018 231.468775 148.242593 231.468775 
C 147.133169 231.468775 146.069035 231.909554 145.284554 232.694036 
C 144.500072 233.478517 144.059293 234.542651 144.059293 235.652075 
C 144.059293 236.7615 144.500072 237.825634 145.284554 238.610115 
C 146.069035 239.394597 147.133169 239.835376 148.242593 239.835376 
z
" style="fill:#ff0000;fill-opacity:0.7;stroke:#ff0000;stroke-opacity:0.7;"/>
    <path clip-path="url(#pa6043ab6d9)" d="M 150.285564 223.415026 
C 151.394988 223.415026 152.459123 222.974247 153.243604 222.189765 
C 154.028085 221.405284 154.468864 220.34115 154.468864 219.231725 
C 154.468864 218.122301 154.028085 217.058167 153.243604 216.273686 
C 152.459123 215.489204 151.394988 215.048425 150.285564 215.048425 
C 149.17614 215.048425 148.112006 215.489204 147.327524 216.273686 
C 146.543043 217.058167 146.102264 218.122301 146.102264 219.231725 
C 146.102264 220.34115 146.543043 221.405284 147.327524 222.189765 
C 148.112006 222.974247 149.17614 223.415026 150.285564 223.415026 
z
" style="fill:#ff0000;fill-opacity:0.7;stroke:#ff0000;stroke-opacity:0.7;"/>
    <path clip-path="url(#pa6043ab6d9)" d="M 159.595102 206.994676 
C 160.704526 206.994676 161.76866 206.553897 162.553142 205.769415 
C 163.337623 204.984934 163.778402 203.9208 163.778402 202.811376 
C 163.778402 201.701951 163.337623 200.637817 162.553142 199.853336 
C 161.76866 199.068854 160.704526 198.628075 159.595102 198.628075 
C 158.485678 198.628075 157.421543 199.068854 156.637062 199.853336 
C 155.852581 200.637817 155.411802 201.701951 155.411802 202.811376 
C 155.411802 203.9208 155.852581 204.984934 156.637062 205.769415 
C 157.421543 206.553897 158.485678 206.994676 159.595102 206.994676 
z
" style="fill:#ff0000;fill-opacity:0.7;stroke:#ff0000;stroke-opacity:0.7;"/>
    <path clip-path="url(#pa6043ab6d9)" d="M 163.987914 190.574326 
C 165.097338 190.574326 166.161472 190.133547 166.945954 189.349066 
C 167.730435 188.564584 168.171214 187.50045 168.171214 186.391026 
C 168.171214 185.281601 167.730435 184.217467 166.945954 183.432986 
C 166.161472 182.648504 165.097338 182.207725 163.987914 182.207725 
C 162.87849 182.207725 161.814355 182.648504 161.029874 183.432986 
C 160.245393 184.217467 159.804614 185.281601 159.804614 186.391026 
C 159.804614 187.50045 160.245393 188.564584 161.029874 189.349066 
C 161.814355 190.133547 162.87849 190.574326 163.987914 190.574326 
z
" style="fill:#ff0000;fill-opacity:0.7;stroke:#ff0000;stroke-opacity:0.7;"/>
    <path clip-path="url(#pa6043ab6d9)" d="M 169.478929 174.153976 
C 170.588353 174.153976 171.652488 173.713197 172.436969 172.928716 
C 173.22145 172.144234 173.662229 171.0801 173.662229 169.970676 
C 173.662229 168.861252 173.22145 167.797117 172.436969 167.012636 
C 171.652488 166.228154 170.588353 165.787376 169.478929 165.787376 
C 168.369505 165.787376 167.30537 166.228154 166.520889 167.012636 
C 165.736408 167.797117 165.295629 168.861252 165.295629 169.970676 
C 165.295629 171.0801 165.736408 172.144234 166.520889 172.928716 
C 167.30537 173.713197 168.369505 174.153976 169.478929 174.153976 
z
" style="fill:#ff0000;fill-opacity:0.7;stroke:#ff0000;stroke-opacity:0.7;"/>
    <path clip-path="url(#pa6043ab6d9)" d="M 173.706525 157.733626 
C 174.815949 157.733626 175.880083 157.292847 176.664565 156.508366 
C 177.449046 155.723884 177.889825 154.65975 177.889825 153.550326 
C 177.889825 152.440902 177.449046 151.376767 176.664565 150.592286 
C 175.880083 149.807805 174.815949 149.367026 173.706525 149.367026 
C 172.597101 149.367026 171.532966 149.807805 170.748485 150.592286 
C 169.964003 151.376767 169.523225 152.440902 169.523225 153.550326 
C 169.523225 154.65975 169.964003 155.723884 170.748485 156.508366 
C 171.532966 157.292847 172.597101 157.733626 173.706525 157.733626 
z
" style="fill:#ff0000;fill-opacity:0.7;stroke:#ff0000;stroke-opacity:0.7;"/>
    <path clip-path="url(#pa6043ab6d9)" d="M 176.538806 141.313276 
C 177.64823 141.313276 178.712364 140.872497 179.496845 140.088016 
C 180.281327 139.303534 180.722106 138.2394 180.722106 137.129976 
C 180.722106 136.020552 180.281327 134.956417 179.496845 134.171936 
C 178.712364 133.387455 177.64823 132.946676 176.538806 132.946676 
C 175.429381 132.946676 174.365247 133.387455 173.580766 134.171936 
C 172.796284 134.956417 172.355505 136.020552 172.355505 137.129976 
C 172.355505 138.2394 172.796284 139.303534 173.580766 140.088016 
C 174.365247 140.872497 175.429381 141.313276 176.538806 141.313276 
z
" style="fill:#ff0000;fill-opacity:0.7;stroke:#ff0000;stroke-opacity:0.7;"/>
    <path clip-path="url(#pa6043ab6d9)" d="M 193.703996 124.892926 
C 194.81342 124.892926 195.877554 124.452147 196.662036 123.667666 
C 197.446517 122.883184 197.887296 121.81905 197.887296 120.709626 
C 197.887296 119.600202 197.446517 118.536067 196.662036 117.751586 
C 195.877554 116.967105 194.81342 116.526326 193.703996 116.526326 
C 192.594571 116.526326 191.530437 116.967105 190.745956 117.751586 
C 189.961474 118.536067 189.520696 119.600202 189.520696 120.709626 
C 189.520696 121.81905 189.961474 122.883184 190.745956 123.667666 
C 191.530437 124.452147 192.594571 124.892926 193.703996 124.892926 
z
" style="fill:#ff0000;fill-opacity:0.7;stroke:#ff0000;stroke-opacity:0.7;"/>
    <path clip-path="url(#pa6043ab6d9)" d="M 207.916035 108.472576 
C 209.025459 108.472576 210.089593 108.031797 210.874075 107.247316 
C 211.658556 106.462835 212.099335 105.3987 212.099335 104.289276 
C 212.099335 103.179852 211.658556 102.115717 210.874075 101.331236 
C 210.089593 100.546755 209.025459 100.105976 207.916035 100.105976 
C 206.806611 100.105976 205.742476 100.546755 204.957995 101.331236 
C 204.173514 102.115717 203.732735 103.179852 203.732735 104.289276 
C 203.732735 105.3987 204.173514 106.462835 204.957995 107.247316 
C 205.742476 108.031797 206.806611 108.472576 207.916035 108.472576 
z
" style="fill:#ff0000;fill-opacity:0.7;stroke:#ff0000;stroke-opacity:0.7;"/>
    <path clip-path="url(#pa6043ab6d9)" d="M 207.916035 92.052226 
C 209.025459 92.052226 210.089593 91.611447 210.874075 90.826966 
C 211.658556 90.042485 212.099335 88.97835 212.099335 87.868926 
C 212.099335 86.759502 211.658556 85.695368 210.874075 84.910886 
C 210.089593 84.126405 209.025459 83.685626 207.916035 83.685626 
C 206.806611 83.685626 205.742476 84.126405 204.957995 84.910886 
C 204.173514 85.695368 203.732735 86.759502 203.732735 87.868926 
C 203.732735 88.97835 204.173514 90.042485 204.957995 90.826966 
C 205.742476 91.611447 206.806611 92.052226 207.916035 92.052226 
z
" style="fill:#ff0000;fill-opacity:0.7;stroke:#ff0000;stroke-opacity:0.7;"/>
    <path clip-path="url(#pa6043ab6d9)" d="M 281.260308 75.631876 
C 282.369732 75.631876 283.433867 75.191097 284.218348 74.406616 
C 285.002829 73.622135 285.443608 72.558 285.443608 71.448576 
C 285.443608 70.339152 285.002829 69.275018 284.218348 68.490536 
C 283.433867 67.706055 282.369732 67.265276 281.260308 67.265276 
C 280.150884 67.265276 279.08675 67.706055 278.302268 68.490536 
C 277.517787 69.275018 277.077008 70.339152 277.077008 71.448576 
C 277.077008 72.558 277.517787 73.622135 278.302268 74.406616 
C 279.08675 75.191097 280.150884 75.631876 281.260308 75.631876 
z
" style="fill:#ff0000;fill-opacity:0.7;stroke:#ff0000;stroke-opacity:0.7;"/>
   </g>
   <g id="matplotlib.axis_1">
    <g id="xtick_1">
     <g id="line2d_1">
      <defs>
       <path d="M 0 0 
L 0 3.5 
" id="mfc082cb518" style="stroke:#000000;stroke-width:0.8;"/>
      </defs>
      <g>
       <use style="stroke:#000000;stroke-width:0.8;" x="123.354402" xlink:href="#mfc082cb518" y="606.04"/>
      </g>
     </g>
     <g id="text_1">
      <!-- 0.1 -->
      <defs>
       <path d="M 31.78125 66.40625 
Q 24.171875 66.40625 20.328125 58.90625 
Q 16.5 51.421875 16.5 36.375 
Q 16.5 21.390625 20.328125 13.890625 
Q 24.171875 6.390625 31.78125 6.390625 
Q 39.453125 6.390625 43.28125 13.890625 
Q 47.125 21.390625 47.125 36.375 
Q 47.125 51.421875 43.28125 58.90625 
Q 39.453125 66.40625 31.78125 66.40625 
z
M 31.78125 74.21875 
Q 44.046875 74.21875 50.515625 64.515625 
Q 56.984375 54.828125 56.984375 36.375 
Q 56.984375 17.96875 50.515625 8.265625 
Q 44.046875 -1.421875 31.78125 -1.421875 
Q 19.53125 -1.421875 13.0625 8.265625 
Q 6.59375 17.96875 6.59375 36.375 
Q 6.59375 54.828125 13.0625 64.515625 
Q 19.53125 74.21875 31.78125 74.21875 
z
" id="DejaVuSans-48"/>
       <path d="M 10.6875 12.40625 
L 21 12.40625 
L 21 0 
L 10.6875 0 
z
" id="DejaVuSans-46"/>
       <path d="M 12.40625 8.296875 
L 28.515625 8.296875 
L 28.515625 63.921875 
L 10.984375 60.40625 
L 10.984375 69.390625 
L 28.421875 72.90625 
L 38.28125 72.90625 
L 38.28125 8.296875 
L 54.390625 8.296875 
L 54.390625 0 
L 12.40625 0 
z
" id="DejaVuSans-49"/>
      </defs>
      <g transform="translate(115.40284 620.638438)scale(0.1 -0.1)">
       <use xlink:href="#DejaVuSans-48"/>
       <use x="63.623047" xlink:href="#DejaVuSans-46"/>
       <use x="95.410156" xlink:href="#DejaVuSans-49"/>
      </g>
     </g>
    </g>
    <g id="xtick_2">
     <g id="line2d_2">
      <g>
       <use style="stroke:#000000;stroke-width:0.8;" x="159.595102" xlink:href="#mfc082cb518" y="606.04"/>
      </g>
     </g>
     <g id="text_2">
      <!-- 0.2 -->
      <defs>
       <path d="M 19.1875 8.296875 
L 53.609375 8.296875 
L 53.609375 0 
L 7.328125 0 
L 7.328125 8.296875 
Q 12.9375 14.109375 22.625 23.890625 
Q 32.328125 33.6875 34.8125 36.53125 
Q 39.546875 41.84375 41.421875 45.53125 
Q 43.3125 49.21875 43.3125 52.78125 
Q 43.3125 58.59375 39.234375 62.25 
Q 35.15625 65.921875 28.609375 65.921875 
Q 23.96875 65.921875 18.8125 64.3125 
Q 13.671875 62.703125 7.8125 59.421875 
L 7.8125 69.390625 
Q 13.765625 71.78125 18.9375 73 
Q 24.125 74.21875 28.421875 74.21875 
Q 39.75 74.21875 46.484375 68.546875 
Q 53.21875 62.890625 53.21875 53.421875 
Q 53.21875 48.921875 51.53125 44.890625 
Q 49.859375 40.875 45.40625 35.40625 
Q 44.1875 33.984375 37.640625 27.21875 
Q 31.109375 20.453125 19.1875 8.296875 
z
" id="DejaVuSans-50"/>
      </defs>
      <g transform="translate(151.643539 620.638438)scale(0.1 -0.1)">
       <use xlink:href="#DejaVuSans-48"/>
       <use x="63.623047" xlink:href="#DejaVuSans-46"/>
       <use x="95.410156" xlink:href="#DejaVuSans-50"/>
      </g>
     </g>
    </g>
    <g id="xtick_3">
     <g id="line2d_3">
      <g>
       <use style="stroke:#000000;stroke-width:0.8;" x="195.835802" xlink:href="#mfc082cb518" y="606.04"/>
      </g>
     </g>
     <g id="text_3">
      <!-- 0.3 -->
      <defs>
       <path d="M 40.578125 39.3125 
Q 47.65625 37.796875 51.625 33 
Q 55.609375 28.21875 55.609375 21.1875 
Q 55.609375 10.40625 48.1875 4.484375 
Q 40.765625 -1.421875 27.09375 -1.421875 
Q 22.515625 -1.421875 17.65625 -0.515625 
Q 12.796875 0.390625 7.625 2.203125 
L 7.625 11.71875 
Q 11.71875 9.328125 16.59375 8.109375 
Q 21.484375 6.890625 26.8125 6.890625 
Q 36.078125 6.890625 40.9375 10.546875 
Q 45.796875 14.203125 45.796875 21.1875 
Q 45.796875 27.640625 41.28125 31.265625 
Q 36.765625 34.90625 28.71875 34.90625 
L 20.21875 34.90625 
L 20.21875 43.015625 
L 29.109375 43.015625 
Q 36.375 43.015625 40.234375 45.921875 
Q 44.09375 48.828125 44.09375 54.296875 
Q 44.09375 59.90625 40.109375 62.90625 
Q 36.140625 65.921875 28.71875 65.921875 
Q 24.65625 65.921875 20.015625 65.03125 
Q 15.375 64.15625 9.8125 62.3125 
L 9.8125 71.09375 
Q 15.4375 72.65625 20.34375 73.4375 
Q 25.25 74.21875 29.59375 74.21875 
Q 40.828125 74.21875 47.359375 69.109375 
Q 53.90625 64.015625 53.90625 55.328125 
Q 53.90625 49.265625 50.4375 45.09375 
Q 46.96875 40.921875 40.578125 39.3125 
z
" id="DejaVuSans-51"/>
      </defs>
      <g transform="translate(187.884239 620.638438)scale(0.1 -0.1)">
       <use xlink:href="#DejaVuSans-48"/>
       <use x="63.623047" xlink:href="#DejaVuSans-46"/>
       <use x="95.410156" xlink:href="#DejaVuSans-51"/>
      </g>
     </g>
    </g>
    <g id="xtick_4">
     <g id="line2d_4">
      <g>
       <use style="stroke:#000000;stroke-width:0.8;" x="232.076501" xlink:href="#mfc082cb518" y="606.04"/>
      </g>
     </g>
     <g id="text_4">
      <!-- 0.4 -->
      <defs>
       <path d="M 37.796875 64.3125 
L 12.890625 25.390625 
L 37.796875 25.390625 
z
M 35.203125 72.90625 
L 47.609375 72.90625 
L 47.609375 25.390625 
L 58.015625 25.390625 
L 58.015625 17.1875 
L 47.609375 17.1875 
L 47.609375 0 
L 37.796875 0 
L 37.796875 17.1875 
L 4.890625 17.1875 
L 4.890625 26.703125 
z
" id="DejaVuSans-52"/>
      </defs>
      <g transform="translate(224.124939 620.638438)scale(0.1 -0.1)">
       <use xlink:href="#DejaVuSans-48"/>
       <use x="63.623047" xlink:href="#DejaVuSans-46"/>
       <use x="95.410156" xlink:href="#DejaVuSans-52"/>
      </g>
     </g>
    </g>
    <g id="xtick_5">
     <g id="line2d_5">
      <g>
       <use style="stroke:#000000;stroke-width:0.8;" x="268.317201" xlink:href="#mfc082cb518" y="606.04"/>
      </g>
     </g>
     <g id="text_5">
      <!-- 0.5 -->
      <defs>
       <path d="M 10.796875 72.90625 
L 49.515625 72.90625 
L 49.515625 64.59375 
L 19.828125 64.59375 
L 19.828125 46.734375 
Q 21.96875 47.46875 24.109375 47.828125 
Q 26.265625 48.1875 28.421875 48.1875 
Q 40.625 48.1875 47.75 41.5 
Q 54.890625 34.8125 54.890625 23.390625 
Q 54.890625 11.625 47.5625 5.09375 
Q 40.234375 -1.421875 26.90625 -1.421875 
Q 22.3125 -1.421875 17.546875 -0.640625 
Q 12.796875 0.140625 7.71875 1.703125 
L 7.71875 11.625 
Q 12.109375 9.234375 16.796875 8.0625 
Q 21.484375 6.890625 26.703125 6.890625 
Q 35.15625 6.890625 40.078125 11.328125 
Q 45.015625 15.765625 45.015625 23.390625 
Q 45.015625 31 40.078125 35.4375 
Q 35.15625 39.890625 26.703125 39.890625 
Q 22.75 39.890625 18.8125 39.015625 
Q 14.890625 38.140625 10.796875 36.28125 
z
" id="DejaVuSans-53"/>
      </defs>
      <g transform="translate(260.365639 620.638438)scale(0.1 -0.1)">
       <use xlink:href="#DejaVuSans-48"/>
       <use x="63.623047" xlink:href="#DejaVuSans-46"/>
       <use x="95.410156" xlink:href="#DejaVuSans-53"/>
      </g>
     </g>
    </g>
    <g id="xtick_6">
     <g id="line2d_6">
      <g>
       <use style="stroke:#000000;stroke-width:0.8;" x="304.557901" xlink:href="#mfc082cb518" y="606.04"/>
      </g>
     </g>
     <g id="text_6">
      <!-- 0.6 -->
      <defs>
       <path d="M 33.015625 40.375 
Q 26.375 40.375 22.484375 35.828125 
Q 18.609375 31.296875 18.609375 23.390625 
Q 18.609375 15.53125 22.484375 10.953125 
Q 26.375 6.390625 33.015625 6.390625 
Q 39.65625 6.390625 43.53125 10.953125 
Q 47.40625 15.53125 47.40625 23.390625 
Q 47.40625 31.296875 43.53125 35.828125 
Q 39.65625 40.375 33.015625 40.375 
z
M 52.59375 71.296875 
L 52.59375 62.3125 
Q 48.875 64.0625 45.09375 64.984375 
Q 41.3125 65.921875 37.59375 65.921875 
Q 27.828125 65.921875 22.671875 59.328125 
Q 17.53125 52.734375 16.796875 39.40625 
Q 19.671875 43.65625 24.015625 45.921875 
Q 28.375 48.1875 33.59375 48.1875 
Q 44.578125 48.1875 50.953125 41.515625 
Q 57.328125 34.859375 57.328125 23.390625 
Q 57.328125 12.15625 50.6875 5.359375 
Q 44.046875 -1.421875 33.015625 -1.421875 
Q 20.359375 -1.421875 13.671875 8.265625 
Q 6.984375 17.96875 6.984375 36.375 
Q 6.984375 53.65625 15.1875 63.9375 
Q 23.390625 74.21875 37.203125 74.21875 
Q 40.921875 74.21875 44.703125 73.484375 
Q 48.484375 72.75 52.59375 71.296875 
z
" id="DejaVuSans-54"/>
      </defs>
      <g transform="translate(296.606338 620.638438)scale(0.1 -0.1)">
       <use xlink:href="#DejaVuSans-48"/>
       <use x="63.623047" xlink:href="#DejaVuSans-46"/>
       <use x="95.410156" xlink:href="#DejaVuSans-54"/>
      </g>
     </g>
    </g>
    <g id="xtick_7">
     <g id="line2d_7">
      <g>
       <use style="stroke:#000000;stroke-width:0.8;" x="340.798601" xlink:href="#mfc082cb518" y="606.04"/>
      </g>
     </g>
     <g id="text_7">
      <!-- 0.7 -->
      <defs>
       <path d="M 8.203125 72.90625 
L 55.078125 72.90625 
L 55.078125 68.703125 
L 28.609375 0 
L 18.3125 0 
L 43.21875 64.59375 
L 8.203125 64.59375 
z
" id="DejaVuSans-55"/>
      </defs>
      <g transform="translate(332.847038 620.638438)scale(0.1 -0.1)">
       <use xlink:href="#DejaVuSans-48"/>
       <use x="63.623047" xlink:href="#DejaVuSans-46"/>
       <use x="95.410156" xlink:href="#DejaVuSans-55"/>
      </g>
     </g>
    </g>
    <g id="xtick_8">
     <g id="line2d_8">
      <g>
       <use style="stroke:#000000;stroke-width:0.8;" x="377.0393" xlink:href="#mfc082cb518" y="606.04"/>
      </g>
     </g>
     <g id="text_8">
      <!-- 0.8 -->
      <defs>
       <path d="M 31.78125 34.625 
Q 24.75 34.625 20.71875 30.859375 
Q 16.703125 27.09375 16.703125 20.515625 
Q 16.703125 13.921875 20.71875 10.15625 
Q 24.75 6.390625 31.78125 6.390625 
Q 38.8125 6.390625 42.859375 10.171875 
Q 46.921875 13.96875 46.921875 20.515625 
Q 46.921875 27.09375 42.890625 30.859375 
Q 38.875 34.625 31.78125 34.625 
z
M 21.921875 38.8125 
Q 15.578125 40.375 12.03125 44.71875 
Q 8.5 49.078125 8.5 55.328125 
Q 8.5 64.0625 14.71875 69.140625 
Q 20.953125 74.21875 31.78125 74.21875 
Q 42.671875 74.21875 48.875 69.140625 
Q 55.078125 64.0625 55.078125 55.328125 
Q 55.078125 49.078125 51.53125 44.71875 
Q 48 40.375 41.703125 38.8125 
Q 48.828125 37.15625 52.796875 32.3125 
Q 56.78125 27.484375 56.78125 20.515625 
Q 56.78125 9.90625 50.3125 4.234375 
Q 43.84375 -1.421875 31.78125 -1.421875 
Q 19.734375 -1.421875 13.25 4.234375 
Q 6.78125 9.90625 6.78125 20.515625 
Q 6.78125 27.484375 10.78125 32.3125 
Q 14.796875 37.15625 21.921875 38.8125 
z
M 18.3125 54.390625 
Q 18.3125 48.734375 21.84375 45.5625 
Q 25.390625 42.390625 31.78125 42.390625 
Q 38.140625 42.390625 41.71875 45.5625 
Q 45.3125 48.734375 45.3125 54.390625 
Q 45.3125 60.0625 41.71875 63.234375 
Q 38.140625 66.40625 31.78125 66.40625 
Q 25.390625 66.40625 21.84375 63.234375 
Q 18.3125 60.0625 18.3125 54.390625 
z
" id="DejaVuSans-56"/>
      </defs>
      <g transform="translate(369.087738 620.638438)scale(0.1 -0.1)">
       <use xlink:href="#DejaVuSans-48"/>
       <use x="63.623047" xlink:href="#DejaVuSans-46"/>
       <use x="95.410156" xlink:href="#DejaVuSans-56"/>
      </g>
     </g>
    </g>
    <g id="xtick_9">
     <g id="line2d_9">
      <g>
       <use style="stroke:#000000;stroke-width:0.8;" x="413.28" xlink:href="#mfc082cb518" y="606.04"/>
      </g>
     </g>
     <g id="text_9">
      <!-- 0.9 -->
      <defs>
       <path d="M 10.984375 1.515625 
L 10.984375 10.5 
Q 14.703125 8.734375 18.5 7.8125 
Q 22.3125 6.890625 25.984375 6.890625 
Q 35.75 6.890625 40.890625 13.453125 
Q 46.046875 20.015625 46.78125 33.40625 
Q 43.953125 29.203125 39.59375 26.953125 
Q 35.25 24.703125 29.984375 24.703125 
Q 19.046875 24.703125 12.671875 31.3125 
Q 6.296875 37.9375 6.296875 49.421875 
Q 6.296875 60.640625 12.9375 67.421875 
Q 19.578125 74.21875 30.609375 74.21875 
Q 43.265625 74.21875 49.921875 64.515625 
Q 56.59375 54.828125 56.59375 36.375 
Q 56.59375 19.140625 48.40625 8.859375 
Q 40.234375 -1.421875 26.421875 -1.421875 
Q 22.703125 -1.421875 18.890625 -0.6875 
Q 15.09375 0.046875 10.984375 1.515625 
z
M 30.609375 32.421875 
Q 37.25 32.421875 41.125 36.953125 
Q 45.015625 41.5 45.015625 49.421875 
Q 45.015625 57.28125 41.125 61.84375 
Q 37.25 66.40625 30.609375 66.40625 
Q 23.96875 66.40625 20.09375 61.84375 
Q 16.21875 57.28125 16.21875 49.421875 
Q 16.21875 41.5 20.09375 36.953125 
Q 23.96875 32.421875 30.609375 32.421875 
z
" id="DejaVuSans-57"/>
      </defs>
      <g transform="translate(405.328437 620.638438)scale(0.1 -0.1)">
       <use xlink:href="#DejaVuSans-48"/>
       <use x="63.623047" xlink:href="#DejaVuSans-46"/>
       <use x="95.410156" xlink:href="#DejaVuSans-57"/>
      </g>
     </g>
    </g>
    <g id="text_10">
     <!-- Proporção -->
     <defs>
      <path d="M 19.671875 64.796875 
L 19.671875 37.40625 
L 32.078125 37.40625 
Q 38.96875 37.40625 42.71875 40.96875 
Q 46.484375 44.53125 46.484375 51.125 
Q 46.484375 57.671875 42.71875 61.234375 
Q 38.96875 64.796875 32.078125 64.796875 
z
M 9.8125 72.90625 
L 32.078125 72.90625 
Q 44.34375 72.90625 50.609375 67.359375 
Q 56.890625 61.8125 56.890625 51.125 
Q 56.890625 40.328125 50.609375 34.8125 
Q 44.34375 29.296875 32.078125 29.296875 
L 19.671875 29.296875 
L 19.671875 0 
L 9.8125 0 
z
" id="DejaVuSans-80"/>
      <path d="M 41.109375 46.296875 
Q 39.59375 47.171875 37.8125 47.578125 
Q 36.03125 48 33.890625 48 
Q 26.265625 48 22.1875 43.046875 
Q 18.109375 38.09375 18.109375 28.8125 
L 18.109375 0 
L 9.078125 0 
L 9.078125 54.6875 
L 18.109375 54.6875 
L 18.109375 46.1875 
Q 20.953125 51.171875 25.484375 53.578125 
Q 30.03125 56 36.53125 56 
Q 37.453125 56 38.578125 55.875 
Q 39.703125 55.765625 41.0625 55.515625 
z
" id="DejaVuSans-114"/>
      <path d="M 30.609375 48.390625 
Q 23.390625 48.390625 19.1875 42.75 
Q 14.984375 37.109375 14.984375 27.296875 
Q 14.984375 17.484375 19.15625 11.84375 
Q 23.34375 6.203125 30.609375 6.203125 
Q 37.796875 6.203125 41.984375 11.859375 
Q 46.1875 17.53125 46.1875 27.296875 
Q 46.1875 37.015625 41.984375 42.703125 
Q 37.796875 48.390625 30.609375 48.390625 
z
M 30.609375 56 
Q 42.328125 56 49.015625 48.375 
Q 55.71875 40.765625 55.71875 27.296875 
Q 55.71875 13.875 49.015625 6.21875 
Q 42.328125 -1.421875 30.609375 -1.421875 
Q 18.84375 -1.421875 12.171875 6.21875 
Q 5.515625 13.875 5.515625 27.296875 
Q 5.515625 40.765625 12.171875 48.375 
Q 18.84375 56 30.609375 56 
z
" id="DejaVuSans-111"/>
      <path d="M 18.109375 8.203125 
L 18.109375 -20.796875 
L 9.078125 -20.796875 
L 9.078125 54.6875 
L 18.109375 54.6875 
L 18.109375 46.390625 
Q 20.953125 51.265625 25.265625 53.625 
Q 29.59375 56 35.59375 56 
Q 45.5625 56 51.78125 48.09375 
Q 58.015625 40.1875 58.015625 27.296875 
Q 58.015625 14.40625 51.78125 6.484375 
Q 45.5625 -1.421875 35.59375 -1.421875 
Q 29.59375 -1.421875 25.265625 0.953125 
Q 20.953125 3.328125 18.109375 8.203125 
z
M 48.6875 27.296875 
Q 48.6875 37.203125 44.609375 42.84375 
Q 40.53125 48.484375 33.40625 48.484375 
Q 26.265625 48.484375 22.1875 42.84375 
Q 18.109375 37.203125 18.109375 27.296875 
Q 18.109375 17.390625 22.1875 11.75 
Q 26.265625 6.109375 33.40625 6.109375 
Q 40.53125 6.109375 44.609375 11.75 
Q 48.6875 17.390625 48.6875 27.296875 
z
" id="DejaVuSans-112"/>
      <path d="M 48.78125 52.59375 
L 48.78125 44.1875 
Q 44.96875 46.296875 41.140625 47.34375 
Q 37.3125 48.390625 33.40625 48.390625 
Q 24.65625 48.390625 19.8125 42.84375 
Q 14.984375 37.3125 14.984375 27.296875 
Q 14.984375 17.28125 19.8125 11.734375 
Q 24.65625 6.203125 33.40625 6.203125 
Q 37.3125 6.203125 41.140625 7.25 
Q 44.96875 8.296875 48.78125 10.40625 
L 48.78125 2.09375 
Q 45.015625 0.34375 40.984375 -0.53125 
Q 36.96875 -1.421875 32.421875 -1.421875 
Q 20.0625 -1.421875 12.78125 6.34375 
Q 5.515625 14.109375 5.515625 27.296875 
Q 5.515625 40.671875 12.859375 48.328125 
Q 20.21875 56 33.015625 56 
Q 37.15625 56 41.109375 55.140625 
Q 45.0625 54.296875 48.78125 52.59375 
z
M 36.078125 0 
Q 38.765625 -3.03125 40.078125 -5.59375 
Q 41.40625 -8.15625 41.40625 -10.5 
Q 41.40625 -14.84375 38.46875 -17.0625 
Q 35.546875 -19.28125 29.78125 -19.28125 
Q 27.546875 -19.28125 25.421875 -18.984375 
Q 23.296875 -18.703125 21.1875 -18.109375 
L 21.1875 -11.71875 
Q 22.859375 -12.546875 24.65625 -12.90625 
Q 26.46875 -13.28125 28.765625 -13.28125 
Q 31.640625 -13.28125 33.109375 -12.109375 
Q 34.578125 -10.9375 34.578125 -8.6875 
Q 34.578125 -7.234375 33.515625 -5.109375 
Q 32.46875 -2.984375 30.28125 0 
z
" id="DejaVuSans-231"/>
      <path d="M 34.28125 27.484375 
Q 23.390625 27.484375 19.1875 25 
Q 14.984375 22.515625 14.984375 16.5 
Q 14.984375 11.71875 18.140625 8.90625 
Q 21.296875 6.109375 26.703125 6.109375 
Q 34.1875 6.109375 38.703125 11.40625 
Q 43.21875 16.703125 43.21875 25.484375 
L 43.21875 27.484375 
z
M 52.203125 31.203125 
L 52.203125 0 
L 43.21875 0 
L 43.21875 8.296875 
Q 40.140625 3.328125 35.546875 0.953125 
Q 30.953125 -1.421875 24.3125 -1.421875 
Q 15.921875 -1.421875 10.953125 3.296875 
Q 6 8.015625 6 15.921875 
Q 6 25.140625 12.171875 29.828125 
Q 18.359375 34.515625 30.609375 34.515625 
L 43.21875 34.515625 
L 43.21875 35.40625 
Q 43.21875 41.609375 39.140625 45 
Q 35.0625 48.390625 27.6875 48.390625 
Q 23 48.390625 18.546875 47.265625 
Q 14.109375 46.140625 10.015625 43.890625 
L 10.015625 52.203125 
Q 14.9375 54.109375 19.578125 55.046875 
Q 24.21875 56 28.609375 56 
Q 40.484375 56 46.34375 49.84375 
Q 52.203125 43.703125 52.203125 31.203125 
z
M 28.8125 66.890625 
L 26.03125 69.578125 
Q 24.953125 70.5625 24.140625 71.015625 
Q 23.34375 71.484375 22.703125 71.484375 
Q 20.84375 71.484375 19.96875 69.703125 
Q 19.09375 67.921875 19 63.921875 
L 12.890625 63.921875 
Q 12.984375 70.515625 15.46875 74.09375 
Q 17.96875 77.6875 22.40625 77.6875 
Q 24.265625 77.6875 25.828125 77 
Q 27.390625 76.3125 29.203125 74.703125 
L 31.984375 72.015625 
Q 33.0625 71.046875 33.859375 70.578125 
Q 34.671875 70.125 35.296875 70.125 
Q 37.15625 70.125 38.03125 71.90625 
Q 38.921875 73.6875 39.015625 77.6875 
L 45.125 77.6875 
Q 45.015625 71.09375 42.53125 67.5 
Q 40.046875 63.921875 35.59375 63.921875 
Q 33.734375 63.921875 32.171875 64.59375 
Q 30.609375 65.28125 28.8125 66.890625 
z
" id="DejaVuSans-227"/>
     </defs>
     <g transform="translate(218.2625 634.486875)scale(0.1 -0.1)">
      <use xlink:href="#DejaVuSans-80"/>
      <use x="60.287109" xlink:href="#DejaVuSans-114"/>
      <use x="101.369141" xlink:href="#DejaVuSans-111"/>
      <use x="162.550781" xlink:href="#DejaVuSans-112"/>
      <use x="226.027344" xlink:href="#DejaVuSans-111"/>
      <use x="287.208984" xlink:href="#DejaVuSans-114"/>
      <use x="328.291016" xlink:href="#DejaVuSans-231"/>
      <use x="383.271484" xlink:href="#DejaVuSans-227"/>
      <use x="444.550781" xlink:href="#DejaVuSans-111"/>
     </g>
    </g>
   </g>
   <g id="matplotlib.axis_2">
    <g id="ytick_1">
     <g id="line2d_10">
      <defs>
       <path d="M 0 0 
L -3.5 0 
" id="mc7accf5e87" style="stroke:#000000;stroke-width:0.8;"/>
      </defs>
      <g>
       <use style="stroke:#000000;stroke-width:0.8;" x="73.82" xlink:href="#mc7accf5e87" y="580.479424"/>
      </g>
     </g>
     <g id="text_11">
      <!-- PATRI -->
      <defs>
       <path d="M 34.1875 63.1875 
L 20.796875 26.90625 
L 47.609375 26.90625 
z
M 28.609375 72.90625 
L 39.796875 72.90625 
L 67.578125 0 
L 57.328125 0 
L 50.6875 18.703125 
L 17.828125 18.703125 
L 11.1875 0 
L 0.78125 0 
z
" id="DejaVuSans-65"/>
       <path d="M -0.296875 72.90625 
L 61.375 72.90625 
L 61.375 64.59375 
L 35.5 64.59375 
L 35.5 0 
L 25.59375 0 
L 25.59375 64.59375 
L -0.296875 64.59375 
z
" id="DejaVuSans-84"/>
       <path d="M 44.390625 34.1875 
Q 47.5625 33.109375 50.5625 29.59375 
Q 53.5625 26.078125 56.59375 19.921875 
L 66.609375 0 
L 56 0 
L 46.6875 18.703125 
Q 43.0625 26.03125 39.671875 28.421875 
Q 36.28125 30.8125 30.421875 30.8125 
L 19.671875 30.8125 
L 19.671875 0 
L 9.8125 0 
L 9.8125 72.90625 
L 32.078125 72.90625 
Q 44.578125 72.90625 50.734375 67.671875 
Q 56.890625 62.453125 56.890625 51.90625 
Q 56.890625 45.015625 53.6875 40.46875 
Q 50.484375 35.9375 44.390625 34.1875 
z
M 19.671875 64.796875 
L 19.671875 38.921875 
L 32.078125 38.921875 
Q 39.203125 38.921875 42.84375 42.21875 
Q 46.484375 45.515625 46.484375 51.90625 
Q 46.484375 58.296875 42.84375 61.546875 
Q 39.203125 64.796875 32.078125 64.796875 
z
" id="DejaVuSans-82"/>
       <path d="M 9.8125 72.90625 
L 19.671875 72.90625 
L 19.671875 0 
L 9.8125 0 
z
" id="DejaVuSans-73"/>
      </defs>
      <g transform="translate(37.96375 584.278643)scale(0.1 -0.1)">
       <use xlink:href="#DejaVuSans-80"/>
       <use x="60.208984" xlink:href="#DejaVuSans-65"/>
       <use x="128.507812" xlink:href="#DejaVuSans-84"/>
       <use x="189.591797" xlink:href="#DejaVuSans-82"/>
       <use x="259.074219" xlink:href="#DejaVuSans-73"/>
      </g>
     </g>
    </g>
    <g id="ytick_2">
     <g id="line2d_11">
      <g>
       <use style="stroke:#000000;stroke-width:0.8;" x="73.82" xlink:href="#mc7accf5e87" y="564.059074"/>
      </g>
     </g>
     <g id="text_12">
      <!-- PSC -->
      <defs>
       <path d="M 53.515625 70.515625 
L 53.515625 60.890625 
Q 47.90625 63.578125 42.921875 64.890625 
Q 37.9375 66.21875 33.296875 66.21875 
Q 25.25 66.21875 20.875 63.09375 
Q 16.5 59.96875 16.5 54.203125 
Q 16.5 49.359375 19.40625 46.890625 
Q 22.3125 44.4375 30.421875 42.921875 
L 36.375 41.703125 
Q 47.40625 39.59375 52.65625 34.296875 
Q 57.90625 29 57.90625 20.125 
Q 57.90625 9.515625 50.796875 4.046875 
Q 43.703125 -1.421875 29.984375 -1.421875 
Q 24.8125 -1.421875 18.96875 -0.25 
Q 13.140625 0.921875 6.890625 3.21875 
L 6.890625 13.375 
Q 12.890625 10.015625 18.65625 8.296875 
Q 24.421875 6.59375 29.984375 6.59375 
Q 38.421875 6.59375 43.015625 9.90625 
Q 47.609375 13.234375 47.609375 19.390625 
Q 47.609375 24.75 44.3125 27.78125 
Q 41.015625 30.8125 33.5 32.328125 
L 27.484375 33.5 
Q 16.453125 35.6875 11.515625 40.375 
Q 6.59375 45.0625 6.59375 53.421875 
Q 6.59375 63.09375 13.40625 68.65625 
Q 20.21875 74.21875 32.171875 74.21875 
Q 37.3125 74.21875 42.625 73.28125 
Q 47.953125 72.359375 53.515625 70.515625 
z
" id="DejaVuSans-83"/>
       <path d="M 64.40625 67.28125 
L 64.40625 56.890625 
Q 59.421875 61.53125 53.78125 63.8125 
Q 48.140625 66.109375 41.796875 66.109375 
Q 29.296875 66.109375 22.65625 58.46875 
Q 16.015625 50.828125 16.015625 36.375 
Q 16.015625 21.96875 22.65625 14.328125 
Q 29.296875 6.6875 41.796875 6.6875 
Q 48.140625 6.6875 53.78125 8.984375 
Q 59.421875 11.28125 64.40625 15.921875 
L 64.40625 5.609375 
Q 59.234375 2.09375 53.4375 0.328125 
Q 47.65625 -1.421875 41.21875 -1.421875 
Q 24.65625 -1.421875 15.125 8.703125 
Q 5.609375 18.84375 5.609375 36.375 
Q 5.609375 53.953125 15.125 64.078125 
Q 24.65625 74.21875 41.21875 74.21875 
Q 47.75 74.21875 53.53125 72.484375 
Q 59.328125 70.75 64.40625 67.28125 
z
" id="DejaVuSans-67"/>
      </defs>
      <g transform="translate(47.459063 567.858293)scale(0.1 -0.1)">
       <use xlink:href="#DejaVuSans-80"/>
       <use x="60.302734" xlink:href="#DejaVuSans-83"/>
       <use x="123.779297" xlink:href="#DejaVuSans-67"/>
      </g>
     </g>
    </g>
    <g id="ytick_3">
     <g id="line2d_12">
      <g>
       <use style="stroke:#000000;stroke-width:0.8;" x="73.82" xlink:href="#mc7accf5e87" y="547.638724"/>
      </g>
     </g>
     <g id="text_13">
      <!-- PHS -->
      <defs>
       <path d="M 9.8125 72.90625 
L 19.671875 72.90625 
L 19.671875 43.015625 
L 55.515625 43.015625 
L 55.515625 72.90625 
L 65.375 72.90625 
L 65.375 0 
L 55.515625 0 
L 55.515625 34.71875 
L 19.671875 34.71875 
L 19.671875 0 
L 9.8125 0 
z
" id="DejaVuSans-72"/>
      </defs>
      <g transform="translate(46.921563 551.437943)scale(0.1 -0.1)">
       <use xlink:href="#DejaVuSans-80"/>
       <use x="60.302734" xlink:href="#DejaVuSans-72"/>
       <use x="135.498047" xlink:href="#DejaVuSans-83"/>
      </g>
     </g>
    </g>
    <g id="ytick_4">
     <g id="line2d_13">
      <g>
       <use style="stroke:#000000;stroke-width:0.8;" x="73.82" xlink:href="#mc7accf5e87" y="531.218374"/>
      </g>
     </g>
     <g id="text_14">
      <!-- AVANTE -->
      <defs>
       <path d="M 28.609375 0 
L 0.78125 72.90625 
L 11.078125 72.90625 
L 34.1875 11.53125 
L 57.328125 72.90625 
L 67.578125 72.90625 
L 39.796875 0 
z
" id="DejaVuSans-86"/>
       <path d="M 9.8125 72.90625 
L 23.09375 72.90625 
L 55.421875 11.921875 
L 55.421875 72.90625 
L 64.984375 72.90625 
L 64.984375 0 
L 51.703125 0 
L 19.390625 60.984375 
L 19.390625 0 
L 9.8125 0 
z
" id="DejaVuSans-78"/>
       <path d="M 9.8125 72.90625 
L 55.90625 72.90625 
L 55.90625 64.59375 
L 19.671875 64.59375 
L 19.671875 43.015625 
L 54.390625 43.015625 
L 54.390625 34.71875 
L 19.671875 34.71875 
L 19.671875 8.296875 
L 56.78125 8.296875 
L 56.78125 0 
L 9.8125 0 
z
" id="DejaVuSans-69"/>
      </defs>
      <g transform="translate(26.409063 535.017593)scale(0.1 -0.1)">
       <use xlink:href="#DejaVuSans-65"/>
       <use x="68.314453" xlink:href="#DejaVuSans-86"/>
       <use x="136.628906" xlink:href="#DejaVuSans-65"/>
       <use x="205.037109" xlink:href="#DejaVuSans-78"/>
       <use x="279.841797" xlink:href="#DejaVuSans-84"/>
       <use x="340.925781" xlink:href="#DejaVuSans-69"/>
      </g>
     </g>
    </g>
    <g id="ytick_5">
     <g id="line2d_14">
      <g>
       <use style="stroke:#000000;stroke-width:0.8;" x="73.82" xlink:href="#mc7accf5e87" y="514.798024"/>
      </g>
     </g>
     <g id="text_15">
      <!-- DC -->
      <defs>
       <path d="M 19.671875 64.796875 
L 19.671875 8.109375 
L 31.59375 8.109375 
Q 46.6875 8.109375 53.6875 14.9375 
Q 60.6875 21.78125 60.6875 36.53125 
Q 60.6875 51.171875 53.6875 57.984375 
Q 46.6875 64.796875 31.59375 64.796875 
z
M 9.8125 72.90625 
L 30.078125 72.90625 
Q 51.265625 72.90625 61.171875 64.09375 
Q 71.09375 55.28125 71.09375 36.53125 
Q 71.09375 17.671875 61.125 8.828125 
Q 51.171875 0 30.078125 0 
L 9.8125 0 
z
" id="DejaVuSans-68"/>
      </defs>
      <g transform="translate(52.137188 518.597243)scale(0.1 -0.1)">
       <use xlink:href="#DejaVuSans-68"/>
       <use x="77.001953" xlink:href="#DejaVuSans-67"/>
      </g>
     </g>
    </g>
    <g id="ytick_6">
     <g id="line2d_15">
      <g>
       <use style="stroke:#000000;stroke-width:0.8;" x="73.82" xlink:href="#mc7accf5e87" y="498.377674"/>
      </g>
     </g>
     <g id="text_16">
      <!-- DEM -->
      <defs>
       <path d="M 9.8125 72.90625 
L 24.515625 72.90625 
L 43.109375 23.296875 
L 61.8125 72.90625 
L 76.515625 72.90625 
L 76.515625 0 
L 66.890625 0 
L 66.890625 64.015625 
L 48.09375 14.015625 
L 38.1875 14.015625 
L 19.390625 64.015625 
L 19.390625 0 
L 9.8125 0 
z
" id="DejaVuSans-77"/>
      </defs>
      <g transform="translate(44.173125 502.176893)scale(0.1 -0.1)">
       <use xlink:href="#DejaVuSans-68"/>
       <use x="77.001953" xlink:href="#DejaVuSans-69"/>
       <use x="140.185547" xlink:href="#DejaVuSans-77"/>
      </g>
     </g>
    </g>
    <g id="ytick_7">
     <g id="line2d_16">
      <g>
       <use style="stroke:#000000;stroke-width:0.8;" x="73.82" xlink:href="#mc7accf5e87" y="481.957324"/>
      </g>
     </g>
     <g id="text_17">
      <!-- PMN -->
      <g transform="translate(44.680938 485.756543)scale(0.1 -0.1)">
       <use xlink:href="#DejaVuSans-80"/>
       <use x="60.302734" xlink:href="#DejaVuSans-77"/>
       <use x="146.582031" xlink:href="#DejaVuSans-78"/>
      </g>
     </g>
    </g>
    <g id="ytick_8">
     <g id="line2d_17">
      <g>
       <use style="stroke:#000000;stroke-width:0.8;" x="73.82" xlink:href="#mc7accf5e87" y="465.536974"/>
      </g>
     </g>
     <g id="text_18">
      <!-- PRB -->
      <defs>
       <path d="M 19.671875 34.8125 
L 19.671875 8.109375 
L 35.5 8.109375 
Q 43.453125 8.109375 47.28125 11.40625 
Q 51.125 14.703125 51.125 21.484375 
Q 51.125 28.328125 47.28125 31.5625 
Q 43.453125 34.8125 35.5 34.8125 
z
M 19.671875 64.796875 
L 19.671875 42.828125 
L 34.28125 42.828125 
Q 41.5 42.828125 45.03125 45.53125 
Q 48.578125 48.25 48.578125 53.8125 
Q 48.578125 59.328125 45.03125 62.0625 
Q 41.5 64.796875 34.28125 64.796875 
z
M 9.8125 72.90625 
L 35.015625 72.90625 
Q 46.296875 72.90625 52.390625 68.21875 
Q 58.5 63.53125 58.5 54.890625 
Q 58.5 48.1875 55.375 44.234375 
Q 52.25 40.28125 46.1875 39.3125 
Q 53.46875 37.75 57.5 32.78125 
Q 61.53125 27.828125 61.53125 20.40625 
Q 61.53125 10.640625 54.890625 5.3125 
Q 48.25 0 35.984375 0 
L 9.8125 0 
z
" id="DejaVuSans-66"/>
      </defs>
      <g transform="translate(46.980938 469.336193)scale(0.1 -0.1)">
       <use xlink:href="#DejaVuSans-80"/>
       <use x="60.302734" xlink:href="#DejaVuSans-82"/>
       <use x="129.785156" xlink:href="#DejaVuSans-66"/>
      </g>
     </g>
    </g>
    <g id="ytick_9">
     <g id="line2d_18">
      <g>
       <use style="stroke:#000000;stroke-width:0.8;" x="73.82" xlink:href="#mc7accf5e87" y="449.116624"/>
      </g>
     </g>
     <g id="text_19">
      <!-- PROS -->
      <defs>
       <path d="M 39.40625 66.21875 
Q 28.65625 66.21875 22.328125 58.203125 
Q 16.015625 50.203125 16.015625 36.375 
Q 16.015625 22.609375 22.328125 14.59375 
Q 28.65625 6.59375 39.40625 6.59375 
Q 50.140625 6.59375 56.421875 14.59375 
Q 62.703125 22.609375 62.703125 36.375 
Q 62.703125 50.203125 56.421875 58.203125 
Q 50.140625 66.21875 39.40625 66.21875 
z
M 39.40625 74.21875 
Q 54.734375 74.21875 63.90625 63.9375 
Q 73.09375 53.65625 73.09375 36.375 
Q 73.09375 19.140625 63.90625 8.859375 
Q 54.734375 -1.421875 39.40625 -1.421875 
Q 24.03125 -1.421875 14.8125 8.828125 
Q 5.609375 19.09375 5.609375 36.375 
Q 5.609375 53.65625 14.8125 63.9375 
Q 24.03125 74.21875 39.40625 74.21875 
z
" id="DejaVuSans-79"/>
      </defs>
      <g transform="translate(39.621563 452.915843)scale(0.1 -0.1)">
       <use xlink:href="#DejaVuSans-80"/>
       <use x="60.302734" xlink:href="#DejaVuSans-82"/>
       <use x="129.785156" xlink:href="#DejaVuSans-79"/>
       <use x="208.496094" xlink:href="#DejaVuSans-83"/>
      </g>
     </g>
    </g>
    <g id="ytick_10">
     <g id="line2d_19">
      <g>
       <use style="stroke:#000000;stroke-width:0.8;" x="73.82" xlink:href="#mc7accf5e87" y="432.696275"/>
      </g>
     </g>
     <g id="text_20">
      <!-- PV -->
      <g transform="translate(53.949688 436.495493)scale(0.1 -0.1)">
       <use xlink:href="#DejaVuSans-80"/>
       <use x="60.302734" xlink:href="#DejaVuSans-86"/>
      </g>
     </g>
    </g>
    <g id="ytick_11">
     <g id="line2d_20">
      <g>
       <use style="stroke:#000000;stroke-width:0.8;" x="73.82" xlink:href="#mc7accf5e87" y="416.275925"/>
      </g>
     </g>
     <g id="text_21">
      <!-- PDT -->
      <g transform="translate(46.9825 420.075143)scale(0.1 -0.1)">
       <use xlink:href="#DejaVuSans-80"/>
       <use x="60.302734" xlink:href="#DejaVuSans-68"/>
       <use x="137.304688" xlink:href="#DejaVuSans-84"/>
      </g>
     </g>
    </g>
    <g id="ytick_12">
     <g id="line2d_21">
      <g>
       <use style="stroke:#000000;stroke-width:0.8;" x="73.82" xlink:href="#mc7accf5e87" y="399.855575"/>
      </g>
     </g>
     <g id="text_22">
      <!-- MDB -->
      <g transform="translate(43.630938 403.654793)scale(0.1 -0.1)">
       <use xlink:href="#DejaVuSans-77"/>
       <use x="86.279297" xlink:href="#DejaVuSans-68"/>
       <use x="163.28125" xlink:href="#DejaVuSans-66"/>
      </g>
     </g>
    </g>
    <g id="ytick_13">
     <g id="line2d_22">
      <g>
       <use style="stroke:#000000;stroke-width:0.8;" x="73.82" xlink:href="#mc7accf5e87" y="383.435225"/>
      </g>
     </g>
     <g id="text_23">
      <!-- PSB -->
      <g transform="translate(47.580938 387.234443)scale(0.1 -0.1)">
       <use xlink:href="#DejaVuSans-80"/>
       <use x="60.302734" xlink:href="#DejaVuSans-83"/>
       <use x="123.779297" xlink:href="#DejaVuSans-66"/>
      </g>
     </g>
    </g>
    <g id="ytick_14">
     <g id="line2d_23">
      <g>
       <use style="stroke:#000000;stroke-width:0.8;" x="73.82" xlink:href="#mc7accf5e87" y="367.014875"/>
      </g>
     </g>
     <g id="text_24">
      <!-- PTC -->
      <g transform="translate(47.7075 370.814094)scale(0.1 -0.1)">
       <use xlink:href="#DejaVuSans-80"/>
       <use x="60.302734" xlink:href="#DejaVuSans-84"/>
       <use x="121.308594" xlink:href="#DejaVuSans-67"/>
      </g>
     </g>
    </g>
    <g id="ytick_15">
     <g id="line2d_24">
      <g>
       <use style="stroke:#000000;stroke-width:0.8;" x="73.82" xlink:href="#mc7accf5e87" y="350.594525"/>
      </g>
     </g>
     <g id="text_25">
      <!-- NOVO -->
      <g transform="translate(36.7575 354.393744)scale(0.1 -0.1)">
       <use xlink:href="#DejaVuSans-78"/>
       <use x="74.804688" xlink:href="#DejaVuSans-79"/>
       <use x="153.5" xlink:href="#DejaVuSans-86"/>
       <use x="221.892578" xlink:href="#DejaVuSans-79"/>
      </g>
     </g>
    </g>
    <g id="ytick_16">
     <g id="line2d_25">
      <g>
       <use style="stroke:#000000;stroke-width:0.8;" x="73.82" xlink:href="#mc7accf5e87" y="334.174175"/>
      </g>
     </g>
     <g id="text_26">
      <!-- SD -->
      <g transform="translate(52.771563 337.973394)scale(0.1 -0.1)">
       <use xlink:href="#DejaVuSans-83"/>
       <use x="63.476562" xlink:href="#DejaVuSans-68"/>
      </g>
     </g>
    </g>
    <g id="ytick_17">
     <g id="line2d_26">
      <g>
       <use style="stroke:#000000;stroke-width:0.8;" x="73.82" xlink:href="#mc7accf5e87" y="317.753825"/>
      </g>
     </g>
     <g id="text_27">
      <!-- PTB -->
      <g transform="translate(47.821563 321.553044)scale(0.1 -0.1)">
       <use xlink:href="#DejaVuSans-80"/>
       <use x="60.302734" xlink:href="#DejaVuSans-84"/>
       <use x="121.386719" xlink:href="#DejaVuSans-66"/>
      </g>
     </g>
    </g>
    <g id="ytick_18">
     <g id="line2d_27">
      <g>
       <use style="stroke:#000000;stroke-width:0.8;" x="73.82" xlink:href="#mc7accf5e87" y="301.333475"/>
      </g>
     </g>
     <g id="text_28">
      <!-- PSL -->
      <defs>
       <path d="M 9.8125 72.90625 
L 19.671875 72.90625 
L 19.671875 8.296875 
L 55.171875 8.296875 
L 55.171875 0 
L 9.8125 0 
z
" id="DejaVuSans-76"/>
      </defs>
      <g transform="translate(48.87 305.132694)scale(0.1 -0.1)">
       <use xlink:href="#DejaVuSans-80"/>
       <use x="60.302734" xlink:href="#DejaVuSans-83"/>
       <use x="123.779297" xlink:href="#DejaVuSans-76"/>
      </g>
     </g>
    </g>
    <g id="ytick_19">
     <g id="line2d_28">
      <g>
       <use style="stroke:#000000;stroke-width:0.8;" x="73.82" xlink:href="#mc7accf5e87" y="284.913125"/>
      </g>
     </g>
     <g id="text_29">
      <!-- PODE -->
      <g transform="translate(38.899688 288.712344)scale(0.1 -0.1)">
       <use xlink:href="#DejaVuSans-80"/>
       <use x="60.302734" xlink:href="#DejaVuSans-79"/>
       <use x="139.013672" xlink:href="#DejaVuSans-68"/>
       <use x="216.015625" xlink:href="#DejaVuSans-69"/>
      </g>
     </g>
    </g>
    <g id="ytick_20">
     <g id="line2d_29">
      <g>
       <use style="stroke:#000000;stroke-width:0.8;" x="73.82" xlink:href="#mc7accf5e87" y="268.492775"/>
      </g>
     </g>
     <g id="text_30">
      <!-- PRP -->
      <g transform="translate(47.812188 272.291994)scale(0.1 -0.1)">
       <use xlink:href="#DejaVuSans-80"/>
       <use x="60.302734" xlink:href="#DejaVuSans-82"/>
       <use x="129.785156" xlink:href="#DejaVuSans-80"/>
      </g>
     </g>
    </g>
    <g id="ytick_21">
     <g id="line2d_30">
      <g>
       <use style="stroke:#000000;stroke-width:0.8;" x="73.82" xlink:href="#mc7accf5e87" y="252.072425"/>
      </g>
     </g>
     <g id="text_31">
      <!-- PP -->
      <g transform="translate(54.760625 255.871644)scale(0.1 -0.1)">
       <use xlink:href="#DejaVuSans-80"/>
       <use x="60.302734" xlink:href="#DejaVuSans-80"/>
      </g>
     </g>
    </g>
    <g id="ytick_22">
     <g id="line2d_31">
      <g>
       <use style="stroke:#000000;stroke-width:0.8;" x="73.82" xlink:href="#mc7accf5e87" y="235.652075"/>
      </g>
     </g>
     <g id="text_32">
      <!-- PR -->
      <g transform="translate(53.841875 239.451294)scale(0.1 -0.1)">
       <use xlink:href="#DejaVuSans-80"/>
       <use x="60.302734" xlink:href="#DejaVuSans-82"/>
      </g>
     </g>
    </g>
    <g id="ytick_23">
     <g id="line2d_32">
      <g>
       <use style="stroke:#000000;stroke-width:0.8;" x="73.82" xlink:href="#mc7accf5e87" y="219.231725"/>
      </g>
     </g>
     <g id="text_33">
      <!-- PSD -->
      <g transform="translate(46.741875 223.030944)scale(0.1 -0.1)">
       <use xlink:href="#DejaVuSans-80"/>
       <use x="60.302734" xlink:href="#DejaVuSans-83"/>
       <use x="123.779297" xlink:href="#DejaVuSans-68"/>
      </g>
     </g>
    </g>
    <g id="ytick_24">
     <g id="line2d_33">
      <g>
       <use style="stroke:#000000;stroke-width:0.8;" x="73.82" xlink:href="#mc7accf5e87" y="202.811376"/>
      </g>
     </g>
     <g id="text_34">
      <!-- PRTB -->
      <g transform="translate(40.884063 206.610594)scale(0.1 -0.1)">
       <use xlink:href="#DejaVuSans-80"/>
       <use x="60.302734" xlink:href="#DejaVuSans-82"/>
       <use x="129.675781" xlink:href="#DejaVuSans-84"/>
       <use x="190.759766" xlink:href="#DejaVuSans-66"/>
      </g>
     </g>
    </g>
    <g id="ytick_25">
     <g id="line2d_34">
      <g>
       <use style="stroke:#000000;stroke-width:0.8;" x="73.82" xlink:href="#mc7accf5e87" y="186.391026"/>
      </g>
     </g>
     <g id="text_35">
      <!-- PPS -->
      <g transform="translate(48.412188 190.190244)scale(0.1 -0.1)">
       <use xlink:href="#DejaVuSans-80"/>
       <use x="60.302734" xlink:href="#DejaVuSans-80"/>
       <use x="120.605469" xlink:href="#DejaVuSans-83"/>
      </g>
     </g>
    </g>
    <g id="ytick_26">
     <g id="line2d_35">
      <g>
       <use style="stroke:#000000;stroke-width:0.8;" x="73.82" xlink:href="#mc7accf5e87" y="169.970676"/>
      </g>
     </g>
     <g id="text_36">
      <!-- REDE -->
      <g transform="translate(39.534063 173.769894)scale(0.1 -0.1)">
       <use xlink:href="#DejaVuSans-82"/>
       <use x="69.482422" xlink:href="#DejaVuSans-69"/>
       <use x="132.666016" xlink:href="#DejaVuSans-68"/>
       <use x="209.667969" xlink:href="#DejaVuSans-69"/>
      </g>
     </g>
    </g>
    <g id="ytick_27">
     <g id="line2d_36">
      <g>
       <use style="stroke:#000000;stroke-width:0.8;" x="73.82" xlink:href="#mc7accf5e87" y="153.550326"/>
      </g>
     </g>
     <g id="text_37">
      <!-- PSDB -->
      <g transform="translate(39.880938 157.349545)scale(0.1 -0.1)">
       <use xlink:href="#DejaVuSans-80"/>
       <use x="60.302734" xlink:href="#DejaVuSans-83"/>
       <use x="123.779297" xlink:href="#DejaVuSans-68"/>
       <use x="200.78125" xlink:href="#DejaVuSans-66"/>
      </g>
     </g>
    </g>
    <g id="ytick_28">
     <g id="line2d_37">
      <g>
       <use style="stroke:#000000;stroke-width:0.8;" x="73.82" xlink:href="#mc7accf5e87" y="137.129976"/>
      </g>
     </g>
     <g id="text_38">
      <!-- PT -->
      <g transform="translate(54.6825 140.929195)scale(0.1 -0.1)">
       <use xlink:href="#DejaVuSans-80"/>
       <use x="60.302734" xlink:href="#DejaVuSans-84"/>
      </g>
     </g>
    </g>
    <g id="ytick_29">
     <g id="line2d_38">
      <g>
       <use style="stroke:#000000;stroke-width:0.8;" x="73.82" xlink:href="#mc7accf5e87" y="120.709626"/>
      </g>
     </g>
     <g id="text_39">
      <!-- PC DO B -->
      <defs>
       <path id="DejaVuSans-32"/>
      </defs>
      <g transform="translate(25.018438 124.508845)scale(0.1 -0.1)">
       <use xlink:href="#DejaVuSans-80"/>
       <use x="60.302734" xlink:href="#DejaVuSans-67"/>
       <use x="130.126953" xlink:href="#DejaVuSans-32"/>
       <use x="161.914062" xlink:href="#DejaVuSans-68"/>
       <use x="238.916016" xlink:href="#DejaVuSans-79"/>
       <use x="317.626953" xlink:href="#DejaVuSans-32"/>
       <use x="349.414062" xlink:href="#DejaVuSans-66"/>
      </g>
     </g>
    </g>
    <g id="ytick_30">
     <g id="line2d_39">
      <g>
       <use style="stroke:#000000;stroke-width:0.8;" x="73.82" xlink:href="#mc7accf5e87" y="104.289276"/>
      </g>
     </g>
     <g id="text_40">
      <!-- PPL -->
      <g transform="translate(49.18875 108.088495)scale(0.1 -0.1)">
       <use xlink:href="#DejaVuSans-80"/>
       <use x="60.302734" xlink:href="#DejaVuSans-80"/>
       <use x="120.605469" xlink:href="#DejaVuSans-76"/>
      </g>
     </g>
    </g>
    <g id="ytick_31">
     <g id="line2d_40">
      <g>
       <use style="stroke:#000000;stroke-width:0.8;" x="73.82" xlink:href="#mc7accf5e87" y="87.868926"/>
      </g>
     </g>
     <g id="text_41">
      <!-- PMB -->
      <g transform="translate(45.30125 91.668145)scale(0.1 -0.1)">
       <use xlink:href="#DejaVuSans-80"/>
       <use x="60.302734" xlink:href="#DejaVuSans-77"/>
       <use x="146.582031" xlink:href="#DejaVuSans-66"/>
      </g>
     </g>
    </g>
    <g id="ytick_32">
     <g id="line2d_41">
      <g>
       <use style="stroke:#000000;stroke-width:0.8;" x="73.82" xlink:href="#mc7accf5e87" y="71.448576"/>
      </g>
     </g>
     <g id="text_42">
      <!-- PSOL -->
      <g transform="translate(40.998125 75.247795)scale(0.1 -0.1)">
       <use xlink:href="#DejaVuSans-80"/>
       <use x="60.302734" xlink:href="#DejaVuSans-83"/>
       <use x="123.779297" xlink:href="#DejaVuSans-79"/>
       <use x="202.490234" xlink:href="#DejaVuSans-76"/>
      </g>
     </g>
    </g>
    <g id="text_43">
     <!-- Partidos -->
     <defs>
      <path d="M 34.28125 27.484375 
Q 23.390625 27.484375 19.1875 25 
Q 14.984375 22.515625 14.984375 16.5 
Q 14.984375 11.71875 18.140625 8.90625 
Q 21.296875 6.109375 26.703125 6.109375 
Q 34.1875 6.109375 38.703125 11.40625 
Q 43.21875 16.703125 43.21875 25.484375 
L 43.21875 27.484375 
z
M 52.203125 31.203125 
L 52.203125 0 
L 43.21875 0 
L 43.21875 8.296875 
Q 40.140625 3.328125 35.546875 0.953125 
Q 30.953125 -1.421875 24.3125 -1.421875 
Q 15.921875 -1.421875 10.953125 3.296875 
Q 6 8.015625 6 15.921875 
Q 6 25.140625 12.171875 29.828125 
Q 18.359375 34.515625 30.609375 34.515625 
L 43.21875 34.515625 
L 43.21875 35.40625 
Q 43.21875 41.609375 39.140625 45 
Q 35.0625 48.390625 27.6875 48.390625 
Q 23 48.390625 18.546875 47.265625 
Q 14.109375 46.140625 10.015625 43.890625 
L 10.015625 52.203125 
Q 14.9375 54.109375 19.578125 55.046875 
Q 24.21875 56 28.609375 56 
Q 40.484375 56 46.34375 49.84375 
Q 52.203125 43.703125 52.203125 31.203125 
z
" id="DejaVuSans-97"/>
      <path d="M 18.3125 70.21875 
L 18.3125 54.6875 
L 36.8125 54.6875 
L 36.8125 47.703125 
L 18.3125 47.703125 
L 18.3125 18.015625 
Q 18.3125 11.328125 20.140625 9.421875 
Q 21.96875 7.515625 27.59375 7.515625 
L 36.8125 7.515625 
L 36.8125 0 
L 27.59375 0 
Q 17.1875 0 13.234375 3.875 
Q 9.28125 7.765625 9.28125 18.015625 
L 9.28125 47.703125 
L 2.6875 47.703125 
L 2.6875 54.6875 
L 9.28125 54.6875 
L 9.28125 70.21875 
z
" id="DejaVuSans-116"/>
      <path d="M 9.421875 54.6875 
L 18.40625 54.6875 
L 18.40625 0 
L 9.421875 0 
z
M 9.421875 75.984375 
L 18.40625 75.984375 
L 18.40625 64.59375 
L 9.421875 64.59375 
z
" id="DejaVuSans-105"/>
      <path d="M 45.40625 46.390625 
L 45.40625 75.984375 
L 54.390625 75.984375 
L 54.390625 0 
L 45.40625 0 
L 45.40625 8.203125 
Q 42.578125 3.328125 38.25 0.953125 
Q 33.9375 -1.421875 27.875 -1.421875 
Q 17.96875 -1.421875 11.734375 6.484375 
Q 5.515625 14.40625 5.515625 27.296875 
Q 5.515625 40.1875 11.734375 48.09375 
Q 17.96875 56 27.875 56 
Q 33.9375 56 38.25 53.625 
Q 42.578125 51.265625 45.40625 46.390625 
z
M 14.796875 27.296875 
Q 14.796875 17.390625 18.875 11.75 
Q 22.953125 6.109375 30.078125 6.109375 
Q 37.203125 6.109375 41.296875 11.75 
Q 45.40625 17.390625 45.40625 27.296875 
Q 45.40625 37.203125 41.296875 42.84375 
Q 37.203125 48.484375 30.078125 48.484375 
Q 22.953125 48.484375 18.875 42.84375 
Q 14.796875 37.203125 14.796875 27.296875 
z
" id="DejaVuSans-100"/>
      <path d="M 44.28125 53.078125 
L 44.28125 44.578125 
Q 40.484375 46.53125 36.375 47.5 
Q 32.28125 48.484375 27.875 48.484375 
Q 21.1875 48.484375 17.84375 46.4375 
Q 14.5 44.390625 14.5 40.28125 
Q 14.5 37.15625 16.890625 35.375 
Q 19.28125 33.59375 26.515625 31.984375 
L 29.59375 31.296875 
Q 39.15625 29.25 43.1875 25.515625 
Q 47.21875 21.78125 47.21875 15.09375 
Q 47.21875 7.46875 41.1875 3.015625 
Q 35.15625 -1.421875 24.609375 -1.421875 
Q 20.21875 -1.421875 15.453125 -0.5625 
Q 10.6875 0.296875 5.421875 2 
L 5.421875 11.28125 
Q 10.40625 8.6875 15.234375 7.390625 
Q 20.0625 6.109375 24.8125 6.109375 
Q 31.15625 6.109375 34.5625 8.28125 
Q 37.984375 10.453125 37.984375 14.40625 
Q 37.984375 18.0625 35.515625 20.015625 
Q 33.0625 21.96875 24.703125 23.78125 
L 21.578125 24.515625 
Q 13.234375 26.265625 9.515625 29.90625 
Q 5.8125 33.546875 5.8125 39.890625 
Q 5.8125 47.609375 11.28125 51.796875 
Q 16.75 56 26.8125 56 
Q 31.78125 56 36.171875 55.265625 
Q 40.578125 54.546875 44.28125 53.078125 
z
" id="DejaVuSans-115"/>
     </defs>
     <g transform="translate(18.93875 346.28275)rotate(-90)scale(0.1 -0.1)">
      <use xlink:href="#DejaVuSans-80"/>
      <use x="60.240234" xlink:href="#DejaVuSans-97"/>
      <use x="121.519531" xlink:href="#DejaVuSans-114"/>
      <use x="162.632812" xlink:href="#DejaVuSans-116"/>
      <use x="201.841797" xlink:href="#DejaVuSans-105"/>
      <use x="229.625" xlink:href="#DejaVuSans-100"/>
      <use x="293.101562" xlink:href="#DejaVuSans-111"/>
      <use x="354.283203" xlink:href="#DejaVuSans-115"/>
     </g>
    </g>
   </g>
   <g id="line2d_42">
    <path clip-path="url(#pa6043ab6d9)" d="M 268.317201 606.04 
L 268.317201 45.888 
" style="fill:none;stroke:#000000;stroke-dasharray:14.8,6.4;stroke-dashoffset:0;stroke-width:4;"/>
   </g>
   <g id="line2d_43">
    <path clip-path="url(#pa6043ab6d9)" d="M 147.678502 606.04 
L 147.678502 45.888 
" style="fill:none;stroke:#008000;stroke-linecap:square;stroke-width:2;"/>
   </g>
   <g id="text_44">
    <!-- Proporção de Mulheres -->
    <defs>
     <path d="M 56.203125 29.59375 
L 56.203125 25.203125 
L 14.890625 25.203125 
Q 15.484375 15.921875 20.484375 11.0625 
Q 25.484375 6.203125 34.421875 6.203125 
Q 39.59375 6.203125 44.453125 7.46875 
Q 49.3125 8.734375 54.109375 11.28125 
L 54.109375 2.78125 
Q 49.265625 0.734375 44.1875 -0.34375 
Q 39.109375 -1.421875 33.890625 -1.421875 
Q 20.796875 -1.421875 13.15625 6.1875 
Q 5.515625 13.8125 5.515625 26.8125 
Q 5.515625 40.234375 12.765625 48.109375 
Q 20.015625 56 32.328125 56 
Q 43.359375 56 49.78125 48.890625 
Q 56.203125 41.796875 56.203125 29.59375 
z
M 47.21875 32.234375 
Q 47.125 39.59375 43.09375 43.984375 
Q 39.0625 48.390625 32.421875 48.390625 
Q 24.90625 48.390625 20.390625 44.140625 
Q 15.875 39.890625 15.1875 32.171875 
z
" id="DejaVuSans-101"/>
     <path d="M 8.5 21.578125 
L 8.5 54.6875 
L 17.484375 54.6875 
L 17.484375 21.921875 
Q 17.484375 14.15625 20.5 10.265625 
Q 23.53125 6.390625 29.59375 6.390625 
Q 36.859375 6.390625 41.078125 11.03125 
Q 45.3125 15.671875 45.3125 23.6875 
L 45.3125 54.6875 
L 54.296875 54.6875 
L 54.296875 0 
L 45.3125 0 
L 45.3125 8.40625 
Q 42.046875 3.421875 37.71875 1 
Q 33.40625 -1.421875 27.6875 -1.421875 
Q 18.265625 -1.421875 13.375 4.4375 
Q 8.5 10.296875 8.5 21.578125 
z
M 31.109375 56 
z
" id="DejaVuSans-117"/>
     <path d="M 9.421875 75.984375 
L 18.40625 75.984375 
L 18.40625 0 
L 9.421875 0 
z
" id="DejaVuSans-108"/>
     <path d="M 54.890625 33.015625 
L 54.890625 0 
L 45.90625 0 
L 45.90625 32.71875 
Q 45.90625 40.484375 42.875 44.328125 
Q 39.84375 48.1875 33.796875 48.1875 
Q 26.515625 48.1875 22.3125 43.546875 
Q 18.109375 38.921875 18.109375 30.90625 
L 18.109375 0 
L 9.078125 0 
L 9.078125 75.984375 
L 18.109375 75.984375 
L 18.109375 46.1875 
Q 21.34375 51.125 25.703125 53.5625 
Q 30.078125 56 35.796875 56 
Q 45.21875 56 50.046875 50.171875 
Q 54.890625 44.34375 54.890625 33.015625 
z
" id="DejaVuSans-104"/>
    </defs>
    <g transform="translate(157.196875 22.371281)scale(0.15 -0.15)">
     <use xlink:href="#DejaVuSans-80"/>
     <use x="60.287109" xlink:href="#DejaVuSans-114"/>
     <use x="101.369141" xlink:href="#DejaVuSans-111"/>
     <use x="162.550781" xlink:href="#DejaVuSans-112"/>
     <use x="226.027344" xlink:href="#DejaVuSans-111"/>
     <use x="287.208984" xlink:href="#DejaVuSans-114"/>
     <use x="328.291016" xlink:href="#DejaVuSans-231"/>
     <use x="383.271484" xlink:href="#DejaVuSans-227"/>
     <use x="444.550781" xlink:href="#DejaVuSans-111"/>
     <use x="505.732422" xlink:href="#DejaVuSans-32"/>
     <use x="537.519531" xlink:href="#DejaVuSans-100"/>
     <use x="600.996094" xlink:href="#DejaVuSans-101"/>
     <use x="662.519531" xlink:href="#DejaVuSans-32"/>
     <use x="694.306641" xlink:href="#DejaVuSans-77"/>
     <use x="780.585938" xlink:href="#DejaVuSans-117"/>
     <use x="843.964844" xlink:href="#DejaVuSans-108"/>
     <use x="871.748047" xlink:href="#DejaVuSans-104"/>
     <use x="935.126953" xlink:href="#DejaVuSans-101"/>
     <use x="996.650391" xlink:href="#DejaVuSans-114"/>
     <use x="1037.732422" xlink:href="#DejaVuSans-101"/>
     <use x="1099.255859" xlink:href="#DejaVuSans-115"/>
    </g>
    <!-- Eleitas em 2018 por Partido Político -->
    <defs>
     <path d="M 52 44.1875 
Q 55.375 50.25 60.0625 53.125 
Q 64.75 56 71.09375 56 
Q 79.640625 56 84.28125 50.015625 
Q 88.921875 44.046875 88.921875 33.015625 
L 88.921875 0 
L 79.890625 0 
L 79.890625 32.71875 
Q 79.890625 40.578125 77.09375 44.375 
Q 74.3125 48.1875 68.609375 48.1875 
Q 61.625 48.1875 57.5625 43.546875 
Q 53.515625 38.921875 53.515625 30.90625 
L 53.515625 0 
L 44.484375 0 
L 44.484375 32.71875 
Q 44.484375 40.625 41.703125 44.40625 
Q 38.921875 48.1875 33.109375 48.1875 
Q 26.21875 48.1875 22.15625 43.53125 
Q 18.109375 38.875 18.109375 30.90625 
L 18.109375 0 
L 9.078125 0 
L 9.078125 54.6875 
L 18.109375 54.6875 
L 18.109375 46.1875 
Q 21.1875 51.21875 25.484375 53.609375 
Q 29.78125 56 35.6875 56 
Q 41.65625 56 45.828125 52.96875 
Q 50 49.953125 52 44.1875 
z
" id="DejaVuSans-109"/>
     <path d="M 20.703125 79.984375 
L 30.421875 79.984375 
L 14.5 61.625 
L 7.03125 61.625 
z
M 9.421875 54.6875 
L 18.40625 54.6875 
L 18.40625 0 
L 9.421875 0 
z
M 13.921875 56 
z
" id="DejaVuSans-237"/>
     <path d="M 48.78125 52.59375 
L 48.78125 44.1875 
Q 44.96875 46.296875 41.140625 47.34375 
Q 37.3125 48.390625 33.40625 48.390625 
Q 24.65625 48.390625 19.8125 42.84375 
Q 14.984375 37.3125 14.984375 27.296875 
Q 14.984375 17.28125 19.8125 11.734375 
Q 24.65625 6.203125 33.40625 6.203125 
Q 37.3125 6.203125 41.140625 7.25 
Q 44.96875 8.296875 48.78125 10.40625 
L 48.78125 2.09375 
Q 45.015625 0.34375 40.984375 -0.53125 
Q 36.96875 -1.421875 32.421875 -1.421875 
Q 20.0625 -1.421875 12.78125 6.34375 
Q 5.515625 14.109375 5.515625 27.296875 
Q 5.515625 40.671875 12.859375 48.328125 
Q 20.21875 56 33.015625 56 
Q 37.15625 56 41.109375 55.140625 
Q 45.0625 54.296875 48.78125 52.59375 
z
" id="DejaVuSans-99"/>
    </defs>
    <g transform="translate(109.643359 39.888)scale(0.15 -0.15)">
     <use xlink:href="#DejaVuSans-69"/>
     <use x="63.183594" xlink:href="#DejaVuSans-108"/>
     <use x="90.966797" xlink:href="#DejaVuSans-101"/>
     <use x="152.490234" xlink:href="#DejaVuSans-105"/>
     <use x="180.273438" xlink:href="#DejaVuSans-116"/>
     <use x="219.482422" xlink:href="#DejaVuSans-97"/>
     <use x="280.761719" xlink:href="#DejaVuSans-115"/>
     <use x="332.861328" xlink:href="#DejaVuSans-32"/>
     <use x="364.648438" xlink:href="#DejaVuSans-101"/>
     <use x="426.171875" xlink:href="#DejaVuSans-109"/>
     <use x="523.583984" xlink:href="#DejaVuSans-32"/>
     <use x="555.371094" xlink:href="#DejaVuSans-50"/>
     <use x="618.994141" xlink:href="#DejaVuSans-48"/>
     <use x="682.617188" xlink:href="#DejaVuSans-49"/>
     <use x="746.240234" xlink:href="#DejaVuSans-56"/>
     <use x="809.863281" xlink:href="#DejaVuSans-32"/>
     <use x="841.650391" xlink:href="#DejaVuSans-112"/>
     <use x="905.126953" xlink:href="#DejaVuSans-111"/>
     <use x="966.308594" xlink:href="#DejaVuSans-114"/>
     <use x="1007.421875" xlink:href="#DejaVuSans-32"/>
     <use x="1039.208984" xlink:href="#DejaVuSans-80"/>
     <use x="1099.449219" xlink:href="#DejaVuSans-97"/>
     <use x="1160.728516" xlink:href="#DejaVuSans-114"/>
     <use x="1201.841797" xlink:href="#DejaVuSans-116"/>
     <use x="1241.050781" xlink:href="#DejaVuSans-105"/>
     <use x="1268.833984" xlink:href="#DejaVuSans-100"/>
     <use x="1332.310547" xlink:href="#DejaVuSans-111"/>
     <use x="1393.492188" xlink:href="#DejaVuSans-32"/>
     <use x="1425.279297" xlink:href="#DejaVuSans-80"/>
     <use x="1485.535156" xlink:href="#DejaVuSans-111"/>
     <use x="1546.716797" xlink:href="#DejaVuSans-108"/>
     <use x="1574.5" xlink:href="#DejaVuSans-237"/>
     <use x="1602.283203" xlink:href="#DejaVuSans-116"/>
     <use x="1641.492188" xlink:href="#DejaVuSans-105"/>
     <use x="1669.275391" xlink:href="#DejaVuSans-99"/>
     <use x="1724.255859" xlink:href="#DejaVuSans-111"/>
    </g>
   </g>
   <g id="legend_1">
    <g id="patch_3">
     <path d="M 275.056562 353.539938 
L 406.28 353.539938 
Q 408.28 353.539938 408.28 351.539938 
L 408.28 300.388062 
Q 408.28 298.388062 406.28 298.388062 
L 275.056562 298.388062 
Q 273.056562 298.388062 273.056562 300.388062 
L 273.056562 351.539938 
Q 273.056562 353.539938 275.056562 353.539938 
z
" style="fill:#ffffff;opacity:0.8;stroke:#cccccc;stroke-linejoin:miter;"/>
    </g>
    <g id="line2d_44">
     <path d="M 277.056562 313.12525 
L 297.056562 313.12525 
" style="fill:none;stroke:#000000;stroke-dasharray:14.8,6.4;stroke-dashoffset:0;stroke-width:4;"/>
    </g>
    <g id="line2d_45"/>
    <g id="text_45">
     <!-- Equidade de -->
     <defs>
      <path d="M 14.796875 27.296875 
Q 14.796875 17.390625 18.875 11.75 
Q 22.953125 6.109375 30.078125 6.109375 
Q 37.203125 6.109375 41.296875 11.75 
Q 45.40625 17.390625 45.40625 27.296875 
Q 45.40625 37.203125 41.296875 42.84375 
Q 37.203125 48.484375 30.078125 48.484375 
Q 22.953125 48.484375 18.875 42.84375 
Q 14.796875 37.203125 14.796875 27.296875 
z
M 45.40625 8.203125 
Q 42.578125 3.328125 38.25 0.953125 
Q 33.9375 -1.421875 27.875 -1.421875 
Q 17.96875 -1.421875 11.734375 6.484375 
Q 5.515625 14.40625 5.515625 27.296875 
Q 5.515625 40.1875 11.734375 48.09375 
Q 17.96875 56 27.875 56 
Q 33.9375 56 38.25 53.625 
Q 42.578125 51.265625 45.40625 46.390625 
L 45.40625 54.6875 
L 54.390625 54.6875 
L 54.390625 -20.796875 
L 45.40625 -20.796875 
z
" id="DejaVuSans-113"/>
     </defs>
     <g transform="translate(305.056562 309.9865)scale(0.1 -0.1)">
      <use xlink:href="#DejaVuSans-69"/>
      <use x="63.183594" xlink:href="#DejaVuSans-113"/>
      <use x="126.660156" xlink:href="#DejaVuSans-117"/>
      <use x="190.039062" xlink:href="#DejaVuSans-105"/>
      <use x="217.822266" xlink:href="#DejaVuSans-100"/>
      <use x="281.298828" xlink:href="#DejaVuSans-97"/>
      <use x="342.578125" xlink:href="#DejaVuSans-100"/>
      <use x="406.054688" xlink:href="#DejaVuSans-101"/>
      <use x="467.578125" xlink:href="#DejaVuSans-32"/>
      <use x="499.365234" xlink:href="#DejaVuSans-100"/>
      <use x="562.841797" xlink:href="#DejaVuSans-101"/>
     </g>
     <!-- mulheres e homens -->
     <defs>
      <path d="M 54.890625 33.015625 
L 54.890625 0 
L 45.90625 0 
L 45.90625 32.71875 
Q 45.90625 40.484375 42.875 44.328125 
Q 39.84375 48.1875 33.796875 48.1875 
Q 26.515625 48.1875 22.3125 43.546875 
Q 18.109375 38.921875 18.109375 30.90625 
L 18.109375 0 
L 9.078125 0 
L 9.078125 54.6875 
L 18.109375 54.6875 
L 18.109375 46.1875 
Q 21.34375 51.125 25.703125 53.5625 
Q 30.078125 56 35.796875 56 
Q 45.21875 56 50.046875 50.171875 
Q 54.890625 44.34375 54.890625 33.015625 
z
" id="DejaVuSans-110"/>
     </defs>
     <g transform="translate(305.056562 321.184312)scale(0.1 -0.1)">
      <use xlink:href="#DejaVuSans-109"/>
      <use x="97.412109" xlink:href="#DejaVuSans-117"/>
      <use x="160.791016" xlink:href="#DejaVuSans-108"/>
      <use x="188.574219" xlink:href="#DejaVuSans-104"/>
      <use x="251.953125" xlink:href="#DejaVuSans-101"/>
      <use x="313.476562" xlink:href="#DejaVuSans-114"/>
      <use x="354.558594" xlink:href="#DejaVuSans-101"/>
      <use x="416.082031" xlink:href="#DejaVuSans-115"/>
      <use x="468.181641" xlink:href="#DejaVuSans-32"/>
      <use x="499.96875" xlink:href="#DejaVuSans-101"/>
      <use x="561.492188" xlink:href="#DejaVuSans-32"/>
      <use x="593.279297" xlink:href="#DejaVuSans-104"/>
      <use x="656.658203" xlink:href="#DejaVuSans-111"/>
      <use x="717.839844" xlink:href="#DejaVuSans-109"/>
      <use x="815.251953" xlink:href="#DejaVuSans-101"/>
      <use x="876.775391" xlink:href="#DejaVuSans-110"/>
      <use x="940.154297" xlink:href="#DejaVuSans-115"/>
     </g>
    </g>
    <g id="line2d_46">
     <path d="M 277.056562 339.201188 
L 297.056562 339.201188 
" style="fill:none;stroke:#008000;stroke-linecap:square;stroke-width:2;"/>
    </g>
    <g id="line2d_47"/>
    <g id="text_46">
     <!-- Proporção Média -->
     <defs>
      <path d="M 56.203125 29.59375 
L 56.203125 25.203125 
L 14.890625 25.203125 
Q 15.484375 15.921875 20.484375 11.0625 
Q 25.484375 6.203125 34.421875 6.203125 
Q 39.59375 6.203125 44.453125 7.46875 
Q 49.3125 8.734375 54.109375 11.28125 
L 54.109375 2.78125 
Q 49.265625 0.734375 44.1875 -0.34375 
Q 39.109375 -1.421875 33.890625 -1.421875 
Q 20.796875 -1.421875 13.15625 6.1875 
Q 5.515625 13.8125 5.515625 26.8125 
Q 5.515625 40.234375 12.765625 48.109375 
Q 20.015625 56 32.328125 56 
Q 43.359375 56 49.78125 48.890625 
Q 56.203125 41.796875 56.203125 29.59375 
z
M 47.21875 32.234375 
Q 47.125 39.59375 43.09375 43.984375 
Q 39.0625 48.390625 32.421875 48.390625 
Q 24.90625 48.390625 20.390625 44.140625 
Q 15.875 39.890625 15.1875 32.171875 
z
M 38.578125 79.984375 
L 48.296875 79.984375 
L 32.375 61.625 
L 24.90625 61.625 
z
" id="DejaVuSans-233"/>
     </defs>
     <g transform="translate(305.056562 336.262437)scale(0.1 -0.1)">
      <use xlink:href="#DejaVuSans-80"/>
      <use x="60.287109" xlink:href="#DejaVuSans-114"/>
      <use x="101.369141" xlink:href="#DejaVuSans-111"/>
      <use x="162.550781" xlink:href="#DejaVuSans-112"/>
      <use x="226.027344" xlink:href="#DejaVuSans-111"/>
      <use x="287.208984" xlink:href="#DejaVuSans-114"/>
      <use x="328.291016" xlink:href="#DejaVuSans-231"/>
      <use x="383.271484" xlink:href="#DejaVuSans-227"/>
      <use x="444.550781" xlink:href="#DejaVuSans-111"/>
      <use x="505.732422" xlink:href="#DejaVuSans-32"/>
      <use x="537.519531" xlink:href="#DejaVuSans-77"/>
      <use x="623.798828" xlink:href="#DejaVuSans-233"/>
      <use x="685.322266" xlink:href="#DejaVuSans-100"/>
      <use x="748.798828" xlink:href="#DejaVuSans-105"/>
      <use x="776.582031" xlink:href="#DejaVuSans-97"/>
     </g>
     <!-- de Mulheres -->
     <g transform="translate(305.056562 347.46025)scale(0.1 -0.1)">
      <use xlink:href="#DejaVuSans-100"/>
      <use x="63.476562" xlink:href="#DejaVuSans-101"/>
      <use x="125" xlink:href="#DejaVuSans-32"/>
      <use x="156.787109" xlink:href="#DejaVuSans-77"/>
      <use x="243.066406" xlink:href="#DejaVuSans-117"/>
      <use x="306.445312" xlink:href="#DejaVuSans-108"/>
      <use x="334.228516" xlink:href="#DejaVuSans-104"/>
      <use x="397.607422" xlink:href="#DejaVuSans-101"/>
      <use x="459.130859" xlink:href="#DejaVuSans-114"/>
      <use x="500.212891" xlink:href="#DejaVuSans-101"/>
      <use x="561.736328" xlink:href="#DejaVuSans-115"/>
     </g>
    </g>
   </g>
  </g>
 </g>
 <defs>
  <clipPath id="pa6043ab6d9">
   <rect height="560.152" width="339.46" x="73.82" y="45.888"/>
  </clipPath>
 </defs>
</svg>
