<?xml version="1.0" encoding="utf-8" standalone="no"?>
<!DOCTYPE svg PUBLIC "-//W3C//DTD SVG 1.1//EN"
  "http://www.w3.org/Graphics/SVG/1.1/DTD/svg11.dtd">
<!-- Created with matplotlib (https://matplotlib.org/) -->
<svg height="648pt" version="1.1" viewBox="0 0 504 648" width="504pt" xmlns="http://www.w3.org/2000/svg" xmlns:xlink="http://www.w3.org/1999/xlink">
 <defs>
  <style type="text/css">
*{stroke-linecap:butt;stroke-linejoin:round;}
  </style>
 </defs>
 <g id="figure_1">
  <g id="patch_1">
   <path d="M 0 648 
L 504 648 
L 504 0 
L 0 0 
z
" style="fill:#ffffff;"/>
  </g>
  <g id="axes_1">
   <g id="patch_2">
    <path d="M 73.82 606.04 
L 455.315625 606.04 
L 455.315625 29.4 
L 73.82 29.4 
z
" style="fill:#ffffff;"/>
   </g>
   <g id="patch_3">
    <path clip-path="url(#p85575ecc79)" d="M 247.767465 579.829091 
L 247.555331 579.829091 
L 247.555331 574.487712 
L 247.767465 574.487712 
z
" style="fill:#ff0000;opacity:0.8;"/>
   </g>
   <g id="patch_4">
    <path clip-path="url(#p85575ecc79)" d="M 247.767465 564.568008 
L 246.806176 564.568008 
L 246.806176 559.22663 
L 247.767465 559.22663 
z
" style="fill:#ff0000;opacity:0.8;"/>
   </g>
   <g id="patch_5">
    <path clip-path="url(#p85575ecc79)" d="M 247.767465 549.306926 
L 246.627169 549.306926 
L 246.627169 543.965547 
L 247.767465 543.965547 
z
" style="fill:#ff0000;opacity:0.8;"/>
   </g>
   <g id="patch_6">
    <path clip-path="url(#p85575ecc79)" d="M 247.767465 534.045844 
L 246.473417 534.045844 
L 246.473417 528.704465 
L 247.767465 528.704465 
z
" style="fill:#ff0000;opacity:0.8;"/>
   </g>
   <g id="patch_7">
    <path clip-path="url(#p85575ecc79)" d="M 247.767465 518.784761 
L 247.191524 518.784761 
L 247.191524 513.443382 
L 247.767465 513.443382 
z
" style="fill:#ff0000;opacity:0.8;"/>
   </g>
   <g id="patch_8">
    <path clip-path="url(#p85575ecc79)" d="M 247.767465 503.523679 
L 245.23671 503.523679 
L 245.23671 498.1823 
L 247.767465 498.1823 
z
" style="fill:#ff0000;opacity:0.8;"/>
   </g>
   <g id="patch_9">
    <path clip-path="url(#p85575ecc79)" d="M 247.767465 488.262596 
L 244.356085 488.262596 
L 244.356085 482.921217 
L 247.767465 482.921217 
z
" style="fill:#ff0000;opacity:0.8;"/>
   </g>
   <g id="patch_10">
    <path clip-path="url(#p85575ecc79)" d="M 247.767465 473.001514 
L 243.186079 473.001514 
L 243.186079 467.660135 
L 247.767465 467.660135 
z
" style="fill:#ff0000;opacity:0.8;"/>
   </g>
   <g id="patch_11">
    <path clip-path="url(#p85575ecc79)" d="M 247.767465 457.740431 
L 242.105799 457.740431 
L 242.105799 452.399053 
L 247.767465 452.399053 
z
" style="fill:#ff0000;opacity:0.8;"/>
   </g>
   <g id="patch_12">
    <path clip-path="url(#p85575ecc79)" d="M 247.767465 442.479349 
L 239.055552 442.479349 
L 239.055552 437.13797 
L 247.767465 437.13797 
z
" style="fill:#ff0000;opacity:0.8;"/>
   </g>
   <g id="patch_13">
    <path clip-path="url(#p85575ecc79)" d="M 247.767465 427.218267 
L 237.981511 427.218267 
L 237.981511 421.876888 
L 247.767465 421.876888 
z
" style="fill:#ff0000;opacity:0.8;"/>
   </g>
   <g id="patch_14">
    <path clip-path="url(#p85575ecc79)" d="M 247.767465 411.957184 
L 237.429041 411.957184 
L 237.429041 406.615805 
L 247.767465 406.615805 
z
" style="fill:#ff0000;opacity:0.8;"/>
   </g>
   <g id="patch_15">
    <path clip-path="url(#p85575ecc79)" d="M 247.767465 396.696102 
L 235.706119 396.696102 
L 235.706119 391.354723 
L 247.767465 391.354723 
z
" style="fill:#ff0000;opacity:0.8;"/>
   </g>
   <g id="patch_16">
    <path clip-path="url(#p85575ecc79)" d="M 247.767465 381.435019 
L 235.56128 381.435019 
L 235.56128 376.09364 
L 247.767465 376.09364 
z
" style="fill:#ff0000;opacity:0.8;"/>
   </g>
   <g id="patch_17">
    <path clip-path="url(#p85575ecc79)" d="M 247.767465 366.173937 
L 235.155729 366.173937 
L 235.155729 360.832558 
L 247.767465 360.832558 
z
" style="fill:#ff0000;opacity:0.8;"/>
   </g>
   <g id="patch_18">
    <path clip-path="url(#p85575ecc79)" d="M 247.767465 350.912854 
L 233.681634 350.912854 
L 233.681634 345.571475 
L 247.767465 345.571475 
z
" style="fill:#ff0000;opacity:0.8;"/>
   </g>
   <g id="patch_19">
    <path clip-path="url(#p85575ecc79)" d="M 247.767465 335.651772 
L 233.994636 335.651772 
L 233.994636 330.310393 
L 247.767465 330.310393 
z
" style="fill:#ff0000;opacity:0.8;"/>
   </g>
   <g id="patch_20">
    <path clip-path="url(#p85575ecc79)" d="M 247.767465 320.390689 
L 233.246967 320.390689 
L 233.246967 315.049311 
L 247.767465 315.049311 
z
" style="fill:#ff0000;opacity:0.8;"/>
   </g>
   <g id="patch_21">
    <path clip-path="url(#p85575ecc79)" d="M 247.767465 305.129607 
L 233.207154 305.129607 
L 233.207154 299.788228 
L 247.767465 299.788228 
z
" style="fill:#ff0000;opacity:0.8;"/>
   </g>
   <g id="patch_22">
    <path clip-path="url(#p85575ecc79)" d="M 247.767465 289.868525 
L 231.484826 289.868525 
L 231.484826 284.527146 
L 247.767465 284.527146 
z
" style="fill:#ff0000;opacity:0.8;"/>
   </g>
   <g id="patch_23">
    <path clip-path="url(#p85575ecc79)" d="M 247.767465 274.607442 
L 228.13881 274.607442 
L 228.13881 269.266063 
L 247.767465 269.266063 
z
" style="fill:#ff0000;opacity:0.8;"/>
   </g>
   <g id="patch_24">
    <path clip-path="url(#p85575ecc79)" d="M 247.767465 259.34636 
L 224.97908 259.34636 
L 224.97908 254.004981 
L 247.767465 254.004981 
z
" style="fill:#ff0000;opacity:0.8;"/>
   </g>
   <g id="patch_25">
    <path clip-path="url(#p85575ecc79)" d="M 247.767465 244.085277 
L 221.978153 244.085277 
L 221.978153 238.743898 
L 247.767465 238.743898 
z
" style="fill:#ff0000;opacity:0.8;"/>
   </g>
   <g id="patch_26">
    <path clip-path="url(#p85575ecc79)" d="M 247.767465 228.824195 
L 218.14607 228.824195 
L 218.14607 223.482816 
L 247.767465 223.482816 
z
" style="fill:#ff0000;opacity:0.8;"/>
   </g>
   <g id="patch_27">
    <path clip-path="url(#p85575ecc79)" d="M 247.767465 213.563112 
L 220.772642 213.563112 
L 220.772642 208.221733 
L 247.767465 208.221733 
z
" style="fill:#ff0000;opacity:0.8;"/>
   </g>
   <g id="patch_28">
    <path clip-path="url(#p85575ecc79)" d="M 247.767465 198.30203 
L 218.493982 198.30203 
L 218.493982 192.960651 
L 247.767465 192.960651 
z
" style="fill:#ff0000;opacity:0.8;"/>
   </g>
   <g id="patch_29">
    <path clip-path="url(#p85575ecc79)" d="M 247.767465 183.040947 
L 208.194331 183.040947 
L 208.194331 177.699569 
L 247.767465 177.699569 
z
" style="fill:#ff0000;opacity:0.8;"/>
   </g>
   <g id="patch_30">
    <path clip-path="url(#p85575ecc79)" d="M 247.767465 167.779865 
L 196.210975 167.779865 
L 196.210975 162.438486 
L 247.767465 162.438486 
z
" style="fill:#ff0000;opacity:0.8;"/>
   </g>
   <g id="patch_31">
    <path clip-path="url(#p85575ecc79)" d="M 247.767465 152.518783 
L 178.375508 152.518783 
L 178.375508 147.177404 
L 247.767465 147.177404 
z
" style="fill:#ff0000;opacity:0.8;"/>
   </g>
   <g id="patch_32">
    <path clip-path="url(#p85575ecc79)" d="M 247.767465 137.2577 
L 169.680827 137.2577 
L 169.680827 131.916321 
L 247.767465 131.916321 
z
" style="fill:#ff0000;opacity:0.8;"/>
   </g>
   <g id="patch_33">
    <path clip-path="url(#p85575ecc79)" d="M 247.767465 121.996618 
L 166.498071 121.996618 
L 166.498071 116.655239 
L 247.767465 116.655239 
z
" style="fill:#ff0000;opacity:0.8;"/>
   </g>
   <g id="patch_34">
    <path clip-path="url(#p85575ecc79)" d="M 247.767465 106.735535 
L 154.373293 106.735535 
L 154.373293 101.394156 
L 247.767465 101.394156 
z
" style="fill:#ff0000;opacity:0.8;"/>
   </g>
   <g id="patch_35">
    <path clip-path="url(#p85575ecc79)" d="M 247.767465 91.474453 
L 153.073005 91.474453 
L 153.073005 86.133074 
L 247.767465 86.133074 
z
" style="fill:#ff0000;opacity:0.8;"/>
   </g>
   <g id="patch_36">
    <path clip-path="url(#p85575ecc79)" d="M 247.767465 76.21337 
L 144.379067 76.21337 
L 144.379067 70.871992 
L 247.767465 70.871992 
z
" style="fill:#ff0000;opacity:0.8;"/>
   </g>
   <g id="patch_37">
    <path clip-path="url(#p85575ecc79)" d="M 247.767465 60.952288 
L 91.16071 60.952288 
L 91.16071 55.610909 
L 247.767465 55.610909 
z
" style="fill:#ff0000;opacity:0.8;"/>
   </g>
   <g id="patch_38">
    <path clip-path="url(#p85575ecc79)" d="M 247.767465 579.829091 
L 248.094134 579.829091 
L 248.094134 574.487712 
L 247.767465 574.487712 
z
" style="fill:#0000ff;opacity:0.8;"/>
   </g>
   <g id="patch_39">
    <path clip-path="url(#p85575ecc79)" d="M 247.767465 564.568008 
L 248.929747 564.568008 
L 248.929747 559.22663 
L 247.767465 559.22663 
z
" style="fill:#0000ff;opacity:0.8;"/>
   </g>
   <g id="patch_40">
    <path clip-path="url(#p85575ecc79)" d="M 247.767465 549.306926 
L 249.116627 549.306926 
L 249.116627 543.965547 
L 247.767465 543.965547 
z
" style="fill:#0000ff;opacity:0.8;"/>
   </g>
   <g id="patch_41">
    <path clip-path="url(#p85575ecc79)" d="M 247.767465 534.045844 
L 249.909753 534.045844 
L 249.909753 528.704465 
L 247.767465 528.704465 
z
" style="fill:#0000ff;opacity:0.8;"/>
   </g>
   <g id="patch_42">
    <path clip-path="url(#p85575ecc79)" d="M 247.767465 518.784761 
L 251.011425 518.784761 
L 251.011425 513.443382 
L 247.767465 513.443382 
z
" style="fill:#0000ff;opacity:0.8;"/>
   </g>
   <g id="patch_43">
    <path clip-path="url(#p85575ecc79)" d="M 247.767465 503.523679 
L 251.056437 503.523679 
L 251.056437 498.1823 
L 247.767465 498.1823 
z
" style="fill:#0000ff;opacity:0.8;"/>
   </g>
   <g id="patch_44">
    <path clip-path="url(#p85575ecc79)" d="M 247.767465 488.262596 
L 250.540065 488.262596 
L 250.540065 482.921217 
L 247.767465 482.921217 
z
" style="fill:#0000ff;opacity:0.8;"/>
   </g>
   <g id="patch_45">
    <path clip-path="url(#p85575ecc79)" d="M 247.767465 473.001514 
L 254.736401 473.001514 
L 254.736401 467.660135 
L 247.767465 467.660135 
z
" style="fill:#0000ff;opacity:0.8;"/>
   </g>
   <g id="patch_46">
    <path clip-path="url(#p85575ecc79)" d="M 247.767465 457.740431 
L 256.098933 457.740431 
L 256.098933 452.399053 
L 247.767465 452.399053 
z
" style="fill:#0000ff;opacity:0.8;"/>
   </g>
   <g id="patch_47">
    <path clip-path="url(#p85575ecc79)" d="M 247.767465 442.479349 
L 259.098671 442.479349 
L 259.098671 437.13797 
L 247.767465 437.13797 
z
" style="fill:#0000ff;opacity:0.8;"/>
   </g>
   <g id="patch_48">
    <path clip-path="url(#p85575ecc79)" d="M 247.767465 427.218267 
L 259.700164 427.218267 
L 259.700164 421.876888 
L 247.767465 421.876888 
z
" style="fill:#0000ff;opacity:0.8;"/>
   </g>
   <g id="patch_49">
    <path clip-path="url(#p85575ecc79)" d="M 247.767465 411.957184 
L 261.570451 411.957184 
L 261.570451 406.615805 
L 247.767465 406.615805 
z
" style="fill:#0000ff;opacity:0.8;"/>
   </g>
   <g id="patch_50">
    <path clip-path="url(#p85575ecc79)" d="M 247.767465 396.696102 
L 262.732287 396.696102 
L 262.732287 391.354723 
L 247.767465 391.354723 
z
" style="fill:#0000ff;opacity:0.8;"/>
   </g>
   <g id="patch_51">
    <path clip-path="url(#p85575ecc79)" d="M 247.767465 381.435019 
L 262.644046 381.435019 
L 262.644046 376.09364 
L 247.767465 376.09364 
z
" style="fill:#0000ff;opacity:0.8;"/>
   </g>
   <g id="patch_52">
    <path clip-path="url(#p85575ecc79)" d="M 247.767465 366.173937 
L 263.92725 366.173937 
L 263.92725 360.832558 
L 247.767465 360.832558 
z
" style="fill:#0000ff;opacity:0.8;"/>
   </g>
   <g id="patch_53">
    <path clip-path="url(#p85575ecc79)" d="M 247.767465 350.912854 
L 264.350776 350.912854 
L 264.350776 345.571475 
L 247.767465 345.571475 
z
" style="fill:#0000ff;opacity:0.8;"/>
   </g>
   <g id="patch_54">
    <path clip-path="url(#p85575ecc79)" d="M 247.767465 335.651772 
L 265.120134 335.651772 
L 265.120134 330.310393 
L 247.767465 330.310393 
z
" style="fill:#0000ff;opacity:0.8;"/>
   </g>
   <g id="patch_55">
    <path clip-path="url(#p85575ecc79)" d="M 247.767465 320.390689 
L 265.260517 320.390689 
L 265.260517 315.049311 
L 247.767465 315.049311 
z
" style="fill:#0000ff;opacity:0.8;"/>
   </g>
   <g id="patch_56">
    <path clip-path="url(#p85575ecc79)" d="M 247.767465 305.129607 
L 268.062679 305.129607 
L 268.062679 299.788228 
L 247.767465 299.788228 
z
" style="fill:#0000ff;opacity:0.8;"/>
   </g>
   <g id="patch_57">
    <path clip-path="url(#p85575ecc79)" d="M 247.767465 289.868525 
L 267.739724 289.868525 
L 267.739724 284.527146 
L 247.767465 284.527146 
z
" style="fill:#0000ff;opacity:0.8;"/>
   </g>
   <g id="patch_58">
    <path clip-path="url(#p85575ecc79)" d="M 247.767465 274.607442 
L 275.339121 274.607442 
L 275.339121 269.266063 
L 247.767465 269.266063 
z
" style="fill:#0000ff;opacity:0.8;"/>
   </g>
   <g id="patch_59">
    <path clip-path="url(#p85575ecc79)" d="M 247.767465 259.34636 
L 279.468162 259.34636 
L 279.468162 254.004981 
L 247.767465 254.004981 
z
" style="fill:#0000ff;opacity:0.8;"/>
   </g>
   <g id="patch_60">
    <path clip-path="url(#p85575ecc79)" d="M 247.767465 244.085277 
L 279.445285 244.085277 
L 279.445285 238.743898 
L 247.767465 238.743898 
z
" style="fill:#0000ff;opacity:0.8;"/>
   </g>
   <g id="patch_61">
    <path clip-path="url(#p85575ecc79)" d="M 247.767465 228.824195 
L 275.788049 228.824195 
L 275.788049 223.482816 
L 247.767465 223.482816 
z
" style="fill:#0000ff;opacity:0.8;"/>
   </g>
   <g id="patch_62">
    <path clip-path="url(#p85575ecc79)" d="M 247.767465 213.563112 
L 281.925086 213.563112 
L 281.925086 208.221733 
L 247.767465 208.221733 
z
" style="fill:#0000ff;opacity:0.8;"/>
   </g>
   <g id="patch_63">
    <path clip-path="url(#p85575ecc79)" d="M 247.767465 198.30203 
L 288.129567 198.30203 
L 288.129567 192.960651 
L 247.767465 192.960651 
z
" style="fill:#0000ff;opacity:0.8;"/>
   </g>
   <g id="patch_64">
    <path clip-path="url(#p85575ecc79)" d="M 247.767465 183.040947 
L 299.636066 183.040947 
L 299.636066 177.699569 
L 247.767465 177.699569 
z
" style="fill:#0000ff;opacity:0.8;"/>
   </g>
   <g id="patch_65">
    <path clip-path="url(#p85575ecc79)" d="M 247.767465 167.779865 
L 311.601595 167.779865 
L 311.601595 162.438486 
L 247.767465 162.438486 
z
" style="fill:#0000ff;opacity:0.8;"/>
   </g>
   <g id="patch_66">
    <path clip-path="url(#p85575ecc79)" d="M 247.767465 152.518783 
L 336.582628 152.518783 
L 336.582628 147.177404 
L 247.767465 147.177404 
z
" style="fill:#0000ff;opacity:0.8;"/>
   </g>
   <g id="patch_67">
    <path clip-path="url(#p85575ecc79)" d="M 247.767465 137.2577 
L 342.60112 137.2577 
L 342.60112 131.916321 
L 247.767465 131.916321 
z
" style="fill:#0000ff;opacity:0.8;"/>
   </g>
   <g id="patch_68">
    <path clip-path="url(#p85575ecc79)" d="M 247.767465 121.996618 
L 348.616195 121.996618 
L 348.616195 116.655239 
L 247.767465 116.655239 
z
" style="fill:#0000ff;opacity:0.8;"/>
   </g>
   <g id="patch_69">
    <path clip-path="url(#p85575ecc79)" d="M 247.767465 106.735535 
L 363.472275 106.735535 
L 363.472275 101.394156 
L 247.767465 101.394156 
z
" style="fill:#0000ff;opacity:0.8;"/>
   </g>
   <g id="patch_70">
    <path clip-path="url(#p85575ecc79)" d="M 247.767465 91.474453 
L 364.605738 91.474453 
L 364.605738 86.133074 
L 247.767465 86.133074 
z
" style="fill:#0000ff;opacity:0.8;"/>
   </g>
   <g id="patch_71">
    <path clip-path="url(#p85575ecc79)" d="M 247.767465 76.21337 
L 375.394724 76.21337 
L 375.394724 70.871992 
L 247.767465 70.871992 
z
" style="fill:#0000ff;opacity:0.8;"/>
   </g>
   <g id="patch_72">
    <path clip-path="url(#p85575ecc79)" d="M 247.767465 60.952288 
L 437.974915 60.952288 
L 437.974915 55.610909 
L 247.767465 55.610909 
z
" style="fill:#0000ff;opacity:0.8;"/>
   </g>
   <g id="matplotlib.axis_1">
    <g id="xtick_1">
     <g id="line2d_1">
      <defs>
       <path d="M 0 0 
L 0 3.5 
" id="ma6bba1776d" style="stroke:#000000;stroke-width:0.8;"/>
      </defs>
      <g>
       <use style="stroke:#000000;stroke-width:0.8;" x="99.214086" xlink:href="#ma6bba1776d" y="606.04"/>
      </g>
     </g>
     <g id="text_1">
      <!-- 1000000 -->
      <defs>
       <path d="M 12.40625 8.296875 
L 28.515625 8.296875 
L 28.515625 63.921875 
L 10.984375 60.40625 
L 10.984375 69.390625 
L 28.421875 72.90625 
L 38.28125 72.90625 
L 38.28125 8.296875 
L 54.390625 8.296875 
L 54.390625 0 
L 12.40625 0 
z
" id="DejaVuSans-49"/>
       <path d="M 31.78125 66.40625 
Q 24.171875 66.40625 20.328125 58.90625 
Q 16.5 51.421875 16.5 36.375 
Q 16.5 21.390625 20.328125 13.890625 
Q 24.171875 6.390625 31.78125 6.390625 
Q 39.453125 6.390625 43.28125 13.890625 
Q 47.125 21.390625 47.125 36.375 
Q 47.125 51.421875 43.28125 58.90625 
Q 39.453125 66.40625 31.78125 66.40625 
z
M 31.78125 74.21875 
Q 44.046875 74.21875 50.515625 64.515625 
Q 56.984375 54.828125 56.984375 36.375 
Q 56.984375 17.96875 50.515625 8.265625 
Q 44.046875 -1.421875 31.78125 -1.421875 
Q 19.53125 -1.421875 13.0625 8.265625 
Q 6.59375 17.96875 6.59375 36.375 
Q 6.59375 54.828125 13.0625 64.515625 
Q 19.53125 74.21875 31.78125 74.21875 
z
" id="DejaVuSans-48"/>
      </defs>
      <g transform="translate(76.945336 620.638438)scale(0.1 -0.1)">
       <use xlink:href="#DejaVuSans-49"/>
       <use x="63.623047" xlink:href="#DejaVuSans-48"/>
       <use x="127.246094" xlink:href="#DejaVuSans-48"/>
       <use x="190.869141" xlink:href="#DejaVuSans-48"/>
       <use x="254.492188" xlink:href="#DejaVuSans-48"/>
       <use x="318.115234" xlink:href="#DejaVuSans-48"/>
       <use x="381.738281" xlink:href="#DejaVuSans-48"/>
      </g>
     </g>
    </g>
    <g id="xtick_2">
     <g id="line2d_2">
      <g>
       <use style="stroke:#000000;stroke-width:0.8;" x="173.490776" xlink:href="#ma6bba1776d" y="606.04"/>
      </g>
     </g>
     <g id="text_2">
      <!-- 500000 -->
      <defs>
       <path d="M 10.796875 72.90625 
L 49.515625 72.90625 
L 49.515625 64.59375 
L 19.828125 64.59375 
L 19.828125 46.734375 
Q 21.96875 47.46875 24.109375 47.828125 
Q 26.265625 48.1875 28.421875 48.1875 
Q 40.625 48.1875 47.75 41.5 
Q 54.890625 34.8125 54.890625 23.390625 
Q 54.890625 11.625 47.5625 5.09375 
Q 40.234375 -1.421875 26.90625 -1.421875 
Q 22.3125 -1.421875 17.546875 -0.640625 
Q 12.796875 0.140625 7.71875 1.703125 
L 7.71875 11.625 
Q 12.109375 9.234375 16.796875 8.0625 
Q 21.484375 6.890625 26.703125 6.890625 
Q 35.15625 6.890625 40.078125 11.328125 
Q 45.015625 15.765625 45.015625 23.390625 
Q 45.015625 31 40.078125 35.4375 
Q 35.15625 39.890625 26.703125 39.890625 
Q 22.75 39.890625 18.8125 39.015625 
Q 14.890625 38.140625 10.796875 36.28125 
z
" id="DejaVuSans-53"/>
      </defs>
      <g transform="translate(154.403276 620.638438)scale(0.1 -0.1)">
       <use xlink:href="#DejaVuSans-53"/>
       <use x="63.623047" xlink:href="#DejaVuSans-48"/>
       <use x="127.246094" xlink:href="#DejaVuSans-48"/>
       <use x="190.869141" xlink:href="#DejaVuSans-48"/>
       <use x="254.492188" xlink:href="#DejaVuSans-48"/>
       <use x="318.115234" xlink:href="#DejaVuSans-48"/>
      </g>
     </g>
    </g>
    <g id="xtick_3">
     <g id="line2d_3">
      <g>
       <use style="stroke:#000000;stroke-width:0.8;" x="247.767465" xlink:href="#ma6bba1776d" y="606.04"/>
      </g>
     </g>
     <g id="text_3">
      <!-- 0 -->
      <g transform="translate(244.586215 620.638438)scale(0.1 -0.1)">
       <use xlink:href="#DejaVuSans-48"/>
      </g>
     </g>
    </g>
    <g id="xtick_4">
     <g id="line2d_4">
      <g>
       <use style="stroke:#000000;stroke-width:0.8;" x="322.044155" xlink:href="#ma6bba1776d" y="606.04"/>
      </g>
     </g>
     <g id="text_4">
      <!-- 500000 -->
      <g transform="translate(302.956655 620.638438)scale(0.1 -0.1)">
       <use xlink:href="#DejaVuSans-53"/>
       <use x="63.623047" xlink:href="#DejaVuSans-48"/>
       <use x="127.246094" xlink:href="#DejaVuSans-48"/>
       <use x="190.869141" xlink:href="#DejaVuSans-48"/>
       <use x="254.492188" xlink:href="#DejaVuSans-48"/>
       <use x="318.115234" xlink:href="#DejaVuSans-48"/>
      </g>
     </g>
    </g>
    <g id="xtick_5">
     <g id="line2d_5">
      <g>
       <use style="stroke:#000000;stroke-width:0.8;" x="396.320844" xlink:href="#ma6bba1776d" y="606.04"/>
      </g>
     </g>
     <g id="text_5">
      <!-- 1000000 -->
      <g transform="translate(374.052094 620.638438)scale(0.1 -0.1)">
       <use xlink:href="#DejaVuSans-49"/>
       <use x="63.623047" xlink:href="#DejaVuSans-48"/>
       <use x="127.246094" xlink:href="#DejaVuSans-48"/>
       <use x="190.869141" xlink:href="#DejaVuSans-48"/>
       <use x="254.492188" xlink:href="#DejaVuSans-48"/>
       <use x="318.115234" xlink:href="#DejaVuSans-48"/>
       <use x="381.738281" xlink:href="#DejaVuSans-48"/>
      </g>
     </g>
    </g>
    <g id="text_6">
     <!-- Número de Filiados -->
     <defs>
      <path d="M 9.8125 72.90625 
L 23.09375 72.90625 
L 55.421875 11.921875 
L 55.421875 72.90625 
L 64.984375 72.90625 
L 64.984375 0 
L 51.703125 0 
L 19.390625 60.984375 
L 19.390625 0 
L 9.8125 0 
z
" id="DejaVuSans-78"/>
      <path d="M 8.5 21.578125 
L 8.5 54.6875 
L 17.484375 54.6875 
L 17.484375 21.921875 
Q 17.484375 14.15625 20.5 10.265625 
Q 23.53125 6.390625 29.59375 6.390625 
Q 36.859375 6.390625 41.078125 11.03125 
Q 45.3125 15.671875 45.3125 23.6875 
L 45.3125 54.6875 
L 54.296875 54.6875 
L 54.296875 0 
L 45.3125 0 
L 45.3125 8.40625 
Q 42.046875 3.421875 37.71875 1 
Q 33.40625 -1.421875 27.6875 -1.421875 
Q 18.265625 -1.421875 13.375 4.4375 
Q 8.5 10.296875 8.5 21.578125 
z
M 31.109375 56 
z
M 37.796875 79.984375 
L 47.515625 79.984375 
L 31.59375 61.625 
L 24.125 61.625 
z
" id="DejaVuSans-250"/>
      <path d="M 52 44.1875 
Q 55.375 50.25 60.0625 53.125 
Q 64.75 56 71.09375 56 
Q 79.640625 56 84.28125 50.015625 
Q 88.921875 44.046875 88.921875 33.015625 
L 88.921875 0 
L 79.890625 0 
L 79.890625 32.71875 
Q 79.890625 40.578125 77.09375 44.375 
Q 74.3125 48.1875 68.609375 48.1875 
Q 61.625 48.1875 57.5625 43.546875 
Q 53.515625 38.921875 53.515625 30.90625 
L 53.515625 0 
L 44.484375 0 
L 44.484375 32.71875 
Q 44.484375 40.625 41.703125 44.40625 
Q 38.921875 48.1875 33.109375 48.1875 
Q 26.21875 48.1875 22.15625 43.53125 
Q 18.109375 38.875 18.109375 30.90625 
L 18.109375 0 
L 9.078125 0 
L 9.078125 54.6875 
L 18.109375 54.6875 
L 18.109375 46.1875 
Q 21.1875 51.21875 25.484375 53.609375 
Q 29.78125 56 35.6875 56 
Q 41.65625 56 45.828125 52.96875 
Q 50 49.953125 52 44.1875 
z
" id="DejaVuSans-109"/>
      <path d="M 56.203125 29.59375 
L 56.203125 25.203125 
L 14.890625 25.203125 
Q 15.484375 15.921875 20.484375 11.0625 
Q 25.484375 6.203125 34.421875 6.203125 
Q 39.59375 6.203125 44.453125 7.46875 
Q 49.3125 8.734375 54.109375 11.28125 
L 54.109375 2.78125 
Q 49.265625 0.734375 44.1875 -0.34375 
Q 39.109375 -1.421875 33.890625 -1.421875 
Q 20.796875 -1.421875 13.15625 6.1875 
Q 5.515625 13.8125 5.515625 26.8125 
Q 5.515625 40.234375 12.765625 48.109375 
Q 20.015625 56 32.328125 56 
Q 43.359375 56 49.78125 48.890625 
Q 56.203125 41.796875 56.203125 29.59375 
z
M 47.21875 32.234375 
Q 47.125 39.59375 43.09375 43.984375 
Q 39.0625 48.390625 32.421875 48.390625 
Q 24.90625 48.390625 20.390625 44.140625 
Q 15.875 39.890625 15.1875 32.171875 
z
" id="DejaVuSans-101"/>
      <path d="M 41.109375 46.296875 
Q 39.59375 47.171875 37.8125 47.578125 
Q 36.03125 48 33.890625 48 
Q 26.265625 48 22.1875 43.046875 
Q 18.109375 38.09375 18.109375 28.8125 
L 18.109375 0 
L 9.078125 0 
L 9.078125 54.6875 
L 18.109375 54.6875 
L 18.109375 46.1875 
Q 20.953125 51.171875 25.484375 53.578125 
Q 30.03125 56 36.53125 56 
Q 37.453125 56 38.578125 55.875 
Q 39.703125 55.765625 41.0625 55.515625 
z
" id="DejaVuSans-114"/>
      <path d="M 30.609375 48.390625 
Q 23.390625 48.390625 19.1875 42.75 
Q 14.984375 37.109375 14.984375 27.296875 
Q 14.984375 17.484375 19.15625 11.84375 
Q 23.34375 6.203125 30.609375 6.203125 
Q 37.796875 6.203125 41.984375 11.859375 
Q 46.1875 17.53125 46.1875 27.296875 
Q 46.1875 37.015625 41.984375 42.703125 
Q 37.796875 48.390625 30.609375 48.390625 
z
M 30.609375 56 
Q 42.328125 56 49.015625 48.375 
Q 55.71875 40.765625 55.71875 27.296875 
Q 55.71875 13.875 49.015625 6.21875 
Q 42.328125 -1.421875 30.609375 -1.421875 
Q 18.84375 -1.421875 12.171875 6.21875 
Q 5.515625 13.875 5.515625 27.296875 
Q 5.515625 40.765625 12.171875 48.375 
Q 18.84375 56 30.609375 56 
z
" id="DejaVuSans-111"/>
      <path id="DejaVuSans-32"/>
      <path d="M 45.40625 46.390625 
L 45.40625 75.984375 
L 54.390625 75.984375 
L 54.390625 0 
L 45.40625 0 
L 45.40625 8.203125 
Q 42.578125 3.328125 38.25 0.953125 
Q 33.9375 -1.421875 27.875 -1.421875 
Q 17.96875 -1.421875 11.734375 6.484375 
Q 5.515625 14.40625 5.515625 27.296875 
Q 5.515625 40.1875 11.734375 48.09375 
Q 17.96875 56 27.875 56 
Q 33.9375 56 38.25 53.625 
Q 42.578125 51.265625 45.40625 46.390625 
z
M 14.796875 27.296875 
Q 14.796875 17.390625 18.875 11.75 
Q 22.953125 6.109375 30.078125 6.109375 
Q 37.203125 6.109375 41.296875 11.75 
Q 45.40625 17.390625 45.40625 27.296875 
Q 45.40625 37.203125 41.296875 42.84375 
Q 37.203125 48.484375 30.078125 48.484375 
Q 22.953125 48.484375 18.875 42.84375 
Q 14.796875 37.203125 14.796875 27.296875 
z
" id="DejaVuSans-100"/>
      <path d="M 9.8125 72.90625 
L 51.703125 72.90625 
L 51.703125 64.59375 
L 19.671875 64.59375 
L 19.671875 43.109375 
L 48.578125 43.109375 
L 48.578125 34.8125 
L 19.671875 34.8125 
L 19.671875 0 
L 9.8125 0 
z
" id="DejaVuSans-70"/>
      <path d="M 9.421875 54.6875 
L 18.40625 54.6875 
L 18.40625 0 
L 9.421875 0 
z
M 9.421875 75.984375 
L 18.40625 75.984375 
L 18.40625 64.59375 
L 9.421875 64.59375 
z
" id="DejaVuSans-105"/>
      <path d="M 9.421875 75.984375 
L 18.40625 75.984375 
L 18.40625 0 
L 9.421875 0 
z
" id="DejaVuSans-108"/>
      <path d="M 34.28125 27.484375 
Q 23.390625 27.484375 19.1875 25 
Q 14.984375 22.515625 14.984375 16.5 
Q 14.984375 11.71875 18.140625 8.90625 
Q 21.296875 6.109375 26.703125 6.109375 
Q 34.1875 6.109375 38.703125 11.40625 
Q 43.21875 16.703125 43.21875 25.484375 
L 43.21875 27.484375 
z
M 52.203125 31.203125 
L 52.203125 0 
L 43.21875 0 
L 43.21875 8.296875 
Q 40.140625 3.328125 35.546875 0.953125 
Q 30.953125 -1.421875 24.3125 -1.421875 
Q 15.921875 -1.421875 10.953125 3.296875 
Q 6 8.015625 6 15.921875 
Q 6 25.140625 12.171875 29.828125 
Q 18.359375 34.515625 30.609375 34.515625 
L 43.21875 34.515625 
L 43.21875 35.40625 
Q 43.21875 41.609375 39.140625 45 
Q 35.0625 48.390625 27.6875 48.390625 
Q 23 48.390625 18.546875 47.265625 
Q 14.109375 46.140625 10.015625 43.890625 
L 10.015625 52.203125 
Q 14.9375 54.109375 19.578125 55.046875 
Q 24.21875 56 28.609375 56 
Q 40.484375 56 46.34375 49.84375 
Q 52.203125 43.703125 52.203125 31.203125 
z
" id="DejaVuSans-97"/>
      <path d="M 44.28125 53.078125 
L 44.28125 44.578125 
Q 40.484375 46.53125 36.375 47.5 
Q 32.28125 48.484375 27.875 48.484375 
Q 21.1875 48.484375 17.84375 46.4375 
Q 14.5 44.390625 14.5 40.28125 
Q 14.5 37.15625 16.890625 35.375 
Q 19.28125 33.59375 26.515625 31.984375 
L 29.59375 31.296875 
Q 39.15625 29.25 43.1875 25.515625 
Q 47.21875 21.78125 47.21875 15.09375 
Q 47.21875 7.46875 41.1875 3.015625 
Q 35.15625 -1.421875 24.609375 -1.421875 
Q 20.21875 -1.421875 15.453125 -0.5625 
Q 10.6875 0.296875 5.421875 2 
L 5.421875 11.28125 
Q 10.40625 8.6875 15.234375 7.390625 
Q 20.0625 6.109375 24.8125 6.109375 
Q 31.15625 6.109375 34.5625 8.28125 
Q 37.984375 10.453125 37.984375 14.40625 
Q 37.984375 18.0625 35.515625 20.015625 
Q 33.0625 21.96875 24.703125 23.78125 
L 21.578125 24.515625 
Q 13.234375 26.265625 9.515625 29.90625 
Q 5.8125 33.546875 5.8125 39.890625 
Q 5.8125 47.609375 11.28125 51.796875 
Q 16.75 56 26.8125 56 
Q 31.78125 56 36.171875 55.265625 
Q 40.578125 54.546875 44.28125 53.078125 
z
" id="DejaVuSans-115"/>
     </defs>
     <g transform="translate(216.229531 634.316563)scale(0.1 -0.1)">
      <use xlink:href="#DejaVuSans-78"/>
      <use x="74.804688" xlink:href="#DejaVuSans-250"/>
      <use x="138.183594" xlink:href="#DejaVuSans-109"/>
      <use x="235.595703" xlink:href="#DejaVuSans-101"/>
      <use x="297.119141" xlink:href="#DejaVuSans-114"/>
      <use x="338.201172" xlink:href="#DejaVuSans-111"/>
      <use x="399.382812" xlink:href="#DejaVuSans-32"/>
      <use x="431.169922" xlink:href="#DejaVuSans-100"/>
      <use x="494.646484" xlink:href="#DejaVuSans-101"/>
      <use x="556.169922" xlink:href="#DejaVuSans-32"/>
      <use x="587.957031" xlink:href="#DejaVuSans-70"/>
      <use x="645.367188" xlink:href="#DejaVuSans-105"/>
      <use x="673.150391" xlink:href="#DejaVuSans-108"/>
      <use x="700.933594" xlink:href="#DejaVuSans-105"/>
      <use x="728.716797" xlink:href="#DejaVuSans-97"/>
      <use x="789.996094" xlink:href="#DejaVuSans-100"/>
      <use x="853.472656" xlink:href="#DejaVuSans-111"/>
      <use x="914.654297" xlink:href="#DejaVuSans-115"/>
     </g>
    </g>
   </g>
   <g id="matplotlib.axis_2">
    <g id="ytick_1">
     <g id="line2d_6">
      <defs>
       <path d="M 0 0 
L -3.5 0 
" id="m151f254a12" style="stroke:#000000;stroke-width:0.8;"/>
      </defs>
      <g>
       <use style="stroke:#000000;stroke-width:0.8;" x="73.82" xlink:href="#m151f254a12" y="577.158401"/>
      </g>
     </g>
     <g id="text_7">
      <!-- PCO -->
      <defs>
       <path d="M 19.671875 64.796875 
L 19.671875 37.40625 
L 32.078125 37.40625 
Q 38.96875 37.40625 42.71875 40.96875 
Q 46.484375 44.53125 46.484375 51.125 
Q 46.484375 57.671875 42.71875 61.234375 
Q 38.96875 64.796875 32.078125 64.796875 
z
M 9.8125 72.90625 
L 32.078125 72.90625 
Q 44.34375 72.90625 50.609375 67.359375 
Q 56.890625 61.8125 56.890625 51.125 
Q 56.890625 40.328125 50.609375 34.8125 
Q 44.34375 29.296875 32.078125 29.296875 
L 19.671875 29.296875 
L 19.671875 0 
L 9.8125 0 
z
" id="DejaVuSans-80"/>
       <path d="M 64.40625 67.28125 
L 64.40625 56.890625 
Q 59.421875 61.53125 53.78125 63.8125 
Q 48.140625 66.109375 41.796875 66.109375 
Q 29.296875 66.109375 22.65625 58.46875 
Q 16.015625 50.828125 16.015625 36.375 
Q 16.015625 21.96875 22.65625 14.328125 
Q 29.296875 6.6875 41.796875 6.6875 
Q 48.140625 6.6875 53.78125 8.984375 
Q 59.421875 11.28125 64.40625 15.921875 
L 64.40625 5.609375 
Q 59.234375 2.09375 53.4375 0.328125 
Q 47.65625 -1.421875 41.21875 -1.421875 
Q 24.65625 -1.421875 15.125 8.703125 
Q 5.609375 18.84375 5.609375 36.375 
Q 5.609375 53.953125 15.125 64.078125 
Q 24.65625 74.21875 41.21875 74.21875 
Q 47.75 74.21875 53.53125 72.484375 
Q 59.328125 70.75 64.40625 67.28125 
z
" id="DejaVuSans-67"/>
       <path d="M 39.40625 66.21875 
Q 28.65625 66.21875 22.328125 58.203125 
Q 16.015625 50.203125 16.015625 36.375 
Q 16.015625 22.609375 22.328125 14.59375 
Q 28.65625 6.59375 39.40625 6.59375 
Q 50.140625 6.59375 56.421875 14.59375 
Q 62.703125 22.609375 62.703125 36.375 
Q 62.703125 50.203125 56.421875 58.203125 
Q 50.140625 66.21875 39.40625 66.21875 
z
M 39.40625 74.21875 
Q 54.734375 74.21875 63.90625 63.9375 
Q 73.09375 53.65625 73.09375 36.375 
Q 73.09375 19.140625 63.90625 8.859375 
Q 54.734375 -1.421875 39.40625 -1.421875 
Q 24.03125 -1.421875 14.8125 8.828125 
Q 5.609375 19.09375 5.609375 36.375 
Q 5.609375 53.65625 14.8125 63.9375 
Q 24.03125 74.21875 39.40625 74.21875 
z
" id="DejaVuSans-79"/>
      </defs>
      <g transform="translate(45.935625 580.95762)scale(0.1 -0.1)">
       <use xlink:href="#DejaVuSans-80"/>
       <use x="60.302734" xlink:href="#DejaVuSans-67"/>
       <use x="130.126953" xlink:href="#DejaVuSans-79"/>
      </g>
     </g>
    </g>
    <g id="ytick_2">
     <g id="line2d_7">
      <g>
       <use style="stroke:#000000;stroke-width:0.8;" x="73.82" xlink:href="#m151f254a12" y="561.897319"/>
      </g>
     </g>
     <g id="text_8">
      <!-- PCB -->
      <defs>
       <path d="M 19.671875 34.8125 
L 19.671875 8.109375 
L 35.5 8.109375 
Q 43.453125 8.109375 47.28125 11.40625 
Q 51.125 14.703125 51.125 21.484375 
Q 51.125 28.328125 47.28125 31.5625 
Q 43.453125 34.8125 35.5 34.8125 
z
M 19.671875 64.796875 
L 19.671875 42.828125 
L 34.28125 42.828125 
Q 41.5 42.828125 45.03125 45.53125 
Q 48.578125 48.25 48.578125 53.8125 
Q 48.578125 59.328125 45.03125 62.0625 
Q 41.5 64.796875 34.28125 64.796875 
z
M 9.8125 72.90625 
L 35.015625 72.90625 
Q 46.296875 72.90625 52.390625 68.21875 
Q 58.5 63.53125 58.5 54.890625 
Q 58.5 48.1875 55.375 44.234375 
Q 52.25 40.28125 46.1875 39.3125 
Q 53.46875 37.75 57.5 32.78125 
Q 61.53125 27.828125 61.53125 20.40625 
Q 61.53125 10.640625 54.890625 5.3125 
Q 48.25 0 35.984375 0 
L 9.8125 0 
z
" id="DejaVuSans-66"/>
      </defs>
      <g transform="translate(46.946563 565.696538)scale(0.1 -0.1)">
       <use xlink:href="#DejaVuSans-80"/>
       <use x="60.302734" xlink:href="#DejaVuSans-67"/>
       <use x="130.126953" xlink:href="#DejaVuSans-66"/>
      </g>
     </g>
    </g>
    <g id="ytick_3">
     <g id="line2d_8">
      <g>
       <use style="stroke:#000000;stroke-width:0.8;" x="73.82" xlink:href="#m151f254a12" y="546.636237"/>
      </g>
     </g>
     <g id="text_9">
      <!-- PSTU -->
      <defs>
       <path d="M 53.515625 70.515625 
L 53.515625 60.890625 
Q 47.90625 63.578125 42.921875 64.890625 
Q 37.9375 66.21875 33.296875 66.21875 
Q 25.25 66.21875 20.875 63.09375 
Q 16.5 59.96875 16.5 54.203125 
Q 16.5 49.359375 19.40625 46.890625 
Q 22.3125 44.4375 30.421875 42.921875 
L 36.375 41.703125 
Q 47.40625 39.59375 52.65625 34.296875 
Q 57.90625 29 57.90625 20.125 
Q 57.90625 9.515625 50.796875 4.046875 
Q 43.703125 -1.421875 29.984375 -1.421875 
Q 24.8125 -1.421875 18.96875 -0.25 
Q 13.140625 0.921875 6.890625 3.21875 
L 6.890625 13.375 
Q 12.890625 10.015625 18.65625 8.296875 
Q 24.421875 6.59375 29.984375 6.59375 
Q 38.421875 6.59375 43.015625 9.90625 
Q 47.609375 13.234375 47.609375 19.390625 
Q 47.609375 24.75 44.3125 27.78125 
Q 41.015625 30.8125 33.5 32.328125 
L 27.484375 33.5 
Q 16.453125 35.6875 11.515625 40.375 
Q 6.59375 45.0625 6.59375 53.421875 
Q 6.59375 63.09375 13.40625 68.65625 
Q 20.21875 74.21875 32.171875 74.21875 
Q 37.3125 74.21875 42.625 73.28125 
Q 47.953125 72.359375 53.515625 70.515625 
z
" id="DejaVuSans-83"/>
       <path d="M -0.296875 72.90625 
L 61.375 72.90625 
L 61.375 64.59375 
L 35.5 64.59375 
L 35.5 0 
L 25.59375 0 
L 25.59375 64.59375 
L -0.296875 64.59375 
z
" id="DejaVuSans-84"/>
       <path d="M 8.6875 72.90625 
L 18.609375 72.90625 
L 18.609375 28.609375 
Q 18.609375 16.890625 22.84375 11.734375 
Q 27.09375 6.59375 36.625 6.59375 
Q 46.09375 6.59375 50.34375 11.734375 
Q 54.59375 16.890625 54.59375 28.609375 
L 54.59375 72.90625 
L 64.5 72.90625 
L 64.5 27.390625 
Q 64.5 13.140625 57.4375 5.859375 
Q 50.390625 -1.421875 36.625 -1.421875 
Q 22.796875 -1.421875 15.734375 5.859375 
Q 8.6875 13.140625 8.6875 27.390625 
z
" id="DejaVuSans-85"/>
      </defs>
      <g transform="translate(41.015313 550.435455)scale(0.1 -0.1)">
       <use xlink:href="#DejaVuSans-80"/>
       <use x="60.302734" xlink:href="#DejaVuSans-83"/>
       <use x="123.779297" xlink:href="#DejaVuSans-84"/>
       <use x="184.863281" xlink:href="#DejaVuSans-85"/>
      </g>
     </g>
    </g>
    <g id="ytick_4">
     <g id="line2d_9">
      <g>
       <use style="stroke:#000000;stroke-width:0.8;" x="73.82" xlink:href="#m151f254a12" y="531.375154"/>
      </g>
     </g>
     <g id="text_10">
      <!-- REDE -->
      <defs>
       <path d="M 44.390625 34.1875 
Q 47.5625 33.109375 50.5625 29.59375 
Q 53.5625 26.078125 56.59375 19.921875 
L 66.609375 0 
L 56 0 
L 46.6875 18.703125 
Q 43.0625 26.03125 39.671875 28.421875 
Q 36.28125 30.8125 30.421875 30.8125 
L 19.671875 30.8125 
L 19.671875 0 
L 9.8125 0 
L 9.8125 72.90625 
L 32.078125 72.90625 
Q 44.578125 72.90625 50.734375 67.671875 
Q 56.890625 62.453125 56.890625 51.90625 
Q 56.890625 45.015625 53.6875 40.46875 
Q 50.484375 35.9375 44.390625 34.1875 
z
M 19.671875 64.796875 
L 19.671875 38.921875 
L 32.078125 38.921875 
Q 39.203125 38.921875 42.84375 42.21875 
Q 46.484375 45.515625 46.484375 51.90625 
Q 46.484375 58.296875 42.84375 61.546875 
Q 39.203125 64.796875 32.078125 64.796875 
z
" id="DejaVuSans-82"/>
       <path d="M 9.8125 72.90625 
L 55.90625 72.90625 
L 55.90625 64.59375 
L 19.671875 64.59375 
L 19.671875 43.015625 
L 54.390625 43.015625 
L 54.390625 34.71875 
L 19.671875 34.71875 
L 19.671875 8.296875 
L 56.78125 8.296875 
L 56.78125 0 
L 9.8125 0 
z
" id="DejaVuSans-69"/>
       <path d="M 19.671875 64.796875 
L 19.671875 8.109375 
L 31.59375 8.109375 
Q 46.6875 8.109375 53.6875 14.9375 
Q 60.6875 21.78125 60.6875 36.53125 
Q 60.6875 51.171875 53.6875 57.984375 
Q 46.6875 64.796875 31.59375 64.796875 
z
M 9.8125 72.90625 
L 30.078125 72.90625 
Q 51.265625 72.90625 61.171875 64.09375 
Q 71.09375 55.28125 71.09375 36.53125 
Q 71.09375 17.671875 61.125 8.828125 
Q 51.171875 0 30.078125 0 
L 9.8125 0 
z
" id="DejaVuSans-68"/>
      </defs>
      <g transform="translate(39.534063 535.174373)scale(0.1 -0.1)">
       <use xlink:href="#DejaVuSans-82"/>
       <use x="69.482422" xlink:href="#DejaVuSans-69"/>
       <use x="132.666016" xlink:href="#DejaVuSans-68"/>
       <use x="209.667969" xlink:href="#DejaVuSans-69"/>
      </g>
     </g>
    </g>
    <g id="ytick_5">
     <g id="line2d_10">
      <g>
       <use style="stroke:#000000;stroke-width:0.8;" x="73.82" xlink:href="#m151f254a12" y="516.114072"/>
      </g>
     </g>
     <g id="text_11">
      <!-- NOVO -->
      <defs>
       <path d="M 28.609375 0 
L 0.78125 72.90625 
L 11.078125 72.90625 
L 34.1875 11.53125 
L 57.328125 72.90625 
L 67.578125 72.90625 
L 39.796875 0 
z
" id="DejaVuSans-86"/>
      </defs>
      <g transform="translate(36.7575 519.91329)scale(0.1 -0.1)">
       <use xlink:href="#DejaVuSans-78"/>
       <use x="74.804688" xlink:href="#DejaVuSans-79"/>
       <use x="153.5" xlink:href="#DejaVuSans-86"/>
       <use x="221.892578" xlink:href="#DejaVuSans-79"/>
      </g>
     </g>
    </g>
    <g id="ytick_6">
     <g id="line2d_11">
      <g>
       <use style="stroke:#000000;stroke-width:0.8;" x="73.82" xlink:href="#m151f254a12" y="500.852989"/>
      </g>
     </g>
     <g id="text_12">
      <!-- PPL -->
      <defs>
       <path d="M 9.8125 72.90625 
L 19.671875 72.90625 
L 19.671875 8.296875 
L 55.171875 8.296875 
L 55.171875 0 
L 9.8125 0 
z
" id="DejaVuSans-76"/>
      </defs>
      <g transform="translate(49.18875 504.652208)scale(0.1 -0.1)">
       <use xlink:href="#DejaVuSans-80"/>
       <use x="60.302734" xlink:href="#DejaVuSans-80"/>
       <use x="120.605469" xlink:href="#DejaVuSans-76"/>
      </g>
     </g>
    </g>
    <g id="ytick_7">
     <g id="line2d_12">
      <g>
       <use style="stroke:#000000;stroke-width:0.8;" x="73.82" xlink:href="#m151f254a12" y="485.591907"/>
      </g>
     </g>
     <g id="text_13">
      <!-- PMB -->
      <defs>
       <path d="M 9.8125 72.90625 
L 24.515625 72.90625 
L 43.109375 23.296875 
L 61.8125 72.90625 
L 76.515625 72.90625 
L 76.515625 0 
L 66.890625 0 
L 66.890625 64.015625 
L 48.09375 14.015625 
L 38.1875 14.015625 
L 19.390625 64.015625 
L 19.390625 0 
L 9.8125 0 
z
" id="DejaVuSans-77"/>
      </defs>
      <g transform="translate(45.30125 489.391126)scale(0.1 -0.1)">
       <use xlink:href="#DejaVuSans-80"/>
       <use x="60.302734" xlink:href="#DejaVuSans-77"/>
       <use x="146.582031" xlink:href="#DejaVuSans-66"/>
      </g>
     </g>
    </g>
    <g id="ytick_8">
     <g id="line2d_13">
      <g>
       <use style="stroke:#000000;stroke-width:0.8;" x="73.82" xlink:href="#m151f254a12" y="470.330824"/>
      </g>
     </g>
     <g id="text_14">
      <!-- PATRI -->
      <defs>
       <path d="M 34.1875 63.1875 
L 20.796875 26.90625 
L 47.609375 26.90625 
z
M 28.609375 72.90625 
L 39.796875 72.90625 
L 67.578125 0 
L 57.328125 0 
L 50.6875 18.703125 
L 17.828125 18.703125 
L 11.1875 0 
L 0.78125 0 
z
" id="DejaVuSans-65"/>
       <path d="M 9.8125 72.90625 
L 19.671875 72.90625 
L 19.671875 0 
L 9.8125 0 
z
" id="DejaVuSans-73"/>
      </defs>
      <g transform="translate(37.96375 474.130043)scale(0.1 -0.1)">
       <use xlink:href="#DejaVuSans-80"/>
       <use x="60.208984" xlink:href="#DejaVuSans-65"/>
       <use x="128.507812" xlink:href="#DejaVuSans-84"/>
       <use x="189.591797" xlink:href="#DejaVuSans-82"/>
       <use x="259.074219" xlink:href="#DejaVuSans-73"/>
      </g>
     </g>
    </g>
    <g id="ytick_9">
     <g id="line2d_14">
      <g>
       <use style="stroke:#000000;stroke-width:0.8;" x="73.82" xlink:href="#m151f254a12" y="455.069742"/>
      </g>
     </g>
     <g id="text_15">
      <!-- PROS -->
      <g transform="translate(39.621563 458.868961)scale(0.1 -0.1)">
       <use xlink:href="#DejaVuSans-80"/>
       <use x="60.302734" xlink:href="#DejaVuSans-82"/>
       <use x="129.785156" xlink:href="#DejaVuSans-79"/>
       <use x="208.496094" xlink:href="#DejaVuSans-83"/>
      </g>
     </g>
    </g>
    <g id="ytick_10">
     <g id="line2d_15">
      <g>
       <use style="stroke:#000000;stroke-width:0.8;" x="73.82" xlink:href="#m151f254a12" y="439.80866"/>
      </g>
     </g>
     <g id="text_16">
      <!-- PRTB -->
      <g transform="translate(40.884063 443.607878)scale(0.1 -0.1)">
       <use xlink:href="#DejaVuSans-80"/>
       <use x="60.302734" xlink:href="#DejaVuSans-82"/>
       <use x="129.675781" xlink:href="#DejaVuSans-84"/>
       <use x="190.759766" xlink:href="#DejaVuSans-66"/>
      </g>
     </g>
    </g>
    <g id="ytick_11">
     <g id="line2d_16">
      <g>
       <use style="stroke:#000000;stroke-width:0.8;" x="73.82" xlink:href="#m151f254a12" y="424.547577"/>
      </g>
     </g>
     <g id="text_17">
      <!-- PSOL -->
      <g transform="translate(40.998125 428.346796)scale(0.1 -0.1)">
       <use xlink:href="#DejaVuSans-80"/>
       <use x="60.302734" xlink:href="#DejaVuSans-83"/>
       <use x="123.779297" xlink:href="#DejaVuSans-79"/>
       <use x="202.490234" xlink:href="#DejaVuSans-76"/>
      </g>
     </g>
    </g>
    <g id="ytick_12">
     <g id="line2d_17">
      <g>
       <use style="stroke:#000000;stroke-width:0.8;" x="73.82" xlink:href="#m151f254a12" y="409.286495"/>
      </g>
     </g>
     <g id="text_18">
      <!-- PODE -->
      <g transform="translate(38.899688 413.085713)scale(0.1 -0.1)">
       <use xlink:href="#DejaVuSans-80"/>
       <use x="60.302734" xlink:href="#DejaVuSans-79"/>
       <use x="139.013672" xlink:href="#DejaVuSans-68"/>
       <use x="216.015625" xlink:href="#DejaVuSans-69"/>
      </g>
     </g>
    </g>
    <g id="ytick_13">
     <g id="line2d_18">
      <g>
       <use style="stroke:#000000;stroke-width:0.8;" x="73.82" xlink:href="#m151f254a12" y="394.025412"/>
      </g>
     </g>
     <g id="text_19">
      <!-- DC -->
      <g transform="translate(52.137188 397.824631)scale(0.1 -0.1)">
       <use xlink:href="#DejaVuSans-68"/>
       <use x="77.001953" xlink:href="#DejaVuSans-67"/>
      </g>
     </g>
    </g>
    <g id="ytick_14">
     <g id="line2d_19">
      <g>
       <use style="stroke:#000000;stroke-width:0.8;" x="73.82" xlink:href="#m151f254a12" y="378.76433"/>
      </g>
     </g>
     <g id="text_20">
      <!-- AVANTE -->
      <g transform="translate(26.409063 382.563549)scale(0.1 -0.1)">
       <use xlink:href="#DejaVuSans-65"/>
       <use x="68.314453" xlink:href="#DejaVuSans-86"/>
       <use x="136.628906" xlink:href="#DejaVuSans-65"/>
       <use x="205.037109" xlink:href="#DejaVuSans-78"/>
       <use x="279.841797" xlink:href="#DejaVuSans-84"/>
       <use x="340.925781" xlink:href="#DejaVuSans-69"/>
      </g>
     </g>
    </g>
    <g id="ytick_15">
     <g id="line2d_20">
      <g>
       <use style="stroke:#000000;stroke-width:0.8;" x="73.82" xlink:href="#m151f254a12" y="363.503247"/>
      </g>
     </g>
     <g id="text_21">
      <!-- PTC -->
      <g transform="translate(47.7075 367.302466)scale(0.1 -0.1)">
       <use xlink:href="#DejaVuSans-80"/>
       <use x="60.302734" xlink:href="#DejaVuSans-84"/>
       <use x="121.308594" xlink:href="#DejaVuSans-67"/>
      </g>
     </g>
    </g>
    <g id="ytick_16">
     <g id="line2d_21">
      <g>
       <use style="stroke:#000000;stroke-width:0.8;" x="73.82" xlink:href="#m151f254a12" y="348.242165"/>
      </g>
     </g>
     <g id="text_22">
      <!-- SD -->
      <g transform="translate(52.771563 352.041384)scale(0.1 -0.1)">
       <use xlink:href="#DejaVuSans-83"/>
       <use x="63.476562" xlink:href="#DejaVuSans-68"/>
      </g>
     </g>
    </g>
    <g id="ytick_17">
     <g id="line2d_22">
      <g>
       <use style="stroke:#000000;stroke-width:0.8;" x="73.82" xlink:href="#m151f254a12" y="332.981082"/>
      </g>
     </g>
     <g id="text_23">
      <!-- PHS -->
      <defs>
       <path d="M 9.8125 72.90625 
L 19.671875 72.90625 
L 19.671875 43.015625 
L 55.515625 43.015625 
L 55.515625 72.90625 
L 65.375 72.90625 
L 65.375 0 
L 55.515625 0 
L 55.515625 34.71875 
L 19.671875 34.71875 
L 19.671875 0 
L 9.8125 0 
z
" id="DejaVuSans-72"/>
      </defs>
      <g transform="translate(46.921563 336.780301)scale(0.1 -0.1)">
       <use xlink:href="#DejaVuSans-80"/>
       <use x="60.302734" xlink:href="#DejaVuSans-72"/>
       <use x="135.498047" xlink:href="#DejaVuSans-83"/>
      </g>
     </g>
    </g>
    <g id="ytick_18">
     <g id="line2d_23">
      <g>
       <use style="stroke:#000000;stroke-width:0.8;" x="73.82" xlink:href="#m151f254a12" y="317.72"/>
      </g>
     </g>
     <g id="text_24">
      <!-- PMN -->
      <g transform="translate(44.680938 321.519219)scale(0.1 -0.1)">
       <use xlink:href="#DejaVuSans-80"/>
       <use x="60.302734" xlink:href="#DejaVuSans-77"/>
       <use x="146.582031" xlink:href="#DejaVuSans-78"/>
      </g>
     </g>
    </g>
    <g id="ytick_19">
     <g id="line2d_24">
      <g>
       <use style="stroke:#000000;stroke-width:0.8;" x="73.82" xlink:href="#m151f254a12" y="302.458918"/>
      </g>
     </g>
     <g id="text_25">
      <!-- PSL -->
      <g transform="translate(48.87 306.258136)scale(0.1 -0.1)">
       <use xlink:href="#DejaVuSans-80"/>
       <use x="60.302734" xlink:href="#DejaVuSans-83"/>
       <use x="123.779297" xlink:href="#DejaVuSans-76"/>
      </g>
     </g>
    </g>
    <g id="ytick_20">
     <g id="line2d_25">
      <g>
       <use style="stroke:#000000;stroke-width:0.8;" x="73.82" xlink:href="#m151f254a12" y="287.197835"/>
      </g>
     </g>
     <g id="text_26">
      <!-- PRP -->
      <g transform="translate(47.812188 290.997054)scale(0.1 -0.1)">
       <use xlink:href="#DejaVuSans-80"/>
       <use x="60.302734" xlink:href="#DejaVuSans-82"/>
       <use x="129.785156" xlink:href="#DejaVuSans-80"/>
      </g>
     </g>
    </g>
    <g id="ytick_21">
     <g id="line2d_26">
      <g>
       <use style="stroke:#000000;stroke-width:0.8;" x="73.82" xlink:href="#m151f254a12" y="271.936753"/>
      </g>
     </g>
     <g id="text_27">
      <!-- PSD -->
      <g transform="translate(46.741875 275.735971)scale(0.1 -0.1)">
       <use xlink:href="#DejaVuSans-80"/>
       <use x="60.302734" xlink:href="#DejaVuSans-83"/>
       <use x="123.779297" xlink:href="#DejaVuSans-68"/>
      </g>
     </g>
    </g>
    <g id="ytick_22">
     <g id="line2d_27">
      <g>
       <use style="stroke:#000000;stroke-width:0.8;" x="73.82" xlink:href="#m151f254a12" y="256.67567"/>
      </g>
     </g>
     <g id="text_28">
      <!-- PV -->
      <g transform="translate(53.949688 260.474889)scale(0.1 -0.1)">
       <use xlink:href="#DejaVuSans-80"/>
       <use x="60.302734" xlink:href="#DejaVuSans-86"/>
      </g>
     </g>
    </g>
    <g id="ytick_23">
     <g id="line2d_28">
      <g>
       <use style="stroke:#000000;stroke-width:0.8;" x="73.82" xlink:href="#m151f254a12" y="241.414588"/>
      </g>
     </g>
     <g id="text_29">
      <!-- PC DO B -->
      <g transform="translate(25.018438 245.213807)scale(0.1 -0.1)">
       <use xlink:href="#DejaVuSans-80"/>
       <use x="60.302734" xlink:href="#DejaVuSans-67"/>
       <use x="130.126953" xlink:href="#DejaVuSans-32"/>
       <use x="161.914062" xlink:href="#DejaVuSans-68"/>
       <use x="238.916016" xlink:href="#DejaVuSans-79"/>
       <use x="317.626953" xlink:href="#DejaVuSans-32"/>
       <use x="349.414062" xlink:href="#DejaVuSans-66"/>
      </g>
     </g>
    </g>
    <g id="ytick_24">
     <g id="line2d_29">
      <g>
       <use style="stroke:#000000;stroke-width:0.8;" x="73.82" xlink:href="#m151f254a12" y="226.153505"/>
      </g>
     </g>
     <g id="text_30">
      <!-- PRB -->
      <g transform="translate(46.980938 229.952724)scale(0.1 -0.1)">
       <use xlink:href="#DejaVuSans-80"/>
       <use x="60.302734" xlink:href="#DejaVuSans-82"/>
       <use x="129.785156" xlink:href="#DejaVuSans-66"/>
      </g>
     </g>
    </g>
    <g id="ytick_25">
     <g id="line2d_30">
      <g>
       <use style="stroke:#000000;stroke-width:0.8;" x="73.82" xlink:href="#m151f254a12" y="210.892423"/>
      </g>
     </g>
     <g id="text_31">
      <!-- PSC -->
      <g transform="translate(47.459063 214.691642)scale(0.1 -0.1)">
       <use xlink:href="#DejaVuSans-80"/>
       <use x="60.302734" xlink:href="#DejaVuSans-83"/>
       <use x="123.779297" xlink:href="#DejaVuSans-67"/>
      </g>
     </g>
    </g>
    <g id="ytick_26">
     <g id="line2d_31">
      <g>
       <use style="stroke:#000000;stroke-width:0.8;" x="73.82" xlink:href="#m151f254a12" y="195.63134"/>
      </g>
     </g>
     <g id="text_32">
      <!-- PPS -->
      <g transform="translate(48.412188 199.430559)scale(0.1 -0.1)">
       <use xlink:href="#DejaVuSans-80"/>
       <use x="60.302734" xlink:href="#DejaVuSans-80"/>
       <use x="120.605469" xlink:href="#DejaVuSans-83"/>
      </g>
     </g>
    </g>
    <g id="ytick_27">
     <g id="line2d_32">
      <g>
       <use style="stroke:#000000;stroke-width:0.8;" x="73.82" xlink:href="#m151f254a12" y="180.370258"/>
      </g>
     </g>
     <g id="text_33">
      <!-- PSB -->
      <g transform="translate(47.580938 184.169477)scale(0.1 -0.1)">
       <use xlink:href="#DejaVuSans-80"/>
       <use x="60.302734" xlink:href="#DejaVuSans-83"/>
       <use x="123.779297" xlink:href="#DejaVuSans-66"/>
      </g>
     </g>
    </g>
    <g id="ytick_28">
     <g id="line2d_33">
      <g>
       <use style="stroke:#000000;stroke-width:0.8;" x="73.82" xlink:href="#m151f254a12" y="165.109176"/>
      </g>
     </g>
     <g id="text_34">
      <!-- PR -->
      <g transform="translate(53.841875 168.908394)scale(0.1 -0.1)">
       <use xlink:href="#DejaVuSans-80"/>
       <use x="60.302734" xlink:href="#DejaVuSans-82"/>
      </g>
     </g>
    </g>
    <g id="ytick_29">
     <g id="line2d_34">
      <g>
       <use style="stroke:#000000;stroke-width:0.8;" x="73.82" xlink:href="#m151f254a12" y="149.848093"/>
      </g>
     </g>
     <g id="text_35">
      <!-- DEM -->
      <g transform="translate(44.173125 153.647312)scale(0.1 -0.1)">
       <use xlink:href="#DejaVuSans-68"/>
       <use x="77.001953" xlink:href="#DejaVuSans-69"/>
       <use x="140.185547" xlink:href="#DejaVuSans-77"/>
      </g>
     </g>
    </g>
    <g id="ytick_30">
     <g id="line2d_35">
      <g>
       <use style="stroke:#000000;stroke-width:0.8;" x="73.82" xlink:href="#m151f254a12" y="134.587011"/>
      </g>
     </g>
     <g id="text_36">
      <!-- PTB -->
      <g transform="translate(47.821563 138.386229)scale(0.1 -0.1)">
       <use xlink:href="#DejaVuSans-80"/>
       <use x="60.302734" xlink:href="#DejaVuSans-84"/>
       <use x="121.386719" xlink:href="#DejaVuSans-66"/>
      </g>
     </g>
    </g>
    <g id="ytick_31">
     <g id="line2d_36">
      <g>
       <use style="stroke:#000000;stroke-width:0.8;" x="73.82" xlink:href="#m151f254a12" y="119.325928"/>
      </g>
     </g>
     <g id="text_37">
      <!-- PDT -->
      <g transform="translate(46.9825 123.125147)scale(0.1 -0.1)">
       <use xlink:href="#DejaVuSans-80"/>
       <use x="60.302734" xlink:href="#DejaVuSans-68"/>
       <use x="137.304688" xlink:href="#DejaVuSans-84"/>
      </g>
     </g>
    </g>
    <g id="ytick_32">
     <g id="line2d_37">
      <g>
       <use style="stroke:#000000;stroke-width:0.8;" x="73.82" xlink:href="#m151f254a12" y="104.064846"/>
      </g>
     </g>
     <g id="text_38">
      <!-- PP -->
      <g transform="translate(54.760625 107.864065)scale(0.1 -0.1)">
       <use xlink:href="#DejaVuSans-80"/>
       <use x="60.302734" xlink:href="#DejaVuSans-80"/>
      </g>
     </g>
    </g>
    <g id="ytick_33">
     <g id="line2d_38">
      <g>
       <use style="stroke:#000000;stroke-width:0.8;" x="73.82" xlink:href="#m151f254a12" y="88.803763"/>
      </g>
     </g>
     <g id="text_39">
      <!-- PSDB -->
      <g transform="translate(39.880938 92.602982)scale(0.1 -0.1)">
       <use xlink:href="#DejaVuSans-80"/>
       <use x="60.302734" xlink:href="#DejaVuSans-83"/>
       <use x="123.779297" xlink:href="#DejaVuSans-68"/>
       <use x="200.78125" xlink:href="#DejaVuSans-66"/>
      </g>
     </g>
    </g>
    <g id="ytick_34">
     <g id="line2d_39">
      <g>
       <use style="stroke:#000000;stroke-width:0.8;" x="73.82" xlink:href="#m151f254a12" y="73.542681"/>
      </g>
     </g>
     <g id="text_40">
      <!-- PT -->
      <g transform="translate(54.6825 77.3419)scale(0.1 -0.1)">
       <use xlink:href="#DejaVuSans-80"/>
       <use x="60.302734" xlink:href="#DejaVuSans-84"/>
      </g>
     </g>
    </g>
    <g id="ytick_35">
     <g id="line2d_40">
      <g>
       <use style="stroke:#000000;stroke-width:0.8;" x="73.82" xlink:href="#m151f254a12" y="58.281599"/>
      </g>
     </g>
     <g id="text_41">
      <!-- MDB -->
      <g transform="translate(43.630938 62.080817)scale(0.1 -0.1)">
       <use xlink:href="#DejaVuSans-77"/>
       <use x="86.279297" xlink:href="#DejaVuSans-68"/>
       <use x="163.28125" xlink:href="#DejaVuSans-66"/>
      </g>
     </g>
    </g>
    <g id="text_42">
     <!-- Partido -->
     <defs>
      <path d="M 18.3125 70.21875 
L 18.3125 54.6875 
L 36.8125 54.6875 
L 36.8125 47.703125 
L 18.3125 47.703125 
L 18.3125 18.015625 
Q 18.3125 11.328125 20.140625 9.421875 
Q 21.96875 7.515625 27.59375 7.515625 
L 36.8125 7.515625 
L 36.8125 0 
L 27.59375 0 
Q 17.1875 0 13.234375 3.875 
Q 9.28125 7.765625 9.28125 18.015625 
L 9.28125 47.703125 
L 2.6875 47.703125 
L 2.6875 54.6875 
L 9.28125 54.6875 
L 9.28125 70.21875 
z
" id="DejaVuSans-116"/>
     </defs>
     <g transform="translate(18.93875 335.434063)rotate(-90)scale(0.1 -0.1)">
      <use xlink:href="#DejaVuSans-80"/>
      <use x="60.240234" xlink:href="#DejaVuSans-97"/>
      <use x="121.519531" xlink:href="#DejaVuSans-114"/>
      <use x="162.632812" xlink:href="#DejaVuSans-116"/>
      <use x="201.841797" xlink:href="#DejaVuSans-105"/>
      <use x="229.625" xlink:href="#DejaVuSans-100"/>
      <use x="293.101562" xlink:href="#DejaVuSans-111"/>
     </g>
    </g>
   </g>
   <g id="line2d_41">
    <path clip-path="url(#p85575ecc79)" d="M 247.767465 606.04 
L 247.767465 29.4 
" style="fill:none;stroke:#000000;stroke-linecap:square;stroke-width:3;"/>
   </g>
   <g id="text_43">
    <!-- Números Absolutos de Filiados a Partidos Politicos por Gênero -->
    <defs>
     <path d="M 48.6875 27.296875 
Q 48.6875 37.203125 44.609375 42.84375 
Q 40.53125 48.484375 33.40625 48.484375 
Q 26.265625 48.484375 22.1875 42.84375 
Q 18.109375 37.203125 18.109375 27.296875 
Q 18.109375 17.390625 22.1875 11.75 
Q 26.265625 6.109375 33.40625 6.109375 
Q 40.53125 6.109375 44.609375 11.75 
Q 48.6875 17.390625 48.6875 27.296875 
z
M 18.109375 46.390625 
Q 20.953125 51.265625 25.265625 53.625 
Q 29.59375 56 35.59375 56 
Q 45.5625 56 51.78125 48.09375 
Q 58.015625 40.1875 58.015625 27.296875 
Q 58.015625 14.40625 51.78125 6.484375 
Q 45.5625 -1.421875 35.59375 -1.421875 
Q 29.59375 -1.421875 25.265625 0.953125 
Q 20.953125 3.328125 18.109375 8.203125 
L 18.109375 0 
L 9.078125 0 
L 9.078125 75.984375 
L 18.109375 75.984375 
z
" id="DejaVuSans-98"/>
     <path d="M 8.5 21.578125 
L 8.5 54.6875 
L 17.484375 54.6875 
L 17.484375 21.921875 
Q 17.484375 14.15625 20.5 10.265625 
Q 23.53125 6.390625 29.59375 6.390625 
Q 36.859375 6.390625 41.078125 11.03125 
Q 45.3125 15.671875 45.3125 23.6875 
L 45.3125 54.6875 
L 54.296875 54.6875 
L 54.296875 0 
L 45.3125 0 
L 45.3125 8.40625 
Q 42.046875 3.421875 37.71875 1 
Q 33.40625 -1.421875 27.6875 -1.421875 
Q 18.265625 -1.421875 13.375 4.4375 
Q 8.5 10.296875 8.5 21.578125 
z
M 31.109375 56 
z
" id="DejaVuSans-117"/>
     <path d="M 48.78125 52.59375 
L 48.78125 44.1875 
Q 44.96875 46.296875 41.140625 47.34375 
Q 37.3125 48.390625 33.40625 48.390625 
Q 24.65625 48.390625 19.8125 42.84375 
Q 14.984375 37.3125 14.984375 27.296875 
Q 14.984375 17.28125 19.8125 11.734375 
Q 24.65625 6.203125 33.40625 6.203125 
Q 37.3125 6.203125 41.140625 7.25 
Q 44.96875 8.296875 48.78125 10.40625 
L 48.78125 2.09375 
Q 45.015625 0.34375 40.984375 -0.53125 
Q 36.96875 -1.421875 32.421875 -1.421875 
Q 20.0625 -1.421875 12.78125 6.34375 
Q 5.515625 14.109375 5.515625 27.296875 
Q 5.515625 40.671875 12.859375 48.328125 
Q 20.21875 56 33.015625 56 
Q 37.15625 56 41.109375 55.140625 
Q 45.0625 54.296875 48.78125 52.59375 
z
" id="DejaVuSans-99"/>
     <path d="M 18.109375 8.203125 
L 18.109375 -20.796875 
L 9.078125 -20.796875 
L 9.078125 54.6875 
L 18.109375 54.6875 
L 18.109375 46.390625 
Q 20.953125 51.265625 25.265625 53.625 
Q 29.59375 56 35.59375 56 
Q 45.5625 56 51.78125 48.09375 
Q 58.015625 40.1875 58.015625 27.296875 
Q 58.015625 14.40625 51.78125 6.484375 
Q 45.5625 -1.421875 35.59375 -1.421875 
Q 29.59375 -1.421875 25.265625 0.953125 
Q 20.953125 3.328125 18.109375 8.203125 
z
M 48.6875 27.296875 
Q 48.6875 37.203125 44.609375 42.84375 
Q 40.53125 48.484375 33.40625 48.484375 
Q 26.265625 48.484375 22.1875 42.84375 
Q 18.109375 37.203125 18.109375 27.296875 
Q 18.109375 17.390625 22.1875 11.75 
Q 26.265625 6.109375 33.40625 6.109375 
Q 40.53125 6.109375 44.609375 11.75 
Q 48.6875 17.390625 48.6875 27.296875 
z
" id="DejaVuSans-112"/>
     <path d="M 59.515625 10.40625 
L 59.515625 29.984375 
L 43.40625 29.984375 
L 43.40625 38.09375 
L 69.28125 38.09375 
L 69.28125 6.78125 
Q 63.578125 2.734375 56.6875 0.65625 
Q 49.8125 -1.421875 42 -1.421875 
Q 24.90625 -1.421875 15.25 8.5625 
Q 5.609375 18.5625 5.609375 36.375 
Q 5.609375 54.25 15.25 64.234375 
Q 24.90625 74.21875 42 74.21875 
Q 49.125 74.21875 55.546875 72.453125 
Q 61.96875 70.703125 67.390625 67.28125 
L 67.390625 56.78125 
Q 61.921875 61.421875 55.765625 63.765625 
Q 49.609375 66.109375 42.828125 66.109375 
Q 29.4375 66.109375 22.71875 58.640625 
Q 16.015625 51.171875 16.015625 36.375 
Q 16.015625 21.625 22.71875 14.15625 
Q 29.4375 6.6875 42.828125 6.6875 
Q 48.046875 6.6875 52.140625 7.59375 
Q 56.25 8.5 59.515625 10.40625 
z
" id="DejaVuSans-71"/>
     <path d="M 56.203125 29.59375 
L 56.203125 25.203125 
L 14.890625 25.203125 
Q 15.484375 15.921875 20.484375 11.0625 
Q 25.484375 6.203125 34.421875 6.203125 
Q 39.59375 6.203125 44.453125 7.46875 
Q 49.3125 8.734375 54.109375 11.28125 
L 54.109375 2.78125 
Q 49.265625 0.734375 44.1875 -0.34375 
Q 39.109375 -1.421875 33.890625 -1.421875 
Q 20.796875 -1.421875 13.15625 6.1875 
Q 5.515625 13.8125 5.515625 26.8125 
Q 5.515625 40.234375 12.765625 48.109375 
Q 20.015625 56 32.328125 56 
Q 43.359375 56 49.78125 48.890625 
Q 56.203125 41.796875 56.203125 29.59375 
z
M 47.21875 32.234375 
Q 47.125 39.59375 43.09375 43.984375 
Q 39.0625 48.390625 32.421875 48.390625 
Q 24.90625 48.390625 20.390625 44.140625 
Q 15.875 39.890625 15.1875 32.171875 
z
M 28.171875 79.984375 
L 35.40625 79.984375 
L 47.359375 61.625 
L 40.578125 61.625 
L 31.78125 73.578125 
L 23 61.625 
L 16.21875 61.625 
z
" id="DejaVuSans-234"/>
     <path d="M 54.890625 33.015625 
L 54.890625 0 
L 45.90625 0 
L 45.90625 32.71875 
Q 45.90625 40.484375 42.875 44.328125 
Q 39.84375 48.1875 33.796875 48.1875 
Q 26.515625 48.1875 22.3125 43.546875 
Q 18.109375 38.921875 18.109375 30.90625 
L 18.109375 0 
L 9.078125 0 
L 9.078125 54.6875 
L 18.109375 54.6875 
L 18.109375 46.1875 
Q 21.34375 51.125 25.703125 53.5625 
Q 30.078125 56 35.796875 56 
Q 45.21875 56 50.046875 50.171875 
Q 54.890625 44.34375 54.890625 33.015625 
z
" id="DejaVuSans-110"/>
    </defs>
    <g transform="translate(31.300234 23.4)scale(0.15 -0.15)">
     <use xlink:href="#DejaVuSans-78"/>
     <use x="74.804688" xlink:href="#DejaVuSans-250"/>
     <use x="138.183594" xlink:href="#DejaVuSans-109"/>
     <use x="235.595703" xlink:href="#DejaVuSans-101"/>
     <use x="297.119141" xlink:href="#DejaVuSans-114"/>
     <use x="338.201172" xlink:href="#DejaVuSans-111"/>
     <use x="399.382812" xlink:href="#DejaVuSans-115"/>
     <use x="451.482422" xlink:href="#DejaVuSans-32"/>
     <use x="483.269531" xlink:href="#DejaVuSans-65"/>
     <use x="551.677734" xlink:href="#DejaVuSans-98"/>
     <use x="615.154297" xlink:href="#DejaVuSans-115"/>
     <use x="667.253906" xlink:href="#DejaVuSans-111"/>
     <use x="728.435547" xlink:href="#DejaVuSans-108"/>
     <use x="756.21875" xlink:href="#DejaVuSans-117"/>
     <use x="819.597656" xlink:href="#DejaVuSans-116"/>
     <use x="858.806641" xlink:href="#DejaVuSans-111"/>
     <use x="919.988281" xlink:href="#DejaVuSans-115"/>
     <use x="972.087891" xlink:href="#DejaVuSans-32"/>
     <use x="1003.875" xlink:href="#DejaVuSans-100"/>
     <use x="1067.351562" xlink:href="#DejaVuSans-101"/>
     <use x="1128.875" xlink:href="#DejaVuSans-32"/>
     <use x="1160.662109" xlink:href="#DejaVuSans-70"/>
     <use x="1218.072266" xlink:href="#DejaVuSans-105"/>
     <use x="1245.855469" xlink:href="#DejaVuSans-108"/>
     <use x="1273.638672" xlink:href="#DejaVuSans-105"/>
     <use x="1301.421875" xlink:href="#DejaVuSans-97"/>
     <use x="1362.701172" xlink:href="#DejaVuSans-100"/>
     <use x="1426.177734" xlink:href="#DejaVuSans-111"/>
     <use x="1487.359375" xlink:href="#DejaVuSans-115"/>
     <use x="1539.458984" xlink:href="#DejaVuSans-32"/>
     <use x="1571.246094" xlink:href="#DejaVuSans-97"/>
     <use x="1632.525391" xlink:href="#DejaVuSans-32"/>
     <use x="1664.3125" xlink:href="#DejaVuSans-80"/>
     <use x="1724.552734" xlink:href="#DejaVuSans-97"/>
     <use x="1785.832031" xlink:href="#DejaVuSans-114"/>
     <use x="1826.945312" xlink:href="#DejaVuSans-116"/>
     <use x="1866.154297" xlink:href="#DejaVuSans-105"/>
     <use x="1893.9375" xlink:href="#DejaVuSans-100"/>
     <use x="1957.414062" xlink:href="#DejaVuSans-111"/>
     <use x="2018.595703" xlink:href="#DejaVuSans-115"/>
     <use x="2070.695312" xlink:href="#DejaVuSans-32"/>
     <use x="2102.482422" xlink:href="#DejaVuSans-80"/>
     <use x="2162.738281" xlink:href="#DejaVuSans-111"/>
     <use x="2223.919922" xlink:href="#DejaVuSans-108"/>
     <use x="2251.703125" xlink:href="#DejaVuSans-105"/>
     <use x="2279.486328" xlink:href="#DejaVuSans-116"/>
     <use x="2318.695312" xlink:href="#DejaVuSans-105"/>
     <use x="2346.478516" xlink:href="#DejaVuSans-99"/>
     <use x="2401.458984" xlink:href="#DejaVuSans-111"/>
     <use x="2462.640625" xlink:href="#DejaVuSans-115"/>
     <use x="2514.740234" xlink:href="#DejaVuSans-32"/>
     <use x="2546.527344" xlink:href="#DejaVuSans-112"/>
     <use x="2610.003906" xlink:href="#DejaVuSans-111"/>
     <use x="2671.185547" xlink:href="#DejaVuSans-114"/>
     <use x="2712.298828" xlink:href="#DejaVuSans-32"/>
     <use x="2744.085938" xlink:href="#DejaVuSans-71"/>
     <use x="2821.576172" xlink:href="#DejaVuSans-234"/>
     <use x="2883.099609" xlink:href="#DejaVuSans-110"/>
     <use x="2946.478516" xlink:href="#DejaVuSans-101"/>
     <use x="3008.001953" xlink:href="#DejaVuSans-114"/>
     <use x="3049.083984" xlink:href="#DejaVuSans-111"/>
    </g>
   </g>
   <g id="legend_1">
    <g id="patch_73">
     <path d="M 370.610938 333.898125 
L 448.315625 333.898125 
Q 450.315625 333.898125 450.315625 331.898125 
L 450.315625 303.541875 
Q 450.315625 301.541875 448.315625 301.541875 
L 370.610938 301.541875 
Q 368.610938 301.541875 368.610938 303.541875 
L 368.610938 331.898125 
Q 368.610938 333.898125 370.610938 333.898125 
z
" style="fill:#ffffff;opacity:0.8;stroke:#cccccc;stroke-linejoin:miter;"/>
    </g>
    <g id="patch_74">
     <path d="M 372.610938 313.140313 
L 392.610938 313.140313 
L 392.610938 306.140313 
L 372.610938 306.140313 
z
" style="fill:#ff0000;opacity:0.8;"/>
    </g>
    <g id="text_44">
     <!-- Mulheres -->
     <defs>
      <path d="M 54.890625 33.015625 
L 54.890625 0 
L 45.90625 0 
L 45.90625 32.71875 
Q 45.90625 40.484375 42.875 44.328125 
Q 39.84375 48.1875 33.796875 48.1875 
Q 26.515625 48.1875 22.3125 43.546875 
Q 18.109375 38.921875 18.109375 30.90625 
L 18.109375 0 
L 9.078125 0 
L 9.078125 75.984375 
L 18.109375 75.984375 
L 18.109375 46.1875 
Q 21.34375 51.125 25.703125 53.5625 
Q 30.078125 56 35.796875 56 
Q 45.21875 56 50.046875 50.171875 
Q 54.890625 44.34375 54.890625 33.015625 
z
" id="DejaVuSans-104"/>
     </defs>
     <g transform="translate(400.610938 313.140313)scale(0.1 -0.1)">
      <use xlink:href="#DejaVuSans-77"/>
      <use x="86.279297" xlink:href="#DejaVuSans-117"/>
      <use x="149.658203" xlink:href="#DejaVuSans-108"/>
      <use x="177.441406" xlink:href="#DejaVuSans-104"/>
      <use x="240.820312" xlink:href="#DejaVuSans-101"/>
      <use x="302.34375" xlink:href="#DejaVuSans-114"/>
      <use x="343.425781" xlink:href="#DejaVuSans-101"/>
      <use x="404.949219" xlink:href="#DejaVuSans-115"/>
     </g>
    </g>
    <g id="patch_75">
     <path d="M 372.610938 327.818438 
L 392.610938 327.818438 
L 392.610938 320.818438 
L 372.610938 320.818438 
z
" style="fill:#0000ff;opacity:0.8;"/>
    </g>
    <g id="text_45">
     <!-- Homens -->
     <g transform="translate(400.610938 327.818438)scale(0.1 -0.1)">
      <use xlink:href="#DejaVuSans-72"/>
      <use x="75.195312" xlink:href="#DejaVuSans-111"/>
      <use x="136.376953" xlink:href="#DejaVuSans-109"/>
      <use x="233.789062" xlink:href="#DejaVuSans-101"/>
      <use x="295.3125" xlink:href="#DejaVuSans-110"/>
      <use x="358.691406" xlink:href="#DejaVuSans-115"/>
     </g>
    </g>
   </g>
  </g>
 </g>
 <defs>
  <clipPath id="p85575ecc79">
   <rect height="576.64" width="381.495625" x="73.82" y="29.4"/>
  </clipPath>
 </defs>
</svg>
