<?xml version="1.0" encoding="utf-8" standalone="no"?>
<!DOCTYPE svg PUBLIC "-//W3C//DTD SVG 1.1//EN"
  "http://www.w3.org/Graphics/SVG/1.1/DTD/svg11.dtd">
<!-- Created with matplotlib (https://matplotlib.org/) -->
<svg height="648pt" version="1.1" viewBox="0 0 432 648" width="432pt" xmlns="http://www.w3.org/2000/svg" xmlns:xlink="http://www.w3.org/1999/xlink">
 <defs>
  <style type="text/css">
*{stroke-linecap:butt;stroke-linejoin:round;}
  </style>
 </defs>
 <g id="figure_1">
  <g id="patch_1">
   <path d="M 0 648 
L 432 648 
L 432 0 
L 0 0 
z
" style="fill:#ffffff;"/>
  </g>
  <g id="axes_1">
   <g id="patch_2">
    <path d="M 73.82 606.04 
L 413.28 606.04 
L 413.28 45.888 
L 73.82 45.888 
z
" style="fill:#ffffff;"/>
   </g>
   <g id="PathCollection_1">
    <path clip-path="url(#p4b1a42d603)" d="M 95.364634 584.671467 
C 96.474058 584.671467 97.538193 584.230688 98.322674 583.446207 
C 99.107155 582.661725 99.547934 581.597591 99.547934 580.488167 
C 99.547934 579.378743 99.107155 578.314608 98.322674 577.530127 
C 97.538193 576.745646 96.474058 576.304867 95.364634 576.304867 
C 94.25521 576.304867 93.191076 576.745646 92.406594 577.530127 
C 91.622113 578.314608 91.181334 579.378743 91.181334 580.488167 
C 91.181334 581.597591 91.622113 582.661725 92.406594 583.446207 
C 93.191076 584.230688 94.25521 584.671467 95.364634 584.671467 
z
" style="fill:#ff0000;fill-opacity:0.7;stroke:#ff0000;stroke-opacity:0.7;"/>
    <path clip-path="url(#p4b1a42d603)" d="M 191.178918 569.699457 
C 192.288342 569.699457 193.352476 569.258678 194.136958 568.474197 
C 194.921439 567.689716 195.362218 566.625581 195.362218 565.516157 
C 195.362218 564.406733 194.921439 563.342598 194.136958 562.558117 
C 193.352476 561.773636 192.288342 561.332857 191.178918 561.332857 
C 190.069494 561.332857 189.005359 561.773636 188.220878 562.558117 
C 187.436396 563.342598 186.995618 564.406733 186.995618 565.516157 
C 186.995618 566.625581 187.436396 567.689716 188.220878 568.474197 
C 189.005359 569.258678 190.069494 569.699457 191.178918 569.699457 
z
" style="fill:#ff0000;fill-opacity:0.7;stroke:#ff0000;stroke-opacity:0.7;"/>
    <path clip-path="url(#p4b1a42d603)" d="M 198.450114 554.727447 
C 199.559538 554.727447 200.623672 554.286668 201.408154 553.502187 
C 202.192635 552.717706 202.633414 551.653571 202.633414 550.544147 
C 202.633414 549.434723 202.192635 548.370589 201.408154 547.586107 
C 200.623672 546.801626 199.559538 546.360847 198.450114 546.360847 
C 197.34069 546.360847 196.276555 546.801626 195.492074 547.586107 
C 194.707592 548.370589 194.266814 549.434723 194.266814 550.544147 
C 194.266814 551.653571 194.707592 552.717706 195.492074 553.502187 
C 196.276555 554.286668 197.34069 554.727447 198.450114 554.727447 
z
" style="fill:#ff0000;fill-opacity:0.7;stroke:#ff0000;stroke-opacity:0.7;"/>
    <path clip-path="url(#p4b1a42d603)" d="M 199.694206 539.755437 
C 200.80363 539.755437 201.867764 539.314659 202.652246 538.530177 
C 203.436727 537.745696 203.877506 536.681562 203.877506 535.572137 
C 203.877506 534.462713 203.436727 533.398579 202.652246 532.614097 
C 201.867764 531.829616 200.80363 531.388837 199.694206 531.388837 
C 198.584782 531.388837 197.520647 531.829616 196.736166 532.614097 
C 195.951685 533.398579 195.510906 534.462713 195.510906 535.572137 
C 195.510906 536.681562 195.951685 537.745696 196.736166 538.530177 
C 197.520647 539.314659 198.584782 539.755437 199.694206 539.755437 
z
" style="fill:#ff0000;fill-opacity:0.7;stroke:#ff0000;stroke-opacity:0.7;"/>
    <path clip-path="url(#p4b1a42d603)" d="M 203.070739 524.783428 
C 204.180163 524.783428 205.244298 524.342649 206.028779 523.558167 
C 206.81326 522.773686 207.254039 521.709552 207.254039 520.600128 
C 207.254039 519.490703 206.81326 518.426569 206.028779 517.642088 
C 205.244298 516.857606 204.180163 516.416827 203.070739 516.416827 
C 201.961315 516.416827 200.897181 516.857606 200.112699 517.642088 
C 199.328218 518.426569 198.887439 519.490703 198.887439 520.600128 
C 198.887439 521.709552 199.328218 522.773686 200.112699 523.558167 
C 200.897181 524.342649 201.961315 524.783428 203.070739 524.783428 
z
" style="fill:#ff0000;fill-opacity:0.7;stroke:#ff0000;stroke-opacity:0.7;"/>
    <path clip-path="url(#p4b1a42d603)" d="M 207.8467 509.811418 
C 208.956124 509.811418 210.020258 509.370639 210.80474 508.586158 
C 211.589221 507.801676 212.03 506.737542 212.03 505.628118 
C 212.03 504.518694 211.589221 503.454559 210.80474 502.670078 
C 210.020258 501.885596 208.956124 501.444818 207.8467 501.444818 
C 206.737276 501.444818 205.673141 501.885596 204.88866 502.670078 
C 204.104178 503.454559 203.6634 504.518694 203.6634 505.628118 
C 203.6634 506.737542 204.104178 507.801676 204.88866 508.586158 
C 205.673141 509.370639 206.737276 509.811418 207.8467 509.811418 
z
" style="fill:#ff0000;fill-opacity:0.7;stroke:#ff0000;stroke-opacity:0.7;"/>
    <path clip-path="url(#p4b1a42d603)" d="M 208.642151 494.839408 
C 209.751575 494.839408 210.81571 494.398629 211.600191 493.614148 
C 212.384672 492.829666 212.825451 491.765532 212.825451 490.656108 
C 212.825451 489.546684 212.384672 488.482549 211.600191 487.698068 
C 210.81571 486.913587 209.751575 486.472808 208.642151 486.472808 
C 207.532727 486.472808 206.468593 486.913587 205.684111 487.698068 
C 204.89963 488.482549 204.458851 489.546684 204.458851 490.656108 
C 204.458851 491.765532 204.89963 492.829666 205.684111 493.614148 
C 206.468593 494.398629 207.532727 494.839408 208.642151 494.839408 
z
" style="fill:#ff0000;fill-opacity:0.7;stroke:#ff0000;stroke-opacity:0.7;"/>
    <path clip-path="url(#p4b1a42d603)" d="M 208.848401 479.867398 
C 209.957825 479.867398 211.02196 479.426619 211.806441 478.642138 
C 212.590922 477.857657 213.031701 476.793522 213.031701 475.684098 
C 213.031701 474.574674 212.590922 473.51054 211.806441 472.726058 
C 211.02196 471.941577 209.957825 471.500798 208.848401 471.500798 
C 207.738977 471.500798 206.674843 471.941577 205.890361 472.726058 
C 205.10588 473.51054 204.665101 474.574674 204.665101 475.684098 
C 204.665101 476.793522 205.10588 477.857657 205.890361 478.642138 
C 206.674843 479.426619 207.738977 479.867398 208.848401 479.867398 
z
" style="fill:#ff0000;fill-opacity:0.7;stroke:#ff0000;stroke-opacity:0.7;"/>
    <path clip-path="url(#p4b1a42d603)" d="M 209.765707 464.895388 
C 210.875131 464.895388 211.939265 464.45461 212.723747 463.670128 
C 213.508228 462.885647 213.949007 461.821512 213.949007 460.712088 
C 213.949007 459.602664 213.508228 458.53853 212.723747 457.754048 
C 211.939265 456.969567 210.875131 456.528788 209.765707 456.528788 
C 208.656283 456.528788 207.592148 456.969567 206.807667 457.754048 
C 206.023186 458.53853 205.582407 459.602664 205.582407 460.712088 
C 205.582407 461.821512 206.023186 462.885647 206.807667 463.670128 
C 207.592148 464.45461 208.656283 464.895388 209.765707 464.895388 
z
" style="fill:#ff0000;fill-opacity:0.7;stroke:#ff0000;stroke-opacity:0.7;"/>
    <path clip-path="url(#p4b1a42d603)" d="M 213.102312 449.923379 
C 214.211736 449.923379 215.27587 449.4826 216.060352 448.698118 
C 216.844833 447.913637 217.285612 446.849503 217.285612 445.740078 
C 217.285612 444.630654 216.844833 443.56652 216.060352 442.782039 
C 215.27587 441.997557 214.211736 441.556778 213.102312 441.556778 
C 211.992888 441.556778 210.928753 441.997557 210.144272 442.782039 
C 209.35979 443.56652 208.919012 444.630654 208.919012 445.740078 
C 208.919012 446.849503 209.35979 447.913637 210.144272 448.698118 
C 210.928753 449.4826 211.992888 449.923379 213.102312 449.923379 
z
" style="fill:#ff0000;fill-opacity:0.7;stroke:#ff0000;stroke-opacity:0.7;"/>
    <path clip-path="url(#p4b1a42d603)" d="M 215.022142 434.951369 
C 216.131566 434.951369 217.195701 434.51059 217.980182 433.726109 
C 218.764663 432.941627 219.205442 431.877493 219.205442 430.768069 
C 219.205442 429.658645 218.764663 428.59451 217.980182 427.810029 
C 217.195701 427.025547 216.131566 426.584769 215.022142 426.584769 
C 213.912718 426.584769 212.848584 427.025547 212.064102 427.810029 
C 211.279621 428.59451 210.838842 429.658645 210.838842 430.768069 
C 210.838842 431.877493 211.279621 432.941627 212.064102 433.726109 
C 212.848584 434.51059 213.912718 434.951369 215.022142 434.951369 
z
" style="fill:#ff0000;fill-opacity:0.7;stroke:#ff0000;stroke-opacity:0.7;"/>
    <path clip-path="url(#p4b1a42d603)" d="M 215.823986 419.979359 
C 216.933411 419.979359 217.997545 419.53858 218.782026 418.754099 
C 219.566508 417.969617 220.007287 416.905483 220.007287 415.796059 
C 220.007287 414.686635 219.566508 413.6225 218.782026 412.838019 
C 217.997545 412.053538 216.933411 411.612759 215.823986 411.612759 
C 214.714562 411.612759 213.650428 412.053538 212.865947 412.838019 
C 212.081465 413.6225 211.640686 414.686635 211.640686 415.796059 
C 211.640686 416.905483 212.081465 417.969617 212.865947 418.754099 
C 213.650428 419.53858 214.714562 419.979359 215.823986 419.979359 
z
" style="fill:#ff0000;fill-opacity:0.7;stroke:#ff0000;stroke-opacity:0.7;"/>
    <path clip-path="url(#p4b1a42d603)" d="M 215.908653 405.007349 
C 217.018077 405.007349 218.082212 404.56657 218.866693 403.782089 
C 219.651174 402.997608 220.091953 401.933473 220.091953 400.824049 
C 220.091953 399.714625 219.651174 398.650491 218.866693 397.866009 
C 218.082212 397.081528 217.018077 396.640749 215.908653 396.640749 
C 214.799229 396.640749 213.735095 397.081528 212.950613 397.866009 
C 212.166132 398.650491 211.725353 399.714625 211.725353 400.824049 
C 211.725353 401.933473 212.166132 402.997608 212.950613 403.782089 
C 213.735095 404.56657 214.799229 405.007349 215.908653 405.007349 
z
" style="fill:#ff0000;fill-opacity:0.7;stroke:#ff0000;stroke-opacity:0.7;"/>
    <path clip-path="url(#p4b1a42d603)" d="M 217.386527 390.035339 
C 218.495951 390.035339 219.560085 389.59456 220.344567 388.810079 
C 221.129048 388.025598 221.569827 386.961463 221.569827 385.852039 
C 221.569827 384.742615 221.129048 383.678481 220.344567 382.893999 
C 219.560085 382.109518 218.495951 381.668739 217.386527 381.668739 
C 216.277103 381.668739 215.212968 382.109518 214.428487 382.893999 
C 213.644006 383.678481 213.203227 384.742615 213.203227 385.852039 
C 213.203227 386.961463 213.644006 388.025598 214.428487 388.810079 
C 215.212968 389.59456 216.277103 390.035339 217.386527 390.035339 
z
" style="fill:#ff0000;fill-opacity:0.7;stroke:#ff0000;stroke-opacity:0.7;"/>
    <path clip-path="url(#p4b1a42d603)" d="M 217.502652 375.06333 
C 218.612076 375.06333 219.676211 374.622551 220.460692 373.838069 
C 221.245173 373.053588 221.685952 371.989454 221.685952 370.880029 
C 221.685952 369.770605 221.245173 368.706471 220.460692 367.92199 
C 219.676211 367.137508 218.612076 366.696729 217.502652 366.696729 
C 216.393228 366.696729 215.329094 367.137508 214.544612 367.92199 
C 213.760131 368.706471 213.319352 369.770605 213.319352 370.880029 
C 213.319352 371.989454 213.760131 373.053588 214.544612 373.838069 
C 215.329094 374.622551 216.393228 375.06333 217.502652 375.06333 
z
" style="fill:#ff0000;fill-opacity:0.7;stroke:#ff0000;stroke-opacity:0.7;"/>
    <path clip-path="url(#p4b1a42d603)" d="M 218.699363 360.09132 
C 219.808787 360.09132 220.872922 359.650541 221.657403 358.86606 
C 222.441884 358.081578 222.882663 357.017444 222.882663 355.90802 
C 222.882663 354.798595 222.441884 353.734461 221.657403 352.94998 
C 220.872922 352.165498 219.808787 351.724719 218.699363 351.724719 
C 217.589939 351.724719 216.525804 352.165498 215.741323 352.94998 
C 214.956842 353.734461 214.516063 354.798595 214.516063 355.90802 
C 214.516063 357.017444 214.956842 358.081578 215.741323 358.86606 
C 216.525804 359.650541 217.589939 360.09132 218.699363 360.09132 
z
" style="fill:#ff0000;fill-opacity:0.7;stroke:#ff0000;stroke-opacity:0.7;"/>
    <path clip-path="url(#p4b1a42d603)" d="M 219.148538 345.11931 
C 220.257962 345.11931 221.322097 344.678531 222.106578 343.89405 
C 222.891059 343.109568 223.331838 342.045434 223.331838 340.93601 
C 223.331838 339.826586 222.891059 338.762451 222.106578 337.97797 
C 221.322097 337.193489 220.257962 336.75271 219.148538 336.75271 
C 218.039114 336.75271 216.974979 337.193489 216.190498 337.97797 
C 215.406017 338.762451 214.965238 339.826586 214.965238 340.93601 
C 214.965238 342.045434 215.406017 343.109568 216.190498 343.89405 
C 216.974979 344.678531 218.039114 345.11931 219.148538 345.11931 
z
" style="fill:#ff0000;fill-opacity:0.7;stroke:#ff0000;stroke-opacity:0.7;"/>
    <path clip-path="url(#p4b1a42d603)" d="M 220.740624 330.1473 
C 221.850048 330.1473 222.914183 329.706521 223.698664 328.92204 
C 224.483145 328.137559 224.923924 327.073424 224.923924 325.964 
C 224.923924 324.854576 224.483145 323.790441 223.698664 323.00596 
C 222.914183 322.221479 221.850048 321.7807 220.740624 321.7807 
C 219.6312 321.7807 218.567066 322.221479 217.782584 323.00596 
C 216.998103 323.790441 216.557324 324.854576 216.557324 325.964 
C 216.557324 327.073424 216.998103 328.137559 217.782584 328.92204 
C 218.567066 329.706521 219.6312 330.1473 220.740624 330.1473 
z
" style="fill:#ff0000;fill-opacity:0.7;stroke:#ff0000;stroke-opacity:0.7;"/>
    <path clip-path="url(#p4b1a42d603)" d="M 220.756954 315.17529 
C 221.866378 315.17529 222.930513 314.734511 223.714994 313.95003 
C 224.499475 313.165549 224.940254 312.101414 224.940254 310.99199 
C 224.940254 309.882566 224.499475 308.818432 223.714994 308.03395 
C 222.930513 307.249469 221.866378 306.80869 220.756954 306.80869 
C 219.64753 306.80869 218.583395 307.249469 217.798914 308.03395 
C 217.014433 308.818432 216.573654 309.882566 216.573654 310.99199 
C 216.573654 312.101414 217.014433 313.165549 217.798914 313.95003 
C 218.583395 314.734511 219.64753 315.17529 220.756954 315.17529 
z
" style="fill:#ff0000;fill-opacity:0.7;stroke:#ff0000;stroke-opacity:0.7;"/>
    <path clip-path="url(#p4b1a42d603)" d="M 220.912488 300.203281 
C 222.021912 300.203281 223.086047 299.762502 223.870528 298.97802 
C 224.655009 298.193539 225.095788 297.129405 225.095788 296.01998 
C 225.095788 294.910556 224.655009 293.846422 223.870528 293.06194 
C 223.086047 292.277459 222.021912 291.83668 220.912488 291.83668 
C 219.803064 291.83668 218.73893 292.277459 217.954448 293.06194 
C 217.169967 293.846422 216.729188 294.910556 216.729188 296.01998 
C 216.729188 297.129405 217.169967 298.193539 217.954448 298.97802 
C 218.73893 299.762502 219.803064 300.203281 220.912488 300.203281 
z
" style="fill:#ff0000;fill-opacity:0.7;stroke:#ff0000;stroke-opacity:0.7;"/>
    <path clip-path="url(#p4b1a42d603)" d="M 220.975767 285.231271 
C 222.085191 285.231271 223.149326 284.790492 223.933807 284.00601 
C 224.718288 283.221529 225.159067 282.157395 225.159067 281.047971 
C 225.159067 279.938546 224.718288 278.874412 223.933807 278.089931 
C 223.149326 277.305449 222.085191 276.86467 220.975767 276.86467 
C 219.866343 276.86467 218.802209 277.305449 218.017727 278.089931 
C 217.233246 278.874412 216.792467 279.938546 216.792467 281.047971 
C 216.792467 282.157395 217.233246 283.221529 218.017727 284.00601 
C 218.802209 284.790492 219.866343 285.231271 220.975767 285.231271 
z
" style="fill:#ff0000;fill-opacity:0.7;stroke:#ff0000;stroke-opacity:0.7;"/>
    <path clip-path="url(#p4b1a42d603)" d="M 221.28927 270.259261 
C 222.398694 270.259261 223.462828 269.818482 224.247309 269.034001 
C 225.031791 268.249519 225.47257 267.185385 225.47257 266.075961 
C 225.47257 264.966537 225.031791 263.902402 224.247309 263.117921 
C 223.462828 262.33344 222.398694 261.892661 221.28927 261.892661 
C 220.179845 261.892661 219.115711 262.33344 218.33123 263.117921 
C 217.546748 263.902402 217.105969 264.966537 217.105969 266.075961 
C 217.105969 267.185385 217.546748 268.249519 218.33123 269.034001 
C 219.115711 269.818482 220.179845 270.259261 221.28927 270.259261 
z
" style="fill:#ff0000;fill-opacity:0.7;stroke:#ff0000;stroke-opacity:0.7;"/>
    <path clip-path="url(#p4b1a42d603)" d="M 221.340262 255.287251 
C 222.449686 255.287251 223.51382 254.846472 224.298302 254.061991 
C 225.082783 253.277509 225.523562 252.213375 225.523562 251.103951 
C 225.523562 249.994527 225.082783 248.930392 224.298302 248.145911 
C 223.51382 247.36143 222.449686 246.920651 221.340262 246.920651 
C 220.230838 246.920651 219.166703 247.36143 218.382222 248.145911 
C 217.597741 248.930392 217.156962 249.994527 217.156962 251.103951 
C 217.156962 252.213375 217.597741 253.277509 218.382222 254.061991 
C 219.166703 254.846472 220.230838 255.287251 221.340262 255.287251 
z
" style="fill:#ff0000;fill-opacity:0.7;stroke:#ff0000;stroke-opacity:0.7;"/>
    <path clip-path="url(#p4b1a42d603)" d="M 221.810261 240.315241 
C 222.919685 240.315241 223.98382 239.874462 224.768301 239.089981 
C 225.552782 238.3055 225.993561 237.241365 225.993561 236.131941 
C 225.993561 235.022517 225.552782 233.958383 224.768301 233.173901 
C 223.98382 232.38942 222.919685 231.948641 221.810261 231.948641 
C 220.700837 231.948641 219.636702 232.38942 218.852221 233.173901 
C 218.06774 233.958383 217.626961 235.022517 217.626961 236.131941 
C 217.626961 237.241365 218.06774 238.3055 218.852221 239.089981 
C 219.636702 239.874462 220.700837 240.315241 221.810261 240.315241 
z
" style="fill:#ff0000;fill-opacity:0.7;stroke:#ff0000;stroke-opacity:0.7;"/>
    <path clip-path="url(#p4b1a42d603)" d="M 221.95846 225.343231 
C 223.067885 225.343231 224.132019 224.902453 224.9165 224.117971 
C 225.700982 223.33349 226.141761 222.269355 226.141761 221.159931 
C 226.141761 220.050507 225.700982 218.986373 224.9165 218.201891 
C 224.132019 217.41741 223.067885 216.976631 221.95846 216.976631 
C 220.849036 216.976631 219.784902 217.41741 219.000421 218.201891 
C 218.215939 218.986373 217.77516 220.050507 217.77516 221.159931 
C 217.77516 222.269355 218.215939 223.33349 219.000421 224.117971 
C 219.784902 224.902453 220.849036 225.343231 221.95846 225.343231 
z
" style="fill:#ff0000;fill-opacity:0.7;stroke:#ff0000;stroke-opacity:0.7;"/>
    <path clip-path="url(#p4b1a42d603)" d="M 222.579143 210.371222 
C 223.688567 210.371222 224.752701 209.930443 225.537183 209.145961 
C 226.321664 208.36148 226.762443 207.297346 226.762443 206.187922 
C 226.762443 205.078497 226.321664 204.014363 225.537183 203.229882 
C 224.752701 202.4454 223.688567 202.004621 222.579143 202.004621 
C 221.469719 202.004621 220.405584 202.4454 219.621103 203.229882 
C 218.836622 204.014363 218.395843 205.078497 218.395843 206.187922 
C 218.395843 207.297346 218.836622 208.36148 219.621103 209.145961 
C 220.405584 209.930443 221.469719 210.371222 222.579143 210.371222 
z
" style="fill:#ff0000;fill-opacity:0.7;stroke:#ff0000;stroke-opacity:0.7;"/>
    <path clip-path="url(#p4b1a42d603)" d="M 222.630505 195.399212 
C 223.739929 195.399212 224.804064 194.958433 225.588545 194.173952 
C 226.373026 193.38947 226.813805 192.325336 226.813805 191.215912 
C 226.813805 190.106488 226.373026 189.042353 225.588545 188.257872 
C 224.804064 187.47339 223.739929 187.032612 222.630505 187.032612 
C 221.521081 187.032612 220.456947 187.47339 219.672465 188.257872 
C 218.887984 189.042353 218.447205 190.106488 218.447205 191.215912 
C 218.447205 192.325336 218.887984 193.38947 219.672465 194.173952 
C 220.456947 194.958433 221.521081 195.399212 222.630505 195.399212 
z
" style="fill:#ff0000;fill-opacity:0.7;stroke:#ff0000;stroke-opacity:0.7;"/>
    <path clip-path="url(#p4b1a42d603)" d="M 222.994881 180.427202 
C 224.104305 180.427202 225.168439 179.986423 225.952921 179.201942 
C 226.737402 178.41746 227.178181 177.353326 227.178181 176.243902 
C 227.178181 175.134478 226.737402 174.070343 225.952921 173.285862 
C 225.168439 172.501381 224.104305 172.060602 222.994881 172.060602 
C 221.885456 172.060602 220.821322 172.501381 220.036841 173.285862 
C 219.252359 174.070343 218.811581 175.134478 218.811581 176.243902 
C 218.811581 177.353326 219.252359 178.41746 220.036841 179.201942 
C 220.821322 179.986423 221.885456 180.427202 222.994881 180.427202 
z
" style="fill:#ff0000;fill-opacity:0.7;stroke:#ff0000;stroke-opacity:0.7;"/>
    <path clip-path="url(#p4b1a42d603)" d="M 223.002447 165.455192 
C 224.111871 165.455192 225.176005 165.014413 225.960487 164.229932 
C 226.744968 163.445451 227.185747 162.381316 227.185747 161.271892 
C 227.185747 160.162468 226.744968 159.098334 225.960487 158.313852 
C 225.176005 157.529371 224.111871 157.088592 223.002447 157.088592 
C 221.893023 157.088592 220.828888 157.529371 220.044407 158.313852 
C 219.259926 159.098334 218.819147 160.162468 218.819147 161.271892 
C 218.819147 162.381316 219.259926 163.445451 220.044407 164.229932 
C 220.828888 165.014413 221.893023 165.455192 223.002447 165.455192 
z
" style="fill:#ff0000;fill-opacity:0.7;stroke:#ff0000;stroke-opacity:0.7;"/>
    <path clip-path="url(#p4b1a42d603)" d="M 223.469142 150.483182 
C 224.578566 150.483182 225.642701 150.042404 226.427182 149.257922 
C 227.211663 148.473441 227.652442 147.409306 227.652442 146.299882 
C 227.652442 145.190458 227.211663 144.126324 226.427182 143.341842 
C 225.642701 142.557361 224.578566 142.116582 223.469142 142.116582 
C 222.359718 142.116582 221.295584 142.557361 220.511102 143.341842 
C 219.726621 144.126324 219.285842 145.190458 219.285842 146.299882 
C 219.285842 147.409306 219.726621 148.473441 220.511102 149.257922 
C 221.295584 150.042404 222.359718 150.483182 223.469142 150.483182 
z
" style="fill:#ff0000;fill-opacity:0.7;stroke:#ff0000;stroke-opacity:0.7;"/>
    <path clip-path="url(#p4b1a42d603)" d="M 223.850082 135.511173 
C 224.959507 135.511173 226.023641 135.070394 226.808122 134.285912 
C 227.592604 133.501431 228.033383 132.437297 228.033383 131.327872 
C 228.033383 130.218448 227.592604 129.154314 226.808122 128.369833 
C 226.023641 127.585351 224.959507 127.144572 223.850082 127.144572 
C 222.740658 127.144572 221.676524 127.585351 220.892043 128.369833 
C 220.107561 129.154314 219.666782 130.218448 219.666782 131.327872 
C 219.666782 132.437297 220.107561 133.501431 220.892043 134.285912 
C 221.676524 135.070394 222.740658 135.511173 223.850082 135.511173 
z
" style="fill:#ff0000;fill-opacity:0.7;stroke:#ff0000;stroke-opacity:0.7;"/>
    <path clip-path="url(#p4b1a42d603)" d="M 225.749518 120.539163 
C 226.858942 120.539163 227.923077 120.098384 228.707558 119.313903 
C 229.492039 118.529421 229.932818 117.465287 229.932818 116.355863 
C 229.932818 115.246438 229.492039 114.182304 228.707558 113.397823 
C 227.923077 112.613341 226.858942 112.172563 225.749518 112.172563 
C 224.640094 112.172563 223.57596 112.613341 222.791478 113.397823 
C 222.006997 114.182304 221.566218 115.246438 221.566218 116.355863 
C 221.566218 117.465287 222.006997 118.529421 222.791478 119.313903 
C 223.57596 120.098384 224.640094 120.539163 225.749518 120.539163 
z
" style="fill:#ff0000;fill-opacity:0.7;stroke:#ff0000;stroke-opacity:0.7;"/>
    <path clip-path="url(#p4b1a42d603)" d="M 226.272977 105.567153 
C 227.382401 105.567153 228.446536 105.126374 229.231017 104.341893 
C 230.015498 103.557411 230.456277 102.493277 230.456277 101.383853 
C 230.456277 100.274429 230.015498 99.210294 229.231017 98.425813 
C 228.446536 97.641332 227.382401 97.200553 226.272977 97.200553 
C 225.163553 97.200553 224.099418 97.641332 223.314937 98.425813 
C 222.530456 99.210294 222.089677 100.274429 222.089677 101.383853 
C 222.089677 102.493277 222.530456 103.557411 223.314937 104.341893 
C 224.099418 105.126374 225.163553 105.567153 226.272977 105.567153 
z
" style="fill:#ff0000;fill-opacity:0.7;stroke:#ff0000;stroke-opacity:0.7;"/>
    <path clip-path="url(#p4b1a42d603)" d="M 249.442097 90.595143 
C 250.551521 90.595143 251.615655 90.154364 252.400136 89.369883 
C 253.184618 88.585402 253.625397 87.521267 253.625397 86.411843 
C 253.625397 85.302419 253.184618 84.238284 252.400136 83.453803 
C 251.615655 82.669322 250.551521 82.228543 249.442097 82.228543 
C 248.332672 82.228543 247.268538 82.669322 246.484057 83.453803 
C 245.699575 84.238284 245.258796 85.302419 245.258796 86.411843 
C 245.258796 87.521267 245.699575 88.585402 246.484057 89.369883 
C 247.268538 90.154364 248.332672 90.595143 249.442097 90.595143 
z
" style="fill:#ff0000;fill-opacity:0.7;stroke:#ff0000;stroke-opacity:0.7;"/>
    <path clip-path="url(#p4b1a42d603)" d="M 265.465508 75.623133 
C 266.574932 75.623133 267.639066 75.182354 268.423547 74.397873 
C 269.208029 73.613392 269.648808 72.549257 269.648808 71.439833 
C 269.648808 70.330409 269.208029 69.266275 268.423547 68.481793 
C 267.639066 67.697312 266.574932 67.256533 265.465508 67.256533 
C 264.356083 67.256533 263.291949 67.697312 262.507468 68.481793 
C 261.722986 69.266275 261.282207 70.330409 261.282207 71.439833 
C 261.282207 72.549257 261.722986 73.613392 262.507468 74.397873 
C 263.291949 75.182354 264.356083 75.623133 265.465508 75.623133 
z
" style="fill:#ff0000;fill-opacity:0.7;stroke:#ff0000;stroke-opacity:0.7;"/>
   </g>
   <g id="matplotlib.axis_1">
    <g id="xtick_1">
     <g id="line2d_1">
      <defs>
       <path d="M 0 0 
L 0 3.5 
" id="mc94ae6a979" style="stroke:#000000;stroke-width:0.8;"/>
      </defs>
      <g>
       <use style="stroke:#000000;stroke-width:0.8;" x="73.82" xlink:href="#mc94ae6a979" y="606.04"/>
      </g>
     </g>
     <g id="text_1">
      <!-- 0.1 -->
      <defs>
       <path d="M 31.78125 66.40625 
Q 24.171875 66.40625 20.328125 58.90625 
Q 16.5 51.421875 16.5 36.375 
Q 16.5 21.390625 20.328125 13.890625 
Q 24.171875 6.390625 31.78125 6.390625 
Q 39.453125 6.390625 43.28125 13.890625 
Q 47.125 21.390625 47.125 36.375 
Q 47.125 51.421875 43.28125 58.90625 
Q 39.453125 66.40625 31.78125 66.40625 
z
M 31.78125 74.21875 
Q 44.046875 74.21875 50.515625 64.515625 
Q 56.984375 54.828125 56.984375 36.375 
Q 56.984375 17.96875 50.515625 8.265625 
Q 44.046875 -1.421875 31.78125 -1.421875 
Q 19.53125 -1.421875 13.0625 8.265625 
Q 6.59375 17.96875 6.59375 36.375 
Q 6.59375 54.828125 13.0625 64.515625 
Q 19.53125 74.21875 31.78125 74.21875 
z
" id="DejaVuSans-48"/>
       <path d="M 10.6875 12.40625 
L 21 12.40625 
L 21 0 
L 10.6875 0 
z
" id="DejaVuSans-46"/>
       <path d="M 12.40625 8.296875 
L 28.515625 8.296875 
L 28.515625 63.921875 
L 10.984375 60.40625 
L 10.984375 69.390625 
L 28.421875 72.90625 
L 38.28125 72.90625 
L 38.28125 8.296875 
L 54.390625 8.296875 
L 54.390625 0 
L 12.40625 0 
z
" id="DejaVuSans-49"/>
      </defs>
      <g transform="translate(65.868438 620.638438)scale(0.1 -0.1)">
       <use xlink:href="#DejaVuSans-48"/>
       <use x="63.623047" xlink:href="#DejaVuSans-46"/>
       <use x="95.410156" xlink:href="#DejaVuSans-49"/>
      </g>
     </g>
    </g>
    <g id="xtick_2">
     <g id="line2d_2">
      <g>
       <use style="stroke:#000000;stroke-width:0.8;" x="116.2525" xlink:href="#mc94ae6a979" y="606.04"/>
      </g>
     </g>
     <g id="text_2">
      <!-- 0.2 -->
      <defs>
       <path d="M 19.1875 8.296875 
L 53.609375 8.296875 
L 53.609375 0 
L 7.328125 0 
L 7.328125 8.296875 
Q 12.9375 14.109375 22.625 23.890625 
Q 32.328125 33.6875 34.8125 36.53125 
Q 39.546875 41.84375 41.421875 45.53125 
Q 43.3125 49.21875 43.3125 52.78125 
Q 43.3125 58.59375 39.234375 62.25 
Q 35.15625 65.921875 28.609375 65.921875 
Q 23.96875 65.921875 18.8125 64.3125 
Q 13.671875 62.703125 7.8125 59.421875 
L 7.8125 69.390625 
Q 13.765625 71.78125 18.9375 73 
Q 24.125 74.21875 28.421875 74.21875 
Q 39.75 74.21875 46.484375 68.546875 
Q 53.21875 62.890625 53.21875 53.421875 
Q 53.21875 48.921875 51.53125 44.890625 
Q 49.859375 40.875 45.40625 35.40625 
Q 44.1875 33.984375 37.640625 27.21875 
Q 31.109375 20.453125 19.1875 8.296875 
z
" id="DejaVuSans-50"/>
      </defs>
      <g transform="translate(108.300938 620.638438)scale(0.1 -0.1)">
       <use xlink:href="#DejaVuSans-48"/>
       <use x="63.623047" xlink:href="#DejaVuSans-46"/>
       <use x="95.410156" xlink:href="#DejaVuSans-50"/>
      </g>
     </g>
    </g>
    <g id="xtick_3">
     <g id="line2d_3">
      <g>
       <use style="stroke:#000000;stroke-width:0.8;" x="158.685" xlink:href="#mc94ae6a979" y="606.04"/>
      </g>
     </g>
     <g id="text_3">
      <!-- 0.3 -->
      <defs>
       <path d="M 40.578125 39.3125 
Q 47.65625 37.796875 51.625 33 
Q 55.609375 28.21875 55.609375 21.1875 
Q 55.609375 10.40625 48.1875 4.484375 
Q 40.765625 -1.421875 27.09375 -1.421875 
Q 22.515625 -1.421875 17.65625 -0.515625 
Q 12.796875 0.390625 7.625 2.203125 
L 7.625 11.71875 
Q 11.71875 9.328125 16.59375 8.109375 
Q 21.484375 6.890625 26.8125 6.890625 
Q 36.078125 6.890625 40.9375 10.546875 
Q 45.796875 14.203125 45.796875 21.1875 
Q 45.796875 27.640625 41.28125 31.265625 
Q 36.765625 34.90625 28.71875 34.90625 
L 20.21875 34.90625 
L 20.21875 43.015625 
L 29.109375 43.015625 
Q 36.375 43.015625 40.234375 45.921875 
Q 44.09375 48.828125 44.09375 54.296875 
Q 44.09375 59.90625 40.109375 62.90625 
Q 36.140625 65.921875 28.71875 65.921875 
Q 24.65625 65.921875 20.015625 65.03125 
Q 15.375 64.15625 9.8125 62.3125 
L 9.8125 71.09375 
Q 15.4375 72.65625 20.34375 73.4375 
Q 25.25 74.21875 29.59375 74.21875 
Q 40.828125 74.21875 47.359375 69.109375 
Q 53.90625 64.015625 53.90625 55.328125 
Q 53.90625 49.265625 50.4375 45.09375 
Q 46.96875 40.921875 40.578125 39.3125 
z
" id="DejaVuSans-51"/>
      </defs>
      <g transform="translate(150.733438 620.638438)scale(0.1 -0.1)">
       <use xlink:href="#DejaVuSans-48"/>
       <use x="63.623047" xlink:href="#DejaVuSans-46"/>
       <use x="95.410156" xlink:href="#DejaVuSans-51"/>
      </g>
     </g>
    </g>
    <g id="xtick_4">
     <g id="line2d_4">
      <g>
       <use style="stroke:#000000;stroke-width:0.8;" x="201.1175" xlink:href="#mc94ae6a979" y="606.04"/>
      </g>
     </g>
     <g id="text_4">
      <!-- 0.4 -->
      <defs>
       <path d="M 37.796875 64.3125 
L 12.890625 25.390625 
L 37.796875 25.390625 
z
M 35.203125 72.90625 
L 47.609375 72.90625 
L 47.609375 25.390625 
L 58.015625 25.390625 
L 58.015625 17.1875 
L 47.609375 17.1875 
L 47.609375 0 
L 37.796875 0 
L 37.796875 17.1875 
L 4.890625 17.1875 
L 4.890625 26.703125 
z
" id="DejaVuSans-52"/>
      </defs>
      <g transform="translate(193.165938 620.638438)scale(0.1 -0.1)">
       <use xlink:href="#DejaVuSans-48"/>
       <use x="63.623047" xlink:href="#DejaVuSans-46"/>
       <use x="95.410156" xlink:href="#DejaVuSans-52"/>
      </g>
     </g>
    </g>
    <g id="xtick_5">
     <g id="line2d_5">
      <g>
       <use style="stroke:#000000;stroke-width:0.8;" x="243.55" xlink:href="#mc94ae6a979" y="606.04"/>
      </g>
     </g>
     <g id="text_5">
      <!-- 0.5 -->
      <defs>
       <path d="M 10.796875 72.90625 
L 49.515625 72.90625 
L 49.515625 64.59375 
L 19.828125 64.59375 
L 19.828125 46.734375 
Q 21.96875 47.46875 24.109375 47.828125 
Q 26.265625 48.1875 28.421875 48.1875 
Q 40.625 48.1875 47.75 41.5 
Q 54.890625 34.8125 54.890625 23.390625 
Q 54.890625 11.625 47.5625 5.09375 
Q 40.234375 -1.421875 26.90625 -1.421875 
Q 22.3125 -1.421875 17.546875 -0.640625 
Q 12.796875 0.140625 7.71875 1.703125 
L 7.71875 11.625 
Q 12.109375 9.234375 16.796875 8.0625 
Q 21.484375 6.890625 26.703125 6.890625 
Q 35.15625 6.890625 40.078125 11.328125 
Q 45.015625 15.765625 45.015625 23.390625 
Q 45.015625 31 40.078125 35.4375 
Q 35.15625 39.890625 26.703125 39.890625 
Q 22.75 39.890625 18.8125 39.015625 
Q 14.890625 38.140625 10.796875 36.28125 
z
" id="DejaVuSans-53"/>
      </defs>
      <g transform="translate(235.598438 620.638438)scale(0.1 -0.1)">
       <use xlink:href="#DejaVuSans-48"/>
       <use x="63.623047" xlink:href="#DejaVuSans-46"/>
       <use x="95.410156" xlink:href="#DejaVuSans-53"/>
      </g>
     </g>
    </g>
    <g id="xtick_6">
     <g id="line2d_6">
      <g>
       <use style="stroke:#000000;stroke-width:0.8;" x="285.9825" xlink:href="#mc94ae6a979" y="606.04"/>
      </g>
     </g>
     <g id="text_6">
      <!-- 0.6 -->
      <defs>
       <path d="M 33.015625 40.375 
Q 26.375 40.375 22.484375 35.828125 
Q 18.609375 31.296875 18.609375 23.390625 
Q 18.609375 15.53125 22.484375 10.953125 
Q 26.375 6.390625 33.015625 6.390625 
Q 39.65625 6.390625 43.53125 10.953125 
Q 47.40625 15.53125 47.40625 23.390625 
Q 47.40625 31.296875 43.53125 35.828125 
Q 39.65625 40.375 33.015625 40.375 
z
M 52.59375 71.296875 
L 52.59375 62.3125 
Q 48.875 64.0625 45.09375 64.984375 
Q 41.3125 65.921875 37.59375 65.921875 
Q 27.828125 65.921875 22.671875 59.328125 
Q 17.53125 52.734375 16.796875 39.40625 
Q 19.671875 43.65625 24.015625 45.921875 
Q 28.375 48.1875 33.59375 48.1875 
Q 44.578125 48.1875 50.953125 41.515625 
Q 57.328125 34.859375 57.328125 23.390625 
Q 57.328125 12.15625 50.6875 5.359375 
Q 44.046875 -1.421875 33.015625 -1.421875 
Q 20.359375 -1.421875 13.671875 8.265625 
Q 6.984375 17.96875 6.984375 36.375 
Q 6.984375 53.65625 15.1875 63.9375 
Q 23.390625 74.21875 37.203125 74.21875 
Q 40.921875 74.21875 44.703125 73.484375 
Q 48.484375 72.75 52.59375 71.296875 
z
" id="DejaVuSans-54"/>
      </defs>
      <g transform="translate(278.030937 620.638438)scale(0.1 -0.1)">
       <use xlink:href="#DejaVuSans-48"/>
       <use x="63.623047" xlink:href="#DejaVuSans-46"/>
       <use x="95.410156" xlink:href="#DejaVuSans-54"/>
      </g>
     </g>
    </g>
    <g id="xtick_7">
     <g id="line2d_7">
      <g>
       <use style="stroke:#000000;stroke-width:0.8;" x="328.415" xlink:href="#mc94ae6a979" y="606.04"/>
      </g>
     </g>
     <g id="text_7">
      <!-- 0.7 -->
      <defs>
       <path d="M 8.203125 72.90625 
L 55.078125 72.90625 
L 55.078125 68.703125 
L 28.609375 0 
L 18.3125 0 
L 43.21875 64.59375 
L 8.203125 64.59375 
z
" id="DejaVuSans-55"/>
      </defs>
      <g transform="translate(320.463437 620.638438)scale(0.1 -0.1)">
       <use xlink:href="#DejaVuSans-48"/>
       <use x="63.623047" xlink:href="#DejaVuSans-46"/>
       <use x="95.410156" xlink:href="#DejaVuSans-55"/>
      </g>
     </g>
    </g>
    <g id="xtick_8">
     <g id="line2d_8">
      <g>
       <use style="stroke:#000000;stroke-width:0.8;" x="370.8475" xlink:href="#mc94ae6a979" y="606.04"/>
      </g>
     </g>
     <g id="text_8">
      <!-- 0.8 -->
      <defs>
       <path d="M 31.78125 34.625 
Q 24.75 34.625 20.71875 30.859375 
Q 16.703125 27.09375 16.703125 20.515625 
Q 16.703125 13.921875 20.71875 10.15625 
Q 24.75 6.390625 31.78125 6.390625 
Q 38.8125 6.390625 42.859375 10.171875 
Q 46.921875 13.96875 46.921875 20.515625 
Q 46.921875 27.09375 42.890625 30.859375 
Q 38.875 34.625 31.78125 34.625 
z
M 21.921875 38.8125 
Q 15.578125 40.375 12.03125 44.71875 
Q 8.5 49.078125 8.5 55.328125 
Q 8.5 64.0625 14.71875 69.140625 
Q 20.953125 74.21875 31.78125 74.21875 
Q 42.671875 74.21875 48.875 69.140625 
Q 55.078125 64.0625 55.078125 55.328125 
Q 55.078125 49.078125 51.53125 44.71875 
Q 48 40.375 41.703125 38.8125 
Q 48.828125 37.15625 52.796875 32.3125 
Q 56.78125 27.484375 56.78125 20.515625 
Q 56.78125 9.90625 50.3125 4.234375 
Q 43.84375 -1.421875 31.78125 -1.421875 
Q 19.734375 -1.421875 13.25 4.234375 
Q 6.78125 9.90625 6.78125 20.515625 
Q 6.78125 27.484375 10.78125 32.3125 
Q 14.796875 37.15625 21.921875 38.8125 
z
M 18.3125 54.390625 
Q 18.3125 48.734375 21.84375 45.5625 
Q 25.390625 42.390625 31.78125 42.390625 
Q 38.140625 42.390625 41.71875 45.5625 
Q 45.3125 48.734375 45.3125 54.390625 
Q 45.3125 60.0625 41.71875 63.234375 
Q 38.140625 66.40625 31.78125 66.40625 
Q 25.390625 66.40625 21.84375 63.234375 
Q 18.3125 60.0625 18.3125 54.390625 
z
" id="DejaVuSans-56"/>
      </defs>
      <g transform="translate(362.895938 620.638438)scale(0.1 -0.1)">
       <use xlink:href="#DejaVuSans-48"/>
       <use x="63.623047" xlink:href="#DejaVuSans-46"/>
       <use x="95.410156" xlink:href="#DejaVuSans-56"/>
      </g>
     </g>
    </g>
    <g id="xtick_9">
     <g id="line2d_9">
      <g>
       <use style="stroke:#000000;stroke-width:0.8;" x="413.28" xlink:href="#mc94ae6a979" y="606.04"/>
      </g>
     </g>
     <g id="text_9">
      <!-- 0.9 -->
      <defs>
       <path d="M 10.984375 1.515625 
L 10.984375 10.5 
Q 14.703125 8.734375 18.5 7.8125 
Q 22.3125 6.890625 25.984375 6.890625 
Q 35.75 6.890625 40.890625 13.453125 
Q 46.046875 20.015625 46.78125 33.40625 
Q 43.953125 29.203125 39.59375 26.953125 
Q 35.25 24.703125 29.984375 24.703125 
Q 19.046875 24.703125 12.671875 31.3125 
Q 6.296875 37.9375 6.296875 49.421875 
Q 6.296875 60.640625 12.9375 67.421875 
Q 19.578125 74.21875 30.609375 74.21875 
Q 43.265625 74.21875 49.921875 64.515625 
Q 56.59375 54.828125 56.59375 36.375 
Q 56.59375 19.140625 48.40625 8.859375 
Q 40.234375 -1.421875 26.421875 -1.421875 
Q 22.703125 -1.421875 18.890625 -0.6875 
Q 15.09375 0.046875 10.984375 1.515625 
z
M 30.609375 32.421875 
Q 37.25 32.421875 41.125 36.953125 
Q 45.015625 41.5 45.015625 49.421875 
Q 45.015625 57.28125 41.125 61.84375 
Q 37.25 66.40625 30.609375 66.40625 
Q 23.96875 66.40625 20.09375 61.84375 
Q 16.21875 57.28125 16.21875 49.421875 
Q 16.21875 41.5 20.09375 36.953125 
Q 23.96875 32.421875 30.609375 32.421875 
z
" id="DejaVuSans-57"/>
      </defs>
      <g transform="translate(405.328437 620.638438)scale(0.1 -0.1)">
       <use xlink:href="#DejaVuSans-48"/>
       <use x="63.623047" xlink:href="#DejaVuSans-46"/>
       <use x="95.410156" xlink:href="#DejaVuSans-57"/>
      </g>
     </g>
    </g>
    <g id="text_10">
     <!-- Proporção -->
     <defs>
      <path d="M 19.671875 64.796875 
L 19.671875 37.40625 
L 32.078125 37.40625 
Q 38.96875 37.40625 42.71875 40.96875 
Q 46.484375 44.53125 46.484375 51.125 
Q 46.484375 57.671875 42.71875 61.234375 
Q 38.96875 64.796875 32.078125 64.796875 
z
M 9.8125 72.90625 
L 32.078125 72.90625 
Q 44.34375 72.90625 50.609375 67.359375 
Q 56.890625 61.8125 56.890625 51.125 
Q 56.890625 40.328125 50.609375 34.8125 
Q 44.34375 29.296875 32.078125 29.296875 
L 19.671875 29.296875 
L 19.671875 0 
L 9.8125 0 
z
" id="DejaVuSans-80"/>
      <path d="M 41.109375 46.296875 
Q 39.59375 47.171875 37.8125 47.578125 
Q 36.03125 48 33.890625 48 
Q 26.265625 48 22.1875 43.046875 
Q 18.109375 38.09375 18.109375 28.8125 
L 18.109375 0 
L 9.078125 0 
L 9.078125 54.6875 
L 18.109375 54.6875 
L 18.109375 46.1875 
Q 20.953125 51.171875 25.484375 53.578125 
Q 30.03125 56 36.53125 56 
Q 37.453125 56 38.578125 55.875 
Q 39.703125 55.765625 41.0625 55.515625 
z
" id="DejaVuSans-114"/>
      <path d="M 30.609375 48.390625 
Q 23.390625 48.390625 19.1875 42.75 
Q 14.984375 37.109375 14.984375 27.296875 
Q 14.984375 17.484375 19.15625 11.84375 
Q 23.34375 6.203125 30.609375 6.203125 
Q 37.796875 6.203125 41.984375 11.859375 
Q 46.1875 17.53125 46.1875 27.296875 
Q 46.1875 37.015625 41.984375 42.703125 
Q 37.796875 48.390625 30.609375 48.390625 
z
M 30.609375 56 
Q 42.328125 56 49.015625 48.375 
Q 55.71875 40.765625 55.71875 27.296875 
Q 55.71875 13.875 49.015625 6.21875 
Q 42.328125 -1.421875 30.609375 -1.421875 
Q 18.84375 -1.421875 12.171875 6.21875 
Q 5.515625 13.875 5.515625 27.296875 
Q 5.515625 40.765625 12.171875 48.375 
Q 18.84375 56 30.609375 56 
z
" id="DejaVuSans-111"/>
      <path d="M 18.109375 8.203125 
L 18.109375 -20.796875 
L 9.078125 -20.796875 
L 9.078125 54.6875 
L 18.109375 54.6875 
L 18.109375 46.390625 
Q 20.953125 51.265625 25.265625 53.625 
Q 29.59375 56 35.59375 56 
Q 45.5625 56 51.78125 48.09375 
Q 58.015625 40.1875 58.015625 27.296875 
Q 58.015625 14.40625 51.78125 6.484375 
Q 45.5625 -1.421875 35.59375 -1.421875 
Q 29.59375 -1.421875 25.265625 0.953125 
Q 20.953125 3.328125 18.109375 8.203125 
z
M 48.6875 27.296875 
Q 48.6875 37.203125 44.609375 42.84375 
Q 40.53125 48.484375 33.40625 48.484375 
Q 26.265625 48.484375 22.1875 42.84375 
Q 18.109375 37.203125 18.109375 27.296875 
Q 18.109375 17.390625 22.1875 11.75 
Q 26.265625 6.109375 33.40625 6.109375 
Q 40.53125 6.109375 44.609375 11.75 
Q 48.6875 17.390625 48.6875 27.296875 
z
" id="DejaVuSans-112"/>
      <path d="M 48.78125 52.59375 
L 48.78125 44.1875 
Q 44.96875 46.296875 41.140625 47.34375 
Q 37.3125 48.390625 33.40625 48.390625 
Q 24.65625 48.390625 19.8125 42.84375 
Q 14.984375 37.3125 14.984375 27.296875 
Q 14.984375 17.28125 19.8125 11.734375 
Q 24.65625 6.203125 33.40625 6.203125 
Q 37.3125 6.203125 41.140625 7.25 
Q 44.96875 8.296875 48.78125 10.40625 
L 48.78125 2.09375 
Q 45.015625 0.34375 40.984375 -0.53125 
Q 36.96875 -1.421875 32.421875 -1.421875 
Q 20.0625 -1.421875 12.78125 6.34375 
Q 5.515625 14.109375 5.515625 27.296875 
Q 5.515625 40.671875 12.859375 48.328125 
Q 20.21875 56 33.015625 56 
Q 37.15625 56 41.109375 55.140625 
Q 45.0625 54.296875 48.78125 52.59375 
z
M 36.078125 0 
Q 38.765625 -3.03125 40.078125 -5.59375 
Q 41.40625 -8.15625 41.40625 -10.5 
Q 41.40625 -14.84375 38.46875 -17.0625 
Q 35.546875 -19.28125 29.78125 -19.28125 
Q 27.546875 -19.28125 25.421875 -18.984375 
Q 23.296875 -18.703125 21.1875 -18.109375 
L 21.1875 -11.71875 
Q 22.859375 -12.546875 24.65625 -12.90625 
Q 26.46875 -13.28125 28.765625 -13.28125 
Q 31.640625 -13.28125 33.109375 -12.109375 
Q 34.578125 -10.9375 34.578125 -8.6875 
Q 34.578125 -7.234375 33.515625 -5.109375 
Q 32.46875 -2.984375 30.28125 0 
z
" id="DejaVuSans-231"/>
      <path d="M 34.28125 27.484375 
Q 23.390625 27.484375 19.1875 25 
Q 14.984375 22.515625 14.984375 16.5 
Q 14.984375 11.71875 18.140625 8.90625 
Q 21.296875 6.109375 26.703125 6.109375 
Q 34.1875 6.109375 38.703125 11.40625 
Q 43.21875 16.703125 43.21875 25.484375 
L 43.21875 27.484375 
z
M 52.203125 31.203125 
L 52.203125 0 
L 43.21875 0 
L 43.21875 8.296875 
Q 40.140625 3.328125 35.546875 0.953125 
Q 30.953125 -1.421875 24.3125 -1.421875 
Q 15.921875 -1.421875 10.953125 3.296875 
Q 6 8.015625 6 15.921875 
Q 6 25.140625 12.171875 29.828125 
Q 18.359375 34.515625 30.609375 34.515625 
L 43.21875 34.515625 
L 43.21875 35.40625 
Q 43.21875 41.609375 39.140625 45 
Q 35.0625 48.390625 27.6875 48.390625 
Q 23 48.390625 18.546875 47.265625 
Q 14.109375 46.140625 10.015625 43.890625 
L 10.015625 52.203125 
Q 14.9375 54.109375 19.578125 55.046875 
Q 24.21875 56 28.609375 56 
Q 40.484375 56 46.34375 49.84375 
Q 52.203125 43.703125 52.203125 31.203125 
z
M 28.8125 66.890625 
L 26.03125 69.578125 
Q 24.953125 70.5625 24.140625 71.015625 
Q 23.34375 71.484375 22.703125 71.484375 
Q 20.84375 71.484375 19.96875 69.703125 
Q 19.09375 67.921875 19 63.921875 
L 12.890625 63.921875 
Q 12.984375 70.515625 15.46875 74.09375 
Q 17.96875 77.6875 22.40625 77.6875 
Q 24.265625 77.6875 25.828125 77 
Q 27.390625 76.3125 29.203125 74.703125 
L 31.984375 72.015625 
Q 33.0625 71.046875 33.859375 70.578125 
Q 34.671875 70.125 35.296875 70.125 
Q 37.15625 70.125 38.03125 71.90625 
Q 38.921875 73.6875 39.015625 77.6875 
L 45.125 77.6875 
Q 45.015625 71.09375 42.53125 67.5 
Q 40.046875 63.921875 35.59375 63.921875 
Q 33.734375 63.921875 32.171875 64.59375 
Q 30.609375 65.28125 28.8125 66.890625 
z
" id="DejaVuSans-227"/>
     </defs>
     <g transform="translate(218.2625 634.486875)scale(0.1 -0.1)">
      <use xlink:href="#DejaVuSans-80"/>
      <use x="60.287109" xlink:href="#DejaVuSans-114"/>
      <use x="101.369141" xlink:href="#DejaVuSans-111"/>
      <use x="162.550781" xlink:href="#DejaVuSans-112"/>
      <use x="226.027344" xlink:href="#DejaVuSans-111"/>
      <use x="287.208984" xlink:href="#DejaVuSans-114"/>
      <use x="328.291016" xlink:href="#DejaVuSans-231"/>
      <use x="383.271484" xlink:href="#DejaVuSans-227"/>
      <use x="444.550781" xlink:href="#DejaVuSans-111"/>
     </g>
    </g>
   </g>
   <g id="matplotlib.axis_2">
    <g id="ytick_1">
     <g id="line2d_10">
      <defs>
       <path d="M 0 0 
L -3.5 0 
" id="m36d584ebf1" style="stroke:#000000;stroke-width:0.8;"/>
      </defs>
      <g>
       <use style="stroke:#000000;stroke-width:0.8;" x="73.82" xlink:href="#m36d584ebf1" y="580.488167"/>
      </g>
     </g>
     <g id="text_11">
      <!-- NOVO -->
      <defs>
       <path d="M 9.8125 72.90625 
L 23.09375 72.90625 
L 55.421875 11.921875 
L 55.421875 72.90625 
L 64.984375 72.90625 
L 64.984375 0 
L 51.703125 0 
L 19.390625 60.984375 
L 19.390625 0 
L 9.8125 0 
z
" id="DejaVuSans-78"/>
       <path d="M 39.40625 66.21875 
Q 28.65625 66.21875 22.328125 58.203125 
Q 16.015625 50.203125 16.015625 36.375 
Q 16.015625 22.609375 22.328125 14.59375 
Q 28.65625 6.59375 39.40625 6.59375 
Q 50.140625 6.59375 56.421875 14.59375 
Q 62.703125 22.609375 62.703125 36.375 
Q 62.703125 50.203125 56.421875 58.203125 
Q 50.140625 66.21875 39.40625 66.21875 
z
M 39.40625 74.21875 
Q 54.734375 74.21875 63.90625 63.9375 
Q 73.09375 53.65625 73.09375 36.375 
Q 73.09375 19.140625 63.90625 8.859375 
Q 54.734375 -1.421875 39.40625 -1.421875 
Q 24.03125 -1.421875 14.8125 8.828125 
Q 5.609375 19.09375 5.609375 36.375 
Q 5.609375 53.65625 14.8125 63.9375 
Q 24.03125 74.21875 39.40625 74.21875 
z
" id="DejaVuSans-79"/>
       <path d="M 28.609375 0 
L 0.78125 72.90625 
L 11.078125 72.90625 
L 34.1875 11.53125 
L 57.328125 72.90625 
L 67.578125 72.90625 
L 39.796875 0 
z
" id="DejaVuSans-86"/>
      </defs>
      <g transform="translate(36.7575 584.287386)scale(0.1 -0.1)">
       <use xlink:href="#DejaVuSans-78"/>
       <use x="74.804688" xlink:href="#DejaVuSans-79"/>
       <use x="153.5" xlink:href="#DejaVuSans-86"/>
       <use x="221.892578" xlink:href="#DejaVuSans-79"/>
      </g>
     </g>
    </g>
    <g id="ytick_2">
     <g id="line2d_11">
      <g>
       <use style="stroke:#000000;stroke-width:0.8;" x="73.82" xlink:href="#m36d584ebf1" y="565.516157"/>
      </g>
     </g>
     <g id="text_12">
      <!-- REDE -->
      <defs>
       <path d="M 44.390625 34.1875 
Q 47.5625 33.109375 50.5625 29.59375 
Q 53.5625 26.078125 56.59375 19.921875 
L 66.609375 0 
L 56 0 
L 46.6875 18.703125 
Q 43.0625 26.03125 39.671875 28.421875 
Q 36.28125 30.8125 30.421875 30.8125 
L 19.671875 30.8125 
L 19.671875 0 
L 9.8125 0 
L 9.8125 72.90625 
L 32.078125 72.90625 
Q 44.578125 72.90625 50.734375 67.671875 
Q 56.890625 62.453125 56.890625 51.90625 
Q 56.890625 45.015625 53.6875 40.46875 
Q 50.484375 35.9375 44.390625 34.1875 
z
M 19.671875 64.796875 
L 19.671875 38.921875 
L 32.078125 38.921875 
Q 39.203125 38.921875 42.84375 42.21875 
Q 46.484375 45.515625 46.484375 51.90625 
Q 46.484375 58.296875 42.84375 61.546875 
Q 39.203125 64.796875 32.078125 64.796875 
z
" id="DejaVuSans-82"/>
       <path d="M 9.8125 72.90625 
L 55.90625 72.90625 
L 55.90625 64.59375 
L 19.671875 64.59375 
L 19.671875 43.015625 
L 54.390625 43.015625 
L 54.390625 34.71875 
L 19.671875 34.71875 
L 19.671875 8.296875 
L 56.78125 8.296875 
L 56.78125 0 
L 9.8125 0 
z
" id="DejaVuSans-69"/>
       <path d="M 19.671875 64.796875 
L 19.671875 8.109375 
L 31.59375 8.109375 
Q 46.6875 8.109375 53.6875 14.9375 
Q 60.6875 21.78125 60.6875 36.53125 
Q 60.6875 51.171875 53.6875 57.984375 
Q 46.6875 64.796875 31.59375 64.796875 
z
M 9.8125 72.90625 
L 30.078125 72.90625 
Q 51.265625 72.90625 61.171875 64.09375 
Q 71.09375 55.28125 71.09375 36.53125 
Q 71.09375 17.671875 61.125 8.828125 
Q 51.171875 0 30.078125 0 
L 9.8125 0 
z
" id="DejaVuSans-68"/>
      </defs>
      <g transform="translate(39.534063 569.315376)scale(0.1 -0.1)">
       <use xlink:href="#DejaVuSans-82"/>
       <use x="69.482422" xlink:href="#DejaVuSans-69"/>
       <use x="132.666016" xlink:href="#DejaVuSans-68"/>
       <use x="209.667969" xlink:href="#DejaVuSans-69"/>
      </g>
     </g>
    </g>
    <g id="ytick_3">
     <g id="line2d_12">
      <g>
       <use style="stroke:#000000;stroke-width:0.8;" x="73.82" xlink:href="#m36d584ebf1" y="550.544147"/>
      </g>
     </g>
     <g id="text_13">
      <!-- PCO -->
      <defs>
       <path d="M 64.40625 67.28125 
L 64.40625 56.890625 
Q 59.421875 61.53125 53.78125 63.8125 
Q 48.140625 66.109375 41.796875 66.109375 
Q 29.296875 66.109375 22.65625 58.46875 
Q 16.015625 50.828125 16.015625 36.375 
Q 16.015625 21.96875 22.65625 14.328125 
Q 29.296875 6.6875 41.796875 6.6875 
Q 48.140625 6.6875 53.78125 8.984375 
Q 59.421875 11.28125 64.40625 15.921875 
L 64.40625 5.609375 
Q 59.234375 2.09375 53.4375 0.328125 
Q 47.65625 -1.421875 41.21875 -1.421875 
Q 24.65625 -1.421875 15.125 8.703125 
Q 5.609375 18.84375 5.609375 36.375 
Q 5.609375 53.953125 15.125 64.078125 
Q 24.65625 74.21875 41.21875 74.21875 
Q 47.75 74.21875 53.53125 72.484375 
Q 59.328125 70.75 64.40625 67.28125 
z
" id="DejaVuSans-67"/>
      </defs>
      <g transform="translate(45.935625 554.343366)scale(0.1 -0.1)">
       <use xlink:href="#DejaVuSans-80"/>
       <use x="60.302734" xlink:href="#DejaVuSans-67"/>
       <use x="130.126953" xlink:href="#DejaVuSans-79"/>
      </g>
     </g>
    </g>
    <g id="ytick_4">
     <g id="line2d_13">
      <g>
       <use style="stroke:#000000;stroke-width:0.8;" x="73.82" xlink:href="#m36d584ebf1" y="535.572137"/>
      </g>
     </g>
     <g id="text_14">
      <!-- PATRI -->
      <defs>
       <path d="M 34.1875 63.1875 
L 20.796875 26.90625 
L 47.609375 26.90625 
z
M 28.609375 72.90625 
L 39.796875 72.90625 
L 67.578125 0 
L 57.328125 0 
L 50.6875 18.703125 
L 17.828125 18.703125 
L 11.1875 0 
L 0.78125 0 
z
" id="DejaVuSans-65"/>
       <path d="M -0.296875 72.90625 
L 61.375 72.90625 
L 61.375 64.59375 
L 35.5 64.59375 
L 35.5 0 
L 25.59375 0 
L 25.59375 64.59375 
L -0.296875 64.59375 
z
" id="DejaVuSans-84"/>
       <path d="M 9.8125 72.90625 
L 19.671875 72.90625 
L 19.671875 0 
L 9.8125 0 
z
" id="DejaVuSans-73"/>
      </defs>
      <g transform="translate(37.96375 539.371356)scale(0.1 -0.1)">
       <use xlink:href="#DejaVuSans-80"/>
       <use x="60.208984" xlink:href="#DejaVuSans-65"/>
       <use x="128.507812" xlink:href="#DejaVuSans-84"/>
       <use x="189.591797" xlink:href="#DejaVuSans-82"/>
       <use x="259.074219" xlink:href="#DejaVuSans-73"/>
      </g>
     </g>
    </g>
    <g id="ytick_5">
     <g id="line2d_14">
      <g>
       <use style="stroke:#000000;stroke-width:0.8;" x="73.82" xlink:href="#m36d584ebf1" y="520.600128"/>
      </g>
     </g>
     <g id="text_15">
      <!-- PROS -->
      <defs>
       <path d="M 53.515625 70.515625 
L 53.515625 60.890625 
Q 47.90625 63.578125 42.921875 64.890625 
Q 37.9375 66.21875 33.296875 66.21875 
Q 25.25 66.21875 20.875 63.09375 
Q 16.5 59.96875 16.5 54.203125 
Q 16.5 49.359375 19.40625 46.890625 
Q 22.3125 44.4375 30.421875 42.921875 
L 36.375 41.703125 
Q 47.40625 39.59375 52.65625 34.296875 
Q 57.90625 29 57.90625 20.125 
Q 57.90625 9.515625 50.796875 4.046875 
Q 43.703125 -1.421875 29.984375 -1.421875 
Q 24.8125 -1.421875 18.96875 -0.25 
Q 13.140625 0.921875 6.890625 3.21875 
L 6.890625 13.375 
Q 12.890625 10.015625 18.65625 8.296875 
Q 24.421875 6.59375 29.984375 6.59375 
Q 38.421875 6.59375 43.015625 9.90625 
Q 47.609375 13.234375 47.609375 19.390625 
Q 47.609375 24.75 44.3125 27.78125 
Q 41.015625 30.8125 33.5 32.328125 
L 27.484375 33.5 
Q 16.453125 35.6875 11.515625 40.375 
Q 6.59375 45.0625 6.59375 53.421875 
Q 6.59375 63.09375 13.40625 68.65625 
Q 20.21875 74.21875 32.171875 74.21875 
Q 37.3125 74.21875 42.625 73.28125 
Q 47.953125 72.359375 53.515625 70.515625 
z
" id="DejaVuSans-83"/>
      </defs>
      <g transform="translate(39.621563 524.399346)scale(0.1 -0.1)">
       <use xlink:href="#DejaVuSans-80"/>
       <use x="60.302734" xlink:href="#DejaVuSans-82"/>
       <use x="129.785156" xlink:href="#DejaVuSans-79"/>
       <use x="208.496094" xlink:href="#DejaVuSans-83"/>
      </g>
     </g>
    </g>
    <g id="ytick_6">
     <g id="line2d_15">
      <g>
       <use style="stroke:#000000;stroke-width:0.8;" x="73.82" xlink:href="#m36d584ebf1" y="505.628118"/>
      </g>
     </g>
     <g id="text_16">
      <!-- PSD -->
      <g transform="translate(46.741875 509.427336)scale(0.1 -0.1)">
       <use xlink:href="#DejaVuSans-80"/>
       <use x="60.302734" xlink:href="#DejaVuSans-83"/>
       <use x="123.779297" xlink:href="#DejaVuSans-68"/>
      </g>
     </g>
    </g>
    <g id="ytick_7">
     <g id="line2d_16">
      <g>
       <use style="stroke:#000000;stroke-width:0.8;" x="73.82" xlink:href="#m36d584ebf1" y="490.656108"/>
      </g>
     </g>
     <g id="text_17">
      <!-- PSL -->
      <defs>
       <path d="M 9.8125 72.90625 
L 19.671875 72.90625 
L 19.671875 8.296875 
L 55.171875 8.296875 
L 55.171875 0 
L 9.8125 0 
z
" id="DejaVuSans-76"/>
      </defs>
      <g transform="translate(48.87 494.455327)scale(0.1 -0.1)">
       <use xlink:href="#DejaVuSans-80"/>
       <use x="60.302734" xlink:href="#DejaVuSans-83"/>
       <use x="123.779297" xlink:href="#DejaVuSans-76"/>
      </g>
     </g>
    </g>
    <g id="ytick_8">
     <g id="line2d_17">
      <g>
       <use style="stroke:#000000;stroke-width:0.8;" x="73.82" xlink:href="#m36d584ebf1" y="475.684098"/>
      </g>
     </g>
     <g id="text_18">
      <!-- PV -->
      <g transform="translate(53.949688 479.483317)scale(0.1 -0.1)">
       <use xlink:href="#DejaVuSans-80"/>
       <use x="60.302734" xlink:href="#DejaVuSans-86"/>
      </g>
     </g>
    </g>
    <g id="ytick_9">
     <g id="line2d_18">
      <g>
       <use style="stroke:#000000;stroke-width:0.8;" x="73.82" xlink:href="#m36d584ebf1" y="460.712088"/>
      </g>
     </g>
     <g id="text_19">
      <!-- PPS -->
      <g transform="translate(48.412188 464.511307)scale(0.1 -0.1)">
       <use xlink:href="#DejaVuSans-80"/>
       <use x="60.302734" xlink:href="#DejaVuSans-80"/>
       <use x="120.605469" xlink:href="#DejaVuSans-83"/>
      </g>
     </g>
    </g>
    <g id="ytick_10">
     <g id="line2d_19">
      <g>
       <use style="stroke:#000000;stroke-width:0.8;" x="73.82" xlink:href="#m36d584ebf1" y="445.740078"/>
      </g>
     </g>
     <g id="text_20">
      <!-- PODE -->
      <g transform="translate(38.899688 449.539297)scale(0.1 -0.1)">
       <use xlink:href="#DejaVuSans-80"/>
       <use x="60.302734" xlink:href="#DejaVuSans-79"/>
       <use x="139.013672" xlink:href="#DejaVuSans-68"/>
       <use x="216.015625" xlink:href="#DejaVuSans-69"/>
      </g>
     </g>
    </g>
    <g id="ytick_11">
     <g id="line2d_20">
      <g>
       <use style="stroke:#000000;stroke-width:0.8;" x="73.82" xlink:href="#m36d584ebf1" y="430.768069"/>
      </g>
     </g>
     <g id="text_21">
      <!-- PSB -->
      <defs>
       <path d="M 19.671875 34.8125 
L 19.671875 8.109375 
L 35.5 8.109375 
Q 43.453125 8.109375 47.28125 11.40625 
Q 51.125 14.703125 51.125 21.484375 
Q 51.125 28.328125 47.28125 31.5625 
Q 43.453125 34.8125 35.5 34.8125 
z
M 19.671875 64.796875 
L 19.671875 42.828125 
L 34.28125 42.828125 
Q 41.5 42.828125 45.03125 45.53125 
Q 48.578125 48.25 48.578125 53.8125 
Q 48.578125 59.328125 45.03125 62.0625 
Q 41.5 64.796875 34.28125 64.796875 
z
M 9.8125 72.90625 
L 35.015625 72.90625 
Q 46.296875 72.90625 52.390625 68.21875 
Q 58.5 63.53125 58.5 54.890625 
Q 58.5 48.1875 55.375 44.234375 
Q 52.25 40.28125 46.1875 39.3125 
Q 53.46875 37.75 57.5 32.78125 
Q 61.53125 27.828125 61.53125 20.40625 
Q 61.53125 10.640625 54.890625 5.3125 
Q 48.25 0 35.984375 0 
L 9.8125 0 
z
" id="DejaVuSans-66"/>
      </defs>
      <g transform="translate(47.580938 434.567287)scale(0.1 -0.1)">
       <use xlink:href="#DejaVuSans-80"/>
       <use x="60.302734" xlink:href="#DejaVuSans-83"/>
       <use x="123.779297" xlink:href="#DejaVuSans-66"/>
      </g>
     </g>
    </g>
    <g id="ytick_12">
     <g id="line2d_21">
      <g>
       <use style="stroke:#000000;stroke-width:0.8;" x="73.82" xlink:href="#m36d584ebf1" y="415.796059"/>
      </g>
     </g>
     <g id="text_22">
      <!-- PRTB -->
      <g transform="translate(40.884063 419.595278)scale(0.1 -0.1)">
       <use xlink:href="#DejaVuSans-80"/>
       <use x="60.302734" xlink:href="#DejaVuSans-82"/>
       <use x="129.675781" xlink:href="#DejaVuSans-84"/>
       <use x="190.759766" xlink:href="#DejaVuSans-66"/>
      </g>
     </g>
    </g>
    <g id="ytick_13">
     <g id="line2d_22">
      <g>
       <use style="stroke:#000000;stroke-width:0.8;" x="73.82" xlink:href="#m36d584ebf1" y="400.824049"/>
      </g>
     </g>
     <g id="text_23">
      <!-- PPL -->
      <g transform="translate(49.18875 404.623268)scale(0.1 -0.1)">
       <use xlink:href="#DejaVuSans-80"/>
       <use x="60.302734" xlink:href="#DejaVuSans-80"/>
       <use x="120.605469" xlink:href="#DejaVuSans-76"/>
      </g>
     </g>
    </g>
    <g id="ytick_14">
     <g id="line2d_23">
      <g>
       <use style="stroke:#000000;stroke-width:0.8;" x="73.82" xlink:href="#m36d584ebf1" y="385.852039"/>
      </g>
     </g>
     <g id="text_24">
      <!-- PTC -->
      <g transform="translate(47.7075 389.651258)scale(0.1 -0.1)">
       <use xlink:href="#DejaVuSans-80"/>
       <use x="60.302734" xlink:href="#DejaVuSans-84"/>
       <use x="121.308594" xlink:href="#DejaVuSans-67"/>
      </g>
     </g>
    </g>
    <g id="ytick_15">
     <g id="line2d_24">
      <g>
       <use style="stroke:#000000;stroke-width:0.8;" x="73.82" xlink:href="#m36d584ebf1" y="370.880029"/>
      </g>
     </g>
     <g id="text_25">
      <!-- DEM -->
      <defs>
       <path d="M 9.8125 72.90625 
L 24.515625 72.90625 
L 43.109375 23.296875 
L 61.8125 72.90625 
L 76.515625 72.90625 
L 76.515625 0 
L 66.890625 0 
L 66.890625 64.015625 
L 48.09375 14.015625 
L 38.1875 14.015625 
L 19.390625 64.015625 
L 19.390625 0 
L 9.8125 0 
z
" id="DejaVuSans-77"/>
      </defs>
      <g transform="translate(44.173125 374.679248)scale(0.1 -0.1)">
       <use xlink:href="#DejaVuSans-68"/>
       <use x="77.001953" xlink:href="#DejaVuSans-69"/>
       <use x="140.185547" xlink:href="#DejaVuSans-77"/>
      </g>
     </g>
    </g>
    <g id="ytick_16">
     <g id="line2d_25">
      <g>
       <use style="stroke:#000000;stroke-width:0.8;" x="73.82" xlink:href="#m36d584ebf1" y="355.90802"/>
      </g>
     </g>
     <g id="text_26">
      <!-- PSC -->
      <g transform="translate(47.459063 359.707238)scale(0.1 -0.1)">
       <use xlink:href="#DejaVuSans-80"/>
       <use x="60.302734" xlink:href="#DejaVuSans-83"/>
       <use x="123.779297" xlink:href="#DejaVuSans-67"/>
      </g>
     </g>
    </g>
    <g id="ytick_17">
     <g id="line2d_26">
      <g>
       <use style="stroke:#000000;stroke-width:0.8;" x="73.82" xlink:href="#m36d584ebf1" y="340.93601"/>
      </g>
     </g>
     <g id="text_27">
      <!-- PHS -->
      <defs>
       <path d="M 9.8125 72.90625 
L 19.671875 72.90625 
L 19.671875 43.015625 
L 55.515625 43.015625 
L 55.515625 72.90625 
L 65.375 72.90625 
L 65.375 0 
L 55.515625 0 
L 55.515625 34.71875 
L 19.671875 34.71875 
L 19.671875 0 
L 9.8125 0 
z
" id="DejaVuSans-72"/>
      </defs>
      <g transform="translate(46.921563 344.735229)scale(0.1 -0.1)">
       <use xlink:href="#DejaVuSans-80"/>
       <use x="60.302734" xlink:href="#DejaVuSans-72"/>
       <use x="135.498047" xlink:href="#DejaVuSans-83"/>
      </g>
     </g>
    </g>
    <g id="ytick_18">
     <g id="line2d_27">
      <g>
       <use style="stroke:#000000;stroke-width:0.8;" x="73.82" xlink:href="#m36d584ebf1" y="325.964"/>
      </g>
     </g>
     <g id="text_28">
      <!-- PDT -->
      <g transform="translate(46.9825 329.763219)scale(0.1 -0.1)">
       <use xlink:href="#DejaVuSans-80"/>
       <use x="60.302734" xlink:href="#DejaVuSans-68"/>
       <use x="137.304688" xlink:href="#DejaVuSans-84"/>
      </g>
     </g>
    </g>
    <g id="ytick_19">
     <g id="line2d_28">
      <g>
       <use style="stroke:#000000;stroke-width:0.8;" x="73.82" xlink:href="#m36d584ebf1" y="310.99199"/>
      </g>
     </g>
     <g id="text_29">
      <!-- DC -->
      <g transform="translate(52.137188 314.791209)scale(0.1 -0.1)">
       <use xlink:href="#DejaVuSans-68"/>
       <use x="77.001953" xlink:href="#DejaVuSans-67"/>
      </g>
     </g>
    </g>
    <g id="ytick_20">
     <g id="line2d_29">
      <g>
       <use style="stroke:#000000;stroke-width:0.8;" x="73.82" xlink:href="#m36d584ebf1" y="296.01998"/>
      </g>
     </g>
     <g id="text_30">
      <!-- PP -->
      <g transform="translate(54.760625 299.819199)scale(0.1 -0.1)">
       <use xlink:href="#DejaVuSans-80"/>
       <use x="60.302734" xlink:href="#DejaVuSans-80"/>
      </g>
     </g>
    </g>
    <g id="ytick_21">
     <g id="line2d_30">
      <g>
       <use style="stroke:#000000;stroke-width:0.8;" x="73.82" xlink:href="#m36d584ebf1" y="281.047971"/>
      </g>
     </g>
     <g id="text_31">
      <!-- PR -->
      <g transform="translate(53.841875 284.847189)scale(0.1 -0.1)">
       <use xlink:href="#DejaVuSans-80"/>
       <use x="60.302734" xlink:href="#DejaVuSans-82"/>
      </g>
     </g>
    </g>
    <g id="ytick_22">
     <g id="line2d_31">
      <g>
       <use style="stroke:#000000;stroke-width:0.8;" x="73.82" xlink:href="#m36d584ebf1" y="266.075961"/>
      </g>
     </g>
     <g id="text_32">
      <!-- PT -->
      <g transform="translate(54.6825 269.87518)scale(0.1 -0.1)">
       <use xlink:href="#DejaVuSans-80"/>
       <use x="60.302734" xlink:href="#DejaVuSans-84"/>
      </g>
     </g>
    </g>
    <g id="ytick_23">
     <g id="line2d_32">
      <g>
       <use style="stroke:#000000;stroke-width:0.8;" x="73.82" xlink:href="#m36d584ebf1" y="251.103951"/>
      </g>
     </g>
     <g id="text_33">
      <!-- PSDB -->
      <g transform="translate(39.880938 254.90317)scale(0.1 -0.1)">
       <use xlink:href="#DejaVuSans-80"/>
       <use x="60.302734" xlink:href="#DejaVuSans-83"/>
       <use x="123.779297" xlink:href="#DejaVuSans-68"/>
       <use x="200.78125" xlink:href="#DejaVuSans-66"/>
      </g>
     </g>
    </g>
    <g id="ytick_24">
     <g id="line2d_33">
      <g>
       <use style="stroke:#000000;stroke-width:0.8;" x="73.82" xlink:href="#m36d584ebf1" y="236.131941"/>
      </g>
     </g>
     <g id="text_34">
      <!-- PC DO B -->
      <defs>
       <path id="DejaVuSans-32"/>
      </defs>
      <g transform="translate(25.018438 239.93116)scale(0.1 -0.1)">
       <use xlink:href="#DejaVuSans-80"/>
       <use x="60.302734" xlink:href="#DejaVuSans-67"/>
       <use x="130.126953" xlink:href="#DejaVuSans-32"/>
       <use x="161.914062" xlink:href="#DejaVuSans-68"/>
       <use x="238.916016" xlink:href="#DejaVuSans-79"/>
       <use x="317.626953" xlink:href="#DejaVuSans-32"/>
       <use x="349.414062" xlink:href="#DejaVuSans-66"/>
      </g>
     </g>
    </g>
    <g id="ytick_25">
     <g id="line2d_34">
      <g>
       <use style="stroke:#000000;stroke-width:0.8;" x="73.82" xlink:href="#m36d584ebf1" y="221.159931"/>
      </g>
     </g>
     <g id="text_35">
      <!-- PRP -->
      <g transform="translate(47.812188 224.95915)scale(0.1 -0.1)">
       <use xlink:href="#DejaVuSans-80"/>
       <use x="60.302734" xlink:href="#DejaVuSans-82"/>
       <use x="129.785156" xlink:href="#DejaVuSans-80"/>
      </g>
     </g>
    </g>
    <g id="ytick_26">
     <g id="line2d_35">
      <g>
       <use style="stroke:#000000;stroke-width:0.8;" x="73.82" xlink:href="#m36d584ebf1" y="206.187922"/>
      </g>
     </g>
     <g id="text_36">
      <!-- PSOL -->
      <g transform="translate(40.998125 209.98714)scale(0.1 -0.1)">
       <use xlink:href="#DejaVuSans-80"/>
       <use x="60.302734" xlink:href="#DejaVuSans-83"/>
       <use x="123.779297" xlink:href="#DejaVuSans-79"/>
       <use x="202.490234" xlink:href="#DejaVuSans-76"/>
      </g>
     </g>
    </g>
    <g id="ytick_27">
     <g id="line2d_36">
      <g>
       <use style="stroke:#000000;stroke-width:0.8;" x="73.82" xlink:href="#m36d584ebf1" y="191.215912"/>
      </g>
     </g>
     <g id="text_37">
      <!-- AVANTE -->
      <g transform="translate(26.409063 195.01513)scale(0.1 -0.1)">
       <use xlink:href="#DejaVuSans-65"/>
       <use x="68.314453" xlink:href="#DejaVuSans-86"/>
       <use x="136.628906" xlink:href="#DejaVuSans-65"/>
       <use x="205.037109" xlink:href="#DejaVuSans-78"/>
       <use x="279.841797" xlink:href="#DejaVuSans-84"/>
       <use x="340.925781" xlink:href="#DejaVuSans-69"/>
      </g>
     </g>
    </g>
    <g id="ytick_28">
     <g id="line2d_37">
      <g>
       <use style="stroke:#000000;stroke-width:0.8;" x="73.82" xlink:href="#m36d584ebf1" y="176.243902"/>
      </g>
     </g>
     <g id="text_38">
      <!-- MDB -->
      <g transform="translate(43.630938 180.043121)scale(0.1 -0.1)">
       <use xlink:href="#DejaVuSans-77"/>
       <use x="86.279297" xlink:href="#DejaVuSans-68"/>
       <use x="163.28125" xlink:href="#DejaVuSans-66"/>
      </g>
     </g>
    </g>
    <g id="ytick_29">
     <g id="line2d_38">
      <g>
       <use style="stroke:#000000;stroke-width:0.8;" x="73.82" xlink:href="#m36d584ebf1" y="161.271892"/>
      </g>
     </g>
     <g id="text_39">
      <!-- PTB -->
      <g transform="translate(47.821563 165.071111)scale(0.1 -0.1)">
       <use xlink:href="#DejaVuSans-80"/>
       <use x="60.302734" xlink:href="#DejaVuSans-84"/>
       <use x="121.386719" xlink:href="#DejaVuSans-66"/>
      </g>
     </g>
    </g>
    <g id="ytick_30">
     <g id="line2d_39">
      <g>
       <use style="stroke:#000000;stroke-width:0.8;" x="73.82" xlink:href="#m36d584ebf1" y="146.299882"/>
      </g>
     </g>
     <g id="text_40">
      <!-- PCB -->
      <g transform="translate(46.946563 150.099101)scale(0.1 -0.1)">
       <use xlink:href="#DejaVuSans-80"/>
       <use x="60.302734" xlink:href="#DejaVuSans-67"/>
       <use x="130.126953" xlink:href="#DejaVuSans-66"/>
      </g>
     </g>
    </g>
    <g id="ytick_31">
     <g id="line2d_40">
      <g>
       <use style="stroke:#000000;stroke-width:0.8;" x="73.82" xlink:href="#m36d584ebf1" y="131.327872"/>
      </g>
     </g>
     <g id="text_41">
      <!-- PMN -->
      <g transform="translate(44.680938 135.127091)scale(0.1 -0.1)">
       <use xlink:href="#DejaVuSans-80"/>
       <use x="60.302734" xlink:href="#DejaVuSans-77"/>
       <use x="146.582031" xlink:href="#DejaVuSans-78"/>
      </g>
     </g>
    </g>
    <g id="ytick_32">
     <g id="line2d_41">
      <g>
       <use style="stroke:#000000;stroke-width:0.8;" x="73.82" xlink:href="#m36d584ebf1" y="116.355863"/>
      </g>
     </g>
     <g id="text_42">
      <!-- PSTU -->
      <defs>
       <path d="M 8.6875 72.90625 
L 18.609375 72.90625 
L 18.609375 28.609375 
Q 18.609375 16.890625 22.84375 11.734375 
Q 27.09375 6.59375 36.625 6.59375 
Q 46.09375 6.59375 50.34375 11.734375 
Q 54.59375 16.890625 54.59375 28.609375 
L 54.59375 72.90625 
L 64.5 72.90625 
L 64.5 27.390625 
Q 64.5 13.140625 57.4375 5.859375 
Q 50.390625 -1.421875 36.625 -1.421875 
Q 22.796875 -1.421875 15.734375 5.859375 
Q 8.6875 13.140625 8.6875 27.390625 
z
" id="DejaVuSans-85"/>
      </defs>
      <g transform="translate(41.015313 120.155081)scale(0.1 -0.1)">
       <use xlink:href="#DejaVuSans-80"/>
       <use x="60.302734" xlink:href="#DejaVuSans-83"/>
       <use x="123.779297" xlink:href="#DejaVuSans-84"/>
       <use x="184.863281" xlink:href="#DejaVuSans-85"/>
      </g>
     </g>
    </g>
    <g id="ytick_33">
     <g id="line2d_42">
      <g>
       <use style="stroke:#000000;stroke-width:0.8;" x="73.82" xlink:href="#m36d584ebf1" y="101.383853"/>
      </g>
     </g>
     <g id="text_43">
      <!-- SD -->
      <g transform="translate(52.771563 105.183072)scale(0.1 -0.1)">
       <use xlink:href="#DejaVuSans-83"/>
       <use x="63.476562" xlink:href="#DejaVuSans-68"/>
      </g>
     </g>
    </g>
    <g id="ytick_34">
     <g id="line2d_43">
      <g>
       <use style="stroke:#000000;stroke-width:0.8;" x="73.82" xlink:href="#m36d584ebf1" y="86.411843"/>
      </g>
     </g>
     <g id="text_44">
      <!-- PRB -->
      <g transform="translate(46.980938 90.211062)scale(0.1 -0.1)">
       <use xlink:href="#DejaVuSans-80"/>
       <use x="60.302734" xlink:href="#DejaVuSans-82"/>
       <use x="129.785156" xlink:href="#DejaVuSans-66"/>
      </g>
     </g>
    </g>
    <g id="ytick_35">
     <g id="line2d_44">
      <g>
       <use style="stroke:#000000;stroke-width:0.8;" x="73.82" xlink:href="#m36d584ebf1" y="71.439833"/>
      </g>
     </g>
     <g id="text_45">
      <!-- PMB -->
      <g transform="translate(45.30125 75.239052)scale(0.1 -0.1)">
       <use xlink:href="#DejaVuSans-80"/>
       <use x="60.302734" xlink:href="#DejaVuSans-77"/>
       <use x="146.582031" xlink:href="#DejaVuSans-66"/>
      </g>
     </g>
    </g>
    <g id="text_46">
     <!-- Partidos -->
     <defs>
      <path d="M 34.28125 27.484375 
Q 23.390625 27.484375 19.1875 25 
Q 14.984375 22.515625 14.984375 16.5 
Q 14.984375 11.71875 18.140625 8.90625 
Q 21.296875 6.109375 26.703125 6.109375 
Q 34.1875 6.109375 38.703125 11.40625 
Q 43.21875 16.703125 43.21875 25.484375 
L 43.21875 27.484375 
z
M 52.203125 31.203125 
L 52.203125 0 
L 43.21875 0 
L 43.21875 8.296875 
Q 40.140625 3.328125 35.546875 0.953125 
Q 30.953125 -1.421875 24.3125 -1.421875 
Q 15.921875 -1.421875 10.953125 3.296875 
Q 6 8.015625 6 15.921875 
Q 6 25.140625 12.171875 29.828125 
Q 18.359375 34.515625 30.609375 34.515625 
L 43.21875 34.515625 
L 43.21875 35.40625 
Q 43.21875 41.609375 39.140625 45 
Q 35.0625 48.390625 27.6875 48.390625 
Q 23 48.390625 18.546875 47.265625 
Q 14.109375 46.140625 10.015625 43.890625 
L 10.015625 52.203125 
Q 14.9375 54.109375 19.578125 55.046875 
Q 24.21875 56 28.609375 56 
Q 40.484375 56 46.34375 49.84375 
Q 52.203125 43.703125 52.203125 31.203125 
z
" id="DejaVuSans-97"/>
      <path d="M 18.3125 70.21875 
L 18.3125 54.6875 
L 36.8125 54.6875 
L 36.8125 47.703125 
L 18.3125 47.703125 
L 18.3125 18.015625 
Q 18.3125 11.328125 20.140625 9.421875 
Q 21.96875 7.515625 27.59375 7.515625 
L 36.8125 7.515625 
L 36.8125 0 
L 27.59375 0 
Q 17.1875 0 13.234375 3.875 
Q 9.28125 7.765625 9.28125 18.015625 
L 9.28125 47.703125 
L 2.6875 47.703125 
L 2.6875 54.6875 
L 9.28125 54.6875 
L 9.28125 70.21875 
z
" id="DejaVuSans-116"/>
      <path d="M 9.421875 54.6875 
L 18.40625 54.6875 
L 18.40625 0 
L 9.421875 0 
z
M 9.421875 75.984375 
L 18.40625 75.984375 
L 18.40625 64.59375 
L 9.421875 64.59375 
z
" id="DejaVuSans-105"/>
      <path d="M 45.40625 46.390625 
L 45.40625 75.984375 
L 54.390625 75.984375 
L 54.390625 0 
L 45.40625 0 
L 45.40625 8.203125 
Q 42.578125 3.328125 38.25 0.953125 
Q 33.9375 -1.421875 27.875 -1.421875 
Q 17.96875 -1.421875 11.734375 6.484375 
Q 5.515625 14.40625 5.515625 27.296875 
Q 5.515625 40.1875 11.734375 48.09375 
Q 17.96875 56 27.875 56 
Q 33.9375 56 38.25 53.625 
Q 42.578125 51.265625 45.40625 46.390625 
z
M 14.796875 27.296875 
Q 14.796875 17.390625 18.875 11.75 
Q 22.953125 6.109375 30.078125 6.109375 
Q 37.203125 6.109375 41.296875 11.75 
Q 45.40625 17.390625 45.40625 27.296875 
Q 45.40625 37.203125 41.296875 42.84375 
Q 37.203125 48.484375 30.078125 48.484375 
Q 22.953125 48.484375 18.875 42.84375 
Q 14.796875 37.203125 14.796875 27.296875 
z
" id="DejaVuSans-100"/>
      <path d="M 44.28125 53.078125 
L 44.28125 44.578125 
Q 40.484375 46.53125 36.375 47.5 
Q 32.28125 48.484375 27.875 48.484375 
Q 21.1875 48.484375 17.84375 46.4375 
Q 14.5 44.390625 14.5 40.28125 
Q 14.5 37.15625 16.890625 35.375 
Q 19.28125 33.59375 26.515625 31.984375 
L 29.59375 31.296875 
Q 39.15625 29.25 43.1875 25.515625 
Q 47.21875 21.78125 47.21875 15.09375 
Q 47.21875 7.46875 41.1875 3.015625 
Q 35.15625 -1.421875 24.609375 -1.421875 
Q 20.21875 -1.421875 15.453125 -0.5625 
Q 10.6875 0.296875 5.421875 2 
L 5.421875 11.28125 
Q 10.40625 8.6875 15.234375 7.390625 
Q 20.0625 6.109375 24.8125 6.109375 
Q 31.15625 6.109375 34.5625 8.28125 
Q 37.984375 10.453125 37.984375 14.40625 
Q 37.984375 18.0625 35.515625 20.015625 
Q 33.0625 21.96875 24.703125 23.78125 
L 21.578125 24.515625 
Q 13.234375 26.265625 9.515625 29.90625 
Q 5.8125 33.546875 5.8125 39.890625 
Q 5.8125 47.609375 11.28125 51.796875 
Q 16.75 56 26.8125 56 
Q 31.78125 56 36.171875 55.265625 
Q 40.578125 54.546875 44.28125 53.078125 
z
" id="DejaVuSans-115"/>
     </defs>
     <g transform="translate(18.93875 346.28275)rotate(-90)scale(0.1 -0.1)">
      <use xlink:href="#DejaVuSans-80"/>
      <use x="60.240234" xlink:href="#DejaVuSans-97"/>
      <use x="121.519531" xlink:href="#DejaVuSans-114"/>
      <use x="162.632812" xlink:href="#DejaVuSans-116"/>
      <use x="201.841797" xlink:href="#DejaVuSans-105"/>
      <use x="229.625" xlink:href="#DejaVuSans-100"/>
      <use x="293.101562" xlink:href="#DejaVuSans-111"/>
      <use x="354.283203" xlink:href="#DejaVuSans-115"/>
     </g>
    </g>
   </g>
   <g id="line2d_45">
    <path clip-path="url(#p4b1a42d603)" d="M 243.55 606.04 
L 243.55 45.888 
" style="fill:none;stroke:#000000;stroke-dasharray:14.8,6.4;stroke-dashoffset:0;stroke-width:4;"/>
   </g>
   <g id="line2d_46">
    <path clip-path="url(#p4b1a42d603)" d="M 215.162747 606.04 
L 215.162747 45.888 
" style="fill:none;stroke:#008000;stroke-linecap:square;stroke-width:2;"/>
   </g>
   <g id="text_47">
    <!-- Proporção de Mulheres -->
    <defs>
     <path d="M 56.203125 29.59375 
L 56.203125 25.203125 
L 14.890625 25.203125 
Q 15.484375 15.921875 20.484375 11.0625 
Q 25.484375 6.203125 34.421875 6.203125 
Q 39.59375 6.203125 44.453125 7.46875 
Q 49.3125 8.734375 54.109375 11.28125 
L 54.109375 2.78125 
Q 49.265625 0.734375 44.1875 -0.34375 
Q 39.109375 -1.421875 33.890625 -1.421875 
Q 20.796875 -1.421875 13.15625 6.1875 
Q 5.515625 13.8125 5.515625 26.8125 
Q 5.515625 40.234375 12.765625 48.109375 
Q 20.015625 56 32.328125 56 
Q 43.359375 56 49.78125 48.890625 
Q 56.203125 41.796875 56.203125 29.59375 
z
M 47.21875 32.234375 
Q 47.125 39.59375 43.09375 43.984375 
Q 39.0625 48.390625 32.421875 48.390625 
Q 24.90625 48.390625 20.390625 44.140625 
Q 15.875 39.890625 15.1875 32.171875 
z
" id="DejaVuSans-101"/>
     <path d="M 8.5 21.578125 
L 8.5 54.6875 
L 17.484375 54.6875 
L 17.484375 21.921875 
Q 17.484375 14.15625 20.5 10.265625 
Q 23.53125 6.390625 29.59375 6.390625 
Q 36.859375 6.390625 41.078125 11.03125 
Q 45.3125 15.671875 45.3125 23.6875 
L 45.3125 54.6875 
L 54.296875 54.6875 
L 54.296875 0 
L 45.3125 0 
L 45.3125 8.40625 
Q 42.046875 3.421875 37.71875 1 
Q 33.40625 -1.421875 27.6875 -1.421875 
Q 18.265625 -1.421875 13.375 4.4375 
Q 8.5 10.296875 8.5 21.578125 
z
M 31.109375 56 
z
" id="DejaVuSans-117"/>
     <path d="M 9.421875 75.984375 
L 18.40625 75.984375 
L 18.40625 0 
L 9.421875 0 
z
" id="DejaVuSans-108"/>
     <path d="M 54.890625 33.015625 
L 54.890625 0 
L 45.90625 0 
L 45.90625 32.71875 
Q 45.90625 40.484375 42.875 44.328125 
Q 39.84375 48.1875 33.796875 48.1875 
Q 26.515625 48.1875 22.3125 43.546875 
Q 18.109375 38.921875 18.109375 30.90625 
L 18.109375 0 
L 9.078125 0 
L 9.078125 75.984375 
L 18.109375 75.984375 
L 18.109375 46.1875 
Q 21.34375 51.125 25.703125 53.5625 
Q 30.078125 56 35.796875 56 
Q 45.21875 56 50.046875 50.171875 
Q 54.890625 44.34375 54.890625 33.015625 
z
" id="DejaVuSans-104"/>
    </defs>
    <g transform="translate(157.196875 22.371281)scale(0.15 -0.15)">
     <use xlink:href="#DejaVuSans-80"/>
     <use x="60.287109" xlink:href="#DejaVuSans-114"/>
     <use x="101.369141" xlink:href="#DejaVuSans-111"/>
     <use x="162.550781" xlink:href="#DejaVuSans-112"/>
     <use x="226.027344" xlink:href="#DejaVuSans-111"/>
     <use x="287.208984" xlink:href="#DejaVuSans-114"/>
     <use x="328.291016" xlink:href="#DejaVuSans-231"/>
     <use x="383.271484" xlink:href="#DejaVuSans-227"/>
     <use x="444.550781" xlink:href="#DejaVuSans-111"/>
     <use x="505.732422" xlink:href="#DejaVuSans-32"/>
     <use x="537.519531" xlink:href="#DejaVuSans-100"/>
     <use x="600.996094" xlink:href="#DejaVuSans-101"/>
     <use x="662.519531" xlink:href="#DejaVuSans-32"/>
     <use x="694.306641" xlink:href="#DejaVuSans-77"/>
     <use x="780.585938" xlink:href="#DejaVuSans-117"/>
     <use x="843.964844" xlink:href="#DejaVuSans-108"/>
     <use x="871.748047" xlink:href="#DejaVuSans-104"/>
     <use x="935.126953" xlink:href="#DejaVuSans-101"/>
     <use x="996.650391" xlink:href="#DejaVuSans-114"/>
     <use x="1037.732422" xlink:href="#DejaVuSans-101"/>
     <use x="1099.255859" xlink:href="#DejaVuSans-115"/>
    </g>
    <!-- Filiadas por Partido Político -->
    <defs>
     <path d="M 9.8125 72.90625 
L 51.703125 72.90625 
L 51.703125 64.59375 
L 19.671875 64.59375 
L 19.671875 43.109375 
L 48.578125 43.109375 
L 48.578125 34.8125 
L 19.671875 34.8125 
L 19.671875 0 
L 9.8125 0 
z
" id="DejaVuSans-70"/>
     <path d="M 20.703125 79.984375 
L 30.421875 79.984375 
L 14.5 61.625 
L 7.03125 61.625 
z
M 9.421875 54.6875 
L 18.40625 54.6875 
L 18.40625 0 
L 9.421875 0 
z
M 13.921875 56 
z
" id="DejaVuSans-237"/>
     <path d="M 48.78125 52.59375 
L 48.78125 44.1875 
Q 44.96875 46.296875 41.140625 47.34375 
Q 37.3125 48.390625 33.40625 48.390625 
Q 24.65625 48.390625 19.8125 42.84375 
Q 14.984375 37.3125 14.984375 27.296875 
Q 14.984375 17.28125 19.8125 11.734375 
Q 24.65625 6.203125 33.40625 6.203125 
Q 37.3125 6.203125 41.140625 7.25 
Q 44.96875 8.296875 48.78125 10.40625 
L 48.78125 2.09375 
Q 45.015625 0.34375 40.984375 -0.53125 
Q 36.96875 -1.421875 32.421875 -1.421875 
Q 20.0625 -1.421875 12.78125 6.34375 
Q 5.515625 14.109375 5.515625 27.296875 
Q 5.515625 40.671875 12.859375 48.328125 
Q 20.21875 56 33.015625 56 
Q 37.15625 56 41.109375 55.140625 
Q 45.0625 54.296875 48.78125 52.59375 
z
" id="DejaVuSans-99"/>
    </defs>
    <g transform="translate(141.966016 39.888)scale(0.15 -0.15)">
     <use xlink:href="#DejaVuSans-70"/>
     <use x="57.410156" xlink:href="#DejaVuSans-105"/>
     <use x="85.193359" xlink:href="#DejaVuSans-108"/>
     <use x="112.976562" xlink:href="#DejaVuSans-105"/>
     <use x="140.759766" xlink:href="#DejaVuSans-97"/>
     <use x="202.039062" xlink:href="#DejaVuSans-100"/>
     <use x="265.515625" xlink:href="#DejaVuSans-97"/>
     <use x="326.794922" xlink:href="#DejaVuSans-115"/>
     <use x="378.894531" xlink:href="#DejaVuSans-32"/>
     <use x="410.681641" xlink:href="#DejaVuSans-112"/>
     <use x="474.158203" xlink:href="#DejaVuSans-111"/>
     <use x="535.339844" xlink:href="#DejaVuSans-114"/>
     <use x="576.453125" xlink:href="#DejaVuSans-32"/>
     <use x="608.240234" xlink:href="#DejaVuSans-80"/>
     <use x="668.480469" xlink:href="#DejaVuSans-97"/>
     <use x="729.759766" xlink:href="#DejaVuSans-114"/>
     <use x="770.873047" xlink:href="#DejaVuSans-116"/>
     <use x="810.082031" xlink:href="#DejaVuSans-105"/>
     <use x="837.865234" xlink:href="#DejaVuSans-100"/>
     <use x="901.341797" xlink:href="#DejaVuSans-111"/>
     <use x="962.523438" xlink:href="#DejaVuSans-32"/>
     <use x="994.310547" xlink:href="#DejaVuSans-80"/>
     <use x="1054.566406" xlink:href="#DejaVuSans-111"/>
     <use x="1115.748047" xlink:href="#DejaVuSans-108"/>
     <use x="1143.53125" xlink:href="#DejaVuSans-237"/>
     <use x="1171.314453" xlink:href="#DejaVuSans-116"/>
     <use x="1210.523438" xlink:href="#DejaVuSans-105"/>
     <use x="1238.306641" xlink:href="#DejaVuSans-99"/>
     <use x="1293.287109" xlink:href="#DejaVuSans-111"/>
    </g>
   </g>
   <g id="legend_1">
    <g id="patch_3">
     <path d="M 275.056562 353.539938 
L 406.28 353.539938 
Q 408.28 353.539938 408.28 351.539938 
L 408.28 300.388062 
Q 408.28 298.388062 406.28 298.388062 
L 275.056562 298.388062 
Q 273.056562 298.388062 273.056562 300.388062 
L 273.056562 351.539938 
Q 273.056562 353.539938 275.056562 353.539938 
z
" style="fill:#ffffff;opacity:0.8;stroke:#cccccc;stroke-linejoin:miter;"/>
    </g>
    <g id="line2d_47">
     <path d="M 277.056562 313.12525 
L 297.056562 313.12525 
" style="fill:none;stroke:#000000;stroke-dasharray:14.8,6.4;stroke-dashoffset:0;stroke-width:4;"/>
    </g>
    <g id="line2d_48"/>
    <g id="text_48">
     <!-- Equidade de -->
     <defs>
      <path d="M 14.796875 27.296875 
Q 14.796875 17.390625 18.875 11.75 
Q 22.953125 6.109375 30.078125 6.109375 
Q 37.203125 6.109375 41.296875 11.75 
Q 45.40625 17.390625 45.40625 27.296875 
Q 45.40625 37.203125 41.296875 42.84375 
Q 37.203125 48.484375 30.078125 48.484375 
Q 22.953125 48.484375 18.875 42.84375 
Q 14.796875 37.203125 14.796875 27.296875 
z
M 45.40625 8.203125 
Q 42.578125 3.328125 38.25 0.953125 
Q 33.9375 -1.421875 27.875 -1.421875 
Q 17.96875 -1.421875 11.734375 6.484375 
Q 5.515625 14.40625 5.515625 27.296875 
Q 5.515625 40.1875 11.734375 48.09375 
Q 17.96875 56 27.875 56 
Q 33.9375 56 38.25 53.625 
Q 42.578125 51.265625 45.40625 46.390625 
L 45.40625 54.6875 
L 54.390625 54.6875 
L 54.390625 -20.796875 
L 45.40625 -20.796875 
z
" id="DejaVuSans-113"/>
     </defs>
     <g transform="translate(305.056562 309.9865)scale(0.1 -0.1)">
      <use xlink:href="#DejaVuSans-69"/>
      <use x="63.183594" xlink:href="#DejaVuSans-113"/>
      <use x="126.660156" xlink:href="#DejaVuSans-117"/>
      <use x="190.039062" xlink:href="#DejaVuSans-105"/>
      <use x="217.822266" xlink:href="#DejaVuSans-100"/>
      <use x="281.298828" xlink:href="#DejaVuSans-97"/>
      <use x="342.578125" xlink:href="#DejaVuSans-100"/>
      <use x="406.054688" xlink:href="#DejaVuSans-101"/>
      <use x="467.578125" xlink:href="#DejaVuSans-32"/>
      <use x="499.365234" xlink:href="#DejaVuSans-100"/>
      <use x="562.841797" xlink:href="#DejaVuSans-101"/>
     </g>
     <!-- mulheres e homens -->
     <defs>
      <path d="M 52 44.1875 
Q 55.375 50.25 60.0625 53.125 
Q 64.75 56 71.09375 56 
Q 79.640625 56 84.28125 50.015625 
Q 88.921875 44.046875 88.921875 33.015625 
L 88.921875 0 
L 79.890625 0 
L 79.890625 32.71875 
Q 79.890625 40.578125 77.09375 44.375 
Q 74.3125 48.1875 68.609375 48.1875 
Q 61.625 48.1875 57.5625 43.546875 
Q 53.515625 38.921875 53.515625 30.90625 
L 53.515625 0 
L 44.484375 0 
L 44.484375 32.71875 
Q 44.484375 40.625 41.703125 44.40625 
Q 38.921875 48.1875 33.109375 48.1875 
Q 26.21875 48.1875 22.15625 43.53125 
Q 18.109375 38.875 18.109375 30.90625 
L 18.109375 0 
L 9.078125 0 
L 9.078125 54.6875 
L 18.109375 54.6875 
L 18.109375 46.1875 
Q 21.1875 51.21875 25.484375 53.609375 
Q 29.78125 56 35.6875 56 
Q 41.65625 56 45.828125 52.96875 
Q 50 49.953125 52 44.1875 
z
" id="DejaVuSans-109"/>
      <path d="M 54.890625 33.015625 
L 54.890625 0 
L 45.90625 0 
L 45.90625 32.71875 
Q 45.90625 40.484375 42.875 44.328125 
Q 39.84375 48.1875 33.796875 48.1875 
Q 26.515625 48.1875 22.3125 43.546875 
Q 18.109375 38.921875 18.109375 30.90625 
L 18.109375 0 
L 9.078125 0 
L 9.078125 54.6875 
L 18.109375 54.6875 
L 18.109375 46.1875 
Q 21.34375 51.125 25.703125 53.5625 
Q 30.078125 56 35.796875 56 
Q 45.21875 56 50.046875 50.171875 
Q 54.890625 44.34375 54.890625 33.015625 
z
" id="DejaVuSans-110"/>
     </defs>
     <g transform="translate(305.056562 321.184312)scale(0.1 -0.1)">
      <use xlink:href="#DejaVuSans-109"/>
      <use x="97.412109" xlink:href="#DejaVuSans-117"/>
      <use x="160.791016" xlink:href="#DejaVuSans-108"/>
      <use x="188.574219" xlink:href="#DejaVuSans-104"/>
      <use x="251.953125" xlink:href="#DejaVuSans-101"/>
      <use x="313.476562" xlink:href="#DejaVuSans-114"/>
      <use x="354.558594" xlink:href="#DejaVuSans-101"/>
      <use x="416.082031" xlink:href="#DejaVuSans-115"/>
      <use x="468.181641" xlink:href="#DejaVuSans-32"/>
      <use x="499.96875" xlink:href="#DejaVuSans-101"/>
      <use x="561.492188" xlink:href="#DejaVuSans-32"/>
      <use x="593.279297" xlink:href="#DejaVuSans-104"/>
      <use x="656.658203" xlink:href="#DejaVuSans-111"/>
      <use x="717.839844" xlink:href="#DejaVuSans-109"/>
      <use x="815.251953" xlink:href="#DejaVuSans-101"/>
      <use x="876.775391" xlink:href="#DejaVuSans-110"/>
      <use x="940.154297" xlink:href="#DejaVuSans-115"/>
     </g>
    </g>
    <g id="line2d_49">
     <path d="M 277.056562 339.201188 
L 297.056562 339.201188 
" style="fill:none;stroke:#008000;stroke-linecap:square;stroke-width:2;"/>
    </g>
    <g id="line2d_50"/>
    <g id="text_49">
     <!-- Proporção Média -->
     <defs>
      <path d="M 56.203125 29.59375 
L 56.203125 25.203125 
L 14.890625 25.203125 
Q 15.484375 15.921875 20.484375 11.0625 
Q 25.484375 6.203125 34.421875 6.203125 
Q 39.59375 6.203125 44.453125 7.46875 
Q 49.3125 8.734375 54.109375 11.28125 
L 54.109375 2.78125 
Q 49.265625 0.734375 44.1875 -0.34375 
Q 39.109375 -1.421875 33.890625 -1.421875 
Q 20.796875 -1.421875 13.15625 6.1875 
Q 5.515625 13.8125 5.515625 26.8125 
Q 5.515625 40.234375 12.765625 48.109375 
Q 20.015625 56 32.328125 56 
Q 43.359375 56 49.78125 48.890625 
Q 56.203125 41.796875 56.203125 29.59375 
z
M 47.21875 32.234375 
Q 47.125 39.59375 43.09375 43.984375 
Q 39.0625 48.390625 32.421875 48.390625 
Q 24.90625 48.390625 20.390625 44.140625 
Q 15.875 39.890625 15.1875 32.171875 
z
M 38.578125 79.984375 
L 48.296875 79.984375 
L 32.375 61.625 
L 24.90625 61.625 
z
" id="DejaVuSans-233"/>
     </defs>
     <g transform="translate(305.056562 336.262437)scale(0.1 -0.1)">
      <use xlink:href="#DejaVuSans-80"/>
      <use x="60.287109" xlink:href="#DejaVuSans-114"/>
      <use x="101.369141" xlink:href="#DejaVuSans-111"/>
      <use x="162.550781" xlink:href="#DejaVuSans-112"/>
      <use x="226.027344" xlink:href="#DejaVuSans-111"/>
      <use x="287.208984" xlink:href="#DejaVuSans-114"/>
      <use x="328.291016" xlink:href="#DejaVuSans-231"/>
      <use x="383.271484" xlink:href="#DejaVuSans-227"/>
      <use x="444.550781" xlink:href="#DejaVuSans-111"/>
      <use x="505.732422" xlink:href="#DejaVuSans-32"/>
      <use x="537.519531" xlink:href="#DejaVuSans-77"/>
      <use x="623.798828" xlink:href="#DejaVuSans-233"/>
      <use x="685.322266" xlink:href="#DejaVuSans-100"/>
      <use x="748.798828" xlink:href="#DejaVuSans-105"/>
      <use x="776.582031" xlink:href="#DejaVuSans-97"/>
     </g>
     <!-- de Mulheres -->
     <g transform="translate(305.056562 347.46025)scale(0.1 -0.1)">
      <use xlink:href="#DejaVuSans-100"/>
      <use x="63.476562" xlink:href="#DejaVuSans-101"/>
      <use x="125" xlink:href="#DejaVuSans-32"/>
      <use x="156.787109" xlink:href="#DejaVuSans-77"/>
      <use x="243.066406" xlink:href="#DejaVuSans-117"/>
      <use x="306.445312" xlink:href="#DejaVuSans-108"/>
      <use x="334.228516" xlink:href="#DejaVuSans-104"/>
      <use x="397.607422" xlink:href="#DejaVuSans-101"/>
      <use x="459.130859" xlink:href="#DejaVuSans-114"/>
      <use x="500.212891" xlink:href="#DejaVuSans-101"/>
      <use x="561.736328" xlink:href="#DejaVuSans-115"/>
     </g>
    </g>
   </g>
  </g>
 </g>
 <defs>
  <clipPath id="p4b1a42d603">
   <rect height="560.152" width="339.46" x="73.82" y="45.888"/>
  </clipPath>
 </defs>
</svg>
