<?xml version="1.0" encoding="utf-8" standalone="no"?>
<!DOCTYPE svg PUBLIC "-//W3C//DTD SVG 1.1//EN"
  "http://www.w3.org/Graphics/SVG/1.1/DTD/svg11.dtd">
<!-- Created with matplotlib (https://matplotlib.org/) -->
<svg height="1080pt" version="1.1" viewBox="0 0 720 1080" width="720pt" xmlns="http://www.w3.org/2000/svg" xmlns:xlink="http://www.w3.org/1999/xlink">
 <defs>
  <style type="text/css">
*{stroke-linecap:butt;stroke-linejoin:round;}
  </style>
 </defs>
 <g id="figure_1">
  <g id="patch_1">
   <path d="M 0 1080 
L 720 1080 
L 720 0 
L 0 0 
z
" style="fill:#ffffff;"/>
  </g>
  <g id="axes_1">
   <g id="patch_2">
    <path d="M 73.73 1038.04 
L 701.28 1038.04 
L 701.28 26.88 
L 73.73 26.88 
z
" style="fill:#ffffff;"/>
   </g>
   <g id="PathCollection_1">
    <path clip-path="url(#pfae33f4a70)" d="M 113.558949 999.0012 
C 115.434218 999.0012 117.232934 998.256148 118.558949 996.930132 
C 119.884965 995.604117 120.630017 993.805402 120.630017 991.930132 
C 120.630017 990.054863 119.884965 988.256148 118.558949 986.930132 
C 117.232934 985.604117 115.434218 984.859065 113.558949 984.859065 
C 111.68368 984.859065 109.884965 985.604117 108.558949 986.930132 
C 107.232934 988.256148 106.487881 990.054863 106.487881 991.930132 
C 106.487881 993.805402 107.232934 995.604117 108.558949 996.930132 
C 109.884965 998.256148 111.68368 999.0012 113.558949 999.0012 
z
" style="fill:#ff0000;fill-opacity:0.7;stroke:#ff0000;stroke-opacity:0.7;"/>
    <path clip-path="url(#pfae33f4a70)" d="M 290.688077 974.818562 
C 292.563346 974.818562 294.362062 974.073509 295.688077 972.747494 
C 297.014093 971.421478 297.759145 969.622763 297.759145 967.747494 
C 297.759145 965.872225 297.014093 964.073509 295.688077 962.747494 
C 294.362062 961.421478 292.563346 960.676426 290.688077 960.676426 
C 288.812808 960.676426 287.014093 961.421478 285.688077 962.747494 
C 284.362062 964.073509 283.617009 965.872225 283.617009 967.747494 
C 283.617009 969.622763 284.362062 971.421478 285.688077 972.747494 
C 287.014093 974.073509 288.812808 974.818562 290.688077 974.818562 
z
" style="fill:#ff0000;fill-opacity:0.7;stroke:#ff0000;stroke-opacity:0.7;"/>
    <path clip-path="url(#pfae33f4a70)" d="M 304.130129 950.635923 
C 306.005398 950.635923 307.804114 949.890871 309.130129 948.564855 
C 310.456145 947.23884 311.201197 945.440124 311.201197 943.564855 
C 311.201197 941.689586 310.456145 939.890871 309.130129 938.564855 
C 307.804114 937.23884 306.005398 936.493787 304.130129 936.493787 
C 302.25486 936.493787 300.456145 937.23884 299.130129 938.564855 
C 297.804114 939.890871 297.059061 941.689586 297.059061 943.564855 
C 297.059061 945.440124 297.804114 947.23884 299.130129 948.564855 
C 300.456145 949.890871 302.25486 950.635923 304.130129 950.635923 
z
" style="fill:#ff0000;fill-opacity:0.7;stroke:#ff0000;stroke-opacity:0.7;"/>
    <path clip-path="url(#pfae33f4a70)" d="M 306.430047 926.453285 
C 308.305316 926.453285 310.104031 925.708232 311.430047 924.382217 
C 312.756062 923.056201 313.501115 921.257486 313.501115 919.382217 
C 313.501115 917.506948 312.756062 915.708232 311.430047 914.382217 
C 310.104031 913.056201 308.305316 912.311149 306.430047 912.311149 
C 304.554778 912.311149 302.756062 913.056201 301.430047 914.382217 
C 300.104031 915.708232 299.358979 917.506948 299.358979 919.382217 
C 299.358979 921.257486 300.104031 923.056201 301.430047 924.382217 
C 302.756062 925.708232 304.554778 926.453285 306.430047 926.453285 
z
" style="fill:#ff0000;fill-opacity:0.7;stroke:#ff0000;stroke-opacity:0.7;"/>
    <path clip-path="url(#pfae33f4a70)" d="M 312.672147 902.270646 
C 314.547417 902.270646 316.346132 901.525594 317.672147 900.199578 
C 318.998163 898.873563 319.743215 897.074847 319.743215 895.199578 
C 319.743215 893.324309 318.998163 891.525594 317.672147 890.199578 
C 316.346132 888.873563 314.547417 888.12851 312.672147 888.12851 
C 310.796878 888.12851 308.998163 888.873563 307.672147 890.199578 
C 306.346132 891.525594 305.60108 893.324309 305.60108 895.199578 
C 305.60108 897.074847 306.346132 898.873563 307.672147 900.199578 
C 308.998163 901.525594 310.796878 902.270646 312.672147 902.270646 
z
" style="fill:#ff0000;fill-opacity:0.7;stroke:#ff0000;stroke-opacity:0.7;"/>
    <path clip-path="url(#pfae33f4a70)" d="M 321.501329 878.088007 
C 323.376598 878.088007 325.175314 877.342955 326.501329 876.01694 
C 327.827345 874.690924 328.572397 872.892209 328.572397 871.01694 
C 328.572397 869.141671 327.827345 867.342955 326.501329 866.01694 
C 325.175314 864.690924 323.376598 863.945872 321.501329 863.945872 
C 319.62606 863.945872 317.827345 864.690924 316.501329 866.01694 
C 315.175314 867.342955 314.430261 869.141671 314.430261 871.01694 
C 314.430261 872.892209 315.175314 874.690924 316.501329 876.01694 
C 317.827345 877.342955 319.62606 878.088007 321.501329 878.088007 
z
" style="fill:#ff0000;fill-opacity:0.7;stroke:#ff0000;stroke-opacity:0.7;"/>
    <path clip-path="url(#pfae33f4a70)" d="M 322.971857 853.905369 
C 324.847127 853.905369 326.645842 853.160317 327.971857 851.834301 
C 329.297873 850.508286 330.042925 848.70957 330.042925 846.834301 
C 330.042925 844.959032 329.297873 843.160317 327.971857 841.834301 
C 326.645842 840.508286 324.847127 839.763233 322.971857 839.763233 
C 321.096588 839.763233 319.297873 840.508286 317.971857 841.834301 
C 316.645842 843.160317 315.90079 844.959032 315.90079 846.834301 
C 315.90079 848.70957 316.645842 850.508286 317.971857 851.834301 
C 319.297873 853.160317 321.096588 853.905369 322.971857 853.905369 
z
" style="fill:#ff0000;fill-opacity:0.7;stroke:#ff0000;stroke-opacity:0.7;"/>
    <path clip-path="url(#pfae33f4a70)" d="M 323.353146 829.72273 
C 325.228415 829.72273 327.027131 828.977678 328.353146 827.651663 
C 329.679162 826.325647 330.424214 824.526932 330.424214 822.651663 
C 330.424214 820.776393 329.679162 818.977678 328.353146 817.651663 
C 327.027131 816.325647 325.228415 815.580595 323.353146 815.580595 
C 321.477877 815.580595 319.679162 816.325647 318.353146 817.651663 
C 317.027131 818.977678 316.282078 820.776393 316.282078 822.651663 
C 316.282078 824.526932 317.027131 826.325647 318.353146 827.651663 
C 319.679162 828.977678 321.477877 829.72273 323.353146 829.72273 
z
" style="fill:#ff0000;fill-opacity:0.7;stroke:#ff0000;stroke-opacity:0.7;"/>
    <path clip-path="url(#pfae33f4a70)" d="M 325.048943 805.540092 
C 326.924212 805.540092 328.722927 804.79504 330.048943 803.469024 
C 331.374958 802.143009 332.120011 800.344293 332.120011 798.469024 
C 332.120011 796.593755 331.374958 794.79504 330.048943 793.469024 
C 328.722927 792.143009 326.924212 791.397956 325.048943 791.397956 
C 323.173674 791.397956 321.374958 792.143009 320.048943 793.469024 
C 318.722927 794.79504 317.977875 796.593755 317.977875 798.469024 
C 317.977875 800.344293 318.722927 802.143009 320.048943 803.469024 
C 321.374958 804.79504 323.173674 805.540092 325.048943 805.540092 
z
" style="fill:#ff0000;fill-opacity:0.7;stroke:#ff0000;stroke-opacity:0.7;"/>
    <path clip-path="url(#pfae33f4a70)" d="M 331.217229 781.357453 
C 333.092498 781.357453 334.891213 780.612401 336.217229 779.286385 
C 337.543244 777.96037 338.288297 776.161655 338.288297 774.286385 
C 338.288297 772.411116 337.543244 770.612401 336.217229 769.286385 
C 334.891213 767.96037 333.092498 767.215318 331.217229 767.215318 
C 329.34196 767.215318 327.543244 767.96037 326.217229 769.286385 
C 324.891213 770.612401 324.146161 772.411116 324.146161 774.286385 
C 324.146161 776.161655 324.891213 777.96037 326.217229 779.286385 
C 327.543244 780.612401 329.34196 781.357453 331.217229 781.357453 
z
" style="fill:#ff0000;fill-opacity:0.7;stroke:#ff0000;stroke-opacity:0.7;"/>
    <path clip-path="url(#pfae33f4a70)" d="M 331.632315 757.174815 
C 333.507584 757.174815 335.306299 756.429762 336.632315 755.103747 
C 337.95833 753.777731 338.703383 751.979016 338.703383 750.103747 
C 338.703383 748.228478 337.95833 746.429762 336.632315 745.103747 
C 335.306299 743.777731 333.507584 743.032679 331.632315 743.032679 
C 329.757046 743.032679 327.95833 743.777731 326.632315 745.103747 
C 325.306299 746.429762 324.561247 748.228478 324.561247 750.103747 
C 324.561247 751.979016 325.306299 753.777731 326.632315 755.103747 
C 327.95833 756.429762 329.757046 757.174815 331.632315 757.174815 
z
" style="fill:#ff0000;fill-opacity:0.7;stroke:#ff0000;stroke-opacity:0.7;"/>
    <path clip-path="url(#pfae33f4a70)" d="M 334.766365 732.992176 
C 336.641634 732.992176 338.440349 732.247124 339.766365 730.921108 
C 341.09238 729.595093 341.837432 727.796377 341.837432 725.921108 
C 341.837432 724.045839 341.09238 722.247124 339.766365 720.921108 
C 338.440349 719.595093 336.641634 718.850041 334.766365 718.850041 
C 332.891096 718.850041 331.09238 719.595093 329.766365 720.921108 
C 328.440349 722.247124 327.695297 724.045839 327.695297 725.921108 
C 327.695297 727.796377 328.440349 729.595093 329.766365 730.921108 
C 331.09238 732.247124 332.891096 732.992176 334.766365 732.992176 
z
" style="fill:#ff0000;fill-opacity:0.7;stroke:#ff0000;stroke-opacity:0.7;"/>
    <path clip-path="url(#pfae33f4a70)" d="M 336.248711 708.809538 
C 338.12398 708.809538 339.922696 708.064485 341.248711 706.73847 
C 342.574727 705.412454 343.319779 703.613739 343.319779 701.73847 
C 343.319779 699.863201 342.574727 698.064485 341.248711 696.73847 
C 339.922696 695.412454 338.12398 694.667402 336.248711 694.667402 
C 334.373442 694.667402 332.574727 695.412454 331.248711 696.73847 
C 329.922696 698.064485 329.177643 699.863201 329.177643 701.73847 
C 329.177643 703.613739 329.922696 705.412454 331.248711 706.73847 
C 332.574727 708.064485 334.373442 708.809538 336.248711 708.809538 
z
" style="fill:#ff0000;fill-opacity:0.7;stroke:#ff0000;stroke-opacity:0.7;"/>
    <path clip-path="url(#pfae33f4a70)" d="M 336.405232 684.626899 
C 338.280501 684.626899 340.079217 683.881847 341.405232 682.555831 
C 342.731248 681.229816 343.4763 679.4311 343.4763 677.555831 
C 343.4763 675.680562 342.731248 673.881847 341.405232 672.555831 
C 340.079217 671.229816 338.280501 670.484763 336.405232 670.484763 
C 334.529963 670.484763 332.731248 671.229816 331.405232 672.555831 
C 330.079217 673.881847 329.334164 675.680562 329.334164 677.555831 
C 329.334164 679.4311 330.079217 681.229816 331.405232 682.555831 
C 332.731248 683.881847 334.529963 684.626899 336.405232 684.626899 
z
" style="fill:#ff0000;fill-opacity:0.7;stroke:#ff0000;stroke-opacity:0.7;"/>
    <path clip-path="url(#pfae33f4a70)" d="M 339.137335 660.444261 
C 341.012604 660.444261 342.811319 659.699208 344.137335 658.373193 
C 345.46335 657.047177 346.208403 655.248462 346.208403 653.373193 
C 346.208403 651.497924 345.46335 649.699208 344.137335 648.373193 
C 342.811319 647.047177 341.012604 646.302125 339.137335 646.302125 
C 337.262066 646.302125 335.46335 647.047177 334.137335 648.373193 
C 332.811319 649.699208 332.066267 651.497924 332.066267 653.373193 
C 332.066267 655.248462 332.811319 657.047177 334.137335 658.373193 
C 335.46335 659.699208 337.262066 660.444261 339.137335 660.444261 
z
" style="fill:#ff0000;fill-opacity:0.7;stroke:#ff0000;stroke-opacity:0.7;"/>
    <path clip-path="url(#pfae33f4a70)" d="M 339.352013 636.261622 
C 341.227282 636.261622 343.025997 635.51657 344.352013 634.190554 
C 345.678028 632.864539 346.42308 631.065823 346.42308 629.190554 
C 346.42308 627.315285 345.678028 625.51657 344.352013 624.190554 
C 343.025997 622.864539 341.227282 622.119486 339.352013 622.119486 
C 337.476743 622.119486 335.678028 622.864539 334.352013 624.190554 
C 333.025997 625.51657 332.280945 627.315285 332.280945 629.190554 
C 332.280945 631.065823 333.025997 632.864539 334.352013 634.190554 
C 335.678028 635.51657 337.476743 636.261622 339.352013 636.261622 
z
" style="fill:#ff0000;fill-opacity:0.7;stroke:#ff0000;stroke-opacity:0.7;"/>
    <path clip-path="url(#pfae33f4a70)" d="M 341.564338 612.078983 
C 343.439607 612.078983 345.238322 611.333931 346.564338 610.007916 
C 347.890353 608.6819 348.635405 606.883185 348.635405 605.007916 
C 348.635405 603.132647 347.890353 601.333931 346.564338 600.007916 
C 345.238322 598.6819 343.439607 597.936848 341.564338 597.936848 
C 339.689069 597.936848 337.890353 598.6819 336.564338 600.007916 
C 335.238322 601.333931 334.49327 603.132647 334.49327 605.007916 
C 334.49327 606.883185 335.238322 608.6819 336.564338 610.007916 
C 337.890353 611.333931 339.689069 612.078983 341.564338 612.078983 
z
" style="fill:#ff0000;fill-opacity:0.7;stroke:#ff0000;stroke-opacity:0.7;"/>
    <path clip-path="url(#pfae33f4a70)" d="M 342.394715 587.896345 
C 344.269984 587.896345 346.068699 587.151293 347.394715 585.825277 
C 348.72073 584.499262 349.465782 582.700546 349.465782 580.825277 
C 349.465782 578.950008 348.72073 577.151293 347.394715 575.825277 
C 346.068699 574.499262 344.269984 573.754209 342.394715 573.754209 
C 340.519445 573.754209 338.72073 574.499262 337.394715 575.825277 
C 336.068699 577.151293 335.323647 578.950008 335.323647 580.825277 
C 335.323647 582.700546 336.068699 584.499262 337.394715 585.825277 
C 338.72073 587.151293 340.519445 587.896345 342.394715 587.896345 
z
" style="fill:#ff0000;fill-opacity:0.7;stroke:#ff0000;stroke-opacity:0.7;"/>
    <path clip-path="url(#pfae33f4a70)" d="M 345.312303 563.713706 
C 347.187572 563.713706 348.986287 562.968654 350.312303 561.642639 
C 351.638318 560.316623 352.38337 558.517908 352.38337 556.642639 
C 352.38337 554.767369 351.638318 552.968654 350.312303 551.642639 
C 348.986287 550.316623 347.187572 549.571571 345.312303 549.571571 
C 343.437034 549.571571 341.638318 550.316623 340.312303 551.642639 
C 338.986287 552.968654 338.241235 554.767369 338.241235 556.642639 
C 338.241235 558.517908 338.986287 560.316623 340.312303 561.642639 
C 341.638318 562.968654 343.437034 563.713706 345.312303 563.713706 
z
" style="fill:#ff0000;fill-opacity:0.7;stroke:#ff0000;stroke-opacity:0.7;"/>
    <path clip-path="url(#pfae33f4a70)" d="M 345.337959 539.531068 
C 347.213228 539.531068 349.011943 538.786015 350.337959 537.46 
C 351.663974 536.133984 352.409027 534.335269 352.409027 532.46 
C 352.409027 530.584731 351.663974 528.786015 350.337959 527.46 
C 349.011943 526.133984 347.213228 525.388932 345.337959 525.388932 
C 343.46269 525.388932 341.663974 526.133984 340.337959 527.46 
C 339.011943 528.786015 338.266891 530.584731 338.266891 532.46 
C 338.266891 534.335269 339.011943 536.133984 340.337959 537.46 
C 341.663974 538.786015 343.46269 539.531068 345.337959 539.531068 
z
" style="fill:#ff0000;fill-opacity:0.7;stroke:#ff0000;stroke-opacity:0.7;"/>
    <path clip-path="url(#pfae33f4a70)" d="M 345.368147 515.348429 
C 347.243416 515.348429 349.042132 514.603377 350.368147 513.277361 
C 351.694163 511.951346 352.439215 510.152631 352.439215 508.277361 
C 352.439215 506.402092 351.694163 504.603377 350.368147 503.277361 
C 349.042132 501.951346 347.243416 501.206294 345.368147 501.206294 
C 343.492878 501.206294 341.694163 501.951346 340.368147 503.277361 
C 339.042132 504.603377 338.29708 506.402092 338.29708 508.277361 
C 338.29708 510.152631 339.042132 511.951346 340.368147 513.277361 
C 341.694163 514.603377 343.492878 515.348429 345.368147 515.348429 
z
" style="fill:#ff0000;fill-opacity:0.7;stroke:#ff0000;stroke-opacity:0.7;"/>
    <path clip-path="url(#pfae33f4a70)" d="M 345.655679 491.165791 
C 347.530948 491.165791 349.329663 490.420738 350.655679 489.094723 
C 351.981694 487.768707 352.726747 485.969992 352.726747 484.094723 
C 352.726747 482.219454 351.981694 480.420738 350.655679 479.094723 
C 349.329663 477.768707 347.530948 477.023655 345.655679 477.023655 
C 343.78041 477.023655 341.981694 477.768707 340.655679 479.094723 
C 339.329663 480.420738 338.584611 482.219454 338.584611 484.094723 
C 338.584611 485.969992 339.329663 487.768707 340.655679 489.094723 
C 341.981694 490.420738 343.78041 491.165791 345.655679 491.165791 
z
" style="fill:#ff0000;fill-opacity:0.7;stroke:#ff0000;stroke-opacity:0.7;"/>
    <path clip-path="url(#pfae33f4a70)" d="M 345.772661 466.983152 
C 347.64793 466.983152 349.446645 466.2381 350.772661 464.912084 
C 352.098676 463.586069 352.843729 461.787353 352.843729 459.912084 
C 352.843729 458.036815 352.098676 456.2381 350.772661 454.912084 
C 349.446645 453.586069 347.64793 452.841017 345.772661 452.841017 
C 343.897392 452.841017 342.098676 453.586069 340.772661 454.912084 
C 339.446645 456.2381 338.701593 458.036815 338.701593 459.912084 
C 338.701593 461.787353 339.446645 463.586069 340.772661 464.912084 
C 342.098676 466.2381 343.897392 466.983152 345.772661 466.983152 
z
" style="fill:#ff0000;fill-opacity:0.7;stroke:#ff0000;stroke-opacity:0.7;"/>
    <path clip-path="url(#pfae33f4a70)" d="M 346.352224 442.800514 
C 348.227493 442.800514 350.026208 442.055461 351.352224 440.729446 
C 352.678239 439.40343 353.423292 437.604715 353.423292 435.729446 
C 353.423292 433.854177 352.678239 432.055461 351.352224 430.729446 
C 350.026208 429.40343 348.227493 428.658378 346.352224 428.658378 
C 344.476955 428.658378 342.678239 429.40343 341.352224 430.729446 
C 340.026208 432.055461 339.281156 433.854177 339.281156 435.729446 
C 339.281156 437.604715 340.026208 439.40343 341.352224 440.729446 
C 342.678239 442.055461 344.476955 442.800514 346.352224 442.800514 
z
" style="fill:#ff0000;fill-opacity:0.7;stroke:#ff0000;stroke-opacity:0.7;"/>
    <path clip-path="url(#pfae33f4a70)" d="M 346.446492 418.617875 
C 348.321761 418.617875 350.120476 417.872823 351.446492 416.546807 
C 352.772507 415.220792 353.51756 413.422076 353.51756 411.546807 
C 353.51756 409.671538 352.772507 407.872823 351.446492 406.546807 
C 350.120476 405.220792 348.321761 404.475739 346.446492 404.475739 
C 344.571223 404.475739 342.772507 405.220792 341.446492 406.546807 
C 340.120476 407.872823 339.375424 409.671538 339.375424 411.546807 
C 339.375424 413.422076 340.120476 415.220792 341.446492 416.546807 
C 342.772507 417.872823 344.571223 418.617875 346.446492 418.617875 
z
" style="fill:#ff0000;fill-opacity:0.7;stroke:#ff0000;stroke-opacity:0.7;"/>
    <path clip-path="url(#pfae33f4a70)" d="M 347.315366 394.435237 
C 349.190635 394.435237 350.98935 393.690184 352.315366 392.364169 
C 353.641381 391.038153 354.386434 389.239438 354.386434 387.364169 
C 354.386434 385.4889 353.641381 383.690184 352.315366 382.364169 
C 350.98935 381.038153 349.190635 380.293101 347.315366 380.293101 
C 345.440097 380.293101 343.641381 381.038153 342.315366 382.364169 
C 340.98935 383.690184 340.244298 385.4889 340.244298 387.364169 
C 340.244298 389.239438 340.98935 391.038153 342.315366 392.364169 
C 343.641381 393.690184 345.440097 394.435237 347.315366 394.435237 
z
" style="fill:#ff0000;fill-opacity:0.7;stroke:#ff0000;stroke-opacity:0.7;"/>
    <path clip-path="url(#pfae33f4a70)" d="M 347.589338 370.252598 
C 349.464607 370.252598 351.263322 369.507546 352.589338 368.18153 
C 353.915353 366.855515 354.660406 365.056799 354.660406 363.18153 
C 354.660406 361.306261 353.915353 359.507546 352.589338 358.18153 
C 351.263322 356.855515 349.464607 356.110462 347.589338 356.110462 
C 345.714069 356.110462 343.915353 356.855515 342.589338 358.18153 
C 341.263322 359.507546 340.51827 361.306261 340.51827 363.18153 
C 340.51827 365.056799 341.263322 366.855515 342.589338 368.18153 
C 343.915353 369.507546 345.714069 370.252598 347.589338 370.252598 
z
" style="fill:#ff0000;fill-opacity:0.7;stroke:#ff0000;stroke-opacity:0.7;"/>
    <path clip-path="url(#pfae33f4a70)" d="M 348.736776 346.069959 
C 350.612045 346.069959 352.41076 345.324907 353.736776 343.998892 
C 355.062791 342.672876 355.807844 340.874161 355.807844 338.998892 
C 355.807844 337.123623 355.062791 335.324907 353.736776 333.998892 
C 352.41076 332.672876 350.612045 331.927824 348.736776 331.927824 
C 346.861507 331.927824 345.062791 332.672876 343.736776 333.998892 
C 342.41076 335.324907 341.665708 337.123623 341.665708 338.998892 
C 341.665708 340.874161 342.41076 342.672876 343.736776 343.998892 
C 345.062791 345.324907 346.861507 346.069959 348.736776 346.069959 
z
" style="fill:#ff0000;fill-opacity:0.7;stroke:#ff0000;stroke-opacity:0.7;"/>
    <path clip-path="url(#pfae33f4a70)" d="M 348.831728 321.887321 
C 350.706997 321.887321 352.505712 321.142269 353.831728 319.816253 
C 355.157743 318.490238 355.902796 316.691522 355.902796 314.816253 
C 355.902796 312.940984 355.157743 311.142269 353.831728 309.816253 
C 352.505712 308.490238 350.706997 307.745185 348.831728 307.745185 
C 346.956459 307.745185 345.157743 308.490238 343.831728 309.816253 
C 342.505712 311.142269 341.76066 312.940984 341.76066 314.816253 
C 341.76066 316.691522 342.505712 318.490238 343.831728 319.816253 
C 345.157743 321.142269 346.956459 321.887321 348.831728 321.887321 
z
" style="fill:#ff0000;fill-opacity:0.7;stroke:#ff0000;stroke-opacity:0.7;"/>
    <path clip-path="url(#pfae33f4a70)" d="M 349.020752 297.704682 
C 350.896022 297.704682 352.694737 296.95963 354.020752 295.633615 
C 355.346768 294.307599 356.09182 292.508884 356.09182 290.633615 
C 356.09182 288.758345 355.346768 286.95963 354.020752 285.633615 
C 352.694737 284.307599 350.896022 283.562547 349.020752 283.562547 
C 347.145483 283.562547 345.346768 284.307599 344.020752 285.633615 
C 342.694737 286.95963 341.949685 288.758345 341.949685 290.633615 
C 341.949685 292.508884 342.694737 294.307599 344.020752 295.633615 
C 345.346768 296.95963 347.145483 297.704682 349.020752 297.704682 
z
" style="fill:#ff0000;fill-opacity:0.7;stroke:#ff0000;stroke-opacity:0.7;"/>
    <path clip-path="url(#pfae33f4a70)" d="M 349.505338 273.522044 
C 351.380607 273.522044 353.179323 272.776991 354.505338 271.450976 
C 355.831354 270.12496 356.576406 268.326245 356.576406 266.450976 
C 356.576406 264.575707 355.831354 262.776991 354.505338 261.450976 
C 353.179323 260.12496 351.380607 259.379908 349.505338 259.379908 
C 347.630069 259.379908 345.831354 260.12496 344.505338 261.450976 
C 343.179323 262.776991 342.43427 264.575707 342.43427 266.450976 
C 342.43427 268.326245 343.179323 270.12496 344.505338 271.450976 
C 345.831354 272.776991 347.630069 273.522044 349.505338 273.522044 
z
" style="fill:#ff0000;fill-opacity:0.7;stroke:#ff0000;stroke-opacity:0.7;"/>
    <path clip-path="url(#pfae33f4a70)" d="M 349.519326 249.339405 
C 351.394595 249.339405 353.19331 248.594353 354.519326 247.268337 
C 355.845341 245.942322 356.590393 244.143607 356.590393 242.268337 
C 356.590393 240.393068 355.845341 238.594353 354.519326 237.268337 
C 353.19331 235.942322 351.394595 235.19727 349.519326 235.19727 
C 347.644057 235.19727 345.845341 235.942322 344.519326 237.268337 
C 343.19331 238.594353 342.448258 240.393068 342.448258 242.268337 
C 342.448258 244.143607 343.19331 245.942322 344.519326 247.268337 
C 345.845341 248.594353 347.644057 249.339405 349.519326 249.339405 
z
" style="fill:#ff0000;fill-opacity:0.7;stroke:#ff0000;stroke-opacity:0.7;"/>
    <path clip-path="url(#pfae33f4a70)" d="M 350.349844 225.156767 
C 352.225113 225.156767 354.023828 224.411714 355.349844 223.085699 
C 356.675859 221.759683 357.420911 219.960968 357.420911 218.085699 
C 357.420911 216.21043 356.675859 214.411714 355.349844 213.085699 
C 354.023828 211.759683 352.225113 211.014631 350.349844 211.014631 
C 348.474574 211.014631 346.675859 211.759683 345.349844 213.085699 
C 344.023828 214.411714 343.278776 216.21043 343.278776 218.085699 
C 343.278776 219.960968 344.023828 221.759683 345.349844 223.085699 
C 346.675859 224.411714 348.474574 225.156767 350.349844 225.156767 
z
" style="fill:#ff0000;fill-opacity:0.7;stroke:#ff0000;stroke-opacity:0.7;"/>
    <path clip-path="url(#pfae33f4a70)" d="M 350.382092 200.974128 
C 352.257361 200.974128 354.056077 200.229076 355.382092 198.90306 
C 356.708108 197.577045 357.45316 195.778329 357.45316 193.90306 
C 357.45316 192.027791 356.708108 190.229076 355.382092 188.90306 
C 354.056077 187.577045 352.257361 186.831993 350.382092 186.831993 
C 348.506823 186.831993 346.708108 187.577045 345.382092 188.90306 
C 344.056077 190.229076 343.311024 192.027791 343.311024 193.90306 
C 343.311024 195.778329 344.056077 197.577045 345.382092 198.90306 
C 346.708108 200.229076 348.506823 200.974128 350.382092 200.974128 
z
" style="fill:#ff0000;fill-opacity:0.7;stroke:#ff0000;stroke-opacity:0.7;"/>
    <path clip-path="url(#pfae33f4a70)" d="M 351.086326 176.79149 
C 352.961595 176.79149 354.76031 176.046437 356.086326 174.720422 
C 357.412341 173.394406 358.157393 171.595691 358.157393 169.720422 
C 358.157393 167.845153 357.412341 166.046437 356.086326 164.720422 
C 354.76031 163.394406 352.961595 162.649354 351.086326 162.649354 
C 349.211056 162.649354 347.412341 163.394406 346.086326 164.720422 
C 344.76031 166.046437 344.015258 167.845153 344.015258 169.720422 
C 344.015258 171.595691 344.76031 173.394406 346.086326 174.720422 
C 347.412341 176.046437 349.211056 176.79149 351.086326 176.79149 
z
" style="fill:#ff0000;fill-opacity:0.7;stroke:#ff0000;stroke-opacity:0.7;"/>
    <path clip-path="url(#pfae33f4a70)" d="M 354.597758 152.608851 
C 356.473027 152.608851 358.271742 151.863799 359.597758 150.537783 
C 360.923773 149.211768 361.668826 147.413052 361.668826 145.537783 
C 361.668826 143.662514 360.923773 141.863799 359.597758 140.537783 
C 358.271742 139.211768 356.473027 138.466715 354.597758 138.466715 
C 352.722489 138.466715 350.923773 139.211768 349.597758 140.537783 
C 348.271742 141.863799 347.52669 143.662514 347.52669 145.537783 
C 347.52669 147.413052 348.271742 149.211768 349.597758 150.537783 
C 350.923773 151.863799 352.722489 152.608851 354.597758 152.608851 
z
" style="fill:#ff0000;fill-opacity:0.7;stroke:#ff0000;stroke-opacity:0.7;"/>
    <path clip-path="url(#pfae33f4a70)" d="M 355.565461 128.426213 
C 357.44073 128.426213 359.239446 127.68116 360.565461 126.355145 
C 361.891477 125.029129 362.636529 123.230414 362.636529 121.355145 
C 362.636529 119.479876 361.891477 117.68116 360.565461 116.355145 
C 359.239446 115.029129 357.44073 114.284077 355.565461 114.284077 
C 353.690192 114.284077 351.891477 115.029129 350.565461 116.355145 
C 349.239446 117.68116 348.494394 119.479876 348.494394 121.355145 
C 348.494394 123.230414 349.239446 125.029129 350.565461 126.355145 
C 351.891477 127.68116 353.690192 128.426213 355.565461 128.426213 
z
" style="fill:#ff0000;fill-opacity:0.7;stroke:#ff0000;stroke-opacity:0.7;"/>
    <path clip-path="url(#pfae33f4a70)" d="M 398.397551 104.243574 
C 400.27282 104.243574 402.071535 103.498522 403.397551 102.172506 
C 404.723566 100.846491 405.468618 99.047775 405.468618 97.172506 
C 405.468618 95.297237 404.723566 93.498522 403.397551 92.172506 
C 402.071535 90.846491 400.27282 90.101438 398.397551 90.101438 
C 396.522281 90.101438 394.723566 90.846491 393.397551 92.172506 
C 392.071535 93.498522 391.326483 95.297237 391.326483 97.172506 
C 391.326483 99.047775 392.071535 100.846491 393.397551 102.172506 
C 394.723566 103.498522 396.522281 104.243574 398.397551 104.243574 
z
" style="fill:#ff0000;fill-opacity:0.7;stroke:#ff0000;stroke-opacity:0.7;"/>
    <path clip-path="url(#pfae33f4a70)" d="M 428.019573 80.060935 
C 429.894842 80.060935 431.693557 79.315883 433.019573 77.989868 
C 434.345588 76.663852 435.09064 74.865137 435.09064 72.989868 
C 435.09064 71.114598 434.345588 69.315883 433.019573 67.989868 
C 431.693557 66.663852 429.894842 65.9188 428.019573 65.9188 
C 426.144303 65.9188 424.345588 66.663852 423.019573 67.989868 
C 421.693557 69.315883 420.948505 71.114598 420.948505 72.989868 
C 420.948505 74.865137 421.693557 76.663852 423.019573 77.989868 
C 424.345588 79.315883 426.144303 80.060935 428.019573 80.060935 
z
" style="fill:#ff0000;fill-opacity:0.7;stroke:#ff0000;stroke-opacity:0.7;"/>
   </g>
   <g id="matplotlib.axis_1">
    <g id="xtick_1">
     <g id="line2d_1">
      <defs>
       <path d="M 0 0 
L 0 3.5 
" id="m6be35dd56e" style="stroke:#000000;stroke-width:0.8;"/>
      </defs>
      <g>
       <use style="stroke:#000000;stroke-width:0.8;" x="73.73" xlink:href="#m6be35dd56e" y="1038.04"/>
      </g>
     </g>
     <g id="text_1">
      <!-- 0.1 -->
      <defs>
       <path d="M 31.78125 66.40625 
Q 24.171875 66.40625 20.328125 58.90625 
Q 16.5 51.421875 16.5 36.375 
Q 16.5 21.390625 20.328125 13.890625 
Q 24.171875 6.390625 31.78125 6.390625 
Q 39.453125 6.390625 43.28125 13.890625 
Q 47.125 21.390625 47.125 36.375 
Q 47.125 51.421875 43.28125 58.90625 
Q 39.453125 66.40625 31.78125 66.40625 
z
M 31.78125 74.21875 
Q 44.046875 74.21875 50.515625 64.515625 
Q 56.984375 54.828125 56.984375 36.375 
Q 56.984375 17.96875 50.515625 8.265625 
Q 44.046875 -1.421875 31.78125 -1.421875 
Q 19.53125 -1.421875 13.0625 8.265625 
Q 6.59375 17.96875 6.59375 36.375 
Q 6.59375 54.828125 13.0625 64.515625 
Q 19.53125 74.21875 31.78125 74.21875 
z
" id="DejaVuSans-48"/>
       <path d="M 10.6875 12.40625 
L 21 12.40625 
L 21 0 
L 10.6875 0 
z
" id="DejaVuSans-46"/>
       <path d="M 12.40625 8.296875 
L 28.515625 8.296875 
L 28.515625 63.921875 
L 10.984375 60.40625 
L 10.984375 69.390625 
L 28.421875 72.90625 
L 38.28125 72.90625 
L 38.28125 8.296875 
L 54.390625 8.296875 
L 54.390625 0 
L 12.40625 0 
z
" id="DejaVuSans-49"/>
      </defs>
      <g transform="translate(65.778438 1052.638438)scale(0.1 -0.1)">
       <use xlink:href="#DejaVuSans-48"/>
       <use x="63.623047" xlink:href="#DejaVuSans-46"/>
       <use x="95.410156" xlink:href="#DejaVuSans-49"/>
      </g>
     </g>
    </g>
    <g id="xtick_2">
     <g id="line2d_2">
      <g>
       <use style="stroke:#000000;stroke-width:0.8;" x="152.17375" xlink:href="#m6be35dd56e" y="1038.04"/>
      </g>
     </g>
     <g id="text_2">
      <!-- 0.2 -->
      <defs>
       <path d="M 19.1875 8.296875 
L 53.609375 8.296875 
L 53.609375 0 
L 7.328125 0 
L 7.328125 8.296875 
Q 12.9375 14.109375 22.625 23.890625 
Q 32.328125 33.6875 34.8125 36.53125 
Q 39.546875 41.84375 41.421875 45.53125 
Q 43.3125 49.21875 43.3125 52.78125 
Q 43.3125 58.59375 39.234375 62.25 
Q 35.15625 65.921875 28.609375 65.921875 
Q 23.96875 65.921875 18.8125 64.3125 
Q 13.671875 62.703125 7.8125 59.421875 
L 7.8125 69.390625 
Q 13.765625 71.78125 18.9375 73 
Q 24.125 74.21875 28.421875 74.21875 
Q 39.75 74.21875 46.484375 68.546875 
Q 53.21875 62.890625 53.21875 53.421875 
Q 53.21875 48.921875 51.53125 44.890625 
Q 49.859375 40.875 45.40625 35.40625 
Q 44.1875 33.984375 37.640625 27.21875 
Q 31.109375 20.453125 19.1875 8.296875 
z
" id="DejaVuSans-50"/>
      </defs>
      <g transform="translate(144.222188 1052.638438)scale(0.1 -0.1)">
       <use xlink:href="#DejaVuSans-48"/>
       <use x="63.623047" xlink:href="#DejaVuSans-46"/>
       <use x="95.410156" xlink:href="#DejaVuSans-50"/>
      </g>
     </g>
    </g>
    <g id="xtick_3">
     <g id="line2d_3">
      <g>
       <use style="stroke:#000000;stroke-width:0.8;" x="230.6175" xlink:href="#m6be35dd56e" y="1038.04"/>
      </g>
     </g>
     <g id="text_3">
      <!-- 0.3 -->
      <defs>
       <path d="M 40.578125 39.3125 
Q 47.65625 37.796875 51.625 33 
Q 55.609375 28.21875 55.609375 21.1875 
Q 55.609375 10.40625 48.1875 4.484375 
Q 40.765625 -1.421875 27.09375 -1.421875 
Q 22.515625 -1.421875 17.65625 -0.515625 
Q 12.796875 0.390625 7.625 2.203125 
L 7.625 11.71875 
Q 11.71875 9.328125 16.59375 8.109375 
Q 21.484375 6.890625 26.8125 6.890625 
Q 36.078125 6.890625 40.9375 10.546875 
Q 45.796875 14.203125 45.796875 21.1875 
Q 45.796875 27.640625 41.28125 31.265625 
Q 36.765625 34.90625 28.71875 34.90625 
L 20.21875 34.90625 
L 20.21875 43.015625 
L 29.109375 43.015625 
Q 36.375 43.015625 40.234375 45.921875 
Q 44.09375 48.828125 44.09375 54.296875 
Q 44.09375 59.90625 40.109375 62.90625 
Q 36.140625 65.921875 28.71875 65.921875 
Q 24.65625 65.921875 20.015625 65.03125 
Q 15.375 64.15625 9.8125 62.3125 
L 9.8125 71.09375 
Q 15.4375 72.65625 20.34375 73.4375 
Q 25.25 74.21875 29.59375 74.21875 
Q 40.828125 74.21875 47.359375 69.109375 
Q 53.90625 64.015625 53.90625 55.328125 
Q 53.90625 49.265625 50.4375 45.09375 
Q 46.96875 40.921875 40.578125 39.3125 
z
" id="DejaVuSans-51"/>
      </defs>
      <g transform="translate(222.665938 1052.638438)scale(0.1 -0.1)">
       <use xlink:href="#DejaVuSans-48"/>
       <use x="63.623047" xlink:href="#DejaVuSans-46"/>
       <use x="95.410156" xlink:href="#DejaVuSans-51"/>
      </g>
     </g>
    </g>
    <g id="xtick_4">
     <g id="line2d_4">
      <g>
       <use style="stroke:#000000;stroke-width:0.8;" x="309.06125" xlink:href="#m6be35dd56e" y="1038.04"/>
      </g>
     </g>
     <g id="text_4">
      <!-- 0.4 -->
      <defs>
       <path d="M 37.796875 64.3125 
L 12.890625 25.390625 
L 37.796875 25.390625 
z
M 35.203125 72.90625 
L 47.609375 72.90625 
L 47.609375 25.390625 
L 58.015625 25.390625 
L 58.015625 17.1875 
L 47.609375 17.1875 
L 47.609375 0 
L 37.796875 0 
L 37.796875 17.1875 
L 4.890625 17.1875 
L 4.890625 26.703125 
z
" id="DejaVuSans-52"/>
      </defs>
      <g transform="translate(301.109688 1052.638438)scale(0.1 -0.1)">
       <use xlink:href="#DejaVuSans-48"/>
       <use x="63.623047" xlink:href="#DejaVuSans-46"/>
       <use x="95.410156" xlink:href="#DejaVuSans-52"/>
      </g>
     </g>
    </g>
    <g id="xtick_5">
     <g id="line2d_5">
      <g>
       <use style="stroke:#000000;stroke-width:0.8;" x="387.505" xlink:href="#m6be35dd56e" y="1038.04"/>
      </g>
     </g>
     <g id="text_5">
      <!-- 0.5 -->
      <defs>
       <path d="M 10.796875 72.90625 
L 49.515625 72.90625 
L 49.515625 64.59375 
L 19.828125 64.59375 
L 19.828125 46.734375 
Q 21.96875 47.46875 24.109375 47.828125 
Q 26.265625 48.1875 28.421875 48.1875 
Q 40.625 48.1875 47.75 41.5 
Q 54.890625 34.8125 54.890625 23.390625 
Q 54.890625 11.625 47.5625 5.09375 
Q 40.234375 -1.421875 26.90625 -1.421875 
Q 22.3125 -1.421875 17.546875 -0.640625 
Q 12.796875 0.140625 7.71875 1.703125 
L 7.71875 11.625 
Q 12.109375 9.234375 16.796875 8.0625 
Q 21.484375 6.890625 26.703125 6.890625 
Q 35.15625 6.890625 40.078125 11.328125 
Q 45.015625 15.765625 45.015625 23.390625 
Q 45.015625 31 40.078125 35.4375 
Q 35.15625 39.890625 26.703125 39.890625 
Q 22.75 39.890625 18.8125 39.015625 
Q 14.890625 38.140625 10.796875 36.28125 
z
" id="DejaVuSans-53"/>
      </defs>
      <g transform="translate(379.553437 1052.638438)scale(0.1 -0.1)">
       <use xlink:href="#DejaVuSans-48"/>
       <use x="63.623047" xlink:href="#DejaVuSans-46"/>
       <use x="95.410156" xlink:href="#DejaVuSans-53"/>
      </g>
     </g>
    </g>
    <g id="xtick_6">
     <g id="line2d_6">
      <g>
       <use style="stroke:#000000;stroke-width:0.8;" x="465.94875" xlink:href="#m6be35dd56e" y="1038.04"/>
      </g>
     </g>
     <g id="text_6">
      <!-- 0.6 -->
      <defs>
       <path d="M 33.015625 40.375 
Q 26.375 40.375 22.484375 35.828125 
Q 18.609375 31.296875 18.609375 23.390625 
Q 18.609375 15.53125 22.484375 10.953125 
Q 26.375 6.390625 33.015625 6.390625 
Q 39.65625 6.390625 43.53125 10.953125 
Q 47.40625 15.53125 47.40625 23.390625 
Q 47.40625 31.296875 43.53125 35.828125 
Q 39.65625 40.375 33.015625 40.375 
z
M 52.59375 71.296875 
L 52.59375 62.3125 
Q 48.875 64.0625 45.09375 64.984375 
Q 41.3125 65.921875 37.59375 65.921875 
Q 27.828125 65.921875 22.671875 59.328125 
Q 17.53125 52.734375 16.796875 39.40625 
Q 19.671875 43.65625 24.015625 45.921875 
Q 28.375 48.1875 33.59375 48.1875 
Q 44.578125 48.1875 50.953125 41.515625 
Q 57.328125 34.859375 57.328125 23.390625 
Q 57.328125 12.15625 50.6875 5.359375 
Q 44.046875 -1.421875 33.015625 -1.421875 
Q 20.359375 -1.421875 13.671875 8.265625 
Q 6.984375 17.96875 6.984375 36.375 
Q 6.984375 53.65625 15.1875 63.9375 
Q 23.390625 74.21875 37.203125 74.21875 
Q 40.921875 74.21875 44.703125 73.484375 
Q 48.484375 72.75 52.59375 71.296875 
z
" id="DejaVuSans-54"/>
      </defs>
      <g transform="translate(457.997187 1052.638438)scale(0.1 -0.1)">
       <use xlink:href="#DejaVuSans-48"/>
       <use x="63.623047" xlink:href="#DejaVuSans-46"/>
       <use x="95.410156" xlink:href="#DejaVuSans-54"/>
      </g>
     </g>
    </g>
    <g id="xtick_7">
     <g id="line2d_7">
      <g>
       <use style="stroke:#000000;stroke-width:0.8;" x="544.3925" xlink:href="#m6be35dd56e" y="1038.04"/>
      </g>
     </g>
     <g id="text_7">
      <!-- 0.7 -->
      <defs>
       <path d="M 8.203125 72.90625 
L 55.078125 72.90625 
L 55.078125 68.703125 
L 28.609375 0 
L 18.3125 0 
L 43.21875 64.59375 
L 8.203125 64.59375 
z
" id="DejaVuSans-55"/>
      </defs>
      <g transform="translate(536.440937 1052.638438)scale(0.1 -0.1)">
       <use xlink:href="#DejaVuSans-48"/>
       <use x="63.623047" xlink:href="#DejaVuSans-46"/>
       <use x="95.410156" xlink:href="#DejaVuSans-55"/>
      </g>
     </g>
    </g>
    <g id="xtick_8">
     <g id="line2d_8">
      <g>
       <use style="stroke:#000000;stroke-width:0.8;" x="622.83625" xlink:href="#m6be35dd56e" y="1038.04"/>
      </g>
     </g>
     <g id="text_8">
      <!-- 0.8 -->
      <defs>
       <path d="M 31.78125 34.625 
Q 24.75 34.625 20.71875 30.859375 
Q 16.703125 27.09375 16.703125 20.515625 
Q 16.703125 13.921875 20.71875 10.15625 
Q 24.75 6.390625 31.78125 6.390625 
Q 38.8125 6.390625 42.859375 10.171875 
Q 46.921875 13.96875 46.921875 20.515625 
Q 46.921875 27.09375 42.890625 30.859375 
Q 38.875 34.625 31.78125 34.625 
z
M 21.921875 38.8125 
Q 15.578125 40.375 12.03125 44.71875 
Q 8.5 49.078125 8.5 55.328125 
Q 8.5 64.0625 14.71875 69.140625 
Q 20.953125 74.21875 31.78125 74.21875 
Q 42.671875 74.21875 48.875 69.140625 
Q 55.078125 64.0625 55.078125 55.328125 
Q 55.078125 49.078125 51.53125 44.71875 
Q 48 40.375 41.703125 38.8125 
Q 48.828125 37.15625 52.796875 32.3125 
Q 56.78125 27.484375 56.78125 20.515625 
Q 56.78125 9.90625 50.3125 4.234375 
Q 43.84375 -1.421875 31.78125 -1.421875 
Q 19.734375 -1.421875 13.25 4.234375 
Q 6.78125 9.90625 6.78125 20.515625 
Q 6.78125 27.484375 10.78125 32.3125 
Q 14.796875 37.15625 21.921875 38.8125 
z
M 18.3125 54.390625 
Q 18.3125 48.734375 21.84375 45.5625 
Q 25.390625 42.390625 31.78125 42.390625 
Q 38.140625 42.390625 41.71875 45.5625 
Q 45.3125 48.734375 45.3125 54.390625 
Q 45.3125 60.0625 41.71875 63.234375 
Q 38.140625 66.40625 31.78125 66.40625 
Q 25.390625 66.40625 21.84375 63.234375 
Q 18.3125 60.0625 18.3125 54.390625 
z
" id="DejaVuSans-56"/>
      </defs>
      <g transform="translate(614.884688 1052.638438)scale(0.1 -0.1)">
       <use xlink:href="#DejaVuSans-48"/>
       <use x="63.623047" xlink:href="#DejaVuSans-46"/>
       <use x="95.410156" xlink:href="#DejaVuSans-56"/>
      </g>
     </g>
    </g>
    <g id="xtick_9">
     <g id="line2d_9">
      <g>
       <use style="stroke:#000000;stroke-width:0.8;" x="701.28" xlink:href="#m6be35dd56e" y="1038.04"/>
      </g>
     </g>
     <g id="text_9">
      <!-- 0.9 -->
      <defs>
       <path d="M 10.984375 1.515625 
L 10.984375 10.5 
Q 14.703125 8.734375 18.5 7.8125 
Q 22.3125 6.890625 25.984375 6.890625 
Q 35.75 6.890625 40.890625 13.453125 
Q 46.046875 20.015625 46.78125 33.40625 
Q 43.953125 29.203125 39.59375 26.953125 
Q 35.25 24.703125 29.984375 24.703125 
Q 19.046875 24.703125 12.671875 31.3125 
Q 6.296875 37.9375 6.296875 49.421875 
Q 6.296875 60.640625 12.9375 67.421875 
Q 19.578125 74.21875 30.609375 74.21875 
Q 43.265625 74.21875 49.921875 64.515625 
Q 56.59375 54.828125 56.59375 36.375 
Q 56.59375 19.140625 48.40625 8.859375 
Q 40.234375 -1.421875 26.421875 -1.421875 
Q 22.703125 -1.421875 18.890625 -0.6875 
Q 15.09375 0.046875 10.984375 1.515625 
z
M 30.609375 32.421875 
Q 37.25 32.421875 41.125 36.953125 
Q 45.015625 41.5 45.015625 49.421875 
Q 45.015625 57.28125 41.125 61.84375 
Q 37.25 66.40625 30.609375 66.40625 
Q 23.96875 66.40625 20.09375 61.84375 
Q 16.21875 57.28125 16.21875 49.421875 
Q 16.21875 41.5 20.09375 36.953125 
Q 23.96875 32.421875 30.609375 32.421875 
z
" id="DejaVuSans-57"/>
      </defs>
      <g transform="translate(693.328437 1052.638438)scale(0.1 -0.1)">
       <use xlink:href="#DejaVuSans-48"/>
       <use x="63.623047" xlink:href="#DejaVuSans-46"/>
       <use x="95.410156" xlink:href="#DejaVuSans-57"/>
      </g>
     </g>
    </g>
    <g id="text_10">
     <!-- Proporcao -->
     <defs>
      <path d="M 19.671875 64.796875 
L 19.671875 37.40625 
L 32.078125 37.40625 
Q 38.96875 37.40625 42.71875 40.96875 
Q 46.484375 44.53125 46.484375 51.125 
Q 46.484375 57.671875 42.71875 61.234375 
Q 38.96875 64.796875 32.078125 64.796875 
z
M 9.8125 72.90625 
L 32.078125 72.90625 
Q 44.34375 72.90625 50.609375 67.359375 
Q 56.890625 61.8125 56.890625 51.125 
Q 56.890625 40.328125 50.609375 34.8125 
Q 44.34375 29.296875 32.078125 29.296875 
L 19.671875 29.296875 
L 19.671875 0 
L 9.8125 0 
z
" id="DejaVuSans-80"/>
      <path d="M 41.109375 46.296875 
Q 39.59375 47.171875 37.8125 47.578125 
Q 36.03125 48 33.890625 48 
Q 26.265625 48 22.1875 43.046875 
Q 18.109375 38.09375 18.109375 28.8125 
L 18.109375 0 
L 9.078125 0 
L 9.078125 54.6875 
L 18.109375 54.6875 
L 18.109375 46.1875 
Q 20.953125 51.171875 25.484375 53.578125 
Q 30.03125 56 36.53125 56 
Q 37.453125 56 38.578125 55.875 
Q 39.703125 55.765625 41.0625 55.515625 
z
" id="DejaVuSans-114"/>
      <path d="M 30.609375 48.390625 
Q 23.390625 48.390625 19.1875 42.75 
Q 14.984375 37.109375 14.984375 27.296875 
Q 14.984375 17.484375 19.15625 11.84375 
Q 23.34375 6.203125 30.609375 6.203125 
Q 37.796875 6.203125 41.984375 11.859375 
Q 46.1875 17.53125 46.1875 27.296875 
Q 46.1875 37.015625 41.984375 42.703125 
Q 37.796875 48.390625 30.609375 48.390625 
z
M 30.609375 56 
Q 42.328125 56 49.015625 48.375 
Q 55.71875 40.765625 55.71875 27.296875 
Q 55.71875 13.875 49.015625 6.21875 
Q 42.328125 -1.421875 30.609375 -1.421875 
Q 18.84375 -1.421875 12.171875 6.21875 
Q 5.515625 13.875 5.515625 27.296875 
Q 5.515625 40.765625 12.171875 48.375 
Q 18.84375 56 30.609375 56 
z
" id="DejaVuSans-111"/>
      <path d="M 18.109375 8.203125 
L 18.109375 -20.796875 
L 9.078125 -20.796875 
L 9.078125 54.6875 
L 18.109375 54.6875 
L 18.109375 46.390625 
Q 20.953125 51.265625 25.265625 53.625 
Q 29.59375 56 35.59375 56 
Q 45.5625 56 51.78125 48.09375 
Q 58.015625 40.1875 58.015625 27.296875 
Q 58.015625 14.40625 51.78125 6.484375 
Q 45.5625 -1.421875 35.59375 -1.421875 
Q 29.59375 -1.421875 25.265625 0.953125 
Q 20.953125 3.328125 18.109375 8.203125 
z
M 48.6875 27.296875 
Q 48.6875 37.203125 44.609375 42.84375 
Q 40.53125 48.484375 33.40625 48.484375 
Q 26.265625 48.484375 22.1875 42.84375 
Q 18.109375 37.203125 18.109375 27.296875 
Q 18.109375 17.390625 22.1875 11.75 
Q 26.265625 6.109375 33.40625 6.109375 
Q 40.53125 6.109375 44.609375 11.75 
Q 48.6875 17.390625 48.6875 27.296875 
z
" id="DejaVuSans-112"/>
      <path d="M 48.78125 52.59375 
L 48.78125 44.1875 
Q 44.96875 46.296875 41.140625 47.34375 
Q 37.3125 48.390625 33.40625 48.390625 
Q 24.65625 48.390625 19.8125 42.84375 
Q 14.984375 37.3125 14.984375 27.296875 
Q 14.984375 17.28125 19.8125 11.734375 
Q 24.65625 6.203125 33.40625 6.203125 
Q 37.3125 6.203125 41.140625 7.25 
Q 44.96875 8.296875 48.78125 10.40625 
L 48.78125 2.09375 
Q 45.015625 0.34375 40.984375 -0.53125 
Q 36.96875 -1.421875 32.421875 -1.421875 
Q 20.0625 -1.421875 12.78125 6.34375 
Q 5.515625 14.109375 5.515625 27.296875 
Q 5.515625 40.671875 12.859375 48.328125 
Q 20.21875 56 33.015625 56 
Q 37.15625 56 41.109375 55.140625 
Q 45.0625 54.296875 48.78125 52.59375 
z
" id="DejaVuSans-99"/>
      <path d="M 34.28125 27.484375 
Q 23.390625 27.484375 19.1875 25 
Q 14.984375 22.515625 14.984375 16.5 
Q 14.984375 11.71875 18.140625 8.90625 
Q 21.296875 6.109375 26.703125 6.109375 
Q 34.1875 6.109375 38.703125 11.40625 
Q 43.21875 16.703125 43.21875 25.484375 
L 43.21875 27.484375 
z
M 52.203125 31.203125 
L 52.203125 0 
L 43.21875 0 
L 43.21875 8.296875 
Q 40.140625 3.328125 35.546875 0.953125 
Q 30.953125 -1.421875 24.3125 -1.421875 
Q 15.921875 -1.421875 10.953125 3.296875 
Q 6 8.015625 6 15.921875 
Q 6 25.140625 12.171875 29.828125 
Q 18.359375 34.515625 30.609375 34.515625 
L 43.21875 34.515625 
L 43.21875 35.40625 
Q 43.21875 41.609375 39.140625 45 
Q 35.0625 48.390625 27.6875 48.390625 
Q 23 48.390625 18.546875 47.265625 
Q 14.109375 46.140625 10.015625 43.890625 
L 10.015625 52.203125 
Q 14.9375 54.109375 19.578125 55.046875 
Q 24.21875 56 28.609375 56 
Q 40.484375 56 46.34375 49.84375 
Q 52.203125 43.703125 52.203125 31.203125 
z
" id="DejaVuSans-97"/>
     </defs>
     <g transform="translate(362.2175 1066.316563)scale(0.1 -0.1)">
      <use xlink:href="#DejaVuSans-80"/>
      <use x="60.287109" xlink:href="#DejaVuSans-114"/>
      <use x="101.369141" xlink:href="#DejaVuSans-111"/>
      <use x="162.550781" xlink:href="#DejaVuSans-112"/>
      <use x="226.027344" xlink:href="#DejaVuSans-111"/>
      <use x="287.208984" xlink:href="#DejaVuSans-114"/>
      <use x="328.291016" xlink:href="#DejaVuSans-99"/>
      <use x="383.271484" xlink:href="#DejaVuSans-97"/>
      <use x="444.550781" xlink:href="#DejaVuSans-111"/>
     </g>
    </g>
   </g>
   <g id="matplotlib.axis_2">
    <g id="ytick_1">
     <g id="line2d_10">
      <defs>
       <path d="M 0 0 
L -3.5 0 
" id="md760422a89" style="stroke:#000000;stroke-width:0.8;"/>
      </defs>
      <g>
       <use style="stroke:#000000;stroke-width:0.8;" x="73.73" xlink:href="#md760422a89" y="991.930132"/>
      </g>
     </g>
     <g id="text_11">
      <!-- NOVO -->
      <defs>
       <path d="M 9.8125 72.90625 
L 23.09375 72.90625 
L 55.421875 11.921875 
L 55.421875 72.90625 
L 64.984375 72.90625 
L 64.984375 0 
L 51.703125 0 
L 19.390625 60.984375 
L 19.390625 0 
L 9.8125 0 
z
" id="DejaVuSans-78"/>
       <path d="M 39.40625 66.21875 
Q 28.65625 66.21875 22.328125 58.203125 
Q 16.015625 50.203125 16.015625 36.375 
Q 16.015625 22.609375 22.328125 14.59375 
Q 28.65625 6.59375 39.40625 6.59375 
Q 50.140625 6.59375 56.421875 14.59375 
Q 62.703125 22.609375 62.703125 36.375 
Q 62.703125 50.203125 56.421875 58.203125 
Q 50.140625 66.21875 39.40625 66.21875 
z
M 39.40625 74.21875 
Q 54.734375 74.21875 63.90625 63.9375 
Q 73.09375 53.65625 73.09375 36.375 
Q 73.09375 19.140625 63.90625 8.859375 
Q 54.734375 -1.421875 39.40625 -1.421875 
Q 24.03125 -1.421875 14.8125 8.828125 
Q 5.609375 19.09375 5.609375 36.375 
Q 5.609375 53.65625 14.8125 63.9375 
Q 24.03125 74.21875 39.40625 74.21875 
z
" id="DejaVuSans-79"/>
       <path d="M 28.609375 0 
L 0.78125 72.90625 
L 11.078125 72.90625 
L 34.1875 11.53125 
L 57.328125 72.90625 
L 67.578125 72.90625 
L 39.796875 0 
z
" id="DejaVuSans-86"/>
      </defs>
      <g transform="translate(36.6675 995.729351)scale(0.1 -0.1)">
       <use xlink:href="#DejaVuSans-78"/>
       <use x="74.804688" xlink:href="#DejaVuSans-79"/>
       <use x="153.5" xlink:href="#DejaVuSans-86"/>
       <use x="221.892578" xlink:href="#DejaVuSans-79"/>
      </g>
     </g>
    </g>
    <g id="ytick_2">
     <g id="line2d_11">
      <g>
       <use style="stroke:#000000;stroke-width:0.8;" x="73.73" xlink:href="#md760422a89" y="967.747494"/>
      </g>
     </g>
     <g id="text_12">
      <!-- REDE -->
      <defs>
       <path d="M 44.390625 34.1875 
Q 47.5625 33.109375 50.5625 29.59375 
Q 53.5625 26.078125 56.59375 19.921875 
L 66.609375 0 
L 56 0 
L 46.6875 18.703125 
Q 43.0625 26.03125 39.671875 28.421875 
Q 36.28125 30.8125 30.421875 30.8125 
L 19.671875 30.8125 
L 19.671875 0 
L 9.8125 0 
L 9.8125 72.90625 
L 32.078125 72.90625 
Q 44.578125 72.90625 50.734375 67.671875 
Q 56.890625 62.453125 56.890625 51.90625 
Q 56.890625 45.015625 53.6875 40.46875 
Q 50.484375 35.9375 44.390625 34.1875 
z
M 19.671875 64.796875 
L 19.671875 38.921875 
L 32.078125 38.921875 
Q 39.203125 38.921875 42.84375 42.21875 
Q 46.484375 45.515625 46.484375 51.90625 
Q 46.484375 58.296875 42.84375 61.546875 
Q 39.203125 64.796875 32.078125 64.796875 
z
" id="DejaVuSans-82"/>
       <path d="M 9.8125 72.90625 
L 55.90625 72.90625 
L 55.90625 64.59375 
L 19.671875 64.59375 
L 19.671875 43.015625 
L 54.390625 43.015625 
L 54.390625 34.71875 
L 19.671875 34.71875 
L 19.671875 8.296875 
L 56.78125 8.296875 
L 56.78125 0 
L 9.8125 0 
z
" id="DejaVuSans-69"/>
       <path d="M 19.671875 64.796875 
L 19.671875 8.109375 
L 31.59375 8.109375 
Q 46.6875 8.109375 53.6875 14.9375 
Q 60.6875 21.78125 60.6875 36.53125 
Q 60.6875 51.171875 53.6875 57.984375 
Q 46.6875 64.796875 31.59375 64.796875 
z
M 9.8125 72.90625 
L 30.078125 72.90625 
Q 51.265625 72.90625 61.171875 64.09375 
Q 71.09375 55.28125 71.09375 36.53125 
Q 71.09375 17.671875 61.125 8.828125 
Q 51.171875 0 30.078125 0 
L 9.8125 0 
z
" id="DejaVuSans-68"/>
      </defs>
      <g transform="translate(39.444063 971.546713)scale(0.1 -0.1)">
       <use xlink:href="#DejaVuSans-82"/>
       <use x="69.482422" xlink:href="#DejaVuSans-69"/>
       <use x="132.666016" xlink:href="#DejaVuSans-68"/>
       <use x="209.667969" xlink:href="#DejaVuSans-69"/>
      </g>
     </g>
    </g>
    <g id="ytick_3">
     <g id="line2d_12">
      <g>
       <use style="stroke:#000000;stroke-width:0.8;" x="73.73" xlink:href="#md760422a89" y="943.564855"/>
      </g>
     </g>
     <g id="text_13">
      <!-- PCO -->
      <defs>
       <path d="M 64.40625 67.28125 
L 64.40625 56.890625 
Q 59.421875 61.53125 53.78125 63.8125 
Q 48.140625 66.109375 41.796875 66.109375 
Q 29.296875 66.109375 22.65625 58.46875 
Q 16.015625 50.828125 16.015625 36.375 
Q 16.015625 21.96875 22.65625 14.328125 
Q 29.296875 6.6875 41.796875 6.6875 
Q 48.140625 6.6875 53.78125 8.984375 
Q 59.421875 11.28125 64.40625 15.921875 
L 64.40625 5.609375 
Q 59.234375 2.09375 53.4375 0.328125 
Q 47.65625 -1.421875 41.21875 -1.421875 
Q 24.65625 -1.421875 15.125 8.703125 
Q 5.609375 18.84375 5.609375 36.375 
Q 5.609375 53.953125 15.125 64.078125 
Q 24.65625 74.21875 41.21875 74.21875 
Q 47.75 74.21875 53.53125 72.484375 
Q 59.328125 70.75 64.40625 67.28125 
z
" id="DejaVuSans-67"/>
      </defs>
      <g transform="translate(45.845625 947.364074)scale(0.1 -0.1)">
       <use xlink:href="#DejaVuSans-80"/>
       <use x="60.302734" xlink:href="#DejaVuSans-67"/>
       <use x="130.126953" xlink:href="#DejaVuSans-79"/>
      </g>
     </g>
    </g>
    <g id="ytick_4">
     <g id="line2d_13">
      <g>
       <use style="stroke:#000000;stroke-width:0.8;" x="73.73" xlink:href="#md760422a89" y="919.382217"/>
      </g>
     </g>
     <g id="text_14">
      <!-- PATRI -->
      <defs>
       <path d="M 34.1875 63.1875 
L 20.796875 26.90625 
L 47.609375 26.90625 
z
M 28.609375 72.90625 
L 39.796875 72.90625 
L 67.578125 0 
L 57.328125 0 
L 50.6875 18.703125 
L 17.828125 18.703125 
L 11.1875 0 
L 0.78125 0 
z
" id="DejaVuSans-65"/>
       <path d="M -0.296875 72.90625 
L 61.375 72.90625 
L 61.375 64.59375 
L 35.5 64.59375 
L 35.5 0 
L 25.59375 0 
L 25.59375 64.59375 
L -0.296875 64.59375 
z
" id="DejaVuSans-84"/>
       <path d="M 9.8125 72.90625 
L 19.671875 72.90625 
L 19.671875 0 
L 9.8125 0 
z
" id="DejaVuSans-73"/>
      </defs>
      <g transform="translate(37.87375 923.181436)scale(0.1 -0.1)">
       <use xlink:href="#DejaVuSans-80"/>
       <use x="60.208984" xlink:href="#DejaVuSans-65"/>
       <use x="128.507812" xlink:href="#DejaVuSans-84"/>
       <use x="189.591797" xlink:href="#DejaVuSans-82"/>
       <use x="259.074219" xlink:href="#DejaVuSans-73"/>
      </g>
     </g>
    </g>
    <g id="ytick_5">
     <g id="line2d_14">
      <g>
       <use style="stroke:#000000;stroke-width:0.8;" x="73.73" xlink:href="#md760422a89" y="895.199578"/>
      </g>
     </g>
     <g id="text_15">
      <!-- PROS -->
      <defs>
       <path d="M 53.515625 70.515625 
L 53.515625 60.890625 
Q 47.90625 63.578125 42.921875 64.890625 
Q 37.9375 66.21875 33.296875 66.21875 
Q 25.25 66.21875 20.875 63.09375 
Q 16.5 59.96875 16.5 54.203125 
Q 16.5 49.359375 19.40625 46.890625 
Q 22.3125 44.4375 30.421875 42.921875 
L 36.375 41.703125 
Q 47.40625 39.59375 52.65625 34.296875 
Q 57.90625 29 57.90625 20.125 
Q 57.90625 9.515625 50.796875 4.046875 
Q 43.703125 -1.421875 29.984375 -1.421875 
Q 24.8125 -1.421875 18.96875 -0.25 
Q 13.140625 0.921875 6.890625 3.21875 
L 6.890625 13.375 
Q 12.890625 10.015625 18.65625 8.296875 
Q 24.421875 6.59375 29.984375 6.59375 
Q 38.421875 6.59375 43.015625 9.90625 
Q 47.609375 13.234375 47.609375 19.390625 
Q 47.609375 24.75 44.3125 27.78125 
Q 41.015625 30.8125 33.5 32.328125 
L 27.484375 33.5 
Q 16.453125 35.6875 11.515625 40.375 
Q 6.59375 45.0625 6.59375 53.421875 
Q 6.59375 63.09375 13.40625 68.65625 
Q 20.21875 74.21875 32.171875 74.21875 
Q 37.3125 74.21875 42.625 73.28125 
Q 47.953125 72.359375 53.515625 70.515625 
z
" id="DejaVuSans-83"/>
      </defs>
      <g transform="translate(39.531563 898.998797)scale(0.1 -0.1)">
       <use xlink:href="#DejaVuSans-80"/>
       <use x="60.302734" xlink:href="#DejaVuSans-82"/>
       <use x="129.785156" xlink:href="#DejaVuSans-79"/>
       <use x="208.496094" xlink:href="#DejaVuSans-83"/>
      </g>
     </g>
    </g>
    <g id="ytick_6">
     <g id="line2d_15">
      <g>
       <use style="stroke:#000000;stroke-width:0.8;" x="73.73" xlink:href="#md760422a89" y="871.01694"/>
      </g>
     </g>
     <g id="text_16">
      <!-- PSD -->
      <g transform="translate(46.651875 874.816158)scale(0.1 -0.1)">
       <use xlink:href="#DejaVuSans-80"/>
       <use x="60.302734" xlink:href="#DejaVuSans-83"/>
       <use x="123.779297" xlink:href="#DejaVuSans-68"/>
      </g>
     </g>
    </g>
    <g id="ytick_7">
     <g id="line2d_16">
      <g>
       <use style="stroke:#000000;stroke-width:0.8;" x="73.73" xlink:href="#md760422a89" y="846.834301"/>
      </g>
     </g>
     <g id="text_17">
      <!-- PSL -->
      <defs>
       <path d="M 9.8125 72.90625 
L 19.671875 72.90625 
L 19.671875 8.296875 
L 55.171875 8.296875 
L 55.171875 0 
L 9.8125 0 
z
" id="DejaVuSans-76"/>
      </defs>
      <g transform="translate(48.78 850.63352)scale(0.1 -0.1)">
       <use xlink:href="#DejaVuSans-80"/>
       <use x="60.302734" xlink:href="#DejaVuSans-83"/>
       <use x="123.779297" xlink:href="#DejaVuSans-76"/>
      </g>
     </g>
    </g>
    <g id="ytick_8">
     <g id="line2d_17">
      <g>
       <use style="stroke:#000000;stroke-width:0.8;" x="73.73" xlink:href="#md760422a89" y="822.651663"/>
      </g>
     </g>
     <g id="text_18">
      <!-- PV -->
      <g transform="translate(53.859688 826.450881)scale(0.1 -0.1)">
       <use xlink:href="#DejaVuSans-80"/>
       <use x="60.302734" xlink:href="#DejaVuSans-86"/>
      </g>
     </g>
    </g>
    <g id="ytick_9">
     <g id="line2d_18">
      <g>
       <use style="stroke:#000000;stroke-width:0.8;" x="73.73" xlink:href="#md760422a89" y="798.469024"/>
      </g>
     </g>
     <g id="text_19">
      <!-- PPS -->
      <g transform="translate(48.322187 802.268243)scale(0.1 -0.1)">
       <use xlink:href="#DejaVuSans-80"/>
       <use x="60.302734" xlink:href="#DejaVuSans-80"/>
       <use x="120.605469" xlink:href="#DejaVuSans-83"/>
      </g>
     </g>
    </g>
    <g id="ytick_10">
     <g id="line2d_19">
      <g>
       <use style="stroke:#000000;stroke-width:0.8;" x="73.73" xlink:href="#md760422a89" y="774.286385"/>
      </g>
     </g>
     <g id="text_20">
      <!-- PODE -->
      <g transform="translate(38.809688 778.085604)scale(0.1 -0.1)">
       <use xlink:href="#DejaVuSans-80"/>
       <use x="60.302734" xlink:href="#DejaVuSans-79"/>
       <use x="139.013672" xlink:href="#DejaVuSans-68"/>
       <use x="216.015625" xlink:href="#DejaVuSans-69"/>
      </g>
     </g>
    </g>
    <g id="ytick_11">
     <g id="line2d_20">
      <g>
       <use style="stroke:#000000;stroke-width:0.8;" x="73.73" xlink:href="#md760422a89" y="750.103747"/>
      </g>
     </g>
     <g id="text_21">
      <!-- PTN -->
      <g transform="translate(47.11125 753.902966)scale(0.1 -0.1)">
       <use xlink:href="#DejaVuSans-80"/>
       <use x="60.302734" xlink:href="#DejaVuSans-84"/>
       <use x="121.386719" xlink:href="#DejaVuSans-78"/>
      </g>
     </g>
    </g>
    <g id="ytick_12">
     <g id="line2d_21">
      <g>
       <use style="stroke:#000000;stroke-width:0.8;" x="73.73" xlink:href="#md760422a89" y="725.921108"/>
      </g>
     </g>
     <g id="text_22">
      <!-- PSB -->
      <defs>
       <path d="M 19.671875 34.8125 
L 19.671875 8.109375 
L 35.5 8.109375 
Q 43.453125 8.109375 47.28125 11.40625 
Q 51.125 14.703125 51.125 21.484375 
Q 51.125 28.328125 47.28125 31.5625 
Q 43.453125 34.8125 35.5 34.8125 
z
M 19.671875 64.796875 
L 19.671875 42.828125 
L 34.28125 42.828125 
Q 41.5 42.828125 45.03125 45.53125 
Q 48.578125 48.25 48.578125 53.8125 
Q 48.578125 59.328125 45.03125 62.0625 
Q 41.5 64.796875 34.28125 64.796875 
z
M 9.8125 72.90625 
L 35.015625 72.90625 
Q 46.296875 72.90625 52.390625 68.21875 
Q 58.5 63.53125 58.5 54.890625 
Q 58.5 48.1875 55.375 44.234375 
Q 52.25 40.28125 46.1875 39.3125 
Q 53.46875 37.75 57.5 32.78125 
Q 61.53125 27.828125 61.53125 20.40625 
Q 61.53125 10.640625 54.890625 5.3125 
Q 48.25 0 35.984375 0 
L 9.8125 0 
z
" id="DejaVuSans-66"/>
      </defs>
      <g transform="translate(47.490938 729.720327)scale(0.1 -0.1)">
       <use xlink:href="#DejaVuSans-80"/>
       <use x="60.302734" xlink:href="#DejaVuSans-83"/>
       <use x="123.779297" xlink:href="#DejaVuSans-66"/>
      </g>
     </g>
    </g>
    <g id="ytick_13">
     <g id="line2d_22">
      <g>
       <use style="stroke:#000000;stroke-width:0.8;" x="73.73" xlink:href="#md760422a89" y="701.73847"/>
      </g>
     </g>
     <g id="text_23">
      <!-- PRTB -->
      <g transform="translate(40.794063 705.537689)scale(0.1 -0.1)">
       <use xlink:href="#DejaVuSans-80"/>
       <use x="60.302734" xlink:href="#DejaVuSans-82"/>
       <use x="129.675781" xlink:href="#DejaVuSans-84"/>
       <use x="190.759766" xlink:href="#DejaVuSans-66"/>
      </g>
     </g>
    </g>
    <g id="ytick_14">
     <g id="line2d_23">
      <g>
       <use style="stroke:#000000;stroke-width:0.8;" x="73.73" xlink:href="#md760422a89" y="677.555831"/>
      </g>
     </g>
     <g id="text_24">
      <!-- PPL -->
      <g transform="translate(49.09875 681.35505)scale(0.1 -0.1)">
       <use xlink:href="#DejaVuSans-80"/>
       <use x="60.302734" xlink:href="#DejaVuSans-80"/>
       <use x="120.605469" xlink:href="#DejaVuSans-76"/>
      </g>
     </g>
    </g>
    <g id="ytick_15">
     <g id="line2d_24">
      <g>
       <use style="stroke:#000000;stroke-width:0.8;" x="73.73" xlink:href="#md760422a89" y="653.373193"/>
      </g>
     </g>
     <g id="text_25">
      <!-- PTC -->
      <g transform="translate(47.6175 657.172411)scale(0.1 -0.1)">
       <use xlink:href="#DejaVuSans-80"/>
       <use x="60.302734" xlink:href="#DejaVuSans-84"/>
       <use x="121.308594" xlink:href="#DejaVuSans-67"/>
      </g>
     </g>
    </g>
    <g id="ytick_16">
     <g id="line2d_25">
      <g>
       <use style="stroke:#000000;stroke-width:0.8;" x="73.73" xlink:href="#md760422a89" y="629.190554"/>
      </g>
     </g>
     <g id="text_26">
      <!-- DEM -->
      <defs>
       <path d="M 9.8125 72.90625 
L 24.515625 72.90625 
L 43.109375 23.296875 
L 61.8125 72.90625 
L 76.515625 72.90625 
L 76.515625 0 
L 66.890625 0 
L 66.890625 64.015625 
L 48.09375 14.015625 
L 38.1875 14.015625 
L 19.390625 64.015625 
L 19.390625 0 
L 9.8125 0 
z
" id="DejaVuSans-77"/>
      </defs>
      <g transform="translate(44.083125 632.989773)scale(0.1 -0.1)">
       <use xlink:href="#DejaVuSans-68"/>
       <use x="77.001953" xlink:href="#DejaVuSans-69"/>
       <use x="140.185547" xlink:href="#DejaVuSans-77"/>
      </g>
     </g>
    </g>
    <g id="ytick_17">
     <g id="line2d_26">
      <g>
       <use style="stroke:#000000;stroke-width:0.8;" x="73.73" xlink:href="#md760422a89" y="605.007916"/>
      </g>
     </g>
     <g id="text_27">
      <!-- PSC -->
      <g transform="translate(47.369062 608.807134)scale(0.1 -0.1)">
       <use xlink:href="#DejaVuSans-80"/>
       <use x="60.302734" xlink:href="#DejaVuSans-83"/>
       <use x="123.779297" xlink:href="#DejaVuSans-67"/>
      </g>
     </g>
    </g>
    <g id="ytick_18">
     <g id="line2d_27">
      <g>
       <use style="stroke:#000000;stroke-width:0.8;" x="73.73" xlink:href="#md760422a89" y="580.825277"/>
      </g>
     </g>
     <g id="text_28">
      <!-- PHS -->
      <defs>
       <path d="M 9.8125 72.90625 
L 19.671875 72.90625 
L 19.671875 43.015625 
L 55.515625 43.015625 
L 55.515625 72.90625 
L 65.375 72.90625 
L 65.375 0 
L 55.515625 0 
L 55.515625 34.71875 
L 19.671875 34.71875 
L 19.671875 0 
L 9.8125 0 
z
" id="DejaVuSans-72"/>
      </defs>
      <g transform="translate(46.831563 584.624496)scale(0.1 -0.1)">
       <use xlink:href="#DejaVuSans-80"/>
       <use x="60.302734" xlink:href="#DejaVuSans-72"/>
       <use x="135.498047" xlink:href="#DejaVuSans-83"/>
      </g>
     </g>
    </g>
    <g id="ytick_19">
     <g id="line2d_28">
      <g>
       <use style="stroke:#000000;stroke-width:0.8;" x="73.73" xlink:href="#md760422a89" y="556.642639"/>
      </g>
     </g>
     <g id="text_29">
      <!-- PSDC -->
      <g transform="translate(39.669063 560.441857)scale(0.1 -0.1)">
       <use xlink:href="#DejaVuSans-80"/>
       <use x="60.302734" xlink:href="#DejaVuSans-83"/>
       <use x="123.779297" xlink:href="#DejaVuSans-68"/>
       <use x="200.78125" xlink:href="#DejaVuSans-67"/>
      </g>
     </g>
    </g>
    <g id="ytick_20">
     <g id="line2d_29">
      <g>
       <use style="stroke:#000000;stroke-width:0.8;" x="73.73" xlink:href="#md760422a89" y="532.46"/>
      </g>
     </g>
     <g id="text_30">
      <!-- PDT -->
      <g transform="translate(46.8925 536.259219)scale(0.1 -0.1)">
       <use xlink:href="#DejaVuSans-80"/>
       <use x="60.302734" xlink:href="#DejaVuSans-68"/>
       <use x="137.304688" xlink:href="#DejaVuSans-84"/>
      </g>
     </g>
    </g>
    <g id="ytick_21">
     <g id="line2d_30">
      <g>
       <use style="stroke:#000000;stroke-width:0.8;" x="73.73" xlink:href="#md760422a89" y="508.277361"/>
      </g>
     </g>
     <g id="text_31">
      <!-- DC -->
      <g transform="translate(52.047188 512.07658)scale(0.1 -0.1)">
       <use xlink:href="#DejaVuSans-68"/>
       <use x="77.001953" xlink:href="#DejaVuSans-67"/>
      </g>
     </g>
    </g>
    <g id="ytick_22">
     <g id="line2d_31">
      <g>
       <use style="stroke:#000000;stroke-width:0.8;" x="73.73" xlink:href="#md760422a89" y="484.094723"/>
      </g>
     </g>
     <g id="text_32">
      <!-- PP -->
      <g transform="translate(54.670625 487.893942)scale(0.1 -0.1)">
       <use xlink:href="#DejaVuSans-80"/>
       <use x="60.302734" xlink:href="#DejaVuSans-80"/>
      </g>
     </g>
    </g>
    <g id="ytick_23">
     <g id="line2d_32">
      <g>
       <use style="stroke:#000000;stroke-width:0.8;" x="73.73" xlink:href="#md760422a89" y="459.912084"/>
      </g>
     </g>
     <g id="text_33">
      <!-- PR -->
      <g transform="translate(53.751875 463.711303)scale(0.1 -0.1)">
       <use xlink:href="#DejaVuSans-80"/>
       <use x="60.302734" xlink:href="#DejaVuSans-82"/>
      </g>
     </g>
    </g>
    <g id="ytick_24">
     <g id="line2d_33">
      <g>
       <use style="stroke:#000000;stroke-width:0.8;" x="73.73" xlink:href="#md760422a89" y="435.729446"/>
      </g>
     </g>
     <g id="text_34">
      <!-- PT -->
      <g transform="translate(54.5925 439.528665)scale(0.1 -0.1)">
       <use xlink:href="#DejaVuSans-80"/>
       <use x="60.302734" xlink:href="#DejaVuSans-84"/>
      </g>
     </g>
    </g>
    <g id="ytick_25">
     <g id="line2d_34">
      <g>
       <use style="stroke:#000000;stroke-width:0.8;" x="73.73" xlink:href="#md760422a89" y="411.546807"/>
      </g>
     </g>
     <g id="text_35">
      <!-- PSDB -->
      <g transform="translate(39.790937 415.346026)scale(0.1 -0.1)">
       <use xlink:href="#DejaVuSans-80"/>
       <use x="60.302734" xlink:href="#DejaVuSans-83"/>
       <use x="123.779297" xlink:href="#DejaVuSans-68"/>
       <use x="200.78125" xlink:href="#DejaVuSans-66"/>
      </g>
     </g>
    </g>
    <g id="ytick_26">
     <g id="line2d_35">
      <g>
       <use style="stroke:#000000;stroke-width:0.8;" x="73.73" xlink:href="#md760422a89" y="387.364169"/>
      </g>
     </g>
     <g id="text_36">
      <!-- PC DO B -->
      <defs>
       <path id="DejaVuSans-32"/>
      </defs>
      <g transform="translate(24.928438 391.163387)scale(0.1 -0.1)">
       <use xlink:href="#DejaVuSans-80"/>
       <use x="60.302734" xlink:href="#DejaVuSans-67"/>
       <use x="130.126953" xlink:href="#DejaVuSans-32"/>
       <use x="161.914062" xlink:href="#DejaVuSans-68"/>
       <use x="238.916016" xlink:href="#DejaVuSans-79"/>
       <use x="317.626953" xlink:href="#DejaVuSans-32"/>
       <use x="349.414062" xlink:href="#DejaVuSans-66"/>
      </g>
     </g>
    </g>
    <g id="ytick_27">
     <g id="line2d_36">
      <g>
       <use style="stroke:#000000;stroke-width:0.8;" x="73.73" xlink:href="#md760422a89" y="363.18153"/>
      </g>
     </g>
     <g id="text_37">
      <!-- PRP -->
      <g transform="translate(47.722188 366.980749)scale(0.1 -0.1)">
       <use xlink:href="#DejaVuSans-80"/>
       <use x="60.302734" xlink:href="#DejaVuSans-82"/>
       <use x="129.785156" xlink:href="#DejaVuSans-80"/>
      </g>
     </g>
    </g>
    <g id="ytick_28">
     <g id="line2d_37">
      <g>
       <use style="stroke:#000000;stroke-width:0.8;" x="73.73" xlink:href="#md760422a89" y="338.998892"/>
      </g>
     </g>
     <g id="text_38">
      <!-- PSOL -->
      <g transform="translate(40.908125 342.79811)scale(0.1 -0.1)">
       <use xlink:href="#DejaVuSans-80"/>
       <use x="60.302734" xlink:href="#DejaVuSans-83"/>
       <use x="123.779297" xlink:href="#DejaVuSans-79"/>
       <use x="202.490234" xlink:href="#DejaVuSans-76"/>
      </g>
     </g>
    </g>
    <g id="ytick_29">
     <g id="line2d_38">
      <g>
       <use style="stroke:#000000;stroke-width:0.8;" x="73.73" xlink:href="#md760422a89" y="314.816253"/>
      </g>
     </g>
     <g id="text_39">
      <!-- AVANTE -->
      <g transform="translate(26.319063 318.615472)scale(0.1 -0.1)">
       <use xlink:href="#DejaVuSans-65"/>
       <use x="68.314453" xlink:href="#DejaVuSans-86"/>
       <use x="136.628906" xlink:href="#DejaVuSans-65"/>
       <use x="205.037109" xlink:href="#DejaVuSans-78"/>
       <use x="279.841797" xlink:href="#DejaVuSans-84"/>
       <use x="340.925781" xlink:href="#DejaVuSans-69"/>
      </g>
     </g>
    </g>
    <g id="ytick_30">
     <g id="line2d_39">
      <g>
       <use style="stroke:#000000;stroke-width:0.8;" x="73.73" xlink:href="#md760422a89" y="290.633615"/>
      </g>
     </g>
     <g id="text_40">
      <!-- PT DO B -->
      <g transform="translate(25.803438 294.432833)scale(0.1 -0.1)">
       <use xlink:href="#DejaVuSans-80"/>
       <use x="60.302734" xlink:href="#DejaVuSans-84"/>
       <use x="121.386719" xlink:href="#DejaVuSans-32"/>
       <use x="153.173828" xlink:href="#DejaVuSans-68"/>
       <use x="230.175781" xlink:href="#DejaVuSans-79"/>
       <use x="308.886719" xlink:href="#DejaVuSans-32"/>
       <use x="340.673828" xlink:href="#DejaVuSans-66"/>
      </g>
     </g>
    </g>
    <g id="ytick_31">
     <g id="line2d_40">
      <g>
       <use style="stroke:#000000;stroke-width:0.8;" x="73.73" xlink:href="#md760422a89" y="266.450976"/>
      </g>
     </g>
     <g id="text_41">
      <!-- MDB -->
      <g transform="translate(43.540937 270.250195)scale(0.1 -0.1)">
       <use xlink:href="#DejaVuSans-77"/>
       <use x="86.279297" xlink:href="#DejaVuSans-68"/>
       <use x="163.28125" xlink:href="#DejaVuSans-66"/>
      </g>
     </g>
    </g>
    <g id="ytick_32">
     <g id="line2d_41">
      <g>
       <use style="stroke:#000000;stroke-width:0.8;" x="73.73" xlink:href="#md760422a89" y="242.268337"/>
      </g>
     </g>
     <g id="text_42">
      <!-- PTB -->
      <g transform="translate(47.731563 246.067556)scale(0.1 -0.1)">
       <use xlink:href="#DejaVuSans-80"/>
       <use x="60.302734" xlink:href="#DejaVuSans-84"/>
       <use x="121.386719" xlink:href="#DejaVuSans-66"/>
      </g>
     </g>
    </g>
    <g id="ytick_33">
     <g id="line2d_42">
      <g>
       <use style="stroke:#000000;stroke-width:0.8;" x="73.73" xlink:href="#md760422a89" y="218.085699"/>
      </g>
     </g>
     <g id="text_43">
      <!-- PMDB -->
      <g transform="translate(37.51125 221.884918)scale(0.1 -0.1)">
       <use xlink:href="#DejaVuSans-80"/>
       <use x="60.302734" xlink:href="#DejaVuSans-77"/>
       <use x="146.582031" xlink:href="#DejaVuSans-68"/>
       <use x="223.583984" xlink:href="#DejaVuSans-66"/>
      </g>
     </g>
    </g>
    <g id="ytick_34">
     <g id="line2d_43">
      <g>
       <use style="stroke:#000000;stroke-width:0.8;" x="73.73" xlink:href="#md760422a89" y="193.90306"/>
      </g>
     </g>
     <g id="text_44">
      <!-- PCB -->
      <g transform="translate(46.856563 197.702279)scale(0.1 -0.1)">
       <use xlink:href="#DejaVuSans-80"/>
       <use x="60.302734" xlink:href="#DejaVuSans-67"/>
       <use x="130.126953" xlink:href="#DejaVuSans-66"/>
      </g>
     </g>
    </g>
    <g id="ytick_35">
     <g id="line2d_44">
      <g>
       <use style="stroke:#000000;stroke-width:0.8;" x="73.73" xlink:href="#md760422a89" y="169.720422"/>
      </g>
     </g>
     <g id="text_45">
      <!-- PMN -->
      <g transform="translate(44.590938 173.519641)scale(0.1 -0.1)">
       <use xlink:href="#DejaVuSans-80"/>
       <use x="60.302734" xlink:href="#DejaVuSans-77"/>
       <use x="146.582031" xlink:href="#DejaVuSans-78"/>
      </g>
     </g>
    </g>
    <g id="ytick_36">
     <g id="line2d_45">
      <g>
       <use style="stroke:#000000;stroke-width:0.8;" x="73.73" xlink:href="#md760422a89" y="145.537783"/>
      </g>
     </g>
     <g id="text_46">
      <!-- PSTU -->
      <defs>
       <path d="M 8.6875 72.90625 
L 18.609375 72.90625 
L 18.609375 28.609375 
Q 18.609375 16.890625 22.84375 11.734375 
Q 27.09375 6.59375 36.625 6.59375 
Q 46.09375 6.59375 50.34375 11.734375 
Q 54.59375 16.890625 54.59375 28.609375 
L 54.59375 72.90625 
L 64.5 72.90625 
L 64.5 27.390625 
Q 64.5 13.140625 57.4375 5.859375 
Q 50.390625 -1.421875 36.625 -1.421875 
Q 22.796875 -1.421875 15.734375 5.859375 
Q 8.6875 13.140625 8.6875 27.390625 
z
" id="DejaVuSans-85"/>
      </defs>
      <g transform="translate(40.925313 149.337002)scale(0.1 -0.1)">
       <use xlink:href="#DejaVuSans-80"/>
       <use x="60.302734" xlink:href="#DejaVuSans-83"/>
       <use x="123.779297" xlink:href="#DejaVuSans-84"/>
       <use x="184.863281" xlink:href="#DejaVuSans-85"/>
      </g>
     </g>
    </g>
    <g id="ytick_37">
     <g id="line2d_46">
      <g>
       <use style="stroke:#000000;stroke-width:0.8;" x="73.73" xlink:href="#md760422a89" y="121.355145"/>
      </g>
     </g>
     <g id="text_47">
      <!-- SD -->
      <g transform="translate(52.681563 125.154363)scale(0.1 -0.1)">
       <use xlink:href="#DejaVuSans-83"/>
       <use x="63.476562" xlink:href="#DejaVuSans-68"/>
      </g>
     </g>
    </g>
    <g id="ytick_38">
     <g id="line2d_47">
      <g>
       <use style="stroke:#000000;stroke-width:0.8;" x="73.73" xlink:href="#md760422a89" y="97.172506"/>
      </g>
     </g>
     <g id="text_48">
      <!-- PRB -->
      <g transform="translate(46.890938 100.971725)scale(0.1 -0.1)">
       <use xlink:href="#DejaVuSans-80"/>
       <use x="60.302734" xlink:href="#DejaVuSans-82"/>
       <use x="129.785156" xlink:href="#DejaVuSans-66"/>
      </g>
     </g>
    </g>
    <g id="ytick_39">
     <g id="line2d_48">
      <g>
       <use style="stroke:#000000;stroke-width:0.8;" x="73.73" xlink:href="#md760422a89" y="72.989868"/>
      </g>
     </g>
     <g id="text_49">
      <!-- PMB -->
      <g transform="translate(45.21125 76.789086)scale(0.1 -0.1)">
       <use xlink:href="#DejaVuSans-80"/>
       <use x="60.302734" xlink:href="#DejaVuSans-77"/>
       <use x="146.582031" xlink:href="#DejaVuSans-66"/>
      </g>
     </g>
    </g>
    <g id="text_50">
     <!-- Partidos -->
     <defs>
      <path d="M 18.3125 70.21875 
L 18.3125 54.6875 
L 36.8125 54.6875 
L 36.8125 47.703125 
L 18.3125 47.703125 
L 18.3125 18.015625 
Q 18.3125 11.328125 20.140625 9.421875 
Q 21.96875 7.515625 27.59375 7.515625 
L 36.8125 7.515625 
L 36.8125 0 
L 27.59375 0 
Q 17.1875 0 13.234375 3.875 
Q 9.28125 7.765625 9.28125 18.015625 
L 9.28125 47.703125 
L 2.6875 47.703125 
L 2.6875 54.6875 
L 9.28125 54.6875 
L 9.28125 70.21875 
z
" id="DejaVuSans-116"/>
      <path d="M 9.421875 54.6875 
L 18.40625 54.6875 
L 18.40625 0 
L 9.421875 0 
z
M 9.421875 75.984375 
L 18.40625 75.984375 
L 18.40625 64.59375 
L 9.421875 64.59375 
z
" id="DejaVuSans-105"/>
      <path d="M 45.40625 46.390625 
L 45.40625 75.984375 
L 54.390625 75.984375 
L 54.390625 0 
L 45.40625 0 
L 45.40625 8.203125 
Q 42.578125 3.328125 38.25 0.953125 
Q 33.9375 -1.421875 27.875 -1.421875 
Q 17.96875 -1.421875 11.734375 6.484375 
Q 5.515625 14.40625 5.515625 27.296875 
Q 5.515625 40.1875 11.734375 48.09375 
Q 17.96875 56 27.875 56 
Q 33.9375 56 38.25 53.625 
Q 42.578125 51.265625 45.40625 46.390625 
z
M 14.796875 27.296875 
Q 14.796875 17.390625 18.875 11.75 
Q 22.953125 6.109375 30.078125 6.109375 
Q 37.203125 6.109375 41.296875 11.75 
Q 45.40625 17.390625 45.40625 27.296875 
Q 45.40625 37.203125 41.296875 42.84375 
Q 37.203125 48.484375 30.078125 48.484375 
Q 22.953125 48.484375 18.875 42.84375 
Q 14.796875 37.203125 14.796875 27.296875 
z
" id="DejaVuSans-100"/>
      <path d="M 44.28125 53.078125 
L 44.28125 44.578125 
Q 40.484375 46.53125 36.375 47.5 
Q 32.28125 48.484375 27.875 48.484375 
Q 21.1875 48.484375 17.84375 46.4375 
Q 14.5 44.390625 14.5 40.28125 
Q 14.5 37.15625 16.890625 35.375 
Q 19.28125 33.59375 26.515625 31.984375 
L 29.59375 31.296875 
Q 39.15625 29.25 43.1875 25.515625 
Q 47.21875 21.78125 47.21875 15.09375 
Q 47.21875 7.46875 41.1875 3.015625 
Q 35.15625 -1.421875 24.609375 -1.421875 
Q 20.21875 -1.421875 15.453125 -0.5625 
Q 10.6875 0.296875 5.421875 2 
L 5.421875 11.28125 
Q 10.40625 8.6875 15.234375 7.390625 
Q 20.0625 6.109375 24.8125 6.109375 
Q 31.15625 6.109375 34.5625 8.28125 
Q 37.984375 10.453125 37.984375 14.40625 
Q 37.984375 18.0625 35.515625 20.015625 
Q 33.0625 21.96875 24.703125 23.78125 
L 21.578125 24.515625 
Q 13.234375 26.265625 9.515625 29.90625 
Q 5.8125 33.546875 5.8125 39.890625 
Q 5.8125 47.609375 11.28125 51.796875 
Q 16.75 56 26.8125 56 
Q 31.78125 56 36.171875 55.265625 
Q 40.578125 54.546875 44.28125 53.078125 
z
" id="DejaVuSans-115"/>
     </defs>
     <g transform="translate(18.84875 552.77875)rotate(-90)scale(0.1 -0.1)">
      <use xlink:href="#DejaVuSans-80"/>
      <use x="60.240234" xlink:href="#DejaVuSans-97"/>
      <use x="121.519531" xlink:href="#DejaVuSans-114"/>
      <use x="162.632812" xlink:href="#DejaVuSans-116"/>
      <use x="201.841797" xlink:href="#DejaVuSans-105"/>
      <use x="229.625" xlink:href="#DejaVuSans-100"/>
      <use x="293.101562" xlink:href="#DejaVuSans-111"/>
      <use x="354.283203" xlink:href="#DejaVuSans-115"/>
     </g>
    </g>
   </g>
   <g id="line2d_49">
    <path clip-path="url(#pfae33f4a70)" d="M 387.505 1038.04 
L 387.505 26.88 
" style="fill:none;stroke:#000000;stroke-dasharray:14.8,6.4;stroke-dashoffset:0;stroke-width:4;"/>
   </g>
   <g id="line2d_50">
    <path clip-path="url(#pfae33f4a70)" d="M 335.954758 1038.04 
L 335.954758 26.88 
" style="fill:none;stroke:#008000;stroke-linecap:square;stroke-width:2;"/>
   </g>
   <g id="text_51">
    <!-- Proporcao de genero em Partidos Politicos -->
    <defs>
     <path d="M 56.203125 29.59375 
L 56.203125 25.203125 
L 14.890625 25.203125 
Q 15.484375 15.921875 20.484375 11.0625 
Q 25.484375 6.203125 34.421875 6.203125 
Q 39.59375 6.203125 44.453125 7.46875 
Q 49.3125 8.734375 54.109375 11.28125 
L 54.109375 2.78125 
Q 49.265625 0.734375 44.1875 -0.34375 
Q 39.109375 -1.421875 33.890625 -1.421875 
Q 20.796875 -1.421875 13.15625 6.1875 
Q 5.515625 13.8125 5.515625 26.8125 
Q 5.515625 40.234375 12.765625 48.109375 
Q 20.015625 56 32.328125 56 
Q 43.359375 56 49.78125 48.890625 
Q 56.203125 41.796875 56.203125 29.59375 
z
M 47.21875 32.234375 
Q 47.125 39.59375 43.09375 43.984375 
Q 39.0625 48.390625 32.421875 48.390625 
Q 24.90625 48.390625 20.390625 44.140625 
Q 15.875 39.890625 15.1875 32.171875 
z
" id="DejaVuSans-101"/>
     <path d="M 45.40625 27.984375 
Q 45.40625 37.75 41.375 43.109375 
Q 37.359375 48.484375 30.078125 48.484375 
Q 22.859375 48.484375 18.828125 43.109375 
Q 14.796875 37.75 14.796875 27.984375 
Q 14.796875 18.265625 18.828125 12.890625 
Q 22.859375 7.515625 30.078125 7.515625 
Q 37.359375 7.515625 41.375 12.890625 
Q 45.40625 18.265625 45.40625 27.984375 
z
M 54.390625 6.78125 
Q 54.390625 -7.171875 48.1875 -13.984375 
Q 42 -20.796875 29.203125 -20.796875 
Q 24.46875 -20.796875 20.265625 -20.09375 
Q 16.0625 -19.390625 12.109375 -17.921875 
L 12.109375 -9.1875 
Q 16.0625 -11.328125 19.921875 -12.34375 
Q 23.78125 -13.375 27.78125 -13.375 
Q 36.625 -13.375 41.015625 -8.765625 
Q 45.40625 -4.15625 45.40625 5.171875 
L 45.40625 9.625 
Q 42.625 4.78125 38.28125 2.390625 
Q 33.9375 0 27.875 0 
Q 17.828125 0 11.671875 7.65625 
Q 5.515625 15.328125 5.515625 27.984375 
Q 5.515625 40.671875 11.671875 48.328125 
Q 17.828125 56 27.875 56 
Q 33.9375 56 38.28125 53.609375 
Q 42.625 51.21875 45.40625 46.390625 
L 45.40625 54.6875 
L 54.390625 54.6875 
z
" id="DejaVuSans-103"/>
     <path d="M 54.890625 33.015625 
L 54.890625 0 
L 45.90625 0 
L 45.90625 32.71875 
Q 45.90625 40.484375 42.875 44.328125 
Q 39.84375 48.1875 33.796875 48.1875 
Q 26.515625 48.1875 22.3125 43.546875 
Q 18.109375 38.921875 18.109375 30.90625 
L 18.109375 0 
L 9.078125 0 
L 9.078125 54.6875 
L 18.109375 54.6875 
L 18.109375 46.1875 
Q 21.34375 51.125 25.703125 53.5625 
Q 30.078125 56 35.796875 56 
Q 45.21875 56 50.046875 50.171875 
Q 54.890625 44.34375 54.890625 33.015625 
z
" id="DejaVuSans-110"/>
     <path d="M 52 44.1875 
Q 55.375 50.25 60.0625 53.125 
Q 64.75 56 71.09375 56 
Q 79.640625 56 84.28125 50.015625 
Q 88.921875 44.046875 88.921875 33.015625 
L 88.921875 0 
L 79.890625 0 
L 79.890625 32.71875 
Q 79.890625 40.578125 77.09375 44.375 
Q 74.3125 48.1875 68.609375 48.1875 
Q 61.625 48.1875 57.5625 43.546875 
Q 53.515625 38.921875 53.515625 30.90625 
L 53.515625 0 
L 44.484375 0 
L 44.484375 32.71875 
Q 44.484375 40.625 41.703125 44.40625 
Q 38.921875 48.1875 33.109375 48.1875 
Q 26.21875 48.1875 22.15625 43.53125 
Q 18.109375 38.875 18.109375 30.90625 
L 18.109375 0 
L 9.078125 0 
L 9.078125 54.6875 
L 18.109375 54.6875 
L 18.109375 46.1875 
Q 21.1875 51.21875 25.484375 53.609375 
Q 29.78125 56 35.6875 56 
Q 41.65625 56 45.828125 52.96875 
Q 50 49.953125 52 44.1875 
z
" id="DejaVuSans-109"/>
     <path d="M 9.421875 75.984375 
L 18.40625 75.984375 
L 18.40625 0 
L 9.421875 0 
z
" id="DejaVuSans-108"/>
    </defs>
    <g transform="translate(260.339687 20.88)scale(0.12 -0.12)">
     <use xlink:href="#DejaVuSans-80"/>
     <use x="60.287109" xlink:href="#DejaVuSans-114"/>
     <use x="101.369141" xlink:href="#DejaVuSans-111"/>
     <use x="162.550781" xlink:href="#DejaVuSans-112"/>
     <use x="226.027344" xlink:href="#DejaVuSans-111"/>
     <use x="287.208984" xlink:href="#DejaVuSans-114"/>
     <use x="328.291016" xlink:href="#DejaVuSans-99"/>
     <use x="383.271484" xlink:href="#DejaVuSans-97"/>
     <use x="444.550781" xlink:href="#DejaVuSans-111"/>
     <use x="505.732422" xlink:href="#DejaVuSans-32"/>
     <use x="537.519531" xlink:href="#DejaVuSans-100"/>
     <use x="600.996094" xlink:href="#DejaVuSans-101"/>
     <use x="662.519531" xlink:href="#DejaVuSans-32"/>
     <use x="694.306641" xlink:href="#DejaVuSans-103"/>
     <use x="757.783203" xlink:href="#DejaVuSans-101"/>
     <use x="819.306641" xlink:href="#DejaVuSans-110"/>
     <use x="882.685547" xlink:href="#DejaVuSans-101"/>
     <use x="944.208984" xlink:href="#DejaVuSans-114"/>
     <use x="985.291016" xlink:href="#DejaVuSans-111"/>
     <use x="1046.472656" xlink:href="#DejaVuSans-32"/>
     <use x="1078.259766" xlink:href="#DejaVuSans-101"/>
     <use x="1139.783203" xlink:href="#DejaVuSans-109"/>
     <use x="1237.195312" xlink:href="#DejaVuSans-32"/>
     <use x="1268.982422" xlink:href="#DejaVuSans-80"/>
     <use x="1329.222656" xlink:href="#DejaVuSans-97"/>
     <use x="1390.501953" xlink:href="#DejaVuSans-114"/>
     <use x="1431.615234" xlink:href="#DejaVuSans-116"/>
     <use x="1470.824219" xlink:href="#DejaVuSans-105"/>
     <use x="1498.607422" xlink:href="#DejaVuSans-100"/>
     <use x="1562.083984" xlink:href="#DejaVuSans-111"/>
     <use x="1623.265625" xlink:href="#DejaVuSans-115"/>
     <use x="1675.365234" xlink:href="#DejaVuSans-32"/>
     <use x="1707.152344" xlink:href="#DejaVuSans-80"/>
     <use x="1767.408203" xlink:href="#DejaVuSans-111"/>
     <use x="1828.589844" xlink:href="#DejaVuSans-108"/>
     <use x="1856.373047" xlink:href="#DejaVuSans-105"/>
     <use x="1884.15625" xlink:href="#DejaVuSans-116"/>
     <use x="1923.365234" xlink:href="#DejaVuSans-105"/>
     <use x="1951.148438" xlink:href="#DejaVuSans-99"/>
     <use x="2006.128906" xlink:href="#DejaVuSans-111"/>
     <use x="2067.310547" xlink:href="#DejaVuSans-115"/>
    </g>
   </g>
   <g id="legend_1">
    <g id="patch_3">
     <path d="M 497.437812 64.23625 
L 694.28 64.23625 
Q 696.28 64.23625 696.28 62.23625 
L 696.28 33.88 
Q 696.28 31.88 694.28 31.88 
L 497.437812 31.88 
Q 495.437812 31.88 495.437812 33.88 
L 495.437812 62.23625 
Q 495.437812 64.23625 497.437812 64.23625 
z
" style="fill:#ffffff;opacity:0.8;stroke:#cccccc;stroke-linejoin:miter;"/>
    </g>
    <g id="line2d_51">
     <path d="M 499.437812 39.978437 
L 519.437812 39.978437 
" style="fill:none;stroke:#000000;stroke-dasharray:14.8,6.4;stroke-dashoffset:0;stroke-width:4;"/>
    </g>
    <g id="line2d_52"/>
    <g id="text_52">
     <!-- Equidade de mulheres e homens -->
     <defs>
      <path d="M 14.796875 27.296875 
Q 14.796875 17.390625 18.875 11.75 
Q 22.953125 6.109375 30.078125 6.109375 
Q 37.203125 6.109375 41.296875 11.75 
Q 45.40625 17.390625 45.40625 27.296875 
Q 45.40625 37.203125 41.296875 42.84375 
Q 37.203125 48.484375 30.078125 48.484375 
Q 22.953125 48.484375 18.875 42.84375 
Q 14.796875 37.203125 14.796875 27.296875 
z
M 45.40625 8.203125 
Q 42.578125 3.328125 38.25 0.953125 
Q 33.9375 -1.421875 27.875 -1.421875 
Q 17.96875 -1.421875 11.734375 6.484375 
Q 5.515625 14.40625 5.515625 27.296875 
Q 5.515625 40.1875 11.734375 48.09375 
Q 17.96875 56 27.875 56 
Q 33.9375 56 38.25 53.625 
Q 42.578125 51.265625 45.40625 46.390625 
L 45.40625 54.6875 
L 54.390625 54.6875 
L 54.390625 -20.796875 
L 45.40625 -20.796875 
z
" id="DejaVuSans-113"/>
      <path d="M 8.5 21.578125 
L 8.5 54.6875 
L 17.484375 54.6875 
L 17.484375 21.921875 
Q 17.484375 14.15625 20.5 10.265625 
Q 23.53125 6.390625 29.59375 6.390625 
Q 36.859375 6.390625 41.078125 11.03125 
Q 45.3125 15.671875 45.3125 23.6875 
L 45.3125 54.6875 
L 54.296875 54.6875 
L 54.296875 0 
L 45.3125 0 
L 45.3125 8.40625 
Q 42.046875 3.421875 37.71875 1 
Q 33.40625 -1.421875 27.6875 -1.421875 
Q 18.265625 -1.421875 13.375 4.4375 
Q 8.5 10.296875 8.5 21.578125 
z
M 31.109375 56 
z
" id="DejaVuSans-117"/>
      <path d="M 54.890625 33.015625 
L 54.890625 0 
L 45.90625 0 
L 45.90625 32.71875 
Q 45.90625 40.484375 42.875 44.328125 
Q 39.84375 48.1875 33.796875 48.1875 
Q 26.515625 48.1875 22.3125 43.546875 
Q 18.109375 38.921875 18.109375 30.90625 
L 18.109375 0 
L 9.078125 0 
L 9.078125 75.984375 
L 18.109375 75.984375 
L 18.109375 46.1875 
Q 21.34375 51.125 25.703125 53.5625 
Q 30.078125 56 35.796875 56 
Q 45.21875 56 50.046875 50.171875 
Q 54.890625 44.34375 54.890625 33.015625 
z
" id="DejaVuSans-104"/>
     </defs>
     <g transform="translate(527.437812 43.478437)scale(0.1 -0.1)">
      <use xlink:href="#DejaVuSans-69"/>
      <use x="63.183594" xlink:href="#DejaVuSans-113"/>
      <use x="126.660156" xlink:href="#DejaVuSans-117"/>
      <use x="190.039062" xlink:href="#DejaVuSans-105"/>
      <use x="217.822266" xlink:href="#DejaVuSans-100"/>
      <use x="281.298828" xlink:href="#DejaVuSans-97"/>
      <use x="342.578125" xlink:href="#DejaVuSans-100"/>
      <use x="406.054688" xlink:href="#DejaVuSans-101"/>
      <use x="467.578125" xlink:href="#DejaVuSans-32"/>
      <use x="499.365234" xlink:href="#DejaVuSans-100"/>
      <use x="562.841797" xlink:href="#DejaVuSans-101"/>
      <use x="624.365234" xlink:href="#DejaVuSans-32"/>
      <use x="656.152344" xlink:href="#DejaVuSans-109"/>
      <use x="753.564453" xlink:href="#DejaVuSans-117"/>
      <use x="816.943359" xlink:href="#DejaVuSans-108"/>
      <use x="844.726562" xlink:href="#DejaVuSans-104"/>
      <use x="908.105469" xlink:href="#DejaVuSans-101"/>
      <use x="969.628906" xlink:href="#DejaVuSans-114"/>
      <use x="1010.710938" xlink:href="#DejaVuSans-101"/>
      <use x="1072.234375" xlink:href="#DejaVuSans-115"/>
      <use x="1124.333984" xlink:href="#DejaVuSans-32"/>
      <use x="1156.121094" xlink:href="#DejaVuSans-101"/>
      <use x="1217.644531" xlink:href="#DejaVuSans-32"/>
      <use x="1249.431641" xlink:href="#DejaVuSans-104"/>
      <use x="1312.810547" xlink:href="#DejaVuSans-111"/>
      <use x="1373.992188" xlink:href="#DejaVuSans-109"/>
      <use x="1471.404297" xlink:href="#DejaVuSans-101"/>
      <use x="1532.927734" xlink:href="#DejaVuSans-110"/>
      <use x="1596.306641" xlink:href="#DejaVuSans-115"/>
     </g>
    </g>
    <g id="line2d_53">
     <path d="M 499.437812 54.656562 
L 519.437812 54.656562 
" style="fill:none;stroke:#008000;stroke-linecap:square;stroke-width:2;"/>
    </g>
    <g id="line2d_54"/>
    <g id="text_53">
     <!-- Proporcao Media de Mulheres -->
     <g transform="translate(527.437812 58.156562)scale(0.1 -0.1)">
      <use xlink:href="#DejaVuSans-80"/>
      <use x="60.287109" xlink:href="#DejaVuSans-114"/>
      <use x="101.369141" xlink:href="#DejaVuSans-111"/>
      <use x="162.550781" xlink:href="#DejaVuSans-112"/>
      <use x="226.027344" xlink:href="#DejaVuSans-111"/>
      <use x="287.208984" xlink:href="#DejaVuSans-114"/>
      <use x="328.291016" xlink:href="#DejaVuSans-99"/>
      <use x="383.271484" xlink:href="#DejaVuSans-97"/>
      <use x="444.550781" xlink:href="#DejaVuSans-111"/>
      <use x="505.732422" xlink:href="#DejaVuSans-32"/>
      <use x="537.519531" xlink:href="#DejaVuSans-77"/>
      <use x="623.798828" xlink:href="#DejaVuSans-101"/>
      <use x="685.322266" xlink:href="#DejaVuSans-100"/>
      <use x="748.798828" xlink:href="#DejaVuSans-105"/>
      <use x="776.582031" xlink:href="#DejaVuSans-97"/>
      <use x="837.861328" xlink:href="#DejaVuSans-32"/>
      <use x="869.648438" xlink:href="#DejaVuSans-100"/>
      <use x="933.125" xlink:href="#DejaVuSans-101"/>
      <use x="994.648438" xlink:href="#DejaVuSans-32"/>
      <use x="1026.435547" xlink:href="#DejaVuSans-77"/>
      <use x="1112.714844" xlink:href="#DejaVuSans-117"/>
      <use x="1176.09375" xlink:href="#DejaVuSans-108"/>
      <use x="1203.876953" xlink:href="#DejaVuSans-104"/>
      <use x="1267.255859" xlink:href="#DejaVuSans-101"/>
      <use x="1328.779297" xlink:href="#DejaVuSans-114"/>
      <use x="1369.861328" xlink:href="#DejaVuSans-101"/>
      <use x="1431.384766" xlink:href="#DejaVuSans-115"/>
     </g>
    </g>
   </g>
  </g>
 </g>
 <defs>
  <clipPath id="pfae33f4a70">
   <rect height="1011.16" width="627.55" x="73.73" y="26.88"/>
  </clipPath>
 </defs>
</svg>
