<?xml version="1.0" encoding="utf-8" standalone="no"?>
<!DOCTYPE svg PUBLIC "-//W3C//DTD SVG 1.1//EN"
  "http://www.w3.org/Graphics/SVG/1.1/DTD/svg11.dtd">
<!-- Created with matplotlib (https://matplotlib.org/) -->
<svg height="1080pt" version="1.1" viewBox="0 0 720 1080" width="720pt" xmlns="http://www.w3.org/2000/svg" xmlns:xlink="http://www.w3.org/1999/xlink">
 <defs>
  <style type="text/css">
*{stroke-linecap:butt;stroke-linejoin:round;}
  </style>
 </defs>
 <g id="figure_1">
  <g id="patch_1">
   <path d="M 0 1080 
L 720 1080 
L 720 0 
L 0 0 
z
" style="fill:#ffffff;"/>
  </g>
  <g id="axes_1">
   <g id="patch_2">
    <path d="M 73.73 1038.04 
L 701.28 1038.04 
L 701.28 26.88 
L 73.73 26.88 
z
" style="fill:#ffffff;"/>
   </g>
   <g id="PathCollection_1">
    <path clip-path="url(#p2e9af03224)" d="M 113.558949 998.983789 
C 115.434218 998.983789 117.232934 998.238737 118.558949 996.912721 
C 119.884965 995.586706 120.630017 993.78799 120.630017 991.912721 
C 120.630017 990.037452 119.884965 988.238737 118.558949 986.912721 
C 117.232934 985.586706 115.434218 984.841653 113.558949 984.841653 
C 111.68368 984.841653 109.884965 985.586706 108.558949 986.912721 
C 107.232934 988.238737 106.487881 990.037452 106.487881 991.912721 
C 106.487881 993.78799 107.232934 995.586706 108.558949 996.912721 
C 109.884965 998.238737 111.68368 998.983789 113.558949 998.983789 
z
" style="fill:#ff0000;fill-opacity:0.7;stroke:#ff0000;stroke-opacity:0.7;"/>
    <path clip-path="url(#p2e9af03224)" d="M 290.688077 971.957158 
C 292.563346 971.957158 294.362062 971.212106 295.688077 969.88609 
C 297.014093 968.560075 297.759145 966.76136 297.759145 964.88609 
C 297.759145 963.010821 297.014093 961.212106 295.688077 959.88609 
C 294.362062 958.560075 292.563346 957.815023 290.688077 957.815023 
C 288.812808 957.815023 287.014093 958.560075 285.688077 959.88609 
C 284.362062 961.212106 283.617009 963.010821 283.617009 964.88609 
C 283.617009 966.76136 284.362062 968.560075 285.688077 969.88609 
C 287.014093 971.212106 288.812808 971.957158 290.688077 971.957158 
z
" style="fill:#ff0000;fill-opacity:0.7;stroke:#ff0000;stroke-opacity:0.7;"/>
    <path clip-path="url(#p2e9af03224)" d="M 304.130129 944.930528 
C 306.005398 944.930528 307.804114 944.185475 309.130129 942.85946 
C 310.456145 941.533444 311.201197 939.734729 311.201197 937.85946 
C 311.201197 935.984191 310.456145 934.185475 309.130129 932.85946 
C 307.804114 931.533444 306.005398 930.788392 304.130129 930.788392 
C 302.25486 930.788392 300.456145 931.533444 299.130129 932.85946 
C 297.804114 934.185475 297.059061 935.984191 297.059061 937.85946 
C 297.059061 939.734729 297.804114 941.533444 299.130129 942.85946 
C 300.456145 944.185475 302.25486 944.930528 304.130129 944.930528 
z
" style="fill:#ff0000;fill-opacity:0.7;stroke:#ff0000;stroke-opacity:0.7;"/>
    <path clip-path="url(#p2e9af03224)" d="M 306.430047 917.903897 
C 308.305316 917.903897 310.104031 917.158845 311.430047 915.832829 
C 312.756062 914.506814 313.501115 912.708098 313.501115 910.832829 
C 313.501115 908.95756 312.756062 907.158845 311.430047 905.832829 
C 310.104031 904.506814 308.305316 903.761761 306.430047 903.761761 
C 304.554778 903.761761 302.756062 904.506814 301.430047 905.832829 
C 300.104031 907.158845 299.358979 908.95756 299.358979 910.832829 
C 299.358979 912.708098 300.104031 914.506814 301.430047 915.832829 
C 302.756062 917.158845 304.554778 917.903897 306.430047 917.903897 
z
" style="fill:#ff0000;fill-opacity:0.7;stroke:#ff0000;stroke-opacity:0.7;"/>
    <path clip-path="url(#p2e9af03224)" d="M 312.672147 890.877266 
C 314.547417 890.877266 316.346132 890.132214 317.672147 888.806198 
C 318.998163 887.480183 319.743215 885.681468 319.743215 883.806198 
C 319.743215 881.930929 318.998163 880.132214 317.672147 878.806198 
C 316.346132 877.480183 314.547417 876.735131 312.672147 876.735131 
C 310.796878 876.735131 308.998163 877.480183 307.672147 878.806198 
C 306.346132 880.132214 305.60108 881.930929 305.60108 883.806198 
C 305.60108 885.681468 306.346132 887.480183 307.672147 888.806198 
C 308.998163 890.132214 310.796878 890.877266 312.672147 890.877266 
z
" style="fill:#ff0000;fill-opacity:0.7;stroke:#ff0000;stroke-opacity:0.7;"/>
    <path clip-path="url(#p2e9af03224)" d="M 321.501329 863.850636 
C 323.376598 863.850636 325.175314 863.105583 326.501329 861.779568 
C 327.827345 860.453552 328.572397 858.654837 328.572397 856.779568 
C 328.572397 854.904299 327.827345 853.105583 326.501329 851.779568 
C 325.175314 850.453552 323.376598 849.7085 321.501329 849.7085 
C 319.62606 849.7085 317.827345 850.453552 316.501329 851.779568 
C 315.175314 853.105583 314.430261 854.904299 314.430261 856.779568 
C 314.430261 858.654837 315.175314 860.453552 316.501329 861.779568 
C 317.827345 863.105583 319.62606 863.850636 321.501329 863.850636 
z
" style="fill:#ff0000;fill-opacity:0.7;stroke:#ff0000;stroke-opacity:0.7;"/>
    <path clip-path="url(#p2e9af03224)" d="M 322.971857 836.824005 
C 324.847127 836.824005 326.645842 836.078953 327.971857 834.752937 
C 329.297873 833.426922 330.042925 831.628206 330.042925 829.752937 
C 330.042925 827.877668 329.297873 826.078953 327.971857 824.752937 
C 326.645842 823.426922 324.847127 822.681869 322.971857 822.681869 
C 321.096588 822.681869 319.297873 823.426922 317.971857 824.752937 
C 316.645842 826.078953 315.90079 827.877668 315.90079 829.752937 
C 315.90079 831.628206 316.645842 833.426922 317.971857 834.752937 
C 319.297873 836.078953 321.096588 836.824005 322.971857 836.824005 
z
" style="fill:#ff0000;fill-opacity:0.7;stroke:#ff0000;stroke-opacity:0.7;"/>
    <path clip-path="url(#p2e9af03224)" d="M 323.353146 809.797374 
C 325.228415 809.797374 327.027131 809.052322 328.353146 807.726307 
C 329.679162 806.400291 330.424214 804.601576 330.424214 802.726307 
C 330.424214 800.851037 329.679162 799.052322 328.353146 797.726307 
C 327.027131 796.400291 325.228415 795.655239 323.353146 795.655239 
C 321.477877 795.655239 319.679162 796.400291 318.353146 797.726307 
C 317.027131 799.052322 316.282078 800.851037 316.282078 802.726307 
C 316.282078 804.601576 317.027131 806.400291 318.353146 807.726307 
C 319.679162 809.052322 321.477877 809.797374 323.353146 809.797374 
z
" style="fill:#ff0000;fill-opacity:0.7;stroke:#ff0000;stroke-opacity:0.7;"/>
    <path clip-path="url(#p2e9af03224)" d="M 325.048943 782.770744 
C 326.924212 782.770744 328.722927 782.025691 330.048943 780.699676 
C 331.374958 779.37366 332.120011 777.574945 332.120011 775.699676 
C 332.120011 773.824407 331.374958 772.025691 330.048943 770.699676 
C 328.722927 769.37366 326.924212 768.628608 325.048943 768.628608 
C 323.173674 768.628608 321.374958 769.37366 320.048943 770.699676 
C 318.722927 772.025691 317.977875 773.824407 317.977875 775.699676 
C 317.977875 777.574945 318.722927 779.37366 320.048943 780.699676 
C 321.374958 782.025691 323.173674 782.770744 325.048943 782.770744 
z
" style="fill:#ff0000;fill-opacity:0.7;stroke:#ff0000;stroke-opacity:0.7;"/>
    <path clip-path="url(#p2e9af03224)" d="M 331.217229 755.744113 
C 333.092498 755.744113 334.891213 754.999061 336.217229 753.673045 
C 337.543244 752.34703 338.288297 750.548314 338.288297 748.673045 
C 338.288297 746.797776 337.543244 744.999061 336.217229 743.673045 
C 334.891213 742.34703 333.092498 741.601977 331.217229 741.601977 
C 329.34196 741.601977 327.543244 742.34703 326.217229 743.673045 
C 324.891213 744.999061 324.146161 746.797776 324.146161 748.673045 
C 324.146161 750.548314 324.891213 752.34703 326.217229 753.673045 
C 327.543244 754.999061 329.34196 755.744113 331.217229 755.744113 
z
" style="fill:#ff0000;fill-opacity:0.7;stroke:#ff0000;stroke-opacity:0.7;"/>
    <path clip-path="url(#p2e9af03224)" d="M 334.766365 728.717482 
C 336.641634 728.717482 338.440349 727.97243 339.766365 726.646415 
C 341.09238 725.320399 341.837432 723.521684 341.837432 721.646415 
C 341.837432 719.771145 341.09238 717.97243 339.766365 716.646415 
C 338.440349 715.320399 336.641634 714.575347 334.766365 714.575347 
C 332.891096 714.575347 331.09238 715.320399 329.766365 716.646415 
C 328.440349 717.97243 327.695297 719.771145 327.695297 721.646415 
C 327.695297 723.521684 328.440349 725.320399 329.766365 726.646415 
C 331.09238 727.97243 332.891096 728.717482 334.766365 728.717482 
z
" style="fill:#ff0000;fill-opacity:0.7;stroke:#ff0000;stroke-opacity:0.7;"/>
    <path clip-path="url(#p2e9af03224)" d="M 336.248711 701.690852 
C 338.12398 701.690852 339.922696 700.945799 341.248711 699.619784 
C 342.574727 698.293768 343.319779 696.495053 343.319779 694.619784 
C 343.319779 692.744515 342.574727 690.945799 341.248711 689.619784 
C 339.922696 688.293768 338.12398 687.548716 336.248711 687.548716 
C 334.373442 687.548716 332.574727 688.293768 331.248711 689.619784 
C 329.922696 690.945799 329.177643 692.744515 329.177643 694.619784 
C 329.177643 696.495053 329.922696 698.293768 331.248711 699.619784 
C 332.574727 700.945799 334.373442 701.690852 336.248711 701.690852 
z
" style="fill:#ff0000;fill-opacity:0.7;stroke:#ff0000;stroke-opacity:0.7;"/>
    <path clip-path="url(#p2e9af03224)" d="M 336.405232 674.664221 
C 338.280501 674.664221 340.079217 673.919169 341.405232 672.593153 
C 342.731248 671.267138 343.4763 669.468422 343.4763 667.593153 
C 343.4763 665.717884 342.731248 663.919169 341.405232 662.593153 
C 340.079217 661.267138 338.280501 660.522085 336.405232 660.522085 
C 334.529963 660.522085 332.731248 661.267138 331.405232 662.593153 
C 330.079217 663.919169 329.334164 665.717884 329.334164 667.593153 
C 329.334164 669.468422 330.079217 671.267138 331.405232 672.593153 
C 332.731248 673.919169 334.529963 674.664221 336.405232 674.664221 
z
" style="fill:#ff0000;fill-opacity:0.7;stroke:#ff0000;stroke-opacity:0.7;"/>
    <path clip-path="url(#p2e9af03224)" d="M 339.137335 647.63759 
C 341.012604 647.63759 342.811319 646.892538 344.137335 645.566523 
C 345.46335 644.240507 346.208403 642.441792 346.208403 640.566523 
C 346.208403 638.691254 345.46335 636.892538 344.137335 635.566523 
C 342.811319 634.240507 341.012604 633.495455 339.137335 633.495455 
C 337.262066 633.495455 335.46335 634.240507 334.137335 635.566523 
C 332.811319 636.892538 332.066267 638.691254 332.066267 640.566523 
C 332.066267 642.441792 332.811319 644.240507 334.137335 645.566523 
C 335.46335 646.892538 337.262066 647.63759 339.137335 647.63759 
z
" style="fill:#ff0000;fill-opacity:0.7;stroke:#ff0000;stroke-opacity:0.7;"/>
    <path clip-path="url(#p2e9af03224)" d="M 339.352013 620.61096 
C 341.227282 620.61096 343.025997 619.865907 344.352013 618.539892 
C 345.678028 617.213876 346.42308 615.415161 346.42308 613.539892 
C 346.42308 611.664623 345.678028 609.865907 344.352013 608.539892 
C 343.025997 607.213876 341.227282 606.468824 339.352013 606.468824 
C 337.476743 606.468824 335.678028 607.213876 334.352013 608.539892 
C 333.025997 609.865907 332.280945 611.664623 332.280945 613.539892 
C 332.280945 615.415161 333.025997 617.213876 334.352013 618.539892 
C 335.678028 619.865907 337.476743 620.61096 339.352013 620.61096 
z
" style="fill:#ff0000;fill-opacity:0.7;stroke:#ff0000;stroke-opacity:0.7;"/>
    <path clip-path="url(#p2e9af03224)" d="M 341.564338 593.584329 
C 343.439607 593.584329 345.238322 592.839277 346.564338 591.513261 
C 347.890353 590.187246 348.635405 588.38853 348.635405 586.513261 
C 348.635405 584.637992 347.890353 582.839277 346.564338 581.513261 
C 345.238322 580.187246 343.439607 579.442193 341.564338 579.442193 
C 339.689069 579.442193 337.890353 580.187246 336.564338 581.513261 
C 335.238322 582.839277 334.49327 584.637992 334.49327 586.513261 
C 334.49327 588.38853 335.238322 590.187246 336.564338 591.513261 
C 337.890353 592.839277 339.689069 593.584329 341.564338 593.584329 
z
" style="fill:#ff0000;fill-opacity:0.7;stroke:#ff0000;stroke-opacity:0.7;"/>
    <path clip-path="url(#p2e9af03224)" d="M 342.394715 566.557698 
C 344.269984 566.557698 346.068699 565.812646 347.394715 564.486631 
C 348.72073 563.160615 349.465782 561.3619 349.465782 559.486631 
C 349.465782 557.611362 348.72073 555.812646 347.394715 554.486631 
C 346.068699 553.160615 344.269984 552.415563 342.394715 552.415563 
C 340.519445 552.415563 338.72073 553.160615 337.394715 554.486631 
C 336.068699 555.812646 335.323647 557.611362 335.323647 559.486631 
C 335.323647 561.3619 336.068699 563.160615 337.394715 564.486631 
C 338.72073 565.812646 340.519445 566.557698 342.394715 566.557698 
z
" style="fill:#ff0000;fill-opacity:0.7;stroke:#ff0000;stroke-opacity:0.7;"/>
    <path clip-path="url(#p2e9af03224)" d="M 345.337959 539.531068 
C 347.213228 539.531068 349.011943 538.786015 350.337959 537.46 
C 351.663974 536.133984 352.409027 534.335269 352.409027 532.46 
C 352.409027 530.584731 351.663974 528.786015 350.337959 527.46 
C 349.011943 526.133984 347.213228 525.388932 345.337959 525.388932 
C 343.46269 525.388932 341.663974 526.133984 340.337959 527.46 
C 339.011943 528.786015 338.266891 530.584731 338.266891 532.46 
C 338.266891 534.335269 339.011943 536.133984 340.337959 537.46 
C 341.663974 538.786015 343.46269 539.531068 345.337959 539.531068 
z
" style="fill:#ff0000;fill-opacity:0.7;stroke:#ff0000;stroke-opacity:0.7;"/>
    <path clip-path="url(#p2e9af03224)" d="M 345.368147 512.504437 
C 347.243416 512.504437 349.042132 511.759385 350.368147 510.433369 
C 351.694163 509.107354 352.439215 507.308638 352.439215 505.433369 
C 352.439215 503.5581 351.694163 501.759385 350.368147 500.433369 
C 349.042132 499.107354 347.243416 498.362302 345.368147 498.362302 
C 343.492878 498.362302 341.694163 499.107354 340.368147 500.433369 
C 339.042132 501.759385 338.29708 503.5581 338.29708 505.433369 
C 338.29708 507.308638 339.042132 509.107354 340.368147 510.433369 
C 341.694163 511.759385 343.492878 512.504437 345.368147 512.504437 
z
" style="fill:#ff0000;fill-opacity:0.7;stroke:#ff0000;stroke-opacity:0.7;"/>
    <path clip-path="url(#p2e9af03224)" d="M 345.655679 485.477807 
C 347.530948 485.477807 349.329663 484.732754 350.655679 483.406739 
C 351.981694 482.080723 352.726747 480.282008 352.726747 478.406739 
C 352.726747 476.53147 351.981694 474.732754 350.655679 473.406739 
C 349.329663 472.080723 347.530948 471.335671 345.655679 471.335671 
C 343.78041 471.335671 341.981694 472.080723 340.655679 473.406739 
C 339.329663 474.732754 338.584611 476.53147 338.584611 478.406739 
C 338.584611 480.282008 339.329663 482.080723 340.655679 483.406739 
C 341.981694 484.732754 343.78041 485.477807 345.655679 485.477807 
z
" style="fill:#ff0000;fill-opacity:0.7;stroke:#ff0000;stroke-opacity:0.7;"/>
    <path clip-path="url(#p2e9af03224)" d="M 345.772661 458.451176 
C 347.64793 458.451176 349.446645 457.706124 350.772661 456.380108 
C 352.098676 455.054093 352.843729 453.255377 352.843729 451.380108 
C 352.843729 449.504839 352.098676 447.706124 350.772661 446.380108 
C 349.446645 445.054093 347.64793 444.30904 345.772661 444.30904 
C 343.897392 444.30904 342.098676 445.054093 340.772661 446.380108 
C 339.446645 447.706124 338.701593 449.504839 338.701593 451.380108 
C 338.701593 453.255377 339.446645 455.054093 340.772661 456.380108 
C 342.098676 457.706124 343.897392 458.451176 345.772661 458.451176 
z
" style="fill:#ff0000;fill-opacity:0.7;stroke:#ff0000;stroke-opacity:0.7;"/>
    <path clip-path="url(#p2e9af03224)" d="M 346.352224 431.424545 
C 348.227493 431.424545 350.026208 430.679493 351.352224 429.353477 
C 352.678239 428.027462 353.423292 426.228746 353.423292 424.353477 
C 353.423292 422.478208 352.678239 420.679493 351.352224 419.353477 
C 350.026208 418.027462 348.227493 417.28241 346.352224 417.28241 
C 344.476955 417.28241 342.678239 418.027462 341.352224 419.353477 
C 340.026208 420.679493 339.281156 422.478208 339.281156 424.353477 
C 339.281156 426.228746 340.026208 428.027462 341.352224 429.353477 
C 342.678239 430.679493 344.476955 431.424545 346.352224 431.424545 
z
" style="fill:#ff0000;fill-opacity:0.7;stroke:#ff0000;stroke-opacity:0.7;"/>
    <path clip-path="url(#p2e9af03224)" d="M 346.446492 404.397915 
C 348.321761 404.397915 350.120476 403.652862 351.446492 402.326847 
C 352.772507 401.000831 353.51756 399.202116 353.51756 397.326847 
C 353.51756 395.451578 352.772507 393.652862 351.446492 392.326847 
C 350.120476 391.000831 348.321761 390.255779 346.446492 390.255779 
C 344.571223 390.255779 342.772507 391.000831 341.446492 392.326847 
C 340.120476 393.652862 339.375424 395.451578 339.375424 397.326847 
C 339.375424 399.202116 340.120476 401.000831 341.446492 402.326847 
C 342.772507 403.652862 344.571223 404.397915 346.446492 404.397915 
z
" style="fill:#ff0000;fill-opacity:0.7;stroke:#ff0000;stroke-opacity:0.7;"/>
    <path clip-path="url(#p2e9af03224)" d="M 347.315366 377.371284 
C 349.190635 377.371284 350.98935 376.626232 352.315366 375.300216 
C 353.641381 373.974201 354.386434 372.175485 354.386434 370.300216 
C 354.386434 368.424947 353.641381 366.626232 352.315366 365.300216 
C 350.98935 363.974201 349.190635 363.229148 347.315366 363.229148 
C 345.440097 363.229148 343.641381 363.974201 342.315366 365.300216 
C 340.98935 366.626232 340.244298 368.424947 340.244298 370.300216 
C 340.244298 372.175485 340.98935 373.974201 342.315366 375.300216 
C 343.641381 376.626232 345.440097 377.371284 347.315366 377.371284 
z
" style="fill:#ff0000;fill-opacity:0.7;stroke:#ff0000;stroke-opacity:0.7;"/>
    <path clip-path="url(#p2e9af03224)" d="M 347.589338 350.344653 
C 349.464607 350.344653 351.263322 349.599601 352.589338 348.273585 
C 353.915353 346.94757 354.660406 345.148855 354.660406 343.273585 
C 354.660406 341.398316 353.915353 339.599601 352.589338 338.273585 
C 351.263322 336.94757 349.464607 336.202518 347.589338 336.202518 
C 345.714069 336.202518 343.915353 336.94757 342.589338 338.273585 
C 341.263322 339.599601 340.51827 341.398316 340.51827 343.273585 
C 340.51827 345.148855 341.263322 346.94757 342.589338 348.273585 
C 343.915353 349.599601 345.714069 350.344653 347.589338 350.344653 
z
" style="fill:#ff0000;fill-opacity:0.7;stroke:#ff0000;stroke-opacity:0.7;"/>
    <path clip-path="url(#p2e9af03224)" d="M 348.736776 323.318023 
C 350.612045 323.318023 352.41076 322.57297 353.736776 321.246955 
C 355.062791 319.920939 355.807844 318.122224 355.807844 316.246955 
C 355.807844 314.371686 355.062791 312.57297 353.736776 311.246955 
C 352.41076 309.920939 350.612045 309.175887 348.736776 309.175887 
C 346.861507 309.175887 345.062791 309.920939 343.736776 311.246955 
C 342.41076 312.57297 341.665708 314.371686 341.665708 316.246955 
C 341.665708 318.122224 342.41076 319.920939 343.736776 321.246955 
C 345.062791 322.57297 346.861507 323.318023 348.736776 323.318023 
z
" style="fill:#ff0000;fill-opacity:0.7;stroke:#ff0000;stroke-opacity:0.7;"/>
    <path clip-path="url(#p2e9af03224)" d="M 348.831728 296.291392 
C 350.706997 296.291392 352.505712 295.54634 353.831728 294.220324 
C 355.157743 292.894309 355.902796 291.095593 355.902796 289.220324 
C 355.902796 287.345055 355.157743 285.54634 353.831728 284.220324 
C 352.505712 282.894309 350.706997 282.149256 348.831728 282.149256 
C 346.956459 282.149256 345.157743 282.894309 343.831728 284.220324 
C 342.505712 285.54634 341.76066 287.345055 341.76066 289.220324 
C 341.76066 291.095593 342.505712 292.894309 343.831728 294.220324 
C 345.157743 295.54634 346.956459 296.291392 348.831728 296.291392 
z
" style="fill:#ff0000;fill-opacity:0.7;stroke:#ff0000;stroke-opacity:0.7;"/>
    <path clip-path="url(#p2e9af03224)" d="M 349.505338 269.264761 
C 351.380607 269.264761 353.179323 268.519709 354.505338 267.193693 
C 355.831354 265.867678 356.576406 264.068963 356.576406 262.193693 
C 356.576406 260.318424 355.831354 258.519709 354.505338 257.193693 
C 353.179323 255.867678 351.380607 255.122626 349.505338 255.122626 
C 347.630069 255.122626 345.831354 255.867678 344.505338 257.193693 
C 343.179323 258.519709 342.43427 260.318424 342.43427 262.193693 
C 342.43427 264.068963 343.179323 265.867678 344.505338 267.193693 
C 345.831354 268.519709 347.630069 269.264761 349.505338 269.264761 
z
" style="fill:#ff0000;fill-opacity:0.7;stroke:#ff0000;stroke-opacity:0.7;"/>
    <path clip-path="url(#p2e9af03224)" d="M 349.519326 242.238131 
C 351.394595 242.238131 353.19331 241.493078 354.519326 240.167063 
C 355.845341 238.841047 356.590393 237.042332 356.590393 235.167063 
C 356.590393 233.291794 355.845341 231.493078 354.519326 230.167063 
C 353.19331 228.841047 351.394595 228.095995 349.519326 228.095995 
C 347.644057 228.095995 345.845341 228.841047 344.519326 230.167063 
C 343.19331 231.493078 342.448258 233.291794 342.448258 235.167063 
C 342.448258 237.042332 343.19331 238.841047 344.519326 240.167063 
C 345.845341 241.493078 347.644057 242.238131 349.519326 242.238131 
z
" style="fill:#ff0000;fill-opacity:0.7;stroke:#ff0000;stroke-opacity:0.7;"/>
    <path clip-path="url(#p2e9af03224)" d="M 350.382092 215.2115 
C 352.257361 215.2115 354.056077 214.466448 355.382092 213.140432 
C 356.708108 211.814417 357.45316 210.015701 357.45316 208.140432 
C 357.45316 206.265163 356.708108 204.466448 355.382092 203.140432 
C 354.056077 201.814417 352.257361 201.069364 350.382092 201.069364 
C 348.506823 201.069364 346.708108 201.814417 345.382092 203.140432 
C 344.056077 204.466448 343.311024 206.265163 343.311024 208.140432 
C 343.311024 210.015701 344.056077 211.814417 345.382092 213.140432 
C 346.708108 214.466448 348.506823 215.2115 350.382092 215.2115 
z
" style="fill:#ff0000;fill-opacity:0.7;stroke:#ff0000;stroke-opacity:0.7;"/>
    <path clip-path="url(#p2e9af03224)" d="M 351.086326 188.184869 
C 352.961595 188.184869 354.76031 187.439817 356.086326 186.113802 
C 357.412341 184.787786 358.157393 182.989071 358.157393 181.113802 
C 358.157393 179.238532 357.412341 177.439817 356.086326 176.113802 
C 354.76031 174.787786 352.961595 174.042734 351.086326 174.042734 
C 349.211056 174.042734 347.412341 174.787786 346.086326 176.113802 
C 344.76031 177.439817 344.015258 179.238532 344.015258 181.113802 
C 344.015258 182.989071 344.76031 184.787786 346.086326 186.113802 
C 347.412341 187.439817 349.211056 188.184869 351.086326 188.184869 
z
" style="fill:#ff0000;fill-opacity:0.7;stroke:#ff0000;stroke-opacity:0.7;"/>
    <path clip-path="url(#p2e9af03224)" d="M 354.597758 161.158239 
C 356.473027 161.158239 358.271742 160.413186 359.597758 159.087171 
C 360.923773 157.761155 361.668826 155.96244 361.668826 154.087171 
C 361.668826 152.211902 360.923773 150.413186 359.597758 149.087171 
C 358.271742 147.761155 356.473027 147.016103 354.597758 147.016103 
C 352.722489 147.016103 350.923773 147.761155 349.597758 149.087171 
C 348.271742 150.413186 347.52669 152.211902 347.52669 154.087171 
C 347.52669 155.96244 348.271742 157.761155 349.597758 159.087171 
C 350.923773 160.413186 352.722489 161.158239 354.597758 161.158239 
z
" style="fill:#ff0000;fill-opacity:0.7;stroke:#ff0000;stroke-opacity:0.7;"/>
    <path clip-path="url(#p2e9af03224)" d="M 355.565461 134.131608 
C 357.44073 134.131608 359.239446 133.386556 360.565461 132.06054 
C 361.891477 130.734525 362.636529 128.935809 362.636529 127.06054 
C 362.636529 125.185271 361.891477 123.386556 360.565461 122.06054 
C 359.239446 120.734525 357.44073 119.989472 355.565461 119.989472 
C 353.690192 119.989472 351.891477 120.734525 350.565461 122.06054 
C 349.239446 123.386556 348.494394 125.185271 348.494394 127.06054 
C 348.494394 128.935809 349.239446 130.734525 350.565461 132.06054 
C 351.891477 133.386556 353.690192 134.131608 355.565461 134.131608 
z
" style="fill:#ff0000;fill-opacity:0.7;stroke:#ff0000;stroke-opacity:0.7;"/>
    <path clip-path="url(#p2e9af03224)" d="M 398.397551 107.104977 
C 400.27282 107.104977 402.071535 106.359925 403.397551 105.03391 
C 404.723566 103.707894 405.468618 101.909179 405.468618 100.03391 
C 405.468618 98.15864 404.723566 96.359925 403.397551 95.03391 
C 402.071535 93.707894 400.27282 92.962842 398.397551 92.962842 
C 396.522281 92.962842 394.723566 93.707894 393.397551 95.03391 
C 392.071535 96.359925 391.326483 98.15864 391.326483 100.03391 
C 391.326483 101.909179 392.071535 103.707894 393.397551 105.03391 
C 394.723566 106.359925 396.522281 107.104977 398.397551 107.104977 
z
" style="fill:#ff0000;fill-opacity:0.7;stroke:#ff0000;stroke-opacity:0.7;"/>
    <path clip-path="url(#p2e9af03224)" d="M 428.019573 80.078347 
C 429.894842 80.078347 431.693557 79.333294 433.019573 78.007279 
C 434.345588 76.681263 435.09064 74.882548 435.09064 73.007279 
C 435.09064 71.13201 434.345588 69.333294 433.019573 68.007279 
C 431.693557 66.681263 429.894842 65.936211 428.019573 65.936211 
C 426.144303 65.936211 424.345588 66.681263 423.019573 68.007279 
C 421.693557 69.333294 420.948505 71.13201 420.948505 73.007279 
C 420.948505 74.882548 421.693557 76.681263 423.019573 78.007279 
C 424.345588 79.333294 426.144303 80.078347 428.019573 80.078347 
z
" style="fill:#ff0000;fill-opacity:0.7;stroke:#ff0000;stroke-opacity:0.7;"/>
   </g>
   <g id="matplotlib.axis_1">
    <g id="xtick_1">
     <g id="line2d_1">
      <defs>
       <path d="M 0 0 
L 0 3.5 
" id="m18f84f48ec" style="stroke:#000000;stroke-width:0.8;"/>
      </defs>
      <g>
       <use style="stroke:#000000;stroke-width:0.8;" x="73.73" xlink:href="#m18f84f48ec" y="1038.04"/>
      </g>
     </g>
     <g id="text_1">
      <!-- 0.1 -->
      <defs>
       <path d="M 31.78125 66.40625 
Q 24.171875 66.40625 20.328125 58.90625 
Q 16.5 51.421875 16.5 36.375 
Q 16.5 21.390625 20.328125 13.890625 
Q 24.171875 6.390625 31.78125 6.390625 
Q 39.453125 6.390625 43.28125 13.890625 
Q 47.125 21.390625 47.125 36.375 
Q 47.125 51.421875 43.28125 58.90625 
Q 39.453125 66.40625 31.78125 66.40625 
z
M 31.78125 74.21875 
Q 44.046875 74.21875 50.515625 64.515625 
Q 56.984375 54.828125 56.984375 36.375 
Q 56.984375 17.96875 50.515625 8.265625 
Q 44.046875 -1.421875 31.78125 -1.421875 
Q 19.53125 -1.421875 13.0625 8.265625 
Q 6.59375 17.96875 6.59375 36.375 
Q 6.59375 54.828125 13.0625 64.515625 
Q 19.53125 74.21875 31.78125 74.21875 
z
" id="DejaVuSans-48"/>
       <path d="M 10.6875 12.40625 
L 21 12.40625 
L 21 0 
L 10.6875 0 
z
" id="DejaVuSans-46"/>
       <path d="M 12.40625 8.296875 
L 28.515625 8.296875 
L 28.515625 63.921875 
L 10.984375 60.40625 
L 10.984375 69.390625 
L 28.421875 72.90625 
L 38.28125 72.90625 
L 38.28125 8.296875 
L 54.390625 8.296875 
L 54.390625 0 
L 12.40625 0 
z
" id="DejaVuSans-49"/>
      </defs>
      <g transform="translate(65.778438 1052.638438)scale(0.1 -0.1)">
       <use xlink:href="#DejaVuSans-48"/>
       <use x="63.623047" xlink:href="#DejaVuSans-46"/>
       <use x="95.410156" xlink:href="#DejaVuSans-49"/>
      </g>
     </g>
    </g>
    <g id="xtick_2">
     <g id="line2d_2">
      <g>
       <use style="stroke:#000000;stroke-width:0.8;" x="152.17375" xlink:href="#m18f84f48ec" y="1038.04"/>
      </g>
     </g>
     <g id="text_2">
      <!-- 0.2 -->
      <defs>
       <path d="M 19.1875 8.296875 
L 53.609375 8.296875 
L 53.609375 0 
L 7.328125 0 
L 7.328125 8.296875 
Q 12.9375 14.109375 22.625 23.890625 
Q 32.328125 33.6875 34.8125 36.53125 
Q 39.546875 41.84375 41.421875 45.53125 
Q 43.3125 49.21875 43.3125 52.78125 
Q 43.3125 58.59375 39.234375 62.25 
Q 35.15625 65.921875 28.609375 65.921875 
Q 23.96875 65.921875 18.8125 64.3125 
Q 13.671875 62.703125 7.8125 59.421875 
L 7.8125 69.390625 
Q 13.765625 71.78125 18.9375 73 
Q 24.125 74.21875 28.421875 74.21875 
Q 39.75 74.21875 46.484375 68.546875 
Q 53.21875 62.890625 53.21875 53.421875 
Q 53.21875 48.921875 51.53125 44.890625 
Q 49.859375 40.875 45.40625 35.40625 
Q 44.1875 33.984375 37.640625 27.21875 
Q 31.109375 20.453125 19.1875 8.296875 
z
" id="DejaVuSans-50"/>
      </defs>
      <g transform="translate(144.222188 1052.638438)scale(0.1 -0.1)">
       <use xlink:href="#DejaVuSans-48"/>
       <use x="63.623047" xlink:href="#DejaVuSans-46"/>
       <use x="95.410156" xlink:href="#DejaVuSans-50"/>
      </g>
     </g>
    </g>
    <g id="xtick_3">
     <g id="line2d_3">
      <g>
       <use style="stroke:#000000;stroke-width:0.8;" x="230.6175" xlink:href="#m18f84f48ec" y="1038.04"/>
      </g>
     </g>
     <g id="text_3">
      <!-- 0.3 -->
      <defs>
       <path d="M 40.578125 39.3125 
Q 47.65625 37.796875 51.625 33 
Q 55.609375 28.21875 55.609375 21.1875 
Q 55.609375 10.40625 48.1875 4.484375 
Q 40.765625 -1.421875 27.09375 -1.421875 
Q 22.515625 -1.421875 17.65625 -0.515625 
Q 12.796875 0.390625 7.625 2.203125 
L 7.625 11.71875 
Q 11.71875 9.328125 16.59375 8.109375 
Q 21.484375 6.890625 26.8125 6.890625 
Q 36.078125 6.890625 40.9375 10.546875 
Q 45.796875 14.203125 45.796875 21.1875 
Q 45.796875 27.640625 41.28125 31.265625 
Q 36.765625 34.90625 28.71875 34.90625 
L 20.21875 34.90625 
L 20.21875 43.015625 
L 29.109375 43.015625 
Q 36.375 43.015625 40.234375 45.921875 
Q 44.09375 48.828125 44.09375 54.296875 
Q 44.09375 59.90625 40.109375 62.90625 
Q 36.140625 65.921875 28.71875 65.921875 
Q 24.65625 65.921875 20.015625 65.03125 
Q 15.375 64.15625 9.8125 62.3125 
L 9.8125 71.09375 
Q 15.4375 72.65625 20.34375 73.4375 
Q 25.25 74.21875 29.59375 74.21875 
Q 40.828125 74.21875 47.359375 69.109375 
Q 53.90625 64.015625 53.90625 55.328125 
Q 53.90625 49.265625 50.4375 45.09375 
Q 46.96875 40.921875 40.578125 39.3125 
z
" id="DejaVuSans-51"/>
      </defs>
      <g transform="translate(222.665938 1052.638438)scale(0.1 -0.1)">
       <use xlink:href="#DejaVuSans-48"/>
       <use x="63.623047" xlink:href="#DejaVuSans-46"/>
       <use x="95.410156" xlink:href="#DejaVuSans-51"/>
      </g>
     </g>
    </g>
    <g id="xtick_4">
     <g id="line2d_4">
      <g>
       <use style="stroke:#000000;stroke-width:0.8;" x="309.06125" xlink:href="#m18f84f48ec" y="1038.04"/>
      </g>
     </g>
     <g id="text_4">
      <!-- 0.4 -->
      <defs>
       <path d="M 37.796875 64.3125 
L 12.890625 25.390625 
L 37.796875 25.390625 
z
M 35.203125 72.90625 
L 47.609375 72.90625 
L 47.609375 25.390625 
L 58.015625 25.390625 
L 58.015625 17.1875 
L 47.609375 17.1875 
L 47.609375 0 
L 37.796875 0 
L 37.796875 17.1875 
L 4.890625 17.1875 
L 4.890625 26.703125 
z
" id="DejaVuSans-52"/>
      </defs>
      <g transform="translate(301.109688 1052.638438)scale(0.1 -0.1)">
       <use xlink:href="#DejaVuSans-48"/>
       <use x="63.623047" xlink:href="#DejaVuSans-46"/>
       <use x="95.410156" xlink:href="#DejaVuSans-52"/>
      </g>
     </g>
    </g>
    <g id="xtick_5">
     <g id="line2d_5">
      <g>
       <use style="stroke:#000000;stroke-width:0.8;" x="387.505" xlink:href="#m18f84f48ec" y="1038.04"/>
      </g>
     </g>
     <g id="text_5">
      <!-- 0.5 -->
      <defs>
       <path d="M 10.796875 72.90625 
L 49.515625 72.90625 
L 49.515625 64.59375 
L 19.828125 64.59375 
L 19.828125 46.734375 
Q 21.96875 47.46875 24.109375 47.828125 
Q 26.265625 48.1875 28.421875 48.1875 
Q 40.625 48.1875 47.75 41.5 
Q 54.890625 34.8125 54.890625 23.390625 
Q 54.890625 11.625 47.5625 5.09375 
Q 40.234375 -1.421875 26.90625 -1.421875 
Q 22.3125 -1.421875 17.546875 -0.640625 
Q 12.796875 0.140625 7.71875 1.703125 
L 7.71875 11.625 
Q 12.109375 9.234375 16.796875 8.0625 
Q 21.484375 6.890625 26.703125 6.890625 
Q 35.15625 6.890625 40.078125 11.328125 
Q 45.015625 15.765625 45.015625 23.390625 
Q 45.015625 31 40.078125 35.4375 
Q 35.15625 39.890625 26.703125 39.890625 
Q 22.75 39.890625 18.8125 39.015625 
Q 14.890625 38.140625 10.796875 36.28125 
z
" id="DejaVuSans-53"/>
      </defs>
      <g transform="translate(379.553437 1052.638438)scale(0.1 -0.1)">
       <use xlink:href="#DejaVuSans-48"/>
       <use x="63.623047" xlink:href="#DejaVuSans-46"/>
       <use x="95.410156" xlink:href="#DejaVuSans-53"/>
      </g>
     </g>
    </g>
    <g id="xtick_6">
     <g id="line2d_6">
      <g>
       <use style="stroke:#000000;stroke-width:0.8;" x="465.94875" xlink:href="#m18f84f48ec" y="1038.04"/>
      </g>
     </g>
     <g id="text_6">
      <!-- 0.6 -->
      <defs>
       <path d="M 33.015625 40.375 
Q 26.375 40.375 22.484375 35.828125 
Q 18.609375 31.296875 18.609375 23.390625 
Q 18.609375 15.53125 22.484375 10.953125 
Q 26.375 6.390625 33.015625 6.390625 
Q 39.65625 6.390625 43.53125 10.953125 
Q 47.40625 15.53125 47.40625 23.390625 
Q 47.40625 31.296875 43.53125 35.828125 
Q 39.65625 40.375 33.015625 40.375 
z
M 52.59375 71.296875 
L 52.59375 62.3125 
Q 48.875 64.0625 45.09375 64.984375 
Q 41.3125 65.921875 37.59375 65.921875 
Q 27.828125 65.921875 22.671875 59.328125 
Q 17.53125 52.734375 16.796875 39.40625 
Q 19.671875 43.65625 24.015625 45.921875 
Q 28.375 48.1875 33.59375 48.1875 
Q 44.578125 48.1875 50.953125 41.515625 
Q 57.328125 34.859375 57.328125 23.390625 
Q 57.328125 12.15625 50.6875 5.359375 
Q 44.046875 -1.421875 33.015625 -1.421875 
Q 20.359375 -1.421875 13.671875 8.265625 
Q 6.984375 17.96875 6.984375 36.375 
Q 6.984375 53.65625 15.1875 63.9375 
Q 23.390625 74.21875 37.203125 74.21875 
Q 40.921875 74.21875 44.703125 73.484375 
Q 48.484375 72.75 52.59375 71.296875 
z
" id="DejaVuSans-54"/>
      </defs>
      <g transform="translate(457.997187 1052.638438)scale(0.1 -0.1)">
       <use xlink:href="#DejaVuSans-48"/>
       <use x="63.623047" xlink:href="#DejaVuSans-46"/>
       <use x="95.410156" xlink:href="#DejaVuSans-54"/>
      </g>
     </g>
    </g>
    <g id="xtick_7">
     <g id="line2d_7">
      <g>
       <use style="stroke:#000000;stroke-width:0.8;" x="544.3925" xlink:href="#m18f84f48ec" y="1038.04"/>
      </g>
     </g>
     <g id="text_7">
      <!-- 0.7 -->
      <defs>
       <path d="M 8.203125 72.90625 
L 55.078125 72.90625 
L 55.078125 68.703125 
L 28.609375 0 
L 18.3125 0 
L 43.21875 64.59375 
L 8.203125 64.59375 
z
" id="DejaVuSans-55"/>
      </defs>
      <g transform="translate(536.440937 1052.638438)scale(0.1 -0.1)">
       <use xlink:href="#DejaVuSans-48"/>
       <use x="63.623047" xlink:href="#DejaVuSans-46"/>
       <use x="95.410156" xlink:href="#DejaVuSans-55"/>
      </g>
     </g>
    </g>
    <g id="xtick_8">
     <g id="line2d_8">
      <g>
       <use style="stroke:#000000;stroke-width:0.8;" x="622.83625" xlink:href="#m18f84f48ec" y="1038.04"/>
      </g>
     </g>
     <g id="text_8">
      <!-- 0.8 -->
      <defs>
       <path d="M 31.78125 34.625 
Q 24.75 34.625 20.71875 30.859375 
Q 16.703125 27.09375 16.703125 20.515625 
Q 16.703125 13.921875 20.71875 10.15625 
Q 24.75 6.390625 31.78125 6.390625 
Q 38.8125 6.390625 42.859375 10.171875 
Q 46.921875 13.96875 46.921875 20.515625 
Q 46.921875 27.09375 42.890625 30.859375 
Q 38.875 34.625 31.78125 34.625 
z
M 21.921875 38.8125 
Q 15.578125 40.375 12.03125 44.71875 
Q 8.5 49.078125 8.5 55.328125 
Q 8.5 64.0625 14.71875 69.140625 
Q 20.953125 74.21875 31.78125 74.21875 
Q 42.671875 74.21875 48.875 69.140625 
Q 55.078125 64.0625 55.078125 55.328125 
Q 55.078125 49.078125 51.53125 44.71875 
Q 48 40.375 41.703125 38.8125 
Q 48.828125 37.15625 52.796875 32.3125 
Q 56.78125 27.484375 56.78125 20.515625 
Q 56.78125 9.90625 50.3125 4.234375 
Q 43.84375 -1.421875 31.78125 -1.421875 
Q 19.734375 -1.421875 13.25 4.234375 
Q 6.78125 9.90625 6.78125 20.515625 
Q 6.78125 27.484375 10.78125 32.3125 
Q 14.796875 37.15625 21.921875 38.8125 
z
M 18.3125 54.390625 
Q 18.3125 48.734375 21.84375 45.5625 
Q 25.390625 42.390625 31.78125 42.390625 
Q 38.140625 42.390625 41.71875 45.5625 
Q 45.3125 48.734375 45.3125 54.390625 
Q 45.3125 60.0625 41.71875 63.234375 
Q 38.140625 66.40625 31.78125 66.40625 
Q 25.390625 66.40625 21.84375 63.234375 
Q 18.3125 60.0625 18.3125 54.390625 
z
" id="DejaVuSans-56"/>
      </defs>
      <g transform="translate(614.884688 1052.638438)scale(0.1 -0.1)">
       <use xlink:href="#DejaVuSans-48"/>
       <use x="63.623047" xlink:href="#DejaVuSans-46"/>
       <use x="95.410156" xlink:href="#DejaVuSans-56"/>
      </g>
     </g>
    </g>
    <g id="xtick_9">
     <g id="line2d_9">
      <g>
       <use style="stroke:#000000;stroke-width:0.8;" x="701.28" xlink:href="#m18f84f48ec" y="1038.04"/>
      </g>
     </g>
     <g id="text_9">
      <!-- 0.9 -->
      <defs>
       <path d="M 10.984375 1.515625 
L 10.984375 10.5 
Q 14.703125 8.734375 18.5 7.8125 
Q 22.3125 6.890625 25.984375 6.890625 
Q 35.75 6.890625 40.890625 13.453125 
Q 46.046875 20.015625 46.78125 33.40625 
Q 43.953125 29.203125 39.59375 26.953125 
Q 35.25 24.703125 29.984375 24.703125 
Q 19.046875 24.703125 12.671875 31.3125 
Q 6.296875 37.9375 6.296875 49.421875 
Q 6.296875 60.640625 12.9375 67.421875 
Q 19.578125 74.21875 30.609375 74.21875 
Q 43.265625 74.21875 49.921875 64.515625 
Q 56.59375 54.828125 56.59375 36.375 
Q 56.59375 19.140625 48.40625 8.859375 
Q 40.234375 -1.421875 26.421875 -1.421875 
Q 22.703125 -1.421875 18.890625 -0.6875 
Q 15.09375 0.046875 10.984375 1.515625 
z
M 30.609375 32.421875 
Q 37.25 32.421875 41.125 36.953125 
Q 45.015625 41.5 45.015625 49.421875 
Q 45.015625 57.28125 41.125 61.84375 
Q 37.25 66.40625 30.609375 66.40625 
Q 23.96875 66.40625 20.09375 61.84375 
Q 16.21875 57.28125 16.21875 49.421875 
Q 16.21875 41.5 20.09375 36.953125 
Q 23.96875 32.421875 30.609375 32.421875 
z
" id="DejaVuSans-57"/>
      </defs>
      <g transform="translate(693.328437 1052.638438)scale(0.1 -0.1)">
       <use xlink:href="#DejaVuSans-48"/>
       <use x="63.623047" xlink:href="#DejaVuSans-46"/>
       <use x="95.410156" xlink:href="#DejaVuSans-57"/>
      </g>
     </g>
    </g>
    <g id="text_10">
     <!-- Proporcao -->
     <defs>
      <path d="M 19.671875 64.796875 
L 19.671875 37.40625 
L 32.078125 37.40625 
Q 38.96875 37.40625 42.71875 40.96875 
Q 46.484375 44.53125 46.484375 51.125 
Q 46.484375 57.671875 42.71875 61.234375 
Q 38.96875 64.796875 32.078125 64.796875 
z
M 9.8125 72.90625 
L 32.078125 72.90625 
Q 44.34375 72.90625 50.609375 67.359375 
Q 56.890625 61.8125 56.890625 51.125 
Q 56.890625 40.328125 50.609375 34.8125 
Q 44.34375 29.296875 32.078125 29.296875 
L 19.671875 29.296875 
L 19.671875 0 
L 9.8125 0 
z
" id="DejaVuSans-80"/>
      <path d="M 41.109375 46.296875 
Q 39.59375 47.171875 37.8125 47.578125 
Q 36.03125 48 33.890625 48 
Q 26.265625 48 22.1875 43.046875 
Q 18.109375 38.09375 18.109375 28.8125 
L 18.109375 0 
L 9.078125 0 
L 9.078125 54.6875 
L 18.109375 54.6875 
L 18.109375 46.1875 
Q 20.953125 51.171875 25.484375 53.578125 
Q 30.03125 56 36.53125 56 
Q 37.453125 56 38.578125 55.875 
Q 39.703125 55.765625 41.0625 55.515625 
z
" id="DejaVuSans-114"/>
      <path d="M 30.609375 48.390625 
Q 23.390625 48.390625 19.1875 42.75 
Q 14.984375 37.109375 14.984375 27.296875 
Q 14.984375 17.484375 19.15625 11.84375 
Q 23.34375 6.203125 30.609375 6.203125 
Q 37.796875 6.203125 41.984375 11.859375 
Q 46.1875 17.53125 46.1875 27.296875 
Q 46.1875 37.015625 41.984375 42.703125 
Q 37.796875 48.390625 30.609375 48.390625 
z
M 30.609375 56 
Q 42.328125 56 49.015625 48.375 
Q 55.71875 40.765625 55.71875 27.296875 
Q 55.71875 13.875 49.015625 6.21875 
Q 42.328125 -1.421875 30.609375 -1.421875 
Q 18.84375 -1.421875 12.171875 6.21875 
Q 5.515625 13.875 5.515625 27.296875 
Q 5.515625 40.765625 12.171875 48.375 
Q 18.84375 56 30.609375 56 
z
" id="DejaVuSans-111"/>
      <path d="M 18.109375 8.203125 
L 18.109375 -20.796875 
L 9.078125 -20.796875 
L 9.078125 54.6875 
L 18.109375 54.6875 
L 18.109375 46.390625 
Q 20.953125 51.265625 25.265625 53.625 
Q 29.59375 56 35.59375 56 
Q 45.5625 56 51.78125 48.09375 
Q 58.015625 40.1875 58.015625 27.296875 
Q 58.015625 14.40625 51.78125 6.484375 
Q 45.5625 -1.421875 35.59375 -1.421875 
Q 29.59375 -1.421875 25.265625 0.953125 
Q 20.953125 3.328125 18.109375 8.203125 
z
M 48.6875 27.296875 
Q 48.6875 37.203125 44.609375 42.84375 
Q 40.53125 48.484375 33.40625 48.484375 
Q 26.265625 48.484375 22.1875 42.84375 
Q 18.109375 37.203125 18.109375 27.296875 
Q 18.109375 17.390625 22.1875 11.75 
Q 26.265625 6.109375 33.40625 6.109375 
Q 40.53125 6.109375 44.609375 11.75 
Q 48.6875 17.390625 48.6875 27.296875 
z
" id="DejaVuSans-112"/>
      <path d="M 48.78125 52.59375 
L 48.78125 44.1875 
Q 44.96875 46.296875 41.140625 47.34375 
Q 37.3125 48.390625 33.40625 48.390625 
Q 24.65625 48.390625 19.8125 42.84375 
Q 14.984375 37.3125 14.984375 27.296875 
Q 14.984375 17.28125 19.8125 11.734375 
Q 24.65625 6.203125 33.40625 6.203125 
Q 37.3125 6.203125 41.140625 7.25 
Q 44.96875 8.296875 48.78125 10.40625 
L 48.78125 2.09375 
Q 45.015625 0.34375 40.984375 -0.53125 
Q 36.96875 -1.421875 32.421875 -1.421875 
Q 20.0625 -1.421875 12.78125 6.34375 
Q 5.515625 14.109375 5.515625 27.296875 
Q 5.515625 40.671875 12.859375 48.328125 
Q 20.21875 56 33.015625 56 
Q 37.15625 56 41.109375 55.140625 
Q 45.0625 54.296875 48.78125 52.59375 
z
" id="DejaVuSans-99"/>
      <path d="M 34.28125 27.484375 
Q 23.390625 27.484375 19.1875 25 
Q 14.984375 22.515625 14.984375 16.5 
Q 14.984375 11.71875 18.140625 8.90625 
Q 21.296875 6.109375 26.703125 6.109375 
Q 34.1875 6.109375 38.703125 11.40625 
Q 43.21875 16.703125 43.21875 25.484375 
L 43.21875 27.484375 
z
M 52.203125 31.203125 
L 52.203125 0 
L 43.21875 0 
L 43.21875 8.296875 
Q 40.140625 3.328125 35.546875 0.953125 
Q 30.953125 -1.421875 24.3125 -1.421875 
Q 15.921875 -1.421875 10.953125 3.296875 
Q 6 8.015625 6 15.921875 
Q 6 25.140625 12.171875 29.828125 
Q 18.359375 34.515625 30.609375 34.515625 
L 43.21875 34.515625 
L 43.21875 35.40625 
Q 43.21875 41.609375 39.140625 45 
Q 35.0625 48.390625 27.6875 48.390625 
Q 23 48.390625 18.546875 47.265625 
Q 14.109375 46.140625 10.015625 43.890625 
L 10.015625 52.203125 
Q 14.9375 54.109375 19.578125 55.046875 
Q 24.21875 56 28.609375 56 
Q 40.484375 56 46.34375 49.84375 
Q 52.203125 43.703125 52.203125 31.203125 
z
" id="DejaVuSans-97"/>
     </defs>
     <g transform="translate(362.2175 1066.316563)scale(0.1 -0.1)">
      <use xlink:href="#DejaVuSans-80"/>
      <use x="60.287109" xlink:href="#DejaVuSans-114"/>
      <use x="101.369141" xlink:href="#DejaVuSans-111"/>
      <use x="162.550781" xlink:href="#DejaVuSans-112"/>
      <use x="226.027344" xlink:href="#DejaVuSans-111"/>
      <use x="287.208984" xlink:href="#DejaVuSans-114"/>
      <use x="328.291016" xlink:href="#DejaVuSans-99"/>
      <use x="383.271484" xlink:href="#DejaVuSans-97"/>
      <use x="444.550781" xlink:href="#DejaVuSans-111"/>
     </g>
    </g>
   </g>
   <g id="matplotlib.axis_2">
    <g id="ytick_1">
     <g id="line2d_10">
      <defs>
       <path d="M 0 0 
L -3.5 0 
" id="m15ec6a2d45" style="stroke:#000000;stroke-width:0.8;"/>
      </defs>
      <g>
       <use style="stroke:#000000;stroke-width:0.8;" x="73.73" xlink:href="#m15ec6a2d45" y="991.912721"/>
      </g>
     </g>
     <g id="text_11">
      <!-- NOVO -->
      <defs>
       <path d="M 9.8125 72.90625 
L 23.09375 72.90625 
L 55.421875 11.921875 
L 55.421875 72.90625 
L 64.984375 72.90625 
L 64.984375 0 
L 51.703125 0 
L 19.390625 60.984375 
L 19.390625 0 
L 9.8125 0 
z
" id="DejaVuSans-78"/>
       <path d="M 39.40625 66.21875 
Q 28.65625 66.21875 22.328125 58.203125 
Q 16.015625 50.203125 16.015625 36.375 
Q 16.015625 22.609375 22.328125 14.59375 
Q 28.65625 6.59375 39.40625 6.59375 
Q 50.140625 6.59375 56.421875 14.59375 
Q 62.703125 22.609375 62.703125 36.375 
Q 62.703125 50.203125 56.421875 58.203125 
Q 50.140625 66.21875 39.40625 66.21875 
z
M 39.40625 74.21875 
Q 54.734375 74.21875 63.90625 63.9375 
Q 73.09375 53.65625 73.09375 36.375 
Q 73.09375 19.140625 63.90625 8.859375 
Q 54.734375 -1.421875 39.40625 -1.421875 
Q 24.03125 -1.421875 14.8125 8.828125 
Q 5.609375 19.09375 5.609375 36.375 
Q 5.609375 53.65625 14.8125 63.9375 
Q 24.03125 74.21875 39.40625 74.21875 
z
" id="DejaVuSans-79"/>
       <path d="M 28.609375 0 
L 0.78125 72.90625 
L 11.078125 72.90625 
L 34.1875 11.53125 
L 57.328125 72.90625 
L 67.578125 72.90625 
L 39.796875 0 
z
" id="DejaVuSans-86"/>
      </defs>
      <g transform="translate(36.6675 995.71194)scale(0.1 -0.1)">
       <use xlink:href="#DejaVuSans-78"/>
       <use x="74.804688" xlink:href="#DejaVuSans-79"/>
       <use x="153.5" xlink:href="#DejaVuSans-86"/>
       <use x="221.892578" xlink:href="#DejaVuSans-79"/>
      </g>
     </g>
    </g>
    <g id="ytick_2">
     <g id="line2d_11">
      <g>
       <use style="stroke:#000000;stroke-width:0.8;" x="73.73" xlink:href="#m15ec6a2d45" y="964.88609"/>
      </g>
     </g>
     <g id="text_12">
      <!-- REDE -->
      <defs>
       <path d="M 44.390625 34.1875 
Q 47.5625 33.109375 50.5625 29.59375 
Q 53.5625 26.078125 56.59375 19.921875 
L 66.609375 0 
L 56 0 
L 46.6875 18.703125 
Q 43.0625 26.03125 39.671875 28.421875 
Q 36.28125 30.8125 30.421875 30.8125 
L 19.671875 30.8125 
L 19.671875 0 
L 9.8125 0 
L 9.8125 72.90625 
L 32.078125 72.90625 
Q 44.578125 72.90625 50.734375 67.671875 
Q 56.890625 62.453125 56.890625 51.90625 
Q 56.890625 45.015625 53.6875 40.46875 
Q 50.484375 35.9375 44.390625 34.1875 
z
M 19.671875 64.796875 
L 19.671875 38.921875 
L 32.078125 38.921875 
Q 39.203125 38.921875 42.84375 42.21875 
Q 46.484375 45.515625 46.484375 51.90625 
Q 46.484375 58.296875 42.84375 61.546875 
Q 39.203125 64.796875 32.078125 64.796875 
z
" id="DejaVuSans-82"/>
       <path d="M 9.8125 72.90625 
L 55.90625 72.90625 
L 55.90625 64.59375 
L 19.671875 64.59375 
L 19.671875 43.015625 
L 54.390625 43.015625 
L 54.390625 34.71875 
L 19.671875 34.71875 
L 19.671875 8.296875 
L 56.78125 8.296875 
L 56.78125 0 
L 9.8125 0 
z
" id="DejaVuSans-69"/>
       <path d="M 19.671875 64.796875 
L 19.671875 8.109375 
L 31.59375 8.109375 
Q 46.6875 8.109375 53.6875 14.9375 
Q 60.6875 21.78125 60.6875 36.53125 
Q 60.6875 51.171875 53.6875 57.984375 
Q 46.6875 64.796875 31.59375 64.796875 
z
M 9.8125 72.90625 
L 30.078125 72.90625 
Q 51.265625 72.90625 61.171875 64.09375 
Q 71.09375 55.28125 71.09375 36.53125 
Q 71.09375 17.671875 61.125 8.828125 
Q 51.171875 0 30.078125 0 
L 9.8125 0 
z
" id="DejaVuSans-68"/>
      </defs>
      <g transform="translate(39.444063 968.685309)scale(0.1 -0.1)">
       <use xlink:href="#DejaVuSans-82"/>
       <use x="69.482422" xlink:href="#DejaVuSans-69"/>
       <use x="132.666016" xlink:href="#DejaVuSans-68"/>
       <use x="209.667969" xlink:href="#DejaVuSans-69"/>
      </g>
     </g>
    </g>
    <g id="ytick_3">
     <g id="line2d_12">
      <g>
       <use style="stroke:#000000;stroke-width:0.8;" x="73.73" xlink:href="#m15ec6a2d45" y="937.85946"/>
      </g>
     </g>
     <g id="text_13">
      <!-- PCO -->
      <defs>
       <path d="M 64.40625 67.28125 
L 64.40625 56.890625 
Q 59.421875 61.53125 53.78125 63.8125 
Q 48.140625 66.109375 41.796875 66.109375 
Q 29.296875 66.109375 22.65625 58.46875 
Q 16.015625 50.828125 16.015625 36.375 
Q 16.015625 21.96875 22.65625 14.328125 
Q 29.296875 6.6875 41.796875 6.6875 
Q 48.140625 6.6875 53.78125 8.984375 
Q 59.421875 11.28125 64.40625 15.921875 
L 64.40625 5.609375 
Q 59.234375 2.09375 53.4375 0.328125 
Q 47.65625 -1.421875 41.21875 -1.421875 
Q 24.65625 -1.421875 15.125 8.703125 
Q 5.609375 18.84375 5.609375 36.375 
Q 5.609375 53.953125 15.125 64.078125 
Q 24.65625 74.21875 41.21875 74.21875 
Q 47.75 74.21875 53.53125 72.484375 
Q 59.328125 70.75 64.40625 67.28125 
z
" id="DejaVuSans-67"/>
      </defs>
      <g transform="translate(45.845625 941.658679)scale(0.1 -0.1)">
       <use xlink:href="#DejaVuSans-80"/>
       <use x="60.302734" xlink:href="#DejaVuSans-67"/>
       <use x="130.126953" xlink:href="#DejaVuSans-79"/>
      </g>
     </g>
    </g>
    <g id="ytick_4">
     <g id="line2d_13">
      <g>
       <use style="stroke:#000000;stroke-width:0.8;" x="73.73" xlink:href="#m15ec6a2d45" y="910.832829"/>
      </g>
     </g>
     <g id="text_14">
      <!-- PATRI -->
      <defs>
       <path d="M 34.1875 63.1875 
L 20.796875 26.90625 
L 47.609375 26.90625 
z
M 28.609375 72.90625 
L 39.796875 72.90625 
L 67.578125 0 
L 57.328125 0 
L 50.6875 18.703125 
L 17.828125 18.703125 
L 11.1875 0 
L 0.78125 0 
z
" id="DejaVuSans-65"/>
       <path d="M -0.296875 72.90625 
L 61.375 72.90625 
L 61.375 64.59375 
L 35.5 64.59375 
L 35.5 0 
L 25.59375 0 
L 25.59375 64.59375 
L -0.296875 64.59375 
z
" id="DejaVuSans-84"/>
       <path d="M 9.8125 72.90625 
L 19.671875 72.90625 
L 19.671875 0 
L 9.8125 0 
z
" id="DejaVuSans-73"/>
      </defs>
      <g transform="translate(37.87375 914.632048)scale(0.1 -0.1)">
       <use xlink:href="#DejaVuSans-80"/>
       <use x="60.208984" xlink:href="#DejaVuSans-65"/>
       <use x="128.507812" xlink:href="#DejaVuSans-84"/>
       <use x="189.591797" xlink:href="#DejaVuSans-82"/>
       <use x="259.074219" xlink:href="#DejaVuSans-73"/>
      </g>
     </g>
    </g>
    <g id="ytick_5">
     <g id="line2d_14">
      <g>
       <use style="stroke:#000000;stroke-width:0.8;" x="73.73" xlink:href="#m15ec6a2d45" y="883.806198"/>
      </g>
     </g>
     <g id="text_15">
      <!-- PROS -->
      <defs>
       <path d="M 53.515625 70.515625 
L 53.515625 60.890625 
Q 47.90625 63.578125 42.921875 64.890625 
Q 37.9375 66.21875 33.296875 66.21875 
Q 25.25 66.21875 20.875 63.09375 
Q 16.5 59.96875 16.5 54.203125 
Q 16.5 49.359375 19.40625 46.890625 
Q 22.3125 44.4375 30.421875 42.921875 
L 36.375 41.703125 
Q 47.40625 39.59375 52.65625 34.296875 
Q 57.90625 29 57.90625 20.125 
Q 57.90625 9.515625 50.796875 4.046875 
Q 43.703125 -1.421875 29.984375 -1.421875 
Q 24.8125 -1.421875 18.96875 -0.25 
Q 13.140625 0.921875 6.890625 3.21875 
L 6.890625 13.375 
Q 12.890625 10.015625 18.65625 8.296875 
Q 24.421875 6.59375 29.984375 6.59375 
Q 38.421875 6.59375 43.015625 9.90625 
Q 47.609375 13.234375 47.609375 19.390625 
Q 47.609375 24.75 44.3125 27.78125 
Q 41.015625 30.8125 33.5 32.328125 
L 27.484375 33.5 
Q 16.453125 35.6875 11.515625 40.375 
Q 6.59375 45.0625 6.59375 53.421875 
Q 6.59375 63.09375 13.40625 68.65625 
Q 20.21875 74.21875 32.171875 74.21875 
Q 37.3125 74.21875 42.625 73.28125 
Q 47.953125 72.359375 53.515625 70.515625 
z
" id="DejaVuSans-83"/>
      </defs>
      <g transform="translate(39.531563 887.605417)scale(0.1 -0.1)">
       <use xlink:href="#DejaVuSans-80"/>
       <use x="60.302734" xlink:href="#DejaVuSans-82"/>
       <use x="129.785156" xlink:href="#DejaVuSans-79"/>
       <use x="208.496094" xlink:href="#DejaVuSans-83"/>
      </g>
     </g>
    </g>
    <g id="ytick_6">
     <g id="line2d_15">
      <g>
       <use style="stroke:#000000;stroke-width:0.8;" x="73.73" xlink:href="#m15ec6a2d45" y="856.779568"/>
      </g>
     </g>
     <g id="text_16">
      <!-- PSD -->
      <g transform="translate(46.651875 860.578787)scale(0.1 -0.1)">
       <use xlink:href="#DejaVuSans-80"/>
       <use x="60.302734" xlink:href="#DejaVuSans-83"/>
       <use x="123.779297" xlink:href="#DejaVuSans-68"/>
      </g>
     </g>
    </g>
    <g id="ytick_7">
     <g id="line2d_16">
      <g>
       <use style="stroke:#000000;stroke-width:0.8;" x="73.73" xlink:href="#m15ec6a2d45" y="829.752937"/>
      </g>
     </g>
     <g id="text_17">
      <!-- PSL -->
      <defs>
       <path d="M 9.8125 72.90625 
L 19.671875 72.90625 
L 19.671875 8.296875 
L 55.171875 8.296875 
L 55.171875 0 
L 9.8125 0 
z
" id="DejaVuSans-76"/>
      </defs>
      <g transform="translate(48.78 833.552156)scale(0.1 -0.1)">
       <use xlink:href="#DejaVuSans-80"/>
       <use x="60.302734" xlink:href="#DejaVuSans-83"/>
       <use x="123.779297" xlink:href="#DejaVuSans-76"/>
      </g>
     </g>
    </g>
    <g id="ytick_8">
     <g id="line2d_17">
      <g>
       <use style="stroke:#000000;stroke-width:0.8;" x="73.73" xlink:href="#m15ec6a2d45" y="802.726307"/>
      </g>
     </g>
     <g id="text_18">
      <!-- PV -->
      <g transform="translate(53.859688 806.525525)scale(0.1 -0.1)">
       <use xlink:href="#DejaVuSans-80"/>
       <use x="60.302734" xlink:href="#DejaVuSans-86"/>
      </g>
     </g>
    </g>
    <g id="ytick_9">
     <g id="line2d_18">
      <g>
       <use style="stroke:#000000;stroke-width:0.8;" x="73.73" xlink:href="#m15ec6a2d45" y="775.699676"/>
      </g>
     </g>
     <g id="text_19">
      <!-- PPS -->
      <g transform="translate(48.322187 779.498895)scale(0.1 -0.1)">
       <use xlink:href="#DejaVuSans-80"/>
       <use x="60.302734" xlink:href="#DejaVuSans-80"/>
       <use x="120.605469" xlink:href="#DejaVuSans-83"/>
      </g>
     </g>
    </g>
    <g id="ytick_10">
     <g id="line2d_19">
      <g>
       <use style="stroke:#000000;stroke-width:0.8;" x="73.73" xlink:href="#m15ec6a2d45" y="748.673045"/>
      </g>
     </g>
     <g id="text_20">
      <!-- PODE -->
      <g transform="translate(38.809688 752.472264)scale(0.1 -0.1)">
       <use xlink:href="#DejaVuSans-80"/>
       <use x="60.302734" xlink:href="#DejaVuSans-79"/>
       <use x="139.013672" xlink:href="#DejaVuSans-68"/>
       <use x="216.015625" xlink:href="#DejaVuSans-69"/>
      </g>
     </g>
    </g>
    <g id="ytick_11">
     <g id="line2d_20">
      <g>
       <use style="stroke:#000000;stroke-width:0.8;" x="73.73" xlink:href="#m15ec6a2d45" y="721.646415"/>
      </g>
     </g>
     <g id="text_21">
      <!-- PSB -->
      <defs>
       <path d="M 19.671875 34.8125 
L 19.671875 8.109375 
L 35.5 8.109375 
Q 43.453125 8.109375 47.28125 11.40625 
Q 51.125 14.703125 51.125 21.484375 
Q 51.125 28.328125 47.28125 31.5625 
Q 43.453125 34.8125 35.5 34.8125 
z
M 19.671875 64.796875 
L 19.671875 42.828125 
L 34.28125 42.828125 
Q 41.5 42.828125 45.03125 45.53125 
Q 48.578125 48.25 48.578125 53.8125 
Q 48.578125 59.328125 45.03125 62.0625 
Q 41.5 64.796875 34.28125 64.796875 
z
M 9.8125 72.90625 
L 35.015625 72.90625 
Q 46.296875 72.90625 52.390625 68.21875 
Q 58.5 63.53125 58.5 54.890625 
Q 58.5 48.1875 55.375 44.234375 
Q 52.25 40.28125 46.1875 39.3125 
Q 53.46875 37.75 57.5 32.78125 
Q 61.53125 27.828125 61.53125 20.40625 
Q 61.53125 10.640625 54.890625 5.3125 
Q 48.25 0 35.984375 0 
L 9.8125 0 
z
" id="DejaVuSans-66"/>
      </defs>
      <g transform="translate(47.490938 725.445633)scale(0.1 -0.1)">
       <use xlink:href="#DejaVuSans-80"/>
       <use x="60.302734" xlink:href="#DejaVuSans-83"/>
       <use x="123.779297" xlink:href="#DejaVuSans-66"/>
      </g>
     </g>
    </g>
    <g id="ytick_12">
     <g id="line2d_21">
      <g>
       <use style="stroke:#000000;stroke-width:0.8;" x="73.73" xlink:href="#m15ec6a2d45" y="694.619784"/>
      </g>
     </g>
     <g id="text_22">
      <!-- PRTB -->
      <g transform="translate(40.794063 698.419003)scale(0.1 -0.1)">
       <use xlink:href="#DejaVuSans-80"/>
       <use x="60.302734" xlink:href="#DejaVuSans-82"/>
       <use x="129.675781" xlink:href="#DejaVuSans-84"/>
       <use x="190.759766" xlink:href="#DejaVuSans-66"/>
      </g>
     </g>
    </g>
    <g id="ytick_13">
     <g id="line2d_22">
      <g>
       <use style="stroke:#000000;stroke-width:0.8;" x="73.73" xlink:href="#m15ec6a2d45" y="667.593153"/>
      </g>
     </g>
     <g id="text_23">
      <!-- PPL -->
      <g transform="translate(49.09875 671.392372)scale(0.1 -0.1)">
       <use xlink:href="#DejaVuSans-80"/>
       <use x="60.302734" xlink:href="#DejaVuSans-80"/>
       <use x="120.605469" xlink:href="#DejaVuSans-76"/>
      </g>
     </g>
    </g>
    <g id="ytick_14">
     <g id="line2d_23">
      <g>
       <use style="stroke:#000000;stroke-width:0.8;" x="73.73" xlink:href="#m15ec6a2d45" y="640.566523"/>
      </g>
     </g>
     <g id="text_24">
      <!-- PTC -->
      <g transform="translate(47.6175 644.365741)scale(0.1 -0.1)">
       <use xlink:href="#DejaVuSans-80"/>
       <use x="60.302734" xlink:href="#DejaVuSans-84"/>
       <use x="121.308594" xlink:href="#DejaVuSans-67"/>
      </g>
     </g>
    </g>
    <g id="ytick_15">
     <g id="line2d_24">
      <g>
       <use style="stroke:#000000;stroke-width:0.8;" x="73.73" xlink:href="#m15ec6a2d45" y="613.539892"/>
      </g>
     </g>
     <g id="text_25">
      <!-- DEM -->
      <defs>
       <path d="M 9.8125 72.90625 
L 24.515625 72.90625 
L 43.109375 23.296875 
L 61.8125 72.90625 
L 76.515625 72.90625 
L 76.515625 0 
L 66.890625 0 
L 66.890625 64.015625 
L 48.09375 14.015625 
L 38.1875 14.015625 
L 19.390625 64.015625 
L 19.390625 0 
L 9.8125 0 
z
" id="DejaVuSans-77"/>
      </defs>
      <g transform="translate(44.083125 617.339111)scale(0.1 -0.1)">
       <use xlink:href="#DejaVuSans-68"/>
       <use x="77.001953" xlink:href="#DejaVuSans-69"/>
       <use x="140.185547" xlink:href="#DejaVuSans-77"/>
      </g>
     </g>
    </g>
    <g id="ytick_16">
     <g id="line2d_25">
      <g>
       <use style="stroke:#000000;stroke-width:0.8;" x="73.73" xlink:href="#m15ec6a2d45" y="586.513261"/>
      </g>
     </g>
     <g id="text_26">
      <!-- PSC -->
      <g transform="translate(47.369062 590.31248)scale(0.1 -0.1)">
       <use xlink:href="#DejaVuSans-80"/>
       <use x="60.302734" xlink:href="#DejaVuSans-83"/>
       <use x="123.779297" xlink:href="#DejaVuSans-67"/>
      </g>
     </g>
    </g>
    <g id="ytick_17">
     <g id="line2d_26">
      <g>
       <use style="stroke:#000000;stroke-width:0.8;" x="73.73" xlink:href="#m15ec6a2d45" y="559.486631"/>
      </g>
     </g>
     <g id="text_27">
      <!-- PHS -->
      <defs>
       <path d="M 9.8125 72.90625 
L 19.671875 72.90625 
L 19.671875 43.015625 
L 55.515625 43.015625 
L 55.515625 72.90625 
L 65.375 72.90625 
L 65.375 0 
L 55.515625 0 
L 55.515625 34.71875 
L 19.671875 34.71875 
L 19.671875 0 
L 9.8125 0 
z
" id="DejaVuSans-72"/>
      </defs>
      <g transform="translate(46.831563 563.285849)scale(0.1 -0.1)">
       <use xlink:href="#DejaVuSans-80"/>
       <use x="60.302734" xlink:href="#DejaVuSans-72"/>
       <use x="135.498047" xlink:href="#DejaVuSans-83"/>
      </g>
     </g>
    </g>
    <g id="ytick_18">
     <g id="line2d_27">
      <g>
       <use style="stroke:#000000;stroke-width:0.8;" x="73.73" xlink:href="#m15ec6a2d45" y="532.46"/>
      </g>
     </g>
     <g id="text_28">
      <!-- PDT -->
      <g transform="translate(46.8925 536.259219)scale(0.1 -0.1)">
       <use xlink:href="#DejaVuSans-80"/>
       <use x="60.302734" xlink:href="#DejaVuSans-68"/>
       <use x="137.304688" xlink:href="#DejaVuSans-84"/>
      </g>
     </g>
    </g>
    <g id="ytick_19">
     <g id="line2d_28">
      <g>
       <use style="stroke:#000000;stroke-width:0.8;" x="73.73" xlink:href="#m15ec6a2d45" y="505.433369"/>
      </g>
     </g>
     <g id="text_29">
      <!-- DC -->
      <g transform="translate(52.047188 509.232588)scale(0.1 -0.1)">
       <use xlink:href="#DejaVuSans-68"/>
       <use x="77.001953" xlink:href="#DejaVuSans-67"/>
      </g>
     </g>
    </g>
    <g id="ytick_20">
     <g id="line2d_29">
      <g>
       <use style="stroke:#000000;stroke-width:0.8;" x="73.73" xlink:href="#m15ec6a2d45" y="478.406739"/>
      </g>
     </g>
     <g id="text_30">
      <!-- PP -->
      <g transform="translate(54.670625 482.205957)scale(0.1 -0.1)">
       <use xlink:href="#DejaVuSans-80"/>
       <use x="60.302734" xlink:href="#DejaVuSans-80"/>
      </g>
     </g>
    </g>
    <g id="ytick_21">
     <g id="line2d_30">
      <g>
       <use style="stroke:#000000;stroke-width:0.8;" x="73.73" xlink:href="#m15ec6a2d45" y="451.380108"/>
      </g>
     </g>
     <g id="text_31">
      <!-- PR -->
      <g transform="translate(53.751875 455.179327)scale(0.1 -0.1)">
       <use xlink:href="#DejaVuSans-80"/>
       <use x="60.302734" xlink:href="#DejaVuSans-82"/>
      </g>
     </g>
    </g>
    <g id="ytick_22">
     <g id="line2d_31">
      <g>
       <use style="stroke:#000000;stroke-width:0.8;" x="73.73" xlink:href="#m15ec6a2d45" y="424.353477"/>
      </g>
     </g>
     <g id="text_32">
      <!-- PT -->
      <g transform="translate(54.5925 428.152696)scale(0.1 -0.1)">
       <use xlink:href="#DejaVuSans-80"/>
       <use x="60.302734" xlink:href="#DejaVuSans-84"/>
      </g>
     </g>
    </g>
    <g id="ytick_23">
     <g id="line2d_32">
      <g>
       <use style="stroke:#000000;stroke-width:0.8;" x="73.73" xlink:href="#m15ec6a2d45" y="397.326847"/>
      </g>
     </g>
     <g id="text_33">
      <!-- PSDB -->
      <g transform="translate(39.790937 401.126065)scale(0.1 -0.1)">
       <use xlink:href="#DejaVuSans-80"/>
       <use x="60.302734" xlink:href="#DejaVuSans-83"/>
       <use x="123.779297" xlink:href="#DejaVuSans-68"/>
       <use x="200.78125" xlink:href="#DejaVuSans-66"/>
      </g>
     </g>
    </g>
    <g id="ytick_24">
     <g id="line2d_33">
      <g>
       <use style="stroke:#000000;stroke-width:0.8;" x="73.73" xlink:href="#m15ec6a2d45" y="370.300216"/>
      </g>
     </g>
     <g id="text_34">
      <!-- PC DO B -->
      <defs>
       <path id="DejaVuSans-32"/>
      </defs>
      <g transform="translate(24.928438 374.099435)scale(0.1 -0.1)">
       <use xlink:href="#DejaVuSans-80"/>
       <use x="60.302734" xlink:href="#DejaVuSans-67"/>
       <use x="130.126953" xlink:href="#DejaVuSans-32"/>
       <use x="161.914062" xlink:href="#DejaVuSans-68"/>
       <use x="238.916016" xlink:href="#DejaVuSans-79"/>
       <use x="317.626953" xlink:href="#DejaVuSans-32"/>
       <use x="349.414062" xlink:href="#DejaVuSans-66"/>
      </g>
     </g>
    </g>
    <g id="ytick_25">
     <g id="line2d_34">
      <g>
       <use style="stroke:#000000;stroke-width:0.8;" x="73.73" xlink:href="#m15ec6a2d45" y="343.273585"/>
      </g>
     </g>
     <g id="text_35">
      <!-- PRP -->
      <g transform="translate(47.722188 347.072804)scale(0.1 -0.1)">
       <use xlink:href="#DejaVuSans-80"/>
       <use x="60.302734" xlink:href="#DejaVuSans-82"/>
       <use x="129.785156" xlink:href="#DejaVuSans-80"/>
      </g>
     </g>
    </g>
    <g id="ytick_26">
     <g id="line2d_35">
      <g>
       <use style="stroke:#000000;stroke-width:0.8;" x="73.73" xlink:href="#m15ec6a2d45" y="316.246955"/>
      </g>
     </g>
     <g id="text_36">
      <!-- PSOL -->
      <g transform="translate(40.908125 320.046174)scale(0.1 -0.1)">
       <use xlink:href="#DejaVuSans-80"/>
       <use x="60.302734" xlink:href="#DejaVuSans-83"/>
       <use x="123.779297" xlink:href="#DejaVuSans-79"/>
       <use x="202.490234" xlink:href="#DejaVuSans-76"/>
      </g>
     </g>
    </g>
    <g id="ytick_27">
     <g id="line2d_36">
      <g>
       <use style="stroke:#000000;stroke-width:0.8;" x="73.73" xlink:href="#m15ec6a2d45" y="289.220324"/>
      </g>
     </g>
     <g id="text_37">
      <!-- AVANTE -->
      <g transform="translate(26.319063 293.019543)scale(0.1 -0.1)">
       <use xlink:href="#DejaVuSans-65"/>
       <use x="68.314453" xlink:href="#DejaVuSans-86"/>
       <use x="136.628906" xlink:href="#DejaVuSans-65"/>
       <use x="205.037109" xlink:href="#DejaVuSans-78"/>
       <use x="279.841797" xlink:href="#DejaVuSans-84"/>
       <use x="340.925781" xlink:href="#DejaVuSans-69"/>
      </g>
     </g>
    </g>
    <g id="ytick_28">
     <g id="line2d_37">
      <g>
       <use style="stroke:#000000;stroke-width:0.8;" x="73.73" xlink:href="#m15ec6a2d45" y="262.193693"/>
      </g>
     </g>
     <g id="text_38">
      <!-- MDB -->
      <g transform="translate(43.540937 265.992912)scale(0.1 -0.1)">
       <use xlink:href="#DejaVuSans-77"/>
       <use x="86.279297" xlink:href="#DejaVuSans-68"/>
       <use x="163.28125" xlink:href="#DejaVuSans-66"/>
      </g>
     </g>
    </g>
    <g id="ytick_29">
     <g id="line2d_38">
      <g>
       <use style="stroke:#000000;stroke-width:0.8;" x="73.73" xlink:href="#m15ec6a2d45" y="235.167063"/>
      </g>
     </g>
     <g id="text_39">
      <!-- PTB -->
      <g transform="translate(47.731563 238.966282)scale(0.1 -0.1)">
       <use xlink:href="#DejaVuSans-80"/>
       <use x="60.302734" xlink:href="#DejaVuSans-84"/>
       <use x="121.386719" xlink:href="#DejaVuSans-66"/>
      </g>
     </g>
    </g>
    <g id="ytick_30">
     <g id="line2d_39">
      <g>
       <use style="stroke:#000000;stroke-width:0.8;" x="73.73" xlink:href="#m15ec6a2d45" y="208.140432"/>
      </g>
     </g>
     <g id="text_40">
      <!-- PCB -->
      <g transform="translate(46.856563 211.939651)scale(0.1 -0.1)">
       <use xlink:href="#DejaVuSans-80"/>
       <use x="60.302734" xlink:href="#DejaVuSans-67"/>
       <use x="130.126953" xlink:href="#DejaVuSans-66"/>
      </g>
     </g>
    </g>
    <g id="ytick_31">
     <g id="line2d_40">
      <g>
       <use style="stroke:#000000;stroke-width:0.8;" x="73.73" xlink:href="#m15ec6a2d45" y="181.113802"/>
      </g>
     </g>
     <g id="text_41">
      <!-- PMN -->
      <g transform="translate(44.590938 184.91302)scale(0.1 -0.1)">
       <use xlink:href="#DejaVuSans-80"/>
       <use x="60.302734" xlink:href="#DejaVuSans-77"/>
       <use x="146.582031" xlink:href="#DejaVuSans-78"/>
      </g>
     </g>
    </g>
    <g id="ytick_32">
     <g id="line2d_41">
      <g>
       <use style="stroke:#000000;stroke-width:0.8;" x="73.73" xlink:href="#m15ec6a2d45" y="154.087171"/>
      </g>
     </g>
     <g id="text_42">
      <!-- PSTU -->
      <defs>
       <path d="M 8.6875 72.90625 
L 18.609375 72.90625 
L 18.609375 28.609375 
Q 18.609375 16.890625 22.84375 11.734375 
Q 27.09375 6.59375 36.625 6.59375 
Q 46.09375 6.59375 50.34375 11.734375 
Q 54.59375 16.890625 54.59375 28.609375 
L 54.59375 72.90625 
L 64.5 72.90625 
L 64.5 27.390625 
Q 64.5 13.140625 57.4375 5.859375 
Q 50.390625 -1.421875 36.625 -1.421875 
Q 22.796875 -1.421875 15.734375 5.859375 
Q 8.6875 13.140625 8.6875 27.390625 
z
" id="DejaVuSans-85"/>
      </defs>
      <g transform="translate(40.925313 157.88639)scale(0.1 -0.1)">
       <use xlink:href="#DejaVuSans-80"/>
       <use x="60.302734" xlink:href="#DejaVuSans-83"/>
       <use x="123.779297" xlink:href="#DejaVuSans-84"/>
       <use x="184.863281" xlink:href="#DejaVuSans-85"/>
      </g>
     </g>
    </g>
    <g id="ytick_33">
     <g id="line2d_42">
      <g>
       <use style="stroke:#000000;stroke-width:0.8;" x="73.73" xlink:href="#m15ec6a2d45" y="127.06054"/>
      </g>
     </g>
     <g id="text_43">
      <!-- SD -->
      <g transform="translate(52.681563 130.859759)scale(0.1 -0.1)">
       <use xlink:href="#DejaVuSans-83"/>
       <use x="63.476562" xlink:href="#DejaVuSans-68"/>
      </g>
     </g>
    </g>
    <g id="ytick_34">
     <g id="line2d_43">
      <g>
       <use style="stroke:#000000;stroke-width:0.8;" x="73.73" xlink:href="#m15ec6a2d45" y="100.03391"/>
      </g>
     </g>
     <g id="text_44">
      <!-- PRB -->
      <g transform="translate(46.890938 103.833128)scale(0.1 -0.1)">
       <use xlink:href="#DejaVuSans-80"/>
       <use x="60.302734" xlink:href="#DejaVuSans-82"/>
       <use x="129.785156" xlink:href="#DejaVuSans-66"/>
      </g>
     </g>
    </g>
    <g id="ytick_35">
     <g id="line2d_44">
      <g>
       <use style="stroke:#000000;stroke-width:0.8;" x="73.73" xlink:href="#m15ec6a2d45" y="73.007279"/>
      </g>
     </g>
     <g id="text_45">
      <!-- PMB -->
      <g transform="translate(45.21125 76.806498)scale(0.1 -0.1)">
       <use xlink:href="#DejaVuSans-80"/>
       <use x="60.302734" xlink:href="#DejaVuSans-77"/>
       <use x="146.582031" xlink:href="#DejaVuSans-66"/>
      </g>
     </g>
    </g>
    <g id="text_46">
     <!-- Partidos -->
     <defs>
      <path d="M 18.3125 70.21875 
L 18.3125 54.6875 
L 36.8125 54.6875 
L 36.8125 47.703125 
L 18.3125 47.703125 
L 18.3125 18.015625 
Q 18.3125 11.328125 20.140625 9.421875 
Q 21.96875 7.515625 27.59375 7.515625 
L 36.8125 7.515625 
L 36.8125 0 
L 27.59375 0 
Q 17.1875 0 13.234375 3.875 
Q 9.28125 7.765625 9.28125 18.015625 
L 9.28125 47.703125 
L 2.6875 47.703125 
L 2.6875 54.6875 
L 9.28125 54.6875 
L 9.28125 70.21875 
z
" id="DejaVuSans-116"/>
      <path d="M 9.421875 54.6875 
L 18.40625 54.6875 
L 18.40625 0 
L 9.421875 0 
z
M 9.421875 75.984375 
L 18.40625 75.984375 
L 18.40625 64.59375 
L 9.421875 64.59375 
z
" id="DejaVuSans-105"/>
      <path d="M 45.40625 46.390625 
L 45.40625 75.984375 
L 54.390625 75.984375 
L 54.390625 0 
L 45.40625 0 
L 45.40625 8.203125 
Q 42.578125 3.328125 38.25 0.953125 
Q 33.9375 -1.421875 27.875 -1.421875 
Q 17.96875 -1.421875 11.734375 6.484375 
Q 5.515625 14.40625 5.515625 27.296875 
Q 5.515625 40.1875 11.734375 48.09375 
Q 17.96875 56 27.875 56 
Q 33.9375 56 38.25 53.625 
Q 42.578125 51.265625 45.40625 46.390625 
z
M 14.796875 27.296875 
Q 14.796875 17.390625 18.875 11.75 
Q 22.953125 6.109375 30.078125 6.109375 
Q 37.203125 6.109375 41.296875 11.75 
Q 45.40625 17.390625 45.40625 27.296875 
Q 45.40625 37.203125 41.296875 42.84375 
Q 37.203125 48.484375 30.078125 48.484375 
Q 22.953125 48.484375 18.875 42.84375 
Q 14.796875 37.203125 14.796875 27.296875 
z
" id="DejaVuSans-100"/>
      <path d="M 44.28125 53.078125 
L 44.28125 44.578125 
Q 40.484375 46.53125 36.375 47.5 
Q 32.28125 48.484375 27.875 48.484375 
Q 21.1875 48.484375 17.84375 46.4375 
Q 14.5 44.390625 14.5 40.28125 
Q 14.5 37.15625 16.890625 35.375 
Q 19.28125 33.59375 26.515625 31.984375 
L 29.59375 31.296875 
Q 39.15625 29.25 43.1875 25.515625 
Q 47.21875 21.78125 47.21875 15.09375 
Q 47.21875 7.46875 41.1875 3.015625 
Q 35.15625 -1.421875 24.609375 -1.421875 
Q 20.21875 -1.421875 15.453125 -0.5625 
Q 10.6875 0.296875 5.421875 2 
L 5.421875 11.28125 
Q 10.40625 8.6875 15.234375 7.390625 
Q 20.0625 6.109375 24.8125 6.109375 
Q 31.15625 6.109375 34.5625 8.28125 
Q 37.984375 10.453125 37.984375 14.40625 
Q 37.984375 18.0625 35.515625 20.015625 
Q 33.0625 21.96875 24.703125 23.78125 
L 21.578125 24.515625 
Q 13.234375 26.265625 9.515625 29.90625 
Q 5.8125 33.546875 5.8125 39.890625 
Q 5.8125 47.609375 11.28125 51.796875 
Q 16.75 56 26.8125 56 
Q 31.78125 56 36.171875 55.265625 
Q 40.578125 54.546875 44.28125 53.078125 
z
" id="DejaVuSans-115"/>
     </defs>
     <g transform="translate(18.84875 552.77875)rotate(-90)scale(0.1 -0.1)">
      <use xlink:href="#DejaVuSans-80"/>
      <use x="60.240234" xlink:href="#DejaVuSans-97"/>
      <use x="121.519531" xlink:href="#DejaVuSans-114"/>
      <use x="162.632812" xlink:href="#DejaVuSans-116"/>
      <use x="201.841797" xlink:href="#DejaVuSans-105"/>
      <use x="229.625" xlink:href="#DejaVuSans-100"/>
      <use x="293.101562" xlink:href="#DejaVuSans-111"/>
      <use x="354.283203" xlink:href="#DejaVuSans-115"/>
     </g>
    </g>
   </g>
   <g id="line2d_45">
    <path clip-path="url(#p2e9af03224)" d="M 387.505 1038.04 
L 387.505 26.88 
" style="fill:none;stroke:#000000;stroke-dasharray:14.8,6.4;stroke-dashoffset:0;stroke-width:4;"/>
   </g>
   <g id="line2d_46">
    <path clip-path="url(#p2e9af03224)" d="M 335.026296 1038.04 
L 335.026296 26.88 
" style="fill:none;stroke:#008000;stroke-linecap:square;stroke-width:2;"/>
   </g>
   <g id="text_47">
    <!-- Proporcao de genero em Partidos Politicos -->
    <defs>
     <path d="M 56.203125 29.59375 
L 56.203125 25.203125 
L 14.890625 25.203125 
Q 15.484375 15.921875 20.484375 11.0625 
Q 25.484375 6.203125 34.421875 6.203125 
Q 39.59375 6.203125 44.453125 7.46875 
Q 49.3125 8.734375 54.109375 11.28125 
L 54.109375 2.78125 
Q 49.265625 0.734375 44.1875 -0.34375 
Q 39.109375 -1.421875 33.890625 -1.421875 
Q 20.796875 -1.421875 13.15625 6.1875 
Q 5.515625 13.8125 5.515625 26.8125 
Q 5.515625 40.234375 12.765625 48.109375 
Q 20.015625 56 32.328125 56 
Q 43.359375 56 49.78125 48.890625 
Q 56.203125 41.796875 56.203125 29.59375 
z
M 47.21875 32.234375 
Q 47.125 39.59375 43.09375 43.984375 
Q 39.0625 48.390625 32.421875 48.390625 
Q 24.90625 48.390625 20.390625 44.140625 
Q 15.875 39.890625 15.1875 32.171875 
z
" id="DejaVuSans-101"/>
     <path d="M 45.40625 27.984375 
Q 45.40625 37.75 41.375 43.109375 
Q 37.359375 48.484375 30.078125 48.484375 
Q 22.859375 48.484375 18.828125 43.109375 
Q 14.796875 37.75 14.796875 27.984375 
Q 14.796875 18.265625 18.828125 12.890625 
Q 22.859375 7.515625 30.078125 7.515625 
Q 37.359375 7.515625 41.375 12.890625 
Q 45.40625 18.265625 45.40625 27.984375 
z
M 54.390625 6.78125 
Q 54.390625 -7.171875 48.1875 -13.984375 
Q 42 -20.796875 29.203125 -20.796875 
Q 24.46875 -20.796875 20.265625 -20.09375 
Q 16.0625 -19.390625 12.109375 -17.921875 
L 12.109375 -9.1875 
Q 16.0625 -11.328125 19.921875 -12.34375 
Q 23.78125 -13.375 27.78125 -13.375 
Q 36.625 -13.375 41.015625 -8.765625 
Q 45.40625 -4.15625 45.40625 5.171875 
L 45.40625 9.625 
Q 42.625 4.78125 38.28125 2.390625 
Q 33.9375 0 27.875 0 
Q 17.828125 0 11.671875 7.65625 
Q 5.515625 15.328125 5.515625 27.984375 
Q 5.515625 40.671875 11.671875 48.328125 
Q 17.828125 56 27.875 56 
Q 33.9375 56 38.28125 53.609375 
Q 42.625 51.21875 45.40625 46.390625 
L 45.40625 54.6875 
L 54.390625 54.6875 
z
" id="DejaVuSans-103"/>
     <path d="M 54.890625 33.015625 
L 54.890625 0 
L 45.90625 0 
L 45.90625 32.71875 
Q 45.90625 40.484375 42.875 44.328125 
Q 39.84375 48.1875 33.796875 48.1875 
Q 26.515625 48.1875 22.3125 43.546875 
Q 18.109375 38.921875 18.109375 30.90625 
L 18.109375 0 
L 9.078125 0 
L 9.078125 54.6875 
L 18.109375 54.6875 
L 18.109375 46.1875 
Q 21.34375 51.125 25.703125 53.5625 
Q 30.078125 56 35.796875 56 
Q 45.21875 56 50.046875 50.171875 
Q 54.890625 44.34375 54.890625 33.015625 
z
" id="DejaVuSans-110"/>
     <path d="M 52 44.1875 
Q 55.375 50.25 60.0625 53.125 
Q 64.75 56 71.09375 56 
Q 79.640625 56 84.28125 50.015625 
Q 88.921875 44.046875 88.921875 33.015625 
L 88.921875 0 
L 79.890625 0 
L 79.890625 32.71875 
Q 79.890625 40.578125 77.09375 44.375 
Q 74.3125 48.1875 68.609375 48.1875 
Q 61.625 48.1875 57.5625 43.546875 
Q 53.515625 38.921875 53.515625 30.90625 
L 53.515625 0 
L 44.484375 0 
L 44.484375 32.71875 
Q 44.484375 40.625 41.703125 44.40625 
Q 38.921875 48.1875 33.109375 48.1875 
Q 26.21875 48.1875 22.15625 43.53125 
Q 18.109375 38.875 18.109375 30.90625 
L 18.109375 0 
L 9.078125 0 
L 9.078125 54.6875 
L 18.109375 54.6875 
L 18.109375 46.1875 
Q 21.1875 51.21875 25.484375 53.609375 
Q 29.78125 56 35.6875 56 
Q 41.65625 56 45.828125 52.96875 
Q 50 49.953125 52 44.1875 
z
" id="DejaVuSans-109"/>
     <path d="M 9.421875 75.984375 
L 18.40625 75.984375 
L 18.40625 0 
L 9.421875 0 
z
" id="DejaVuSans-108"/>
    </defs>
    <g transform="translate(260.339687 20.88)scale(0.12 -0.12)">
     <use xlink:href="#DejaVuSans-80"/>
     <use x="60.287109" xlink:href="#DejaVuSans-114"/>
     <use x="101.369141" xlink:href="#DejaVuSans-111"/>
     <use x="162.550781" xlink:href="#DejaVuSans-112"/>
     <use x="226.027344" xlink:href="#DejaVuSans-111"/>
     <use x="287.208984" xlink:href="#DejaVuSans-114"/>
     <use x="328.291016" xlink:href="#DejaVuSans-99"/>
     <use x="383.271484" xlink:href="#DejaVuSans-97"/>
     <use x="444.550781" xlink:href="#DejaVuSans-111"/>
     <use x="505.732422" xlink:href="#DejaVuSans-32"/>
     <use x="537.519531" xlink:href="#DejaVuSans-100"/>
     <use x="600.996094" xlink:href="#DejaVuSans-101"/>
     <use x="662.519531" xlink:href="#DejaVuSans-32"/>
     <use x="694.306641" xlink:href="#DejaVuSans-103"/>
     <use x="757.783203" xlink:href="#DejaVuSans-101"/>
     <use x="819.306641" xlink:href="#DejaVuSans-110"/>
     <use x="882.685547" xlink:href="#DejaVuSans-101"/>
     <use x="944.208984" xlink:href="#DejaVuSans-114"/>
     <use x="985.291016" xlink:href="#DejaVuSans-111"/>
     <use x="1046.472656" xlink:href="#DejaVuSans-32"/>
     <use x="1078.259766" xlink:href="#DejaVuSans-101"/>
     <use x="1139.783203" xlink:href="#DejaVuSans-109"/>
     <use x="1237.195312" xlink:href="#DejaVuSans-32"/>
     <use x="1268.982422" xlink:href="#DejaVuSans-80"/>
     <use x="1329.222656" xlink:href="#DejaVuSans-97"/>
     <use x="1390.501953" xlink:href="#DejaVuSans-114"/>
     <use x="1431.615234" xlink:href="#DejaVuSans-116"/>
     <use x="1470.824219" xlink:href="#DejaVuSans-105"/>
     <use x="1498.607422" xlink:href="#DejaVuSans-100"/>
     <use x="1562.083984" xlink:href="#DejaVuSans-111"/>
     <use x="1623.265625" xlink:href="#DejaVuSans-115"/>
     <use x="1675.365234" xlink:href="#DejaVuSans-32"/>
     <use x="1707.152344" xlink:href="#DejaVuSans-80"/>
     <use x="1767.408203" xlink:href="#DejaVuSans-111"/>
     <use x="1828.589844" xlink:href="#DejaVuSans-108"/>
     <use x="1856.373047" xlink:href="#DejaVuSans-105"/>
     <use x="1884.15625" xlink:href="#DejaVuSans-116"/>
     <use x="1923.365234" xlink:href="#DejaVuSans-105"/>
     <use x="1951.148438" xlink:href="#DejaVuSans-99"/>
     <use x="2006.128906" xlink:href="#DejaVuSans-111"/>
     <use x="2067.310547" xlink:href="#DejaVuSans-115"/>
    </g>
   </g>
   <g id="legend_1">
    <g id="patch_3">
     <path d="M 497.437812 64.23625 
L 694.28 64.23625 
Q 696.28 64.23625 696.28 62.23625 
L 696.28 33.88 
Q 696.28 31.88 694.28 31.88 
L 497.437812 31.88 
Q 495.437812 31.88 495.437812 33.88 
L 495.437812 62.23625 
Q 495.437812 64.23625 497.437812 64.23625 
z
" style="fill:#ffffff;opacity:0.8;stroke:#cccccc;stroke-linejoin:miter;"/>
    </g>
    <g id="line2d_47">
     <path d="M 499.437812 39.978437 
L 519.437812 39.978437 
" style="fill:none;stroke:#000000;stroke-dasharray:14.8,6.4;stroke-dashoffset:0;stroke-width:4;"/>
    </g>
    <g id="line2d_48"/>
    <g id="text_48">
     <!-- Equidade de mulheres e homens -->
     <defs>
      <path d="M 14.796875 27.296875 
Q 14.796875 17.390625 18.875 11.75 
Q 22.953125 6.109375 30.078125 6.109375 
Q 37.203125 6.109375 41.296875 11.75 
Q 45.40625 17.390625 45.40625 27.296875 
Q 45.40625 37.203125 41.296875 42.84375 
Q 37.203125 48.484375 30.078125 48.484375 
Q 22.953125 48.484375 18.875 42.84375 
Q 14.796875 37.203125 14.796875 27.296875 
z
M 45.40625 8.203125 
Q 42.578125 3.328125 38.25 0.953125 
Q 33.9375 -1.421875 27.875 -1.421875 
Q 17.96875 -1.421875 11.734375 6.484375 
Q 5.515625 14.40625 5.515625 27.296875 
Q 5.515625 40.1875 11.734375 48.09375 
Q 17.96875 56 27.875 56 
Q 33.9375 56 38.25 53.625 
Q 42.578125 51.265625 45.40625 46.390625 
L 45.40625 54.6875 
L 54.390625 54.6875 
L 54.390625 -20.796875 
L 45.40625 -20.796875 
z
" id="DejaVuSans-113"/>
      <path d="M 8.5 21.578125 
L 8.5 54.6875 
L 17.484375 54.6875 
L 17.484375 21.921875 
Q 17.484375 14.15625 20.5 10.265625 
Q 23.53125 6.390625 29.59375 6.390625 
Q 36.859375 6.390625 41.078125 11.03125 
Q 45.3125 15.671875 45.3125 23.6875 
L 45.3125 54.6875 
L 54.296875 54.6875 
L 54.296875 0 
L 45.3125 0 
L 45.3125 8.40625 
Q 42.046875 3.421875 37.71875 1 
Q 33.40625 -1.421875 27.6875 -1.421875 
Q 18.265625 -1.421875 13.375 4.4375 
Q 8.5 10.296875 8.5 21.578125 
z
M 31.109375 56 
z
" id="DejaVuSans-117"/>
      <path d="M 54.890625 33.015625 
L 54.890625 0 
L 45.90625 0 
L 45.90625 32.71875 
Q 45.90625 40.484375 42.875 44.328125 
Q 39.84375 48.1875 33.796875 48.1875 
Q 26.515625 48.1875 22.3125 43.546875 
Q 18.109375 38.921875 18.109375 30.90625 
L 18.109375 0 
L 9.078125 0 
L 9.078125 75.984375 
L 18.109375 75.984375 
L 18.109375 46.1875 
Q 21.34375 51.125 25.703125 53.5625 
Q 30.078125 56 35.796875 56 
Q 45.21875 56 50.046875 50.171875 
Q 54.890625 44.34375 54.890625 33.015625 
z
" id="DejaVuSans-104"/>
     </defs>
     <g transform="translate(527.437812 43.478437)scale(0.1 -0.1)">
      <use xlink:href="#DejaVuSans-69"/>
      <use x="63.183594" xlink:href="#DejaVuSans-113"/>
      <use x="126.660156" xlink:href="#DejaVuSans-117"/>
      <use x="190.039062" xlink:href="#DejaVuSans-105"/>
      <use x="217.822266" xlink:href="#DejaVuSans-100"/>
      <use x="281.298828" xlink:href="#DejaVuSans-97"/>
      <use x="342.578125" xlink:href="#DejaVuSans-100"/>
      <use x="406.054688" xlink:href="#DejaVuSans-101"/>
      <use x="467.578125" xlink:href="#DejaVuSans-32"/>
      <use x="499.365234" xlink:href="#DejaVuSans-100"/>
      <use x="562.841797" xlink:href="#DejaVuSans-101"/>
      <use x="624.365234" xlink:href="#DejaVuSans-32"/>
      <use x="656.152344" xlink:href="#DejaVuSans-109"/>
      <use x="753.564453" xlink:href="#DejaVuSans-117"/>
      <use x="816.943359" xlink:href="#DejaVuSans-108"/>
      <use x="844.726562" xlink:href="#DejaVuSans-104"/>
      <use x="908.105469" xlink:href="#DejaVuSans-101"/>
      <use x="969.628906" xlink:href="#DejaVuSans-114"/>
      <use x="1010.710938" xlink:href="#DejaVuSans-101"/>
      <use x="1072.234375" xlink:href="#DejaVuSans-115"/>
      <use x="1124.333984" xlink:href="#DejaVuSans-32"/>
      <use x="1156.121094" xlink:href="#DejaVuSans-101"/>
      <use x="1217.644531" xlink:href="#DejaVuSans-32"/>
      <use x="1249.431641" xlink:href="#DejaVuSans-104"/>
      <use x="1312.810547" xlink:href="#DejaVuSans-111"/>
      <use x="1373.992188" xlink:href="#DejaVuSans-109"/>
      <use x="1471.404297" xlink:href="#DejaVuSans-101"/>
      <use x="1532.927734" xlink:href="#DejaVuSans-110"/>
      <use x="1596.306641" xlink:href="#DejaVuSans-115"/>
     </g>
    </g>
    <g id="line2d_49">
     <path d="M 499.437812 54.656562 
L 519.437812 54.656562 
" style="fill:none;stroke:#008000;stroke-linecap:square;stroke-width:2;"/>
    </g>
    <g id="line2d_50"/>
    <g id="text_49">
     <!-- Proporcao Media de Mulheres -->
     <g transform="translate(527.437812 58.156562)scale(0.1 -0.1)">
      <use xlink:href="#DejaVuSans-80"/>
      <use x="60.287109" xlink:href="#DejaVuSans-114"/>
      <use x="101.369141" xlink:href="#DejaVuSans-111"/>
      <use x="162.550781" xlink:href="#DejaVuSans-112"/>
      <use x="226.027344" xlink:href="#DejaVuSans-111"/>
      <use x="287.208984" xlink:href="#DejaVuSans-114"/>
      <use x="328.291016" xlink:href="#DejaVuSans-99"/>
      <use x="383.271484" xlink:href="#DejaVuSans-97"/>
      <use x="444.550781" xlink:href="#DejaVuSans-111"/>
      <use x="505.732422" xlink:href="#DejaVuSans-32"/>
      <use x="537.519531" xlink:href="#DejaVuSans-77"/>
      <use x="623.798828" xlink:href="#DejaVuSans-101"/>
      <use x="685.322266" xlink:href="#DejaVuSans-100"/>
      <use x="748.798828" xlink:href="#DejaVuSans-105"/>
      <use x="776.582031" xlink:href="#DejaVuSans-97"/>
      <use x="837.861328" xlink:href="#DejaVuSans-32"/>
      <use x="869.648438" xlink:href="#DejaVuSans-100"/>
      <use x="933.125" xlink:href="#DejaVuSans-101"/>
      <use x="994.648438" xlink:href="#DejaVuSans-32"/>
      <use x="1026.435547" xlink:href="#DejaVuSans-77"/>
      <use x="1112.714844" xlink:href="#DejaVuSans-117"/>
      <use x="1176.09375" xlink:href="#DejaVuSans-108"/>
      <use x="1203.876953" xlink:href="#DejaVuSans-104"/>
      <use x="1267.255859" xlink:href="#DejaVuSans-101"/>
      <use x="1328.779297" xlink:href="#DejaVuSans-114"/>
      <use x="1369.861328" xlink:href="#DejaVuSans-101"/>
      <use x="1431.384766" xlink:href="#DejaVuSans-115"/>
     </g>
    </g>
   </g>
  </g>
 </g>
 <defs>
  <clipPath id="p2e9af03224">
   <rect height="1011.16" width="627.55" x="73.73" y="26.88"/>
  </clipPath>
 </defs>
</svg>
