<?xml version="1.0" encoding="utf-8" standalone="no"?>
<!DOCTYPE svg PUBLIC "-//W3C//DTD SVG 1.1//EN"
  "http://www.w3.org/Graphics/SVG/1.1/DTD/svg11.dtd">
<!-- Created with matplotlib (https://matplotlib.org/) -->
<svg height="648pt" version="1.1" viewBox="0 0 360 648" width="360pt" xmlns="http://www.w3.org/2000/svg" xmlns:xlink="http://www.w3.org/1999/xlink">
 <defs>
  <style type="text/css">
*{stroke-linecap:butt;stroke-linejoin:round;}
  </style>
 </defs>
 <g id="figure_1">
  <g id="patch_1">
   <path d="M 0 648 
L 360 648 
L 360 0 
L 0 0 
z
" style="fill:#ffffff;"/>
  </g>
  <g id="axes_1">
   <g id="patch_2">
    <path d="M 73.82 606.04 
L 349.2 606.04 
L 349.2 47.4 
L 73.82 47.4 
z
" style="fill:#ffffff;"/>
   </g>
   <g id="patch_3">
    <path clip-path="url(#p090e3b9bce)" d="M 73.82 580.647273 
L 148.318937 580.647273 
L 148.318937 575.472627 
L 73.82 575.472627 
z
" style="fill:#ff0000;opacity:0.7;"/>
   </g>
   <g id="patch_4">
    <path clip-path="url(#p090e3b9bce)" d="M 73.82 565.86257 
L 148.443691 565.86257 
L 148.443691 560.687924 
L 73.82 560.687924 
z
" style="fill:#ff0000;opacity:0.7;"/>
   </g>
   <g id="patch_5">
    <path clip-path="url(#p090e3b9bce)" d="M 73.82 551.077867 
L 148.635018 551.077867 
L 148.635018 545.903221 
L 73.82 545.903221 
z
" style="fill:#ff0000;opacity:0.7;"/>
   </g>
   <g id="patch_6">
    <path clip-path="url(#p090e3b9bce)" d="M 73.82 536.293164 
L 148.868615 536.293164 
L 148.868615 531.118518 
L 73.82 531.118518 
z
" style="fill:#ff0000;opacity:0.7;"/>
   </g>
   <g id="patch_7">
    <path clip-path="url(#p090e3b9bce)" d="M 73.82 521.508461 
L 149.036101 521.508461 
L 149.036101 516.333815 
L 73.82 516.333815 
z
" style="fill:#ff0000;opacity:0.7;"/>
   </g>
   <g id="patch_8">
    <path clip-path="url(#p090e3b9bce)" d="M 73.82 506.723758 
L 149.67958 506.723758 
L 149.67958 501.549112 
L 73.82 501.549112 
z
" style="fill:#ff0000;opacity:0.7;"/>
   </g>
   <g id="patch_9">
    <path clip-path="url(#p090e3b9bce)" d="M 73.82 491.939055 
L 151.528642 491.939055 
L 151.528642 486.764409 
L 73.82 486.764409 
z
" style="fill:#ff0000;opacity:0.7;"/>
   </g>
   <g id="patch_10">
    <path clip-path="url(#p090e3b9bce)" d="M 73.82 477.154352 
L 151.693026 477.154352 
L 151.693026 471.979706 
L 73.82 471.979706 
z
" style="fill:#ff0000;opacity:0.7;"/>
   </g>
   <g id="patch_11">
    <path clip-path="url(#p090e3b9bce)" d="M 73.82 462.369649 
L 151.875556 462.369649 
L 151.875556 457.195003 
L 73.82 457.195003 
z
" style="fill:#ff0000;opacity:0.7;"/>
   </g>
   <g id="patch_12">
    <path clip-path="url(#p090e3b9bce)" d="M 73.82 447.584946 
L 151.981394 447.584946 
L 151.981394 442.4103 
L 73.82 442.4103 
z
" style="fill:#ff0000;opacity:0.7;"/>
   </g>
   <g id="patch_13">
    <path clip-path="url(#p090e3b9bce)" d="M 73.82 432.800243 
L 152.091121 432.800243 
L 152.091121 427.625597 
L 73.82 427.625597 
z
" style="fill:#ff0000;opacity:0.7;"/>
   </g>
   <g id="patch_14">
    <path clip-path="url(#p090e3b9bce)" d="M 73.82 418.015541 
L 152.578759 418.015541 
L 152.578759 412.840895 
L 73.82 412.840895 
z
" style="fill:#ff0000;opacity:0.7;"/>
   </g>
   <g id="patch_15">
    <path clip-path="url(#p090e3b9bce)" d="M 73.82 403.230838 
L 152.739149 403.230838 
L 152.739149 398.056192 
L 73.82 398.056192 
z
" style="fill:#ff0000;opacity:0.7;"/>
   </g>
   <g id="patch_16">
    <path clip-path="url(#p090e3b9bce)" d="M 73.82 388.446135 
L 152.82672 388.446135 
L 152.82672 383.271489 
L 73.82 383.271489 
z
" style="fill:#ff0000;opacity:0.7;"/>
   </g>
   <g id="patch_17">
    <path clip-path="url(#p090e3b9bce)" d="M 73.82 373.661432 
L 152.912445 373.661432 
L 152.912445 368.486786 
L 73.82 368.486786 
z
" style="fill:#ff0000;opacity:0.7;"/>
   </g>
   <g id="patch_18">
    <path clip-path="url(#p090e3b9bce)" d="M 73.82 358.876729 
L 153.11748 358.876729 
L 153.11748 353.702083 
L 73.82 353.702083 
z
" style="fill:#ff0000;opacity:0.7;"/>
   </g>
   <g id="patch_19">
    <path clip-path="url(#p090e3b9bce)" d="M 73.82 344.092026 
L 153.312997 344.092026 
L 153.312997 338.91738 
L 73.82 338.91738 
z
" style="fill:#ff0000;opacity:0.7;"/>
   </g>
   <g id="patch_20">
    <path clip-path="url(#p090e3b9bce)" d="M 73.82 329.307323 
L 153.374222 329.307323 
L 153.374222 324.132677 
L 73.82 324.132677 
z
" style="fill:#ff0000;opacity:0.7;"/>
   </g>
   <g id="patch_21">
    <path clip-path="url(#p090e3b9bce)" d="M 73.82 314.52262 
L 153.409595 314.52262 
L 153.409595 309.347974 
L 73.82 309.347974 
z
" style="fill:#ff0000;opacity:0.7;"/>
   </g>
   <g id="patch_22">
    <path clip-path="url(#p090e3b9bce)" d="M 73.82 299.737917 
L 153.924944 299.737917 
L 153.924944 294.563271 
L 73.82 294.563271 
z
" style="fill:#ff0000;opacity:0.7;"/>
   </g>
   <g id="patch_23">
    <path clip-path="url(#p090e3b9bce)" d="M 73.82 284.953214 
L 154.308736 284.953214 
L 154.308736 279.778568 
L 73.82 279.778568 
z
" style="fill:#ff0000;opacity:0.7;"/>
   </g>
   <g id="patch_24">
    <path clip-path="url(#p090e3b9bce)" d="M 73.82 270.168511 
L 155.286205 270.168511 
L 155.286205 264.993865 
L 73.82 264.993865 
z
" style="fill:#ff0000;opacity:0.7;"/>
   </g>
   <g id="patch_25">
    <path clip-path="url(#p090e3b9bce)" d="M 73.82 255.383808 
L 155.325525 255.383808 
L 155.325525 250.209162 
L 73.82 250.209162 
z
" style="fill:#ff0000;opacity:0.7;"/>
   </g>
   <g id="patch_26">
    <path clip-path="url(#p090e3b9bce)" d="M 73.82 240.599105 
L 155.499157 240.599105 
L 155.499157 235.424459 
L 73.82 235.424459 
z
" style="fill:#ff0000;opacity:0.7;"/>
   </g>
   <g id="patch_27">
    <path clip-path="url(#p090e3b9bce)" d="M 73.82 225.814403 
L 157.033004 225.814403 
L 157.033004 220.639757 
L 73.82 220.639757 
z
" style="fill:#ff0000;opacity:0.7;"/>
   </g>
   <g id="patch_28">
    <path clip-path="url(#p090e3b9bce)" d="M 73.82 211.0297 
L 158.653409 211.0297 
L 158.653409 205.855054 
L 73.82 205.855054 
z
" style="fill:#ff0000;opacity:0.7;"/>
   </g>
   <g id="patch_29">
    <path clip-path="url(#p090e3b9bce)" d="M 73.82 196.244997 
L 159.78761 196.244997 
L 159.78761 191.070351 
L 73.82 191.070351 
z
" style="fill:#ff0000;opacity:0.7;"/>
   </g>
   <g id="patch_30">
    <path clip-path="url(#p090e3b9bce)" d="M 73.82 181.460294 
L 160.49757 181.460294 
L 160.49757 176.285648 
L 73.82 176.285648 
z
" style="fill:#ff0000;opacity:0.7;"/>
   </g>
   <g id="patch_31">
    <path clip-path="url(#p090e3b9bce)" d="M 73.82 166.675591 
L 160.96557 166.675591 
L 160.96557 161.500945 
L 73.82 161.500945 
z
" style="fill:#ff0000;opacity:0.7;"/>
   </g>
   <g id="patch_32">
    <path clip-path="url(#p090e3b9bce)" d="M 73.82 151.890888 
L 161.242222 151.890888 
L 161.242222 146.716242 
L 73.82 146.716242 
z
" style="fill:#ff0000;opacity:0.7;"/>
   </g>
   <g id="patch_33">
    <path clip-path="url(#p090e3b9bce)" d="M 73.82 137.106185 
L 161.242222 137.106185 
L 161.242222 131.931539 
L 73.82 131.931539 
z
" style="fill:#ff0000;opacity:0.7;"/>
   </g>
   <g id="patch_34">
    <path clip-path="url(#p090e3b9bce)" d="M 73.82 122.321482 
L 162.741548 122.321482 
L 162.741548 117.146836 
L 73.82 117.146836 
z
" style="fill:#ff0000;opacity:0.7;"/>
   </g>
   <g id="patch_35">
    <path clip-path="url(#p090e3b9bce)" d="M 73.82 107.536779 
L 168.682411 107.536779 
L 168.682411 102.362133 
L 73.82 102.362133 
z
" style="fill:#ff0000;opacity:0.7;"/>
   </g>
   <g id="patch_36">
    <path clip-path="url(#p090e3b9bce)" d="M 73.82 92.752076 
L 175.118765 92.752076 
L 175.118765 87.57743 
L 73.82 87.57743 
z
" style="fill:#ff0000;opacity:0.7;"/>
   </g>
   <g id="patch_37">
    <path clip-path="url(#p090e3b9bce)" d="M 73.82 77.967373 
L 178.99635 77.967373 
L 178.99635 72.792727 
L 73.82 72.792727 
z
" style="fill:#ff0000;opacity:0.7;"/>
   </g>
   <g id="patch_38">
    <path clip-path="url(#p090e3b9bce)" d="M 148.318937 580.647273 
L 336.086667 580.647273 
L 336.086667 575.472627 
L 148.318937 575.472627 
z
" style="fill:#0000ff;opacity:0.7;"/>
   </g>
   <g id="patch_39">
    <path clip-path="url(#p090e3b9bce)" d="M 148.443691 565.86257 
L 336.086667 565.86257 
L 336.086667 560.687924 
L 148.443691 560.687924 
z
" style="fill:#0000ff;opacity:0.7;"/>
   </g>
   <g id="patch_40">
    <path clip-path="url(#p090e3b9bce)" d="M 148.635018 551.077867 
L 336.086667 551.077867 
L 336.086667 545.903221 
L 148.635018 545.903221 
z
" style="fill:#0000ff;opacity:0.7;"/>
   </g>
   <g id="patch_41">
    <path clip-path="url(#p090e3b9bce)" d="M 148.868615 536.293164 
L 336.086667 536.293164 
L 336.086667 531.118518 
L 148.868615 531.118518 
z
" style="fill:#0000ff;opacity:0.7;"/>
   </g>
   <g id="patch_42">
    <path clip-path="url(#p090e3b9bce)" d="M 149.036101 521.508461 
L 336.086667 521.508461 
L 336.086667 516.333815 
L 149.036101 516.333815 
z
" style="fill:#0000ff;opacity:0.7;"/>
   </g>
   <g id="patch_43">
    <path clip-path="url(#p090e3b9bce)" d="M 149.67958 506.723758 
L 336.086667 506.723758 
L 336.086667 501.549112 
L 149.67958 501.549112 
z
" style="fill:#0000ff;opacity:0.7;"/>
   </g>
   <g id="patch_44">
    <path clip-path="url(#p090e3b9bce)" d="M 151.528642 491.939055 
L 336.086667 491.939055 
L 336.086667 486.764409 
L 151.528642 486.764409 
z
" style="fill:#0000ff;opacity:0.7;"/>
   </g>
   <g id="patch_45">
    <path clip-path="url(#p090e3b9bce)" d="M 151.693026 477.154352 
L 336.086667 477.154352 
L 336.086667 471.979706 
L 151.693026 471.979706 
z
" style="fill:#0000ff;opacity:0.7;"/>
   </g>
   <g id="patch_46">
    <path clip-path="url(#p090e3b9bce)" d="M 151.875556 462.369649 
L 336.086667 462.369649 
L 336.086667 457.195003 
L 151.875556 457.195003 
z
" style="fill:#0000ff;opacity:0.7;"/>
   </g>
   <g id="patch_47">
    <path clip-path="url(#p090e3b9bce)" d="M 151.981394 447.584946 
L 336.086667 447.584946 
L 336.086667 442.4103 
L 151.981394 442.4103 
z
" style="fill:#0000ff;opacity:0.7;"/>
   </g>
   <g id="patch_48">
    <path clip-path="url(#p090e3b9bce)" d="M 152.091121 432.800243 
L 336.086667 432.800243 
L 336.086667 427.625597 
L 152.091121 427.625597 
z
" style="fill:#0000ff;opacity:0.7;"/>
   </g>
   <g id="patch_49">
    <path clip-path="url(#p090e3b9bce)" d="M 152.578759 418.015541 
L 336.086667 418.015541 
L 336.086667 412.840895 
L 152.578759 412.840895 
z
" style="fill:#0000ff;opacity:0.7;"/>
   </g>
   <g id="patch_50">
    <path clip-path="url(#p090e3b9bce)" d="M 152.739149 403.230838 
L 336.086667 403.230838 
L 336.086667 398.056192 
L 152.739149 398.056192 
z
" style="fill:#0000ff;opacity:0.7;"/>
   </g>
   <g id="patch_51">
    <path clip-path="url(#p090e3b9bce)" d="M 152.82672 388.446135 
L 336.086667 388.446135 
L 336.086667 383.271489 
L 152.82672 383.271489 
z
" style="fill:#0000ff;opacity:0.7;"/>
   </g>
   <g id="patch_52">
    <path clip-path="url(#p090e3b9bce)" d="M 152.912445 373.661432 
L 336.086667 373.661432 
L 336.086667 368.486786 
L 152.912445 368.486786 
z
" style="fill:#0000ff;opacity:0.7;"/>
   </g>
   <g id="patch_53">
    <path clip-path="url(#p090e3b9bce)" d="M 153.11748 358.876729 
L 336.086667 358.876729 
L 336.086667 353.702083 
L 153.11748 353.702083 
z
" style="fill:#0000ff;opacity:0.7;"/>
   </g>
   <g id="patch_54">
    <path clip-path="url(#p090e3b9bce)" d="M 153.312997 344.092026 
L 336.086667 344.092026 
L 336.086667 338.91738 
L 153.312997 338.91738 
z
" style="fill:#0000ff;opacity:0.7;"/>
   </g>
   <g id="patch_55">
    <path clip-path="url(#p090e3b9bce)" d="M 153.374222 329.307323 
L 336.086667 329.307323 
L 336.086667 324.132677 
L 153.374222 324.132677 
z
" style="fill:#0000ff;opacity:0.7;"/>
   </g>
   <g id="patch_56">
    <path clip-path="url(#p090e3b9bce)" d="M 153.409595 314.52262 
L 336.086667 314.52262 
L 336.086667 309.347974 
L 153.409595 309.347974 
z
" style="fill:#0000ff;opacity:0.7;"/>
   </g>
   <g id="patch_57">
    <path clip-path="url(#p090e3b9bce)" d="M 153.924944 299.737917 
L 336.086667 299.737917 
L 336.086667 294.563271 
L 153.924944 294.563271 
z
" style="fill:#0000ff;opacity:0.7;"/>
   </g>
   <g id="patch_58">
    <path clip-path="url(#p090e3b9bce)" d="M 154.308736 284.953214 
L 336.086667 284.953214 
L 336.086667 279.778568 
L 154.308736 279.778568 
z
" style="fill:#0000ff;opacity:0.7;"/>
   </g>
   <g id="patch_59">
    <path clip-path="url(#p090e3b9bce)" d="M 155.286205 270.168511 
L 336.086667 270.168511 
L 336.086667 264.993865 
L 155.286205 264.993865 
z
" style="fill:#0000ff;opacity:0.7;"/>
   </g>
   <g id="patch_60">
    <path clip-path="url(#p090e3b9bce)" d="M 155.325525 255.383808 
L 336.086667 255.383808 
L 336.086667 250.209162 
L 155.325525 250.209162 
z
" style="fill:#0000ff;opacity:0.7;"/>
   </g>
   <g id="patch_61">
    <path clip-path="url(#p090e3b9bce)" d="M 155.499157 240.599105 
L 336.086667 240.599105 
L 336.086667 235.424459 
L 155.499157 235.424459 
z
" style="fill:#0000ff;opacity:0.7;"/>
   </g>
   <g id="patch_62">
    <path clip-path="url(#p090e3b9bce)" d="M 157.033004 225.814403 
L 336.086667 225.814403 
L 336.086667 220.639757 
L 157.033004 220.639757 
z
" style="fill:#0000ff;opacity:0.7;"/>
   </g>
   <g id="patch_63">
    <path clip-path="url(#p090e3b9bce)" d="M 158.653409 211.0297 
L 336.086667 211.0297 
L 336.086667 205.855054 
L 158.653409 205.855054 
z
" style="fill:#0000ff;opacity:0.7;"/>
   </g>
   <g id="patch_64">
    <path clip-path="url(#p090e3b9bce)" d="M 159.78761 196.244997 
L 336.086667 196.244997 
L 336.086667 191.070351 
L 159.78761 191.070351 
z
" style="fill:#0000ff;opacity:0.7;"/>
   </g>
   <g id="patch_65">
    <path clip-path="url(#p090e3b9bce)" d="M 160.49757 181.460294 
L 336.086667 181.460294 
L 336.086667 176.285648 
L 160.49757 176.285648 
z
" style="fill:#0000ff;opacity:0.7;"/>
   </g>
   <g id="patch_66">
    <path clip-path="url(#p090e3b9bce)" d="M 160.96557 166.675591 
L 336.086667 166.675591 
L 336.086667 161.500945 
L 160.96557 161.500945 
z
" style="fill:#0000ff;opacity:0.7;"/>
   </g>
   <g id="patch_67">
    <path clip-path="url(#p090e3b9bce)" d="M 161.242222 151.890888 
L 336.086667 151.890888 
L 336.086667 146.716242 
L 161.242222 146.716242 
z
" style="fill:#0000ff;opacity:0.7;"/>
   </g>
   <g id="patch_68">
    <path clip-path="url(#p090e3b9bce)" d="M 161.242222 137.106185 
L 336.086667 137.106185 
L 336.086667 131.931539 
L 161.242222 131.931539 
z
" style="fill:#0000ff;opacity:0.7;"/>
   </g>
   <g id="patch_69">
    <path clip-path="url(#p090e3b9bce)" d="M 162.741548 122.321482 
L 336.086667 122.321482 
L 336.086667 117.146836 
L 162.741548 117.146836 
z
" style="fill:#0000ff;opacity:0.7;"/>
   </g>
   <g id="patch_70">
    <path clip-path="url(#p090e3b9bce)" d="M 168.682411 107.536779 
L 336.086667 107.536779 
L 336.086667 102.362133 
L 168.682411 102.362133 
z
" style="fill:#0000ff;opacity:0.7;"/>
   </g>
   <g id="patch_71">
    <path clip-path="url(#p090e3b9bce)" d="M 175.118765 92.752076 
L 336.086667 92.752076 
L 336.086667 87.57743 
L 175.118765 87.57743 
z
" style="fill:#0000ff;opacity:0.7;"/>
   </g>
   <g id="patch_72">
    <path clip-path="url(#p090e3b9bce)" d="M 178.99635 77.967373 
L 336.086667 77.967373 
L 336.086667 72.792727 
L 178.99635 72.792727 
z
" style="fill:#0000ff;opacity:0.7;"/>
   </g>
   <g id="matplotlib.axis_1">
    <g id="xtick_1">
     <g id="line2d_1">
      <defs>
       <path d="M 0 0 
L 0 3.5 
" id="m076fb55126" style="stroke:#000000;stroke-width:0.8;"/>
      </defs>
      <g>
       <use style="stroke:#000000;stroke-width:0.8;" x="73.82" xlink:href="#m076fb55126" y="606.04"/>
      </g>
     </g>
     <g id="text_1">
      <!-- 0.0 -->
      <defs>
       <path d="M 31.78125 66.40625 
Q 24.171875 66.40625 20.328125 58.90625 
Q 16.5 51.421875 16.5 36.375 
Q 16.5 21.390625 20.328125 13.890625 
Q 24.171875 6.390625 31.78125 6.390625 
Q 39.453125 6.390625 43.28125 13.890625 
Q 47.125 21.390625 47.125 36.375 
Q 47.125 51.421875 43.28125 58.90625 
Q 39.453125 66.40625 31.78125 66.40625 
z
M 31.78125 74.21875 
Q 44.046875 74.21875 50.515625 64.515625 
Q 56.984375 54.828125 56.984375 36.375 
Q 56.984375 17.96875 50.515625 8.265625 
Q 44.046875 -1.421875 31.78125 -1.421875 
Q 19.53125 -1.421875 13.0625 8.265625 
Q 6.59375 17.96875 6.59375 36.375 
Q 6.59375 54.828125 13.0625 64.515625 
Q 19.53125 74.21875 31.78125 74.21875 
z
" id="DejaVuSans-48"/>
       <path d="M 10.6875 12.40625 
L 21 12.40625 
L 21 0 
L 10.6875 0 
z
" id="DejaVuSans-46"/>
      </defs>
      <g transform="translate(65.868438 620.638438)scale(0.1 -0.1)">
       <use xlink:href="#DejaVuSans-48"/>
       <use x="63.623047" xlink:href="#DejaVuSans-46"/>
       <use x="95.410156" xlink:href="#DejaVuSans-48"/>
      </g>
     </g>
    </g>
    <g id="xtick_2">
     <g id="line2d_2">
      <g>
       <use style="stroke:#000000;stroke-width:0.8;" x="100.046667" xlink:href="#m076fb55126" y="606.04"/>
      </g>
     </g>
     <g id="text_2">
      <!-- 0.1 -->
      <defs>
       <path d="M 12.40625 8.296875 
L 28.515625 8.296875 
L 28.515625 63.921875 
L 10.984375 60.40625 
L 10.984375 69.390625 
L 28.421875 72.90625 
L 38.28125 72.90625 
L 38.28125 8.296875 
L 54.390625 8.296875 
L 54.390625 0 
L 12.40625 0 
z
" id="DejaVuSans-49"/>
      </defs>
      <g transform="translate(92.095104 620.638438)scale(0.1 -0.1)">
       <use xlink:href="#DejaVuSans-48"/>
       <use x="63.623047" xlink:href="#DejaVuSans-46"/>
       <use x="95.410156" xlink:href="#DejaVuSans-49"/>
      </g>
     </g>
    </g>
    <g id="xtick_3">
     <g id="line2d_3">
      <g>
       <use style="stroke:#000000;stroke-width:0.8;" x="126.273333" xlink:href="#m076fb55126" y="606.04"/>
      </g>
     </g>
     <g id="text_3">
      <!-- 0.2 -->
      <defs>
       <path d="M 19.1875 8.296875 
L 53.609375 8.296875 
L 53.609375 0 
L 7.328125 0 
L 7.328125 8.296875 
Q 12.9375 14.109375 22.625 23.890625 
Q 32.328125 33.6875 34.8125 36.53125 
Q 39.546875 41.84375 41.421875 45.53125 
Q 43.3125 49.21875 43.3125 52.78125 
Q 43.3125 58.59375 39.234375 62.25 
Q 35.15625 65.921875 28.609375 65.921875 
Q 23.96875 65.921875 18.8125 64.3125 
Q 13.671875 62.703125 7.8125 59.421875 
L 7.8125 69.390625 
Q 13.765625 71.78125 18.9375 73 
Q 24.125 74.21875 28.421875 74.21875 
Q 39.75 74.21875 46.484375 68.546875 
Q 53.21875 62.890625 53.21875 53.421875 
Q 53.21875 48.921875 51.53125 44.890625 
Q 49.859375 40.875 45.40625 35.40625 
Q 44.1875 33.984375 37.640625 27.21875 
Q 31.109375 20.453125 19.1875 8.296875 
z
" id="DejaVuSans-50"/>
      </defs>
      <g transform="translate(118.321771 620.638438)scale(0.1 -0.1)">
       <use xlink:href="#DejaVuSans-48"/>
       <use x="63.623047" xlink:href="#DejaVuSans-46"/>
       <use x="95.410156" xlink:href="#DejaVuSans-50"/>
      </g>
     </g>
    </g>
    <g id="xtick_4">
     <g id="line2d_4">
      <g>
       <use style="stroke:#000000;stroke-width:0.8;" x="152.5" xlink:href="#m076fb55126" y="606.04"/>
      </g>
     </g>
     <g id="text_4">
      <!-- 0.3 -->
      <defs>
       <path d="M 40.578125 39.3125 
Q 47.65625 37.796875 51.625 33 
Q 55.609375 28.21875 55.609375 21.1875 
Q 55.609375 10.40625 48.1875 4.484375 
Q 40.765625 -1.421875 27.09375 -1.421875 
Q 22.515625 -1.421875 17.65625 -0.515625 
Q 12.796875 0.390625 7.625 2.203125 
L 7.625 11.71875 
Q 11.71875 9.328125 16.59375 8.109375 
Q 21.484375 6.890625 26.8125 6.890625 
Q 36.078125 6.890625 40.9375 10.546875 
Q 45.796875 14.203125 45.796875 21.1875 
Q 45.796875 27.640625 41.28125 31.265625 
Q 36.765625 34.90625 28.71875 34.90625 
L 20.21875 34.90625 
L 20.21875 43.015625 
L 29.109375 43.015625 
Q 36.375 43.015625 40.234375 45.921875 
Q 44.09375 48.828125 44.09375 54.296875 
Q 44.09375 59.90625 40.109375 62.90625 
Q 36.140625 65.921875 28.71875 65.921875 
Q 24.65625 65.921875 20.015625 65.03125 
Q 15.375 64.15625 9.8125 62.3125 
L 9.8125 71.09375 
Q 15.4375 72.65625 20.34375 73.4375 
Q 25.25 74.21875 29.59375 74.21875 
Q 40.828125 74.21875 47.359375 69.109375 
Q 53.90625 64.015625 53.90625 55.328125 
Q 53.90625 49.265625 50.4375 45.09375 
Q 46.96875 40.921875 40.578125 39.3125 
z
" id="DejaVuSans-51"/>
      </defs>
      <g transform="translate(144.548438 620.638438)scale(0.1 -0.1)">
       <use xlink:href="#DejaVuSans-48"/>
       <use x="63.623047" xlink:href="#DejaVuSans-46"/>
       <use x="95.410156" xlink:href="#DejaVuSans-51"/>
      </g>
     </g>
    </g>
    <g id="xtick_5">
     <g id="line2d_5">
      <g>
       <use style="stroke:#000000;stroke-width:0.8;" x="178.726667" xlink:href="#m076fb55126" y="606.04"/>
      </g>
     </g>
     <g id="text_5">
      <!-- 0.4 -->
      <defs>
       <path d="M 37.796875 64.3125 
L 12.890625 25.390625 
L 37.796875 25.390625 
z
M 35.203125 72.90625 
L 47.609375 72.90625 
L 47.609375 25.390625 
L 58.015625 25.390625 
L 58.015625 17.1875 
L 47.609375 17.1875 
L 47.609375 0 
L 37.796875 0 
L 37.796875 17.1875 
L 4.890625 17.1875 
L 4.890625 26.703125 
z
" id="DejaVuSans-52"/>
      </defs>
      <g transform="translate(170.775104 620.638438)scale(0.1 -0.1)">
       <use xlink:href="#DejaVuSans-48"/>
       <use x="63.623047" xlink:href="#DejaVuSans-46"/>
       <use x="95.410156" xlink:href="#DejaVuSans-52"/>
      </g>
     </g>
    </g>
    <g id="xtick_6">
     <g id="line2d_6">
      <g>
       <use style="stroke:#000000;stroke-width:0.8;" x="204.953333" xlink:href="#m076fb55126" y="606.04"/>
      </g>
     </g>
     <g id="text_6">
      <!-- 0.5 -->
      <defs>
       <path d="M 10.796875 72.90625 
L 49.515625 72.90625 
L 49.515625 64.59375 
L 19.828125 64.59375 
L 19.828125 46.734375 
Q 21.96875 47.46875 24.109375 47.828125 
Q 26.265625 48.1875 28.421875 48.1875 
Q 40.625 48.1875 47.75 41.5 
Q 54.890625 34.8125 54.890625 23.390625 
Q 54.890625 11.625 47.5625 5.09375 
Q 40.234375 -1.421875 26.90625 -1.421875 
Q 22.3125 -1.421875 17.546875 -0.640625 
Q 12.796875 0.140625 7.71875 1.703125 
L 7.71875 11.625 
Q 12.109375 9.234375 16.796875 8.0625 
Q 21.484375 6.890625 26.703125 6.890625 
Q 35.15625 6.890625 40.078125 11.328125 
Q 45.015625 15.765625 45.015625 23.390625 
Q 45.015625 31 40.078125 35.4375 
Q 35.15625 39.890625 26.703125 39.890625 
Q 22.75 39.890625 18.8125 39.015625 
Q 14.890625 38.140625 10.796875 36.28125 
z
" id="DejaVuSans-53"/>
      </defs>
      <g transform="translate(197.001771 620.638438)scale(0.1 -0.1)">
       <use xlink:href="#DejaVuSans-48"/>
       <use x="63.623047" xlink:href="#DejaVuSans-46"/>
       <use x="95.410156" xlink:href="#DejaVuSans-53"/>
      </g>
     </g>
    </g>
    <g id="xtick_7">
     <g id="line2d_7">
      <g>
       <use style="stroke:#000000;stroke-width:0.8;" x="231.18" xlink:href="#m076fb55126" y="606.04"/>
      </g>
     </g>
     <g id="text_7">
      <!-- 0.6 -->
      <defs>
       <path d="M 33.015625 40.375 
Q 26.375 40.375 22.484375 35.828125 
Q 18.609375 31.296875 18.609375 23.390625 
Q 18.609375 15.53125 22.484375 10.953125 
Q 26.375 6.390625 33.015625 6.390625 
Q 39.65625 6.390625 43.53125 10.953125 
Q 47.40625 15.53125 47.40625 23.390625 
Q 47.40625 31.296875 43.53125 35.828125 
Q 39.65625 40.375 33.015625 40.375 
z
M 52.59375 71.296875 
L 52.59375 62.3125 
Q 48.875 64.0625 45.09375 64.984375 
Q 41.3125 65.921875 37.59375 65.921875 
Q 27.828125 65.921875 22.671875 59.328125 
Q 17.53125 52.734375 16.796875 39.40625 
Q 19.671875 43.65625 24.015625 45.921875 
Q 28.375 48.1875 33.59375 48.1875 
Q 44.578125 48.1875 50.953125 41.515625 
Q 57.328125 34.859375 57.328125 23.390625 
Q 57.328125 12.15625 50.6875 5.359375 
Q 44.046875 -1.421875 33.015625 -1.421875 
Q 20.359375 -1.421875 13.671875 8.265625 
Q 6.984375 17.96875 6.984375 36.375 
Q 6.984375 53.65625 15.1875 63.9375 
Q 23.390625 74.21875 37.203125 74.21875 
Q 40.921875 74.21875 44.703125 73.484375 
Q 48.484375 72.75 52.59375 71.296875 
z
" id="DejaVuSans-54"/>
      </defs>
      <g transform="translate(223.228438 620.638438)scale(0.1 -0.1)">
       <use xlink:href="#DejaVuSans-48"/>
       <use x="63.623047" xlink:href="#DejaVuSans-46"/>
       <use x="95.410156" xlink:href="#DejaVuSans-54"/>
      </g>
     </g>
    </g>
    <g id="xtick_8">
     <g id="line2d_8">
      <g>
       <use style="stroke:#000000;stroke-width:0.8;" x="257.406667" xlink:href="#m076fb55126" y="606.04"/>
      </g>
     </g>
     <g id="text_8">
      <!-- 0.7 -->
      <defs>
       <path d="M 8.203125 72.90625 
L 55.078125 72.90625 
L 55.078125 68.703125 
L 28.609375 0 
L 18.3125 0 
L 43.21875 64.59375 
L 8.203125 64.59375 
z
" id="DejaVuSans-55"/>
      </defs>
      <g transform="translate(249.455104 620.638438)scale(0.1 -0.1)">
       <use xlink:href="#DejaVuSans-48"/>
       <use x="63.623047" xlink:href="#DejaVuSans-46"/>
       <use x="95.410156" xlink:href="#DejaVuSans-55"/>
      </g>
     </g>
    </g>
    <g id="xtick_9">
     <g id="line2d_9">
      <g>
       <use style="stroke:#000000;stroke-width:0.8;" x="283.633333" xlink:href="#m076fb55126" y="606.04"/>
      </g>
     </g>
     <g id="text_9">
      <!-- 0.8 -->
      <defs>
       <path d="M 31.78125 34.625 
Q 24.75 34.625 20.71875 30.859375 
Q 16.703125 27.09375 16.703125 20.515625 
Q 16.703125 13.921875 20.71875 10.15625 
Q 24.75 6.390625 31.78125 6.390625 
Q 38.8125 6.390625 42.859375 10.171875 
Q 46.921875 13.96875 46.921875 20.515625 
Q 46.921875 27.09375 42.890625 30.859375 
Q 38.875 34.625 31.78125 34.625 
z
M 21.921875 38.8125 
Q 15.578125 40.375 12.03125 44.71875 
Q 8.5 49.078125 8.5 55.328125 
Q 8.5 64.0625 14.71875 69.140625 
Q 20.953125 74.21875 31.78125 74.21875 
Q 42.671875 74.21875 48.875 69.140625 
Q 55.078125 64.0625 55.078125 55.328125 
Q 55.078125 49.078125 51.53125 44.71875 
Q 48 40.375 41.703125 38.8125 
Q 48.828125 37.15625 52.796875 32.3125 
Q 56.78125 27.484375 56.78125 20.515625 
Q 56.78125 9.90625 50.3125 4.234375 
Q 43.84375 -1.421875 31.78125 -1.421875 
Q 19.734375 -1.421875 13.25 4.234375 
Q 6.78125 9.90625 6.78125 20.515625 
Q 6.78125 27.484375 10.78125 32.3125 
Q 14.796875 37.15625 21.921875 38.8125 
z
M 18.3125 54.390625 
Q 18.3125 48.734375 21.84375 45.5625 
Q 25.390625 42.390625 31.78125 42.390625 
Q 38.140625 42.390625 41.71875 45.5625 
Q 45.3125 48.734375 45.3125 54.390625 
Q 45.3125 60.0625 41.71875 63.234375 
Q 38.140625 66.40625 31.78125 66.40625 
Q 25.390625 66.40625 21.84375 63.234375 
Q 18.3125 60.0625 18.3125 54.390625 
z
" id="DejaVuSans-56"/>
      </defs>
      <g transform="translate(275.681771 620.638438)scale(0.1 -0.1)">
       <use xlink:href="#DejaVuSans-48"/>
       <use x="63.623047" xlink:href="#DejaVuSans-46"/>
       <use x="95.410156" xlink:href="#DejaVuSans-56"/>
      </g>
     </g>
    </g>
    <g id="xtick_10">
     <g id="line2d_10">
      <g>
       <use style="stroke:#000000;stroke-width:0.8;" x="309.86" xlink:href="#m076fb55126" y="606.04"/>
      </g>
     </g>
     <g id="text_10">
      <!-- 0.9 -->
      <defs>
       <path d="M 10.984375 1.515625 
L 10.984375 10.5 
Q 14.703125 8.734375 18.5 7.8125 
Q 22.3125 6.890625 25.984375 6.890625 
Q 35.75 6.890625 40.890625 13.453125 
Q 46.046875 20.015625 46.78125 33.40625 
Q 43.953125 29.203125 39.59375 26.953125 
Q 35.25 24.703125 29.984375 24.703125 
Q 19.046875 24.703125 12.671875 31.3125 
Q 6.296875 37.9375 6.296875 49.421875 
Q 6.296875 60.640625 12.9375 67.421875 
Q 19.578125 74.21875 30.609375 74.21875 
Q 43.265625 74.21875 49.921875 64.515625 
Q 56.59375 54.828125 56.59375 36.375 
Q 56.59375 19.140625 48.40625 8.859375 
Q 40.234375 -1.421875 26.421875 -1.421875 
Q 22.703125 -1.421875 18.890625 -0.6875 
Q 15.09375 0.046875 10.984375 1.515625 
z
M 30.609375 32.421875 
Q 37.25 32.421875 41.125 36.953125 
Q 45.015625 41.5 45.015625 49.421875 
Q 45.015625 57.28125 41.125 61.84375 
Q 37.25 66.40625 30.609375 66.40625 
Q 23.96875 66.40625 20.09375 61.84375 
Q 16.21875 57.28125 16.21875 49.421875 
Q 16.21875 41.5 20.09375 36.953125 
Q 23.96875 32.421875 30.609375 32.421875 
z
" id="DejaVuSans-57"/>
      </defs>
      <g transform="translate(301.908437 620.638438)scale(0.1 -0.1)">
       <use xlink:href="#DejaVuSans-48"/>
       <use x="63.623047" xlink:href="#DejaVuSans-46"/>
       <use x="95.410156" xlink:href="#DejaVuSans-57"/>
      </g>
     </g>
    </g>
    <g id="xtick_11">
     <g id="line2d_11">
      <g>
       <use style="stroke:#000000;stroke-width:0.8;" x="336.086667" xlink:href="#m076fb55126" y="606.04"/>
      </g>
     </g>
     <g id="text_11">
      <!-- 1.0 -->
      <g transform="translate(328.135104 620.638438)scale(0.1 -0.1)">
       <use xlink:href="#DejaVuSans-49"/>
       <use x="63.623047" xlink:href="#DejaVuSans-46"/>
       <use x="95.410156" xlink:href="#DejaVuSans-48"/>
      </g>
     </g>
    </g>
    <g id="text_12">
     <!-- Proporção -->
     <defs>
      <path d="M 19.671875 64.796875 
L 19.671875 37.40625 
L 32.078125 37.40625 
Q 38.96875 37.40625 42.71875 40.96875 
Q 46.484375 44.53125 46.484375 51.125 
Q 46.484375 57.671875 42.71875 61.234375 
Q 38.96875 64.796875 32.078125 64.796875 
z
M 9.8125 72.90625 
L 32.078125 72.90625 
Q 44.34375 72.90625 50.609375 67.359375 
Q 56.890625 61.8125 56.890625 51.125 
Q 56.890625 40.328125 50.609375 34.8125 
Q 44.34375 29.296875 32.078125 29.296875 
L 19.671875 29.296875 
L 19.671875 0 
L 9.8125 0 
z
" id="DejaVuSans-80"/>
      <path d="M 41.109375 46.296875 
Q 39.59375 47.171875 37.8125 47.578125 
Q 36.03125 48 33.890625 48 
Q 26.265625 48 22.1875 43.046875 
Q 18.109375 38.09375 18.109375 28.8125 
L 18.109375 0 
L 9.078125 0 
L 9.078125 54.6875 
L 18.109375 54.6875 
L 18.109375 46.1875 
Q 20.953125 51.171875 25.484375 53.578125 
Q 30.03125 56 36.53125 56 
Q 37.453125 56 38.578125 55.875 
Q 39.703125 55.765625 41.0625 55.515625 
z
" id="DejaVuSans-114"/>
      <path d="M 30.609375 48.390625 
Q 23.390625 48.390625 19.1875 42.75 
Q 14.984375 37.109375 14.984375 27.296875 
Q 14.984375 17.484375 19.15625 11.84375 
Q 23.34375 6.203125 30.609375 6.203125 
Q 37.796875 6.203125 41.984375 11.859375 
Q 46.1875 17.53125 46.1875 27.296875 
Q 46.1875 37.015625 41.984375 42.703125 
Q 37.796875 48.390625 30.609375 48.390625 
z
M 30.609375 56 
Q 42.328125 56 49.015625 48.375 
Q 55.71875 40.765625 55.71875 27.296875 
Q 55.71875 13.875 49.015625 6.21875 
Q 42.328125 -1.421875 30.609375 -1.421875 
Q 18.84375 -1.421875 12.171875 6.21875 
Q 5.515625 13.875 5.515625 27.296875 
Q 5.515625 40.765625 12.171875 48.375 
Q 18.84375 56 30.609375 56 
z
" id="DejaVuSans-111"/>
      <path d="M 18.109375 8.203125 
L 18.109375 -20.796875 
L 9.078125 -20.796875 
L 9.078125 54.6875 
L 18.109375 54.6875 
L 18.109375 46.390625 
Q 20.953125 51.265625 25.265625 53.625 
Q 29.59375 56 35.59375 56 
Q 45.5625 56 51.78125 48.09375 
Q 58.015625 40.1875 58.015625 27.296875 
Q 58.015625 14.40625 51.78125 6.484375 
Q 45.5625 -1.421875 35.59375 -1.421875 
Q 29.59375 -1.421875 25.265625 0.953125 
Q 20.953125 3.328125 18.109375 8.203125 
z
M 48.6875 27.296875 
Q 48.6875 37.203125 44.609375 42.84375 
Q 40.53125 48.484375 33.40625 48.484375 
Q 26.265625 48.484375 22.1875 42.84375 
Q 18.109375 37.203125 18.109375 27.296875 
Q 18.109375 17.390625 22.1875 11.75 
Q 26.265625 6.109375 33.40625 6.109375 
Q 40.53125 6.109375 44.609375 11.75 
Q 48.6875 17.390625 48.6875 27.296875 
z
" id="DejaVuSans-112"/>
      <path d="M 48.78125 52.59375 
L 48.78125 44.1875 
Q 44.96875 46.296875 41.140625 47.34375 
Q 37.3125 48.390625 33.40625 48.390625 
Q 24.65625 48.390625 19.8125 42.84375 
Q 14.984375 37.3125 14.984375 27.296875 
Q 14.984375 17.28125 19.8125 11.734375 
Q 24.65625 6.203125 33.40625 6.203125 
Q 37.3125 6.203125 41.140625 7.25 
Q 44.96875 8.296875 48.78125 10.40625 
L 48.78125 2.09375 
Q 45.015625 0.34375 40.984375 -0.53125 
Q 36.96875 -1.421875 32.421875 -1.421875 
Q 20.0625 -1.421875 12.78125 6.34375 
Q 5.515625 14.109375 5.515625 27.296875 
Q 5.515625 40.671875 12.859375 48.328125 
Q 20.21875 56 33.015625 56 
Q 37.15625 56 41.109375 55.140625 
Q 45.0625 54.296875 48.78125 52.59375 
z
M 36.078125 0 
Q 38.765625 -3.03125 40.078125 -5.59375 
Q 41.40625 -8.15625 41.40625 -10.5 
Q 41.40625 -14.84375 38.46875 -17.0625 
Q 35.546875 -19.28125 29.78125 -19.28125 
Q 27.546875 -19.28125 25.421875 -18.984375 
Q 23.296875 -18.703125 21.1875 -18.109375 
L 21.1875 -11.71875 
Q 22.859375 -12.546875 24.65625 -12.90625 
Q 26.46875 -13.28125 28.765625 -13.28125 
Q 31.640625 -13.28125 33.109375 -12.109375 
Q 34.578125 -10.9375 34.578125 -8.6875 
Q 34.578125 -7.234375 33.515625 -5.109375 
Q 32.46875 -2.984375 30.28125 0 
z
" id="DejaVuSans-231"/>
      <path d="M 34.28125 27.484375 
Q 23.390625 27.484375 19.1875 25 
Q 14.984375 22.515625 14.984375 16.5 
Q 14.984375 11.71875 18.140625 8.90625 
Q 21.296875 6.109375 26.703125 6.109375 
Q 34.1875 6.109375 38.703125 11.40625 
Q 43.21875 16.703125 43.21875 25.484375 
L 43.21875 27.484375 
z
M 52.203125 31.203125 
L 52.203125 0 
L 43.21875 0 
L 43.21875 8.296875 
Q 40.140625 3.328125 35.546875 0.953125 
Q 30.953125 -1.421875 24.3125 -1.421875 
Q 15.921875 -1.421875 10.953125 3.296875 
Q 6 8.015625 6 15.921875 
Q 6 25.140625 12.171875 29.828125 
Q 18.359375 34.515625 30.609375 34.515625 
L 43.21875 34.515625 
L 43.21875 35.40625 
Q 43.21875 41.609375 39.140625 45 
Q 35.0625 48.390625 27.6875 48.390625 
Q 23 48.390625 18.546875 47.265625 
Q 14.109375 46.140625 10.015625 43.890625 
L 10.015625 52.203125 
Q 14.9375 54.109375 19.578125 55.046875 
Q 24.21875 56 28.609375 56 
Q 40.484375 56 46.34375 49.84375 
Q 52.203125 43.703125 52.203125 31.203125 
z
M 28.8125 66.890625 
L 26.03125 69.578125 
Q 24.953125 70.5625 24.140625 71.015625 
Q 23.34375 71.484375 22.703125 71.484375 
Q 20.84375 71.484375 19.96875 69.703125 
Q 19.09375 67.921875 19 63.921875 
L 12.890625 63.921875 
Q 12.984375 70.515625 15.46875 74.09375 
Q 17.96875 77.6875 22.40625 77.6875 
Q 24.265625 77.6875 25.828125 77 
Q 27.390625 76.3125 29.203125 74.703125 
L 31.984375 72.015625 
Q 33.0625 71.046875 33.859375 70.578125 
Q 34.671875 70.125 35.296875 70.125 
Q 37.15625 70.125 38.03125 71.90625 
Q 38.921875 73.6875 39.015625 77.6875 
L 45.125 77.6875 
Q 45.015625 71.09375 42.53125 67.5 
Q 40.046875 63.921875 35.59375 63.921875 
Q 33.734375 63.921875 32.171875 64.59375 
Q 30.609375 65.28125 28.8125 66.890625 
z
" id="DejaVuSans-227"/>
     </defs>
     <g transform="translate(186.2225 634.486875)scale(0.1 -0.1)">
      <use xlink:href="#DejaVuSans-80"/>
      <use x="60.287109" xlink:href="#DejaVuSans-114"/>
      <use x="101.369141" xlink:href="#DejaVuSans-111"/>
      <use x="162.550781" xlink:href="#DejaVuSans-112"/>
      <use x="226.027344" xlink:href="#DejaVuSans-111"/>
      <use x="287.208984" xlink:href="#DejaVuSans-114"/>
      <use x="328.291016" xlink:href="#DejaVuSans-231"/>
      <use x="383.271484" xlink:href="#DejaVuSans-227"/>
      <use x="444.550781" xlink:href="#DejaVuSans-111"/>
     </g>
    </g>
   </g>
   <g id="matplotlib.axis_2">
    <g id="ytick_1">
     <g id="line2d_12">
      <defs>
       <path d="M 0 0 
L -3.5 0 
" id="m20ff2217c4" style="stroke:#000000;stroke-width:0.8;"/>
      </defs>
      <g>
       <use style="stroke:#000000;stroke-width:0.8;" x="73.82" xlink:href="#m20ff2217c4" y="578.05995"/>
      </g>
     </g>
     <g id="text_13">
      <!-- PSL -->
      <defs>
       <path d="M 53.515625 70.515625 
L 53.515625 60.890625 
Q 47.90625 63.578125 42.921875 64.890625 
Q 37.9375 66.21875 33.296875 66.21875 
Q 25.25 66.21875 20.875 63.09375 
Q 16.5 59.96875 16.5 54.203125 
Q 16.5 49.359375 19.40625 46.890625 
Q 22.3125 44.4375 30.421875 42.921875 
L 36.375 41.703125 
Q 47.40625 39.59375 52.65625 34.296875 
Q 57.90625 29 57.90625 20.125 
Q 57.90625 9.515625 50.796875 4.046875 
Q 43.703125 -1.421875 29.984375 -1.421875 
Q 24.8125 -1.421875 18.96875 -0.25 
Q 13.140625 0.921875 6.890625 3.21875 
L 6.890625 13.375 
Q 12.890625 10.015625 18.65625 8.296875 
Q 24.421875 6.59375 29.984375 6.59375 
Q 38.421875 6.59375 43.015625 9.90625 
Q 47.609375 13.234375 47.609375 19.390625 
Q 47.609375 24.75 44.3125 27.78125 
Q 41.015625 30.8125 33.5 32.328125 
L 27.484375 33.5 
Q 16.453125 35.6875 11.515625 40.375 
Q 6.59375 45.0625 6.59375 53.421875 
Q 6.59375 63.09375 13.40625 68.65625 
Q 20.21875 74.21875 32.171875 74.21875 
Q 37.3125 74.21875 42.625 73.28125 
Q 47.953125 72.359375 53.515625 70.515625 
z
" id="DejaVuSans-83"/>
       <path d="M 9.8125 72.90625 
L 19.671875 72.90625 
L 19.671875 8.296875 
L 55.171875 8.296875 
L 55.171875 0 
L 9.8125 0 
z
" id="DejaVuSans-76"/>
      </defs>
      <g transform="translate(48.87 581.859168)scale(0.1 -0.1)">
       <use xlink:href="#DejaVuSans-80"/>
       <use x="60.302734" xlink:href="#DejaVuSans-83"/>
       <use x="123.779297" xlink:href="#DejaVuSans-76"/>
      </g>
     </g>
    </g>
    <g id="ytick_2">
     <g id="line2d_13">
      <g>
       <use style="stroke:#000000;stroke-width:0.8;" x="73.82" xlink:href="#m20ff2217c4" y="563.275247"/>
      </g>
     </g>
     <g id="text_14">
      <!-- PODE -->
      <defs>
       <path d="M 39.40625 66.21875 
Q 28.65625 66.21875 22.328125 58.203125 
Q 16.015625 50.203125 16.015625 36.375 
Q 16.015625 22.609375 22.328125 14.59375 
Q 28.65625 6.59375 39.40625 6.59375 
Q 50.140625 6.59375 56.421875 14.59375 
Q 62.703125 22.609375 62.703125 36.375 
Q 62.703125 50.203125 56.421875 58.203125 
Q 50.140625 66.21875 39.40625 66.21875 
z
M 39.40625 74.21875 
Q 54.734375 74.21875 63.90625 63.9375 
Q 73.09375 53.65625 73.09375 36.375 
Q 73.09375 19.140625 63.90625 8.859375 
Q 54.734375 -1.421875 39.40625 -1.421875 
Q 24.03125 -1.421875 14.8125 8.828125 
Q 5.609375 19.09375 5.609375 36.375 
Q 5.609375 53.65625 14.8125 63.9375 
Q 24.03125 74.21875 39.40625 74.21875 
z
" id="DejaVuSans-79"/>
       <path d="M 19.671875 64.796875 
L 19.671875 8.109375 
L 31.59375 8.109375 
Q 46.6875 8.109375 53.6875 14.9375 
Q 60.6875 21.78125 60.6875 36.53125 
Q 60.6875 51.171875 53.6875 57.984375 
Q 46.6875 64.796875 31.59375 64.796875 
z
M 9.8125 72.90625 
L 30.078125 72.90625 
Q 51.265625 72.90625 61.171875 64.09375 
Q 71.09375 55.28125 71.09375 36.53125 
Q 71.09375 17.671875 61.125 8.828125 
Q 51.171875 0 30.078125 0 
L 9.8125 0 
z
" id="DejaVuSans-68"/>
       <path d="M 9.8125 72.90625 
L 55.90625 72.90625 
L 55.90625 64.59375 
L 19.671875 64.59375 
L 19.671875 43.015625 
L 54.390625 43.015625 
L 54.390625 34.71875 
L 19.671875 34.71875 
L 19.671875 8.296875 
L 56.78125 8.296875 
L 56.78125 0 
L 9.8125 0 
z
" id="DejaVuSans-69"/>
      </defs>
      <g transform="translate(38.899688 567.074466)scale(0.1 -0.1)">
       <use xlink:href="#DejaVuSans-80"/>
       <use x="60.302734" xlink:href="#DejaVuSans-79"/>
       <use x="139.013672" xlink:href="#DejaVuSans-68"/>
       <use x="216.015625" xlink:href="#DejaVuSans-69"/>
      </g>
     </g>
    </g>
    <g id="ytick_3">
     <g id="line2d_14">
      <g>
       <use style="stroke:#000000;stroke-width:0.8;" x="73.82" xlink:href="#m20ff2217c4" y="548.490544"/>
      </g>
     </g>
     <g id="text_15">
      <!-- AVANTE -->
      <defs>
       <path d="M 34.1875 63.1875 
L 20.796875 26.90625 
L 47.609375 26.90625 
z
M 28.609375 72.90625 
L 39.796875 72.90625 
L 67.578125 0 
L 57.328125 0 
L 50.6875 18.703125 
L 17.828125 18.703125 
L 11.1875 0 
L 0.78125 0 
z
" id="DejaVuSans-65"/>
       <path d="M 28.609375 0 
L 0.78125 72.90625 
L 11.078125 72.90625 
L 34.1875 11.53125 
L 57.328125 72.90625 
L 67.578125 72.90625 
L 39.796875 0 
z
" id="DejaVuSans-86"/>
       <path d="M 9.8125 72.90625 
L 23.09375 72.90625 
L 55.421875 11.921875 
L 55.421875 72.90625 
L 64.984375 72.90625 
L 64.984375 0 
L 51.703125 0 
L 19.390625 60.984375 
L 19.390625 0 
L 9.8125 0 
z
" id="DejaVuSans-78"/>
       <path d="M -0.296875 72.90625 
L 61.375 72.90625 
L 61.375 64.59375 
L 35.5 64.59375 
L 35.5 0 
L 25.59375 0 
L 25.59375 64.59375 
L -0.296875 64.59375 
z
" id="DejaVuSans-84"/>
      </defs>
      <g transform="translate(26.409063 552.289763)scale(0.1 -0.1)">
       <use xlink:href="#DejaVuSans-65"/>
       <use x="68.314453" xlink:href="#DejaVuSans-86"/>
       <use x="136.628906" xlink:href="#DejaVuSans-65"/>
       <use x="205.037109" xlink:href="#DejaVuSans-78"/>
       <use x="279.841797" xlink:href="#DejaVuSans-84"/>
       <use x="340.925781" xlink:href="#DejaVuSans-69"/>
      </g>
     </g>
    </g>
    <g id="ytick_4">
     <g id="line2d_15">
      <g>
       <use style="stroke:#000000;stroke-width:0.8;" x="73.82" xlink:href="#m20ff2217c4" y="533.705841"/>
      </g>
     </g>
     <g id="text_16">
      <!-- DEM -->
      <defs>
       <path d="M 9.8125 72.90625 
L 24.515625 72.90625 
L 43.109375 23.296875 
L 61.8125 72.90625 
L 76.515625 72.90625 
L 76.515625 0 
L 66.890625 0 
L 66.890625 64.015625 
L 48.09375 14.015625 
L 38.1875 14.015625 
L 19.390625 64.015625 
L 19.390625 0 
L 9.8125 0 
z
" id="DejaVuSans-77"/>
      </defs>
      <g transform="translate(44.173125 537.50506)scale(0.1 -0.1)">
       <use xlink:href="#DejaVuSans-68"/>
       <use x="77.001953" xlink:href="#DejaVuSans-69"/>
       <use x="140.185547" xlink:href="#DejaVuSans-77"/>
      </g>
     </g>
    </g>
    <g id="ytick_5">
     <g id="line2d_16">
      <g>
       <use style="stroke:#000000;stroke-width:0.8;" x="73.82" xlink:href="#m20ff2217c4" y="518.921138"/>
      </g>
     </g>
     <g id="text_17">
      <!-- PPL -->
      <g transform="translate(49.18875 522.720357)scale(0.1 -0.1)">
       <use xlink:href="#DejaVuSans-80"/>
       <use x="60.302734" xlink:href="#DejaVuSans-80"/>
       <use x="120.605469" xlink:href="#DejaVuSans-76"/>
      </g>
     </g>
    </g>
    <g id="ytick_6">
     <g id="line2d_17">
      <g>
       <use style="stroke:#000000;stroke-width:0.8;" x="73.82" xlink:href="#m20ff2217c4" y="504.136435"/>
      </g>
     </g>
     <g id="text_18">
      <!-- REDE -->
      <defs>
       <path d="M 44.390625 34.1875 
Q 47.5625 33.109375 50.5625 29.59375 
Q 53.5625 26.078125 56.59375 19.921875 
L 66.609375 0 
L 56 0 
L 46.6875 18.703125 
Q 43.0625 26.03125 39.671875 28.421875 
Q 36.28125 30.8125 30.421875 30.8125 
L 19.671875 30.8125 
L 19.671875 0 
L 9.8125 0 
L 9.8125 72.90625 
L 32.078125 72.90625 
Q 44.578125 72.90625 50.734375 67.671875 
Q 56.890625 62.453125 56.890625 51.90625 
Q 56.890625 45.015625 53.6875 40.46875 
Q 50.484375 35.9375 44.390625 34.1875 
z
M 19.671875 64.796875 
L 19.671875 38.921875 
L 32.078125 38.921875 
Q 39.203125 38.921875 42.84375 42.21875 
Q 46.484375 45.515625 46.484375 51.90625 
Q 46.484375 58.296875 42.84375 61.546875 
Q 39.203125 64.796875 32.078125 64.796875 
z
" id="DejaVuSans-82"/>
      </defs>
      <g transform="translate(39.534063 507.935654)scale(0.1 -0.1)">
       <use xlink:href="#DejaVuSans-82"/>
       <use x="69.482422" xlink:href="#DejaVuSans-69"/>
       <use x="132.666016" xlink:href="#DejaVuSans-68"/>
       <use x="209.667969" xlink:href="#DejaVuSans-69"/>
      </g>
     </g>
    </g>
    <g id="ytick_7">
     <g id="line2d_18">
      <g>
       <use style="stroke:#000000;stroke-width:0.8;" x="73.82" xlink:href="#m20ff2217c4" y="489.351732"/>
      </g>
     </g>
     <g id="text_19">
      <!-- PCB -->
      <defs>
       <path d="M 64.40625 67.28125 
L 64.40625 56.890625 
Q 59.421875 61.53125 53.78125 63.8125 
Q 48.140625 66.109375 41.796875 66.109375 
Q 29.296875 66.109375 22.65625 58.46875 
Q 16.015625 50.828125 16.015625 36.375 
Q 16.015625 21.96875 22.65625 14.328125 
Q 29.296875 6.6875 41.796875 6.6875 
Q 48.140625 6.6875 53.78125 8.984375 
Q 59.421875 11.28125 64.40625 15.921875 
L 64.40625 5.609375 
Q 59.234375 2.09375 53.4375 0.328125 
Q 47.65625 -1.421875 41.21875 -1.421875 
Q 24.65625 -1.421875 15.125 8.703125 
Q 5.609375 18.84375 5.609375 36.375 
Q 5.609375 53.953125 15.125 64.078125 
Q 24.65625 74.21875 41.21875 74.21875 
Q 47.75 74.21875 53.53125 72.484375 
Q 59.328125 70.75 64.40625 67.28125 
z
" id="DejaVuSans-67"/>
       <path d="M 19.671875 34.8125 
L 19.671875 8.109375 
L 35.5 8.109375 
Q 43.453125 8.109375 47.28125 11.40625 
Q 51.125 14.703125 51.125 21.484375 
Q 51.125 28.328125 47.28125 31.5625 
Q 43.453125 34.8125 35.5 34.8125 
z
M 19.671875 64.796875 
L 19.671875 42.828125 
L 34.28125 42.828125 
Q 41.5 42.828125 45.03125 45.53125 
Q 48.578125 48.25 48.578125 53.8125 
Q 48.578125 59.328125 45.03125 62.0625 
Q 41.5 64.796875 34.28125 64.796875 
z
M 9.8125 72.90625 
L 35.015625 72.90625 
Q 46.296875 72.90625 52.390625 68.21875 
Q 58.5 63.53125 58.5 54.890625 
Q 58.5 48.1875 55.375 44.234375 
Q 52.25 40.28125 46.1875 39.3125 
Q 53.46875 37.75 57.5 32.78125 
Q 61.53125 27.828125 61.53125 20.40625 
Q 61.53125 10.640625 54.890625 5.3125 
Q 48.25 0 35.984375 0 
L 9.8125 0 
z
" id="DejaVuSans-66"/>
      </defs>
      <g transform="translate(46.946563 493.150951)scale(0.1 -0.1)">
       <use xlink:href="#DejaVuSans-80"/>
       <use x="60.302734" xlink:href="#DejaVuSans-67"/>
       <use x="130.126953" xlink:href="#DejaVuSans-66"/>
      </g>
     </g>
    </g>
    <g id="ytick_8">
     <g id="line2d_19">
      <g>
       <use style="stroke:#000000;stroke-width:0.8;" x="73.82" xlink:href="#m20ff2217c4" y="474.567029"/>
      </g>
     </g>
     <g id="text_20">
      <!-- PSD -->
      <g transform="translate(46.741875 478.366248)scale(0.1 -0.1)">
       <use xlink:href="#DejaVuSans-80"/>
       <use x="60.302734" xlink:href="#DejaVuSans-83"/>
       <use x="123.779297" xlink:href="#DejaVuSans-68"/>
      </g>
     </g>
    </g>
    <g id="ytick_9">
     <g id="line2d_20">
      <g>
       <use style="stroke:#000000;stroke-width:0.8;" x="73.82" xlink:href="#m20ff2217c4" y="459.782326"/>
      </g>
     </g>
     <g id="text_21">
      <!-- PROS -->
      <g transform="translate(39.621563 463.581545)scale(0.1 -0.1)">
       <use xlink:href="#DejaVuSans-80"/>
       <use x="60.302734" xlink:href="#DejaVuSans-82"/>
       <use x="129.785156" xlink:href="#DejaVuSans-79"/>
       <use x="208.496094" xlink:href="#DejaVuSans-83"/>
      </g>
     </g>
    </g>
    <g id="ytick_10">
     <g id="line2d_21">
      <g>
       <use style="stroke:#000000;stroke-width:0.8;" x="73.82" xlink:href="#m20ff2217c4" y="444.997623"/>
      </g>
     </g>
     <g id="text_22">
      <!-- PP -->
      <g transform="translate(54.760625 448.796842)scale(0.1 -0.1)">
       <use xlink:href="#DejaVuSans-80"/>
       <use x="60.302734" xlink:href="#DejaVuSans-80"/>
      </g>
     </g>
    </g>
    <g id="ytick_11">
     <g id="line2d_22">
      <g>
       <use style="stroke:#000000;stroke-width:0.8;" x="73.82" xlink:href="#m20ff2217c4" y="430.21292"/>
      </g>
     </g>
     <g id="text_23">
      <!-- PHS -->
      <defs>
       <path d="M 9.8125 72.90625 
L 19.671875 72.90625 
L 19.671875 43.015625 
L 55.515625 43.015625 
L 55.515625 72.90625 
L 65.375 72.90625 
L 65.375 0 
L 55.515625 0 
L 55.515625 34.71875 
L 19.671875 34.71875 
L 19.671875 0 
L 9.8125 0 
z
" id="DejaVuSans-72"/>
      </defs>
      <g transform="translate(46.921563 434.012139)scale(0.1 -0.1)">
       <use xlink:href="#DejaVuSans-80"/>
       <use x="60.302734" xlink:href="#DejaVuSans-72"/>
       <use x="135.498047" xlink:href="#DejaVuSans-83"/>
      </g>
     </g>
    </g>
    <g id="ytick_12">
     <g id="line2d_23">
      <g>
       <use style="stroke:#000000;stroke-width:0.8;" x="73.82" xlink:href="#m20ff2217c4" y="415.428218"/>
      </g>
     </g>
     <g id="text_24">
      <!-- DC -->
      <g transform="translate(52.137188 419.227436)scale(0.1 -0.1)">
       <use xlink:href="#DejaVuSans-68"/>
       <use x="77.001953" xlink:href="#DejaVuSans-67"/>
      </g>
     </g>
    </g>
    <g id="ytick_13">
     <g id="line2d_24">
      <g>
       <use style="stroke:#000000;stroke-width:0.8;" x="73.82" xlink:href="#m20ff2217c4" y="400.643515"/>
      </g>
     </g>
     <g id="text_25">
      <!-- PMN -->
      <g transform="translate(44.680938 404.442733)scale(0.1 -0.1)">
       <use xlink:href="#DejaVuSans-80"/>
       <use x="60.302734" xlink:href="#DejaVuSans-77"/>
       <use x="146.582031" xlink:href="#DejaVuSans-78"/>
      </g>
     </g>
    </g>
    <g id="ytick_14">
     <g id="line2d_25">
      <g>
       <use style="stroke:#000000;stroke-width:0.8;" x="73.82" xlink:href="#m20ff2217c4" y="385.858812"/>
      </g>
     </g>
     <g id="text_26">
      <!-- PDT -->
      <g transform="translate(46.9825 389.65803)scale(0.1 -0.1)">
       <use xlink:href="#DejaVuSans-80"/>
       <use x="60.302734" xlink:href="#DejaVuSans-68"/>
       <use x="137.304688" xlink:href="#DejaVuSans-84"/>
      </g>
     </g>
    </g>
    <g id="ytick_15">
     <g id="line2d_26">
      <g>
       <use style="stroke:#000000;stroke-width:0.8;" x="73.82" xlink:href="#m20ff2217c4" y="371.074109"/>
      </g>
     </g>
     <g id="text_27">
      <!-- PATRI -->
      <defs>
       <path d="M 9.8125 72.90625 
L 19.671875 72.90625 
L 19.671875 0 
L 9.8125 0 
z
" id="DejaVuSans-73"/>
      </defs>
      <g transform="translate(37.96375 374.873328)scale(0.1 -0.1)">
       <use xlink:href="#DejaVuSans-80"/>
       <use x="60.208984" xlink:href="#DejaVuSans-65"/>
       <use x="128.507812" xlink:href="#DejaVuSans-84"/>
       <use x="189.591797" xlink:href="#DejaVuSans-82"/>
       <use x="259.074219" xlink:href="#DejaVuSans-73"/>
      </g>
     </g>
    </g>
    <g id="ytick_16">
     <g id="line2d_27">
      <g>
       <use style="stroke:#000000;stroke-width:0.8;" x="73.82" xlink:href="#m20ff2217c4" y="356.289406"/>
      </g>
     </g>
     <g id="text_28">
      <!-- PSC -->
      <g transform="translate(47.459063 360.088625)scale(0.1 -0.1)">
       <use xlink:href="#DejaVuSans-80"/>
       <use x="60.302734" xlink:href="#DejaVuSans-83"/>
       <use x="123.779297" xlink:href="#DejaVuSans-67"/>
      </g>
     </g>
    </g>
    <g id="ytick_17">
     <g id="line2d_28">
      <g>
       <use style="stroke:#000000;stroke-width:0.8;" x="73.82" xlink:href="#m20ff2217c4" y="341.504703"/>
      </g>
     </g>
     <g id="text_29">
      <!-- PRTB -->
      <g transform="translate(40.884063 345.303922)scale(0.1 -0.1)">
       <use xlink:href="#DejaVuSans-80"/>
       <use x="60.302734" xlink:href="#DejaVuSans-82"/>
       <use x="129.675781" xlink:href="#DejaVuSans-84"/>
       <use x="190.759766" xlink:href="#DejaVuSans-66"/>
      </g>
     </g>
    </g>
    <g id="ytick_18">
     <g id="line2d_29">
      <g>
       <use style="stroke:#000000;stroke-width:0.8;" x="73.82" xlink:href="#m20ff2217c4" y="326.72"/>
      </g>
     </g>
     <g id="text_30">
      <!-- PPS -->
      <g transform="translate(48.412188 330.519219)scale(0.1 -0.1)">
       <use xlink:href="#DejaVuSans-80"/>
       <use x="60.302734" xlink:href="#DejaVuSans-80"/>
       <use x="120.605469" xlink:href="#DejaVuSans-83"/>
      </g>
     </g>
    </g>
    <g id="ytick_19">
     <g id="line2d_30">
      <g>
       <use style="stroke:#000000;stroke-width:0.8;" x="73.82" xlink:href="#m20ff2217c4" y="311.935297"/>
      </g>
     </g>
     <g id="text_31">
      <!-- PTC -->
      <g transform="translate(47.7075 315.734516)scale(0.1 -0.1)">
       <use xlink:href="#DejaVuSans-80"/>
       <use x="60.302734" xlink:href="#DejaVuSans-84"/>
       <use x="121.308594" xlink:href="#DejaVuSans-67"/>
      </g>
     </g>
    </g>
    <g id="ytick_20">
     <g id="line2d_31">
      <g>
       <use style="stroke:#000000;stroke-width:0.8;" x="73.82" xlink:href="#m20ff2217c4" y="297.150594"/>
      </g>
     </g>
     <g id="text_32">
      <!-- PR -->
      <g transform="translate(53.841875 300.949813)scale(0.1 -0.1)">
       <use xlink:href="#DejaVuSans-80"/>
       <use x="60.302734" xlink:href="#DejaVuSans-82"/>
      </g>
     </g>
    </g>
    <g id="ytick_21">
     <g id="line2d_32">
      <g>
       <use style="stroke:#000000;stroke-width:0.8;" x="73.82" xlink:href="#m20ff2217c4" y="282.365891"/>
      </g>
     </g>
     <g id="text_33">
      <!-- PSB -->
      <g transform="translate(47.580938 286.16511)scale(0.1 -0.1)">
       <use xlink:href="#DejaVuSans-80"/>
       <use x="60.302734" xlink:href="#DejaVuSans-83"/>
       <use x="123.779297" xlink:href="#DejaVuSans-66"/>
      </g>
     </g>
    </g>
    <g id="ytick_22">
     <g id="line2d_33">
      <g>
       <use style="stroke:#000000;stroke-width:0.8;" x="73.82" xlink:href="#m20ff2217c4" y="267.581188"/>
      </g>
     </g>
     <g id="text_34">
      <!-- PRP -->
      <g transform="translate(47.812188 271.380407)scale(0.1 -0.1)">
       <use xlink:href="#DejaVuSans-80"/>
       <use x="60.302734" xlink:href="#DejaVuSans-82"/>
       <use x="129.785156" xlink:href="#DejaVuSans-80"/>
      </g>
     </g>
    </g>
    <g id="ytick_23">
     <g id="line2d_34">
      <g>
       <use style="stroke:#000000;stroke-width:0.8;" x="73.82" xlink:href="#m20ff2217c4" y="252.796485"/>
      </g>
     </g>
     <g id="text_35">
      <!-- SD -->
      <g transform="translate(52.771563 256.595704)scale(0.1 -0.1)">
       <use xlink:href="#DejaVuSans-83"/>
       <use x="63.476562" xlink:href="#DejaVuSans-68"/>
      </g>
     </g>
    </g>
    <g id="ytick_24">
     <g id="line2d_35">
      <g>
       <use style="stroke:#000000;stroke-width:0.8;" x="73.82" xlink:href="#m20ff2217c4" y="238.011782"/>
      </g>
     </g>
     <g id="text_36">
      <!-- NOVO -->
      <g transform="translate(36.7575 241.811001)scale(0.1 -0.1)">
       <use xlink:href="#DejaVuSans-78"/>
       <use x="74.804688" xlink:href="#DejaVuSans-79"/>
       <use x="153.5" xlink:href="#DejaVuSans-86"/>
       <use x="221.892578" xlink:href="#DejaVuSans-79"/>
      </g>
     </g>
    </g>
    <g id="ytick_25">
     <g id="line2d_36">
      <g>
       <use style="stroke:#000000;stroke-width:0.8;" x="73.82" xlink:href="#m20ff2217c4" y="223.22708"/>
      </g>
     </g>
     <g id="text_37">
      <!-- PRB -->
      <g transform="translate(46.980938 227.026298)scale(0.1 -0.1)">
       <use xlink:href="#DejaVuSans-80"/>
       <use x="60.302734" xlink:href="#DejaVuSans-82"/>
       <use x="129.785156" xlink:href="#DejaVuSans-66"/>
      </g>
     </g>
    </g>
    <g id="ytick_26">
     <g id="line2d_37">
      <g>
       <use style="stroke:#000000;stroke-width:0.8;" x="73.82" xlink:href="#m20ff2217c4" y="208.442377"/>
      </g>
     </g>
     <g id="text_38">
      <!-- PSDB -->
      <g transform="translate(39.880938 212.241595)scale(0.1 -0.1)">
       <use xlink:href="#DejaVuSans-80"/>
       <use x="60.302734" xlink:href="#DejaVuSans-83"/>
       <use x="123.779297" xlink:href="#DejaVuSans-68"/>
       <use x="200.78125" xlink:href="#DejaVuSans-66"/>
      </g>
     </g>
    </g>
    <g id="ytick_27">
     <g id="line2d_38">
      <g>
       <use style="stroke:#000000;stroke-width:0.8;" x="73.82" xlink:href="#m20ff2217c4" y="193.657674"/>
      </g>
     </g>
     <g id="text_39">
      <!-- PTB -->
      <g transform="translate(47.821563 197.456892)scale(0.1 -0.1)">
       <use xlink:href="#DejaVuSans-80"/>
       <use x="60.302734" xlink:href="#DejaVuSans-84"/>
       <use x="121.386719" xlink:href="#DejaVuSans-66"/>
      </g>
     </g>
    </g>
    <g id="ytick_28">
     <g id="line2d_39">
      <g>
       <use style="stroke:#000000;stroke-width:0.8;" x="73.82" xlink:href="#m20ff2217c4" y="178.872971"/>
      </g>
     </g>
     <g id="text_40">
      <!-- PT -->
      <g transform="translate(54.6825 182.67219)scale(0.1 -0.1)">
       <use xlink:href="#DejaVuSans-80"/>
       <use x="60.302734" xlink:href="#DejaVuSans-84"/>
      </g>
     </g>
    </g>
    <g id="ytick_29">
     <g id="line2d_40">
      <g>
       <use style="stroke:#000000;stroke-width:0.8;" x="73.82" xlink:href="#m20ff2217c4" y="164.088268"/>
      </g>
     </g>
     <g id="text_41">
      <!-- PSOL -->
      <g transform="translate(40.998125 167.887487)scale(0.1 -0.1)">
       <use xlink:href="#DejaVuSans-80"/>
       <use x="60.302734" xlink:href="#DejaVuSans-83"/>
       <use x="123.779297" xlink:href="#DejaVuSans-79"/>
       <use x="202.490234" xlink:href="#DejaVuSans-76"/>
      </g>
     </g>
    </g>
    <g id="ytick_30">
     <g id="line2d_41">
      <g>
       <use style="stroke:#000000;stroke-width:0.8;" x="73.82" xlink:href="#m20ff2217c4" y="149.303565"/>
      </g>
     </g>
     <g id="text_42">
      <!-- PV -->
      <g transform="translate(53.949688 153.102784)scale(0.1 -0.1)">
       <use xlink:href="#DejaVuSans-80"/>
       <use x="60.302734" xlink:href="#DejaVuSans-86"/>
      </g>
     </g>
    </g>
    <g id="ytick_31">
     <g id="line2d_42">
      <g>
       <use style="stroke:#000000;stroke-width:0.8;" x="73.82" xlink:href="#m20ff2217c4" y="134.518862"/>
      </g>
     </g>
     <g id="text_43">
      <!-- MDB -->
      <g transform="translate(43.630938 138.318081)scale(0.1 -0.1)">
       <use xlink:href="#DejaVuSans-77"/>
       <use x="86.279297" xlink:href="#DejaVuSans-68"/>
       <use x="163.28125" xlink:href="#DejaVuSans-66"/>
      </g>
     </g>
    </g>
    <g id="ytick_32">
     <g id="line2d_43">
      <g>
       <use style="stroke:#000000;stroke-width:0.8;" x="73.82" xlink:href="#m20ff2217c4" y="119.734159"/>
      </g>
     </g>
     <g id="text_44">
      <!-- PC DO B -->
      <defs>
       <path id="DejaVuSans-32"/>
      </defs>
      <g transform="translate(25.018438 123.533378)scale(0.1 -0.1)">
       <use xlink:href="#DejaVuSans-80"/>
       <use x="60.302734" xlink:href="#DejaVuSans-67"/>
       <use x="130.126953" xlink:href="#DejaVuSans-32"/>
       <use x="161.914062" xlink:href="#DejaVuSans-68"/>
       <use x="238.916016" xlink:href="#DejaVuSans-79"/>
       <use x="317.626953" xlink:href="#DejaVuSans-32"/>
       <use x="349.414062" xlink:href="#DejaVuSans-66"/>
      </g>
     </g>
    </g>
    <g id="ytick_33">
     <g id="line2d_44">
      <g>
       <use style="stroke:#000000;stroke-width:0.8;" x="73.82" xlink:href="#m20ff2217c4" y="104.949456"/>
      </g>
     </g>
     <g id="text_45">
      <!-- PCO -->
      <g transform="translate(45.935625 108.748675)scale(0.1 -0.1)">
       <use xlink:href="#DejaVuSans-80"/>
       <use x="60.302734" xlink:href="#DejaVuSans-67"/>
       <use x="130.126953" xlink:href="#DejaVuSans-79"/>
      </g>
     </g>
    </g>
    <g id="ytick_34">
     <g id="line2d_45">
      <g>
       <use style="stroke:#000000;stroke-width:0.8;" x="73.82" xlink:href="#m20ff2217c4" y="90.164753"/>
      </g>
     </g>
     <g id="text_46">
      <!-- PSTU -->
      <defs>
       <path d="M 8.6875 72.90625 
L 18.609375 72.90625 
L 18.609375 28.609375 
Q 18.609375 16.890625 22.84375 11.734375 
Q 27.09375 6.59375 36.625 6.59375 
Q 46.09375 6.59375 50.34375 11.734375 
Q 54.59375 16.890625 54.59375 28.609375 
L 54.59375 72.90625 
L 64.5 72.90625 
L 64.5 27.390625 
Q 64.5 13.140625 57.4375 5.859375 
Q 50.390625 -1.421875 36.625 -1.421875 
Q 22.796875 -1.421875 15.734375 5.859375 
Q 8.6875 13.140625 8.6875 27.390625 
z
" id="DejaVuSans-85"/>
      </defs>
      <g transform="translate(41.015313 93.963972)scale(0.1 -0.1)">
       <use xlink:href="#DejaVuSans-80"/>
       <use x="60.302734" xlink:href="#DejaVuSans-83"/>
       <use x="123.779297" xlink:href="#DejaVuSans-84"/>
       <use x="184.863281" xlink:href="#DejaVuSans-85"/>
      </g>
     </g>
    </g>
    <g id="ytick_35">
     <g id="line2d_46">
      <g>
       <use style="stroke:#000000;stroke-width:0.8;" x="73.82" xlink:href="#m20ff2217c4" y="75.38005"/>
      </g>
     </g>
     <g id="text_47">
      <!-- PMB -->
      <g transform="translate(45.30125 79.179269)scale(0.1 -0.1)">
       <use xlink:href="#DejaVuSans-80"/>
       <use x="60.302734" xlink:href="#DejaVuSans-77"/>
       <use x="146.582031" xlink:href="#DejaVuSans-66"/>
      </g>
     </g>
    </g>
    <g id="text_48">
     <!-- Partidos -->
     <defs>
      <path d="M 34.28125 27.484375 
Q 23.390625 27.484375 19.1875 25 
Q 14.984375 22.515625 14.984375 16.5 
Q 14.984375 11.71875 18.140625 8.90625 
Q 21.296875 6.109375 26.703125 6.109375 
Q 34.1875 6.109375 38.703125 11.40625 
Q 43.21875 16.703125 43.21875 25.484375 
L 43.21875 27.484375 
z
M 52.203125 31.203125 
L 52.203125 0 
L 43.21875 0 
L 43.21875 8.296875 
Q 40.140625 3.328125 35.546875 0.953125 
Q 30.953125 -1.421875 24.3125 -1.421875 
Q 15.921875 -1.421875 10.953125 3.296875 
Q 6 8.015625 6 15.921875 
Q 6 25.140625 12.171875 29.828125 
Q 18.359375 34.515625 30.609375 34.515625 
L 43.21875 34.515625 
L 43.21875 35.40625 
Q 43.21875 41.609375 39.140625 45 
Q 35.0625 48.390625 27.6875 48.390625 
Q 23 48.390625 18.546875 47.265625 
Q 14.109375 46.140625 10.015625 43.890625 
L 10.015625 52.203125 
Q 14.9375 54.109375 19.578125 55.046875 
Q 24.21875 56 28.609375 56 
Q 40.484375 56 46.34375 49.84375 
Q 52.203125 43.703125 52.203125 31.203125 
z
" id="DejaVuSans-97"/>
      <path d="M 18.3125 70.21875 
L 18.3125 54.6875 
L 36.8125 54.6875 
L 36.8125 47.703125 
L 18.3125 47.703125 
L 18.3125 18.015625 
Q 18.3125 11.328125 20.140625 9.421875 
Q 21.96875 7.515625 27.59375 7.515625 
L 36.8125 7.515625 
L 36.8125 0 
L 27.59375 0 
Q 17.1875 0 13.234375 3.875 
Q 9.28125 7.765625 9.28125 18.015625 
L 9.28125 47.703125 
L 2.6875 47.703125 
L 2.6875 54.6875 
L 9.28125 54.6875 
L 9.28125 70.21875 
z
" id="DejaVuSans-116"/>
      <path d="M 9.421875 54.6875 
L 18.40625 54.6875 
L 18.40625 0 
L 9.421875 0 
z
M 9.421875 75.984375 
L 18.40625 75.984375 
L 18.40625 64.59375 
L 9.421875 64.59375 
z
" id="DejaVuSans-105"/>
      <path d="M 45.40625 46.390625 
L 45.40625 75.984375 
L 54.390625 75.984375 
L 54.390625 0 
L 45.40625 0 
L 45.40625 8.203125 
Q 42.578125 3.328125 38.25 0.953125 
Q 33.9375 -1.421875 27.875 -1.421875 
Q 17.96875 -1.421875 11.734375 6.484375 
Q 5.515625 14.40625 5.515625 27.296875 
Q 5.515625 40.1875 11.734375 48.09375 
Q 17.96875 56 27.875 56 
Q 33.9375 56 38.25 53.625 
Q 42.578125 51.265625 45.40625 46.390625 
z
M 14.796875 27.296875 
Q 14.796875 17.390625 18.875 11.75 
Q 22.953125 6.109375 30.078125 6.109375 
Q 37.203125 6.109375 41.296875 11.75 
Q 45.40625 17.390625 45.40625 27.296875 
Q 45.40625 37.203125 41.296875 42.84375 
Q 37.203125 48.484375 30.078125 48.484375 
Q 22.953125 48.484375 18.875 42.84375 
Q 14.796875 37.203125 14.796875 27.296875 
z
" id="DejaVuSans-100"/>
      <path d="M 44.28125 53.078125 
L 44.28125 44.578125 
Q 40.484375 46.53125 36.375 47.5 
Q 32.28125 48.484375 27.875 48.484375 
Q 21.1875 48.484375 17.84375 46.4375 
Q 14.5 44.390625 14.5 40.28125 
Q 14.5 37.15625 16.890625 35.375 
Q 19.28125 33.59375 26.515625 31.984375 
L 29.59375 31.296875 
Q 39.15625 29.25 43.1875 25.515625 
Q 47.21875 21.78125 47.21875 15.09375 
Q 47.21875 7.46875 41.1875 3.015625 
Q 35.15625 -1.421875 24.609375 -1.421875 
Q 20.21875 -1.421875 15.453125 -0.5625 
Q 10.6875 0.296875 5.421875 2 
L 5.421875 11.28125 
Q 10.40625 8.6875 15.234375 7.390625 
Q 20.0625 6.109375 24.8125 6.109375 
Q 31.15625 6.109375 34.5625 8.28125 
Q 37.984375 10.453125 37.984375 14.40625 
Q 37.984375 18.0625 35.515625 20.015625 
Q 33.0625 21.96875 24.703125 23.78125 
L 21.578125 24.515625 
Q 13.234375 26.265625 9.515625 29.90625 
Q 5.8125 33.546875 5.8125 39.890625 
Q 5.8125 47.609375 11.28125 51.796875 
Q 16.75 56 26.8125 56 
Q 31.78125 56 36.171875 55.265625 
Q 40.578125 54.546875 44.28125 53.078125 
z
" id="DejaVuSans-115"/>
     </defs>
     <g transform="translate(18.93875 347.03875)rotate(-90)scale(0.1 -0.1)">
      <use xlink:href="#DejaVuSans-80"/>
      <use x="60.240234" xlink:href="#DejaVuSans-97"/>
      <use x="121.519531" xlink:href="#DejaVuSans-114"/>
      <use x="162.632812" xlink:href="#DejaVuSans-116"/>
      <use x="201.841797" xlink:href="#DejaVuSans-105"/>
      <use x="229.625" xlink:href="#DejaVuSans-100"/>
      <use x="293.101562" xlink:href="#DejaVuSans-111"/>
      <use x="354.283203" xlink:href="#DejaVuSans-115"/>
     </g>
    </g>
   </g>
   <g id="line2d_47">
    <path clip-path="url(#p090e3b9bce)" d="M 204.953333 606.04 
L 204.953333 47.4 
" style="fill:none;stroke:#000000;stroke-dasharray:14.8,6.4;stroke-dashoffset:0;stroke-width:4;"/>
   </g>
   <g id="line2d_48">
    <path clip-path="url(#p090e3b9bce)" d="M 155.877951 606.04 
L 155.877951 47.4 
" style="fill:none;stroke:#008000;stroke-linecap:square;stroke-width:2;"/>
   </g>
   <g id="text_49">
    <!-- Proporção de Gênero em -->
    <defs>
     <path d="M 56.203125 29.59375 
L 56.203125 25.203125 
L 14.890625 25.203125 
Q 15.484375 15.921875 20.484375 11.0625 
Q 25.484375 6.203125 34.421875 6.203125 
Q 39.59375 6.203125 44.453125 7.46875 
Q 49.3125 8.734375 54.109375 11.28125 
L 54.109375 2.78125 
Q 49.265625 0.734375 44.1875 -0.34375 
Q 39.109375 -1.421875 33.890625 -1.421875 
Q 20.796875 -1.421875 13.15625 6.1875 
Q 5.515625 13.8125 5.515625 26.8125 
Q 5.515625 40.234375 12.765625 48.109375 
Q 20.015625 56 32.328125 56 
Q 43.359375 56 49.78125 48.890625 
Q 56.203125 41.796875 56.203125 29.59375 
z
M 47.21875 32.234375 
Q 47.125 39.59375 43.09375 43.984375 
Q 39.0625 48.390625 32.421875 48.390625 
Q 24.90625 48.390625 20.390625 44.140625 
Q 15.875 39.890625 15.1875 32.171875 
z
" id="DejaVuSans-101"/>
     <path d="M 59.515625 10.40625 
L 59.515625 29.984375 
L 43.40625 29.984375 
L 43.40625 38.09375 
L 69.28125 38.09375 
L 69.28125 6.78125 
Q 63.578125 2.734375 56.6875 0.65625 
Q 49.8125 -1.421875 42 -1.421875 
Q 24.90625 -1.421875 15.25 8.5625 
Q 5.609375 18.5625 5.609375 36.375 
Q 5.609375 54.25 15.25 64.234375 
Q 24.90625 74.21875 42 74.21875 
Q 49.125 74.21875 55.546875 72.453125 
Q 61.96875 70.703125 67.390625 67.28125 
L 67.390625 56.78125 
Q 61.921875 61.421875 55.765625 63.765625 
Q 49.609375 66.109375 42.828125 66.109375 
Q 29.4375 66.109375 22.71875 58.640625 
Q 16.015625 51.171875 16.015625 36.375 
Q 16.015625 21.625 22.71875 14.15625 
Q 29.4375 6.6875 42.828125 6.6875 
Q 48.046875 6.6875 52.140625 7.59375 
Q 56.25 8.5 59.515625 10.40625 
z
" id="DejaVuSans-71"/>
     <path d="M 56.203125 29.59375 
L 56.203125 25.203125 
L 14.890625 25.203125 
Q 15.484375 15.921875 20.484375 11.0625 
Q 25.484375 6.203125 34.421875 6.203125 
Q 39.59375 6.203125 44.453125 7.46875 
Q 49.3125 8.734375 54.109375 11.28125 
L 54.109375 2.78125 
Q 49.265625 0.734375 44.1875 -0.34375 
Q 39.109375 -1.421875 33.890625 -1.421875 
Q 20.796875 -1.421875 13.15625 6.1875 
Q 5.515625 13.8125 5.515625 26.8125 
Q 5.515625 40.234375 12.765625 48.109375 
Q 20.015625 56 32.328125 56 
Q 43.359375 56 49.78125 48.890625 
Q 56.203125 41.796875 56.203125 29.59375 
z
M 47.21875 32.234375 
Q 47.125 39.59375 43.09375 43.984375 
Q 39.0625 48.390625 32.421875 48.390625 
Q 24.90625 48.390625 20.390625 44.140625 
Q 15.875 39.890625 15.1875 32.171875 
z
M 28.171875 79.984375 
L 35.40625 79.984375 
L 47.359375 61.625 
L 40.578125 61.625 
L 31.78125 73.578125 
L 23 61.625 
L 16.21875 61.625 
z
" id="DejaVuSans-234"/>
     <path d="M 54.890625 33.015625 
L 54.890625 0 
L 45.90625 0 
L 45.90625 32.71875 
Q 45.90625 40.484375 42.875 44.328125 
Q 39.84375 48.1875 33.796875 48.1875 
Q 26.515625 48.1875 22.3125 43.546875 
Q 18.109375 38.921875 18.109375 30.90625 
L 18.109375 0 
L 9.078125 0 
L 9.078125 54.6875 
L 18.109375 54.6875 
L 18.109375 46.1875 
Q 21.34375 51.125 25.703125 53.5625 
Q 30.078125 56 35.796875 56 
Q 45.21875 56 50.046875 50.171875 
Q 54.890625 44.34375 54.890625 33.015625 
z
" id="DejaVuSans-110"/>
     <path d="M 52 44.1875 
Q 55.375 50.25 60.0625 53.125 
Q 64.75 56 71.09375 56 
Q 79.640625 56 84.28125 50.015625 
Q 88.921875 44.046875 88.921875 33.015625 
L 88.921875 0 
L 79.890625 0 
L 79.890625 32.71875 
Q 79.890625 40.578125 77.09375 44.375 
Q 74.3125 48.1875 68.609375 48.1875 
Q 61.625 48.1875 57.5625 43.546875 
Q 53.515625 38.921875 53.515625 30.90625 
L 53.515625 0 
L 44.484375 0 
L 44.484375 32.71875 
Q 44.484375 40.625 41.703125 44.40625 
Q 38.921875 48.1875 33.109375 48.1875 
Q 26.21875 48.1875 22.15625 43.53125 
Q 18.109375 38.875 18.109375 30.90625 
L 18.109375 0 
L 9.078125 0 
L 9.078125 54.6875 
L 18.109375 54.6875 
L 18.109375 46.1875 
Q 21.1875 51.21875 25.484375 53.609375 
Q 29.78125 56 35.6875 56 
Q 41.65625 56 45.828125 52.96875 
Q 50 49.953125 52 44.1875 
z
" id="DejaVuSans-109"/>
    </defs>
    <g transform="translate(117.667422 24.156094)scale(0.15 -0.15)">
     <use xlink:href="#DejaVuSans-80"/>
     <use x="60.287109" xlink:href="#DejaVuSans-114"/>
     <use x="101.369141" xlink:href="#DejaVuSans-111"/>
     <use x="162.550781" xlink:href="#DejaVuSans-112"/>
     <use x="226.027344" xlink:href="#DejaVuSans-111"/>
     <use x="287.208984" xlink:href="#DejaVuSans-114"/>
     <use x="328.291016" xlink:href="#DejaVuSans-231"/>
     <use x="383.271484" xlink:href="#DejaVuSans-227"/>
     <use x="444.550781" xlink:href="#DejaVuSans-111"/>
     <use x="505.732422" xlink:href="#DejaVuSans-32"/>
     <use x="537.519531" xlink:href="#DejaVuSans-100"/>
     <use x="600.996094" xlink:href="#DejaVuSans-101"/>
     <use x="662.519531" xlink:href="#DejaVuSans-32"/>
     <use x="694.306641" xlink:href="#DejaVuSans-71"/>
     <use x="771.796875" xlink:href="#DejaVuSans-234"/>
     <use x="833.320312" xlink:href="#DejaVuSans-110"/>
     <use x="896.699219" xlink:href="#DejaVuSans-101"/>
     <use x="958.222656" xlink:href="#DejaVuSans-114"/>
     <use x="999.304688" xlink:href="#DejaVuSans-111"/>
     <use x="1060.486328" xlink:href="#DejaVuSans-32"/>
     <use x="1092.273438" xlink:href="#DejaVuSans-101"/>
     <use x="1153.796875" xlink:href="#DejaVuSans-109"/>
    </g>
    <!-- Candidatos à Eleição de 2018 -->
    <defs>
     <path d="M 34.28125 27.484375 
Q 23.390625 27.484375 19.1875 25 
Q 14.984375 22.515625 14.984375 16.5 
Q 14.984375 11.71875 18.140625 8.90625 
Q 21.296875 6.109375 26.703125 6.109375 
Q 34.1875 6.109375 38.703125 11.40625 
Q 43.21875 16.703125 43.21875 25.484375 
L 43.21875 27.484375 
z
M 52.203125 31.203125 
L 52.203125 0 
L 43.21875 0 
L 43.21875 8.296875 
Q 40.140625 3.328125 35.546875 0.953125 
Q 30.953125 -1.421875 24.3125 -1.421875 
Q 15.921875 -1.421875 10.953125 3.296875 
Q 6 8.015625 6 15.921875 
Q 6 25.140625 12.171875 29.828125 
Q 18.359375 34.515625 30.609375 34.515625 
L 43.21875 34.515625 
L 43.21875 35.40625 
Q 43.21875 41.609375 39.140625 45 
Q 35.0625 48.390625 27.6875 48.390625 
Q 23 48.390625 18.546875 47.265625 
Q 14.109375 46.140625 10.015625 43.890625 
L 10.015625 52.203125 
Q 14.9375 54.109375 19.578125 55.046875 
Q 24.21875 56 28.609375 56 
Q 40.484375 56 46.34375 49.84375 
Q 52.203125 43.703125 52.203125 31.203125 
z
M 21.921875 79.984375 
L 35.6875 61.71875 
L 28.21875 61.71875 
L 12.3125 79.984375 
z
" id="DejaVuSans-224"/>
     <path d="M 9.421875 75.984375 
L 18.40625 75.984375 
L 18.40625 0 
L 9.421875 0 
z
" id="DejaVuSans-108"/>
    </defs>
    <g transform="translate(99.860781 41.4)scale(0.15 -0.15)">
     <use xlink:href="#DejaVuSans-67"/>
     <use x="69.824219" xlink:href="#DejaVuSans-97"/>
     <use x="131.103516" xlink:href="#DejaVuSans-110"/>
     <use x="194.482422" xlink:href="#DejaVuSans-100"/>
     <use x="257.958984" xlink:href="#DejaVuSans-105"/>
     <use x="285.742188" xlink:href="#DejaVuSans-100"/>
     <use x="349.21875" xlink:href="#DejaVuSans-97"/>
     <use x="410.498047" xlink:href="#DejaVuSans-116"/>
     <use x="449.707031" xlink:href="#DejaVuSans-111"/>
     <use x="510.888672" xlink:href="#DejaVuSans-115"/>
     <use x="562.988281" xlink:href="#DejaVuSans-32"/>
     <use x="594.775391" xlink:href="#DejaVuSans-224"/>
     <use x="656.054688" xlink:href="#DejaVuSans-32"/>
     <use x="687.841797" xlink:href="#DejaVuSans-69"/>
     <use x="751.025391" xlink:href="#DejaVuSans-108"/>
     <use x="778.808594" xlink:href="#DejaVuSans-101"/>
     <use x="840.332031" xlink:href="#DejaVuSans-105"/>
     <use x="868.115234" xlink:href="#DejaVuSans-231"/>
     <use x="923.095703" xlink:href="#DejaVuSans-227"/>
     <use x="984.375" xlink:href="#DejaVuSans-111"/>
     <use x="1045.556641" xlink:href="#DejaVuSans-32"/>
     <use x="1077.34375" xlink:href="#DejaVuSans-100"/>
     <use x="1140.820312" xlink:href="#DejaVuSans-101"/>
     <use x="1202.34375" xlink:href="#DejaVuSans-32"/>
     <use x="1234.130859" xlink:href="#DejaVuSans-50"/>
     <use x="1297.753906" xlink:href="#DejaVuSans-48"/>
     <use x="1361.376953" xlink:href="#DejaVuSans-49"/>
     <use x="1425" xlink:href="#DejaVuSans-56"/>
    </g>
   </g>
   <g id="legend_1">
    <g id="patch_73">
     <path d="M 210.976562 136.908125 
L 342.2 136.908125 
Q 344.2 136.908125 344.2 134.908125 
L 344.2 54.4 
Q 344.2 52.4 342.2 52.4 
L 210.976562 52.4 
Q 208.976562 52.4 208.976562 54.4 
L 208.976562 134.908125 
Q 208.976562 136.908125 210.976562 136.908125 
z
" style="fill:#ffffff;opacity:0.8;stroke:#cccccc;stroke-linejoin:miter;"/>
    </g>
    <g id="line2d_49">
     <path d="M 212.976562 67.137187 
L 232.976562 67.137187 
" style="fill:none;stroke:#000000;stroke-dasharray:14.8,6.4;stroke-dashoffset:0;stroke-width:4;"/>
    </g>
    <g id="line2d_50"/>
    <g id="text_50">
     <!-- Equidade de -->
     <defs>
      <path d="M 14.796875 27.296875 
Q 14.796875 17.390625 18.875 11.75 
Q 22.953125 6.109375 30.078125 6.109375 
Q 37.203125 6.109375 41.296875 11.75 
Q 45.40625 17.390625 45.40625 27.296875 
Q 45.40625 37.203125 41.296875 42.84375 
Q 37.203125 48.484375 30.078125 48.484375 
Q 22.953125 48.484375 18.875 42.84375 
Q 14.796875 37.203125 14.796875 27.296875 
z
M 45.40625 8.203125 
Q 42.578125 3.328125 38.25 0.953125 
Q 33.9375 -1.421875 27.875 -1.421875 
Q 17.96875 -1.421875 11.734375 6.484375 
Q 5.515625 14.40625 5.515625 27.296875 
Q 5.515625 40.1875 11.734375 48.09375 
Q 17.96875 56 27.875 56 
Q 33.9375 56 38.25 53.625 
Q 42.578125 51.265625 45.40625 46.390625 
L 45.40625 54.6875 
L 54.390625 54.6875 
L 54.390625 -20.796875 
L 45.40625 -20.796875 
z
" id="DejaVuSans-113"/>
      <path d="M 8.5 21.578125 
L 8.5 54.6875 
L 17.484375 54.6875 
L 17.484375 21.921875 
Q 17.484375 14.15625 20.5 10.265625 
Q 23.53125 6.390625 29.59375 6.390625 
Q 36.859375 6.390625 41.078125 11.03125 
Q 45.3125 15.671875 45.3125 23.6875 
L 45.3125 54.6875 
L 54.296875 54.6875 
L 54.296875 0 
L 45.3125 0 
L 45.3125 8.40625 
Q 42.046875 3.421875 37.71875 1 
Q 33.40625 -1.421875 27.6875 -1.421875 
Q 18.265625 -1.421875 13.375 4.4375 
Q 8.5 10.296875 8.5 21.578125 
z
M 31.109375 56 
z
" id="DejaVuSans-117"/>
     </defs>
     <g transform="translate(240.976562 63.998437)scale(0.1 -0.1)">
      <use xlink:href="#DejaVuSans-69"/>
      <use x="63.183594" xlink:href="#DejaVuSans-113"/>
      <use x="126.660156" xlink:href="#DejaVuSans-117"/>
      <use x="190.039062" xlink:href="#DejaVuSans-105"/>
      <use x="217.822266" xlink:href="#DejaVuSans-100"/>
      <use x="281.298828" xlink:href="#DejaVuSans-97"/>
      <use x="342.578125" xlink:href="#DejaVuSans-100"/>
      <use x="406.054688" xlink:href="#DejaVuSans-101"/>
      <use x="467.578125" xlink:href="#DejaVuSans-32"/>
      <use x="499.365234" xlink:href="#DejaVuSans-100"/>
      <use x="562.841797" xlink:href="#DejaVuSans-101"/>
     </g>
     <!-- mulheres e homens -->
     <defs>
      <path d="M 54.890625 33.015625 
L 54.890625 0 
L 45.90625 0 
L 45.90625 32.71875 
Q 45.90625 40.484375 42.875 44.328125 
Q 39.84375 48.1875 33.796875 48.1875 
Q 26.515625 48.1875 22.3125 43.546875 
Q 18.109375 38.921875 18.109375 30.90625 
L 18.109375 0 
L 9.078125 0 
L 9.078125 75.984375 
L 18.109375 75.984375 
L 18.109375 46.1875 
Q 21.34375 51.125 25.703125 53.5625 
Q 30.078125 56 35.796875 56 
Q 45.21875 56 50.046875 50.171875 
Q 54.890625 44.34375 54.890625 33.015625 
z
" id="DejaVuSans-104"/>
     </defs>
     <g transform="translate(240.976562 75.19625)scale(0.1 -0.1)">
      <use xlink:href="#DejaVuSans-109"/>
      <use x="97.412109" xlink:href="#DejaVuSans-117"/>
      <use x="160.791016" xlink:href="#DejaVuSans-108"/>
      <use x="188.574219" xlink:href="#DejaVuSans-104"/>
      <use x="251.953125" xlink:href="#DejaVuSans-101"/>
      <use x="313.476562" xlink:href="#DejaVuSans-114"/>
      <use x="354.558594" xlink:href="#DejaVuSans-101"/>
      <use x="416.082031" xlink:href="#DejaVuSans-115"/>
      <use x="468.181641" xlink:href="#DejaVuSans-32"/>
      <use x="499.96875" xlink:href="#DejaVuSans-101"/>
      <use x="561.492188" xlink:href="#DejaVuSans-32"/>
      <use x="593.279297" xlink:href="#DejaVuSans-104"/>
      <use x="656.658203" xlink:href="#DejaVuSans-111"/>
      <use x="717.839844" xlink:href="#DejaVuSans-109"/>
      <use x="815.251953" xlink:href="#DejaVuSans-101"/>
      <use x="876.775391" xlink:href="#DejaVuSans-110"/>
      <use x="940.154297" xlink:href="#DejaVuSans-115"/>
     </g>
    </g>
    <g id="line2d_51">
     <path d="M 212.976562 93.213125 
L 232.976562 93.213125 
" style="fill:none;stroke:#008000;stroke-linecap:square;stroke-width:2;"/>
    </g>
    <g id="line2d_52"/>
    <g id="text_51">
     <!-- Proporção Média -->
     <defs>
      <path d="M 56.203125 29.59375 
L 56.203125 25.203125 
L 14.890625 25.203125 
Q 15.484375 15.921875 20.484375 11.0625 
Q 25.484375 6.203125 34.421875 6.203125 
Q 39.59375 6.203125 44.453125 7.46875 
Q 49.3125 8.734375 54.109375 11.28125 
L 54.109375 2.78125 
Q 49.265625 0.734375 44.1875 -0.34375 
Q 39.109375 -1.421875 33.890625 -1.421875 
Q 20.796875 -1.421875 13.15625 6.1875 
Q 5.515625 13.8125 5.515625 26.8125 
Q 5.515625 40.234375 12.765625 48.109375 
Q 20.015625 56 32.328125 56 
Q 43.359375 56 49.78125 48.890625 
Q 56.203125 41.796875 56.203125 29.59375 
z
M 47.21875 32.234375 
Q 47.125 39.59375 43.09375 43.984375 
Q 39.0625 48.390625 32.421875 48.390625 
Q 24.90625 48.390625 20.390625 44.140625 
Q 15.875 39.890625 15.1875 32.171875 
z
M 38.578125 79.984375 
L 48.296875 79.984375 
L 32.375 61.625 
L 24.90625 61.625 
z
" id="DejaVuSans-233"/>
     </defs>
     <g transform="translate(240.976562 90.274375)scale(0.1 -0.1)">
      <use xlink:href="#DejaVuSans-80"/>
      <use x="60.287109" xlink:href="#DejaVuSans-114"/>
      <use x="101.369141" xlink:href="#DejaVuSans-111"/>
      <use x="162.550781" xlink:href="#DejaVuSans-112"/>
      <use x="226.027344" xlink:href="#DejaVuSans-111"/>
      <use x="287.208984" xlink:href="#DejaVuSans-114"/>
      <use x="328.291016" xlink:href="#DejaVuSans-231"/>
      <use x="383.271484" xlink:href="#DejaVuSans-227"/>
      <use x="444.550781" xlink:href="#DejaVuSans-111"/>
      <use x="505.732422" xlink:href="#DejaVuSans-32"/>
      <use x="537.519531" xlink:href="#DejaVuSans-77"/>
      <use x="623.798828" xlink:href="#DejaVuSans-233"/>
      <use x="685.322266" xlink:href="#DejaVuSans-100"/>
      <use x="748.798828" xlink:href="#DejaVuSans-105"/>
      <use x="776.582031" xlink:href="#DejaVuSans-97"/>
     </g>
     <!-- de Mulheres -->
     <g transform="translate(240.976562 101.472188)scale(0.1 -0.1)">
      <use xlink:href="#DejaVuSans-100"/>
      <use x="63.476562" xlink:href="#DejaVuSans-101"/>
      <use x="125" xlink:href="#DejaVuSans-32"/>
      <use x="156.787109" xlink:href="#DejaVuSans-77"/>
      <use x="243.066406" xlink:href="#DejaVuSans-117"/>
      <use x="306.445312" xlink:href="#DejaVuSans-108"/>
      <use x="334.228516" xlink:href="#DejaVuSans-104"/>
      <use x="397.607422" xlink:href="#DejaVuSans-101"/>
      <use x="459.130859" xlink:href="#DejaVuSans-114"/>
      <use x="500.212891" xlink:href="#DejaVuSans-101"/>
      <use x="561.736328" xlink:href="#DejaVuSans-115"/>
     </g>
    </g>
    <g id="patch_74">
     <path d="M 212.976562 116.150312 
L 232.976562 116.150312 
L 232.976562 109.150312 
L 212.976562 109.150312 
z
" style="fill:#ff0000;opacity:0.7;"/>
    </g>
    <g id="text_52">
     <!-- Mulheres -->
     <g transform="translate(240.976562 116.150312)scale(0.1 -0.1)">
      <use xlink:href="#DejaVuSans-77"/>
      <use x="86.279297" xlink:href="#DejaVuSans-117"/>
      <use x="149.658203" xlink:href="#DejaVuSans-108"/>
      <use x="177.441406" xlink:href="#DejaVuSans-104"/>
      <use x="240.820312" xlink:href="#DejaVuSans-101"/>
      <use x="302.34375" xlink:href="#DejaVuSans-114"/>
      <use x="343.425781" xlink:href="#DejaVuSans-101"/>
      <use x="404.949219" xlink:href="#DejaVuSans-115"/>
     </g>
    </g>
    <g id="patch_75">
     <path d="M 212.976562 130.828437 
L 232.976562 130.828437 
L 232.976562 123.828437 
L 212.976562 123.828437 
z
" style="fill:#0000ff;opacity:0.7;"/>
    </g>
    <g id="text_53">
     <!-- Homens -->
     <g transform="translate(240.976562 130.828437)scale(0.1 -0.1)">
      <use xlink:href="#DejaVuSans-72"/>
      <use x="75.195312" xlink:href="#DejaVuSans-111"/>
      <use x="136.376953" xlink:href="#DejaVuSans-109"/>
      <use x="233.789062" xlink:href="#DejaVuSans-101"/>
      <use x="295.3125" xlink:href="#DejaVuSans-110"/>
      <use x="358.691406" xlink:href="#DejaVuSans-115"/>
     </g>
    </g>
   </g>
  </g>
 </g>
 <defs>
  <clipPath id="p090e3b9bce">
   <rect height="558.64" width="275.38" x="73.82" y="47.4"/>
  </clipPath>
 </defs>
</svg>
