<?xml version="1.0" encoding="utf-8" standalone="no"?>
<!DOCTYPE svg PUBLIC "-//W3C//DTD SVG 1.1//EN"
  "http://www.w3.org/Graphics/SVG/1.1/DTD/svg11.dtd">
<!-- Created with matplotlib (https://matplotlib.org/) -->
<svg height="1080pt" version="1.1" viewBox="0 0 720 1080" width="720pt" xmlns="http://www.w3.org/2000/svg" xmlns:xlink="http://www.w3.org/1999/xlink">
 <defs>
  <style type="text/css">
*{stroke-linecap:butt;stroke-linejoin:round;}
  </style>
 </defs>
 <g id="figure_1">
  <g id="patch_1">
   <path d="M 0 1080 
L 720 1080 
L 720 0 
L 0 0 
z
" style="fill:#ffffff;"/>
  </g>
  <g id="axes_1">
   <g id="patch_2">
    <path d="M 73.73 1038.04 
L 701.28 1038.04 
L 701.28 26.88 
L 73.73 26.88 
z
" style="fill:#ffffff;"/>
   </g>
   <g id="PathCollection_1">
    <path clip-path="url(#p221f07f255)" d="M 218.60155 998.983789 
C 220.476819 998.983789 222.275534 998.238737 223.60155 996.912721 
C 224.927565 995.586706 225.672618 993.78799 225.672618 991.912721 
C 225.672618 990.037452 224.927565 988.238737 223.60155 986.912721 
C 222.275534 985.586706 220.476819 984.841653 218.60155 984.841653 
C 216.726281 984.841653 214.927565 985.586706 213.60155 986.912721 
C 212.275534 988.238737 211.530482 990.037452 211.530482 991.912721 
C 211.530482 993.78799 212.275534 995.586706 213.60155 996.912721 
C 214.927565 998.238737 216.726281 998.983789 218.60155 998.983789 
z
" style="fill:#ff0000;fill-opacity:0.7;stroke:#ff0000;stroke-opacity:0.7;"/>
    <path clip-path="url(#p221f07f255)" d="M 218.620221 971.957158 
C 220.49549 971.957158 222.294205 971.212106 223.620221 969.88609 
C 224.946236 968.560075 225.691288 966.76136 225.691288 964.88609 
C 225.691288 963.010821 224.946236 961.212106 223.620221 959.88609 
C 222.294205 958.560075 220.49549 957.815023 218.620221 957.815023 
C 216.744951 957.815023 214.946236 958.560075 213.620221 959.88609 
C 212.294205 961.212106 211.549153 963.010821 211.549153 964.88609 
C 211.549153 966.76136 212.294205 968.560075 213.620221 969.88609 
C 214.946236 971.212106 216.744951 971.957158 218.620221 971.957158 
z
" style="fill:#ff0000;fill-opacity:0.7;stroke:#ff0000;stroke-opacity:0.7;"/>
    <path clip-path="url(#p221f07f255)" d="M 219.352301 944.930528 
C 221.22757 944.930528 223.026285 944.185475 224.352301 942.85946 
C 225.678316 941.533444 226.423369 939.734729 226.423369 937.85946 
C 226.423369 935.984191 225.678316 934.185475 224.352301 932.85946 
C 223.026285 931.533444 221.22757 930.788392 219.352301 930.788392 
C 217.477032 930.788392 215.678316 931.533444 214.352301 932.85946 
C 213.026285 934.185475 212.281233 935.984191 212.281233 937.85946 
C 212.281233 939.734729 213.026285 941.533444 214.352301 942.85946 
C 215.678316 944.185475 217.477032 944.930528 219.352301 944.930528 
z
" style="fill:#ff0000;fill-opacity:0.7;stroke:#ff0000;stroke-opacity:0.7;"/>
    <path clip-path="url(#p221f07f255)" d="M 219.756058 917.903897 
C 221.631327 917.903897 223.430042 917.158845 224.756058 915.832829 
C 226.082073 914.506814 226.827126 912.708098 226.827126 910.832829 
C 226.827126 908.95756 226.082073 907.158845 224.756058 905.832829 
C 223.430042 904.506814 221.631327 903.761761 219.756058 903.761761 
C 217.880789 903.761761 216.082073 904.506814 214.756058 905.832829 
C 213.430042 907.158845 212.68499 908.95756 212.68499 910.832829 
C 212.68499 912.708098 213.430042 914.506814 214.756058 915.832829 
C 216.082073 917.158845 217.880789 917.903897 219.756058 917.903897 
z
" style="fill:#ff0000;fill-opacity:0.7;stroke:#ff0000;stroke-opacity:0.7;"/>
    <path clip-path="url(#p221f07f255)" d="M 220.353832 890.877266 
C 222.229101 890.877266 224.027816 890.132214 225.353832 888.806198 
C 226.679847 887.480183 227.4249 885.681468 227.4249 883.806198 
C 227.4249 881.930929 226.679847 880.132214 225.353832 878.806198 
C 224.027816 877.480183 222.229101 876.735131 220.353832 876.735131 
C 218.478563 876.735131 216.679847 877.480183 215.353832 878.806198 
C 214.027816 880.132214 213.282764 881.930929 213.282764 883.806198 
C 213.282764 885.681468 214.027816 887.480183 215.353832 888.806198 
C 216.679847 890.132214 218.478563 890.877266 220.353832 890.877266 
z
" style="fill:#ff0000;fill-opacity:0.7;stroke:#ff0000;stroke-opacity:0.7;"/>
    <path clip-path="url(#p221f07f255)" d="M 222.589348 863.850636 
C 224.464617 863.850636 226.263333 863.105583 227.589348 861.779568 
C 228.915364 860.453552 229.660416 858.654837 229.660416 856.779568 
C 229.660416 854.904299 228.915364 853.105583 227.589348 851.779568 
C 226.263333 850.453552 224.464617 849.7085 222.589348 849.7085 
C 220.714079 849.7085 218.915364 850.453552 217.589348 851.779568 
C 216.263333 853.105583 215.51828 854.904299 215.51828 856.779568 
C 215.51828 858.654837 216.263333 860.453552 217.589348 861.779568 
C 218.915364 863.105583 220.714079 863.850636 222.589348 863.850636 
z
" style="fill:#ff0000;fill-opacity:0.7;stroke:#ff0000;stroke-opacity:0.7;"/>
    <path clip-path="url(#p221f07f255)" d="M 227.667582 836.824005 
C 229.542851 836.824005 231.341566 836.078953 232.667582 834.752937 
C 233.993597 833.426922 234.738649 831.628206 234.738649 829.752937 
C 234.738649 827.877668 233.993597 826.078953 232.667582 824.752937 
C 231.341566 823.426922 229.542851 822.681869 227.667582 822.681869 
C 225.792312 822.681869 223.993597 823.426922 222.667582 824.752937 
C 221.341566 826.078953 220.596514 827.877668 220.596514 829.752937 
C 220.596514 831.628206 221.341566 833.426922 222.667582 834.752937 
C 223.993597 836.078953 225.792312 836.824005 227.667582 836.824005 
z
" style="fill:#ff0000;fill-opacity:0.7;stroke:#ff0000;stroke-opacity:0.7;"/>
    <path clip-path="url(#p221f07f255)" d="M 227.712176 809.797374 
C 229.587445 809.797374 231.38616 809.052322 232.712176 807.726307 
C 234.038191 806.400291 234.783244 804.601576 234.783244 802.726307 
C 234.783244 800.851037 234.038191 799.052322 232.712176 797.726307 
C 231.38616 796.400291 229.587445 795.655239 227.712176 795.655239 
C 225.836907 795.655239 224.038191 796.400291 222.712176 797.726307 
C 221.38616 799.052322 220.641108 800.851037 220.641108 802.726307 
C 220.641108 804.601576 221.38616 806.400291 222.712176 807.726307 
C 224.038191 809.052322 225.836907 809.797374 227.712176 809.797374 
z
" style="fill:#ff0000;fill-opacity:0.7;stroke:#ff0000;stroke-opacity:0.7;"/>
    <path clip-path="url(#p221f07f255)" d="M 228.79142 782.770744 
C 230.666689 782.770744 232.465404 782.025691 233.79142 780.699676 
C 235.117435 779.37366 235.862487 777.574945 235.862487 775.699676 
C 235.862487 773.824407 235.117435 772.025691 233.79142 770.699676 
C 232.465404 769.37366 230.666689 768.628608 228.79142 768.628608 
C 226.916151 768.628608 225.117435 769.37366 223.79142 770.699676 
C 222.465404 772.025691 221.720352 773.824407 221.720352 775.699676 
C 221.720352 777.574945 222.465404 779.37366 223.79142 780.699676 
C 225.117435 782.025691 226.916151 782.770744 228.79142 782.770744 
z
" style="fill:#ff0000;fill-opacity:0.7;stroke:#ff0000;stroke-opacity:0.7;"/>
    <path clip-path="url(#p221f07f255)" d="M 229.124913 755.744113 
C 231.000182 755.744113 232.798897 754.999061 234.124913 753.673045 
C 235.450928 752.34703 236.195981 750.548314 236.195981 748.673045 
C 236.195981 746.797776 235.450928 744.999061 234.124913 743.673045 
C 232.798897 742.34703 231.000182 741.601977 229.124913 741.601977 
C 227.249644 741.601977 225.450928 742.34703 224.124913 743.673045 
C 222.798897 744.999061 222.053845 746.797776 222.053845 748.673045 
C 222.053845 750.548314 222.798897 752.34703 224.124913 753.673045 
C 225.450928 754.999061 227.249644 755.744113 229.124913 755.744113 
z
" style="fill:#ff0000;fill-opacity:0.7;stroke:#ff0000;stroke-opacity:0.7;"/>
    <path clip-path="url(#p221f07f255)" d="M 229.44019 728.717482 
C 231.315459 728.717482 233.114174 727.97243 234.44019 726.646415 
C 235.766205 725.320399 236.511258 723.521684 236.511258 721.646415 
C 236.511258 719.771145 235.766205 717.97243 234.44019 716.646415 
C 233.114174 715.320399 231.315459 714.575347 229.44019 714.575347 
C 227.564921 714.575347 225.766205 715.320399 224.44019 716.646415 
C 223.114174 717.97243 222.369122 719.771145 222.369122 721.646415 
C 222.369122 723.521684 223.114174 725.320399 224.44019 726.646415 
C 225.766205 727.97243 227.564921 728.717482 229.44019 728.717482 
z
" style="fill:#ff0000;fill-opacity:0.7;stroke:#ff0000;stroke-opacity:0.7;"/>
    <path clip-path="url(#p221f07f255)" d="M 231.033175 701.690852 
C 232.908444 701.690852 234.707159 700.945799 236.033175 699.619784 
C 237.35919 698.293768 238.104242 696.495053 238.104242 694.619784 
C 238.104242 692.744515 237.35919 690.945799 236.033175 689.619784 
C 234.707159 688.293768 232.908444 687.548716 231.033175 687.548716 
C 229.157906 687.548716 227.35919 688.293768 226.033175 689.619784 
C 224.707159 690.945799 223.962107 692.744515 223.962107 694.619784 
C 223.962107 696.495053 224.707159 698.293768 226.033175 699.619784 
C 227.35919 700.945799 229.157906 701.690852 231.033175 701.690852 
z
" style="fill:#ff0000;fill-opacity:0.7;stroke:#ff0000;stroke-opacity:0.7;"/>
    <path clip-path="url(#p221f07f255)" d="M 231.193966 674.664221 
C 233.069235 674.664221 234.867951 673.919169 236.193966 672.593153 
C 237.519982 671.267138 238.265034 669.468422 238.265034 667.593153 
C 238.265034 665.717884 237.519982 663.919169 236.193966 662.593153 
C 234.867951 661.267138 233.069235 660.522085 231.193966 660.522085 
C 229.318697 660.522085 227.519982 661.267138 226.193966 662.593153 
C 224.867951 663.919169 224.122898 665.717884 224.122898 667.593153 
C 224.122898 669.468422 224.867951 671.267138 226.193966 672.593153 
C 227.519982 673.919169 229.318697 674.664221 231.193966 674.664221 
z
" style="fill:#ff0000;fill-opacity:0.7;stroke:#ff0000;stroke-opacity:0.7;"/>
    <path clip-path="url(#p221f07f255)" d="M 231.196421 647.63759 
C 233.07169 647.63759 234.870405 646.892538 236.196421 645.566523 
C 237.522436 644.240507 238.267488 642.441792 238.267488 640.566523 
C 238.267488 638.691254 237.522436 636.892538 236.196421 635.566523 
C 234.870405 634.240507 233.07169 633.495455 231.196421 633.495455 
C 229.321152 633.495455 227.522436 634.240507 226.196421 635.566523 
C 224.870405 636.892538 224.125353 638.691254 224.125353 640.566523 
C 224.125353 642.441792 224.870405 644.240507 226.196421 645.566523 
C 227.522436 646.892538 229.321152 647.63759 231.196421 647.63759 
z
" style="fill:#ff0000;fill-opacity:0.7;stroke:#ff0000;stroke-opacity:0.7;"/>
    <path clip-path="url(#p221f07f255)" d="M 231.49889 620.61096 
C 233.37416 620.61096 235.172875 619.865907 236.49889 618.539892 
C 237.824906 617.213876 238.569958 615.415161 238.569958 613.539892 
C 238.569958 611.664623 237.824906 609.865907 236.49889 608.539892 
C 235.172875 607.213876 233.37416 606.468824 231.49889 606.468824 
C 229.623621 606.468824 227.824906 607.213876 226.49889 608.539892 
C 225.172875 609.865907 224.427823 611.664623 224.427823 613.539892 
C 224.427823 615.415161 225.172875 617.213876 226.49889 618.539892 
C 227.824906 619.865907 229.623621 620.61096 231.49889 620.61096 
z
" style="fill:#ff0000;fill-opacity:0.7;stroke:#ff0000;stroke-opacity:0.7;"/>
    <path clip-path="url(#p221f07f255)" d="M 232.836375 593.584329 
C 234.711644 593.584329 236.510359 592.839277 237.836375 591.513261 
C 239.16239 590.187246 239.907443 588.38853 239.907443 586.513261 
C 239.907443 584.637992 239.16239 582.839277 237.836375 581.513261 
C 236.510359 580.187246 234.711644 579.442193 232.836375 579.442193 
C 230.961106 579.442193 229.16239 580.187246 227.836375 581.513261 
C 226.510359 582.839277 225.765307 584.637992 225.765307 586.513261 
C 225.765307 588.38853 226.510359 590.187246 227.836375 591.513261 
C 229.16239 592.839277 230.961106 593.584329 232.836375 593.584329 
z
" style="fill:#ff0000;fill-opacity:0.7;stroke:#ff0000;stroke-opacity:0.7;"/>
    <path clip-path="url(#p221f07f255)" d="M 232.847668 566.557698 
C 234.722938 566.557698 236.521653 565.812646 237.847668 564.486631 
C 239.173684 563.160615 239.918736 561.3619 239.918736 559.486631 
C 239.918736 557.611362 239.173684 555.812646 237.847668 554.486631 
C 236.521653 553.160615 234.722938 552.415563 232.847668 552.415563 
C 230.972399 552.415563 229.173684 553.160615 227.847668 554.486631 
C 226.521653 555.812646 225.776601 557.611362 225.776601 559.486631 
C 225.776601 561.3619 226.521653 563.160615 227.847668 564.486631 
C 229.173684 565.812646 230.972399 566.557698 232.847668 566.557698 
z
" style="fill:#ff0000;fill-opacity:0.7;stroke:#ff0000;stroke-opacity:0.7;"/>
    <path clip-path="url(#p221f07f255)" d="M 233.035287 539.531068 
C 234.910556 539.531068 236.709271 538.786015 238.035287 537.46 
C 239.361302 536.133984 240.106355 534.335269 240.106355 532.46 
C 240.106355 530.584731 239.361302 528.786015 238.035287 527.46 
C 236.709271 526.133984 234.910556 525.388932 233.035287 525.388932 
C 231.160018 525.388932 229.361302 526.133984 228.035287 527.46 
C 226.709271 528.786015 225.964219 530.584731 225.964219 532.46 
C 225.964219 534.335269 226.709271 536.133984 228.035287 537.46 
C 229.361302 538.786015 231.160018 539.531068 233.035287 539.531068 
z
" style="fill:#ff0000;fill-opacity:0.7;stroke:#ff0000;stroke-opacity:0.7;"/>
    <path clip-path="url(#p221f07f255)" d="M 233.1444 512.504437 
C 235.019669 512.504437 236.818384 511.759385 238.1444 510.433369 
C 239.470415 509.107354 240.215467 507.308638 240.215467 505.433369 
C 240.215467 503.5581 239.470415 501.759385 238.1444 500.433369 
C 236.818384 499.107354 235.019669 498.362302 233.1444 498.362302 
C 231.26913 498.362302 229.470415 499.107354 228.1444 500.433369 
C 226.818384 501.759385 226.073332 503.5581 226.073332 505.433369 
C 226.073332 507.308638 226.818384 509.107354 228.1444 510.433369 
C 229.470415 511.759385 231.26913 512.504437 233.1444 512.504437 
z
" style="fill:#ff0000;fill-opacity:0.7;stroke:#ff0000;stroke-opacity:0.7;"/>
    <path clip-path="url(#p221f07f255)" d="M 234.528185 485.477807 
C 236.403455 485.477807 238.20217 484.732754 239.528185 483.406739 
C 240.854201 482.080723 241.599253 480.282008 241.599253 478.406739 
C 241.599253 476.53147 240.854201 474.732754 239.528185 473.406739 
C 238.20217 472.080723 236.403455 471.335671 234.528185 471.335671 
C 232.652916 471.335671 230.854201 472.080723 229.528185 473.406739 
C 228.20217 474.732754 227.457118 476.53147 227.457118 478.406739 
C 227.457118 480.282008 228.20217 482.080723 229.528185 483.406739 
C 230.854201 484.732754 232.652916 485.477807 234.528185 485.477807 
z
" style="fill:#ff0000;fill-opacity:0.7;stroke:#ff0000;stroke-opacity:0.7;"/>
    <path clip-path="url(#p221f07f255)" d="M 235.889136 458.451176 
C 237.764405 458.451176 239.563121 457.706124 240.889136 456.380108 
C 242.215152 455.054093 242.960204 453.255377 242.960204 451.380108 
C 242.960204 449.504839 242.215152 447.706124 240.889136 446.380108 
C 239.563121 445.054093 237.764405 444.30904 235.889136 444.30904 
C 234.013867 444.30904 232.215152 445.054093 230.889136 446.380108 
C 229.563121 447.706124 228.818068 449.504839 228.818068 451.380108 
C 228.818068 453.255377 229.563121 455.054093 230.889136 456.380108 
C 232.215152 457.706124 234.013867 458.451176 235.889136 458.451176 
z
" style="fill:#ff0000;fill-opacity:0.7;stroke:#ff0000;stroke-opacity:0.7;"/>
    <path clip-path="url(#p221f07f255)" d="M 238.062643 431.424545 
C 239.937912 431.424545 241.736627 430.679493 243.062643 429.353477 
C 244.388658 428.027462 245.133711 426.228746 245.133711 424.353477 
C 245.133711 422.478208 244.388658 420.679493 243.062643 419.353477 
C 241.736627 418.027462 239.937912 417.28241 238.062643 417.28241 
C 236.187374 417.28241 234.388658 418.027462 233.062643 419.353477 
C 231.736627 420.679493 230.991575 422.478208 230.991575 424.353477 
C 230.991575 426.228746 231.736627 428.027462 233.062643 429.353477 
C 234.388658 430.679493 236.187374 431.424545 238.062643 431.424545 
z
" style="fill:#ff0000;fill-opacity:0.7;stroke:#ff0000;stroke-opacity:0.7;"/>
    <path clip-path="url(#p221f07f255)" d="M 238.6238 404.397915 
C 240.499069 404.397915 242.297785 403.652862 243.6238 402.326847 
C 244.949816 401.000831 245.694868 399.202116 245.694868 397.326847 
C 245.694868 395.451578 244.949816 393.652862 243.6238 392.326847 
C 242.297785 391.000831 240.499069 390.255779 238.6238 390.255779 
C 236.748531 390.255779 234.949816 391.000831 233.6238 392.326847 
C 232.297785 393.652862 231.552732 395.451578 231.552732 397.326847 
C 231.552732 399.202116 232.297785 401.000831 233.6238 402.326847 
C 234.949816 403.652862 236.748531 404.397915 238.6238 404.397915 
z
" style="fill:#ff0000;fill-opacity:0.7;stroke:#ff0000;stroke-opacity:0.7;"/>
    <path clip-path="url(#p221f07f255)" d="M 239.587953 377.371284 
C 241.463222 377.371284 243.261938 376.626232 244.587953 375.300216 
C 245.913969 373.974201 246.659021 372.175485 246.659021 370.300216 
C 246.659021 368.424947 245.913969 366.626232 244.587953 365.300216 
C 243.261938 363.974201 241.463222 363.229148 239.587953 363.229148 
C 237.712684 363.229148 235.913969 363.974201 234.587953 365.300216 
C 233.261938 366.626232 232.516885 368.424947 232.516885 370.300216 
C 232.516885 372.175485 233.261938 373.974201 234.587953 375.300216 
C 235.913969 376.626232 237.712684 377.371284 239.587953 377.371284 
z
" style="fill:#ff0000;fill-opacity:0.7;stroke:#ff0000;stroke-opacity:0.7;"/>
    <path clip-path="url(#p221f07f255)" d="M 244.375327 350.344653 
C 246.250596 350.344653 248.049311 349.599601 249.375327 348.273585 
C 250.701342 346.94757 251.446395 345.148855 251.446395 343.273585 
C 251.446395 341.398316 250.701342 339.599601 249.375327 338.273585 
C 248.049311 336.94757 246.250596 336.202518 244.375327 336.202518 
C 242.500058 336.202518 240.701342 336.94757 239.375327 338.273585 
C 238.049311 339.599601 237.304259 341.398316 237.304259 343.273585 
C 237.304259 345.148855 238.049311 346.94757 239.375327 348.273585 
C 240.701342 349.599601 242.500058 350.344653 244.375327 350.344653 
z
" style="fill:#ff0000;fill-opacity:0.7;stroke:#ff0000;stroke-opacity:0.7;"/>
    <path clip-path="url(#p221f07f255)" d="M 249.048665 323.318023 
C 250.923934 323.318023 252.722649 322.57297 254.048665 321.246955 
C 255.37468 319.920939 256.119733 318.122224 256.119733 316.246955 
C 256.119733 314.371686 255.37468 312.57297 254.048665 311.246955 
C 252.722649 309.920939 250.923934 309.175887 249.048665 309.175887 
C 247.173396 309.175887 245.37468 309.920939 244.048665 311.246955 
C 242.722649 312.57297 241.977597 314.371686 241.977597 316.246955 
C 241.977597 318.122224 242.722649 319.920939 244.048665 321.246955 
C 245.37468 322.57297 247.173396 323.318023 249.048665 323.318023 
z
" style="fill:#ff0000;fill-opacity:0.7;stroke:#ff0000;stroke-opacity:0.7;"/>
    <path clip-path="url(#p221f07f255)" d="M 251.137554 296.291392 
C 253.012823 296.291392 254.811538 295.54634 256.137554 294.220324 
C 257.463569 292.894309 258.208622 291.095593 258.208622 289.220324 
C 258.208622 287.345055 257.463569 285.54634 256.137554 284.220324 
C 254.811538 282.894309 253.012823 282.149256 251.137554 282.149256 
C 249.262285 282.149256 247.463569 282.894309 246.137554 284.220324 
C 244.811538 285.54634 244.066486 287.345055 244.066486 289.220324 
C 244.066486 291.095593 244.811538 292.894309 246.137554 294.220324 
C 247.463569 295.54634 249.262285 296.291392 251.137554 296.291392 
z
" style="fill:#ff0000;fill-opacity:0.7;stroke:#ff0000;stroke-opacity:0.7;"/>
    <path clip-path="url(#p221f07f255)" d="M 253.98727 269.264761 
C 255.862539 269.264761 257.661254 268.519709 258.98727 267.193693 
C 260.313285 265.867678 261.058338 264.068963 261.058338 262.193693 
C 261.058338 260.318424 260.313285 258.519709 258.98727 257.193693 
C 257.661254 255.867678 255.862539 255.122626 253.98727 255.122626 
C 252.112001 255.122626 250.313285 255.867678 248.98727 257.193693 
C 247.661254 258.519709 246.916202 260.318424 246.916202 262.193693 
C 246.916202 264.068963 247.661254 265.867678 248.98727 267.193693 
C 250.313285 268.519709 252.112001 269.264761 253.98727 269.264761 
z
" style="fill:#ff0000;fill-opacity:0.7;stroke:#ff0000;stroke-opacity:0.7;"/>
    <path clip-path="url(#p221f07f255)" d="M 255.731902 242.238131 
C 257.607171 242.238131 259.405887 241.493078 260.731902 240.167063 
C 262.057918 238.841047 262.80297 237.042332 262.80297 235.167063 
C 262.80297 233.291794 262.057918 231.493078 260.731902 230.167063 
C 259.405887 228.841047 257.607171 228.095995 255.731902 228.095995 
C 253.856633 228.095995 252.057918 228.841047 250.731902 230.167063 
C 249.405887 231.493078 248.660834 233.291794 248.660834 235.167063 
C 248.660834 237.042332 249.405887 238.841047 250.731902 240.167063 
C 252.057918 241.493078 253.856633 242.238131 255.731902 242.238131 
z
" style="fill:#ff0000;fill-opacity:0.7;stroke:#ff0000;stroke-opacity:0.7;"/>
    <path clip-path="url(#p221f07f255)" d="M 256.923124 215.2115 
C 258.798393 215.2115 260.597109 214.466448 261.923124 213.140432 
C 263.24914 211.814417 263.994192 210.015701 263.994192 208.140432 
C 263.994192 206.265163 263.24914 204.466448 261.923124 203.140432 
C 260.597109 201.814417 258.798393 201.069364 256.923124 201.069364 
C 255.047855 201.069364 253.24914 201.814417 251.923124 203.140432 
C 250.597109 204.466448 249.852056 206.265163 249.852056 208.140432 
C 249.852056 210.015701 250.597109 211.814417 251.923124 213.140432 
C 253.24914 214.466448 255.047855 215.2115 256.923124 215.2115 
z
" style="fill:#ff0000;fill-opacity:0.7;stroke:#ff0000;stroke-opacity:0.7;"/>
    <path clip-path="url(#p221f07f255)" d="M 257.784332 188.184869 
C 259.659601 188.184869 261.458317 187.439817 262.784332 186.113802 
C 264.110348 184.787786 264.8554 182.989071 264.8554 181.113802 
C 264.8554 179.238532 264.110348 177.439817 262.784332 176.113802 
C 261.458317 174.787786 259.659601 174.042734 257.784332 174.042734 
C 255.909063 174.042734 254.110348 174.787786 252.784332 176.113802 
C 251.458317 177.439817 250.713264 179.238532 250.713264 181.113802 
C 250.713264 182.989071 251.458317 184.787786 252.784332 186.113802 
C 254.110348 187.439817 255.909063 188.184869 257.784332 188.184869 
z
" style="fill:#ff0000;fill-opacity:0.7;stroke:#ff0000;stroke-opacity:0.7;"/>
    <path clip-path="url(#p221f07f255)" d="M 260.883199 161.158239 
C 262.758468 161.158239 264.557183 160.413186 265.883199 159.087171 
C 267.209214 157.761155 267.954267 155.96244 267.954267 154.087171 
C 267.954267 152.211902 267.209214 150.413186 265.883199 149.087171 
C 264.557183 147.761155 262.758468 147.016103 260.883199 147.016103 
C 259.00793 147.016103 257.209214 147.761155 255.883199 149.087171 
C 254.557183 150.413186 253.812131 152.211902 253.812131 154.087171 
C 253.812131 155.96244 254.557183 157.761155 255.883199 159.087171 
C 257.209214 160.413186 259.00793 161.158239 260.883199 161.158239 
z
" style="fill:#ff0000;fill-opacity:0.7;stroke:#ff0000;stroke-opacity:0.7;"/>
    <path clip-path="url(#p221f07f255)" d="M 261.5632 134.131608 
C 263.438469 134.131608 265.237184 133.386556 266.5632 132.06054 
C 267.889215 130.734525 268.634267 128.935809 268.634267 127.06054 
C 268.634267 125.185271 267.889215 123.386556 266.5632 122.06054 
C 265.237184 120.734525 263.438469 119.989472 261.5632 119.989472 
C 259.68793 119.989472 257.889215 120.734525 256.5632 122.06054 
C 255.237184 123.386556 254.492132 125.185271 254.492132 127.06054 
C 254.492132 128.935809 255.237184 130.734525 256.5632 132.06054 
C 257.889215 133.386556 259.68793 134.131608 261.5632 134.131608 
z
" style="fill:#ff0000;fill-opacity:0.7;stroke:#ff0000;stroke-opacity:0.7;"/>
    <path clip-path="url(#p221f07f255)" d="M 298.270046 107.104977 
C 300.145315 107.104977 301.944031 106.359925 303.270046 105.03391 
C 304.596062 103.707894 305.341114 101.909179 305.341114 100.03391 
C 305.341114 98.15864 304.596062 96.359925 303.270046 95.03391 
C 301.944031 93.707894 300.145315 92.962842 298.270046 92.962842 
C 296.394777 92.962842 294.596062 93.707894 293.270046 95.03391 
C 291.944031 96.359925 291.198978 98.15864 291.198978 100.03391 
C 291.198978 101.909179 291.944031 103.707894 293.270046 105.03391 
C 294.596062 106.359925 296.394777 107.104977 298.270046 107.104977 
z
" style="fill:#ff0000;fill-opacity:0.7;stroke:#ff0000;stroke-opacity:0.7;"/>
    <path clip-path="url(#p221f07f255)" d="M 309.663891 80.078347 
C 311.53916 80.078347 313.337875 79.333294 314.663891 78.007279 
C 315.989906 76.681263 316.734959 74.882548 316.734959 73.007279 
C 316.734959 71.13201 315.989906 69.333294 314.663891 68.007279 
C 313.337875 66.681263 311.53916 65.936211 309.663891 65.936211 
C 307.788622 65.936211 305.989906 66.681263 304.663891 68.007279 
C 303.337875 69.333294 302.592823 71.13201 302.592823 73.007279 
C 302.592823 74.882548 303.337875 76.681263 304.663891 78.007279 
C 305.989906 79.333294 307.788622 80.078347 309.663891 80.078347 
z
" style="fill:#ff0000;fill-opacity:0.7;stroke:#ff0000;stroke-opacity:0.7;"/>
   </g>
   <g id="matplotlib.axis_1">
    <g id="xtick_1">
     <g id="line2d_1">
      <defs>
       <path d="M 0 0 
L 0 3.5 
" id="mda9c15aa5d" style="stroke:#000000;stroke-width:0.8;"/>
      </defs>
      <g>
       <use style="stroke:#000000;stroke-width:0.8;" x="73.73" xlink:href="#mda9c15aa5d" y="1038.04"/>
      </g>
     </g>
     <g id="text_1">
      <!-- 0.1 -->
      <defs>
       <path d="M 31.78125 66.40625 
Q 24.171875 66.40625 20.328125 58.90625 
Q 16.5 51.421875 16.5 36.375 
Q 16.5 21.390625 20.328125 13.890625 
Q 24.171875 6.390625 31.78125 6.390625 
Q 39.453125 6.390625 43.28125 13.890625 
Q 47.125 21.390625 47.125 36.375 
Q 47.125 51.421875 43.28125 58.90625 
Q 39.453125 66.40625 31.78125 66.40625 
z
M 31.78125 74.21875 
Q 44.046875 74.21875 50.515625 64.515625 
Q 56.984375 54.828125 56.984375 36.375 
Q 56.984375 17.96875 50.515625 8.265625 
Q 44.046875 -1.421875 31.78125 -1.421875 
Q 19.53125 -1.421875 13.0625 8.265625 
Q 6.59375 17.96875 6.59375 36.375 
Q 6.59375 54.828125 13.0625 64.515625 
Q 19.53125 74.21875 31.78125 74.21875 
z
" id="DejaVuSans-48"/>
       <path d="M 10.6875 12.40625 
L 21 12.40625 
L 21 0 
L 10.6875 0 
z
" id="DejaVuSans-46"/>
       <path d="M 12.40625 8.296875 
L 28.515625 8.296875 
L 28.515625 63.921875 
L 10.984375 60.40625 
L 10.984375 69.390625 
L 28.421875 72.90625 
L 38.28125 72.90625 
L 38.28125 8.296875 
L 54.390625 8.296875 
L 54.390625 0 
L 12.40625 0 
z
" id="DejaVuSans-49"/>
      </defs>
      <g transform="translate(65.778438 1052.638438)scale(0.1 -0.1)">
       <use xlink:href="#DejaVuSans-48"/>
       <use x="63.623047" xlink:href="#DejaVuSans-46"/>
       <use x="95.410156" xlink:href="#DejaVuSans-49"/>
      </g>
     </g>
    </g>
    <g id="xtick_2">
     <g id="line2d_2">
      <g>
       <use style="stroke:#000000;stroke-width:0.8;" x="152.17375" xlink:href="#mda9c15aa5d" y="1038.04"/>
      </g>
     </g>
     <g id="text_2">
      <!-- 0.2 -->
      <defs>
       <path d="M 19.1875 8.296875 
L 53.609375 8.296875 
L 53.609375 0 
L 7.328125 0 
L 7.328125 8.296875 
Q 12.9375 14.109375 22.625 23.890625 
Q 32.328125 33.6875 34.8125 36.53125 
Q 39.546875 41.84375 41.421875 45.53125 
Q 43.3125 49.21875 43.3125 52.78125 
Q 43.3125 58.59375 39.234375 62.25 
Q 35.15625 65.921875 28.609375 65.921875 
Q 23.96875 65.921875 18.8125 64.3125 
Q 13.671875 62.703125 7.8125 59.421875 
L 7.8125 69.390625 
Q 13.765625 71.78125 18.9375 73 
Q 24.125 74.21875 28.421875 74.21875 
Q 39.75 74.21875 46.484375 68.546875 
Q 53.21875 62.890625 53.21875 53.421875 
Q 53.21875 48.921875 51.53125 44.890625 
Q 49.859375 40.875 45.40625 35.40625 
Q 44.1875 33.984375 37.640625 27.21875 
Q 31.109375 20.453125 19.1875 8.296875 
z
" id="DejaVuSans-50"/>
      </defs>
      <g transform="translate(144.222188 1052.638438)scale(0.1 -0.1)">
       <use xlink:href="#DejaVuSans-48"/>
       <use x="63.623047" xlink:href="#DejaVuSans-46"/>
       <use x="95.410156" xlink:href="#DejaVuSans-50"/>
      </g>
     </g>
    </g>
    <g id="xtick_3">
     <g id="line2d_3">
      <g>
       <use style="stroke:#000000;stroke-width:0.8;" x="230.6175" xlink:href="#mda9c15aa5d" y="1038.04"/>
      </g>
     </g>
     <g id="text_3">
      <!-- 0.3 -->
      <defs>
       <path d="M 40.578125 39.3125 
Q 47.65625 37.796875 51.625 33 
Q 55.609375 28.21875 55.609375 21.1875 
Q 55.609375 10.40625 48.1875 4.484375 
Q 40.765625 -1.421875 27.09375 -1.421875 
Q 22.515625 -1.421875 17.65625 -0.515625 
Q 12.796875 0.390625 7.625 2.203125 
L 7.625 11.71875 
Q 11.71875 9.328125 16.59375 8.109375 
Q 21.484375 6.890625 26.8125 6.890625 
Q 36.078125 6.890625 40.9375 10.546875 
Q 45.796875 14.203125 45.796875 21.1875 
Q 45.796875 27.640625 41.28125 31.265625 
Q 36.765625 34.90625 28.71875 34.90625 
L 20.21875 34.90625 
L 20.21875 43.015625 
L 29.109375 43.015625 
Q 36.375 43.015625 40.234375 45.921875 
Q 44.09375 48.828125 44.09375 54.296875 
Q 44.09375 59.90625 40.109375 62.90625 
Q 36.140625 65.921875 28.71875 65.921875 
Q 24.65625 65.921875 20.015625 65.03125 
Q 15.375 64.15625 9.8125 62.3125 
L 9.8125 71.09375 
Q 15.4375 72.65625 20.34375 73.4375 
Q 25.25 74.21875 29.59375 74.21875 
Q 40.828125 74.21875 47.359375 69.109375 
Q 53.90625 64.015625 53.90625 55.328125 
Q 53.90625 49.265625 50.4375 45.09375 
Q 46.96875 40.921875 40.578125 39.3125 
z
" id="DejaVuSans-51"/>
      </defs>
      <g transform="translate(222.665938 1052.638438)scale(0.1 -0.1)">
       <use xlink:href="#DejaVuSans-48"/>
       <use x="63.623047" xlink:href="#DejaVuSans-46"/>
       <use x="95.410156" xlink:href="#DejaVuSans-51"/>
      </g>
     </g>
    </g>
    <g id="xtick_4">
     <g id="line2d_4">
      <g>
       <use style="stroke:#000000;stroke-width:0.8;" x="309.06125" xlink:href="#mda9c15aa5d" y="1038.04"/>
      </g>
     </g>
     <g id="text_4">
      <!-- 0.4 -->
      <defs>
       <path d="M 37.796875 64.3125 
L 12.890625 25.390625 
L 37.796875 25.390625 
z
M 35.203125 72.90625 
L 47.609375 72.90625 
L 47.609375 25.390625 
L 58.015625 25.390625 
L 58.015625 17.1875 
L 47.609375 17.1875 
L 47.609375 0 
L 37.796875 0 
L 37.796875 17.1875 
L 4.890625 17.1875 
L 4.890625 26.703125 
z
" id="DejaVuSans-52"/>
      </defs>
      <g transform="translate(301.109688 1052.638438)scale(0.1 -0.1)">
       <use xlink:href="#DejaVuSans-48"/>
       <use x="63.623047" xlink:href="#DejaVuSans-46"/>
       <use x="95.410156" xlink:href="#DejaVuSans-52"/>
      </g>
     </g>
    </g>
    <g id="xtick_5">
     <g id="line2d_5">
      <g>
       <use style="stroke:#000000;stroke-width:0.8;" x="387.505" xlink:href="#mda9c15aa5d" y="1038.04"/>
      </g>
     </g>
     <g id="text_5">
      <!-- 0.5 -->
      <defs>
       <path d="M 10.796875 72.90625 
L 49.515625 72.90625 
L 49.515625 64.59375 
L 19.828125 64.59375 
L 19.828125 46.734375 
Q 21.96875 47.46875 24.109375 47.828125 
Q 26.265625 48.1875 28.421875 48.1875 
Q 40.625 48.1875 47.75 41.5 
Q 54.890625 34.8125 54.890625 23.390625 
Q 54.890625 11.625 47.5625 5.09375 
Q 40.234375 -1.421875 26.90625 -1.421875 
Q 22.3125 -1.421875 17.546875 -0.640625 
Q 12.796875 0.140625 7.71875 1.703125 
L 7.71875 11.625 
Q 12.109375 9.234375 16.796875 8.0625 
Q 21.484375 6.890625 26.703125 6.890625 
Q 35.15625 6.890625 40.078125 11.328125 
Q 45.015625 15.765625 45.015625 23.390625 
Q 45.015625 31 40.078125 35.4375 
Q 35.15625 39.890625 26.703125 39.890625 
Q 22.75 39.890625 18.8125 39.015625 
Q 14.890625 38.140625 10.796875 36.28125 
z
" id="DejaVuSans-53"/>
      </defs>
      <g transform="translate(379.553437 1052.638438)scale(0.1 -0.1)">
       <use xlink:href="#DejaVuSans-48"/>
       <use x="63.623047" xlink:href="#DejaVuSans-46"/>
       <use x="95.410156" xlink:href="#DejaVuSans-53"/>
      </g>
     </g>
    </g>
    <g id="xtick_6">
     <g id="line2d_6">
      <g>
       <use style="stroke:#000000;stroke-width:0.8;" x="465.94875" xlink:href="#mda9c15aa5d" y="1038.04"/>
      </g>
     </g>
     <g id="text_6">
      <!-- 0.6 -->
      <defs>
       <path d="M 33.015625 40.375 
Q 26.375 40.375 22.484375 35.828125 
Q 18.609375 31.296875 18.609375 23.390625 
Q 18.609375 15.53125 22.484375 10.953125 
Q 26.375 6.390625 33.015625 6.390625 
Q 39.65625 6.390625 43.53125 10.953125 
Q 47.40625 15.53125 47.40625 23.390625 
Q 47.40625 31.296875 43.53125 35.828125 
Q 39.65625 40.375 33.015625 40.375 
z
M 52.59375 71.296875 
L 52.59375 62.3125 
Q 48.875 64.0625 45.09375 64.984375 
Q 41.3125 65.921875 37.59375 65.921875 
Q 27.828125 65.921875 22.671875 59.328125 
Q 17.53125 52.734375 16.796875 39.40625 
Q 19.671875 43.65625 24.015625 45.921875 
Q 28.375 48.1875 33.59375 48.1875 
Q 44.578125 48.1875 50.953125 41.515625 
Q 57.328125 34.859375 57.328125 23.390625 
Q 57.328125 12.15625 50.6875 5.359375 
Q 44.046875 -1.421875 33.015625 -1.421875 
Q 20.359375 -1.421875 13.671875 8.265625 
Q 6.984375 17.96875 6.984375 36.375 
Q 6.984375 53.65625 15.1875 63.9375 
Q 23.390625 74.21875 37.203125 74.21875 
Q 40.921875 74.21875 44.703125 73.484375 
Q 48.484375 72.75 52.59375 71.296875 
z
" id="DejaVuSans-54"/>
      </defs>
      <g transform="translate(457.997187 1052.638438)scale(0.1 -0.1)">
       <use xlink:href="#DejaVuSans-48"/>
       <use x="63.623047" xlink:href="#DejaVuSans-46"/>
       <use x="95.410156" xlink:href="#DejaVuSans-54"/>
      </g>
     </g>
    </g>
    <g id="xtick_7">
     <g id="line2d_7">
      <g>
       <use style="stroke:#000000;stroke-width:0.8;" x="544.3925" xlink:href="#mda9c15aa5d" y="1038.04"/>
      </g>
     </g>
     <g id="text_7">
      <!-- 0.7 -->
      <defs>
       <path d="M 8.203125 72.90625 
L 55.078125 72.90625 
L 55.078125 68.703125 
L 28.609375 0 
L 18.3125 0 
L 43.21875 64.59375 
L 8.203125 64.59375 
z
" id="DejaVuSans-55"/>
      </defs>
      <g transform="translate(536.440937 1052.638438)scale(0.1 -0.1)">
       <use xlink:href="#DejaVuSans-48"/>
       <use x="63.623047" xlink:href="#DejaVuSans-46"/>
       <use x="95.410156" xlink:href="#DejaVuSans-55"/>
      </g>
     </g>
    </g>
    <g id="xtick_8">
     <g id="line2d_8">
      <g>
       <use style="stroke:#000000;stroke-width:0.8;" x="622.83625" xlink:href="#mda9c15aa5d" y="1038.04"/>
      </g>
     </g>
     <g id="text_8">
      <!-- 0.8 -->
      <defs>
       <path d="M 31.78125 34.625 
Q 24.75 34.625 20.71875 30.859375 
Q 16.703125 27.09375 16.703125 20.515625 
Q 16.703125 13.921875 20.71875 10.15625 
Q 24.75 6.390625 31.78125 6.390625 
Q 38.8125 6.390625 42.859375 10.171875 
Q 46.921875 13.96875 46.921875 20.515625 
Q 46.921875 27.09375 42.890625 30.859375 
Q 38.875 34.625 31.78125 34.625 
z
M 21.921875 38.8125 
Q 15.578125 40.375 12.03125 44.71875 
Q 8.5 49.078125 8.5 55.328125 
Q 8.5 64.0625 14.71875 69.140625 
Q 20.953125 74.21875 31.78125 74.21875 
Q 42.671875 74.21875 48.875 69.140625 
Q 55.078125 64.0625 55.078125 55.328125 
Q 55.078125 49.078125 51.53125 44.71875 
Q 48 40.375 41.703125 38.8125 
Q 48.828125 37.15625 52.796875 32.3125 
Q 56.78125 27.484375 56.78125 20.515625 
Q 56.78125 9.90625 50.3125 4.234375 
Q 43.84375 -1.421875 31.78125 -1.421875 
Q 19.734375 -1.421875 13.25 4.234375 
Q 6.78125 9.90625 6.78125 20.515625 
Q 6.78125 27.484375 10.78125 32.3125 
Q 14.796875 37.15625 21.921875 38.8125 
z
M 18.3125 54.390625 
Q 18.3125 48.734375 21.84375 45.5625 
Q 25.390625 42.390625 31.78125 42.390625 
Q 38.140625 42.390625 41.71875 45.5625 
Q 45.3125 48.734375 45.3125 54.390625 
Q 45.3125 60.0625 41.71875 63.234375 
Q 38.140625 66.40625 31.78125 66.40625 
Q 25.390625 66.40625 21.84375 63.234375 
Q 18.3125 60.0625 18.3125 54.390625 
z
" id="DejaVuSans-56"/>
      </defs>
      <g transform="translate(614.884688 1052.638438)scale(0.1 -0.1)">
       <use xlink:href="#DejaVuSans-48"/>
       <use x="63.623047" xlink:href="#DejaVuSans-46"/>
       <use x="95.410156" xlink:href="#DejaVuSans-56"/>
      </g>
     </g>
    </g>
    <g id="xtick_9">
     <g id="line2d_9">
      <g>
       <use style="stroke:#000000;stroke-width:0.8;" x="701.28" xlink:href="#mda9c15aa5d" y="1038.04"/>
      </g>
     </g>
     <g id="text_9">
      <!-- 0.9 -->
      <defs>
       <path d="M 10.984375 1.515625 
L 10.984375 10.5 
Q 14.703125 8.734375 18.5 7.8125 
Q 22.3125 6.890625 25.984375 6.890625 
Q 35.75 6.890625 40.890625 13.453125 
Q 46.046875 20.015625 46.78125 33.40625 
Q 43.953125 29.203125 39.59375 26.953125 
Q 35.25 24.703125 29.984375 24.703125 
Q 19.046875 24.703125 12.671875 31.3125 
Q 6.296875 37.9375 6.296875 49.421875 
Q 6.296875 60.640625 12.9375 67.421875 
Q 19.578125 74.21875 30.609375 74.21875 
Q 43.265625 74.21875 49.921875 64.515625 
Q 56.59375 54.828125 56.59375 36.375 
Q 56.59375 19.140625 48.40625 8.859375 
Q 40.234375 -1.421875 26.421875 -1.421875 
Q 22.703125 -1.421875 18.890625 -0.6875 
Q 15.09375 0.046875 10.984375 1.515625 
z
M 30.609375 32.421875 
Q 37.25 32.421875 41.125 36.953125 
Q 45.015625 41.5 45.015625 49.421875 
Q 45.015625 57.28125 41.125 61.84375 
Q 37.25 66.40625 30.609375 66.40625 
Q 23.96875 66.40625 20.09375 61.84375 
Q 16.21875 57.28125 16.21875 49.421875 
Q 16.21875 41.5 20.09375 36.953125 
Q 23.96875 32.421875 30.609375 32.421875 
z
" id="DejaVuSans-57"/>
      </defs>
      <g transform="translate(693.328437 1052.638438)scale(0.1 -0.1)">
       <use xlink:href="#DejaVuSans-48"/>
       <use x="63.623047" xlink:href="#DejaVuSans-46"/>
       <use x="95.410156" xlink:href="#DejaVuSans-57"/>
      </g>
     </g>
    </g>
    <g id="text_10">
     <!-- Proporcao -->
     <defs>
      <path d="M 19.671875 64.796875 
L 19.671875 37.40625 
L 32.078125 37.40625 
Q 38.96875 37.40625 42.71875 40.96875 
Q 46.484375 44.53125 46.484375 51.125 
Q 46.484375 57.671875 42.71875 61.234375 
Q 38.96875 64.796875 32.078125 64.796875 
z
M 9.8125 72.90625 
L 32.078125 72.90625 
Q 44.34375 72.90625 50.609375 67.359375 
Q 56.890625 61.8125 56.890625 51.125 
Q 56.890625 40.328125 50.609375 34.8125 
Q 44.34375 29.296875 32.078125 29.296875 
L 19.671875 29.296875 
L 19.671875 0 
L 9.8125 0 
z
" id="DejaVuSans-80"/>
      <path d="M 41.109375 46.296875 
Q 39.59375 47.171875 37.8125 47.578125 
Q 36.03125 48 33.890625 48 
Q 26.265625 48 22.1875 43.046875 
Q 18.109375 38.09375 18.109375 28.8125 
L 18.109375 0 
L 9.078125 0 
L 9.078125 54.6875 
L 18.109375 54.6875 
L 18.109375 46.1875 
Q 20.953125 51.171875 25.484375 53.578125 
Q 30.03125 56 36.53125 56 
Q 37.453125 56 38.578125 55.875 
Q 39.703125 55.765625 41.0625 55.515625 
z
" id="DejaVuSans-114"/>
      <path d="M 30.609375 48.390625 
Q 23.390625 48.390625 19.1875 42.75 
Q 14.984375 37.109375 14.984375 27.296875 
Q 14.984375 17.484375 19.15625 11.84375 
Q 23.34375 6.203125 30.609375 6.203125 
Q 37.796875 6.203125 41.984375 11.859375 
Q 46.1875 17.53125 46.1875 27.296875 
Q 46.1875 37.015625 41.984375 42.703125 
Q 37.796875 48.390625 30.609375 48.390625 
z
M 30.609375 56 
Q 42.328125 56 49.015625 48.375 
Q 55.71875 40.765625 55.71875 27.296875 
Q 55.71875 13.875 49.015625 6.21875 
Q 42.328125 -1.421875 30.609375 -1.421875 
Q 18.84375 -1.421875 12.171875 6.21875 
Q 5.515625 13.875 5.515625 27.296875 
Q 5.515625 40.765625 12.171875 48.375 
Q 18.84375 56 30.609375 56 
z
" id="DejaVuSans-111"/>
      <path d="M 18.109375 8.203125 
L 18.109375 -20.796875 
L 9.078125 -20.796875 
L 9.078125 54.6875 
L 18.109375 54.6875 
L 18.109375 46.390625 
Q 20.953125 51.265625 25.265625 53.625 
Q 29.59375 56 35.59375 56 
Q 45.5625 56 51.78125 48.09375 
Q 58.015625 40.1875 58.015625 27.296875 
Q 58.015625 14.40625 51.78125 6.484375 
Q 45.5625 -1.421875 35.59375 -1.421875 
Q 29.59375 -1.421875 25.265625 0.953125 
Q 20.953125 3.328125 18.109375 8.203125 
z
M 48.6875 27.296875 
Q 48.6875 37.203125 44.609375 42.84375 
Q 40.53125 48.484375 33.40625 48.484375 
Q 26.265625 48.484375 22.1875 42.84375 
Q 18.109375 37.203125 18.109375 27.296875 
Q 18.109375 17.390625 22.1875 11.75 
Q 26.265625 6.109375 33.40625 6.109375 
Q 40.53125 6.109375 44.609375 11.75 
Q 48.6875 17.390625 48.6875 27.296875 
z
" id="DejaVuSans-112"/>
      <path d="M 48.78125 52.59375 
L 48.78125 44.1875 
Q 44.96875 46.296875 41.140625 47.34375 
Q 37.3125 48.390625 33.40625 48.390625 
Q 24.65625 48.390625 19.8125 42.84375 
Q 14.984375 37.3125 14.984375 27.296875 
Q 14.984375 17.28125 19.8125 11.734375 
Q 24.65625 6.203125 33.40625 6.203125 
Q 37.3125 6.203125 41.140625 7.25 
Q 44.96875 8.296875 48.78125 10.40625 
L 48.78125 2.09375 
Q 45.015625 0.34375 40.984375 -0.53125 
Q 36.96875 -1.421875 32.421875 -1.421875 
Q 20.0625 -1.421875 12.78125 6.34375 
Q 5.515625 14.109375 5.515625 27.296875 
Q 5.515625 40.671875 12.859375 48.328125 
Q 20.21875 56 33.015625 56 
Q 37.15625 56 41.109375 55.140625 
Q 45.0625 54.296875 48.78125 52.59375 
z
" id="DejaVuSans-99"/>
      <path d="M 34.28125 27.484375 
Q 23.390625 27.484375 19.1875 25 
Q 14.984375 22.515625 14.984375 16.5 
Q 14.984375 11.71875 18.140625 8.90625 
Q 21.296875 6.109375 26.703125 6.109375 
Q 34.1875 6.109375 38.703125 11.40625 
Q 43.21875 16.703125 43.21875 25.484375 
L 43.21875 27.484375 
z
M 52.203125 31.203125 
L 52.203125 0 
L 43.21875 0 
L 43.21875 8.296875 
Q 40.140625 3.328125 35.546875 0.953125 
Q 30.953125 -1.421875 24.3125 -1.421875 
Q 15.921875 -1.421875 10.953125 3.296875 
Q 6 8.015625 6 15.921875 
Q 6 25.140625 12.171875 29.828125 
Q 18.359375 34.515625 30.609375 34.515625 
L 43.21875 34.515625 
L 43.21875 35.40625 
Q 43.21875 41.609375 39.140625 45 
Q 35.0625 48.390625 27.6875 48.390625 
Q 23 48.390625 18.546875 47.265625 
Q 14.109375 46.140625 10.015625 43.890625 
L 10.015625 52.203125 
Q 14.9375 54.109375 19.578125 55.046875 
Q 24.21875 56 28.609375 56 
Q 40.484375 56 46.34375 49.84375 
Q 52.203125 43.703125 52.203125 31.203125 
z
" id="DejaVuSans-97"/>
     </defs>
     <g transform="translate(362.2175 1066.316563)scale(0.1 -0.1)">
      <use xlink:href="#DejaVuSans-80"/>
      <use x="60.287109" xlink:href="#DejaVuSans-114"/>
      <use x="101.369141" xlink:href="#DejaVuSans-111"/>
      <use x="162.550781" xlink:href="#DejaVuSans-112"/>
      <use x="226.027344" xlink:href="#DejaVuSans-111"/>
      <use x="287.208984" xlink:href="#DejaVuSans-114"/>
      <use x="328.291016" xlink:href="#DejaVuSans-99"/>
      <use x="383.271484" xlink:href="#DejaVuSans-97"/>
      <use x="444.550781" xlink:href="#DejaVuSans-111"/>
     </g>
    </g>
   </g>
   <g id="matplotlib.axis_2">
    <g id="ytick_1">
     <g id="line2d_10">
      <defs>
       <path d="M 0 0 
L -3.5 0 
" id="m715b69f6f6" style="stroke:#000000;stroke-width:0.8;"/>
      </defs>
      <g>
       <use style="stroke:#000000;stroke-width:0.8;" x="73.73" xlink:href="#m715b69f6f6" y="991.912721"/>
      </g>
     </g>
     <g id="text_11">
      <!-- PSL -->
      <defs>
       <path d="M 53.515625 70.515625 
L 53.515625 60.890625 
Q 47.90625 63.578125 42.921875 64.890625 
Q 37.9375 66.21875 33.296875 66.21875 
Q 25.25 66.21875 20.875 63.09375 
Q 16.5 59.96875 16.5 54.203125 
Q 16.5 49.359375 19.40625 46.890625 
Q 22.3125 44.4375 30.421875 42.921875 
L 36.375 41.703125 
Q 47.40625 39.59375 52.65625 34.296875 
Q 57.90625 29 57.90625 20.125 
Q 57.90625 9.515625 50.796875 4.046875 
Q 43.703125 -1.421875 29.984375 -1.421875 
Q 24.8125 -1.421875 18.96875 -0.25 
Q 13.140625 0.921875 6.890625 3.21875 
L 6.890625 13.375 
Q 12.890625 10.015625 18.65625 8.296875 
Q 24.421875 6.59375 29.984375 6.59375 
Q 38.421875 6.59375 43.015625 9.90625 
Q 47.609375 13.234375 47.609375 19.390625 
Q 47.609375 24.75 44.3125 27.78125 
Q 41.015625 30.8125 33.5 32.328125 
L 27.484375 33.5 
Q 16.453125 35.6875 11.515625 40.375 
Q 6.59375 45.0625 6.59375 53.421875 
Q 6.59375 63.09375 13.40625 68.65625 
Q 20.21875 74.21875 32.171875 74.21875 
Q 37.3125 74.21875 42.625 73.28125 
Q 47.953125 72.359375 53.515625 70.515625 
z
" id="DejaVuSans-83"/>
       <path d="M 9.8125 72.90625 
L 19.671875 72.90625 
L 19.671875 8.296875 
L 55.171875 8.296875 
L 55.171875 0 
L 9.8125 0 
z
" id="DejaVuSans-76"/>
      </defs>
      <g transform="translate(48.78 995.71194)scale(0.1 -0.1)">
       <use xlink:href="#DejaVuSans-80"/>
       <use x="60.302734" xlink:href="#DejaVuSans-83"/>
       <use x="123.779297" xlink:href="#DejaVuSans-76"/>
      </g>
     </g>
    </g>
    <g id="ytick_2">
     <g id="line2d_11">
      <g>
       <use style="stroke:#000000;stroke-width:0.8;" x="73.73" xlink:href="#m715b69f6f6" y="964.88609"/>
      </g>
     </g>
     <g id="text_12">
      <!-- PODE -->
      <defs>
       <path d="M 39.40625 66.21875 
Q 28.65625 66.21875 22.328125 58.203125 
Q 16.015625 50.203125 16.015625 36.375 
Q 16.015625 22.609375 22.328125 14.59375 
Q 28.65625 6.59375 39.40625 6.59375 
Q 50.140625 6.59375 56.421875 14.59375 
Q 62.703125 22.609375 62.703125 36.375 
Q 62.703125 50.203125 56.421875 58.203125 
Q 50.140625 66.21875 39.40625 66.21875 
z
M 39.40625 74.21875 
Q 54.734375 74.21875 63.90625 63.9375 
Q 73.09375 53.65625 73.09375 36.375 
Q 73.09375 19.140625 63.90625 8.859375 
Q 54.734375 -1.421875 39.40625 -1.421875 
Q 24.03125 -1.421875 14.8125 8.828125 
Q 5.609375 19.09375 5.609375 36.375 
Q 5.609375 53.65625 14.8125 63.9375 
Q 24.03125 74.21875 39.40625 74.21875 
z
" id="DejaVuSans-79"/>
       <path d="M 19.671875 64.796875 
L 19.671875 8.109375 
L 31.59375 8.109375 
Q 46.6875 8.109375 53.6875 14.9375 
Q 60.6875 21.78125 60.6875 36.53125 
Q 60.6875 51.171875 53.6875 57.984375 
Q 46.6875 64.796875 31.59375 64.796875 
z
M 9.8125 72.90625 
L 30.078125 72.90625 
Q 51.265625 72.90625 61.171875 64.09375 
Q 71.09375 55.28125 71.09375 36.53125 
Q 71.09375 17.671875 61.125 8.828125 
Q 51.171875 0 30.078125 0 
L 9.8125 0 
z
" id="DejaVuSans-68"/>
       <path d="M 9.8125 72.90625 
L 55.90625 72.90625 
L 55.90625 64.59375 
L 19.671875 64.59375 
L 19.671875 43.015625 
L 54.390625 43.015625 
L 54.390625 34.71875 
L 19.671875 34.71875 
L 19.671875 8.296875 
L 56.78125 8.296875 
L 56.78125 0 
L 9.8125 0 
z
" id="DejaVuSans-69"/>
      </defs>
      <g transform="translate(38.809688 968.685309)scale(0.1 -0.1)">
       <use xlink:href="#DejaVuSans-80"/>
       <use x="60.302734" xlink:href="#DejaVuSans-79"/>
       <use x="139.013672" xlink:href="#DejaVuSans-68"/>
       <use x="216.015625" xlink:href="#DejaVuSans-69"/>
      </g>
     </g>
    </g>
    <g id="ytick_3">
     <g id="line2d_12">
      <g>
       <use style="stroke:#000000;stroke-width:0.8;" x="73.73" xlink:href="#m715b69f6f6" y="937.85946"/>
      </g>
     </g>
     <g id="text_13">
      <!-- AVANTE -->
      <defs>
       <path d="M 34.1875 63.1875 
L 20.796875 26.90625 
L 47.609375 26.90625 
z
M 28.609375 72.90625 
L 39.796875 72.90625 
L 67.578125 0 
L 57.328125 0 
L 50.6875 18.703125 
L 17.828125 18.703125 
L 11.1875 0 
L 0.78125 0 
z
" id="DejaVuSans-65"/>
       <path d="M 28.609375 0 
L 0.78125 72.90625 
L 11.078125 72.90625 
L 34.1875 11.53125 
L 57.328125 72.90625 
L 67.578125 72.90625 
L 39.796875 0 
z
" id="DejaVuSans-86"/>
       <path d="M 9.8125 72.90625 
L 23.09375 72.90625 
L 55.421875 11.921875 
L 55.421875 72.90625 
L 64.984375 72.90625 
L 64.984375 0 
L 51.703125 0 
L 19.390625 60.984375 
L 19.390625 0 
L 9.8125 0 
z
" id="DejaVuSans-78"/>
       <path d="M -0.296875 72.90625 
L 61.375 72.90625 
L 61.375 64.59375 
L 35.5 64.59375 
L 35.5 0 
L 25.59375 0 
L 25.59375 64.59375 
L -0.296875 64.59375 
z
" id="DejaVuSans-84"/>
      </defs>
      <g transform="translate(26.319063 941.658679)scale(0.1 -0.1)">
       <use xlink:href="#DejaVuSans-65"/>
       <use x="68.314453" xlink:href="#DejaVuSans-86"/>
       <use x="136.628906" xlink:href="#DejaVuSans-65"/>
       <use x="205.037109" xlink:href="#DejaVuSans-78"/>
       <use x="279.841797" xlink:href="#DejaVuSans-84"/>
       <use x="340.925781" xlink:href="#DejaVuSans-69"/>
      </g>
     </g>
    </g>
    <g id="ytick_4">
     <g id="line2d_13">
      <g>
       <use style="stroke:#000000;stroke-width:0.8;" x="73.73" xlink:href="#m715b69f6f6" y="910.832829"/>
      </g>
     </g>
     <g id="text_14">
      <!-- DEM -->
      <defs>
       <path d="M 9.8125 72.90625 
L 24.515625 72.90625 
L 43.109375 23.296875 
L 61.8125 72.90625 
L 76.515625 72.90625 
L 76.515625 0 
L 66.890625 0 
L 66.890625 64.015625 
L 48.09375 14.015625 
L 38.1875 14.015625 
L 19.390625 64.015625 
L 19.390625 0 
L 9.8125 0 
z
" id="DejaVuSans-77"/>
      </defs>
      <g transform="translate(44.083125 914.632048)scale(0.1 -0.1)">
       <use xlink:href="#DejaVuSans-68"/>
       <use x="77.001953" xlink:href="#DejaVuSans-69"/>
       <use x="140.185547" xlink:href="#DejaVuSans-77"/>
      </g>
     </g>
    </g>
    <g id="ytick_5">
     <g id="line2d_14">
      <g>
       <use style="stroke:#000000;stroke-width:0.8;" x="73.73" xlink:href="#m715b69f6f6" y="883.806198"/>
      </g>
     </g>
     <g id="text_15">
      <!-- PPL -->
      <g transform="translate(49.09875 887.605417)scale(0.1 -0.1)">
       <use xlink:href="#DejaVuSans-80"/>
       <use x="60.302734" xlink:href="#DejaVuSans-80"/>
       <use x="120.605469" xlink:href="#DejaVuSans-76"/>
      </g>
     </g>
    </g>
    <g id="ytick_6">
     <g id="line2d_15">
      <g>
       <use style="stroke:#000000;stroke-width:0.8;" x="73.73" xlink:href="#m715b69f6f6" y="856.779568"/>
      </g>
     </g>
     <g id="text_16">
      <!-- REDE -->
      <defs>
       <path d="M 44.390625 34.1875 
Q 47.5625 33.109375 50.5625 29.59375 
Q 53.5625 26.078125 56.59375 19.921875 
L 66.609375 0 
L 56 0 
L 46.6875 18.703125 
Q 43.0625 26.03125 39.671875 28.421875 
Q 36.28125 30.8125 30.421875 30.8125 
L 19.671875 30.8125 
L 19.671875 0 
L 9.8125 0 
L 9.8125 72.90625 
L 32.078125 72.90625 
Q 44.578125 72.90625 50.734375 67.671875 
Q 56.890625 62.453125 56.890625 51.90625 
Q 56.890625 45.015625 53.6875 40.46875 
Q 50.484375 35.9375 44.390625 34.1875 
z
M 19.671875 64.796875 
L 19.671875 38.921875 
L 32.078125 38.921875 
Q 39.203125 38.921875 42.84375 42.21875 
Q 46.484375 45.515625 46.484375 51.90625 
Q 46.484375 58.296875 42.84375 61.546875 
Q 39.203125 64.796875 32.078125 64.796875 
z
" id="DejaVuSans-82"/>
      </defs>
      <g transform="translate(39.444063 860.578787)scale(0.1 -0.1)">
       <use xlink:href="#DejaVuSans-82"/>
       <use x="69.482422" xlink:href="#DejaVuSans-69"/>
       <use x="132.666016" xlink:href="#DejaVuSans-68"/>
       <use x="209.667969" xlink:href="#DejaVuSans-69"/>
      </g>
     </g>
    </g>
    <g id="ytick_7">
     <g id="line2d_16">
      <g>
       <use style="stroke:#000000;stroke-width:0.8;" x="73.73" xlink:href="#m715b69f6f6" y="829.752937"/>
      </g>
     </g>
     <g id="text_17">
      <!-- PSD -->
      <g transform="translate(46.651875 833.552156)scale(0.1 -0.1)">
       <use xlink:href="#DejaVuSans-80"/>
       <use x="60.302734" xlink:href="#DejaVuSans-83"/>
       <use x="123.779297" xlink:href="#DejaVuSans-68"/>
      </g>
     </g>
    </g>
    <g id="ytick_8">
     <g id="line2d_17">
      <g>
       <use style="stroke:#000000;stroke-width:0.8;" x="73.73" xlink:href="#m715b69f6f6" y="802.726307"/>
      </g>
     </g>
     <g id="text_18">
      <!-- PCB -->
      <defs>
       <path d="M 64.40625 67.28125 
L 64.40625 56.890625 
Q 59.421875 61.53125 53.78125 63.8125 
Q 48.140625 66.109375 41.796875 66.109375 
Q 29.296875 66.109375 22.65625 58.46875 
Q 16.015625 50.828125 16.015625 36.375 
Q 16.015625 21.96875 22.65625 14.328125 
Q 29.296875 6.6875 41.796875 6.6875 
Q 48.140625 6.6875 53.78125 8.984375 
Q 59.421875 11.28125 64.40625 15.921875 
L 64.40625 5.609375 
Q 59.234375 2.09375 53.4375 0.328125 
Q 47.65625 -1.421875 41.21875 -1.421875 
Q 24.65625 -1.421875 15.125 8.703125 
Q 5.609375 18.84375 5.609375 36.375 
Q 5.609375 53.953125 15.125 64.078125 
Q 24.65625 74.21875 41.21875 74.21875 
Q 47.75 74.21875 53.53125 72.484375 
Q 59.328125 70.75 64.40625 67.28125 
z
" id="DejaVuSans-67"/>
       <path d="M 19.671875 34.8125 
L 19.671875 8.109375 
L 35.5 8.109375 
Q 43.453125 8.109375 47.28125 11.40625 
Q 51.125 14.703125 51.125 21.484375 
Q 51.125 28.328125 47.28125 31.5625 
Q 43.453125 34.8125 35.5 34.8125 
z
M 19.671875 64.796875 
L 19.671875 42.828125 
L 34.28125 42.828125 
Q 41.5 42.828125 45.03125 45.53125 
Q 48.578125 48.25 48.578125 53.8125 
Q 48.578125 59.328125 45.03125 62.0625 
Q 41.5 64.796875 34.28125 64.796875 
z
M 9.8125 72.90625 
L 35.015625 72.90625 
Q 46.296875 72.90625 52.390625 68.21875 
Q 58.5 63.53125 58.5 54.890625 
Q 58.5 48.1875 55.375 44.234375 
Q 52.25 40.28125 46.1875 39.3125 
Q 53.46875 37.75 57.5 32.78125 
Q 61.53125 27.828125 61.53125 20.40625 
Q 61.53125 10.640625 54.890625 5.3125 
Q 48.25 0 35.984375 0 
L 9.8125 0 
z
" id="DejaVuSans-66"/>
      </defs>
      <g transform="translate(46.856563 806.525525)scale(0.1 -0.1)">
       <use xlink:href="#DejaVuSans-80"/>
       <use x="60.302734" xlink:href="#DejaVuSans-67"/>
       <use x="130.126953" xlink:href="#DejaVuSans-66"/>
      </g>
     </g>
    </g>
    <g id="ytick_9">
     <g id="line2d_18">
      <g>
       <use style="stroke:#000000;stroke-width:0.8;" x="73.73" xlink:href="#m715b69f6f6" y="775.699676"/>
      </g>
     </g>
     <g id="text_19">
      <!-- PROS -->
      <g transform="translate(39.531563 779.498895)scale(0.1 -0.1)">
       <use xlink:href="#DejaVuSans-80"/>
       <use x="60.302734" xlink:href="#DejaVuSans-82"/>
       <use x="129.785156" xlink:href="#DejaVuSans-79"/>
       <use x="208.496094" xlink:href="#DejaVuSans-83"/>
      </g>
     </g>
    </g>
    <g id="ytick_10">
     <g id="line2d_19">
      <g>
       <use style="stroke:#000000;stroke-width:0.8;" x="73.73" xlink:href="#m715b69f6f6" y="748.673045"/>
      </g>
     </g>
     <g id="text_20">
      <!-- PP -->
      <g transform="translate(54.670625 752.472264)scale(0.1 -0.1)">
       <use xlink:href="#DejaVuSans-80"/>
       <use x="60.302734" xlink:href="#DejaVuSans-80"/>
      </g>
     </g>
    </g>
    <g id="ytick_11">
     <g id="line2d_20">
      <g>
       <use style="stroke:#000000;stroke-width:0.8;" x="73.73" xlink:href="#m715b69f6f6" y="721.646415"/>
      </g>
     </g>
     <g id="text_21">
      <!-- PHS -->
      <defs>
       <path d="M 9.8125 72.90625 
L 19.671875 72.90625 
L 19.671875 43.015625 
L 55.515625 43.015625 
L 55.515625 72.90625 
L 65.375 72.90625 
L 65.375 0 
L 55.515625 0 
L 55.515625 34.71875 
L 19.671875 34.71875 
L 19.671875 0 
L 9.8125 0 
z
" id="DejaVuSans-72"/>
      </defs>
      <g transform="translate(46.831563 725.445633)scale(0.1 -0.1)">
       <use xlink:href="#DejaVuSans-80"/>
       <use x="60.302734" xlink:href="#DejaVuSans-72"/>
       <use x="135.498047" xlink:href="#DejaVuSans-83"/>
      </g>
     </g>
    </g>
    <g id="ytick_12">
     <g id="line2d_21">
      <g>
       <use style="stroke:#000000;stroke-width:0.8;" x="73.73" xlink:href="#m715b69f6f6" y="694.619784"/>
      </g>
     </g>
     <g id="text_22">
      <!-- PMN -->
      <g transform="translate(44.590938 698.419003)scale(0.1 -0.1)">
       <use xlink:href="#DejaVuSans-80"/>
       <use x="60.302734" xlink:href="#DejaVuSans-77"/>
       <use x="146.582031" xlink:href="#DejaVuSans-78"/>
      </g>
     </g>
    </g>
    <g id="ytick_13">
     <g id="line2d_22">
      <g>
       <use style="stroke:#000000;stroke-width:0.8;" x="73.73" xlink:href="#m715b69f6f6" y="667.593153"/>
      </g>
     </g>
     <g id="text_23">
      <!-- PDT -->
      <g transform="translate(46.8925 671.392372)scale(0.1 -0.1)">
       <use xlink:href="#DejaVuSans-80"/>
       <use x="60.302734" xlink:href="#DejaVuSans-68"/>
       <use x="137.304688" xlink:href="#DejaVuSans-84"/>
      </g>
     </g>
    </g>
    <g id="ytick_14">
     <g id="line2d_23">
      <g>
       <use style="stroke:#000000;stroke-width:0.8;" x="73.73" xlink:href="#m715b69f6f6" y="640.566523"/>
      </g>
     </g>
     <g id="text_24">
      <!-- PATRI -->
      <defs>
       <path d="M 9.8125 72.90625 
L 19.671875 72.90625 
L 19.671875 0 
L 9.8125 0 
z
" id="DejaVuSans-73"/>
      </defs>
      <g transform="translate(37.87375 644.365741)scale(0.1 -0.1)">
       <use xlink:href="#DejaVuSans-80"/>
       <use x="60.208984" xlink:href="#DejaVuSans-65"/>
       <use x="128.507812" xlink:href="#DejaVuSans-84"/>
       <use x="189.591797" xlink:href="#DejaVuSans-82"/>
       <use x="259.074219" xlink:href="#DejaVuSans-73"/>
      </g>
     </g>
    </g>
    <g id="ytick_15">
     <g id="line2d_24">
      <g>
       <use style="stroke:#000000;stroke-width:0.8;" x="73.73" xlink:href="#m715b69f6f6" y="613.539892"/>
      </g>
     </g>
     <g id="text_25">
      <!-- DC -->
      <g transform="translate(52.047188 617.339111)scale(0.1 -0.1)">
       <use xlink:href="#DejaVuSans-68"/>
       <use x="77.001953" xlink:href="#DejaVuSans-67"/>
      </g>
     </g>
    </g>
    <g id="ytick_16">
     <g id="line2d_25">
      <g>
       <use style="stroke:#000000;stroke-width:0.8;" x="73.73" xlink:href="#m715b69f6f6" y="586.513261"/>
      </g>
     </g>
     <g id="text_26">
      <!-- PPS -->
      <g transform="translate(48.322187 590.31248)scale(0.1 -0.1)">
       <use xlink:href="#DejaVuSans-80"/>
       <use x="60.302734" xlink:href="#DejaVuSans-80"/>
       <use x="120.605469" xlink:href="#DejaVuSans-83"/>
      </g>
     </g>
    </g>
    <g id="ytick_17">
     <g id="line2d_26">
      <g>
       <use style="stroke:#000000;stroke-width:0.8;" x="73.73" xlink:href="#m715b69f6f6" y="559.486631"/>
      </g>
     </g>
     <g id="text_27">
      <!-- PSC -->
      <g transform="translate(47.369062 563.285849)scale(0.1 -0.1)">
       <use xlink:href="#DejaVuSans-80"/>
       <use x="60.302734" xlink:href="#DejaVuSans-83"/>
       <use x="123.779297" xlink:href="#DejaVuSans-67"/>
      </g>
     </g>
    </g>
    <g id="ytick_18">
     <g id="line2d_27">
      <g>
       <use style="stroke:#000000;stroke-width:0.8;" x="73.73" xlink:href="#m715b69f6f6" y="532.46"/>
      </g>
     </g>
     <g id="text_28">
      <!-- PRTB -->
      <g transform="translate(40.794063 536.259219)scale(0.1 -0.1)">
       <use xlink:href="#DejaVuSans-80"/>
       <use x="60.302734" xlink:href="#DejaVuSans-82"/>
       <use x="129.675781" xlink:href="#DejaVuSans-84"/>
       <use x="190.759766" xlink:href="#DejaVuSans-66"/>
      </g>
     </g>
    </g>
    <g id="ytick_19">
     <g id="line2d_28">
      <g>
       <use style="stroke:#000000;stroke-width:0.8;" x="73.73" xlink:href="#m715b69f6f6" y="505.433369"/>
      </g>
     </g>
     <g id="text_29">
      <!-- PTC -->
      <g transform="translate(47.6175 509.232588)scale(0.1 -0.1)">
       <use xlink:href="#DejaVuSans-80"/>
       <use x="60.302734" xlink:href="#DejaVuSans-84"/>
       <use x="121.308594" xlink:href="#DejaVuSans-67"/>
      </g>
     </g>
    </g>
    <g id="ytick_20">
     <g id="line2d_29">
      <g>
       <use style="stroke:#000000;stroke-width:0.8;" x="73.73" xlink:href="#m715b69f6f6" y="478.406739"/>
      </g>
     </g>
     <g id="text_30">
      <!-- PR -->
      <g transform="translate(53.751875 482.205957)scale(0.1 -0.1)">
       <use xlink:href="#DejaVuSans-80"/>
       <use x="60.302734" xlink:href="#DejaVuSans-82"/>
      </g>
     </g>
    </g>
    <g id="ytick_21">
     <g id="line2d_30">
      <g>
       <use style="stroke:#000000;stroke-width:0.8;" x="73.73" xlink:href="#m715b69f6f6" y="451.380108"/>
      </g>
     </g>
     <g id="text_31">
      <!-- PSB -->
      <g transform="translate(47.490938 455.179327)scale(0.1 -0.1)">
       <use xlink:href="#DejaVuSans-80"/>
       <use x="60.302734" xlink:href="#DejaVuSans-83"/>
       <use x="123.779297" xlink:href="#DejaVuSans-66"/>
      </g>
     </g>
    </g>
    <g id="ytick_22">
     <g id="line2d_31">
      <g>
       <use style="stroke:#000000;stroke-width:0.8;" x="73.73" xlink:href="#m715b69f6f6" y="424.353477"/>
      </g>
     </g>
     <g id="text_32">
      <!-- SD -->
      <g transform="translate(52.681563 428.152696)scale(0.1 -0.1)">
       <use xlink:href="#DejaVuSans-83"/>
       <use x="63.476562" xlink:href="#DejaVuSans-68"/>
      </g>
     </g>
    </g>
    <g id="ytick_23">
     <g id="line2d_32">
      <g>
       <use style="stroke:#000000;stroke-width:0.8;" x="73.73" xlink:href="#m715b69f6f6" y="397.326847"/>
      </g>
     </g>
     <g id="text_33">
      <!-- PRP -->
      <g transform="translate(47.722188 401.126065)scale(0.1 -0.1)">
       <use xlink:href="#DejaVuSans-80"/>
       <use x="60.302734" xlink:href="#DejaVuSans-82"/>
       <use x="129.785156" xlink:href="#DejaVuSans-80"/>
      </g>
     </g>
    </g>
    <g id="ytick_24">
     <g id="line2d_33">
      <g>
       <use style="stroke:#000000;stroke-width:0.8;" x="73.73" xlink:href="#m715b69f6f6" y="370.300216"/>
      </g>
     </g>
     <g id="text_34">
      <!-- NOVO -->
      <g transform="translate(36.6675 374.099435)scale(0.1 -0.1)">
       <use xlink:href="#DejaVuSans-78"/>
       <use x="74.804688" xlink:href="#DejaVuSans-79"/>
       <use x="153.5" xlink:href="#DejaVuSans-86"/>
       <use x="221.892578" xlink:href="#DejaVuSans-79"/>
      </g>
     </g>
    </g>
    <g id="ytick_25">
     <g id="line2d_34">
      <g>
       <use style="stroke:#000000;stroke-width:0.8;" x="73.73" xlink:href="#m715b69f6f6" y="343.273585"/>
      </g>
     </g>
     <g id="text_35">
      <!-- PRB -->
      <g transform="translate(46.890938 347.072804)scale(0.1 -0.1)">
       <use xlink:href="#DejaVuSans-80"/>
       <use x="60.302734" xlink:href="#DejaVuSans-82"/>
       <use x="129.785156" xlink:href="#DejaVuSans-66"/>
      </g>
     </g>
    </g>
    <g id="ytick_26">
     <g id="line2d_35">
      <g>
       <use style="stroke:#000000;stroke-width:0.8;" x="73.73" xlink:href="#m715b69f6f6" y="316.246955"/>
      </g>
     </g>
     <g id="text_36">
      <!-- PSDB -->
      <g transform="translate(39.790937 320.046174)scale(0.1 -0.1)">
       <use xlink:href="#DejaVuSans-80"/>
       <use x="60.302734" xlink:href="#DejaVuSans-83"/>
       <use x="123.779297" xlink:href="#DejaVuSans-68"/>
       <use x="200.78125" xlink:href="#DejaVuSans-66"/>
      </g>
     </g>
    </g>
    <g id="ytick_27">
     <g id="line2d_36">
      <g>
       <use style="stroke:#000000;stroke-width:0.8;" x="73.73" xlink:href="#m715b69f6f6" y="289.220324"/>
      </g>
     </g>
     <g id="text_37">
      <!-- PTB -->
      <g transform="translate(47.731563 293.019543)scale(0.1 -0.1)">
       <use xlink:href="#DejaVuSans-80"/>
       <use x="60.302734" xlink:href="#DejaVuSans-84"/>
       <use x="121.386719" xlink:href="#DejaVuSans-66"/>
      </g>
     </g>
    </g>
    <g id="ytick_28">
     <g id="line2d_37">
      <g>
       <use style="stroke:#000000;stroke-width:0.8;" x="73.73" xlink:href="#m715b69f6f6" y="262.193693"/>
      </g>
     </g>
     <g id="text_38">
      <!-- PT -->
      <g transform="translate(54.5925 265.992912)scale(0.1 -0.1)">
       <use xlink:href="#DejaVuSans-80"/>
       <use x="60.302734" xlink:href="#DejaVuSans-84"/>
      </g>
     </g>
    </g>
    <g id="ytick_29">
     <g id="line2d_38">
      <g>
       <use style="stroke:#000000;stroke-width:0.8;" x="73.73" xlink:href="#m715b69f6f6" y="235.167063"/>
      </g>
     </g>
     <g id="text_39">
      <!-- PSOL -->
      <g transform="translate(40.908125 238.966282)scale(0.1 -0.1)">
       <use xlink:href="#DejaVuSans-80"/>
       <use x="60.302734" xlink:href="#DejaVuSans-83"/>
       <use x="123.779297" xlink:href="#DejaVuSans-79"/>
       <use x="202.490234" xlink:href="#DejaVuSans-76"/>
      </g>
     </g>
    </g>
    <g id="ytick_30">
     <g id="line2d_39">
      <g>
       <use style="stroke:#000000;stroke-width:0.8;" x="73.73" xlink:href="#m715b69f6f6" y="208.140432"/>
      </g>
     </g>
     <g id="text_40">
      <!-- PV -->
      <g transform="translate(53.859688 211.939651)scale(0.1 -0.1)">
       <use xlink:href="#DejaVuSans-80"/>
       <use x="60.302734" xlink:href="#DejaVuSans-86"/>
      </g>
     </g>
    </g>
    <g id="ytick_31">
     <g id="line2d_40">
      <g>
       <use style="stroke:#000000;stroke-width:0.8;" x="73.73" xlink:href="#m715b69f6f6" y="181.113802"/>
      </g>
     </g>
     <g id="text_41">
      <!-- MDB -->
      <g transform="translate(43.540937 184.91302)scale(0.1 -0.1)">
       <use xlink:href="#DejaVuSans-77"/>
       <use x="86.279297" xlink:href="#DejaVuSans-68"/>
       <use x="163.28125" xlink:href="#DejaVuSans-66"/>
      </g>
     </g>
    </g>
    <g id="ytick_32">
     <g id="line2d_41">
      <g>
       <use style="stroke:#000000;stroke-width:0.8;" x="73.73" xlink:href="#m715b69f6f6" y="154.087171"/>
      </g>
     </g>
     <g id="text_42">
      <!-- PC DO B -->
      <defs>
       <path id="DejaVuSans-32"/>
      </defs>
      <g transform="translate(24.928438 157.88639)scale(0.1 -0.1)">
       <use xlink:href="#DejaVuSans-80"/>
       <use x="60.302734" xlink:href="#DejaVuSans-67"/>
       <use x="130.126953" xlink:href="#DejaVuSans-32"/>
       <use x="161.914062" xlink:href="#DejaVuSans-68"/>
       <use x="238.916016" xlink:href="#DejaVuSans-79"/>
       <use x="317.626953" xlink:href="#DejaVuSans-32"/>
       <use x="349.414062" xlink:href="#DejaVuSans-66"/>
      </g>
     </g>
    </g>
    <g id="ytick_33">
     <g id="line2d_42">
      <g>
       <use style="stroke:#000000;stroke-width:0.8;" x="73.73" xlink:href="#m715b69f6f6" y="127.06054"/>
      </g>
     </g>
     <g id="text_43">
      <!-- PCO -->
      <g transform="translate(45.845625 130.859759)scale(0.1 -0.1)">
       <use xlink:href="#DejaVuSans-80"/>
       <use x="60.302734" xlink:href="#DejaVuSans-67"/>
       <use x="130.126953" xlink:href="#DejaVuSans-79"/>
      </g>
     </g>
    </g>
    <g id="ytick_34">
     <g id="line2d_43">
      <g>
       <use style="stroke:#000000;stroke-width:0.8;" x="73.73" xlink:href="#m715b69f6f6" y="100.03391"/>
      </g>
     </g>
     <g id="text_44">
      <!-- PSTU -->
      <defs>
       <path d="M 8.6875 72.90625 
L 18.609375 72.90625 
L 18.609375 28.609375 
Q 18.609375 16.890625 22.84375 11.734375 
Q 27.09375 6.59375 36.625 6.59375 
Q 46.09375 6.59375 50.34375 11.734375 
Q 54.59375 16.890625 54.59375 28.609375 
L 54.59375 72.90625 
L 64.5 72.90625 
L 64.5 27.390625 
Q 64.5 13.140625 57.4375 5.859375 
Q 50.390625 -1.421875 36.625 -1.421875 
Q 22.796875 -1.421875 15.734375 5.859375 
Q 8.6875 13.140625 8.6875 27.390625 
z
" id="DejaVuSans-85"/>
      </defs>
      <g transform="translate(40.925313 103.833128)scale(0.1 -0.1)">
       <use xlink:href="#DejaVuSans-80"/>
       <use x="60.302734" xlink:href="#DejaVuSans-83"/>
       <use x="123.779297" xlink:href="#DejaVuSans-84"/>
       <use x="184.863281" xlink:href="#DejaVuSans-85"/>
      </g>
     </g>
    </g>
    <g id="ytick_35">
     <g id="line2d_44">
      <g>
       <use style="stroke:#000000;stroke-width:0.8;" x="73.73" xlink:href="#m715b69f6f6" y="73.007279"/>
      </g>
     </g>
     <g id="text_45">
      <!-- PMB -->
      <g transform="translate(45.21125 76.806498)scale(0.1 -0.1)">
       <use xlink:href="#DejaVuSans-80"/>
       <use x="60.302734" xlink:href="#DejaVuSans-77"/>
       <use x="146.582031" xlink:href="#DejaVuSans-66"/>
      </g>
     </g>
    </g>
    <g id="text_46">
     <!-- Partidos -->
     <defs>
      <path d="M 18.3125 70.21875 
L 18.3125 54.6875 
L 36.8125 54.6875 
L 36.8125 47.703125 
L 18.3125 47.703125 
L 18.3125 18.015625 
Q 18.3125 11.328125 20.140625 9.421875 
Q 21.96875 7.515625 27.59375 7.515625 
L 36.8125 7.515625 
L 36.8125 0 
L 27.59375 0 
Q 17.1875 0 13.234375 3.875 
Q 9.28125 7.765625 9.28125 18.015625 
L 9.28125 47.703125 
L 2.6875 47.703125 
L 2.6875 54.6875 
L 9.28125 54.6875 
L 9.28125 70.21875 
z
" id="DejaVuSans-116"/>
      <path d="M 9.421875 54.6875 
L 18.40625 54.6875 
L 18.40625 0 
L 9.421875 0 
z
M 9.421875 75.984375 
L 18.40625 75.984375 
L 18.40625 64.59375 
L 9.421875 64.59375 
z
" id="DejaVuSans-105"/>
      <path d="M 45.40625 46.390625 
L 45.40625 75.984375 
L 54.390625 75.984375 
L 54.390625 0 
L 45.40625 0 
L 45.40625 8.203125 
Q 42.578125 3.328125 38.25 0.953125 
Q 33.9375 -1.421875 27.875 -1.421875 
Q 17.96875 -1.421875 11.734375 6.484375 
Q 5.515625 14.40625 5.515625 27.296875 
Q 5.515625 40.1875 11.734375 48.09375 
Q 17.96875 56 27.875 56 
Q 33.9375 56 38.25 53.625 
Q 42.578125 51.265625 45.40625 46.390625 
z
M 14.796875 27.296875 
Q 14.796875 17.390625 18.875 11.75 
Q 22.953125 6.109375 30.078125 6.109375 
Q 37.203125 6.109375 41.296875 11.75 
Q 45.40625 17.390625 45.40625 27.296875 
Q 45.40625 37.203125 41.296875 42.84375 
Q 37.203125 48.484375 30.078125 48.484375 
Q 22.953125 48.484375 18.875 42.84375 
Q 14.796875 37.203125 14.796875 27.296875 
z
" id="DejaVuSans-100"/>
      <path d="M 44.28125 53.078125 
L 44.28125 44.578125 
Q 40.484375 46.53125 36.375 47.5 
Q 32.28125 48.484375 27.875 48.484375 
Q 21.1875 48.484375 17.84375 46.4375 
Q 14.5 44.390625 14.5 40.28125 
Q 14.5 37.15625 16.890625 35.375 
Q 19.28125 33.59375 26.515625 31.984375 
L 29.59375 31.296875 
Q 39.15625 29.25 43.1875 25.515625 
Q 47.21875 21.78125 47.21875 15.09375 
Q 47.21875 7.46875 41.1875 3.015625 
Q 35.15625 -1.421875 24.609375 -1.421875 
Q 20.21875 -1.421875 15.453125 -0.5625 
Q 10.6875 0.296875 5.421875 2 
L 5.421875 11.28125 
Q 10.40625 8.6875 15.234375 7.390625 
Q 20.0625 6.109375 24.8125 6.109375 
Q 31.15625 6.109375 34.5625 8.28125 
Q 37.984375 10.453125 37.984375 14.40625 
Q 37.984375 18.0625 35.515625 20.015625 
Q 33.0625 21.96875 24.703125 23.78125 
L 21.578125 24.515625 
Q 13.234375 26.265625 9.515625 29.90625 
Q 5.8125 33.546875 5.8125 39.890625 
Q 5.8125 47.609375 11.28125 51.796875 
Q 16.75 56 26.8125 56 
Q 31.78125 56 36.171875 55.265625 
Q 40.578125 54.546875 44.28125 53.078125 
z
" id="DejaVuSans-115"/>
     </defs>
     <g transform="translate(18.84875 552.77875)rotate(-90)scale(0.1 -0.1)">
      <use xlink:href="#DejaVuSans-80"/>
      <use x="60.240234" xlink:href="#DejaVuSans-97"/>
      <use x="121.519531" xlink:href="#DejaVuSans-114"/>
      <use x="162.632812" xlink:href="#DejaVuSans-116"/>
      <use x="201.841797" xlink:href="#DejaVuSans-105"/>
      <use x="229.625" xlink:href="#DejaVuSans-100"/>
      <use x="293.101562" xlink:href="#DejaVuSans-111"/>
      <use x="354.283203" xlink:href="#DejaVuSans-115"/>
     </g>
    </g>
   </g>
   <g id="line2d_45">
    <path clip-path="url(#p221f07f255)" d="M 387.505 1038.04 
L 387.505 26.88 
" style="fill:none;stroke:#000000;stroke-dasharray:14.8,6.4;stroke-dashoffset:0;stroke-width:4;"/>
   </g>
   <g id="line2d_46">
    <path clip-path="url(#p221f07f255)" d="M 240.138743 1038.04 
L 240.138743 26.88 
" style="fill:none;stroke:#008000;stroke-linecap:square;stroke-width:2;"/>
   </g>
   <g id="text_47">
    <!-- Proporcao de genero dos Candidatos a Eleicao -->
    <defs>
     <path d="M 56.203125 29.59375 
L 56.203125 25.203125 
L 14.890625 25.203125 
Q 15.484375 15.921875 20.484375 11.0625 
Q 25.484375 6.203125 34.421875 6.203125 
Q 39.59375 6.203125 44.453125 7.46875 
Q 49.3125 8.734375 54.109375 11.28125 
L 54.109375 2.78125 
Q 49.265625 0.734375 44.1875 -0.34375 
Q 39.109375 -1.421875 33.890625 -1.421875 
Q 20.796875 -1.421875 13.15625 6.1875 
Q 5.515625 13.8125 5.515625 26.8125 
Q 5.515625 40.234375 12.765625 48.109375 
Q 20.015625 56 32.328125 56 
Q 43.359375 56 49.78125 48.890625 
Q 56.203125 41.796875 56.203125 29.59375 
z
M 47.21875 32.234375 
Q 47.125 39.59375 43.09375 43.984375 
Q 39.0625 48.390625 32.421875 48.390625 
Q 24.90625 48.390625 20.390625 44.140625 
Q 15.875 39.890625 15.1875 32.171875 
z
" id="DejaVuSans-101"/>
     <path d="M 45.40625 27.984375 
Q 45.40625 37.75 41.375 43.109375 
Q 37.359375 48.484375 30.078125 48.484375 
Q 22.859375 48.484375 18.828125 43.109375 
Q 14.796875 37.75 14.796875 27.984375 
Q 14.796875 18.265625 18.828125 12.890625 
Q 22.859375 7.515625 30.078125 7.515625 
Q 37.359375 7.515625 41.375 12.890625 
Q 45.40625 18.265625 45.40625 27.984375 
z
M 54.390625 6.78125 
Q 54.390625 -7.171875 48.1875 -13.984375 
Q 42 -20.796875 29.203125 -20.796875 
Q 24.46875 -20.796875 20.265625 -20.09375 
Q 16.0625 -19.390625 12.109375 -17.921875 
L 12.109375 -9.1875 
Q 16.0625 -11.328125 19.921875 -12.34375 
Q 23.78125 -13.375 27.78125 -13.375 
Q 36.625 -13.375 41.015625 -8.765625 
Q 45.40625 -4.15625 45.40625 5.171875 
L 45.40625 9.625 
Q 42.625 4.78125 38.28125 2.390625 
Q 33.9375 0 27.875 0 
Q 17.828125 0 11.671875 7.65625 
Q 5.515625 15.328125 5.515625 27.984375 
Q 5.515625 40.671875 11.671875 48.328125 
Q 17.828125 56 27.875 56 
Q 33.9375 56 38.28125 53.609375 
Q 42.625 51.21875 45.40625 46.390625 
L 45.40625 54.6875 
L 54.390625 54.6875 
z
" id="DejaVuSans-103"/>
     <path d="M 54.890625 33.015625 
L 54.890625 0 
L 45.90625 0 
L 45.90625 32.71875 
Q 45.90625 40.484375 42.875 44.328125 
Q 39.84375 48.1875 33.796875 48.1875 
Q 26.515625 48.1875 22.3125 43.546875 
Q 18.109375 38.921875 18.109375 30.90625 
L 18.109375 0 
L 9.078125 0 
L 9.078125 54.6875 
L 18.109375 54.6875 
L 18.109375 46.1875 
Q 21.34375 51.125 25.703125 53.5625 
Q 30.078125 56 35.796875 56 
Q 45.21875 56 50.046875 50.171875 
Q 54.890625 44.34375 54.890625 33.015625 
z
" id="DejaVuSans-110"/>
     <path d="M 9.421875 75.984375 
L 18.40625 75.984375 
L 18.40625 0 
L 9.421875 0 
z
" id="DejaVuSans-108"/>
    </defs>
    <g transform="translate(247.559687 20.88)scale(0.12 -0.12)">
     <use xlink:href="#DejaVuSans-80"/>
     <use x="60.287109" xlink:href="#DejaVuSans-114"/>
     <use x="101.369141" xlink:href="#DejaVuSans-111"/>
     <use x="162.550781" xlink:href="#DejaVuSans-112"/>
     <use x="226.027344" xlink:href="#DejaVuSans-111"/>
     <use x="287.208984" xlink:href="#DejaVuSans-114"/>
     <use x="328.291016" xlink:href="#DejaVuSans-99"/>
     <use x="383.271484" xlink:href="#DejaVuSans-97"/>
     <use x="444.550781" xlink:href="#DejaVuSans-111"/>
     <use x="505.732422" xlink:href="#DejaVuSans-32"/>
     <use x="537.519531" xlink:href="#DejaVuSans-100"/>
     <use x="600.996094" xlink:href="#DejaVuSans-101"/>
     <use x="662.519531" xlink:href="#DejaVuSans-32"/>
     <use x="694.306641" xlink:href="#DejaVuSans-103"/>
     <use x="757.783203" xlink:href="#DejaVuSans-101"/>
     <use x="819.306641" xlink:href="#DejaVuSans-110"/>
     <use x="882.685547" xlink:href="#DejaVuSans-101"/>
     <use x="944.208984" xlink:href="#DejaVuSans-114"/>
     <use x="985.291016" xlink:href="#DejaVuSans-111"/>
     <use x="1046.472656" xlink:href="#DejaVuSans-32"/>
     <use x="1078.259766" xlink:href="#DejaVuSans-100"/>
     <use x="1141.736328" xlink:href="#DejaVuSans-111"/>
     <use x="1202.917969" xlink:href="#DejaVuSans-115"/>
     <use x="1255.017578" xlink:href="#DejaVuSans-32"/>
     <use x="1286.804688" xlink:href="#DejaVuSans-67"/>
     <use x="1356.628906" xlink:href="#DejaVuSans-97"/>
     <use x="1417.908203" xlink:href="#DejaVuSans-110"/>
     <use x="1481.287109" xlink:href="#DejaVuSans-100"/>
     <use x="1544.763672" xlink:href="#DejaVuSans-105"/>
     <use x="1572.546875" xlink:href="#DejaVuSans-100"/>
     <use x="1636.023438" xlink:href="#DejaVuSans-97"/>
     <use x="1697.302734" xlink:href="#DejaVuSans-116"/>
     <use x="1736.511719" xlink:href="#DejaVuSans-111"/>
     <use x="1797.693359" xlink:href="#DejaVuSans-115"/>
     <use x="1849.792969" xlink:href="#DejaVuSans-32"/>
     <use x="1881.580078" xlink:href="#DejaVuSans-97"/>
     <use x="1942.859375" xlink:href="#DejaVuSans-32"/>
     <use x="1974.646484" xlink:href="#DejaVuSans-69"/>
     <use x="2037.830078" xlink:href="#DejaVuSans-108"/>
     <use x="2065.613281" xlink:href="#DejaVuSans-101"/>
     <use x="2127.136719" xlink:href="#DejaVuSans-105"/>
     <use x="2154.919922" xlink:href="#DejaVuSans-99"/>
     <use x="2209.900391" xlink:href="#DejaVuSans-97"/>
     <use x="2271.179688" xlink:href="#DejaVuSans-111"/>
    </g>
   </g>
   <g id="legend_1">
    <g id="patch_3">
     <path d="M 497.437812 64.23625 
L 694.28 64.23625 
Q 696.28 64.23625 696.28 62.23625 
L 696.28 33.88 
Q 696.28 31.88 694.28 31.88 
L 497.437812 31.88 
Q 495.437812 31.88 495.437812 33.88 
L 495.437812 62.23625 
Q 495.437812 64.23625 497.437812 64.23625 
z
" style="fill:#ffffff;opacity:0.8;stroke:#cccccc;stroke-linejoin:miter;"/>
    </g>
    <g id="line2d_47">
     <path d="M 499.437812 39.978437 
L 519.437812 39.978437 
" style="fill:none;stroke:#000000;stroke-dasharray:14.8,6.4;stroke-dashoffset:0;stroke-width:4;"/>
    </g>
    <g id="line2d_48"/>
    <g id="text_48">
     <!-- Equidade de mulheres e homens -->
     <defs>
      <path d="M 14.796875 27.296875 
Q 14.796875 17.390625 18.875 11.75 
Q 22.953125 6.109375 30.078125 6.109375 
Q 37.203125 6.109375 41.296875 11.75 
Q 45.40625 17.390625 45.40625 27.296875 
Q 45.40625 37.203125 41.296875 42.84375 
Q 37.203125 48.484375 30.078125 48.484375 
Q 22.953125 48.484375 18.875 42.84375 
Q 14.796875 37.203125 14.796875 27.296875 
z
M 45.40625 8.203125 
Q 42.578125 3.328125 38.25 0.953125 
Q 33.9375 -1.421875 27.875 -1.421875 
Q 17.96875 -1.421875 11.734375 6.484375 
Q 5.515625 14.40625 5.515625 27.296875 
Q 5.515625 40.1875 11.734375 48.09375 
Q 17.96875 56 27.875 56 
Q 33.9375 56 38.25 53.625 
Q 42.578125 51.265625 45.40625 46.390625 
L 45.40625 54.6875 
L 54.390625 54.6875 
L 54.390625 -20.796875 
L 45.40625 -20.796875 
z
" id="DejaVuSans-113"/>
      <path d="M 8.5 21.578125 
L 8.5 54.6875 
L 17.484375 54.6875 
L 17.484375 21.921875 
Q 17.484375 14.15625 20.5 10.265625 
Q 23.53125 6.390625 29.59375 6.390625 
Q 36.859375 6.390625 41.078125 11.03125 
Q 45.3125 15.671875 45.3125 23.6875 
L 45.3125 54.6875 
L 54.296875 54.6875 
L 54.296875 0 
L 45.3125 0 
L 45.3125 8.40625 
Q 42.046875 3.421875 37.71875 1 
Q 33.40625 -1.421875 27.6875 -1.421875 
Q 18.265625 -1.421875 13.375 4.4375 
Q 8.5 10.296875 8.5 21.578125 
z
M 31.109375 56 
z
" id="DejaVuSans-117"/>
      <path d="M 52 44.1875 
Q 55.375 50.25 60.0625 53.125 
Q 64.75 56 71.09375 56 
Q 79.640625 56 84.28125 50.015625 
Q 88.921875 44.046875 88.921875 33.015625 
L 88.921875 0 
L 79.890625 0 
L 79.890625 32.71875 
Q 79.890625 40.578125 77.09375 44.375 
Q 74.3125 48.1875 68.609375 48.1875 
Q 61.625 48.1875 57.5625 43.546875 
Q 53.515625 38.921875 53.515625 30.90625 
L 53.515625 0 
L 44.484375 0 
L 44.484375 32.71875 
Q 44.484375 40.625 41.703125 44.40625 
Q 38.921875 48.1875 33.109375 48.1875 
Q 26.21875 48.1875 22.15625 43.53125 
Q 18.109375 38.875 18.109375 30.90625 
L 18.109375 0 
L 9.078125 0 
L 9.078125 54.6875 
L 18.109375 54.6875 
L 18.109375 46.1875 
Q 21.1875 51.21875 25.484375 53.609375 
Q 29.78125 56 35.6875 56 
Q 41.65625 56 45.828125 52.96875 
Q 50 49.953125 52 44.1875 
z
" id="DejaVuSans-109"/>
      <path d="M 54.890625 33.015625 
L 54.890625 0 
L 45.90625 0 
L 45.90625 32.71875 
Q 45.90625 40.484375 42.875 44.328125 
Q 39.84375 48.1875 33.796875 48.1875 
Q 26.515625 48.1875 22.3125 43.546875 
Q 18.109375 38.921875 18.109375 30.90625 
L 18.109375 0 
L 9.078125 0 
L 9.078125 75.984375 
L 18.109375 75.984375 
L 18.109375 46.1875 
Q 21.34375 51.125 25.703125 53.5625 
Q 30.078125 56 35.796875 56 
Q 45.21875 56 50.046875 50.171875 
Q 54.890625 44.34375 54.890625 33.015625 
z
" id="DejaVuSans-104"/>
     </defs>
     <g transform="translate(527.437812 43.478437)scale(0.1 -0.1)">
      <use xlink:href="#DejaVuSans-69"/>
      <use x="63.183594" xlink:href="#DejaVuSans-113"/>
      <use x="126.660156" xlink:href="#DejaVuSans-117"/>
      <use x="190.039062" xlink:href="#DejaVuSans-105"/>
      <use x="217.822266" xlink:href="#DejaVuSans-100"/>
      <use x="281.298828" xlink:href="#DejaVuSans-97"/>
      <use x="342.578125" xlink:href="#DejaVuSans-100"/>
      <use x="406.054688" xlink:href="#DejaVuSans-101"/>
      <use x="467.578125" xlink:href="#DejaVuSans-32"/>
      <use x="499.365234" xlink:href="#DejaVuSans-100"/>
      <use x="562.841797" xlink:href="#DejaVuSans-101"/>
      <use x="624.365234" xlink:href="#DejaVuSans-32"/>
      <use x="656.152344" xlink:href="#DejaVuSans-109"/>
      <use x="753.564453" xlink:href="#DejaVuSans-117"/>
      <use x="816.943359" xlink:href="#DejaVuSans-108"/>
      <use x="844.726562" xlink:href="#DejaVuSans-104"/>
      <use x="908.105469" xlink:href="#DejaVuSans-101"/>
      <use x="969.628906" xlink:href="#DejaVuSans-114"/>
      <use x="1010.710938" xlink:href="#DejaVuSans-101"/>
      <use x="1072.234375" xlink:href="#DejaVuSans-115"/>
      <use x="1124.333984" xlink:href="#DejaVuSans-32"/>
      <use x="1156.121094" xlink:href="#DejaVuSans-101"/>
      <use x="1217.644531" xlink:href="#DejaVuSans-32"/>
      <use x="1249.431641" xlink:href="#DejaVuSans-104"/>
      <use x="1312.810547" xlink:href="#DejaVuSans-111"/>
      <use x="1373.992188" xlink:href="#DejaVuSans-109"/>
      <use x="1471.404297" xlink:href="#DejaVuSans-101"/>
      <use x="1532.927734" xlink:href="#DejaVuSans-110"/>
      <use x="1596.306641" xlink:href="#DejaVuSans-115"/>
     </g>
    </g>
    <g id="line2d_49">
     <path d="M 499.437812 54.656562 
L 519.437812 54.656562 
" style="fill:none;stroke:#008000;stroke-linecap:square;stroke-width:2;"/>
    </g>
    <g id="line2d_50"/>
    <g id="text_49">
     <!-- Proporcao Media de Mulheres -->
     <g transform="translate(527.437812 58.156562)scale(0.1 -0.1)">
      <use xlink:href="#DejaVuSans-80"/>
      <use x="60.287109" xlink:href="#DejaVuSans-114"/>
      <use x="101.369141" xlink:href="#DejaVuSans-111"/>
      <use x="162.550781" xlink:href="#DejaVuSans-112"/>
      <use x="226.027344" xlink:href="#DejaVuSans-111"/>
      <use x="287.208984" xlink:href="#DejaVuSans-114"/>
      <use x="328.291016" xlink:href="#DejaVuSans-99"/>
      <use x="383.271484" xlink:href="#DejaVuSans-97"/>
      <use x="444.550781" xlink:href="#DejaVuSans-111"/>
      <use x="505.732422" xlink:href="#DejaVuSans-32"/>
      <use x="537.519531" xlink:href="#DejaVuSans-77"/>
      <use x="623.798828" xlink:href="#DejaVuSans-101"/>
      <use x="685.322266" xlink:href="#DejaVuSans-100"/>
      <use x="748.798828" xlink:href="#DejaVuSans-105"/>
      <use x="776.582031" xlink:href="#DejaVuSans-97"/>
      <use x="837.861328" xlink:href="#DejaVuSans-32"/>
      <use x="869.648438" xlink:href="#DejaVuSans-100"/>
      <use x="933.125" xlink:href="#DejaVuSans-101"/>
      <use x="994.648438" xlink:href="#DejaVuSans-32"/>
      <use x="1026.435547" xlink:href="#DejaVuSans-77"/>
      <use x="1112.714844" xlink:href="#DejaVuSans-117"/>
      <use x="1176.09375" xlink:href="#DejaVuSans-108"/>
      <use x="1203.876953" xlink:href="#DejaVuSans-104"/>
      <use x="1267.255859" xlink:href="#DejaVuSans-101"/>
      <use x="1328.779297" xlink:href="#DejaVuSans-114"/>
      <use x="1369.861328" xlink:href="#DejaVuSans-101"/>
      <use x="1431.384766" xlink:href="#DejaVuSans-115"/>
     </g>
    </g>
   </g>
  </g>
 </g>
 <defs>
  <clipPath id="p221f07f255">
   <rect height="1011.16" width="627.55" x="73.73" y="26.88"/>
  </clipPath>
 </defs>
</svg>
