<?xml version="1.0" encoding="utf-8" standalone="no"?>
<!DOCTYPE svg PUBLIC "-//W3C//DTD SVG 1.1//EN"
  "http://www.w3.org/Graphics/SVG/1.1/DTD/svg11.dtd">
<!-- Created with matplotlib (https://matplotlib.org/) -->
<svg height="648pt" version="1.1" viewBox="0 0 432 648" width="432pt" xmlns="http://www.w3.org/2000/svg" xmlns:xlink="http://www.w3.org/1999/xlink">
 <defs>
  <style type="text/css">
*{stroke-linecap:butt;stroke-linejoin:round;}
  </style>
 </defs>
 <g id="figure_1">
  <g id="patch_1">
   <path d="M 0 648 
L 432 648 
L 432 0 
L 0 0 
z
" style="fill:#ffffff;"/>
  </g>
  <g id="axes_1">
   <g id="patch_2">
    <path d="M 73.82 606.04 
L 403.965 606.04 
L 403.965 46.32 
L 73.82 46.32 
z
" style="fill:#ffffff;"/>
   </g>
   <g id="PathCollection_1">
    <path clip-path="url(#pe711b9d4d1)" d="M 149.777274 584.691173 
C 150.886698 584.691173 151.950832 584.250394 152.735313 583.465913 
C 153.519795 582.681431 153.960574 581.617297 153.960574 580.507873 
C 153.960574 579.398449 153.519795 578.334314 152.735313 577.549833 
C 151.950832 576.765352 150.886698 576.324573 149.777274 576.324573 
C 148.667849 576.324573 147.603715 576.765352 146.819234 577.549833 
C 146.034752 578.334314 145.593973 579.398449 145.593973 580.507873 
C 145.593973 581.617297 146.034752 582.681431 146.819234 583.465913 
C 147.603715 584.250394 148.667849 584.691173 149.777274 584.691173 
z
" style="fill:#ff0000;fill-opacity:0.7;stroke:#ff0000;stroke-opacity:0.7;"/>
    <path clip-path="url(#pe711b9d4d1)" d="M 149.973577 569.73071 
C 151.083001 569.73071 152.147135 569.289931 152.931616 568.50545 
C 153.716098 567.720968 154.156877 566.656834 154.156877 565.54741 
C 154.156877 564.437986 153.716098 563.373851 152.931616 562.58937 
C 152.147135 561.804889 151.083001 561.36411 149.973577 561.36411 
C 148.864152 561.36411 147.800018 561.804889 147.015537 562.58937 
C 146.231055 563.373851 145.790276 564.437986 145.790276 565.54741 
C 145.790276 566.656834 146.231055 567.720968 147.015537 568.50545 
C 147.800018 569.289931 148.864152 569.73071 149.973577 569.73071 
z
" style="fill:#ff0000;fill-opacity:0.7;stroke:#ff0000;stroke-opacity:0.7;"/>
    <path clip-path="url(#pe711b9d4d1)" d="M 150.274632 554.770247 
C 151.384056 554.770247 152.44819 554.329468 153.232671 553.544987 
C 154.017153 552.760505 154.457932 551.696371 154.457932 550.586947 
C 154.457932 549.477522 154.017153 548.413388 153.232671 547.628907 
C 152.44819 546.844425 151.384056 546.403647 150.274632 546.403647 
C 149.165207 546.403647 148.101073 546.844425 147.316592 547.628907 
C 146.53211 548.413388 146.091331 549.477522 146.091331 550.586947 
C 146.091331 551.696371 146.53211 552.760505 147.316592 553.544987 
C 148.101073 554.329468 149.165207 554.770247 150.274632 554.770247 
z
" style="fill:#ff0000;fill-opacity:0.7;stroke:#ff0000;stroke-opacity:0.7;"/>
    <path clip-path="url(#pe711b9d4d1)" d="M 150.642202 539.809784 
C 151.751626 539.809784 152.81576 539.369005 153.600242 538.584523 
C 154.384723 537.800042 154.825502 536.735908 154.825502 535.626484 
C 154.825502 534.517059 154.384723 533.452925 153.600242 532.668444 
C 152.81576 531.883962 151.751626 531.443183 150.642202 531.443183 
C 149.532778 531.443183 148.468643 531.883962 147.684162 532.668444 
C 146.899681 533.452925 146.458902 534.517059 146.458902 535.626484 
C 146.458902 536.735908 146.899681 537.800042 147.684162 538.584523 
C 148.468643 539.369005 149.532778 539.809784 150.642202 539.809784 
z
" style="fill:#ff0000;fill-opacity:0.7;stroke:#ff0000;stroke-opacity:0.7;"/>
    <path clip-path="url(#pe711b9d4d1)" d="M 150.905743 524.849321 
C 152.015167 524.849321 153.079301 524.408542 153.863783 523.62406 
C 154.648264 522.839579 155.089043 521.775445 155.089043 520.66602 
C 155.089043 519.556596 154.648264 518.492462 153.863783 517.707981 
C 153.079301 516.923499 152.015167 516.48272 150.905743 516.48272 
C 149.796319 516.48272 148.732184 516.923499 147.947703 517.707981 
C 147.163222 518.492462 146.722443 519.556596 146.722443 520.66602 
C 146.722443 521.775445 147.163222 522.839579 147.947703 523.62406 
C 148.732184 524.408542 149.796319 524.849321 150.905743 524.849321 
z
" style="fill:#ff0000;fill-opacity:0.7;stroke:#ff0000;stroke-opacity:0.7;"/>
    <path clip-path="url(#pe711b9d4d1)" d="M 151.918269 509.888857 
C 153.027693 509.888857 154.091827 509.448079 154.876309 508.663597 
C 155.66079 507.879116 156.101569 506.814981 156.101569 505.705557 
C 156.101569 504.596133 155.66079 503.531999 154.876309 502.747517 
C 154.091827 501.963036 153.027693 501.522257 151.918269 501.522257 
C 150.808845 501.522257 149.74471 501.963036 148.960229 502.747517 
C 148.175747 503.531999 147.734969 504.596133 147.734969 505.705557 
C 147.734969 506.814981 148.175747 507.879116 148.960229 508.663597 
C 149.74471 509.448079 150.808845 509.888857 151.918269 509.888857 
z
" style="fill:#ff0000;fill-opacity:0.7;stroke:#ff0000;stroke-opacity:0.7;"/>
    <path clip-path="url(#pe711b9d4d1)" d="M 154.827801 494.928394 
C 155.937225 494.928394 157.001359 494.487615 157.785841 493.703134 
C 158.570322 492.918653 159.011101 491.854518 159.011101 490.745094 
C 159.011101 489.63567 158.570322 488.571536 157.785841 487.787054 
C 157.001359 487.002573 155.937225 486.561794 154.827801 486.561794 
C 153.718377 486.561794 152.654242 487.002573 151.869761 487.787054 
C 151.08528 488.571536 150.644501 489.63567 150.644501 490.745094 
C 150.644501 491.854518 151.08528 492.918653 151.869761 493.703134 
C 152.654242 494.487615 153.718377 494.928394 154.827801 494.928394 
z
" style="fill:#ff0000;fill-opacity:0.7;stroke:#ff0000;stroke-opacity:0.7;"/>
    <path clip-path="url(#pe711b9d4d1)" d="M 155.086462 479.967931 
C 156.195886 479.967931 157.26002 479.527152 158.044501 478.742671 
C 158.828983 477.95819 159.269762 476.894055 159.269762 475.784631 
C 159.269762 474.675207 158.828983 473.611073 158.044501 472.826591 
C 157.26002 472.04211 156.195886 471.601331 155.086462 471.601331 
C 153.977037 471.601331 152.912903 472.04211 152.128422 472.826591 
C 151.34394 473.611073 150.903161 474.675207 150.903161 475.784631 
C 150.903161 476.894055 151.34394 477.95819 152.128422 478.742671 
C 152.912903 479.527152 153.977037 479.967931 155.086462 479.967931 
z
" style="fill:#ff0000;fill-opacity:0.7;stroke:#ff0000;stroke-opacity:0.7;"/>
    <path clip-path="url(#pe711b9d4d1)" d="M 155.373676 465.007468 
C 156.4831 465.007468 157.547234 464.566689 158.331715 463.782208 
C 159.116197 462.997727 159.556976 461.933592 159.556976 460.824168 
C 159.556976 459.714744 159.116197 458.650609 158.331715 457.866128 
C 157.547234 457.081647 156.4831 456.640868 155.373676 456.640868 
C 154.264251 456.640868 153.200117 457.081647 152.415636 457.866128 
C 151.631154 458.650609 151.190375 459.714744 151.190375 460.824168 
C 151.190375 461.933592 151.631154 462.997727 152.415636 463.782208 
C 153.200117 464.566689 154.264251 465.007468 155.373676 465.007468 
z
" style="fill:#ff0000;fill-opacity:0.7;stroke:#ff0000;stroke-opacity:0.7;"/>
    <path clip-path="url(#pe711b9d4d1)" d="M 155.540214 450.047005 
C 156.649638 450.047005 157.713772 449.606226 158.498254 448.821745 
C 159.282735 448.037263 159.723514 446.973129 159.723514 445.863705 
C 159.723514 444.754281 159.282735 443.690146 158.498254 442.905665 
C 157.713772 442.121184 156.649638 441.680405 155.540214 441.680405 
C 154.430789 441.680405 153.366655 442.121184 152.582174 442.905665 
C 151.797692 443.690146 151.356913 444.754281 151.356913 445.863705 
C 151.356913 446.973129 151.797692 448.037263 152.582174 448.821745 
C 153.366655 449.606226 154.430789 450.047005 155.540214 450.047005 
z
" style="fill:#ff0000;fill-opacity:0.7;stroke:#ff0000;stroke-opacity:0.7;"/>
    <path clip-path="url(#pe711b9d4d1)" d="M 155.712872 435.086542 
C 156.822296 435.086542 157.88643 434.645763 158.670912 433.861282 
C 159.455393 433.0768 159.896172 432.012666 159.896172 430.903242 
C 159.896172 429.793818 159.455393 428.729683 158.670912 427.945202 
C 157.88643 427.160721 156.822296 426.719942 155.712872 426.719942 
C 154.603447 426.719942 153.539313 427.160721 152.754832 427.945202 
C 151.97035 428.729683 151.529572 429.793818 151.529572 430.903242 
C 151.529572 432.012666 151.97035 433.0768 152.754832 433.861282 
C 153.539313 434.645763 154.603447 435.086542 155.712872 435.086542 
z
" style="fill:#ff0000;fill-opacity:0.7;stroke:#ff0000;stroke-opacity:0.7;"/>
    <path clip-path="url(#pe711b9d4d1)" d="M 156.480178 420.126079 
C 157.589602 420.126079 158.653737 419.6853 159.438218 418.900819 
C 160.2227 418.116337 160.663478 417.052203 160.663478 415.942779 
C 160.663478 414.833354 160.2227 413.76922 159.438218 412.984739 
C 158.653737 412.200257 157.589602 411.759479 156.480178 411.759479 
C 155.370754 411.759479 154.30662 412.200257 153.522138 412.984739 
C 152.737657 413.76922 152.296878 414.833354 152.296878 415.942779 
C 152.296878 417.052203 152.737657 418.116337 153.522138 418.900819 
C 154.30662 419.6853 155.370754 420.126079 156.480178 420.126079 
z
" style="fill:#ff0000;fill-opacity:0.7;stroke:#ff0000;stroke-opacity:0.7;"/>
    <path clip-path="url(#pe711b9d4d1)" d="M 156.732555 405.165616 
C 157.841979 405.165616 158.906114 404.724837 159.690595 403.940355 
C 160.475076 403.155874 160.915855 402.09174 160.915855 400.982316 
C 160.915855 399.872891 160.475076 398.808757 159.690595 398.024276 
C 158.906114 397.239794 157.841979 396.799015 156.732555 396.799015 
C 155.623131 396.799015 154.558997 397.239794 153.774515 398.024276 
C 152.990034 398.808757 152.549255 399.872891 152.549255 400.982316 
C 152.549255 402.09174 152.990034 403.155874 153.774515 403.940355 
C 154.558997 404.724837 155.623131 405.165616 156.732555 405.165616 
z
" style="fill:#ff0000;fill-opacity:0.7;stroke:#ff0000;stroke-opacity:0.7;"/>
    <path clip-path="url(#pe711b9d4d1)" d="M 156.870349 390.205153 
C 157.979773 390.205153 159.043907 389.764374 159.828389 388.979892 
C 160.61287 388.195411 161.053649 387.131277 161.053649 386.021852 
C 161.053649 384.912428 160.61287 383.848294 159.828389 383.063813 
C 159.043907 382.279331 157.979773 381.838552 156.870349 381.838552 
C 155.760925 381.838552 154.69679 382.279331 153.912309 383.063813 
C 153.127828 383.848294 152.687049 384.912428 152.687049 386.021852 
C 152.687049 387.131277 153.127828 388.195411 153.912309 388.979892 
C 154.69679 389.764374 155.760925 390.205153 156.870349 390.205153 
z
" style="fill:#ff0000;fill-opacity:0.7;stroke:#ff0000;stroke-opacity:0.7;"/>
    <path clip-path="url(#pe711b9d4d1)" d="M 157.00524 375.244689 
C 158.114664 375.244689 159.178798 374.803911 159.96328 374.019429 
C 160.747761 373.234948 161.18854 372.170813 161.18854 371.061389 
C 161.18854 369.951965 160.747761 368.887831 159.96328 368.103349 
C 159.178798 367.318868 158.114664 366.878089 157.00524 366.878089 
C 155.895816 366.878089 154.831681 367.318868 154.0472 368.103349 
C 153.262719 368.887831 152.82194 369.951965 152.82194 371.061389 
C 152.82194 372.170813 153.262719 373.234948 154.0472 374.019429 
C 154.831681 374.803911 155.895816 375.244689 157.00524 375.244689 
z
" style="fill:#ff0000;fill-opacity:0.7;stroke:#ff0000;stroke-opacity:0.7;"/>
    <path clip-path="url(#pe711b9d4d1)" d="M 157.327866 360.284226 
C 158.43729 360.284226 159.501425 359.843447 160.285906 359.058966 
C 161.070388 358.274485 161.511166 357.21035 161.511166 356.100926 
C 161.511166 354.991502 161.070388 353.927368 160.285906 353.142886 
C 159.501425 352.358405 158.43729 351.917626 157.327866 351.917626 
C 156.218442 351.917626 155.154308 352.358405 154.369826 353.142886 
C 153.585345 353.927368 153.144566 354.991502 153.144566 356.100926 
C 153.144566 357.21035 153.585345 358.274485 154.369826 359.058966 
C 155.154308 359.843447 156.218442 360.284226 157.327866 360.284226 
z
" style="fill:#ff0000;fill-opacity:0.7;stroke:#ff0000;stroke-opacity:0.7;"/>
    <path clip-path="url(#pe711b9d4d1)" d="M 157.635514 345.323763 
C 158.744939 345.323763 159.809073 344.882984 160.593554 344.098503 
C 161.378036 343.314022 161.818815 342.249887 161.818815 341.140463 
C 161.818815 340.031039 161.378036 338.966905 160.593554 338.182423 
C 159.809073 337.397942 158.744939 336.957163 157.635514 336.957163 
C 156.52609 336.957163 155.461956 337.397942 154.677475 338.182423 
C 153.892993 338.966905 153.452214 340.031039 153.452214 341.140463 
C 153.452214 342.249887 153.892993 343.314022 154.677475 344.098503 
C 155.461956 344.882984 156.52609 345.323763 157.635514 345.323763 
z
" style="fill:#ff0000;fill-opacity:0.7;stroke:#ff0000;stroke-opacity:0.7;"/>
    <path clip-path="url(#pe711b9d4d1)" d="M 157.731854 330.3633 
C 158.841278 330.3633 159.905413 329.922521 160.689894 329.13804 
C 161.474375 328.353559 161.915154 327.289424 161.915154 326.18 
C 161.915154 325.070576 161.474375 324.006441 160.689894 323.22196 
C 159.905413 322.437479 158.841278 321.9967 157.731854 321.9967 
C 156.62243 321.9967 155.558296 322.437479 154.773814 323.22196 
C 153.989333 324.006441 153.548554 325.070576 153.548554 326.18 
C 153.548554 327.289424 153.989333 328.353559 154.773814 329.13804 
C 155.558296 329.922521 156.62243 330.3633 157.731854 330.3633 
z
" style="fill:#ff0000;fill-opacity:0.7;stroke:#ff0000;stroke-opacity:0.7;"/>
    <path clip-path="url(#pe711b9d4d1)" d="M 157.787514 315.402837 
C 158.896939 315.402837 159.961073 314.962058 160.745554 314.177577 
C 161.530036 313.393095 161.970815 312.328961 161.970815 311.219537 
C 161.970815 310.110113 161.530036 309.045978 160.745554 308.261497 
C 159.961073 307.477016 158.896939 307.036237 157.787514 307.036237 
C 156.67809 307.036237 155.613956 307.477016 154.829475 308.261497 
C 154.044993 309.045978 153.604214 310.110113 153.604214 311.219537 
C 153.604214 312.328961 154.044993 313.393095 154.829475 314.177577 
C 155.613956 314.962058 156.67809 315.402837 157.787514 315.402837 
z
" style="fill:#ff0000;fill-opacity:0.7;stroke:#ff0000;stroke-opacity:0.7;"/>
    <path clip-path="url(#pe711b9d4d1)" d="M 158.598424 300.442374 
C 159.707848 300.442374 160.771983 300.001595 161.556464 299.217114 
C 162.340945 298.432632 162.781724 297.368498 162.781724 296.259074 
C 162.781724 295.14965 162.340945 294.085515 161.556464 293.301034 
C 160.771983 292.516553 159.707848 292.075774 158.598424 292.075774 
C 157.489 292.075774 156.424866 292.516553 155.640384 293.301034 
C 154.855903 294.085515 154.415124 295.14965 154.415124 296.259074 
C 154.415124 297.368498 154.855903 298.432632 155.640384 299.217114 
C 156.424866 300.001595 157.489 300.442374 158.598424 300.442374 
z
" style="fill:#ff0000;fill-opacity:0.7;stroke:#ff0000;stroke-opacity:0.7;"/>
    <path clip-path="url(#pe711b9d4d1)" d="M 159.202328 285.481911 
C 160.311752 285.481911 161.375886 285.041132 162.160367 284.256651 
C 162.944849 283.472169 163.385628 282.408035 163.385628 281.298611 
C 163.385628 280.189187 162.944849 279.125052 162.160367 278.340571 
C 161.375886 277.556089 160.311752 277.115311 159.202328 277.115311 
C 158.092903 277.115311 157.028769 277.556089 156.244288 278.340571 
C 155.459806 279.125052 155.019027 280.189187 155.019027 281.298611 
C 155.019027 282.408035 155.459806 283.472169 156.244288 284.256651 
C 157.028769 285.041132 158.092903 285.481911 159.202328 285.481911 
z
" style="fill:#ff0000;fill-opacity:0.7;stroke:#ff0000;stroke-opacity:0.7;"/>
    <path clip-path="url(#pe711b9d4d1)" d="M 160.740393 270.521448 
C 161.849817 270.521448 162.913951 270.080669 163.698433 269.296187 
C 164.482914 268.511706 164.923693 267.447572 164.923693 266.338148 
C 164.923693 265.228723 164.482914 264.164589 163.698433 263.380108 
C 162.913951 262.595626 161.849817 262.154847 160.740393 262.154847 
C 159.630968 262.154847 158.566834 262.595626 157.782353 263.380108 
C 156.997871 264.164589 156.557092 265.228723 156.557092 266.338148 
C 156.557092 267.447572 156.997871 268.511706 157.782353 269.296187 
C 158.566834 270.080669 159.630968 270.521448 160.740393 270.521448 
z
" style="fill:#ff0000;fill-opacity:0.7;stroke:#ff0000;stroke-opacity:0.7;"/>
    <path clip-path="url(#pe711b9d4d1)" d="M 160.802263 255.560985 
C 161.911688 255.560985 162.975822 255.120206 163.760303 254.335724 
C 164.544785 253.551243 164.985564 252.487109 164.985564 251.377684 
C 164.985564 250.26826 164.544785 249.204126 163.760303 248.419645 
C 162.975822 247.635163 161.911688 247.194384 160.802263 247.194384 
C 159.692839 247.194384 158.628705 247.635163 157.844224 248.419645 
C 157.059742 249.204126 156.618963 250.26826 156.618963 251.377684 
C 156.618963 252.487109 157.059742 253.551243 157.844224 254.335724 
C 158.628705 255.120206 159.692839 255.560985 160.802263 255.560985 
z
" style="fill:#ff0000;fill-opacity:0.7;stroke:#ff0000;stroke-opacity:0.7;"/>
    <path clip-path="url(#pe711b9d4d1)" d="M 161.075476 240.600521 
C 162.1849 240.600521 163.249035 240.159743 164.033516 239.375261 
C 164.817997 238.59078 165.258776 237.526646 165.258776 236.417221 
C 165.258776 235.307797 164.817997 234.243663 164.033516 233.459181 
C 163.249035 232.6747 162.1849 232.233921 161.075476 232.233921 
C 159.966052 232.233921 158.901917 232.6747 158.117436 233.459181 
C 157.332955 234.243663 156.892176 235.307797 156.892176 236.417221 
C 156.892176 237.526646 157.332955 238.59078 158.117436 239.375261 
C 158.901917 240.159743 159.966052 240.600521 161.075476 240.600521 
z
" style="fill:#ff0000;fill-opacity:0.7;stroke:#ff0000;stroke-opacity:0.7;"/>
    <path clip-path="url(#pe711b9d4d1)" d="M 163.489012 225.640058 
C 164.598437 225.640058 165.662571 225.199279 166.447052 224.414798 
C 167.231534 223.630317 167.672312 222.566182 167.672312 221.456758 
C 167.672312 220.347334 167.231534 219.2832 166.447052 218.498718 
C 165.662571 217.714237 164.598437 217.273458 163.489012 217.273458 
C 162.379588 217.273458 161.315454 217.714237 160.530972 218.498718 
C 159.746491 219.2832 159.305712 220.347334 159.305712 221.456758 
C 159.305712 222.566182 159.746491 223.630317 160.530972 224.414798 
C 161.315454 225.199279 162.379588 225.640058 163.489012 225.640058 
z
" style="fill:#ff0000;fill-opacity:0.7;stroke:#ff0000;stroke-opacity:0.7;"/>
    <path clip-path="url(#pe711b9d4d1)" d="M 166.038749 210.679595 
C 167.148173 210.679595 168.212307 210.238816 168.996788 209.454335 
C 169.78127 208.669854 170.222049 207.605719 170.222049 206.496295 
C 170.222049 205.386871 169.78127 204.322737 168.996788 203.538255 
C 168.212307 202.753774 167.148173 202.312995 166.038749 202.312995 
C 164.929324 202.312995 163.86519 202.753774 163.080709 203.538255 
C 162.296227 204.322737 161.855448 205.386871 161.855448 206.496295 
C 161.855448 207.605719 162.296227 208.669854 163.080709 209.454335 
C 163.86519 210.238816 164.929324 210.679595 166.038749 210.679595 
z
" style="fill:#ff0000;fill-opacity:0.7;stroke:#ff0000;stroke-opacity:0.7;"/>
    <path clip-path="url(#pe711b9d4d1)" d="M 167.823433 195.719132 
C 168.932857 195.719132 169.996991 195.278353 170.781473 194.493872 
C 171.565954 193.709391 172.006733 192.645256 172.006733 191.535832 
C 172.006733 190.426408 171.565954 189.362273 170.781473 188.577792 
C 169.996991 187.793311 168.932857 187.352532 167.823433 187.352532 
C 166.714009 187.352532 165.649874 187.793311 164.865393 188.577792 
C 164.080912 189.362273 163.640133 190.426408 163.640133 191.535832 
C 163.640133 192.645256 164.080912 193.709391 164.865393 194.493872 
C 165.649874 195.278353 166.714009 195.719132 167.823433 195.719132 
z
" style="fill:#ff0000;fill-opacity:0.7;stroke:#ff0000;stroke-opacity:0.7;"/>
    <path clip-path="url(#pe711b9d4d1)" d="M 168.940568 180.758669 
C 170.049992 180.758669 171.114126 180.31789 171.898607 179.533409 
C 172.683089 178.748927 173.123868 177.684793 173.123868 176.575369 
C 173.123868 175.465945 172.683089 174.40181 171.898607 173.617329 
C 171.114126 172.832848 170.049992 172.392069 168.940568 172.392069 
C 167.831143 172.392069 166.767009 172.832848 165.982528 173.617329 
C 165.198046 174.40181 164.757267 175.465945 164.757267 176.575369 
C 164.757267 177.684793 165.198046 178.748927 165.982528 179.533409 
C 166.767009 180.31789 167.831143 180.758669 168.940568 180.758669 
z
" style="fill:#ff0000;fill-opacity:0.7;stroke:#ff0000;stroke-opacity:0.7;"/>
    <path clip-path="url(#pe711b9d4d1)" d="M 169.676974 165.798206 
C 170.786398 165.798206 171.850532 165.357427 172.635014 164.572946 
C 173.419495 163.788464 173.860274 162.72433 173.860274 161.614906 
C 173.860274 160.505482 173.419495 159.441347 172.635014 158.656866 
C 171.850532 157.872385 170.786398 157.431606 169.676974 157.431606 
C 168.56755 157.431606 167.503415 157.872385 166.718934 158.656866 
C 165.934453 159.441347 165.493674 160.505482 165.493674 161.614906 
C 165.493674 162.72433 165.934453 163.788464 166.718934 164.572946 
C 167.503415 165.357427 168.56755 165.798206 169.676974 165.798206 
z
" style="fill:#ff0000;fill-opacity:0.7;stroke:#ff0000;stroke-opacity:0.7;"/>
    <path clip-path="url(#pe711b9d4d1)" d="M 170.112292 150.837743 
C 171.221716 150.837743 172.28585 150.396964 173.070332 149.612483 
C 173.854813 148.828001 174.295592 147.763867 174.295592 146.654443 
C 174.295592 145.545019 173.854813 144.480884 173.070332 143.696403 
C 172.28585 142.911921 171.221716 142.471143 170.112292 142.471143 
C 169.002868 142.471143 167.938733 142.911921 167.154252 143.696403 
C 166.36977 144.480884 165.928992 145.545019 165.928992 146.654443 
C 165.928992 147.763867 166.36977 148.828001 167.154252 149.612483 
C 167.938733 150.396964 169.002868 150.837743 170.112292 150.837743 
z
" style="fill:#ff0000;fill-opacity:0.7;stroke:#ff0000;stroke-opacity:0.7;"/>
    <path clip-path="url(#pe711b9d4d1)" d="M 170.112292 135.87728 
C 171.221716 135.87728 172.28585 135.436501 173.070332 134.652019 
C 173.854813 133.867538 174.295592 132.803404 174.295592 131.69398 
C 174.295592 130.584555 173.854813 129.520421 173.070332 128.73594 
C 172.28585 127.951458 171.221716 127.510679 170.112292 127.510679 
C 169.002868 127.510679 167.938733 127.951458 167.154252 128.73594 
C 166.36977 129.520421 165.928992 130.584555 165.928992 131.69398 
C 165.928992 132.803404 166.36977 133.867538 167.154252 134.652019 
C 167.938733 135.436501 169.002868 135.87728 170.112292 135.87728 
z
" style="fill:#ff0000;fill-opacity:0.7;stroke:#ff0000;stroke-opacity:0.7;"/>
    <path clip-path="url(#pe711b9d4d1)" d="M 172.471507 120.916817 
C 173.580931 120.916817 174.645066 120.476038 175.429547 119.691556 
C 176.214028 118.907075 176.654807 117.842941 176.654807 116.733516 
C 176.654807 115.624092 176.214028 114.559958 175.429547 113.775477 
C 174.645066 112.990995 173.580931 112.550216 172.471507 112.550216 
C 171.362083 112.550216 170.297949 112.990995 169.513467 113.775477 
C 168.728986 114.559958 168.288207 115.624092 168.288207 116.733516 
C 168.288207 117.842941 168.728986 118.907075 169.513467 119.691556 
C 170.297949 120.476038 171.362083 120.916817 172.471507 120.916817 
z
" style="fill:#ff0000;fill-opacity:0.7;stroke:#ff0000;stroke-opacity:0.7;"/>
    <path clip-path="url(#pe711b9d4d1)" d="M 181.819561 105.956353 
C 182.928985 105.956353 183.99312 105.515575 184.777601 104.731093 
C 185.562082 103.946612 186.002861 102.882478 186.002861 101.773053 
C 186.002861 100.663629 185.562082 99.599495 184.777601 98.815013 
C 183.99312 98.030532 182.928985 97.589753 181.819561 97.589753 
C 180.710137 97.589753 179.646003 98.030532 178.861521 98.815013 
C 178.07704 99.599495 177.636261 100.663629 177.636261 101.773053 
C 177.636261 102.882478 178.07704 103.946612 178.861521 104.731093 
C 179.646003 105.515575 180.710137 105.956353 181.819561 105.956353 
z
" style="fill:#ff0000;fill-opacity:0.7;stroke:#ff0000;stroke-opacity:0.7;"/>
    <path clip-path="url(#pe711b9d4d1)" d="M 191.947278 90.99589 
C 193.056703 90.99589 194.120837 90.555111 194.905318 89.77063 
C 195.6898 88.986149 196.130579 87.922014 196.130579 86.81259 
C 196.130579 85.703166 195.6898 84.639032 194.905318 83.85455 
C 194.120837 83.070069 193.056703 82.62929 191.947278 82.62929 
C 190.837854 82.62929 189.77372 83.070069 188.989239 83.85455 
C 188.204757 84.639032 187.763978 85.703166 187.763978 86.81259 
C 187.763978 87.922014 188.204757 88.986149 188.989239 89.77063 
C 189.77372 90.555111 190.837854 90.99589 191.947278 90.99589 
z
" style="fill:#ff0000;fill-opacity:0.7;stroke:#ff0000;stroke-opacity:0.7;"/>
    <path clip-path="url(#pe711b9d4d1)" d="M 198.048726 76.035427 
C 199.15815 76.035427 200.222284 75.594648 201.006766 74.810167 
C 201.791247 74.025686 202.232026 72.961551 202.232026 71.852127 
C 202.232026 70.742703 201.791247 69.678569 201.006766 68.894087 
C 200.222284 68.109606 199.15815 67.668827 198.048726 67.668827 
C 196.939302 67.668827 195.875167 68.109606 195.090686 68.894087 
C 194.306205 69.678569 193.865426 70.742703 193.865426 71.852127 
C 193.865426 72.961551 194.306205 74.025686 195.090686 74.810167 
C 195.875167 75.594648 196.939302 76.035427 198.048726 76.035427 
z
" style="fill:#ff0000;fill-opacity:0.7;stroke:#ff0000;stroke-opacity:0.7;"/>
   </g>
   <g id="matplotlib.axis_1">
    <g id="xtick_1">
     <g id="line2d_1">
      <defs>
       <path d="M 0 0 
L 0 3.5 
" id="mbd68f5588c" style="stroke:#000000;stroke-width:0.8;"/>
      </defs>
      <g>
       <use style="stroke:#000000;stroke-width:0.8;" x="73.82" xlink:href="#mbd68f5588c" y="606.04"/>
      </g>
     </g>
     <g id="text_1">
      <!-- 0.1 -->
      <defs>
       <path d="M 31.78125 66.40625 
Q 24.171875 66.40625 20.328125 58.90625 
Q 16.5 51.421875 16.5 36.375 
Q 16.5 21.390625 20.328125 13.890625 
Q 24.171875 6.390625 31.78125 6.390625 
Q 39.453125 6.390625 43.28125 13.890625 
Q 47.125 21.390625 47.125 36.375 
Q 47.125 51.421875 43.28125 58.90625 
Q 39.453125 66.40625 31.78125 66.40625 
z
M 31.78125 74.21875 
Q 44.046875 74.21875 50.515625 64.515625 
Q 56.984375 54.828125 56.984375 36.375 
Q 56.984375 17.96875 50.515625 8.265625 
Q 44.046875 -1.421875 31.78125 -1.421875 
Q 19.53125 -1.421875 13.0625 8.265625 
Q 6.59375 17.96875 6.59375 36.375 
Q 6.59375 54.828125 13.0625 64.515625 
Q 19.53125 74.21875 31.78125 74.21875 
z
" id="DejaVuSans-48"/>
       <path d="M 10.6875 12.40625 
L 21 12.40625 
L 21 0 
L 10.6875 0 
z
" id="DejaVuSans-46"/>
       <path d="M 12.40625 8.296875 
L 28.515625 8.296875 
L 28.515625 63.921875 
L 10.984375 60.40625 
L 10.984375 69.390625 
L 28.421875 72.90625 
L 38.28125 72.90625 
L 38.28125 8.296875 
L 54.390625 8.296875 
L 54.390625 0 
L 12.40625 0 
z
" id="DejaVuSans-49"/>
      </defs>
      <g transform="translate(65.868438 620.638438)scale(0.1 -0.1)">
       <use xlink:href="#DejaVuSans-48"/>
       <use x="63.623047" xlink:href="#DejaVuSans-46"/>
       <use x="95.410156" xlink:href="#DejaVuSans-49"/>
      </g>
     </g>
    </g>
    <g id="xtick_2">
     <g id="line2d_2">
      <g>
       <use style="stroke:#000000;stroke-width:0.8;" x="115.088125" xlink:href="#mbd68f5588c" y="606.04"/>
      </g>
     </g>
     <g id="text_2">
      <!-- 0.2 -->
      <defs>
       <path d="M 19.1875 8.296875 
L 53.609375 8.296875 
L 53.609375 0 
L 7.328125 0 
L 7.328125 8.296875 
Q 12.9375 14.109375 22.625 23.890625 
Q 32.328125 33.6875 34.8125 36.53125 
Q 39.546875 41.84375 41.421875 45.53125 
Q 43.3125 49.21875 43.3125 52.78125 
Q 43.3125 58.59375 39.234375 62.25 
Q 35.15625 65.921875 28.609375 65.921875 
Q 23.96875 65.921875 18.8125 64.3125 
Q 13.671875 62.703125 7.8125 59.421875 
L 7.8125 69.390625 
Q 13.765625 71.78125 18.9375 73 
Q 24.125 74.21875 28.421875 74.21875 
Q 39.75 74.21875 46.484375 68.546875 
Q 53.21875 62.890625 53.21875 53.421875 
Q 53.21875 48.921875 51.53125 44.890625 
Q 49.859375 40.875 45.40625 35.40625 
Q 44.1875 33.984375 37.640625 27.21875 
Q 31.109375 20.453125 19.1875 8.296875 
z
" id="DejaVuSans-50"/>
      </defs>
      <g transform="translate(107.136563 620.638438)scale(0.1 -0.1)">
       <use xlink:href="#DejaVuSans-48"/>
       <use x="63.623047" xlink:href="#DejaVuSans-46"/>
       <use x="95.410156" xlink:href="#DejaVuSans-50"/>
      </g>
     </g>
    </g>
    <g id="xtick_3">
     <g id="line2d_3">
      <g>
       <use style="stroke:#000000;stroke-width:0.8;" x="156.35625" xlink:href="#mbd68f5588c" y="606.04"/>
      </g>
     </g>
     <g id="text_3">
      <!-- 0.3 -->
      <defs>
       <path d="M 40.578125 39.3125 
Q 47.65625 37.796875 51.625 33 
Q 55.609375 28.21875 55.609375 21.1875 
Q 55.609375 10.40625 48.1875 4.484375 
Q 40.765625 -1.421875 27.09375 -1.421875 
Q 22.515625 -1.421875 17.65625 -0.515625 
Q 12.796875 0.390625 7.625 2.203125 
L 7.625 11.71875 
Q 11.71875 9.328125 16.59375 8.109375 
Q 21.484375 6.890625 26.8125 6.890625 
Q 36.078125 6.890625 40.9375 10.546875 
Q 45.796875 14.203125 45.796875 21.1875 
Q 45.796875 27.640625 41.28125 31.265625 
Q 36.765625 34.90625 28.71875 34.90625 
L 20.21875 34.90625 
L 20.21875 43.015625 
L 29.109375 43.015625 
Q 36.375 43.015625 40.234375 45.921875 
Q 44.09375 48.828125 44.09375 54.296875 
Q 44.09375 59.90625 40.109375 62.90625 
Q 36.140625 65.921875 28.71875 65.921875 
Q 24.65625 65.921875 20.015625 65.03125 
Q 15.375 64.15625 9.8125 62.3125 
L 9.8125 71.09375 
Q 15.4375 72.65625 20.34375 73.4375 
Q 25.25 74.21875 29.59375 74.21875 
Q 40.828125 74.21875 47.359375 69.109375 
Q 53.90625 64.015625 53.90625 55.328125 
Q 53.90625 49.265625 50.4375 45.09375 
Q 46.96875 40.921875 40.578125 39.3125 
z
" id="DejaVuSans-51"/>
      </defs>
      <g transform="translate(148.404687 620.638438)scale(0.1 -0.1)">
       <use xlink:href="#DejaVuSans-48"/>
       <use x="63.623047" xlink:href="#DejaVuSans-46"/>
       <use x="95.410156" xlink:href="#DejaVuSans-51"/>
      </g>
     </g>
    </g>
    <g id="xtick_4">
     <g id="line2d_4">
      <g>
       <use style="stroke:#000000;stroke-width:0.8;" x="197.624375" xlink:href="#mbd68f5588c" y="606.04"/>
      </g>
     </g>
     <g id="text_4">
      <!-- 0.4 -->
      <defs>
       <path d="M 37.796875 64.3125 
L 12.890625 25.390625 
L 37.796875 25.390625 
z
M 35.203125 72.90625 
L 47.609375 72.90625 
L 47.609375 25.390625 
L 58.015625 25.390625 
L 58.015625 17.1875 
L 47.609375 17.1875 
L 47.609375 0 
L 37.796875 0 
L 37.796875 17.1875 
L 4.890625 17.1875 
L 4.890625 26.703125 
z
" id="DejaVuSans-52"/>
      </defs>
      <g transform="translate(189.672812 620.638438)scale(0.1 -0.1)">
       <use xlink:href="#DejaVuSans-48"/>
       <use x="63.623047" xlink:href="#DejaVuSans-46"/>
       <use x="95.410156" xlink:href="#DejaVuSans-52"/>
      </g>
     </g>
    </g>
    <g id="xtick_5">
     <g id="line2d_5">
      <g>
       <use style="stroke:#000000;stroke-width:0.8;" x="238.8925" xlink:href="#mbd68f5588c" y="606.04"/>
      </g>
     </g>
     <g id="text_5">
      <!-- 0.5 -->
      <defs>
       <path d="M 10.796875 72.90625 
L 49.515625 72.90625 
L 49.515625 64.59375 
L 19.828125 64.59375 
L 19.828125 46.734375 
Q 21.96875 47.46875 24.109375 47.828125 
Q 26.265625 48.1875 28.421875 48.1875 
Q 40.625 48.1875 47.75 41.5 
Q 54.890625 34.8125 54.890625 23.390625 
Q 54.890625 11.625 47.5625 5.09375 
Q 40.234375 -1.421875 26.90625 -1.421875 
Q 22.3125 -1.421875 17.546875 -0.640625 
Q 12.796875 0.140625 7.71875 1.703125 
L 7.71875 11.625 
Q 12.109375 9.234375 16.796875 8.0625 
Q 21.484375 6.890625 26.703125 6.890625 
Q 35.15625 6.890625 40.078125 11.328125 
Q 45.015625 15.765625 45.015625 23.390625 
Q 45.015625 31 40.078125 35.4375 
Q 35.15625 39.890625 26.703125 39.890625 
Q 22.75 39.890625 18.8125 39.015625 
Q 14.890625 38.140625 10.796875 36.28125 
z
" id="DejaVuSans-53"/>
      </defs>
      <g transform="translate(230.940937 620.638438)scale(0.1 -0.1)">
       <use xlink:href="#DejaVuSans-48"/>
       <use x="63.623047" xlink:href="#DejaVuSans-46"/>
       <use x="95.410156" xlink:href="#DejaVuSans-53"/>
      </g>
     </g>
    </g>
    <g id="xtick_6">
     <g id="line2d_6">
      <g>
       <use style="stroke:#000000;stroke-width:0.8;" x="280.160625" xlink:href="#mbd68f5588c" y="606.04"/>
      </g>
     </g>
     <g id="text_6">
      <!-- 0.6 -->
      <defs>
       <path d="M 33.015625 40.375 
Q 26.375 40.375 22.484375 35.828125 
Q 18.609375 31.296875 18.609375 23.390625 
Q 18.609375 15.53125 22.484375 10.953125 
Q 26.375 6.390625 33.015625 6.390625 
Q 39.65625 6.390625 43.53125 10.953125 
Q 47.40625 15.53125 47.40625 23.390625 
Q 47.40625 31.296875 43.53125 35.828125 
Q 39.65625 40.375 33.015625 40.375 
z
M 52.59375 71.296875 
L 52.59375 62.3125 
Q 48.875 64.0625 45.09375 64.984375 
Q 41.3125 65.921875 37.59375 65.921875 
Q 27.828125 65.921875 22.671875 59.328125 
Q 17.53125 52.734375 16.796875 39.40625 
Q 19.671875 43.65625 24.015625 45.921875 
Q 28.375 48.1875 33.59375 48.1875 
Q 44.578125 48.1875 50.953125 41.515625 
Q 57.328125 34.859375 57.328125 23.390625 
Q 57.328125 12.15625 50.6875 5.359375 
Q 44.046875 -1.421875 33.015625 -1.421875 
Q 20.359375 -1.421875 13.671875 8.265625 
Q 6.984375 17.96875 6.984375 36.375 
Q 6.984375 53.65625 15.1875 63.9375 
Q 23.390625 74.21875 37.203125 74.21875 
Q 40.921875 74.21875 44.703125 73.484375 
Q 48.484375 72.75 52.59375 71.296875 
z
" id="DejaVuSans-54"/>
      </defs>
      <g transform="translate(272.209062 620.638438)scale(0.1 -0.1)">
       <use xlink:href="#DejaVuSans-48"/>
       <use x="63.623047" xlink:href="#DejaVuSans-46"/>
       <use x="95.410156" xlink:href="#DejaVuSans-54"/>
      </g>
     </g>
    </g>
    <g id="xtick_7">
     <g id="line2d_7">
      <g>
       <use style="stroke:#000000;stroke-width:0.8;" x="321.42875" xlink:href="#mbd68f5588c" y="606.04"/>
      </g>
     </g>
     <g id="text_7">
      <!-- 0.7 -->
      <defs>
       <path d="M 8.203125 72.90625 
L 55.078125 72.90625 
L 55.078125 68.703125 
L 28.609375 0 
L 18.3125 0 
L 43.21875 64.59375 
L 8.203125 64.59375 
z
" id="DejaVuSans-55"/>
      </defs>
      <g transform="translate(313.477187 620.638438)scale(0.1 -0.1)">
       <use xlink:href="#DejaVuSans-48"/>
       <use x="63.623047" xlink:href="#DejaVuSans-46"/>
       <use x="95.410156" xlink:href="#DejaVuSans-55"/>
      </g>
     </g>
    </g>
    <g id="xtick_8">
     <g id="line2d_8">
      <g>
       <use style="stroke:#000000;stroke-width:0.8;" x="362.696875" xlink:href="#mbd68f5588c" y="606.04"/>
      </g>
     </g>
     <g id="text_8">
      <!-- 0.8 -->
      <defs>
       <path d="M 31.78125 34.625 
Q 24.75 34.625 20.71875 30.859375 
Q 16.703125 27.09375 16.703125 20.515625 
Q 16.703125 13.921875 20.71875 10.15625 
Q 24.75 6.390625 31.78125 6.390625 
Q 38.8125 6.390625 42.859375 10.171875 
Q 46.921875 13.96875 46.921875 20.515625 
Q 46.921875 27.09375 42.890625 30.859375 
Q 38.875 34.625 31.78125 34.625 
z
M 21.921875 38.8125 
Q 15.578125 40.375 12.03125 44.71875 
Q 8.5 49.078125 8.5 55.328125 
Q 8.5 64.0625 14.71875 69.140625 
Q 20.953125 74.21875 31.78125 74.21875 
Q 42.671875 74.21875 48.875 69.140625 
Q 55.078125 64.0625 55.078125 55.328125 
Q 55.078125 49.078125 51.53125 44.71875 
Q 48 40.375 41.703125 38.8125 
Q 48.828125 37.15625 52.796875 32.3125 
Q 56.78125 27.484375 56.78125 20.515625 
Q 56.78125 9.90625 50.3125 4.234375 
Q 43.84375 -1.421875 31.78125 -1.421875 
Q 19.734375 -1.421875 13.25 4.234375 
Q 6.78125 9.90625 6.78125 20.515625 
Q 6.78125 27.484375 10.78125 32.3125 
Q 14.796875 37.15625 21.921875 38.8125 
z
M 18.3125 54.390625 
Q 18.3125 48.734375 21.84375 45.5625 
Q 25.390625 42.390625 31.78125 42.390625 
Q 38.140625 42.390625 41.71875 45.5625 
Q 45.3125 48.734375 45.3125 54.390625 
Q 45.3125 60.0625 41.71875 63.234375 
Q 38.140625 66.40625 31.78125 66.40625 
Q 25.390625 66.40625 21.84375 63.234375 
Q 18.3125 60.0625 18.3125 54.390625 
z
" id="DejaVuSans-56"/>
      </defs>
      <g transform="translate(354.745312 620.638438)scale(0.1 -0.1)">
       <use xlink:href="#DejaVuSans-48"/>
       <use x="63.623047" xlink:href="#DejaVuSans-46"/>
       <use x="95.410156" xlink:href="#DejaVuSans-56"/>
      </g>
     </g>
    </g>
    <g id="xtick_9">
     <g id="line2d_9">
      <g>
       <use style="stroke:#000000;stroke-width:0.8;" x="403.965" xlink:href="#mbd68f5588c" y="606.04"/>
      </g>
     </g>
     <g id="text_9">
      <!-- 0.9 -->
      <defs>
       <path d="M 10.984375 1.515625 
L 10.984375 10.5 
Q 14.703125 8.734375 18.5 7.8125 
Q 22.3125 6.890625 25.984375 6.890625 
Q 35.75 6.890625 40.890625 13.453125 
Q 46.046875 20.015625 46.78125 33.40625 
Q 43.953125 29.203125 39.59375 26.953125 
Q 35.25 24.703125 29.984375 24.703125 
Q 19.046875 24.703125 12.671875 31.3125 
Q 6.296875 37.9375 6.296875 49.421875 
Q 6.296875 60.640625 12.9375 67.421875 
Q 19.578125 74.21875 30.609375 74.21875 
Q 43.265625 74.21875 49.921875 64.515625 
Q 56.59375 54.828125 56.59375 36.375 
Q 56.59375 19.140625 48.40625 8.859375 
Q 40.234375 -1.421875 26.421875 -1.421875 
Q 22.703125 -1.421875 18.890625 -0.6875 
Q 15.09375 0.046875 10.984375 1.515625 
z
M 30.609375 32.421875 
Q 37.25 32.421875 41.125 36.953125 
Q 45.015625 41.5 45.015625 49.421875 
Q 45.015625 57.28125 41.125 61.84375 
Q 37.25 66.40625 30.609375 66.40625 
Q 23.96875 66.40625 20.09375 61.84375 
Q 16.21875 57.28125 16.21875 49.421875 
Q 16.21875 41.5 20.09375 36.953125 
Q 23.96875 32.421875 30.609375 32.421875 
z
" id="DejaVuSans-57"/>
      </defs>
      <g transform="translate(396.013437 620.638438)scale(0.1 -0.1)">
       <use xlink:href="#DejaVuSans-48"/>
       <use x="63.623047" xlink:href="#DejaVuSans-46"/>
       <use x="95.410156" xlink:href="#DejaVuSans-57"/>
      </g>
     </g>
    </g>
    <g id="text_10">
     <!-- Proporção -->
     <defs>
      <path d="M 19.671875 64.796875 
L 19.671875 37.40625 
L 32.078125 37.40625 
Q 38.96875 37.40625 42.71875 40.96875 
Q 46.484375 44.53125 46.484375 51.125 
Q 46.484375 57.671875 42.71875 61.234375 
Q 38.96875 64.796875 32.078125 64.796875 
z
M 9.8125 72.90625 
L 32.078125 72.90625 
Q 44.34375 72.90625 50.609375 67.359375 
Q 56.890625 61.8125 56.890625 51.125 
Q 56.890625 40.328125 50.609375 34.8125 
Q 44.34375 29.296875 32.078125 29.296875 
L 19.671875 29.296875 
L 19.671875 0 
L 9.8125 0 
z
" id="DejaVuSans-80"/>
      <path d="M 41.109375 46.296875 
Q 39.59375 47.171875 37.8125 47.578125 
Q 36.03125 48 33.890625 48 
Q 26.265625 48 22.1875 43.046875 
Q 18.109375 38.09375 18.109375 28.8125 
L 18.109375 0 
L 9.078125 0 
L 9.078125 54.6875 
L 18.109375 54.6875 
L 18.109375 46.1875 
Q 20.953125 51.171875 25.484375 53.578125 
Q 30.03125 56 36.53125 56 
Q 37.453125 56 38.578125 55.875 
Q 39.703125 55.765625 41.0625 55.515625 
z
" id="DejaVuSans-114"/>
      <path d="M 30.609375 48.390625 
Q 23.390625 48.390625 19.1875 42.75 
Q 14.984375 37.109375 14.984375 27.296875 
Q 14.984375 17.484375 19.15625 11.84375 
Q 23.34375 6.203125 30.609375 6.203125 
Q 37.796875 6.203125 41.984375 11.859375 
Q 46.1875 17.53125 46.1875 27.296875 
Q 46.1875 37.015625 41.984375 42.703125 
Q 37.796875 48.390625 30.609375 48.390625 
z
M 30.609375 56 
Q 42.328125 56 49.015625 48.375 
Q 55.71875 40.765625 55.71875 27.296875 
Q 55.71875 13.875 49.015625 6.21875 
Q 42.328125 -1.421875 30.609375 -1.421875 
Q 18.84375 -1.421875 12.171875 6.21875 
Q 5.515625 13.875 5.515625 27.296875 
Q 5.515625 40.765625 12.171875 48.375 
Q 18.84375 56 30.609375 56 
z
" id="DejaVuSans-111"/>
      <path d="M 18.109375 8.203125 
L 18.109375 -20.796875 
L 9.078125 -20.796875 
L 9.078125 54.6875 
L 18.109375 54.6875 
L 18.109375 46.390625 
Q 20.953125 51.265625 25.265625 53.625 
Q 29.59375 56 35.59375 56 
Q 45.5625 56 51.78125 48.09375 
Q 58.015625 40.1875 58.015625 27.296875 
Q 58.015625 14.40625 51.78125 6.484375 
Q 45.5625 -1.421875 35.59375 -1.421875 
Q 29.59375 -1.421875 25.265625 0.953125 
Q 20.953125 3.328125 18.109375 8.203125 
z
M 48.6875 27.296875 
Q 48.6875 37.203125 44.609375 42.84375 
Q 40.53125 48.484375 33.40625 48.484375 
Q 26.265625 48.484375 22.1875 42.84375 
Q 18.109375 37.203125 18.109375 27.296875 
Q 18.109375 17.390625 22.1875 11.75 
Q 26.265625 6.109375 33.40625 6.109375 
Q 40.53125 6.109375 44.609375 11.75 
Q 48.6875 17.390625 48.6875 27.296875 
z
" id="DejaVuSans-112"/>
      <path d="M 48.78125 52.59375 
L 48.78125 44.1875 
Q 44.96875 46.296875 41.140625 47.34375 
Q 37.3125 48.390625 33.40625 48.390625 
Q 24.65625 48.390625 19.8125 42.84375 
Q 14.984375 37.3125 14.984375 27.296875 
Q 14.984375 17.28125 19.8125 11.734375 
Q 24.65625 6.203125 33.40625 6.203125 
Q 37.3125 6.203125 41.140625 7.25 
Q 44.96875 8.296875 48.78125 10.40625 
L 48.78125 2.09375 
Q 45.015625 0.34375 40.984375 -0.53125 
Q 36.96875 -1.421875 32.421875 -1.421875 
Q 20.0625 -1.421875 12.78125 6.34375 
Q 5.515625 14.109375 5.515625 27.296875 
Q 5.515625 40.671875 12.859375 48.328125 
Q 20.21875 56 33.015625 56 
Q 37.15625 56 41.109375 55.140625 
Q 45.0625 54.296875 48.78125 52.59375 
z
M 36.078125 0 
Q 38.765625 -3.03125 40.078125 -5.59375 
Q 41.40625 -8.15625 41.40625 -10.5 
Q 41.40625 -14.84375 38.46875 -17.0625 
Q 35.546875 -19.28125 29.78125 -19.28125 
Q 27.546875 -19.28125 25.421875 -18.984375 
Q 23.296875 -18.703125 21.1875 -18.109375 
L 21.1875 -11.71875 
Q 22.859375 -12.546875 24.65625 -12.90625 
Q 26.46875 -13.28125 28.765625 -13.28125 
Q 31.640625 -13.28125 33.109375 -12.109375 
Q 34.578125 -10.9375 34.578125 -8.6875 
Q 34.578125 -7.234375 33.515625 -5.109375 
Q 32.46875 -2.984375 30.28125 0 
z
" id="DejaVuSans-231"/>
      <path d="M 34.28125 27.484375 
Q 23.390625 27.484375 19.1875 25 
Q 14.984375 22.515625 14.984375 16.5 
Q 14.984375 11.71875 18.140625 8.90625 
Q 21.296875 6.109375 26.703125 6.109375 
Q 34.1875 6.109375 38.703125 11.40625 
Q 43.21875 16.703125 43.21875 25.484375 
L 43.21875 27.484375 
z
M 52.203125 31.203125 
L 52.203125 0 
L 43.21875 0 
L 43.21875 8.296875 
Q 40.140625 3.328125 35.546875 0.953125 
Q 30.953125 -1.421875 24.3125 -1.421875 
Q 15.921875 -1.421875 10.953125 3.296875 
Q 6 8.015625 6 15.921875 
Q 6 25.140625 12.171875 29.828125 
Q 18.359375 34.515625 30.609375 34.515625 
L 43.21875 34.515625 
L 43.21875 35.40625 
Q 43.21875 41.609375 39.140625 45 
Q 35.0625 48.390625 27.6875 48.390625 
Q 23 48.390625 18.546875 47.265625 
Q 14.109375 46.140625 10.015625 43.890625 
L 10.015625 52.203125 
Q 14.9375 54.109375 19.578125 55.046875 
Q 24.21875 56 28.609375 56 
Q 40.484375 56 46.34375 49.84375 
Q 52.203125 43.703125 52.203125 31.203125 
z
M 28.8125 66.890625 
L 26.03125 69.578125 
Q 24.953125 70.5625 24.140625 71.015625 
Q 23.34375 71.484375 22.703125 71.484375 
Q 20.84375 71.484375 19.96875 69.703125 
Q 19.09375 67.921875 19 63.921875 
L 12.890625 63.921875 
Q 12.984375 70.515625 15.46875 74.09375 
Q 17.96875 77.6875 22.40625 77.6875 
Q 24.265625 77.6875 25.828125 77 
Q 27.390625 76.3125 29.203125 74.703125 
L 31.984375 72.015625 
Q 33.0625 71.046875 33.859375 70.578125 
Q 34.671875 70.125 35.296875 70.125 
Q 37.15625 70.125 38.03125 71.90625 
Q 38.921875 73.6875 39.015625 77.6875 
L 45.125 77.6875 
Q 45.015625 71.09375 42.53125 67.5 
Q 40.046875 63.921875 35.59375 63.921875 
Q 33.734375 63.921875 32.171875 64.59375 
Q 30.609375 65.28125 28.8125 66.890625 
z
" id="DejaVuSans-227"/>
     </defs>
     <g transform="translate(213.605 634.486875)scale(0.1 -0.1)">
      <use xlink:href="#DejaVuSans-80"/>
      <use x="60.287109" xlink:href="#DejaVuSans-114"/>
      <use x="101.369141" xlink:href="#DejaVuSans-111"/>
      <use x="162.550781" xlink:href="#DejaVuSans-112"/>
      <use x="226.027344" xlink:href="#DejaVuSans-111"/>
      <use x="287.208984" xlink:href="#DejaVuSans-114"/>
      <use x="328.291016" xlink:href="#DejaVuSans-231"/>
      <use x="383.271484" xlink:href="#DejaVuSans-227"/>
      <use x="444.550781" xlink:href="#DejaVuSans-111"/>
     </g>
    </g>
   </g>
   <g id="matplotlib.axis_2">
    <g id="ytick_1">
     <g id="line2d_10">
      <defs>
       <path d="M 0 0 
L -3.5 0 
" id="m386e1c4ac2" style="stroke:#000000;stroke-width:0.8;"/>
      </defs>
      <g>
       <use style="stroke:#000000;stroke-width:0.8;" x="73.82" xlink:href="#m386e1c4ac2" y="580.507873"/>
      </g>
     </g>
     <g id="text_11">
      <!-- PSL -->
      <defs>
       <path d="M 53.515625 70.515625 
L 53.515625 60.890625 
Q 47.90625 63.578125 42.921875 64.890625 
Q 37.9375 66.21875 33.296875 66.21875 
Q 25.25 66.21875 20.875 63.09375 
Q 16.5 59.96875 16.5 54.203125 
Q 16.5 49.359375 19.40625 46.890625 
Q 22.3125 44.4375 30.421875 42.921875 
L 36.375 41.703125 
Q 47.40625 39.59375 52.65625 34.296875 
Q 57.90625 29 57.90625 20.125 
Q 57.90625 9.515625 50.796875 4.046875 
Q 43.703125 -1.421875 29.984375 -1.421875 
Q 24.8125 -1.421875 18.96875 -0.25 
Q 13.140625 0.921875 6.890625 3.21875 
L 6.890625 13.375 
Q 12.890625 10.015625 18.65625 8.296875 
Q 24.421875 6.59375 29.984375 6.59375 
Q 38.421875 6.59375 43.015625 9.90625 
Q 47.609375 13.234375 47.609375 19.390625 
Q 47.609375 24.75 44.3125 27.78125 
Q 41.015625 30.8125 33.5 32.328125 
L 27.484375 33.5 
Q 16.453125 35.6875 11.515625 40.375 
Q 6.59375 45.0625 6.59375 53.421875 
Q 6.59375 63.09375 13.40625 68.65625 
Q 20.21875 74.21875 32.171875 74.21875 
Q 37.3125 74.21875 42.625 73.28125 
Q 47.953125 72.359375 53.515625 70.515625 
z
" id="DejaVuSans-83"/>
       <path d="M 9.8125 72.90625 
L 19.671875 72.90625 
L 19.671875 8.296875 
L 55.171875 8.296875 
L 55.171875 0 
L 9.8125 0 
z
" id="DejaVuSans-76"/>
      </defs>
      <g transform="translate(48.87 584.307092)scale(0.1 -0.1)">
       <use xlink:href="#DejaVuSans-80"/>
       <use x="60.302734" xlink:href="#DejaVuSans-83"/>
       <use x="123.779297" xlink:href="#DejaVuSans-76"/>
      </g>
     </g>
    </g>
    <g id="ytick_2">
     <g id="line2d_11">
      <g>
       <use style="stroke:#000000;stroke-width:0.8;" x="73.82" xlink:href="#m386e1c4ac2" y="565.54741"/>
      </g>
     </g>
     <g id="text_12">
      <!-- PODE -->
      <defs>
       <path d="M 39.40625 66.21875 
Q 28.65625 66.21875 22.328125 58.203125 
Q 16.015625 50.203125 16.015625 36.375 
Q 16.015625 22.609375 22.328125 14.59375 
Q 28.65625 6.59375 39.40625 6.59375 
Q 50.140625 6.59375 56.421875 14.59375 
Q 62.703125 22.609375 62.703125 36.375 
Q 62.703125 50.203125 56.421875 58.203125 
Q 50.140625 66.21875 39.40625 66.21875 
z
M 39.40625 74.21875 
Q 54.734375 74.21875 63.90625 63.9375 
Q 73.09375 53.65625 73.09375 36.375 
Q 73.09375 19.140625 63.90625 8.859375 
Q 54.734375 -1.421875 39.40625 -1.421875 
Q 24.03125 -1.421875 14.8125 8.828125 
Q 5.609375 19.09375 5.609375 36.375 
Q 5.609375 53.65625 14.8125 63.9375 
Q 24.03125 74.21875 39.40625 74.21875 
z
" id="DejaVuSans-79"/>
       <path d="M 19.671875 64.796875 
L 19.671875 8.109375 
L 31.59375 8.109375 
Q 46.6875 8.109375 53.6875 14.9375 
Q 60.6875 21.78125 60.6875 36.53125 
Q 60.6875 51.171875 53.6875 57.984375 
Q 46.6875 64.796875 31.59375 64.796875 
z
M 9.8125 72.90625 
L 30.078125 72.90625 
Q 51.265625 72.90625 61.171875 64.09375 
Q 71.09375 55.28125 71.09375 36.53125 
Q 71.09375 17.671875 61.125 8.828125 
Q 51.171875 0 30.078125 0 
L 9.8125 0 
z
" id="DejaVuSans-68"/>
       <path d="M 9.8125 72.90625 
L 55.90625 72.90625 
L 55.90625 64.59375 
L 19.671875 64.59375 
L 19.671875 43.015625 
L 54.390625 43.015625 
L 54.390625 34.71875 
L 19.671875 34.71875 
L 19.671875 8.296875 
L 56.78125 8.296875 
L 56.78125 0 
L 9.8125 0 
z
" id="DejaVuSans-69"/>
      </defs>
      <g transform="translate(38.899688 569.346629)scale(0.1 -0.1)">
       <use xlink:href="#DejaVuSans-80"/>
       <use x="60.302734" xlink:href="#DejaVuSans-79"/>
       <use x="139.013672" xlink:href="#DejaVuSans-68"/>
       <use x="216.015625" xlink:href="#DejaVuSans-69"/>
      </g>
     </g>
    </g>
    <g id="ytick_3">
     <g id="line2d_12">
      <g>
       <use style="stroke:#000000;stroke-width:0.8;" x="73.82" xlink:href="#m386e1c4ac2" y="550.586947"/>
      </g>
     </g>
     <g id="text_13">
      <!-- AVANTE -->
      <defs>
       <path d="M 34.1875 63.1875 
L 20.796875 26.90625 
L 47.609375 26.90625 
z
M 28.609375 72.90625 
L 39.796875 72.90625 
L 67.578125 0 
L 57.328125 0 
L 50.6875 18.703125 
L 17.828125 18.703125 
L 11.1875 0 
L 0.78125 0 
z
" id="DejaVuSans-65"/>
       <path d="M 28.609375 0 
L 0.78125 72.90625 
L 11.078125 72.90625 
L 34.1875 11.53125 
L 57.328125 72.90625 
L 67.578125 72.90625 
L 39.796875 0 
z
" id="DejaVuSans-86"/>
       <path d="M 9.8125 72.90625 
L 23.09375 72.90625 
L 55.421875 11.921875 
L 55.421875 72.90625 
L 64.984375 72.90625 
L 64.984375 0 
L 51.703125 0 
L 19.390625 60.984375 
L 19.390625 0 
L 9.8125 0 
z
" id="DejaVuSans-78"/>
       <path d="M -0.296875 72.90625 
L 61.375 72.90625 
L 61.375 64.59375 
L 35.5 64.59375 
L 35.5 0 
L 25.59375 0 
L 25.59375 64.59375 
L -0.296875 64.59375 
z
" id="DejaVuSans-84"/>
      </defs>
      <g transform="translate(26.409063 554.386165)scale(0.1 -0.1)">
       <use xlink:href="#DejaVuSans-65"/>
       <use x="68.314453" xlink:href="#DejaVuSans-86"/>
       <use x="136.628906" xlink:href="#DejaVuSans-65"/>
       <use x="205.037109" xlink:href="#DejaVuSans-78"/>
       <use x="279.841797" xlink:href="#DejaVuSans-84"/>
       <use x="340.925781" xlink:href="#DejaVuSans-69"/>
      </g>
     </g>
    </g>
    <g id="ytick_4">
     <g id="line2d_13">
      <g>
       <use style="stroke:#000000;stroke-width:0.8;" x="73.82" xlink:href="#m386e1c4ac2" y="535.626484"/>
      </g>
     </g>
     <g id="text_14">
      <!-- DEM -->
      <defs>
       <path d="M 9.8125 72.90625 
L 24.515625 72.90625 
L 43.109375 23.296875 
L 61.8125 72.90625 
L 76.515625 72.90625 
L 76.515625 0 
L 66.890625 0 
L 66.890625 64.015625 
L 48.09375 14.015625 
L 38.1875 14.015625 
L 19.390625 64.015625 
L 19.390625 0 
L 9.8125 0 
z
" id="DejaVuSans-77"/>
      </defs>
      <g transform="translate(44.173125 539.425702)scale(0.1 -0.1)">
       <use xlink:href="#DejaVuSans-68"/>
       <use x="77.001953" xlink:href="#DejaVuSans-69"/>
       <use x="140.185547" xlink:href="#DejaVuSans-77"/>
      </g>
     </g>
    </g>
    <g id="ytick_5">
     <g id="line2d_14">
      <g>
       <use style="stroke:#000000;stroke-width:0.8;" x="73.82" xlink:href="#m386e1c4ac2" y="520.66602"/>
      </g>
     </g>
     <g id="text_15">
      <!-- PPL -->
      <g transform="translate(49.18875 524.465239)scale(0.1 -0.1)">
       <use xlink:href="#DejaVuSans-80"/>
       <use x="60.302734" xlink:href="#DejaVuSans-80"/>
       <use x="120.605469" xlink:href="#DejaVuSans-76"/>
      </g>
     </g>
    </g>
    <g id="ytick_6">
     <g id="line2d_15">
      <g>
       <use style="stroke:#000000;stroke-width:0.8;" x="73.82" xlink:href="#m386e1c4ac2" y="505.705557"/>
      </g>
     </g>
     <g id="text_16">
      <!-- REDE -->
      <defs>
       <path d="M 44.390625 34.1875 
Q 47.5625 33.109375 50.5625 29.59375 
Q 53.5625 26.078125 56.59375 19.921875 
L 66.609375 0 
L 56 0 
L 46.6875 18.703125 
Q 43.0625 26.03125 39.671875 28.421875 
Q 36.28125 30.8125 30.421875 30.8125 
L 19.671875 30.8125 
L 19.671875 0 
L 9.8125 0 
L 9.8125 72.90625 
L 32.078125 72.90625 
Q 44.578125 72.90625 50.734375 67.671875 
Q 56.890625 62.453125 56.890625 51.90625 
Q 56.890625 45.015625 53.6875 40.46875 
Q 50.484375 35.9375 44.390625 34.1875 
z
M 19.671875 64.796875 
L 19.671875 38.921875 
L 32.078125 38.921875 
Q 39.203125 38.921875 42.84375 42.21875 
Q 46.484375 45.515625 46.484375 51.90625 
Q 46.484375 58.296875 42.84375 61.546875 
Q 39.203125 64.796875 32.078125 64.796875 
z
" id="DejaVuSans-82"/>
      </defs>
      <g transform="translate(39.534063 509.504776)scale(0.1 -0.1)">
       <use xlink:href="#DejaVuSans-82"/>
       <use x="69.482422" xlink:href="#DejaVuSans-69"/>
       <use x="132.666016" xlink:href="#DejaVuSans-68"/>
       <use x="209.667969" xlink:href="#DejaVuSans-69"/>
      </g>
     </g>
    </g>
    <g id="ytick_7">
     <g id="line2d_16">
      <g>
       <use style="stroke:#000000;stroke-width:0.8;" x="73.82" xlink:href="#m386e1c4ac2" y="490.745094"/>
      </g>
     </g>
     <g id="text_17">
      <!-- PCB -->
      <defs>
       <path d="M 64.40625 67.28125 
L 64.40625 56.890625 
Q 59.421875 61.53125 53.78125 63.8125 
Q 48.140625 66.109375 41.796875 66.109375 
Q 29.296875 66.109375 22.65625 58.46875 
Q 16.015625 50.828125 16.015625 36.375 
Q 16.015625 21.96875 22.65625 14.328125 
Q 29.296875 6.6875 41.796875 6.6875 
Q 48.140625 6.6875 53.78125 8.984375 
Q 59.421875 11.28125 64.40625 15.921875 
L 64.40625 5.609375 
Q 59.234375 2.09375 53.4375 0.328125 
Q 47.65625 -1.421875 41.21875 -1.421875 
Q 24.65625 -1.421875 15.125 8.703125 
Q 5.609375 18.84375 5.609375 36.375 
Q 5.609375 53.953125 15.125 64.078125 
Q 24.65625 74.21875 41.21875 74.21875 
Q 47.75 74.21875 53.53125 72.484375 
Q 59.328125 70.75 64.40625 67.28125 
z
" id="DejaVuSans-67"/>
       <path d="M 19.671875 34.8125 
L 19.671875 8.109375 
L 35.5 8.109375 
Q 43.453125 8.109375 47.28125 11.40625 
Q 51.125 14.703125 51.125 21.484375 
Q 51.125 28.328125 47.28125 31.5625 
Q 43.453125 34.8125 35.5 34.8125 
z
M 19.671875 64.796875 
L 19.671875 42.828125 
L 34.28125 42.828125 
Q 41.5 42.828125 45.03125 45.53125 
Q 48.578125 48.25 48.578125 53.8125 
Q 48.578125 59.328125 45.03125 62.0625 
Q 41.5 64.796875 34.28125 64.796875 
z
M 9.8125 72.90625 
L 35.015625 72.90625 
Q 46.296875 72.90625 52.390625 68.21875 
Q 58.5 63.53125 58.5 54.890625 
Q 58.5 48.1875 55.375 44.234375 
Q 52.25 40.28125 46.1875 39.3125 
Q 53.46875 37.75 57.5 32.78125 
Q 61.53125 27.828125 61.53125 20.40625 
Q 61.53125 10.640625 54.890625 5.3125 
Q 48.25 0 35.984375 0 
L 9.8125 0 
z
" id="DejaVuSans-66"/>
      </defs>
      <g transform="translate(46.946563 494.544313)scale(0.1 -0.1)">
       <use xlink:href="#DejaVuSans-80"/>
       <use x="60.302734" xlink:href="#DejaVuSans-67"/>
       <use x="130.126953" xlink:href="#DejaVuSans-66"/>
      </g>
     </g>
    </g>
    <g id="ytick_8">
     <g id="line2d_17">
      <g>
       <use style="stroke:#000000;stroke-width:0.8;" x="73.82" xlink:href="#m386e1c4ac2" y="475.784631"/>
      </g>
     </g>
     <g id="text_18">
      <!-- PSD -->
      <g transform="translate(46.741875 479.58385)scale(0.1 -0.1)">
       <use xlink:href="#DejaVuSans-80"/>
       <use x="60.302734" xlink:href="#DejaVuSans-83"/>
       <use x="123.779297" xlink:href="#DejaVuSans-68"/>
      </g>
     </g>
    </g>
    <g id="ytick_9">
     <g id="line2d_18">
      <g>
       <use style="stroke:#000000;stroke-width:0.8;" x="73.82" xlink:href="#m386e1c4ac2" y="460.824168"/>
      </g>
     </g>
     <g id="text_19">
      <!-- PROS -->
      <g transform="translate(39.621563 464.623387)scale(0.1 -0.1)">
       <use xlink:href="#DejaVuSans-80"/>
       <use x="60.302734" xlink:href="#DejaVuSans-82"/>
       <use x="129.785156" xlink:href="#DejaVuSans-79"/>
       <use x="208.496094" xlink:href="#DejaVuSans-83"/>
      </g>
     </g>
    </g>
    <g id="ytick_10">
     <g id="line2d_19">
      <g>
       <use style="stroke:#000000;stroke-width:0.8;" x="73.82" xlink:href="#m386e1c4ac2" y="445.863705"/>
      </g>
     </g>
     <g id="text_20">
      <!-- PP -->
      <g transform="translate(54.760625 449.662924)scale(0.1 -0.1)">
       <use xlink:href="#DejaVuSans-80"/>
       <use x="60.302734" xlink:href="#DejaVuSans-80"/>
      </g>
     </g>
    </g>
    <g id="ytick_11">
     <g id="line2d_20">
      <g>
       <use style="stroke:#000000;stroke-width:0.8;" x="73.82" xlink:href="#m386e1c4ac2" y="430.903242"/>
      </g>
     </g>
     <g id="text_21">
      <!-- PHS -->
      <defs>
       <path d="M 9.8125 72.90625 
L 19.671875 72.90625 
L 19.671875 43.015625 
L 55.515625 43.015625 
L 55.515625 72.90625 
L 65.375 72.90625 
L 65.375 0 
L 55.515625 0 
L 55.515625 34.71875 
L 19.671875 34.71875 
L 19.671875 0 
L 9.8125 0 
z
" id="DejaVuSans-72"/>
      </defs>
      <g transform="translate(46.921563 434.702461)scale(0.1 -0.1)">
       <use xlink:href="#DejaVuSans-80"/>
       <use x="60.302734" xlink:href="#DejaVuSans-72"/>
       <use x="135.498047" xlink:href="#DejaVuSans-83"/>
      </g>
     </g>
    </g>
    <g id="ytick_12">
     <g id="line2d_21">
      <g>
       <use style="stroke:#000000;stroke-width:0.8;" x="73.82" xlink:href="#m386e1c4ac2" y="415.942779"/>
      </g>
     </g>
     <g id="text_22">
      <!-- DC -->
      <g transform="translate(52.137188 419.741997)scale(0.1 -0.1)">
       <use xlink:href="#DejaVuSans-68"/>
       <use x="77.001953" xlink:href="#DejaVuSans-67"/>
      </g>
     </g>
    </g>
    <g id="ytick_13">
     <g id="line2d_22">
      <g>
       <use style="stroke:#000000;stroke-width:0.8;" x="73.82" xlink:href="#m386e1c4ac2" y="400.982316"/>
      </g>
     </g>
     <g id="text_23">
      <!-- PMN -->
      <g transform="translate(44.680938 404.781534)scale(0.1 -0.1)">
       <use xlink:href="#DejaVuSans-80"/>
       <use x="60.302734" xlink:href="#DejaVuSans-77"/>
       <use x="146.582031" xlink:href="#DejaVuSans-78"/>
      </g>
     </g>
    </g>
    <g id="ytick_14">
     <g id="line2d_23">
      <g>
       <use style="stroke:#000000;stroke-width:0.8;" x="73.82" xlink:href="#m386e1c4ac2" y="386.021852"/>
      </g>
     </g>
     <g id="text_24">
      <!-- PDT -->
      <g transform="translate(46.9825 389.821071)scale(0.1 -0.1)">
       <use xlink:href="#DejaVuSans-80"/>
       <use x="60.302734" xlink:href="#DejaVuSans-68"/>
       <use x="137.304688" xlink:href="#DejaVuSans-84"/>
      </g>
     </g>
    </g>
    <g id="ytick_15">
     <g id="line2d_24">
      <g>
       <use style="stroke:#000000;stroke-width:0.8;" x="73.82" xlink:href="#m386e1c4ac2" y="371.061389"/>
      </g>
     </g>
     <g id="text_25">
      <!-- PATRI -->
      <defs>
       <path d="M 9.8125 72.90625 
L 19.671875 72.90625 
L 19.671875 0 
L 9.8125 0 
z
" id="DejaVuSans-73"/>
      </defs>
      <g transform="translate(37.96375 374.860608)scale(0.1 -0.1)">
       <use xlink:href="#DejaVuSans-80"/>
       <use x="60.208984" xlink:href="#DejaVuSans-65"/>
       <use x="128.507812" xlink:href="#DejaVuSans-84"/>
       <use x="189.591797" xlink:href="#DejaVuSans-82"/>
       <use x="259.074219" xlink:href="#DejaVuSans-73"/>
      </g>
     </g>
    </g>
    <g id="ytick_16">
     <g id="line2d_25">
      <g>
       <use style="stroke:#000000;stroke-width:0.8;" x="73.82" xlink:href="#m386e1c4ac2" y="356.100926"/>
      </g>
     </g>
     <g id="text_26">
      <!-- PSC -->
      <g transform="translate(47.459063 359.900145)scale(0.1 -0.1)">
       <use xlink:href="#DejaVuSans-80"/>
       <use x="60.302734" xlink:href="#DejaVuSans-83"/>
       <use x="123.779297" xlink:href="#DejaVuSans-67"/>
      </g>
     </g>
    </g>
    <g id="ytick_17">
     <g id="line2d_26">
      <g>
       <use style="stroke:#000000;stroke-width:0.8;" x="73.82" xlink:href="#m386e1c4ac2" y="341.140463"/>
      </g>
     </g>
     <g id="text_27">
      <!-- PRTB -->
      <g transform="translate(40.884063 344.939682)scale(0.1 -0.1)">
       <use xlink:href="#DejaVuSans-80"/>
       <use x="60.302734" xlink:href="#DejaVuSans-82"/>
       <use x="129.675781" xlink:href="#DejaVuSans-84"/>
       <use x="190.759766" xlink:href="#DejaVuSans-66"/>
      </g>
     </g>
    </g>
    <g id="ytick_18">
     <g id="line2d_27">
      <g>
       <use style="stroke:#000000;stroke-width:0.8;" x="73.82" xlink:href="#m386e1c4ac2" y="326.18"/>
      </g>
     </g>
     <g id="text_28">
      <!-- PPS -->
      <g transform="translate(48.412188 329.979219)scale(0.1 -0.1)">
       <use xlink:href="#DejaVuSans-80"/>
       <use x="60.302734" xlink:href="#DejaVuSans-80"/>
       <use x="120.605469" xlink:href="#DejaVuSans-83"/>
      </g>
     </g>
    </g>
    <g id="ytick_19">
     <g id="line2d_28">
      <g>
       <use style="stroke:#000000;stroke-width:0.8;" x="73.82" xlink:href="#m386e1c4ac2" y="311.219537"/>
      </g>
     </g>
     <g id="text_29">
      <!-- PTC -->
      <g transform="translate(47.7075 315.018756)scale(0.1 -0.1)">
       <use xlink:href="#DejaVuSans-80"/>
       <use x="60.302734" xlink:href="#DejaVuSans-84"/>
       <use x="121.308594" xlink:href="#DejaVuSans-67"/>
      </g>
     </g>
    </g>
    <g id="ytick_20">
     <g id="line2d_29">
      <g>
       <use style="stroke:#000000;stroke-width:0.8;" x="73.82" xlink:href="#m386e1c4ac2" y="296.259074"/>
      </g>
     </g>
     <g id="text_30">
      <!-- PR -->
      <g transform="translate(53.841875 300.058293)scale(0.1 -0.1)">
       <use xlink:href="#DejaVuSans-80"/>
       <use x="60.302734" xlink:href="#DejaVuSans-82"/>
      </g>
     </g>
    </g>
    <g id="ytick_21">
     <g id="line2d_30">
      <g>
       <use style="stroke:#000000;stroke-width:0.8;" x="73.82" xlink:href="#m386e1c4ac2" y="281.298611"/>
      </g>
     </g>
     <g id="text_31">
      <!-- PSB -->
      <g transform="translate(47.580938 285.097829)scale(0.1 -0.1)">
       <use xlink:href="#DejaVuSans-80"/>
       <use x="60.302734" xlink:href="#DejaVuSans-83"/>
       <use x="123.779297" xlink:href="#DejaVuSans-66"/>
      </g>
     </g>
    </g>
    <g id="ytick_22">
     <g id="line2d_31">
      <g>
       <use style="stroke:#000000;stroke-width:0.8;" x="73.82" xlink:href="#m386e1c4ac2" y="266.338148"/>
      </g>
     </g>
     <g id="text_32">
      <!-- PRP -->
      <g transform="translate(47.812188 270.137366)scale(0.1 -0.1)">
       <use xlink:href="#DejaVuSans-80"/>
       <use x="60.302734" xlink:href="#DejaVuSans-82"/>
       <use x="129.785156" xlink:href="#DejaVuSans-80"/>
      </g>
     </g>
    </g>
    <g id="ytick_23">
     <g id="line2d_32">
      <g>
       <use style="stroke:#000000;stroke-width:0.8;" x="73.82" xlink:href="#m386e1c4ac2" y="251.377684"/>
      </g>
     </g>
     <g id="text_33">
      <!-- SD -->
      <g transform="translate(52.771563 255.176903)scale(0.1 -0.1)">
       <use xlink:href="#DejaVuSans-83"/>
       <use x="63.476562" xlink:href="#DejaVuSans-68"/>
      </g>
     </g>
    </g>
    <g id="ytick_24">
     <g id="line2d_33">
      <g>
       <use style="stroke:#000000;stroke-width:0.8;" x="73.82" xlink:href="#m386e1c4ac2" y="236.417221"/>
      </g>
     </g>
     <g id="text_34">
      <!-- NOVO -->
      <g transform="translate(36.7575 240.21644)scale(0.1 -0.1)">
       <use xlink:href="#DejaVuSans-78"/>
       <use x="74.804688" xlink:href="#DejaVuSans-79"/>
       <use x="153.5" xlink:href="#DejaVuSans-86"/>
       <use x="221.892578" xlink:href="#DejaVuSans-79"/>
      </g>
     </g>
    </g>
    <g id="ytick_25">
     <g id="line2d_34">
      <g>
       <use style="stroke:#000000;stroke-width:0.8;" x="73.82" xlink:href="#m386e1c4ac2" y="221.456758"/>
      </g>
     </g>
     <g id="text_35">
      <!-- PRB -->
      <g transform="translate(46.980938 225.255977)scale(0.1 -0.1)">
       <use xlink:href="#DejaVuSans-80"/>
       <use x="60.302734" xlink:href="#DejaVuSans-82"/>
       <use x="129.785156" xlink:href="#DejaVuSans-66"/>
      </g>
     </g>
    </g>
    <g id="ytick_26">
     <g id="line2d_35">
      <g>
       <use style="stroke:#000000;stroke-width:0.8;" x="73.82" xlink:href="#m386e1c4ac2" y="206.496295"/>
      </g>
     </g>
     <g id="text_36">
      <!-- PSDB -->
      <g transform="translate(39.880938 210.295514)scale(0.1 -0.1)">
       <use xlink:href="#DejaVuSans-80"/>
       <use x="60.302734" xlink:href="#DejaVuSans-83"/>
       <use x="123.779297" xlink:href="#DejaVuSans-68"/>
       <use x="200.78125" xlink:href="#DejaVuSans-66"/>
      </g>
     </g>
    </g>
    <g id="ytick_27">
     <g id="line2d_36">
      <g>
       <use style="stroke:#000000;stroke-width:0.8;" x="73.82" xlink:href="#m386e1c4ac2" y="191.535832"/>
      </g>
     </g>
     <g id="text_37">
      <!-- PTB -->
      <g transform="translate(47.821563 195.335051)scale(0.1 -0.1)">
       <use xlink:href="#DejaVuSans-80"/>
       <use x="60.302734" xlink:href="#DejaVuSans-84"/>
       <use x="121.386719" xlink:href="#DejaVuSans-66"/>
      </g>
     </g>
    </g>
    <g id="ytick_28">
     <g id="line2d_37">
      <g>
       <use style="stroke:#000000;stroke-width:0.8;" x="73.82" xlink:href="#m386e1c4ac2" y="176.575369"/>
      </g>
     </g>
     <g id="text_38">
      <!-- PT -->
      <g transform="translate(54.6825 180.374588)scale(0.1 -0.1)">
       <use xlink:href="#DejaVuSans-80"/>
       <use x="60.302734" xlink:href="#DejaVuSans-84"/>
      </g>
     </g>
    </g>
    <g id="ytick_29">
     <g id="line2d_38">
      <g>
       <use style="stroke:#000000;stroke-width:0.8;" x="73.82" xlink:href="#m386e1c4ac2" y="161.614906"/>
      </g>
     </g>
     <g id="text_39">
      <!-- PSOL -->
      <g transform="translate(40.998125 165.414125)scale(0.1 -0.1)">
       <use xlink:href="#DejaVuSans-80"/>
       <use x="60.302734" xlink:href="#DejaVuSans-83"/>
       <use x="123.779297" xlink:href="#DejaVuSans-79"/>
       <use x="202.490234" xlink:href="#DejaVuSans-76"/>
      </g>
     </g>
    </g>
    <g id="ytick_30">
     <g id="line2d_39">
      <g>
       <use style="stroke:#000000;stroke-width:0.8;" x="73.82" xlink:href="#m386e1c4ac2" y="146.654443"/>
      </g>
     </g>
     <g id="text_40">
      <!-- PV -->
      <g transform="translate(53.949688 150.453661)scale(0.1 -0.1)">
       <use xlink:href="#DejaVuSans-80"/>
       <use x="60.302734" xlink:href="#DejaVuSans-86"/>
      </g>
     </g>
    </g>
    <g id="ytick_31">
     <g id="line2d_40">
      <g>
       <use style="stroke:#000000;stroke-width:0.8;" x="73.82" xlink:href="#m386e1c4ac2" y="131.69398"/>
      </g>
     </g>
     <g id="text_41">
      <!-- MDB -->
      <g transform="translate(43.630938 135.493198)scale(0.1 -0.1)">
       <use xlink:href="#DejaVuSans-77"/>
       <use x="86.279297" xlink:href="#DejaVuSans-68"/>
       <use x="163.28125" xlink:href="#DejaVuSans-66"/>
      </g>
     </g>
    </g>
    <g id="ytick_32">
     <g id="line2d_41">
      <g>
       <use style="stroke:#000000;stroke-width:0.8;" x="73.82" xlink:href="#m386e1c4ac2" y="116.733516"/>
      </g>
     </g>
     <g id="text_42">
      <!-- PC DO B -->
      <defs>
       <path id="DejaVuSans-32"/>
      </defs>
      <g transform="translate(25.018438 120.532735)scale(0.1 -0.1)">
       <use xlink:href="#DejaVuSans-80"/>
       <use x="60.302734" xlink:href="#DejaVuSans-67"/>
       <use x="130.126953" xlink:href="#DejaVuSans-32"/>
       <use x="161.914062" xlink:href="#DejaVuSans-68"/>
       <use x="238.916016" xlink:href="#DejaVuSans-79"/>
       <use x="317.626953" xlink:href="#DejaVuSans-32"/>
       <use x="349.414062" xlink:href="#DejaVuSans-66"/>
      </g>
     </g>
    </g>
    <g id="ytick_33">
     <g id="line2d_42">
      <g>
       <use style="stroke:#000000;stroke-width:0.8;" x="73.82" xlink:href="#m386e1c4ac2" y="101.773053"/>
      </g>
     </g>
     <g id="text_43">
      <!-- PCO -->
      <g transform="translate(45.935625 105.572272)scale(0.1 -0.1)">
       <use xlink:href="#DejaVuSans-80"/>
       <use x="60.302734" xlink:href="#DejaVuSans-67"/>
       <use x="130.126953" xlink:href="#DejaVuSans-79"/>
      </g>
     </g>
    </g>
    <g id="ytick_34">
     <g id="line2d_43">
      <g>
       <use style="stroke:#000000;stroke-width:0.8;" x="73.82" xlink:href="#m386e1c4ac2" y="86.81259"/>
      </g>
     </g>
     <g id="text_44">
      <!-- PSTU -->
      <defs>
       <path d="M 8.6875 72.90625 
L 18.609375 72.90625 
L 18.609375 28.609375 
Q 18.609375 16.890625 22.84375 11.734375 
Q 27.09375 6.59375 36.625 6.59375 
Q 46.09375 6.59375 50.34375 11.734375 
Q 54.59375 16.890625 54.59375 28.609375 
L 54.59375 72.90625 
L 64.5 72.90625 
L 64.5 27.390625 
Q 64.5 13.140625 57.4375 5.859375 
Q 50.390625 -1.421875 36.625 -1.421875 
Q 22.796875 -1.421875 15.734375 5.859375 
Q 8.6875 13.140625 8.6875 27.390625 
z
" id="DejaVuSans-85"/>
      </defs>
      <g transform="translate(41.015313 90.611809)scale(0.1 -0.1)">
       <use xlink:href="#DejaVuSans-80"/>
       <use x="60.302734" xlink:href="#DejaVuSans-83"/>
       <use x="123.779297" xlink:href="#DejaVuSans-84"/>
       <use x="184.863281" xlink:href="#DejaVuSans-85"/>
      </g>
     </g>
    </g>
    <g id="ytick_35">
     <g id="line2d_44">
      <g>
       <use style="stroke:#000000;stroke-width:0.8;" x="73.82" xlink:href="#m386e1c4ac2" y="71.852127"/>
      </g>
     </g>
     <g id="text_45">
      <!-- PMB -->
      <g transform="translate(45.30125 75.651346)scale(0.1 -0.1)">
       <use xlink:href="#DejaVuSans-80"/>
       <use x="60.302734" xlink:href="#DejaVuSans-77"/>
       <use x="146.582031" xlink:href="#DejaVuSans-66"/>
      </g>
     </g>
    </g>
    <g id="text_46">
     <!-- Partidos -->
     <defs>
      <path d="M 34.28125 27.484375 
Q 23.390625 27.484375 19.1875 25 
Q 14.984375 22.515625 14.984375 16.5 
Q 14.984375 11.71875 18.140625 8.90625 
Q 21.296875 6.109375 26.703125 6.109375 
Q 34.1875 6.109375 38.703125 11.40625 
Q 43.21875 16.703125 43.21875 25.484375 
L 43.21875 27.484375 
z
M 52.203125 31.203125 
L 52.203125 0 
L 43.21875 0 
L 43.21875 8.296875 
Q 40.140625 3.328125 35.546875 0.953125 
Q 30.953125 -1.421875 24.3125 -1.421875 
Q 15.921875 -1.421875 10.953125 3.296875 
Q 6 8.015625 6 15.921875 
Q 6 25.140625 12.171875 29.828125 
Q 18.359375 34.515625 30.609375 34.515625 
L 43.21875 34.515625 
L 43.21875 35.40625 
Q 43.21875 41.609375 39.140625 45 
Q 35.0625 48.390625 27.6875 48.390625 
Q 23 48.390625 18.546875 47.265625 
Q 14.109375 46.140625 10.015625 43.890625 
L 10.015625 52.203125 
Q 14.9375 54.109375 19.578125 55.046875 
Q 24.21875 56 28.609375 56 
Q 40.484375 56 46.34375 49.84375 
Q 52.203125 43.703125 52.203125 31.203125 
z
" id="DejaVuSans-97"/>
      <path d="M 18.3125 70.21875 
L 18.3125 54.6875 
L 36.8125 54.6875 
L 36.8125 47.703125 
L 18.3125 47.703125 
L 18.3125 18.015625 
Q 18.3125 11.328125 20.140625 9.421875 
Q 21.96875 7.515625 27.59375 7.515625 
L 36.8125 7.515625 
L 36.8125 0 
L 27.59375 0 
Q 17.1875 0 13.234375 3.875 
Q 9.28125 7.765625 9.28125 18.015625 
L 9.28125 47.703125 
L 2.6875 47.703125 
L 2.6875 54.6875 
L 9.28125 54.6875 
L 9.28125 70.21875 
z
" id="DejaVuSans-116"/>
      <path d="M 9.421875 54.6875 
L 18.40625 54.6875 
L 18.40625 0 
L 9.421875 0 
z
M 9.421875 75.984375 
L 18.40625 75.984375 
L 18.40625 64.59375 
L 9.421875 64.59375 
z
" id="DejaVuSans-105"/>
      <path d="M 45.40625 46.390625 
L 45.40625 75.984375 
L 54.390625 75.984375 
L 54.390625 0 
L 45.40625 0 
L 45.40625 8.203125 
Q 42.578125 3.328125 38.25 0.953125 
Q 33.9375 -1.421875 27.875 -1.421875 
Q 17.96875 -1.421875 11.734375 6.484375 
Q 5.515625 14.40625 5.515625 27.296875 
Q 5.515625 40.1875 11.734375 48.09375 
Q 17.96875 56 27.875 56 
Q 33.9375 56 38.25 53.625 
Q 42.578125 51.265625 45.40625 46.390625 
z
M 14.796875 27.296875 
Q 14.796875 17.390625 18.875 11.75 
Q 22.953125 6.109375 30.078125 6.109375 
Q 37.203125 6.109375 41.296875 11.75 
Q 45.40625 17.390625 45.40625 27.296875 
Q 45.40625 37.203125 41.296875 42.84375 
Q 37.203125 48.484375 30.078125 48.484375 
Q 22.953125 48.484375 18.875 42.84375 
Q 14.796875 37.203125 14.796875 27.296875 
z
" id="DejaVuSans-100"/>
      <path d="M 44.28125 53.078125 
L 44.28125 44.578125 
Q 40.484375 46.53125 36.375 47.5 
Q 32.28125 48.484375 27.875 48.484375 
Q 21.1875 48.484375 17.84375 46.4375 
Q 14.5 44.390625 14.5 40.28125 
Q 14.5 37.15625 16.890625 35.375 
Q 19.28125 33.59375 26.515625 31.984375 
L 29.59375 31.296875 
Q 39.15625 29.25 43.1875 25.515625 
Q 47.21875 21.78125 47.21875 15.09375 
Q 47.21875 7.46875 41.1875 3.015625 
Q 35.15625 -1.421875 24.609375 -1.421875 
Q 20.21875 -1.421875 15.453125 -0.5625 
Q 10.6875 0.296875 5.421875 2 
L 5.421875 11.28125 
Q 10.40625 8.6875 15.234375 7.390625 
Q 20.0625 6.109375 24.8125 6.109375 
Q 31.15625 6.109375 34.5625 8.28125 
Q 37.984375 10.453125 37.984375 14.40625 
Q 37.984375 18.0625 35.515625 20.015625 
Q 33.0625 21.96875 24.703125 23.78125 
L 21.578125 24.515625 
Q 13.234375 26.265625 9.515625 29.90625 
Q 5.8125 33.546875 5.8125 39.890625 
Q 5.8125 47.609375 11.28125 51.796875 
Q 16.75 56 26.8125 56 
Q 31.78125 56 36.171875 55.265625 
Q 40.578125 54.546875 44.28125 53.078125 
z
" id="DejaVuSans-115"/>
     </defs>
     <g transform="translate(18.93875 346.49875)rotate(-90)scale(0.1 -0.1)">
      <use xlink:href="#DejaVuSans-80"/>
      <use x="60.240234" xlink:href="#DejaVuSans-97"/>
      <use x="121.519531" xlink:href="#DejaVuSans-114"/>
      <use x="162.632812" xlink:href="#DejaVuSans-116"/>
      <use x="201.841797" xlink:href="#DejaVuSans-105"/>
      <use x="229.625" xlink:href="#DejaVuSans-100"/>
      <use x="293.101562" xlink:href="#DejaVuSans-111"/>
      <use x="354.283203" xlink:href="#DejaVuSans-115"/>
     </g>
    </g>
   </g>
   <g id="line2d_45">
    <path clip-path="url(#pe711b9d4d1)" d="M 238.8925 606.04 
L 238.8925 46.32 
" style="fill:none;stroke:#000000;stroke-dasharray:14.8,6.4;stroke-dashoffset:0;stroke-width:4;"/>
   </g>
   <g id="line2d_46">
    <path clip-path="url(#pe711b9d4d1)" d="M 161.671516 606.04 
L 161.671516 46.32 
" style="fill:none;stroke:#008000;stroke-linecap:square;stroke-width:2;"/>
   </g>
   <g id="text_47">
    <!-- Proporção de Mulheres -->
    <defs>
     <path d="M 56.203125 29.59375 
L 56.203125 25.203125 
L 14.890625 25.203125 
Q 15.484375 15.921875 20.484375 11.0625 
Q 25.484375 6.203125 34.421875 6.203125 
Q 39.59375 6.203125 44.453125 7.46875 
Q 49.3125 8.734375 54.109375 11.28125 
L 54.109375 2.78125 
Q 49.265625 0.734375 44.1875 -0.34375 
Q 39.109375 -1.421875 33.890625 -1.421875 
Q 20.796875 -1.421875 13.15625 6.1875 
Q 5.515625 13.8125 5.515625 26.8125 
Q 5.515625 40.234375 12.765625 48.109375 
Q 20.015625 56 32.328125 56 
Q 43.359375 56 49.78125 48.890625 
Q 56.203125 41.796875 56.203125 29.59375 
z
M 47.21875 32.234375 
Q 47.125 39.59375 43.09375 43.984375 
Q 39.0625 48.390625 32.421875 48.390625 
Q 24.90625 48.390625 20.390625 44.140625 
Q 15.875 39.890625 15.1875 32.171875 
z
" id="DejaVuSans-101"/>
     <path d="M 8.5 21.578125 
L 8.5 54.6875 
L 17.484375 54.6875 
L 17.484375 21.921875 
Q 17.484375 14.15625 20.5 10.265625 
Q 23.53125 6.390625 29.59375 6.390625 
Q 36.859375 6.390625 41.078125 11.03125 
Q 45.3125 15.671875 45.3125 23.6875 
L 45.3125 54.6875 
L 54.296875 54.6875 
L 54.296875 0 
L 45.3125 0 
L 45.3125 8.40625 
Q 42.046875 3.421875 37.71875 1 
Q 33.40625 -1.421875 27.6875 -1.421875 
Q 18.265625 -1.421875 13.375 4.4375 
Q 8.5 10.296875 8.5 21.578125 
z
M 31.109375 56 
z
" id="DejaVuSans-117"/>
     <path d="M 9.421875 75.984375 
L 18.40625 75.984375 
L 18.40625 0 
L 9.421875 0 
z
" id="DejaVuSans-108"/>
     <path d="M 54.890625 33.015625 
L 54.890625 0 
L 45.90625 0 
L 45.90625 32.71875 
Q 45.90625 40.484375 42.875 44.328125 
Q 39.84375 48.1875 33.796875 48.1875 
Q 26.515625 48.1875 22.3125 43.546875 
Q 18.109375 38.921875 18.109375 30.90625 
L 18.109375 0 
L 9.078125 0 
L 9.078125 75.984375 
L 18.109375 75.984375 
L 18.109375 46.1875 
Q 21.34375 51.125 25.703125 53.5625 
Q 30.078125 56 35.796875 56 
Q 45.21875 56 50.046875 50.171875 
Q 54.890625 44.34375 54.890625 33.015625 
z
" id="DejaVuSans-104"/>
    </defs>
    <g transform="translate(152.539375 22.803281)scale(0.15 -0.15)">
     <use xlink:href="#DejaVuSans-80"/>
     <use x="60.287109" xlink:href="#DejaVuSans-114"/>
     <use x="101.369141" xlink:href="#DejaVuSans-111"/>
     <use x="162.550781" xlink:href="#DejaVuSans-112"/>
     <use x="226.027344" xlink:href="#DejaVuSans-111"/>
     <use x="287.208984" xlink:href="#DejaVuSans-114"/>
     <use x="328.291016" xlink:href="#DejaVuSans-231"/>
     <use x="383.271484" xlink:href="#DejaVuSans-227"/>
     <use x="444.550781" xlink:href="#DejaVuSans-111"/>
     <use x="505.732422" xlink:href="#DejaVuSans-32"/>
     <use x="537.519531" xlink:href="#DejaVuSans-100"/>
     <use x="600.996094" xlink:href="#DejaVuSans-101"/>
     <use x="662.519531" xlink:href="#DejaVuSans-32"/>
     <use x="694.306641" xlink:href="#DejaVuSans-77"/>
     <use x="780.585938" xlink:href="#DejaVuSans-117"/>
     <use x="843.964844" xlink:href="#DejaVuSans-108"/>
     <use x="871.748047" xlink:href="#DejaVuSans-104"/>
     <use x="935.126953" xlink:href="#DejaVuSans-101"/>
     <use x="996.650391" xlink:href="#DejaVuSans-114"/>
     <use x="1037.732422" xlink:href="#DejaVuSans-101"/>
     <use x="1099.255859" xlink:href="#DejaVuSans-115"/>
    </g>
    <!-- Candidatas à Eleição de 2018 por Partido Político -->
    <defs>
     <path d="M 54.890625 33.015625 
L 54.890625 0 
L 45.90625 0 
L 45.90625 32.71875 
Q 45.90625 40.484375 42.875 44.328125 
Q 39.84375 48.1875 33.796875 48.1875 
Q 26.515625 48.1875 22.3125 43.546875 
Q 18.109375 38.921875 18.109375 30.90625 
L 18.109375 0 
L 9.078125 0 
L 9.078125 54.6875 
L 18.109375 54.6875 
L 18.109375 46.1875 
Q 21.34375 51.125 25.703125 53.5625 
Q 30.078125 56 35.796875 56 
Q 45.21875 56 50.046875 50.171875 
Q 54.890625 44.34375 54.890625 33.015625 
z
" id="DejaVuSans-110"/>
     <path d="M 34.28125 27.484375 
Q 23.390625 27.484375 19.1875 25 
Q 14.984375 22.515625 14.984375 16.5 
Q 14.984375 11.71875 18.140625 8.90625 
Q 21.296875 6.109375 26.703125 6.109375 
Q 34.1875 6.109375 38.703125 11.40625 
Q 43.21875 16.703125 43.21875 25.484375 
L 43.21875 27.484375 
z
M 52.203125 31.203125 
L 52.203125 0 
L 43.21875 0 
L 43.21875 8.296875 
Q 40.140625 3.328125 35.546875 0.953125 
Q 30.953125 -1.421875 24.3125 -1.421875 
Q 15.921875 -1.421875 10.953125 3.296875 
Q 6 8.015625 6 15.921875 
Q 6 25.140625 12.171875 29.828125 
Q 18.359375 34.515625 30.609375 34.515625 
L 43.21875 34.515625 
L 43.21875 35.40625 
Q 43.21875 41.609375 39.140625 45 
Q 35.0625 48.390625 27.6875 48.390625 
Q 23 48.390625 18.546875 47.265625 
Q 14.109375 46.140625 10.015625 43.890625 
L 10.015625 52.203125 
Q 14.9375 54.109375 19.578125 55.046875 
Q 24.21875 56 28.609375 56 
Q 40.484375 56 46.34375 49.84375 
Q 52.203125 43.703125 52.203125 31.203125 
z
M 21.921875 79.984375 
L 35.6875 61.71875 
L 28.21875 61.71875 
L 12.3125 79.984375 
z
" id="DejaVuSans-224"/>
     <path d="M 20.703125 79.984375 
L 30.421875 79.984375 
L 14.5 61.625 
L 7.03125 61.625 
z
M 9.421875 54.6875 
L 18.40625 54.6875 
L 18.40625 0 
L 9.421875 0 
z
M 13.921875 56 
z
" id="DejaVuSans-237"/>
     <path d="M 48.78125 52.59375 
L 48.78125 44.1875 
Q 44.96875 46.296875 41.140625 47.34375 
Q 37.3125 48.390625 33.40625 48.390625 
Q 24.65625 48.390625 19.8125 42.84375 
Q 14.984375 37.3125 14.984375 27.296875 
Q 14.984375 17.28125 19.8125 11.734375 
Q 24.65625 6.203125 33.40625 6.203125 
Q 37.3125 6.203125 41.140625 7.25 
Q 44.96875 8.296875 48.78125 10.40625 
L 48.78125 2.09375 
Q 45.015625 0.34375 40.984375 -0.53125 
Q 36.96875 -1.421875 32.421875 -1.421875 
Q 20.0625 -1.421875 12.78125 6.34375 
Q 5.515625 14.109375 5.515625 27.296875 
Q 5.515625 40.671875 12.859375 48.328125 
Q 20.21875 56 33.015625 56 
Q 37.15625 56 41.109375 55.140625 
Q 45.0625 54.296875 48.78125 52.59375 
z
" id="DejaVuSans-99"/>
    </defs>
    <g transform="translate(54.069063 40.32)scale(0.15 -0.15)">
     <use xlink:href="#DejaVuSans-67"/>
     <use x="69.824219" xlink:href="#DejaVuSans-97"/>
     <use x="131.103516" xlink:href="#DejaVuSans-110"/>
     <use x="194.482422" xlink:href="#DejaVuSans-100"/>
     <use x="257.958984" xlink:href="#DejaVuSans-105"/>
     <use x="285.742188" xlink:href="#DejaVuSans-100"/>
     <use x="349.21875" xlink:href="#DejaVuSans-97"/>
     <use x="410.498047" xlink:href="#DejaVuSans-116"/>
     <use x="449.707031" xlink:href="#DejaVuSans-97"/>
     <use x="510.986328" xlink:href="#DejaVuSans-115"/>
     <use x="563.085938" xlink:href="#DejaVuSans-32"/>
     <use x="594.873047" xlink:href="#DejaVuSans-224"/>
     <use x="656.152344" xlink:href="#DejaVuSans-32"/>
     <use x="687.939453" xlink:href="#DejaVuSans-69"/>
     <use x="751.123047" xlink:href="#DejaVuSans-108"/>
     <use x="778.90625" xlink:href="#DejaVuSans-101"/>
     <use x="840.429688" xlink:href="#DejaVuSans-105"/>
     <use x="868.212891" xlink:href="#DejaVuSans-231"/>
     <use x="923.193359" xlink:href="#DejaVuSans-227"/>
     <use x="984.472656" xlink:href="#DejaVuSans-111"/>
     <use x="1045.654297" xlink:href="#DejaVuSans-32"/>
     <use x="1077.441406" xlink:href="#DejaVuSans-100"/>
     <use x="1140.917969" xlink:href="#DejaVuSans-101"/>
     <use x="1202.441406" xlink:href="#DejaVuSans-32"/>
     <use x="1234.228516" xlink:href="#DejaVuSans-50"/>
     <use x="1297.851562" xlink:href="#DejaVuSans-48"/>
     <use x="1361.474609" xlink:href="#DejaVuSans-49"/>
     <use x="1425.097656" xlink:href="#DejaVuSans-56"/>
     <use x="1488.720703" xlink:href="#DejaVuSans-32"/>
     <use x="1520.507812" xlink:href="#DejaVuSans-112"/>
     <use x="1583.984375" xlink:href="#DejaVuSans-111"/>
     <use x="1645.166016" xlink:href="#DejaVuSans-114"/>
     <use x="1686.279297" xlink:href="#DejaVuSans-32"/>
     <use x="1718.066406" xlink:href="#DejaVuSans-80"/>
     <use x="1778.306641" xlink:href="#DejaVuSans-97"/>
     <use x="1839.585938" xlink:href="#DejaVuSans-114"/>
     <use x="1880.699219" xlink:href="#DejaVuSans-116"/>
     <use x="1919.908203" xlink:href="#DejaVuSans-105"/>
     <use x="1947.691406" xlink:href="#DejaVuSans-100"/>
     <use x="2011.167969" xlink:href="#DejaVuSans-111"/>
     <use x="2072.349609" xlink:href="#DejaVuSans-32"/>
     <use x="2104.136719" xlink:href="#DejaVuSans-80"/>
     <use x="2164.392578" xlink:href="#DejaVuSans-111"/>
     <use x="2225.574219" xlink:href="#DejaVuSans-108"/>
     <use x="2253.357422" xlink:href="#DejaVuSans-237"/>
     <use x="2281.140625" xlink:href="#DejaVuSans-116"/>
     <use x="2320.349609" xlink:href="#DejaVuSans-105"/>
     <use x="2348.132812" xlink:href="#DejaVuSans-99"/>
     <use x="2403.113281" xlink:href="#DejaVuSans-111"/>
    </g>
   </g>
   <g id="legend_1">
    <g id="patch_3">
     <path d="M 265.741562 353.755938 
L 396.965 353.755938 
Q 398.965 353.755938 398.965 351.755938 
L 398.965 300.604063 
Q 398.965 298.604063 396.965 298.604063 
L 265.741562 298.604063 
Q 263.741562 298.604063 263.741562 300.604063 
L 263.741562 351.755938 
Q 263.741562 353.755938 265.741562 353.755938 
z
" style="fill:#ffffff;opacity:0.8;stroke:#cccccc;stroke-linejoin:miter;"/>
    </g>
    <g id="line2d_47">
     <path d="M 267.741562 313.34125 
L 287.741562 313.34125 
" style="fill:none;stroke:#000000;stroke-dasharray:14.8,6.4;stroke-dashoffset:0;stroke-width:4;"/>
    </g>
    <g id="line2d_48"/>
    <g id="text_48">
     <!-- Equidade de -->
     <defs>
      <path d="M 14.796875 27.296875 
Q 14.796875 17.390625 18.875 11.75 
Q 22.953125 6.109375 30.078125 6.109375 
Q 37.203125 6.109375 41.296875 11.75 
Q 45.40625 17.390625 45.40625 27.296875 
Q 45.40625 37.203125 41.296875 42.84375 
Q 37.203125 48.484375 30.078125 48.484375 
Q 22.953125 48.484375 18.875 42.84375 
Q 14.796875 37.203125 14.796875 27.296875 
z
M 45.40625 8.203125 
Q 42.578125 3.328125 38.25 0.953125 
Q 33.9375 -1.421875 27.875 -1.421875 
Q 17.96875 -1.421875 11.734375 6.484375 
Q 5.515625 14.40625 5.515625 27.296875 
Q 5.515625 40.1875 11.734375 48.09375 
Q 17.96875 56 27.875 56 
Q 33.9375 56 38.25 53.625 
Q 42.578125 51.265625 45.40625 46.390625 
L 45.40625 54.6875 
L 54.390625 54.6875 
L 54.390625 -20.796875 
L 45.40625 -20.796875 
z
" id="DejaVuSans-113"/>
     </defs>
     <g transform="translate(295.741562 310.2025)scale(0.1 -0.1)">
      <use xlink:href="#DejaVuSans-69"/>
      <use x="63.183594" xlink:href="#DejaVuSans-113"/>
      <use x="126.660156" xlink:href="#DejaVuSans-117"/>
      <use x="190.039062" xlink:href="#DejaVuSans-105"/>
      <use x="217.822266" xlink:href="#DejaVuSans-100"/>
      <use x="281.298828" xlink:href="#DejaVuSans-97"/>
      <use x="342.578125" xlink:href="#DejaVuSans-100"/>
      <use x="406.054688" xlink:href="#DejaVuSans-101"/>
      <use x="467.578125" xlink:href="#DejaVuSans-32"/>
      <use x="499.365234" xlink:href="#DejaVuSans-100"/>
      <use x="562.841797" xlink:href="#DejaVuSans-101"/>
     </g>
     <!-- mulheres e homens -->
     <defs>
      <path d="M 52 44.1875 
Q 55.375 50.25 60.0625 53.125 
Q 64.75 56 71.09375 56 
Q 79.640625 56 84.28125 50.015625 
Q 88.921875 44.046875 88.921875 33.015625 
L 88.921875 0 
L 79.890625 0 
L 79.890625 32.71875 
Q 79.890625 40.578125 77.09375 44.375 
Q 74.3125 48.1875 68.609375 48.1875 
Q 61.625 48.1875 57.5625 43.546875 
Q 53.515625 38.921875 53.515625 30.90625 
L 53.515625 0 
L 44.484375 0 
L 44.484375 32.71875 
Q 44.484375 40.625 41.703125 44.40625 
Q 38.921875 48.1875 33.109375 48.1875 
Q 26.21875 48.1875 22.15625 43.53125 
Q 18.109375 38.875 18.109375 30.90625 
L 18.109375 0 
L 9.078125 0 
L 9.078125 54.6875 
L 18.109375 54.6875 
L 18.109375 46.1875 
Q 21.1875 51.21875 25.484375 53.609375 
Q 29.78125 56 35.6875 56 
Q 41.65625 56 45.828125 52.96875 
Q 50 49.953125 52 44.1875 
z
" id="DejaVuSans-109"/>
     </defs>
     <g transform="translate(295.741562 321.400313)scale(0.1 -0.1)">
      <use xlink:href="#DejaVuSans-109"/>
      <use x="97.412109" xlink:href="#DejaVuSans-117"/>
      <use x="160.791016" xlink:href="#DejaVuSans-108"/>
      <use x="188.574219" xlink:href="#DejaVuSans-104"/>
      <use x="251.953125" xlink:href="#DejaVuSans-101"/>
      <use x="313.476562" xlink:href="#DejaVuSans-114"/>
      <use x="354.558594" xlink:href="#DejaVuSans-101"/>
      <use x="416.082031" xlink:href="#DejaVuSans-115"/>
      <use x="468.181641" xlink:href="#DejaVuSans-32"/>
      <use x="499.96875" xlink:href="#DejaVuSans-101"/>
      <use x="561.492188" xlink:href="#DejaVuSans-32"/>
      <use x="593.279297" xlink:href="#DejaVuSans-104"/>
      <use x="656.658203" xlink:href="#DejaVuSans-111"/>
      <use x="717.839844" xlink:href="#DejaVuSans-109"/>
      <use x="815.251953" xlink:href="#DejaVuSans-101"/>
      <use x="876.775391" xlink:href="#DejaVuSans-110"/>
      <use x="940.154297" xlink:href="#DejaVuSans-115"/>
     </g>
    </g>
    <g id="line2d_49">
     <path d="M 267.741562 339.417188 
L 287.741562 339.417188 
" style="fill:none;stroke:#008000;stroke-linecap:square;stroke-width:2;"/>
    </g>
    <g id="line2d_50"/>
    <g id="text_49">
     <!-- Proporção Média -->
     <defs>
      <path d="M 56.203125 29.59375 
L 56.203125 25.203125 
L 14.890625 25.203125 
Q 15.484375 15.921875 20.484375 11.0625 
Q 25.484375 6.203125 34.421875 6.203125 
Q 39.59375 6.203125 44.453125 7.46875 
Q 49.3125 8.734375 54.109375 11.28125 
L 54.109375 2.78125 
Q 49.265625 0.734375 44.1875 -0.34375 
Q 39.109375 -1.421875 33.890625 -1.421875 
Q 20.796875 -1.421875 13.15625 6.1875 
Q 5.515625 13.8125 5.515625 26.8125 
Q 5.515625 40.234375 12.765625 48.109375 
Q 20.015625 56 32.328125 56 
Q 43.359375 56 49.78125 48.890625 
Q 56.203125 41.796875 56.203125 29.59375 
z
M 47.21875 32.234375 
Q 47.125 39.59375 43.09375 43.984375 
Q 39.0625 48.390625 32.421875 48.390625 
Q 24.90625 48.390625 20.390625 44.140625 
Q 15.875 39.890625 15.1875 32.171875 
z
M 38.578125 79.984375 
L 48.296875 79.984375 
L 32.375 61.625 
L 24.90625 61.625 
z
" id="DejaVuSans-233"/>
     </defs>
     <g transform="translate(295.741562 336.478438)scale(0.1 -0.1)">
      <use xlink:href="#DejaVuSans-80"/>
      <use x="60.287109" xlink:href="#DejaVuSans-114"/>
      <use x="101.369141" xlink:href="#DejaVuSans-111"/>
      <use x="162.550781" xlink:href="#DejaVuSans-112"/>
      <use x="226.027344" xlink:href="#DejaVuSans-111"/>
      <use x="287.208984" xlink:href="#DejaVuSans-114"/>
      <use x="328.291016" xlink:href="#DejaVuSans-231"/>
      <use x="383.271484" xlink:href="#DejaVuSans-227"/>
      <use x="444.550781" xlink:href="#DejaVuSans-111"/>
      <use x="505.732422" xlink:href="#DejaVuSans-32"/>
      <use x="537.519531" xlink:href="#DejaVuSans-77"/>
      <use x="623.798828" xlink:href="#DejaVuSans-233"/>
      <use x="685.322266" xlink:href="#DejaVuSans-100"/>
      <use x="748.798828" xlink:href="#DejaVuSans-105"/>
      <use x="776.582031" xlink:href="#DejaVuSans-97"/>
     </g>
     <!-- de Mulheres -->
     <g transform="translate(295.741562 347.67625)scale(0.1 -0.1)">
      <use xlink:href="#DejaVuSans-100"/>
      <use x="63.476562" xlink:href="#DejaVuSans-101"/>
      <use x="125" xlink:href="#DejaVuSans-32"/>
      <use x="156.787109" xlink:href="#DejaVuSans-77"/>
      <use x="243.066406" xlink:href="#DejaVuSans-117"/>
      <use x="306.445312" xlink:href="#DejaVuSans-108"/>
      <use x="334.228516" xlink:href="#DejaVuSans-104"/>
      <use x="397.607422" xlink:href="#DejaVuSans-101"/>
      <use x="459.130859" xlink:href="#DejaVuSans-114"/>
      <use x="500.212891" xlink:href="#DejaVuSans-101"/>
      <use x="561.736328" xlink:href="#DejaVuSans-115"/>
     </g>
    </g>
   </g>
  </g>
 </g>
 <defs>
  <clipPath id="pe711b9d4d1">
   <rect height="559.72" width="330.145" x="73.82" y="46.32"/>
  </clipPath>
 </defs>
</svg>
