<?xml version="1.0" encoding="utf-8" standalone="no"?>
<!DOCTYPE svg PUBLIC "-//W3C//DTD SVG 1.1//EN"
  "http://www.w3.org/Graphics/SVG/1.1/DTD/svg11.dtd">
<!-- Created with matplotlib (https://matplotlib.org/) -->
<svg height="1080pt" version="1.1" viewBox="0 0 720 1080" width="720pt" xmlns="http://www.w3.org/2000/svg" xmlns:xlink="http://www.w3.org/1999/xlink">
 <defs>
  <style type="text/css">
*{stroke-linecap:butt;stroke-linejoin:round;}
  </style>
 </defs>
 <g id="figure_1">
  <g id="patch_1">
   <path d="M 0 1080 
L 720 1080 
L 720 0 
L 0 0 
z
" style="fill:#ffffff;"/>
  </g>
  <g id="axes_1">
   <g id="patch_2">
    <path d="M 73.73 1038.04 
L 706.68 1038.04 
L 706.68 26.88 
L 73.73 26.88 
z
" style="fill:#ffffff;"/>
   </g>
   <g id="patch_3">
    <path clip-path="url(#p61f769cda9)" d="M 73.73 980.217067 
L 180.754432 980.217067 
L 180.754432 974.28651 
L 73.73 974.28651 
z
" style="fill:#ff0000;opacity:0.7;"/>
   </g>
   <g id="patch_4">
    <path clip-path="url(#p61f769cda9)" d="M 73.73 956.494839 
L 337.012187 956.494839 
L 337.012187 950.564282 
L 73.73 950.564282 
z
" style="fill:#ff0000;opacity:0.7;"/>
   </g>
   <g id="patch_5">
    <path clip-path="url(#p61f769cda9)" d="M 73.73 932.77261 
L 350.324422 932.77261 
L 350.324422 926.842053 
L 73.73 926.842053 
z
" style="fill:#ff0000;opacity:0.7;"/>
   </g>
   <g id="patch_6">
    <path clip-path="url(#p61f769cda9)" d="M 73.73 909.050381 
L 351.949286 909.050381 
L 351.949286 903.119824 
L 73.73 903.119824 
z
" style="fill:#ff0000;opacity:0.7;"/>
   </g>
   <g id="patch_7">
    <path clip-path="url(#p61f769cda9)" d="M 73.73 885.328152 
L 356.372625 885.328152 
L 356.372625 879.397595 
L 73.73 879.397595 
z
" style="fill:#ff0000;opacity:0.7;"/>
   </g>
   <g id="patch_8">
    <path clip-path="url(#p61f769cda9)" d="M 73.73 861.605924 
L 365.372103 861.605924 
L 365.372103 855.675367 
L 73.73 855.675367 
z
" style="fill:#ff0000;opacity:0.7;"/>
   </g>
   <g id="patch_9">
    <path clip-path="url(#p61f769cda9)" d="M 73.73 837.883695 
L 367.396026 837.883695 
L 367.396026 831.953138 
L 73.73 831.953138 
z
" style="fill:#ff0000;opacity:0.7;"/>
   </g>
   <g id="patch_10">
    <path clip-path="url(#p61f769cda9)" d="M 73.73 814.161466 
L 367.971046 814.161466 
L 367.971046 808.230909 
L 73.73 808.230909 
z
" style="fill:#ff0000;opacity:0.7;"/>
   </g>
   <g id="patch_11">
    <path clip-path="url(#p61f769cda9)" d="M 73.73 790.439238 
L 369.653633 790.439238 
L 369.653633 784.50868 
L 73.73 784.50868 
z
" style="fill:#ff0000;opacity:0.7;"/>
   </g>
   <g id="patch_12">
    <path clip-path="url(#p61f769cda9)" d="M 73.73 766.717009 
L 374.394153 766.717009 
L 374.394153 760.786452 
L 73.73 760.786452 
z
" style="fill:#ff0000;opacity:0.7;"/>
   </g>
   <g id="patch_13">
    <path clip-path="url(#p61f769cda9)" d="M 73.73 742.99478 
L 374.817668 742.99478 
L 374.817668 737.064223 
L 73.73 737.064223 
z
" style="fill:#ff0000;opacity:0.7;"/>
   </g>
   <g id="patch_14">
    <path clip-path="url(#p61f769cda9)" d="M 73.73 719.272551 
L 378.189873 719.272551 
L 378.189873 713.341994 
L 73.73 713.341994 
z
" style="fill:#ff0000;opacity:0.7;"/>
   </g>
   <g id="patch_15">
    <path clip-path="url(#p61f769cda9)" d="M 73.73 695.550323 
L 378.900055 695.550323 
L 378.900055 689.619765 
L 73.73 689.619765 
z
" style="fill:#ff0000;opacity:0.7;"/>
   </g>
   <g id="patch_16">
    <path clip-path="url(#p61f769cda9)" d="M 73.73 671.828094 
L 378.931983 671.828094 
L 378.931983 665.897537 
L 73.73 665.897537 
z
" style="fill:#ff0000;opacity:0.7;"/>
   </g>
   <g id="patch_17">
    <path clip-path="url(#p61f769cda9)" d="M 73.73 648.105865 
L 381.555773 648.105865 
L 381.555773 642.175308 
L 73.73 642.175308 
z
" style="fill:#ff0000;opacity:0.7;"/>
   </g>
   <g id="patch_18">
    <path clip-path="url(#p61f769cda9)" d="M 73.73 624.383636 
L 382.3149 624.383636 
L 382.3149 618.453079 
L 73.73 618.453079 
z
" style="fill:#ff0000;opacity:0.7;"/>
   </g>
   <g id="patch_19">
    <path clip-path="url(#p61f769cda9)" d="M 73.73 600.661408 
L 383.942209 600.661408 
L 383.942209 594.73085 
L 73.73 594.73085 
z
" style="fill:#ff0000;opacity:0.7;"/>
   </g>
   <g id="patch_20">
    <path clip-path="url(#p61f769cda9)" d="M 73.73 576.939179 
L 384.782659 576.939179 
L 384.782659 571.008622 
L 73.73 571.008622 
z
" style="fill:#ff0000;opacity:0.7;"/>
   </g>
   <g id="patch_21">
    <path clip-path="url(#p61f769cda9)" d="M 73.73 553.21695 
L 387.159179 553.21695 
L 387.159179 547.286393 
L 73.73 547.286393 
z
" style="fill:#ff0000;opacity:0.7;"/>
   </g>
   <g id="patch_22">
    <path clip-path="url(#p61f769cda9)" d="M 73.73 529.494721 
L 387.201821 529.494721 
L 387.201821 523.564164 
L 73.73 523.564164 
z
" style="fill:#ff0000;opacity:0.7;"/>
   </g>
   <g id="patch_23">
    <path clip-path="url(#p61f769cda9)" d="M 73.73 505.772493 
L 388.080298 505.772493 
L 388.080298 499.841935 
L 73.73 499.841935 
z
" style="fill:#ff0000;opacity:0.7;"/>
   </g>
   <g id="patch_24">
    <path clip-path="url(#p61f769cda9)" d="M 73.73 482.050264 
L 388.082189 482.050264 
L 388.082189 476.119707 
L 73.73 476.119707 
z
" style="fill:#ff0000;opacity:0.7;"/>
   </g>
   <g id="patch_25">
    <path clip-path="url(#p61f769cda9)" d="M 73.73 458.328035 
L 388.254758 458.328035 
L 388.254758 452.397478 
L 73.73 452.397478 
z
" style="fill:#ff0000;opacity:0.7;"/>
   </g>
   <g id="patch_26">
    <path clip-path="url(#p61f769cda9)" d="M 73.73 434.605806 
L 389.029324 434.605806 
L 389.029324 428.675249 
L 73.73 428.675249 
z
" style="fill:#ff0000;opacity:0.7;"/>
   </g>
   <g id="patch_27">
    <path clip-path="url(#p61f769cda9)" d="M 73.73 410.883578 
L 389.084918 410.883578 
L 389.084918 404.953021 
L 73.73 404.953021 
z
" style="fill:#ff0000;opacity:0.7;"/>
   </g>
   <g id="patch_28">
    <path clip-path="url(#p61f769cda9)" d="M 73.73 387.161349 
L 389.396788 387.161349 
L 389.396788 381.230792 
L 73.73 381.230792 
z
" style="fill:#ff0000;opacity:0.7;"/>
   </g>
   <g id="patch_29">
    <path clip-path="url(#p61f769cda9)" d="M 73.73 363.43912 
L 389.671918 363.43912 
L 389.671918 357.508563 
L 73.73 357.508563 
z
" style="fill:#ff0000;opacity:0.7;"/>
   </g>
   <g id="patch_30">
    <path clip-path="url(#p61f769cda9)" d="M 73.73 339.716891 
L 390.355026 339.716891 
L 390.355026 333.786334 
L 73.73 333.786334 
z
" style="fill:#ff0000;opacity:0.7;"/>
   </g>
   <g id="patch_31">
    <path clip-path="url(#p61f769cda9)" d="M 73.73 315.994663 
L 390.83738 315.994663 
L 390.83738 310.064106 
L 73.73 310.064106 
z
" style="fill:#ff0000;opacity:0.7;"/>
   </g>
   <g id="patch_32">
    <path clip-path="url(#p61f769cda9)" d="M 73.73 292.272434 
L 390.96334 292.272434 
L 390.96334 286.341877 
L 73.73 286.341877 
z
" style="fill:#ff0000;opacity:0.7;"/>
   </g>
   <g id="patch_33">
    <path clip-path="url(#p61f769cda9)" d="M 73.73 268.550205 
L 391.724072 268.550205 
L 391.724072 262.619648 
L 73.73 262.619648 
z
" style="fill:#ff0000;opacity:0.7;"/>
   </g>
   <g id="patch_34">
    <path clip-path="url(#p61f769cda9)" d="M 73.73 244.827977 
L 391.990679 244.827977 
L 391.990679 238.897419 
L 73.73 238.897419 
z
" style="fill:#ff0000;opacity:0.7;"/>
   </g>
   <g id="patch_35">
    <path clip-path="url(#p61f769cda9)" d="M 73.73 221.105748 
L 392.321069 221.105748 
L 392.321069 215.175191 
L 73.73 215.175191 
z
" style="fill:#ff0000;opacity:0.7;"/>
   </g>
   <g id="patch_36">
    <path clip-path="url(#p61f769cda9)" d="M 73.73 197.383519 
L 392.81926 197.383519 
L 392.81926 191.452962 
L 73.73 191.452962 
z
" style="fill:#ff0000;opacity:0.7;"/>
   </g>
   <g id="patch_37">
    <path clip-path="url(#p61f769cda9)" d="M 73.73 173.66129 
L 392.833783 173.66129 
L 392.833783 167.730733 
L 73.73 167.730733 
z
" style="fill:#ff0000;opacity:0.7;"/>
   </g>
   <g id="patch_38">
    <path clip-path="url(#p61f769cda9)" d="M 73.73 149.939062 
L 396.330913 149.939062 
L 396.330913 144.008504 
L 73.73 144.008504 
z
" style="fill:#ff0000;opacity:0.7;"/>
   </g>
   <g id="patch_39">
    <path clip-path="url(#p61f769cda9)" d="M 73.73 126.216833 
L 397.07754 126.216833 
L 397.07754 120.286276 
L 73.73 120.286276 
z
" style="fill:#ff0000;opacity:0.7;"/>
   </g>
   <g id="patch_40">
    <path clip-path="url(#p61f769cda9)" d="M 73.73 102.494604 
L 435.06365 102.494604 
L 435.06365 96.564047 
L 73.73 96.564047 
z
" style="fill:#ff0000;opacity:0.7;"/>
   </g>
   <g id="patch_41">
    <path clip-path="url(#p61f769cda9)" d="M 73.73 78.772375 
L 460.58295 78.772375 
L 460.58295 72.841818 
L 73.73 72.841818 
z
" style="fill:#ff0000;opacity:0.7;"/>
   </g>
   <g id="patch_42">
    <path clip-path="url(#p61f769cda9)" d="M 73.73 986.147625 
L 676.539524 986.147625 
L 676.539524 980.217067 
L 73.73 980.217067 
z
" style="fill:#0000ff;opacity:0.7;"/>
   </g>
   <g id="patch_43">
    <path clip-path="url(#p61f769cda9)" d="M 73.73 962.425396 
L 509.591831 962.425396 
L 509.591831 956.494839 
L 73.73 956.494839 
z
" style="fill:#0000ff;opacity:0.7;"/>
   </g>
   <g id="patch_44">
    <path clip-path="url(#p61f769cda9)" d="M 73.73 938.703167 
L 499.662167 938.703167 
L 499.662167 932.77261 
L 73.73 932.77261 
z
" style="fill:#0000ff;opacity:0.7;"/>
   </g>
   <g id="patch_45">
    <path clip-path="url(#p61f769cda9)" d="M 73.73 914.980938 
L 496.940868 914.980938 
L 496.940868 909.050381 
L 73.73 909.050381 
z
" style="fill:#0000ff;opacity:0.7;"/>
   </g>
   <g id="patch_46">
    <path clip-path="url(#p61f769cda9)" d="M 73.73 891.25871 
L 489.654878 891.25871 
L 489.654878 885.328152 
L 73.73 885.328152 
z
" style="fill:#0000ff;opacity:0.7;"/>
   </g>
   <g id="patch_47">
    <path clip-path="url(#p61f769cda9)" d="M 73.73 867.536481 
L 483.389022 867.536481 
L 483.389022 861.605924 
L 73.73 861.605924 
z
" style="fill:#0000ff;opacity:0.7;"/>
   </g>
   <g id="patch_48">
    <path clip-path="url(#p61f769cda9)" d="M 73.73 843.814252 
L 483.06294 843.814252 
L 483.06294 837.883695 
L 73.73 837.883695 
z
" style="fill:#0000ff;opacity:0.7;"/>
   </g>
   <g id="patch_49">
    <path clip-path="url(#p61f769cda9)" d="M 73.73 820.092023 
L 483.0458 820.092023 
L 483.0458 814.161466 
L 73.73 814.161466 
z
" style="fill:#0000ff;opacity:0.7;"/>
   </g>
   <g id="patch_50">
    <path clip-path="url(#p61f769cda9)" d="M 73.73 796.369795 
L 481.747715 796.369795 
L 481.747715 790.439238 
L 73.73 790.439238 
z
" style="fill:#0000ff;opacity:0.7;"/>
   </g>
   <g id="patch_51">
    <path clip-path="url(#p61f769cda9)" d="M 73.73 772.647566 
L 475.151249 772.647566 
L 475.151249 766.717009 
L 73.73 766.717009 
z
" style="fill:#0000ff;opacity:0.7;"/>
   </g>
   <g id="patch_52">
    <path clip-path="url(#p61f769cda9)" d="M 73.73 748.925337 
L 474.849024 748.925337 
L 474.849024 742.99478 
L 73.73 742.99478 
z
" style="fill:#0000ff;opacity:0.7;"/>
   </g>
   <g id="patch_53">
    <path clip-path="url(#p61f769cda9)" d="M 73.73 725.203109 
L 472.786273 725.203109 
L 472.786273 719.272551 
L 73.73 719.272551 
z
" style="fill:#0000ff;opacity:0.7;"/>
   </g>
   <g id="patch_54">
    <path clip-path="url(#p61f769cda9)" d="M 73.73 701.48088 
L 470.329261 701.48088 
L 470.329261 695.550323 
L 73.73 695.550323 
z
" style="fill:#0000ff;opacity:0.7;"/>
   </g>
   <g id="patch_55">
    <path clip-path="url(#p61f769cda9)" d="M 73.73 677.758651 
L 470.692941 677.758651 
L 470.692941 671.828094 
L 73.73 671.828094 
z
" style="fill:#0000ff;opacity:0.7;"/>
   </g>
   <g id="patch_56">
    <path clip-path="url(#p61f769cda9)" d="M 73.73 654.036422 
L 468.156133 654.036422 
L 468.156133 648.105865 
L 73.73 648.105865 
z
" style="fill:#0000ff;opacity:0.7;"/>
   </g>
   <g id="patch_57">
    <path clip-path="url(#p61f769cda9)" d="M 73.73 630.314194 
L 468.689578 630.314194 
L 468.689578 624.383636 
L 73.73 624.383636 
z
" style="fill:#0000ff;opacity:0.7;"/>
   </g>
   <g id="patch_58">
    <path clip-path="url(#p61f769cda9)" d="M 73.73 606.591965 
L 466.253824 606.591965 
L 466.253824 600.661408 
L 73.73 600.661408 
z
" style="fill:#0000ff;opacity:0.7;"/>
   </g>
   <g id="patch_59">
    <path clip-path="url(#p61f769cda9)" d="M 73.73 582.869736 
L 465.63159 582.869736 
L 465.63159 576.939179 
L 73.73 576.939179 
z
" style="fill:#0000ff;opacity:0.7;"/>
   </g>
   <g id="patch_60">
    <path clip-path="url(#p61f769cda9)" d="M 73.73 559.147507 
L 462.721683 559.147507 
L 462.721683 553.21695 
L 73.73 553.21695 
z
" style="fill:#0000ff;opacity:0.7;"/>
   </g>
   <g id="patch_61">
    <path clip-path="url(#p61f769cda9)" d="M 73.73 535.425279 
L 462.66254 535.425279 
L 462.66254 529.494721 
L 73.73 529.494721 
z
" style="fill:#0000ff;opacity:0.7;"/>
   </g>
   <g id="patch_62">
    <path clip-path="url(#p61f769cda9)" d="M 73.73 511.70305 
L 463.174444 511.70305 
L 463.174444 505.772493 
L 73.73 505.772493 
z
" style="fill:#0000ff;opacity:0.7;"/>
   </g>
   <g id="patch_63">
    <path clip-path="url(#p61f769cda9)" d="M 73.73 487.980821 
L 463.815581 487.980821 
L 463.815581 482.050264 
L 73.73 482.050264 
z
" style="fill:#0000ff;opacity:0.7;"/>
   </g>
   <g id="patch_64">
    <path clip-path="url(#p61f769cda9)" d="M 73.73 464.258592 
L 463.155545 464.258592 
L 463.155545 458.328035 
L 73.73 458.328035 
z
" style="fill:#0000ff;opacity:0.7;"/>
   </g>
   <g id="patch_65">
    <path clip-path="url(#p61f769cda9)" d="M 73.73 440.536364 
L 461.022031 440.536364 
L 461.022031 434.605806 
L 73.73 434.605806 
z
" style="fill:#0000ff;opacity:0.7;"/>
   </g>
   <g id="patch_66">
    <path clip-path="url(#p61f769cda9)" d="M 73.73 416.814135 
L 462.829044 416.814135 
L 462.829044 410.883578 
L 73.73 410.883578 
z
" style="fill:#0000ff;opacity:0.7;"/>
   </g>
   <g id="patch_67">
    <path clip-path="url(#p61f769cda9)" d="M 73.73 393.091906 
L 463.40319 393.091906 
L 463.40319 387.161349 
L 73.73 387.161349 
z
" style="fill:#0000ff;opacity:0.7;"/>
   </g>
   <g id="patch_68">
    <path clip-path="url(#p61f769cda9)" d="M 73.73 369.369677 
L 461.263859 369.369677 
L 461.263859 363.43912 
L 73.73 363.43912 
z
" style="fill:#0000ff;opacity:0.7;"/>
   </g>
   <g id="patch_69">
    <path clip-path="url(#p61f769cda9)" d="M 73.73 345.647449 
L 459.813064 345.647449 
L 459.813064 339.716891 
L 73.73 339.716891 
z
" style="fill:#0000ff;opacity:0.7;"/>
   </g>
   <g id="patch_70">
    <path clip-path="url(#p61f769cda9)" d="M 73.73 321.92522 
L 460.212217 321.92522 
L 460.212217 315.994663 
L 73.73 315.994663 
z
" style="fill:#0000ff;opacity:0.7;"/>
   </g>
   <g id="patch_71">
    <path clip-path="url(#p61f769cda9)" d="M 73.73 298.202991 
L 459.989609 298.202991 
L 459.989609 292.272434 
L 73.73 292.272434 
z
" style="fill:#0000ff;opacity:0.7;"/>
   </g>
   <g id="patch_72">
    <path clip-path="url(#p61f769cda9)" d="M 73.73 274.480762 
L 458.212401 274.480762 
L 458.212401 268.550205 
L 73.73 268.550205 
z
" style="fill:#0000ff;opacity:0.7;"/>
   </g>
   <g id="patch_73">
    <path clip-path="url(#p61f769cda9)" d="M 73.73 250.758534 
L 460.274961 250.758534 
L 460.274961 244.827977 
L 73.73 244.827977 
z
" style="fill:#0000ff;opacity:0.7;"/>
   </g>
   <g id="patch_74">
    <path clip-path="url(#p61f769cda9)" d="M 73.73 227.036305 
L 460.64838 227.036305 
L 460.64838 221.105748 
L 73.73 221.105748 
z
" style="fill:#0000ff;opacity:0.7;"/>
   </g>
   <g id="patch_75">
    <path clip-path="url(#p61f769cda9)" d="M 73.73 203.314076 
L 458.141381 203.314076 
L 458.141381 197.383519 
L 73.73 197.383519 
z
" style="fill:#0000ff;opacity:0.7;"/>
   </g>
   <g id="patch_76">
    <path clip-path="url(#p61f769cda9)" d="M 73.73 179.591848 
L 459.618162 179.591848 
L 459.618162 173.66129 
L 73.73 173.66129 
z
" style="fill:#0000ff;opacity:0.7;"/>
   </g>
   <g id="patch_77">
    <path clip-path="url(#p61f769cda9)" d="M 73.73 155.869619 
L 453.529464 155.869619 
L 453.529464 149.939062 
L 73.73 149.939062 
z
" style="fill:#0000ff;opacity:0.7;"/>
   </g>
   <g id="patch_78">
    <path clip-path="url(#p61f769cda9)" d="M 73.73 132.14739 
L 456.304565 132.14739 
L 456.304565 126.216833 
L 73.73 126.216833 
z
" style="fill:#0000ff;opacity:0.7;"/>
   </g>
   <g id="patch_79">
    <path clip-path="url(#p61f769cda9)" d="M 73.73 108.425161 
L 415.536313 108.425161 
L 415.536313 102.494604 
L 73.73 102.494604 
z
" style="fill:#0000ff;opacity:0.7;"/>
   </g>
   <g id="patch_80">
    <path clip-path="url(#p61f769cda9)" d="M 73.73 84.702933 
L 388.144887 84.702933 
L 388.144887 78.772375 
L 73.73 78.772375 
z
" style="fill:#0000ff;opacity:0.7;"/>
   </g>
   <g id="patch_81">
    <path clip-path="url(#p61f769cda9)" d="M 73.73 992.078182 
L 86.373072 992.078182 
L 86.373072 986.147625 
L 73.73 986.147625 
z
" style="fill:#bfbf00;opacity:0.7;"/>
   </g>
   <g id="patch_82">
    <path clip-path="url(#p61f769cda9)" d="M 73.73 968.355953 
L 97.06301 968.355953 
L 97.06301 962.425396 
L 73.73 962.425396 
z
" style="fill:#bfbf00;opacity:0.7;"/>
   </g>
   <g id="patch_83">
    <path clip-path="url(#p61f769cda9)" d="M 73.73 944.633724 
L 93.680438 944.633724 
L 93.680438 938.703167 
L 73.73 938.703167 
z
" style="fill:#bfbf00;opacity:0.7;"/>
   </g>
   <g id="patch_84">
    <path clip-path="url(#p61f769cda9)" d="M 73.73 920.911496 
L 94.776874 920.911496 
L 94.776874 914.980938 
L 73.73 914.980938 
z
" style="fill:#bfbf00;opacity:0.7;"/>
   </g>
   <g id="patch_85">
    <path clip-path="url(#p61f769cda9)" d="M 73.73 897.189267 
L 97.639525 897.189267 
L 97.639525 891.25871 
L 73.73 891.25871 
z
" style="fill:#bfbf00;opacity:0.7;"/>
   </g>
   <g id="patch_86">
    <path clip-path="url(#p61f769cda9)" d="M 73.73 873.467038 
L 94.905902 873.467038 
L 94.905902 867.536481 
L 73.73 867.536481 
z
" style="fill:#bfbf00;opacity:0.7;"/>
   </g>
   <g id="patch_87">
    <path clip-path="url(#p61f769cda9)" d="M 73.73 849.744809 
L 93.208063 849.744809 
L 93.208063 843.814252 
L 73.73 843.814252 
z
" style="fill:#bfbf00;opacity:0.7;"/>
   </g>
   <g id="patch_88">
    <path clip-path="url(#p61f769cda9)" d="M 73.73 826.022581 
L 92.650181 826.022581 
L 92.650181 820.092023 
L 73.73 820.092023 
z
" style="fill:#bfbf00;opacity:0.7;"/>
   </g>
   <g id="patch_89">
    <path clip-path="url(#p61f769cda9)" d="M 73.73 802.300352 
L 92.26568 802.300352 
L 92.26568 796.369795 
L 73.73 796.369795 
z
" style="fill:#bfbf00;opacity:0.7;"/>
   </g>
   <g id="patch_90">
    <path clip-path="url(#p61f769cda9)" d="M 73.73 778.578123 
L 94.121626 778.578123 
L 94.121626 772.647566 
L 73.73 772.647566 
z
" style="fill:#bfbf00;opacity:0.7;"/>
   </g>
   <g id="patch_91">
    <path clip-path="url(#p61f769cda9)" d="M 73.73 754.855894 
L 94.000336 754.855894 
L 94.000336 748.925337 
L 73.73 748.925337 
z
" style="fill:#bfbf00;opacity:0.7;"/>
   </g>
   <g id="patch_92">
    <path clip-path="url(#p61f769cda9)" d="M 73.73 731.133666 
L 92.690882 731.133666 
L 92.690882 725.203109 
L 73.73 725.203109 
z
" style="fill:#bfbf00;opacity:0.7;"/>
   </g>
   <g id="patch_93">
    <path clip-path="url(#p61f769cda9)" d="M 73.73 707.411437 
L 94.437712 707.411437 
L 94.437712 701.48088 
L 73.73 701.48088 
z
" style="fill:#bfbf00;opacity:0.7;"/>
   </g>
   <g id="patch_94">
    <path clip-path="url(#p61f769cda9)" d="M 73.73 683.689208 
L 94.042104 683.689208 
L 94.042104 677.758651 
L 73.73 677.758651 
z
" style="fill:#bfbf00;opacity:0.7;"/>
   </g>
   <g id="patch_95">
    <path clip-path="url(#p61f769cda9)" d="M 73.73 659.966979 
L 93.955122 659.966979 
L 93.955122 654.036422 
L 73.73 654.036422 
z
" style="fill:#bfbf00;opacity:0.7;"/>
   </g>
   <g id="patch_96">
    <path clip-path="url(#p61f769cda9)" d="M 73.73 636.244751 
L 92.662549 636.244751 
L 92.662549 630.314194 
L 73.73 630.314194 
z
" style="fill:#bfbf00;opacity:0.7;"/>
   </g>
   <g id="patch_97">
    <path clip-path="url(#p61f769cda9)" d="M 73.73 612.522522 
L 93.470994 612.522522 
L 93.470994 606.591965 
L 73.73 606.591965 
z
" style="fill:#bfbf00;opacity:0.7;"/>
   </g>
   <g id="patch_98">
    <path clip-path="url(#p61f769cda9)" d="M 73.73 588.800293 
L 93.252779 588.800293 
L 93.252779 582.869736 
L 73.73 582.869736 
z
" style="fill:#bfbf00;opacity:0.7;"/>
   </g>
   <g id="patch_99">
    <path clip-path="url(#p61f769cda9)" d="M 73.73 565.078065 
L 93.786167 565.078065 
L 93.786167 559.147507 
L 73.73 559.147507 
z
" style="fill:#bfbf00;opacity:0.7;"/>
   </g>
   <g id="patch_100">
    <path clip-path="url(#p61f769cda9)" d="M 73.73 541.355836 
L 93.802667 541.355836 
L 93.802667 535.425279 
L 73.73 535.425279 
z
" style="fill:#bfbf00;opacity:0.7;"/>
   </g>
   <g id="patch_101">
    <path clip-path="url(#p61f769cda9)" d="M 73.73 517.633607 
L 92.412285 517.633607 
L 92.412285 511.70305 
L 73.73 511.70305 
z
" style="fill:#bfbf00;opacity:0.7;"/>
   </g>
   <g id="patch_102">
    <path clip-path="url(#p61f769cda9)" d="M 73.73 493.911378 
L 91.769257 493.911378 
L 91.769257 487.980821 
L 73.73 487.980821 
z
" style="fill:#bfbf00;opacity:0.7;"/>
   </g>
   <g id="patch_103">
    <path clip-path="url(#p61f769cda9)" d="M 73.73 470.18915 
L 92.256725 470.18915 
L 92.256725 464.258592 
L 73.73 464.258592 
z
" style="fill:#bfbf00;opacity:0.7;"/>
   </g>
   <g id="patch_104">
    <path clip-path="url(#p61f769cda9)" d="M 73.73 446.466921 
L 93.615672 446.466921 
L 93.615672 440.536364 
L 73.73 440.536364 
z
" style="fill:#bfbf00;opacity:0.7;"/>
   </g>
   <g id="patch_105">
    <path clip-path="url(#p61f769cda9)" d="M 73.73 422.744692 
L 91.753066 422.744692 
L 91.753066 416.814135 
L 73.73 416.814135 
z
" style="fill:#bfbf00;opacity:0.7;"/>
   </g>
   <g id="patch_106">
    <path clip-path="url(#p61f769cda9)" d="M 73.73 399.022463 
L 90.86705 399.022463 
L 90.86705 393.091906 
L 73.73 393.091906 
z
" style="fill:#bfbf00;opacity:0.7;"/>
   </g>
   <g id="patch_107">
    <path clip-path="url(#p61f769cda9)" d="M 73.73 375.300235 
L 92.731251 375.300235 
L 92.731251 369.369677 
L 73.73 369.369677 
z
" style="fill:#bfbf00;opacity:0.7;"/>
   </g>
   <g id="patch_108">
    <path clip-path="url(#p61f769cda9)" d="M 73.73 351.578006 
L 93.498937 351.578006 
L 93.498937 345.647449 
L 73.73 345.647449 
z
" style="fill:#bfbf00;opacity:0.7;"/>
   </g>
   <g id="patch_109">
    <path clip-path="url(#p61f769cda9)" d="M 73.73 327.855777 
L 92.617431 327.855777 
L 92.617431 321.92522 
L 73.73 321.92522 
z
" style="fill:#bfbf00;opacity:0.7;"/>
   </g>
   <g id="patch_110">
    <path clip-path="url(#p61f769cda9)" d="M 73.73 304.133548 
L 92.714079 304.133548 
L 92.714079 298.202991 
L 73.73 298.202991 
z
" style="fill:#bfbf00;opacity:0.7;"/>
   </g>
   <g id="patch_111">
    <path clip-path="url(#p61f769cda9)" d="M 73.73 280.41132 
L 93.730554 280.41132 
L 93.730554 274.480762 
L 73.73 274.480762 
z
" style="fill:#bfbf00;opacity:0.7;"/>
   </g>
   <g id="patch_112">
    <path clip-path="url(#p61f769cda9)" d="M 73.73 256.689091 
L 91.401388 256.689091 
L 91.401388 250.758534 
L 73.73 250.758534 
z
" style="fill:#bfbf00;opacity:0.7;"/>
   </g>
   <g id="patch_113">
    <path clip-path="url(#p61f769cda9)" d="M 73.73 232.966862 
L 90.697579 232.966862 
L 90.697579 227.036305 
L 73.73 227.036305 
z
" style="fill:#bfbf00;opacity:0.7;"/>
   </g>
   <g id="patch_114">
    <path clip-path="url(#p61f769cda9)" d="M 73.73 209.244633 
L 92.706386 209.244633 
L 92.706386 203.314076 
L 73.73 203.314076 
z
" style="fill:#bfbf00;opacity:0.7;"/>
   </g>
   <g id="patch_115">
    <path clip-path="url(#p61f769cda9)" d="M 73.73 185.522405 
L 91.215083 185.522405 
L 91.215083 179.591848 
L 73.73 179.591848 
z
" style="fill:#bfbf00;opacity:0.7;"/>
   </g>
   <g id="patch_116">
    <path clip-path="url(#p61f769cda9)" d="M 73.73 161.800176 
L 93.80665 161.800176 
L 93.80665 155.869619 
L 73.73 155.869619 
z
" style="fill:#bfbf00;opacity:0.7;"/>
   </g>
   <g id="patch_117">
    <path clip-path="url(#p61f769cda9)" d="M 73.73 138.077947 
L 90.284922 138.077947 
L 90.284922 132.14739 
L 73.73 132.14739 
z
" style="fill:#bfbf00;opacity:0.7;"/>
   </g>
   <g id="patch_118">
    <path clip-path="url(#p61f769cda9)" d="M 73.73 114.355718 
L 93.067065 114.355718 
L 93.067065 108.425161 
L 73.73 108.425161 
z
" style="fill:#bfbf00;opacity:0.7;"/>
   </g>
   <g id="patch_119">
    <path clip-path="url(#p61f769cda9)" d="M 73.73 90.63349 
L 94.939191 90.63349 
L 94.939191 84.702933 
L 73.73 84.702933 
z
" style="fill:#bfbf00;opacity:0.7;"/>
   </g>
   <g id="matplotlib.axis_1">
    <g id="xtick_1">
     <g id="line2d_1">
      <defs>
       <path d="M 0 0 
L 0 3.5 
" id="ma2c35835e9" style="stroke:#000000;stroke-width:0.8;"/>
      </defs>
      <g>
       <use style="stroke:#000000;stroke-width:0.8;" x="73.73" xlink:href="#ma2c35835e9" y="1038.04"/>
      </g>
     </g>
     <g id="text_1">
      <!-- 0.0 -->
      <defs>
       <path d="M 31.78125 66.40625 
Q 24.171875 66.40625 20.328125 58.90625 
Q 16.5 51.421875 16.5 36.375 
Q 16.5 21.390625 20.328125 13.890625 
Q 24.171875 6.390625 31.78125 6.390625 
Q 39.453125 6.390625 43.28125 13.890625 
Q 47.125 21.390625 47.125 36.375 
Q 47.125 51.421875 43.28125 58.90625 
Q 39.453125 66.40625 31.78125 66.40625 
z
M 31.78125 74.21875 
Q 44.046875 74.21875 50.515625 64.515625 
Q 56.984375 54.828125 56.984375 36.375 
Q 56.984375 17.96875 50.515625 8.265625 
Q 44.046875 -1.421875 31.78125 -1.421875 
Q 19.53125 -1.421875 13.0625 8.265625 
Q 6.59375 17.96875 6.59375 36.375 
Q 6.59375 54.828125 13.0625 64.515625 
Q 19.53125 74.21875 31.78125 74.21875 
z
" id="DejaVuSans-48"/>
       <path d="M 10.6875 12.40625 
L 21 12.40625 
L 21 0 
L 10.6875 0 
z
" id="DejaVuSans-46"/>
      </defs>
      <g transform="translate(65.778438 1052.638438)scale(0.1 -0.1)">
       <use xlink:href="#DejaVuSans-48"/>
       <use x="63.623047" xlink:href="#DejaVuSans-46"/>
       <use x="95.410156" xlink:href="#DejaVuSans-48"/>
      </g>
     </g>
    </g>
    <g id="xtick_2">
     <g id="line2d_2">
      <g>
       <use style="stroke:#000000;stroke-width:0.8;" x="145.977703" xlink:href="#ma2c35835e9" y="1038.04"/>
      </g>
     </g>
     <g id="text_2">
      <!-- 0.1 -->
      <defs>
       <path d="M 12.40625 8.296875 
L 28.515625 8.296875 
L 28.515625 63.921875 
L 10.984375 60.40625 
L 10.984375 69.390625 
L 28.421875 72.90625 
L 38.28125 72.90625 
L 38.28125 8.296875 
L 54.390625 8.296875 
L 54.390625 0 
L 12.40625 0 
z
" id="DejaVuSans-49"/>
      </defs>
      <g transform="translate(138.02614 1052.638438)scale(0.1 -0.1)">
       <use xlink:href="#DejaVuSans-48"/>
       <use x="63.623047" xlink:href="#DejaVuSans-46"/>
       <use x="95.410156" xlink:href="#DejaVuSans-49"/>
      </g>
     </g>
    </g>
    <g id="xtick_3">
     <g id="line2d_3">
      <g>
       <use style="stroke:#000000;stroke-width:0.8;" x="218.225406" xlink:href="#ma2c35835e9" y="1038.04"/>
      </g>
     </g>
     <g id="text_3">
      <!-- 0.2 -->
      <defs>
       <path d="M 19.1875 8.296875 
L 53.609375 8.296875 
L 53.609375 0 
L 7.328125 0 
L 7.328125 8.296875 
Q 12.9375 14.109375 22.625 23.890625 
Q 32.328125 33.6875 34.8125 36.53125 
Q 39.546875 41.84375 41.421875 45.53125 
Q 43.3125 49.21875 43.3125 52.78125 
Q 43.3125 58.59375 39.234375 62.25 
Q 35.15625 65.921875 28.609375 65.921875 
Q 23.96875 65.921875 18.8125 64.3125 
Q 13.671875 62.703125 7.8125 59.421875 
L 7.8125 69.390625 
Q 13.765625 71.78125 18.9375 73 
Q 24.125 74.21875 28.421875 74.21875 
Q 39.75 74.21875 46.484375 68.546875 
Q 53.21875 62.890625 53.21875 53.421875 
Q 53.21875 48.921875 51.53125 44.890625 
Q 49.859375 40.875 45.40625 35.40625 
Q 44.1875 33.984375 37.640625 27.21875 
Q 31.109375 20.453125 19.1875 8.296875 
z
" id="DejaVuSans-50"/>
      </defs>
      <g transform="translate(210.273843 1052.638438)scale(0.1 -0.1)">
       <use xlink:href="#DejaVuSans-48"/>
       <use x="63.623047" xlink:href="#DejaVuSans-46"/>
       <use x="95.410156" xlink:href="#DejaVuSans-50"/>
      </g>
     </g>
    </g>
    <g id="xtick_4">
     <g id="line2d_4">
      <g>
       <use style="stroke:#000000;stroke-width:0.8;" x="290.473108" xlink:href="#ma2c35835e9" y="1038.04"/>
      </g>
     </g>
     <g id="text_4">
      <!-- 0.3 -->
      <defs>
       <path d="M 40.578125 39.3125 
Q 47.65625 37.796875 51.625 33 
Q 55.609375 28.21875 55.609375 21.1875 
Q 55.609375 10.40625 48.1875 4.484375 
Q 40.765625 -1.421875 27.09375 -1.421875 
Q 22.515625 -1.421875 17.65625 -0.515625 
Q 12.796875 0.390625 7.625 2.203125 
L 7.625 11.71875 
Q 11.71875 9.328125 16.59375 8.109375 
Q 21.484375 6.890625 26.8125 6.890625 
Q 36.078125 6.890625 40.9375 10.546875 
Q 45.796875 14.203125 45.796875 21.1875 
Q 45.796875 27.640625 41.28125 31.265625 
Q 36.765625 34.90625 28.71875 34.90625 
L 20.21875 34.90625 
L 20.21875 43.015625 
L 29.109375 43.015625 
Q 36.375 43.015625 40.234375 45.921875 
Q 44.09375 48.828125 44.09375 54.296875 
Q 44.09375 59.90625 40.109375 62.90625 
Q 36.140625 65.921875 28.71875 65.921875 
Q 24.65625 65.921875 20.015625 65.03125 
Q 15.375 64.15625 9.8125 62.3125 
L 9.8125 71.09375 
Q 15.4375 72.65625 20.34375 73.4375 
Q 25.25 74.21875 29.59375 74.21875 
Q 40.828125 74.21875 47.359375 69.109375 
Q 53.90625 64.015625 53.90625 55.328125 
Q 53.90625 49.265625 50.4375 45.09375 
Q 46.96875 40.921875 40.578125 39.3125 
z
" id="DejaVuSans-51"/>
      </defs>
      <g transform="translate(282.521546 1052.638438)scale(0.1 -0.1)">
       <use xlink:href="#DejaVuSans-48"/>
       <use x="63.623047" xlink:href="#DejaVuSans-46"/>
       <use x="95.410156" xlink:href="#DejaVuSans-51"/>
      </g>
     </g>
    </g>
    <g id="xtick_5">
     <g id="line2d_5">
      <g>
       <use style="stroke:#000000;stroke-width:0.8;" x="362.720811" xlink:href="#ma2c35835e9" y="1038.04"/>
      </g>
     </g>
     <g id="text_5">
      <!-- 0.4 -->
      <defs>
       <path d="M 37.796875 64.3125 
L 12.890625 25.390625 
L 37.796875 25.390625 
z
M 35.203125 72.90625 
L 47.609375 72.90625 
L 47.609375 25.390625 
L 58.015625 25.390625 
L 58.015625 17.1875 
L 47.609375 17.1875 
L 47.609375 0 
L 37.796875 0 
L 37.796875 17.1875 
L 4.890625 17.1875 
L 4.890625 26.703125 
z
" id="DejaVuSans-52"/>
      </defs>
      <g transform="translate(354.769249 1052.638438)scale(0.1 -0.1)">
       <use xlink:href="#DejaVuSans-48"/>
       <use x="63.623047" xlink:href="#DejaVuSans-46"/>
       <use x="95.410156" xlink:href="#DejaVuSans-52"/>
      </g>
     </g>
    </g>
    <g id="xtick_6">
     <g id="line2d_6">
      <g>
       <use style="stroke:#000000;stroke-width:0.8;" x="434.968514" xlink:href="#ma2c35835e9" y="1038.04"/>
      </g>
     </g>
     <g id="text_6">
      <!-- 0.5 -->
      <defs>
       <path d="M 10.796875 72.90625 
L 49.515625 72.90625 
L 49.515625 64.59375 
L 19.828125 64.59375 
L 19.828125 46.734375 
Q 21.96875 47.46875 24.109375 47.828125 
Q 26.265625 48.1875 28.421875 48.1875 
Q 40.625 48.1875 47.75 41.5 
Q 54.890625 34.8125 54.890625 23.390625 
Q 54.890625 11.625 47.5625 5.09375 
Q 40.234375 -1.421875 26.90625 -1.421875 
Q 22.3125 -1.421875 17.546875 -0.640625 
Q 12.796875 0.140625 7.71875 1.703125 
L 7.71875 11.625 
Q 12.109375 9.234375 16.796875 8.0625 
Q 21.484375 6.890625 26.703125 6.890625 
Q 35.15625 6.890625 40.078125 11.328125 
Q 45.015625 15.765625 45.015625 23.390625 
Q 45.015625 31 40.078125 35.4375 
Q 35.15625 39.890625 26.703125 39.890625 
Q 22.75 39.890625 18.8125 39.015625 
Q 14.890625 38.140625 10.796875 36.28125 
z
" id="DejaVuSans-53"/>
      </defs>
      <g transform="translate(427.016951 1052.638438)scale(0.1 -0.1)">
       <use xlink:href="#DejaVuSans-48"/>
       <use x="63.623047" xlink:href="#DejaVuSans-46"/>
       <use x="95.410156" xlink:href="#DejaVuSans-53"/>
      </g>
     </g>
    </g>
    <g id="xtick_7">
     <g id="line2d_7">
      <g>
       <use style="stroke:#000000;stroke-width:0.8;" x="507.216217" xlink:href="#ma2c35835e9" y="1038.04"/>
      </g>
     </g>
     <g id="text_7">
      <!-- 0.6 -->
      <defs>
       <path d="M 33.015625 40.375 
Q 26.375 40.375 22.484375 35.828125 
Q 18.609375 31.296875 18.609375 23.390625 
Q 18.609375 15.53125 22.484375 10.953125 
Q 26.375 6.390625 33.015625 6.390625 
Q 39.65625 6.390625 43.53125 10.953125 
Q 47.40625 15.53125 47.40625 23.390625 
Q 47.40625 31.296875 43.53125 35.828125 
Q 39.65625 40.375 33.015625 40.375 
z
M 52.59375 71.296875 
L 52.59375 62.3125 
Q 48.875 64.0625 45.09375 64.984375 
Q 41.3125 65.921875 37.59375 65.921875 
Q 27.828125 65.921875 22.671875 59.328125 
Q 17.53125 52.734375 16.796875 39.40625 
Q 19.671875 43.65625 24.015625 45.921875 
Q 28.375 48.1875 33.59375 48.1875 
Q 44.578125 48.1875 50.953125 41.515625 
Q 57.328125 34.859375 57.328125 23.390625 
Q 57.328125 12.15625 50.6875 5.359375 
Q 44.046875 -1.421875 33.015625 -1.421875 
Q 20.359375 -1.421875 13.671875 8.265625 
Q 6.984375 17.96875 6.984375 36.375 
Q 6.984375 53.65625 15.1875 63.9375 
Q 23.390625 74.21875 37.203125 74.21875 
Q 40.921875 74.21875 44.703125 73.484375 
Q 48.484375 72.75 52.59375 71.296875 
z
" id="DejaVuSans-54"/>
      </defs>
      <g transform="translate(499.264654 1052.638438)scale(0.1 -0.1)">
       <use xlink:href="#DejaVuSans-48"/>
       <use x="63.623047" xlink:href="#DejaVuSans-46"/>
       <use x="95.410156" xlink:href="#DejaVuSans-54"/>
      </g>
     </g>
    </g>
    <g id="xtick_8">
     <g id="line2d_8">
      <g>
       <use style="stroke:#000000;stroke-width:0.8;" x="579.463919" xlink:href="#ma2c35835e9" y="1038.04"/>
      </g>
     </g>
     <g id="text_8">
      <!-- 0.7 -->
      <defs>
       <path d="M 8.203125 72.90625 
L 55.078125 72.90625 
L 55.078125 68.703125 
L 28.609375 0 
L 18.3125 0 
L 43.21875 64.59375 
L 8.203125 64.59375 
z
" id="DejaVuSans-55"/>
      </defs>
      <g transform="translate(571.512357 1052.638438)scale(0.1 -0.1)">
       <use xlink:href="#DejaVuSans-48"/>
       <use x="63.623047" xlink:href="#DejaVuSans-46"/>
       <use x="95.410156" xlink:href="#DejaVuSans-55"/>
      </g>
     </g>
    </g>
    <g id="xtick_9">
     <g id="line2d_9">
      <g>
       <use style="stroke:#000000;stroke-width:0.8;" x="651.711622" xlink:href="#ma2c35835e9" y="1038.04"/>
      </g>
     </g>
     <g id="text_9">
      <!-- 0.8 -->
      <defs>
       <path d="M 31.78125 34.625 
Q 24.75 34.625 20.71875 30.859375 
Q 16.703125 27.09375 16.703125 20.515625 
Q 16.703125 13.921875 20.71875 10.15625 
Q 24.75 6.390625 31.78125 6.390625 
Q 38.8125 6.390625 42.859375 10.171875 
Q 46.921875 13.96875 46.921875 20.515625 
Q 46.921875 27.09375 42.890625 30.859375 
Q 38.875 34.625 31.78125 34.625 
z
M 21.921875 38.8125 
Q 15.578125 40.375 12.03125 44.71875 
Q 8.5 49.078125 8.5 55.328125 
Q 8.5 64.0625 14.71875 69.140625 
Q 20.953125 74.21875 31.78125 74.21875 
Q 42.671875 74.21875 48.875 69.140625 
Q 55.078125 64.0625 55.078125 55.328125 
Q 55.078125 49.078125 51.53125 44.71875 
Q 48 40.375 41.703125 38.8125 
Q 48.828125 37.15625 52.796875 32.3125 
Q 56.78125 27.484375 56.78125 20.515625 
Q 56.78125 9.90625 50.3125 4.234375 
Q 43.84375 -1.421875 31.78125 -1.421875 
Q 19.734375 -1.421875 13.25 4.234375 
Q 6.78125 9.90625 6.78125 20.515625 
Q 6.78125 27.484375 10.78125 32.3125 
Q 14.796875 37.15625 21.921875 38.8125 
z
M 18.3125 54.390625 
Q 18.3125 48.734375 21.84375 45.5625 
Q 25.390625 42.390625 31.78125 42.390625 
Q 38.140625 42.390625 41.71875 45.5625 
Q 45.3125 48.734375 45.3125 54.390625 
Q 45.3125 60.0625 41.71875 63.234375 
Q 38.140625 66.40625 31.78125 66.40625 
Q 25.390625 66.40625 21.84375 63.234375 
Q 18.3125 60.0625 18.3125 54.390625 
z
" id="DejaVuSans-56"/>
      </defs>
      <g transform="translate(643.76006 1052.638438)scale(0.1 -0.1)">
       <use xlink:href="#DejaVuSans-48"/>
       <use x="63.623047" xlink:href="#DejaVuSans-46"/>
       <use x="95.410156" xlink:href="#DejaVuSans-56"/>
      </g>
     </g>
    </g>
    <g id="text_10">
     <!-- Proporcao -->
     <defs>
      <path d="M 19.671875 64.796875 
L 19.671875 37.40625 
L 32.078125 37.40625 
Q 38.96875 37.40625 42.71875 40.96875 
Q 46.484375 44.53125 46.484375 51.125 
Q 46.484375 57.671875 42.71875 61.234375 
Q 38.96875 64.796875 32.078125 64.796875 
z
M 9.8125 72.90625 
L 32.078125 72.90625 
Q 44.34375 72.90625 50.609375 67.359375 
Q 56.890625 61.8125 56.890625 51.125 
Q 56.890625 40.328125 50.609375 34.8125 
Q 44.34375 29.296875 32.078125 29.296875 
L 19.671875 29.296875 
L 19.671875 0 
L 9.8125 0 
z
" id="DejaVuSans-80"/>
      <path d="M 41.109375 46.296875 
Q 39.59375 47.171875 37.8125 47.578125 
Q 36.03125 48 33.890625 48 
Q 26.265625 48 22.1875 43.046875 
Q 18.109375 38.09375 18.109375 28.8125 
L 18.109375 0 
L 9.078125 0 
L 9.078125 54.6875 
L 18.109375 54.6875 
L 18.109375 46.1875 
Q 20.953125 51.171875 25.484375 53.578125 
Q 30.03125 56 36.53125 56 
Q 37.453125 56 38.578125 55.875 
Q 39.703125 55.765625 41.0625 55.515625 
z
" id="DejaVuSans-114"/>
      <path d="M 30.609375 48.390625 
Q 23.390625 48.390625 19.1875 42.75 
Q 14.984375 37.109375 14.984375 27.296875 
Q 14.984375 17.484375 19.15625 11.84375 
Q 23.34375 6.203125 30.609375 6.203125 
Q 37.796875 6.203125 41.984375 11.859375 
Q 46.1875 17.53125 46.1875 27.296875 
Q 46.1875 37.015625 41.984375 42.703125 
Q 37.796875 48.390625 30.609375 48.390625 
z
M 30.609375 56 
Q 42.328125 56 49.015625 48.375 
Q 55.71875 40.765625 55.71875 27.296875 
Q 55.71875 13.875 49.015625 6.21875 
Q 42.328125 -1.421875 30.609375 -1.421875 
Q 18.84375 -1.421875 12.171875 6.21875 
Q 5.515625 13.875 5.515625 27.296875 
Q 5.515625 40.765625 12.171875 48.375 
Q 18.84375 56 30.609375 56 
z
" id="DejaVuSans-111"/>
      <path d="M 18.109375 8.203125 
L 18.109375 -20.796875 
L 9.078125 -20.796875 
L 9.078125 54.6875 
L 18.109375 54.6875 
L 18.109375 46.390625 
Q 20.953125 51.265625 25.265625 53.625 
Q 29.59375 56 35.59375 56 
Q 45.5625 56 51.78125 48.09375 
Q 58.015625 40.1875 58.015625 27.296875 
Q 58.015625 14.40625 51.78125 6.484375 
Q 45.5625 -1.421875 35.59375 -1.421875 
Q 29.59375 -1.421875 25.265625 0.953125 
Q 20.953125 3.328125 18.109375 8.203125 
z
M 48.6875 27.296875 
Q 48.6875 37.203125 44.609375 42.84375 
Q 40.53125 48.484375 33.40625 48.484375 
Q 26.265625 48.484375 22.1875 42.84375 
Q 18.109375 37.203125 18.109375 27.296875 
Q 18.109375 17.390625 22.1875 11.75 
Q 26.265625 6.109375 33.40625 6.109375 
Q 40.53125 6.109375 44.609375 11.75 
Q 48.6875 17.390625 48.6875 27.296875 
z
" id="DejaVuSans-112"/>
      <path d="M 48.78125 52.59375 
L 48.78125 44.1875 
Q 44.96875 46.296875 41.140625 47.34375 
Q 37.3125 48.390625 33.40625 48.390625 
Q 24.65625 48.390625 19.8125 42.84375 
Q 14.984375 37.3125 14.984375 27.296875 
Q 14.984375 17.28125 19.8125 11.734375 
Q 24.65625 6.203125 33.40625 6.203125 
Q 37.3125 6.203125 41.140625 7.25 
Q 44.96875 8.296875 48.78125 10.40625 
L 48.78125 2.09375 
Q 45.015625 0.34375 40.984375 -0.53125 
Q 36.96875 -1.421875 32.421875 -1.421875 
Q 20.0625 -1.421875 12.78125 6.34375 
Q 5.515625 14.109375 5.515625 27.296875 
Q 5.515625 40.671875 12.859375 48.328125 
Q 20.21875 56 33.015625 56 
Q 37.15625 56 41.109375 55.140625 
Q 45.0625 54.296875 48.78125 52.59375 
z
" id="DejaVuSans-99"/>
      <path d="M 34.28125 27.484375 
Q 23.390625 27.484375 19.1875 25 
Q 14.984375 22.515625 14.984375 16.5 
Q 14.984375 11.71875 18.140625 8.90625 
Q 21.296875 6.109375 26.703125 6.109375 
Q 34.1875 6.109375 38.703125 11.40625 
Q 43.21875 16.703125 43.21875 25.484375 
L 43.21875 27.484375 
z
M 52.203125 31.203125 
L 52.203125 0 
L 43.21875 0 
L 43.21875 8.296875 
Q 40.140625 3.328125 35.546875 0.953125 
Q 30.953125 -1.421875 24.3125 -1.421875 
Q 15.921875 -1.421875 10.953125 3.296875 
Q 6 8.015625 6 15.921875 
Q 6 25.140625 12.171875 29.828125 
Q 18.359375 34.515625 30.609375 34.515625 
L 43.21875 34.515625 
L 43.21875 35.40625 
Q 43.21875 41.609375 39.140625 45 
Q 35.0625 48.390625 27.6875 48.390625 
Q 23 48.390625 18.546875 47.265625 
Q 14.109375 46.140625 10.015625 43.890625 
L 10.015625 52.203125 
Q 14.9375 54.109375 19.578125 55.046875 
Q 24.21875 56 28.609375 56 
Q 40.484375 56 46.34375 49.84375 
Q 52.203125 43.703125 52.203125 31.203125 
z
" id="DejaVuSans-97"/>
     </defs>
     <g transform="translate(364.9175 1066.316563)scale(0.1 -0.1)">
      <use xlink:href="#DejaVuSans-80"/>
      <use x="60.287109" xlink:href="#DejaVuSans-114"/>
      <use x="101.369141" xlink:href="#DejaVuSans-111"/>
      <use x="162.550781" xlink:href="#DejaVuSans-112"/>
      <use x="226.027344" xlink:href="#DejaVuSans-111"/>
      <use x="287.208984" xlink:href="#DejaVuSans-114"/>
      <use x="328.291016" xlink:href="#DejaVuSans-99"/>
      <use x="383.271484" xlink:href="#DejaVuSans-97"/>
      <use x="444.550781" xlink:href="#DejaVuSans-111"/>
     </g>
    </g>
   </g>
   <g id="matplotlib.axis_2">
    <g id="ytick_1">
     <g id="line2d_10">
      <defs>
       <path d="M 0 0 
L -3.5 0 
" id="m901c7247bb" style="stroke:#000000;stroke-width:0.8;"/>
      </defs>
      <g>
       <use style="stroke:#000000;stroke-width:0.8;" x="73.73" xlink:href="#m901c7247bb" y="983.182346"/>
      </g>
     </g>
     <g id="text_11">
      <!-- NOVO -->
      <defs>
       <path d="M 9.8125 72.90625 
L 23.09375 72.90625 
L 55.421875 11.921875 
L 55.421875 72.90625 
L 64.984375 72.90625 
L 64.984375 0 
L 51.703125 0 
L 19.390625 60.984375 
L 19.390625 0 
L 9.8125 0 
z
" id="DejaVuSans-78"/>
       <path d="M 39.40625 66.21875 
Q 28.65625 66.21875 22.328125 58.203125 
Q 16.015625 50.203125 16.015625 36.375 
Q 16.015625 22.609375 22.328125 14.59375 
Q 28.65625 6.59375 39.40625 6.59375 
Q 50.140625 6.59375 56.421875 14.59375 
Q 62.703125 22.609375 62.703125 36.375 
Q 62.703125 50.203125 56.421875 58.203125 
Q 50.140625 66.21875 39.40625 66.21875 
z
M 39.40625 74.21875 
Q 54.734375 74.21875 63.90625 63.9375 
Q 73.09375 53.65625 73.09375 36.375 
Q 73.09375 19.140625 63.90625 8.859375 
Q 54.734375 -1.421875 39.40625 -1.421875 
Q 24.03125 -1.421875 14.8125 8.828125 
Q 5.609375 19.09375 5.609375 36.375 
Q 5.609375 53.65625 14.8125 63.9375 
Q 24.03125 74.21875 39.40625 74.21875 
z
" id="DejaVuSans-79"/>
       <path d="M 28.609375 0 
L 0.78125 72.90625 
L 11.078125 72.90625 
L 34.1875 11.53125 
L 57.328125 72.90625 
L 67.578125 72.90625 
L 39.796875 0 
z
" id="DejaVuSans-86"/>
      </defs>
      <g transform="translate(36.6675 986.981565)scale(0.1 -0.1)">
       <use xlink:href="#DejaVuSans-78"/>
       <use x="74.804688" xlink:href="#DejaVuSans-79"/>
       <use x="153.5" xlink:href="#DejaVuSans-86"/>
       <use x="221.892578" xlink:href="#DejaVuSans-79"/>
      </g>
     </g>
    </g>
    <g id="ytick_2">
     <g id="line2d_11">
      <g>
       <use style="stroke:#000000;stroke-width:0.8;" x="73.73" xlink:href="#m901c7247bb" y="959.460117"/>
      </g>
     </g>
     <g id="text_12">
      <!-- REDE -->
      <defs>
       <path d="M 44.390625 34.1875 
Q 47.5625 33.109375 50.5625 29.59375 
Q 53.5625 26.078125 56.59375 19.921875 
L 66.609375 0 
L 56 0 
L 46.6875 18.703125 
Q 43.0625 26.03125 39.671875 28.421875 
Q 36.28125 30.8125 30.421875 30.8125 
L 19.671875 30.8125 
L 19.671875 0 
L 9.8125 0 
L 9.8125 72.90625 
L 32.078125 72.90625 
Q 44.578125 72.90625 50.734375 67.671875 
Q 56.890625 62.453125 56.890625 51.90625 
Q 56.890625 45.015625 53.6875 40.46875 
Q 50.484375 35.9375 44.390625 34.1875 
z
M 19.671875 64.796875 
L 19.671875 38.921875 
L 32.078125 38.921875 
Q 39.203125 38.921875 42.84375 42.21875 
Q 46.484375 45.515625 46.484375 51.90625 
Q 46.484375 58.296875 42.84375 61.546875 
Q 39.203125 64.796875 32.078125 64.796875 
z
" id="DejaVuSans-82"/>
       <path d="M 9.8125 72.90625 
L 55.90625 72.90625 
L 55.90625 64.59375 
L 19.671875 64.59375 
L 19.671875 43.015625 
L 54.390625 43.015625 
L 54.390625 34.71875 
L 19.671875 34.71875 
L 19.671875 8.296875 
L 56.78125 8.296875 
L 56.78125 0 
L 9.8125 0 
z
" id="DejaVuSans-69"/>
       <path d="M 19.671875 64.796875 
L 19.671875 8.109375 
L 31.59375 8.109375 
Q 46.6875 8.109375 53.6875 14.9375 
Q 60.6875 21.78125 60.6875 36.53125 
Q 60.6875 51.171875 53.6875 57.984375 
Q 46.6875 64.796875 31.59375 64.796875 
z
M 9.8125 72.90625 
L 30.078125 72.90625 
Q 51.265625 72.90625 61.171875 64.09375 
Q 71.09375 55.28125 71.09375 36.53125 
Q 71.09375 17.671875 61.125 8.828125 
Q 51.171875 0 30.078125 0 
L 9.8125 0 
z
" id="DejaVuSans-68"/>
      </defs>
      <g transform="translate(39.444063 963.259336)scale(0.1 -0.1)">
       <use xlink:href="#DejaVuSans-82"/>
       <use x="69.482422" xlink:href="#DejaVuSans-69"/>
       <use x="132.666016" xlink:href="#DejaVuSans-68"/>
       <use x="209.667969" xlink:href="#DejaVuSans-69"/>
      </g>
     </g>
    </g>
    <g id="ytick_3">
     <g id="line2d_12">
      <g>
       <use style="stroke:#000000;stroke-width:0.8;" x="73.73" xlink:href="#m901c7247bb" y="935.737889"/>
      </g>
     </g>
     <g id="text_13">
      <!-- PCO -->
      <defs>
       <path d="M 64.40625 67.28125 
L 64.40625 56.890625 
Q 59.421875 61.53125 53.78125 63.8125 
Q 48.140625 66.109375 41.796875 66.109375 
Q 29.296875 66.109375 22.65625 58.46875 
Q 16.015625 50.828125 16.015625 36.375 
Q 16.015625 21.96875 22.65625 14.328125 
Q 29.296875 6.6875 41.796875 6.6875 
Q 48.140625 6.6875 53.78125 8.984375 
Q 59.421875 11.28125 64.40625 15.921875 
L 64.40625 5.609375 
Q 59.234375 2.09375 53.4375 0.328125 
Q 47.65625 -1.421875 41.21875 -1.421875 
Q 24.65625 -1.421875 15.125 8.703125 
Q 5.609375 18.84375 5.609375 36.375 
Q 5.609375 53.953125 15.125 64.078125 
Q 24.65625 74.21875 41.21875 74.21875 
Q 47.75 74.21875 53.53125 72.484375 
Q 59.328125 70.75 64.40625 67.28125 
z
" id="DejaVuSans-67"/>
      </defs>
      <g transform="translate(45.845625 939.537107)scale(0.1 -0.1)">
       <use xlink:href="#DejaVuSans-80"/>
       <use x="60.302734" xlink:href="#DejaVuSans-67"/>
       <use x="130.126953" xlink:href="#DejaVuSans-79"/>
      </g>
     </g>
    </g>
    <g id="ytick_4">
     <g id="line2d_13">
      <g>
       <use style="stroke:#000000;stroke-width:0.8;" x="73.73" xlink:href="#m901c7247bb" y="912.01566"/>
      </g>
     </g>
     <g id="text_14">
      <!-- PATRI -->
      <defs>
       <path d="M 34.1875 63.1875 
L 20.796875 26.90625 
L 47.609375 26.90625 
z
M 28.609375 72.90625 
L 39.796875 72.90625 
L 67.578125 0 
L 57.328125 0 
L 50.6875 18.703125 
L 17.828125 18.703125 
L 11.1875 0 
L 0.78125 0 
z
" id="DejaVuSans-65"/>
       <path d="M -0.296875 72.90625 
L 61.375 72.90625 
L 61.375 64.59375 
L 35.5 64.59375 
L 35.5 0 
L 25.59375 0 
L 25.59375 64.59375 
L -0.296875 64.59375 
z
" id="DejaVuSans-84"/>
       <path d="M 9.8125 72.90625 
L 19.671875 72.90625 
L 19.671875 0 
L 9.8125 0 
z
" id="DejaVuSans-73"/>
      </defs>
      <g transform="translate(37.87375 915.814879)scale(0.1 -0.1)">
       <use xlink:href="#DejaVuSans-80"/>
       <use x="60.208984" xlink:href="#DejaVuSans-65"/>
       <use x="128.507812" xlink:href="#DejaVuSans-84"/>
       <use x="189.591797" xlink:href="#DejaVuSans-82"/>
       <use x="259.074219" xlink:href="#DejaVuSans-73"/>
      </g>
     </g>
    </g>
    <g id="ytick_5">
     <g id="line2d_14">
      <g>
       <use style="stroke:#000000;stroke-width:0.8;" x="73.73" xlink:href="#m901c7247bb" y="888.293431"/>
      </g>
     </g>
     <g id="text_15">
      <!-- PROS -->
      <defs>
       <path d="M 53.515625 70.515625 
L 53.515625 60.890625 
Q 47.90625 63.578125 42.921875 64.890625 
Q 37.9375 66.21875 33.296875 66.21875 
Q 25.25 66.21875 20.875 63.09375 
Q 16.5 59.96875 16.5 54.203125 
Q 16.5 49.359375 19.40625 46.890625 
Q 22.3125 44.4375 30.421875 42.921875 
L 36.375 41.703125 
Q 47.40625 39.59375 52.65625 34.296875 
Q 57.90625 29 57.90625 20.125 
Q 57.90625 9.515625 50.796875 4.046875 
Q 43.703125 -1.421875 29.984375 -1.421875 
Q 24.8125 -1.421875 18.96875 -0.25 
Q 13.140625 0.921875 6.890625 3.21875 
L 6.890625 13.375 
Q 12.890625 10.015625 18.65625 8.296875 
Q 24.421875 6.59375 29.984375 6.59375 
Q 38.421875 6.59375 43.015625 9.90625 
Q 47.609375 13.234375 47.609375 19.390625 
Q 47.609375 24.75 44.3125 27.78125 
Q 41.015625 30.8125 33.5 32.328125 
L 27.484375 33.5 
Q 16.453125 35.6875 11.515625 40.375 
Q 6.59375 45.0625 6.59375 53.421875 
Q 6.59375 63.09375 13.40625 68.65625 
Q 20.21875 74.21875 32.171875 74.21875 
Q 37.3125 74.21875 42.625 73.28125 
Q 47.953125 72.359375 53.515625 70.515625 
z
" id="DejaVuSans-83"/>
      </defs>
      <g transform="translate(39.531563 892.09265)scale(0.1 -0.1)">
       <use xlink:href="#DejaVuSans-80"/>
       <use x="60.302734" xlink:href="#DejaVuSans-82"/>
       <use x="129.785156" xlink:href="#DejaVuSans-79"/>
       <use x="208.496094" xlink:href="#DejaVuSans-83"/>
      </g>
     </g>
    </g>
    <g id="ytick_6">
     <g id="line2d_15">
      <g>
       <use style="stroke:#000000;stroke-width:0.8;" x="73.73" xlink:href="#m901c7247bb" y="864.571202"/>
      </g>
     </g>
     <g id="text_16">
      <!-- PSD -->
      <g transform="translate(46.651875 868.370421)scale(0.1 -0.1)">
       <use xlink:href="#DejaVuSans-80"/>
       <use x="60.302734" xlink:href="#DejaVuSans-83"/>
       <use x="123.779297" xlink:href="#DejaVuSans-68"/>
      </g>
     </g>
    </g>
    <g id="ytick_7">
     <g id="line2d_16">
      <g>
       <use style="stroke:#000000;stroke-width:0.8;" x="73.73" xlink:href="#m901c7247bb" y="840.848974"/>
      </g>
     </g>
     <g id="text_17">
      <!-- PSL -->
      <defs>
       <path d="M 9.8125 72.90625 
L 19.671875 72.90625 
L 19.671875 8.296875 
L 55.171875 8.296875 
L 55.171875 0 
L 9.8125 0 
z
" id="DejaVuSans-76"/>
      </defs>
      <g transform="translate(48.78 844.648192)scale(0.1 -0.1)">
       <use xlink:href="#DejaVuSans-80"/>
       <use x="60.302734" xlink:href="#DejaVuSans-83"/>
       <use x="123.779297" xlink:href="#DejaVuSans-76"/>
      </g>
     </g>
    </g>
    <g id="ytick_8">
     <g id="line2d_17">
      <g>
       <use style="stroke:#000000;stroke-width:0.8;" x="73.73" xlink:href="#m901c7247bb" y="817.126745"/>
      </g>
     </g>
     <g id="text_18">
      <!-- PV -->
      <g transform="translate(53.859688 820.925964)scale(0.1 -0.1)">
       <use xlink:href="#DejaVuSans-80"/>
       <use x="60.302734" xlink:href="#DejaVuSans-86"/>
      </g>
     </g>
    </g>
    <g id="ytick_9">
     <g id="line2d_18">
      <g>
       <use style="stroke:#000000;stroke-width:0.8;" x="73.73" xlink:href="#m901c7247bb" y="793.404516"/>
      </g>
     </g>
     <g id="text_19">
      <!-- PPS -->
      <g transform="translate(48.322187 797.203735)scale(0.1 -0.1)">
       <use xlink:href="#DejaVuSans-80"/>
       <use x="60.302734" xlink:href="#DejaVuSans-80"/>
       <use x="120.605469" xlink:href="#DejaVuSans-83"/>
      </g>
     </g>
    </g>
    <g id="ytick_10">
     <g id="line2d_19">
      <g>
       <use style="stroke:#000000;stroke-width:0.8;" x="73.73" xlink:href="#m901c7247bb" y="769.682287"/>
      </g>
     </g>
     <g id="text_20">
      <!-- PODE -->
      <g transform="translate(38.809688 773.481506)scale(0.1 -0.1)">
       <use xlink:href="#DejaVuSans-80"/>
       <use x="60.302734" xlink:href="#DejaVuSans-79"/>
       <use x="139.013672" xlink:href="#DejaVuSans-68"/>
       <use x="216.015625" xlink:href="#DejaVuSans-69"/>
      </g>
     </g>
    </g>
    <g id="ytick_11">
     <g id="line2d_20">
      <g>
       <use style="stroke:#000000;stroke-width:0.8;" x="73.73" xlink:href="#m901c7247bb" y="745.960059"/>
      </g>
     </g>
     <g id="text_21">
      <!-- PTN -->
      <g transform="translate(47.11125 749.759277)scale(0.1 -0.1)">
       <use xlink:href="#DejaVuSans-80"/>
       <use x="60.302734" xlink:href="#DejaVuSans-84"/>
       <use x="121.386719" xlink:href="#DejaVuSans-78"/>
      </g>
     </g>
    </g>
    <g id="ytick_12">
     <g id="line2d_21">
      <g>
       <use style="stroke:#000000;stroke-width:0.8;" x="73.73" xlink:href="#m901c7247bb" y="722.23783"/>
      </g>
     </g>
     <g id="text_22">
      <!-- PSB -->
      <defs>
       <path d="M 19.671875 34.8125 
L 19.671875 8.109375 
L 35.5 8.109375 
Q 43.453125 8.109375 47.28125 11.40625 
Q 51.125 14.703125 51.125 21.484375 
Q 51.125 28.328125 47.28125 31.5625 
Q 43.453125 34.8125 35.5 34.8125 
z
M 19.671875 64.796875 
L 19.671875 42.828125 
L 34.28125 42.828125 
Q 41.5 42.828125 45.03125 45.53125 
Q 48.578125 48.25 48.578125 53.8125 
Q 48.578125 59.328125 45.03125 62.0625 
Q 41.5 64.796875 34.28125 64.796875 
z
M 9.8125 72.90625 
L 35.015625 72.90625 
Q 46.296875 72.90625 52.390625 68.21875 
Q 58.5 63.53125 58.5 54.890625 
Q 58.5 48.1875 55.375 44.234375 
Q 52.25 40.28125 46.1875 39.3125 
Q 53.46875 37.75 57.5 32.78125 
Q 61.53125 27.828125 61.53125 20.40625 
Q 61.53125 10.640625 54.890625 5.3125 
Q 48.25 0 35.984375 0 
L 9.8125 0 
z
" id="DejaVuSans-66"/>
      </defs>
      <g transform="translate(47.490938 726.037049)scale(0.1 -0.1)">
       <use xlink:href="#DejaVuSans-80"/>
       <use x="60.302734" xlink:href="#DejaVuSans-83"/>
       <use x="123.779297" xlink:href="#DejaVuSans-66"/>
      </g>
     </g>
    </g>
    <g id="ytick_13">
     <g id="line2d_22">
      <g>
       <use style="stroke:#000000;stroke-width:0.8;" x="73.73" xlink:href="#m901c7247bb" y="698.515601"/>
      </g>
     </g>
     <g id="text_23">
      <!-- PPL -->
      <g transform="translate(49.09875 702.31482)scale(0.1 -0.1)">
       <use xlink:href="#DejaVuSans-80"/>
       <use x="60.302734" xlink:href="#DejaVuSans-80"/>
       <use x="120.605469" xlink:href="#DejaVuSans-76"/>
      </g>
     </g>
    </g>
    <g id="ytick_14">
     <g id="line2d_23">
      <g>
       <use style="stroke:#000000;stroke-width:0.8;" x="73.73" xlink:href="#m901c7247bb" y="674.793372"/>
      </g>
     </g>
     <g id="text_24">
      <!-- PRTB -->
      <g transform="translate(40.794063 678.592591)scale(0.1 -0.1)">
       <use xlink:href="#DejaVuSans-80"/>
       <use x="60.302734" xlink:href="#DejaVuSans-82"/>
       <use x="129.675781" xlink:href="#DejaVuSans-84"/>
       <use x="190.759766" xlink:href="#DejaVuSans-66"/>
      </g>
     </g>
    </g>
    <g id="ytick_15">
     <g id="line2d_24">
      <g>
       <use style="stroke:#000000;stroke-width:0.8;" x="73.73" xlink:href="#m901c7247bb" y="651.071144"/>
      </g>
     </g>
     <g id="text_25">
      <!-- PTC -->
      <g transform="translate(47.6175 654.870362)scale(0.1 -0.1)">
       <use xlink:href="#DejaVuSans-80"/>
       <use x="60.302734" xlink:href="#DejaVuSans-84"/>
       <use x="121.308594" xlink:href="#DejaVuSans-67"/>
      </g>
     </g>
    </g>
    <g id="ytick_16">
     <g id="line2d_25">
      <g>
       <use style="stroke:#000000;stroke-width:0.8;" x="73.73" xlink:href="#m901c7247bb" y="627.348915"/>
      </g>
     </g>
     <g id="text_26">
      <!-- DEM -->
      <defs>
       <path d="M 9.8125 72.90625 
L 24.515625 72.90625 
L 43.109375 23.296875 
L 61.8125 72.90625 
L 76.515625 72.90625 
L 76.515625 0 
L 66.890625 0 
L 66.890625 64.015625 
L 48.09375 14.015625 
L 38.1875 14.015625 
L 19.390625 64.015625 
L 19.390625 0 
L 9.8125 0 
z
" id="DejaVuSans-77"/>
      </defs>
      <g transform="translate(44.083125 631.148134)scale(0.1 -0.1)">
       <use xlink:href="#DejaVuSans-68"/>
       <use x="77.001953" xlink:href="#DejaVuSans-69"/>
       <use x="140.185547" xlink:href="#DejaVuSans-77"/>
      </g>
     </g>
    </g>
    <g id="ytick_17">
     <g id="line2d_26">
      <g>
       <use style="stroke:#000000;stroke-width:0.8;" x="73.73" xlink:href="#m901c7247bb" y="603.626686"/>
      </g>
     </g>
     <g id="text_27">
      <!-- PSC -->
      <g transform="translate(47.369062 607.425905)scale(0.1 -0.1)">
       <use xlink:href="#DejaVuSans-80"/>
       <use x="60.302734" xlink:href="#DejaVuSans-83"/>
       <use x="123.779297" xlink:href="#DejaVuSans-67"/>
      </g>
     </g>
    </g>
    <g id="ytick_18">
     <g id="line2d_27">
      <g>
       <use style="stroke:#000000;stroke-width:0.8;" x="73.73" xlink:href="#m901c7247bb" y="579.904457"/>
      </g>
     </g>
     <g id="text_28">
      <!-- PHS -->
      <defs>
       <path d="M 9.8125 72.90625 
L 19.671875 72.90625 
L 19.671875 43.015625 
L 55.515625 43.015625 
L 55.515625 72.90625 
L 65.375 72.90625 
L 65.375 0 
L 55.515625 0 
L 55.515625 34.71875 
L 19.671875 34.71875 
L 19.671875 0 
L 9.8125 0 
z
" id="DejaVuSans-72"/>
      </defs>
      <g transform="translate(46.831563 583.703676)scale(0.1 -0.1)">
       <use xlink:href="#DejaVuSans-80"/>
       <use x="60.302734" xlink:href="#DejaVuSans-72"/>
       <use x="135.498047" xlink:href="#DejaVuSans-83"/>
      </g>
     </g>
    </g>
    <g id="ytick_19">
     <g id="line2d_28">
      <g>
       <use style="stroke:#000000;stroke-width:0.8;" x="73.73" xlink:href="#m901c7247bb" y="556.182229"/>
      </g>
     </g>
     <g id="text_29">
      <!-- PSDC -->
      <g transform="translate(39.669063 559.981447)scale(0.1 -0.1)">
       <use xlink:href="#DejaVuSans-80"/>
       <use x="60.302734" xlink:href="#DejaVuSans-83"/>
       <use x="123.779297" xlink:href="#DejaVuSans-68"/>
       <use x="200.78125" xlink:href="#DejaVuSans-67"/>
      </g>
     </g>
    </g>
    <g id="ytick_20">
     <g id="line2d_29">
      <g>
       <use style="stroke:#000000;stroke-width:0.8;" x="73.73" xlink:href="#m901c7247bb" y="532.46"/>
      </g>
     </g>
     <g id="text_30">
      <!-- DC -->
      <g transform="translate(52.047188 536.259219)scale(0.1 -0.1)">
       <use xlink:href="#DejaVuSans-68"/>
       <use x="77.001953" xlink:href="#DejaVuSans-67"/>
      </g>
     </g>
    </g>
    <g id="ytick_21">
     <g id="line2d_30">
      <g>
       <use style="stroke:#000000;stroke-width:0.8;" x="73.73" xlink:href="#m901c7247bb" y="508.737771"/>
      </g>
     </g>
     <g id="text_31">
      <!-- PP -->
      <g transform="translate(54.670625 512.53699)scale(0.1 -0.1)">
       <use xlink:href="#DejaVuSans-80"/>
       <use x="60.302734" xlink:href="#DejaVuSans-80"/>
      </g>
     </g>
    </g>
    <g id="ytick_22">
     <g id="line2d_31">
      <g>
       <use style="stroke:#000000;stroke-width:0.8;" x="73.73" xlink:href="#m901c7247bb" y="485.015543"/>
      </g>
     </g>
     <g id="text_32">
      <!-- PDT -->
      <g transform="translate(46.8925 488.814761)scale(0.1 -0.1)">
       <use xlink:href="#DejaVuSans-80"/>
       <use x="60.302734" xlink:href="#DejaVuSans-68"/>
       <use x="137.304688" xlink:href="#DejaVuSans-84"/>
      </g>
     </g>
    </g>
    <g id="ytick_23">
     <g id="line2d_32">
      <g>
       <use style="stroke:#000000;stroke-width:0.8;" x="73.73" xlink:href="#m901c7247bb" y="461.293314"/>
      </g>
     </g>
     <g id="text_33">
      <!-- PR -->
      <g transform="translate(53.751875 465.092533)scale(0.1 -0.1)">
       <use xlink:href="#DejaVuSans-80"/>
       <use x="60.302734" xlink:href="#DejaVuSans-82"/>
      </g>
     </g>
    </g>
    <g id="ytick_24">
     <g id="line2d_33">
      <g>
       <use style="stroke:#000000;stroke-width:0.8;" x="73.73" xlink:href="#m901c7247bb" y="437.571085"/>
      </g>
     </g>
     <g id="text_34">
      <!-- PC DO B -->
      <defs>
       <path id="DejaVuSans-32"/>
      </defs>
      <g transform="translate(24.928438 441.370304)scale(0.1 -0.1)">
       <use xlink:href="#DejaVuSans-80"/>
       <use x="60.302734" xlink:href="#DejaVuSans-67"/>
       <use x="130.126953" xlink:href="#DejaVuSans-32"/>
       <use x="161.914062" xlink:href="#DejaVuSans-68"/>
       <use x="238.916016" xlink:href="#DejaVuSans-79"/>
       <use x="317.626953" xlink:href="#DejaVuSans-32"/>
       <use x="349.414062" xlink:href="#DejaVuSans-66"/>
      </g>
     </g>
    </g>
    <g id="ytick_25">
     <g id="line2d_34">
      <g>
       <use style="stroke:#000000;stroke-width:0.8;" x="73.73" xlink:href="#m901c7247bb" y="413.848856"/>
      </g>
     </g>
     <g id="text_35">
      <!-- PSDB -->
      <g transform="translate(39.790937 417.648075)scale(0.1 -0.1)">
       <use xlink:href="#DejaVuSans-80"/>
       <use x="60.302734" xlink:href="#DejaVuSans-83"/>
       <use x="123.779297" xlink:href="#DejaVuSans-68"/>
       <use x="200.78125" xlink:href="#DejaVuSans-66"/>
      </g>
     </g>
    </g>
    <g id="ytick_26">
     <g id="line2d_35">
      <g>
       <use style="stroke:#000000;stroke-width:0.8;" x="73.73" xlink:href="#m901c7247bb" y="390.126628"/>
      </g>
     </g>
     <g id="text_36">
      <!-- PT -->
      <g transform="translate(54.5925 393.925846)scale(0.1 -0.1)">
       <use xlink:href="#DejaVuSans-80"/>
       <use x="60.302734" xlink:href="#DejaVuSans-84"/>
      </g>
     </g>
    </g>
    <g id="ytick_27">
     <g id="line2d_36">
      <g>
       <use style="stroke:#000000;stroke-width:0.8;" x="73.73" xlink:href="#m901c7247bb" y="366.404399"/>
      </g>
     </g>
     <g id="text_37">
      <!-- PRP -->
      <g transform="translate(47.722188 370.203618)scale(0.1 -0.1)">
       <use xlink:href="#DejaVuSans-80"/>
       <use x="60.302734" xlink:href="#DejaVuSans-82"/>
       <use x="129.785156" xlink:href="#DejaVuSans-80"/>
      </g>
     </g>
    </g>
    <g id="ytick_28">
     <g id="line2d_37">
      <g>
       <use style="stroke:#000000;stroke-width:0.8;" x="73.73" xlink:href="#m901c7247bb" y="342.68217"/>
      </g>
     </g>
     <g id="text_38">
      <!-- PSOL -->
      <g transform="translate(40.908125 346.481389)scale(0.1 -0.1)">
       <use xlink:href="#DejaVuSans-80"/>
       <use x="60.302734" xlink:href="#DejaVuSans-83"/>
       <use x="123.779297" xlink:href="#DejaVuSans-79"/>
       <use x="202.490234" xlink:href="#DejaVuSans-76"/>
      </g>
     </g>
    </g>
    <g id="ytick_29">
     <g id="line2d_38">
      <g>
       <use style="stroke:#000000;stroke-width:0.8;" x="73.73" xlink:href="#m901c7247bb" y="318.959941"/>
      </g>
     </g>
     <g id="text_39">
      <!-- AVANTE -->
      <g transform="translate(26.319063 322.75916)scale(0.1 -0.1)">
       <use xlink:href="#DejaVuSans-65"/>
       <use x="68.314453" xlink:href="#DejaVuSans-86"/>
       <use x="136.628906" xlink:href="#DejaVuSans-65"/>
       <use x="205.037109" xlink:href="#DejaVuSans-78"/>
       <use x="279.841797" xlink:href="#DejaVuSans-84"/>
       <use x="340.925781" xlink:href="#DejaVuSans-69"/>
      </g>
     </g>
    </g>
    <g id="ytick_30">
     <g id="line2d_39">
      <g>
       <use style="stroke:#000000;stroke-width:0.8;" x="73.73" xlink:href="#m901c7247bb" y="295.237713"/>
      </g>
     </g>
     <g id="text_40">
      <!-- PT DO B -->
      <g transform="translate(25.803438 299.036931)scale(0.1 -0.1)">
       <use xlink:href="#DejaVuSans-80"/>
       <use x="60.302734" xlink:href="#DejaVuSans-84"/>
       <use x="121.386719" xlink:href="#DejaVuSans-32"/>
       <use x="153.173828" xlink:href="#DejaVuSans-68"/>
       <use x="230.175781" xlink:href="#DejaVuSans-79"/>
       <use x="308.886719" xlink:href="#DejaVuSans-32"/>
       <use x="340.673828" xlink:href="#DejaVuSans-66"/>
      </g>
     </g>
    </g>
    <g id="ytick_31">
     <g id="line2d_40">
      <g>
       <use style="stroke:#000000;stroke-width:0.8;" x="73.73" xlink:href="#m901c7247bb" y="271.515484"/>
      </g>
     </g>
     <g id="text_41">
      <!-- PCB -->
      <g transform="translate(46.856563 275.314703)scale(0.1 -0.1)">
       <use xlink:href="#DejaVuSans-80"/>
       <use x="60.302734" xlink:href="#DejaVuSans-67"/>
       <use x="130.126953" xlink:href="#DejaVuSans-66"/>
      </g>
     </g>
    </g>
    <g id="ytick_32">
     <g id="line2d_41">
      <g>
       <use style="stroke:#000000;stroke-width:0.8;" x="73.73" xlink:href="#m901c7247bb" y="247.793255"/>
      </g>
     </g>
     <g id="text_42">
      <!-- MDB -->
      <g transform="translate(43.540937 251.592474)scale(0.1 -0.1)">
       <use xlink:href="#DejaVuSans-77"/>
       <use x="86.279297" xlink:href="#DejaVuSans-68"/>
       <use x="163.28125" xlink:href="#DejaVuSans-66"/>
      </g>
     </g>
    </g>
    <g id="ytick_33">
     <g id="line2d_42">
      <g>
       <use style="stroke:#000000;stroke-width:0.8;" x="73.73" xlink:href="#m901c7247bb" y="224.071026"/>
      </g>
     </g>
     <g id="text_43">
      <!-- PTB -->
      <g transform="translate(47.731563 227.870245)scale(0.1 -0.1)">
       <use xlink:href="#DejaVuSans-80"/>
       <use x="60.302734" xlink:href="#DejaVuSans-84"/>
       <use x="121.386719" xlink:href="#DejaVuSans-66"/>
      </g>
     </g>
    </g>
    <g id="ytick_34">
     <g id="line2d_43">
      <g>
       <use style="stroke:#000000;stroke-width:0.8;" x="73.73" xlink:href="#m901c7247bb" y="200.348798"/>
      </g>
     </g>
     <g id="text_44">
      <!-- PMN -->
      <g transform="translate(44.590938 204.148016)scale(0.1 -0.1)">
       <use xlink:href="#DejaVuSans-80"/>
       <use x="60.302734" xlink:href="#DejaVuSans-77"/>
       <use x="146.582031" xlink:href="#DejaVuSans-78"/>
      </g>
     </g>
    </g>
    <g id="ytick_35">
     <g id="line2d_44">
      <g>
       <use style="stroke:#000000;stroke-width:0.8;" x="73.73" xlink:href="#m901c7247bb" y="176.626569"/>
      </g>
     </g>
     <g id="text_45">
      <!-- PMDB -->
      <g transform="translate(37.51125 180.425788)scale(0.1 -0.1)">
       <use xlink:href="#DejaVuSans-80"/>
       <use x="60.302734" xlink:href="#DejaVuSans-77"/>
       <use x="146.582031" xlink:href="#DejaVuSans-68"/>
       <use x="223.583984" xlink:href="#DejaVuSans-66"/>
      </g>
     </g>
    </g>
    <g id="ytick_36">
     <g id="line2d_45">
      <g>
       <use style="stroke:#000000;stroke-width:0.8;" x="73.73" xlink:href="#m901c7247bb" y="152.90434"/>
      </g>
     </g>
     <g id="text_46">
      <!-- SD -->
      <g transform="translate(52.681563 156.703559)scale(0.1 -0.1)">
       <use xlink:href="#DejaVuSans-83"/>
       <use x="63.476562" xlink:href="#DejaVuSans-68"/>
      </g>
     </g>
    </g>
    <g id="ytick_37">
     <g id="line2d_46">
      <g>
       <use style="stroke:#000000;stroke-width:0.8;" x="73.73" xlink:href="#m901c7247bb" y="129.182111"/>
      </g>
     </g>
     <g id="text_47">
      <!-- PSTU -->
      <defs>
       <path d="M 8.6875 72.90625 
L 18.609375 72.90625 
L 18.609375 28.609375 
Q 18.609375 16.890625 22.84375 11.734375 
Q 27.09375 6.59375 36.625 6.59375 
Q 46.09375 6.59375 50.34375 11.734375 
Q 54.59375 16.890625 54.59375 28.609375 
L 54.59375 72.90625 
L 64.5 72.90625 
L 64.5 27.390625 
Q 64.5 13.140625 57.4375 5.859375 
Q 50.390625 -1.421875 36.625 -1.421875 
Q 22.796875 -1.421875 15.734375 5.859375 
Q 8.6875 13.140625 8.6875 27.390625 
z
" id="DejaVuSans-85"/>
      </defs>
      <g transform="translate(40.925313 132.98133)scale(0.1 -0.1)">
       <use xlink:href="#DejaVuSans-80"/>
       <use x="60.302734" xlink:href="#DejaVuSans-83"/>
       <use x="123.779297" xlink:href="#DejaVuSans-84"/>
       <use x="184.863281" xlink:href="#DejaVuSans-85"/>
      </g>
     </g>
    </g>
    <g id="ytick_38">
     <g id="line2d_47">
      <g>
       <use style="stroke:#000000;stroke-width:0.8;" x="73.73" xlink:href="#m901c7247bb" y="105.459883"/>
      </g>
     </g>
     <g id="text_48">
      <!-- PRB -->
      <g transform="translate(46.890938 109.259101)scale(0.1 -0.1)">
       <use xlink:href="#DejaVuSans-80"/>
       <use x="60.302734" xlink:href="#DejaVuSans-82"/>
       <use x="129.785156" xlink:href="#DejaVuSans-66"/>
      </g>
     </g>
    </g>
    <g id="ytick_39">
     <g id="line2d_48">
      <g>
       <use style="stroke:#000000;stroke-width:0.8;" x="73.73" xlink:href="#m901c7247bb" y="81.737654"/>
      </g>
     </g>
     <g id="text_49">
      <!-- PMB -->
      <g transform="translate(45.21125 85.536873)scale(0.1 -0.1)">
       <use xlink:href="#DejaVuSans-80"/>
       <use x="60.302734" xlink:href="#DejaVuSans-77"/>
       <use x="146.582031" xlink:href="#DejaVuSans-66"/>
      </g>
     </g>
    </g>
    <g id="text_50">
     <!-- Partidos -->
     <defs>
      <path d="M 18.3125 70.21875 
L 18.3125 54.6875 
L 36.8125 54.6875 
L 36.8125 47.703125 
L 18.3125 47.703125 
L 18.3125 18.015625 
Q 18.3125 11.328125 20.140625 9.421875 
Q 21.96875 7.515625 27.59375 7.515625 
L 36.8125 7.515625 
L 36.8125 0 
L 27.59375 0 
Q 17.1875 0 13.234375 3.875 
Q 9.28125 7.765625 9.28125 18.015625 
L 9.28125 47.703125 
L 2.6875 47.703125 
L 2.6875 54.6875 
L 9.28125 54.6875 
L 9.28125 70.21875 
z
" id="DejaVuSans-116"/>
      <path d="M 9.421875 54.6875 
L 18.40625 54.6875 
L 18.40625 0 
L 9.421875 0 
z
M 9.421875 75.984375 
L 18.40625 75.984375 
L 18.40625 64.59375 
L 9.421875 64.59375 
z
" id="DejaVuSans-105"/>
      <path d="M 45.40625 46.390625 
L 45.40625 75.984375 
L 54.390625 75.984375 
L 54.390625 0 
L 45.40625 0 
L 45.40625 8.203125 
Q 42.578125 3.328125 38.25 0.953125 
Q 33.9375 -1.421875 27.875 -1.421875 
Q 17.96875 -1.421875 11.734375 6.484375 
Q 5.515625 14.40625 5.515625 27.296875 
Q 5.515625 40.1875 11.734375 48.09375 
Q 17.96875 56 27.875 56 
Q 33.9375 56 38.25 53.625 
Q 42.578125 51.265625 45.40625 46.390625 
z
M 14.796875 27.296875 
Q 14.796875 17.390625 18.875 11.75 
Q 22.953125 6.109375 30.078125 6.109375 
Q 37.203125 6.109375 41.296875 11.75 
Q 45.40625 17.390625 45.40625 27.296875 
Q 45.40625 37.203125 41.296875 42.84375 
Q 37.203125 48.484375 30.078125 48.484375 
Q 22.953125 48.484375 18.875 42.84375 
Q 14.796875 37.203125 14.796875 27.296875 
z
" id="DejaVuSans-100"/>
      <path d="M 44.28125 53.078125 
L 44.28125 44.578125 
Q 40.484375 46.53125 36.375 47.5 
Q 32.28125 48.484375 27.875 48.484375 
Q 21.1875 48.484375 17.84375 46.4375 
Q 14.5 44.390625 14.5 40.28125 
Q 14.5 37.15625 16.890625 35.375 
Q 19.28125 33.59375 26.515625 31.984375 
L 29.59375 31.296875 
Q 39.15625 29.25 43.1875 25.515625 
Q 47.21875 21.78125 47.21875 15.09375 
Q 47.21875 7.46875 41.1875 3.015625 
Q 35.15625 -1.421875 24.609375 -1.421875 
Q 20.21875 -1.421875 15.453125 -0.5625 
Q 10.6875 0.296875 5.421875 2 
L 5.421875 11.28125 
Q 10.40625 8.6875 15.234375 7.390625 
Q 20.0625 6.109375 24.8125 6.109375 
Q 31.15625 6.109375 34.5625 8.28125 
Q 37.984375 10.453125 37.984375 14.40625 
Q 37.984375 18.0625 35.515625 20.015625 
Q 33.0625 21.96875 24.703125 23.78125 
L 21.578125 24.515625 
Q 13.234375 26.265625 9.515625 29.90625 
Q 5.8125 33.546875 5.8125 39.890625 
Q 5.8125 47.609375 11.28125 51.796875 
Q 16.75 56 26.8125 56 
Q 31.78125 56 36.171875 55.265625 
Q 40.578125 54.546875 44.28125 53.078125 
z
" id="DejaVuSans-115"/>
     </defs>
     <g transform="translate(18.84875 552.77875)rotate(-90)scale(0.1 -0.1)">
      <use xlink:href="#DejaVuSans-80"/>
      <use x="60.240234" xlink:href="#DejaVuSans-97"/>
      <use x="121.519531" xlink:href="#DejaVuSans-114"/>
      <use x="162.632812" xlink:href="#DejaVuSans-116"/>
      <use x="201.841797" xlink:href="#DejaVuSans-105"/>
      <use x="229.625" xlink:href="#DejaVuSans-100"/>
      <use x="293.101562" xlink:href="#DejaVuSans-111"/>
      <use x="354.283203" xlink:href="#DejaVuSans-115"/>
     </g>
    </g>
   </g>
   <g id="text_51">
    <!-- Proporcao de genero em Partidos Politicos -->
    <defs>
     <path d="M 56.203125 29.59375 
L 56.203125 25.203125 
L 14.890625 25.203125 
Q 15.484375 15.921875 20.484375 11.0625 
Q 25.484375 6.203125 34.421875 6.203125 
Q 39.59375 6.203125 44.453125 7.46875 
Q 49.3125 8.734375 54.109375 11.28125 
L 54.109375 2.78125 
Q 49.265625 0.734375 44.1875 -0.34375 
Q 39.109375 -1.421875 33.890625 -1.421875 
Q 20.796875 -1.421875 13.15625 6.1875 
Q 5.515625 13.8125 5.515625 26.8125 
Q 5.515625 40.234375 12.765625 48.109375 
Q 20.015625 56 32.328125 56 
Q 43.359375 56 49.78125 48.890625 
Q 56.203125 41.796875 56.203125 29.59375 
z
M 47.21875 32.234375 
Q 47.125 39.59375 43.09375 43.984375 
Q 39.0625 48.390625 32.421875 48.390625 
Q 24.90625 48.390625 20.390625 44.140625 
Q 15.875 39.890625 15.1875 32.171875 
z
" id="DejaVuSans-101"/>
     <path d="M 45.40625 27.984375 
Q 45.40625 37.75 41.375 43.109375 
Q 37.359375 48.484375 30.078125 48.484375 
Q 22.859375 48.484375 18.828125 43.109375 
Q 14.796875 37.75 14.796875 27.984375 
Q 14.796875 18.265625 18.828125 12.890625 
Q 22.859375 7.515625 30.078125 7.515625 
Q 37.359375 7.515625 41.375 12.890625 
Q 45.40625 18.265625 45.40625 27.984375 
z
M 54.390625 6.78125 
Q 54.390625 -7.171875 48.1875 -13.984375 
Q 42 -20.796875 29.203125 -20.796875 
Q 24.46875 -20.796875 20.265625 -20.09375 
Q 16.0625 -19.390625 12.109375 -17.921875 
L 12.109375 -9.1875 
Q 16.0625 -11.328125 19.921875 -12.34375 
Q 23.78125 -13.375 27.78125 -13.375 
Q 36.625 -13.375 41.015625 -8.765625 
Q 45.40625 -4.15625 45.40625 5.171875 
L 45.40625 9.625 
Q 42.625 4.78125 38.28125 2.390625 
Q 33.9375 0 27.875 0 
Q 17.828125 0 11.671875 7.65625 
Q 5.515625 15.328125 5.515625 27.984375 
Q 5.515625 40.671875 11.671875 48.328125 
Q 17.828125 56 27.875 56 
Q 33.9375 56 38.28125 53.609375 
Q 42.625 51.21875 45.40625 46.390625 
L 45.40625 54.6875 
L 54.390625 54.6875 
z
" id="DejaVuSans-103"/>
     <path d="M 54.890625 33.015625 
L 54.890625 0 
L 45.90625 0 
L 45.90625 32.71875 
Q 45.90625 40.484375 42.875 44.328125 
Q 39.84375 48.1875 33.796875 48.1875 
Q 26.515625 48.1875 22.3125 43.546875 
Q 18.109375 38.921875 18.109375 30.90625 
L 18.109375 0 
L 9.078125 0 
L 9.078125 54.6875 
L 18.109375 54.6875 
L 18.109375 46.1875 
Q 21.34375 51.125 25.703125 53.5625 
Q 30.078125 56 35.796875 56 
Q 45.21875 56 50.046875 50.171875 
Q 54.890625 44.34375 54.890625 33.015625 
z
" id="DejaVuSans-110"/>
     <path d="M 52 44.1875 
Q 55.375 50.25 60.0625 53.125 
Q 64.75 56 71.09375 56 
Q 79.640625 56 84.28125 50.015625 
Q 88.921875 44.046875 88.921875 33.015625 
L 88.921875 0 
L 79.890625 0 
L 79.890625 32.71875 
Q 79.890625 40.578125 77.09375 44.375 
Q 74.3125 48.1875 68.609375 48.1875 
Q 61.625 48.1875 57.5625 43.546875 
Q 53.515625 38.921875 53.515625 30.90625 
L 53.515625 0 
L 44.484375 0 
L 44.484375 32.71875 
Q 44.484375 40.625 41.703125 44.40625 
Q 38.921875 48.1875 33.109375 48.1875 
Q 26.21875 48.1875 22.15625 43.53125 
Q 18.109375 38.875 18.109375 30.90625 
L 18.109375 0 
L 9.078125 0 
L 9.078125 54.6875 
L 18.109375 54.6875 
L 18.109375 46.1875 
Q 21.1875 51.21875 25.484375 53.609375 
Q 29.78125 56 35.6875 56 
Q 41.65625 56 45.828125 52.96875 
Q 50 49.953125 52 44.1875 
z
" id="DejaVuSans-109"/>
     <path d="M 9.421875 75.984375 
L 18.40625 75.984375 
L 18.40625 0 
L 9.421875 0 
z
" id="DejaVuSans-108"/>
    </defs>
    <g transform="translate(263.039688 20.88)scale(0.12 -0.12)">
     <use xlink:href="#DejaVuSans-80"/>
     <use x="60.287109" xlink:href="#DejaVuSans-114"/>
     <use x="101.369141" xlink:href="#DejaVuSans-111"/>
     <use x="162.550781" xlink:href="#DejaVuSans-112"/>
     <use x="226.027344" xlink:href="#DejaVuSans-111"/>
     <use x="287.208984" xlink:href="#DejaVuSans-114"/>
     <use x="328.291016" xlink:href="#DejaVuSans-99"/>
     <use x="383.271484" xlink:href="#DejaVuSans-97"/>
     <use x="444.550781" xlink:href="#DejaVuSans-111"/>
     <use x="505.732422" xlink:href="#DejaVuSans-32"/>
     <use x="537.519531" xlink:href="#DejaVuSans-100"/>
     <use x="600.996094" xlink:href="#DejaVuSans-101"/>
     <use x="662.519531" xlink:href="#DejaVuSans-32"/>
     <use x="694.306641" xlink:href="#DejaVuSans-103"/>
     <use x="757.783203" xlink:href="#DejaVuSans-101"/>
     <use x="819.306641" xlink:href="#DejaVuSans-110"/>
     <use x="882.685547" xlink:href="#DejaVuSans-101"/>
     <use x="944.208984" xlink:href="#DejaVuSans-114"/>
     <use x="985.291016" xlink:href="#DejaVuSans-111"/>
     <use x="1046.472656" xlink:href="#DejaVuSans-32"/>
     <use x="1078.259766" xlink:href="#DejaVuSans-101"/>
     <use x="1139.783203" xlink:href="#DejaVuSans-109"/>
     <use x="1237.195312" xlink:href="#DejaVuSans-32"/>
     <use x="1268.982422" xlink:href="#DejaVuSans-80"/>
     <use x="1329.222656" xlink:href="#DejaVuSans-97"/>
     <use x="1390.501953" xlink:href="#DejaVuSans-114"/>
     <use x="1431.615234" xlink:href="#DejaVuSans-116"/>
     <use x="1470.824219" xlink:href="#DejaVuSans-105"/>
     <use x="1498.607422" xlink:href="#DejaVuSans-100"/>
     <use x="1562.083984" xlink:href="#DejaVuSans-111"/>
     <use x="1623.265625" xlink:href="#DejaVuSans-115"/>
     <use x="1675.365234" xlink:href="#DejaVuSans-32"/>
     <use x="1707.152344" xlink:href="#DejaVuSans-80"/>
     <use x="1767.408203" xlink:href="#DejaVuSans-111"/>
     <use x="1828.589844" xlink:href="#DejaVuSans-108"/>
     <use x="1856.373047" xlink:href="#DejaVuSans-105"/>
     <use x="1884.15625" xlink:href="#DejaVuSans-116"/>
     <use x="1923.365234" xlink:href="#DejaVuSans-105"/>
     <use x="1951.148438" xlink:href="#DejaVuSans-99"/>
     <use x="2006.128906" xlink:href="#DejaVuSans-111"/>
     <use x="2067.310547" xlink:href="#DejaVuSans-115"/>
    </g>
   </g>
   <g id="legend_1">
    <g id="patch_120">
     <path d="M 580.08625 78.914375 
L 699.68 78.914375 
Q 701.68 78.914375 701.68 76.914375 
L 701.68 33.88 
Q 701.68 31.88 699.68 31.88 
L 580.08625 31.88 
Q 578.08625 31.88 578.08625 33.88 
L 578.08625 76.914375 
Q 578.08625 78.914375 580.08625 78.914375 
z
" style="fill:#ffffff;opacity:0.8;stroke:#cccccc;stroke-linejoin:miter;"/>
    </g>
    <g id="patch_121">
     <path d="M 582.08625 43.478437 
L 602.08625 43.478437 
L 602.08625 36.478437 
L 582.08625 36.478437 
z
" style="fill:#ff0000;opacity:0.7;"/>
    </g>
    <g id="text_52">
     <!-- Mulheres -->
     <defs>
      <path d="M 8.5 21.578125 
L 8.5 54.6875 
L 17.484375 54.6875 
L 17.484375 21.921875 
Q 17.484375 14.15625 20.5 10.265625 
Q 23.53125 6.390625 29.59375 6.390625 
Q 36.859375 6.390625 41.078125 11.03125 
Q 45.3125 15.671875 45.3125 23.6875 
L 45.3125 54.6875 
L 54.296875 54.6875 
L 54.296875 0 
L 45.3125 0 
L 45.3125 8.40625 
Q 42.046875 3.421875 37.71875 1 
Q 33.40625 -1.421875 27.6875 -1.421875 
Q 18.265625 -1.421875 13.375 4.4375 
Q 8.5 10.296875 8.5 21.578125 
z
M 31.109375 56 
z
" id="DejaVuSans-117"/>
      <path d="M 54.890625 33.015625 
L 54.890625 0 
L 45.90625 0 
L 45.90625 32.71875 
Q 45.90625 40.484375 42.875 44.328125 
Q 39.84375 48.1875 33.796875 48.1875 
Q 26.515625 48.1875 22.3125 43.546875 
Q 18.109375 38.921875 18.109375 30.90625 
L 18.109375 0 
L 9.078125 0 
L 9.078125 75.984375 
L 18.109375 75.984375 
L 18.109375 46.1875 
Q 21.34375 51.125 25.703125 53.5625 
Q 30.078125 56 35.796875 56 
Q 45.21875 56 50.046875 50.171875 
Q 54.890625 44.34375 54.890625 33.015625 
z
" id="DejaVuSans-104"/>
     </defs>
     <g transform="translate(610.08625 43.478437)scale(0.1 -0.1)">
      <use xlink:href="#DejaVuSans-77"/>
      <use x="86.279297" xlink:href="#DejaVuSans-117"/>
      <use x="149.658203" xlink:href="#DejaVuSans-108"/>
      <use x="177.441406" xlink:href="#DejaVuSans-104"/>
      <use x="240.820312" xlink:href="#DejaVuSans-101"/>
      <use x="302.34375" xlink:href="#DejaVuSans-114"/>
      <use x="343.425781" xlink:href="#DejaVuSans-101"/>
      <use x="404.949219" xlink:href="#DejaVuSans-115"/>
     </g>
    </g>
    <g id="patch_122">
     <path d="M 582.08625 58.156562 
L 602.08625 58.156562 
L 602.08625 51.156562 
L 582.08625 51.156562 
z
" style="fill:#0000ff;opacity:0.7;"/>
    </g>
    <g id="text_53">
     <!-- Homens -->
     <g transform="translate(610.08625 58.156562)scale(0.1 -0.1)">
      <use xlink:href="#DejaVuSans-72"/>
      <use x="75.195312" xlink:href="#DejaVuSans-111"/>
      <use x="136.376953" xlink:href="#DejaVuSans-109"/>
      <use x="233.789062" xlink:href="#DejaVuSans-101"/>
      <use x="295.3125" xlink:href="#DejaVuSans-110"/>
      <use x="358.691406" xlink:href="#DejaVuSans-115"/>
     </g>
    </g>
    <g id="patch_123">
     <path d="M 582.08625 72.834687 
L 602.08625 72.834687 
L 602.08625 65.834687 
L 582.08625 65.834687 
z
" style="fill:#bfbf00;opacity:0.7;"/>
    </g>
    <g id="text_54">
     <!-- Nao Classificados -->
     <defs>
      <path d="M 37.109375 75.984375 
L 37.109375 68.5 
L 28.515625 68.5 
Q 23.6875 68.5 21.796875 66.546875 
Q 19.921875 64.59375 19.921875 59.515625 
L 19.921875 54.6875 
L 34.71875 54.6875 
L 34.71875 47.703125 
L 19.921875 47.703125 
L 19.921875 0 
L 10.890625 0 
L 10.890625 47.703125 
L 2.296875 47.703125 
L 2.296875 54.6875 
L 10.890625 54.6875 
L 10.890625 58.5 
Q 10.890625 67.625 15.140625 71.796875 
Q 19.390625 75.984375 28.609375 75.984375 
z
" id="DejaVuSans-102"/>
     </defs>
     <g transform="translate(610.08625 72.834687)scale(0.1 -0.1)">
      <use xlink:href="#DejaVuSans-78"/>
      <use x="74.804688" xlink:href="#DejaVuSans-97"/>
      <use x="136.083984" xlink:href="#DejaVuSans-111"/>
      <use x="197.265625" xlink:href="#DejaVuSans-32"/>
      <use x="229.052734" xlink:href="#DejaVuSans-67"/>
      <use x="298.876953" xlink:href="#DejaVuSans-108"/>
      <use x="326.660156" xlink:href="#DejaVuSans-97"/>
      <use x="387.939453" xlink:href="#DejaVuSans-115"/>
      <use x="440.039062" xlink:href="#DejaVuSans-115"/>
      <use x="492.138672" xlink:href="#DejaVuSans-105"/>
      <use x="519.921875" xlink:href="#DejaVuSans-102"/>
      <use x="555.126953" xlink:href="#DejaVuSans-105"/>
      <use x="582.910156" xlink:href="#DejaVuSans-99"/>
      <use x="637.890625" xlink:href="#DejaVuSans-97"/>
      <use x="699.169922" xlink:href="#DejaVuSans-100"/>
      <use x="762.646484" xlink:href="#DejaVuSans-111"/>
      <use x="823.828125" xlink:href="#DejaVuSans-115"/>
     </g>
    </g>
   </g>
  </g>
 </g>
 <defs>
  <clipPath id="p61f769cda9">
   <rect height="1011.16" width="632.95" x="73.73" y="26.88"/>
  </clipPath>
 </defs>
</svg>
