<?xml version="1.0" encoding="utf-8" standalone="no"?>
<!DOCTYPE svg PUBLIC "-//W3C//DTD SVG 1.1//EN"
  "http://www.w3.org/Graphics/SVG/1.1/DTD/svg11.dtd">
<!-- Created with matplotlib (https://matplotlib.org/) -->
<svg height="1080pt" version="1.1" viewBox="0 0 720 1080" width="720pt" xmlns="http://www.w3.org/2000/svg" xmlns:xlink="http://www.w3.org/1999/xlink">
 <defs>
  <style type="text/css">
*{stroke-linecap:butt;stroke-linejoin:round;}
  </style>
 </defs>
 <g id="figure_1">
  <g id="patch_1">
   <path d="M 0 1080 
L 720 1080 
L 720 0 
L 0 0 
z
" style="fill:#ffffff;"/>
  </g>
  <g id="axes_1">
   <g id="patch_2">
    <path d="M 73.73 1038.04 
L 701.28 1038.04 
L 701.28 26.88 
L 73.73 26.88 
z
" style="fill:#ffffff;"/>
   </g>
   <g id="PathCollection_1">
    <path clip-path="url(#p2148b15770)" d="M 113.558949 998.9972 
C 115.434218 998.9972 117.232934 998.252148 118.558949 996.926132 
C 119.884965 995.600117 120.630017 993.801401 120.630017 991.926132 
C 120.630017 990.050863 119.884965 988.252148 118.558949 986.926132 
C 117.232934 985.600117 115.434218 984.855065 113.558949 984.855065 
C 111.68368 984.855065 109.884965 985.600117 108.558949 986.926132 
C 107.232934 988.252148 106.487881 990.050863 106.487881 991.926132 
C 106.487881 993.801401 107.232934 995.600117 108.558949 996.926132 
C 109.884965 998.252148 111.68368 998.9972 113.558949 998.9972 
z
" style="fill:#ff0000;fill-opacity:0.7;stroke:#ff0000;stroke-opacity:0.7;"/>
    <path clip-path="url(#p2148b15770)" d="M 290.688077 974.161193 
C 292.563346 974.161193 294.362062 973.416141 295.688077 972.090125 
C 297.014093 970.76411 297.759145 968.965394 297.759145 967.090125 
C 297.759145 965.214856 297.014093 963.416141 295.688077 962.090125 
C 294.362062 960.76411 292.563346 960.019057 290.688077 960.019057 
C 288.812808 960.019057 287.014093 960.76411 285.688077 962.090125 
C 284.362062 963.416141 283.617009 965.214856 283.617009 967.090125 
C 283.617009 968.965394 284.362062 970.76411 285.688077 972.090125 
C 287.014093 973.416141 288.812808 974.161193 290.688077 974.161193 
z
" style="fill:#ff0000;fill-opacity:0.7;stroke:#ff0000;stroke-opacity:0.7;"/>
    <path clip-path="url(#p2148b15770)" d="M 304.130129 949.325186 
C 306.005398 949.325186 307.804114 948.580134 309.130129 947.254118 
C 310.456145 945.928103 311.201197 944.129387 311.201197 942.254118 
C 311.201197 940.378849 310.456145 938.580134 309.130129 937.254118 
C 307.804114 935.928103 306.005398 935.18305 304.130129 935.18305 
C 302.25486 935.18305 300.456145 935.928103 299.130129 937.254118 
C 297.804114 938.580134 297.059061 940.378849 297.059061 942.254118 
C 297.059061 944.129387 297.804114 945.928103 299.130129 947.254118 
C 300.456145 948.580134 302.25486 949.325186 304.130129 949.325186 
z
" style="fill:#ff0000;fill-opacity:0.7;stroke:#ff0000;stroke-opacity:0.7;"/>
    <path clip-path="url(#p2148b15770)" d="M 306.430047 924.489179 
C 308.305316 924.489179 310.104031 923.744126 311.430047 922.418111 
C 312.756062 921.092095 313.501115 919.29338 313.501115 917.418111 
C 313.501115 915.542842 312.756062 913.744126 311.430047 912.418111 
C 310.104031 911.092095 308.305316 910.347043 306.430047 910.347043 
C 304.554778 910.347043 302.756062 911.092095 301.430047 912.418111 
C 300.104031 913.744126 299.358979 915.542842 299.358979 917.418111 
C 299.358979 919.29338 300.104031 921.092095 301.430047 922.418111 
C 302.756062 923.744126 304.554778 924.489179 306.430047 924.489179 
z
" style="fill:#ff0000;fill-opacity:0.7;stroke:#ff0000;stroke-opacity:0.7;"/>
    <path clip-path="url(#p2148b15770)" d="M 312.672147 899.653172 
C 314.547417 899.653172 316.346132 898.908119 317.672147 897.582104 
C 318.998163 896.256088 319.743215 894.457373 319.743215 892.582104 
C 319.743215 890.706835 318.998163 888.908119 317.672147 887.582104 
C 316.346132 886.256088 314.547417 885.511036 312.672147 885.511036 
C 310.796878 885.511036 308.998163 886.256088 307.672147 887.582104 
C 306.346132 888.908119 305.60108 890.706835 305.60108 892.582104 
C 305.60108 894.457373 306.346132 896.256088 307.672147 897.582104 
C 308.998163 898.908119 310.796878 899.653172 312.672147 899.653172 
z
" style="fill:#ff0000;fill-opacity:0.7;stroke:#ff0000;stroke-opacity:0.7;"/>
    <path clip-path="url(#p2148b15770)" d="M 321.501329 874.817164 
C 323.376598 874.817164 325.175314 874.072112 326.501329 872.746097 
C 327.827345 871.420081 328.572397 869.621366 328.572397 867.746097 
C 328.572397 865.870828 327.827345 864.072112 326.501329 862.746097 
C 325.175314 861.420081 323.376598 860.675029 321.501329 860.675029 
C 319.62606 860.675029 317.827345 861.420081 316.501329 862.746097 
C 315.175314 864.072112 314.430261 865.870828 314.430261 867.746097 
C 314.430261 869.621366 315.175314 871.420081 316.501329 872.746097 
C 317.827345 874.072112 319.62606 874.817164 321.501329 874.817164 
z
" style="fill:#ff0000;fill-opacity:0.7;stroke:#ff0000;stroke-opacity:0.7;"/>
    <path clip-path="url(#p2148b15770)" d="M 322.971857 849.981157 
C 324.847127 849.981157 326.645842 849.236105 327.971857 847.910089 
C 329.297873 846.584074 330.042925 844.785359 330.042925 842.910089 
C 330.042925 841.03482 329.297873 839.236105 327.971857 837.910089 
C 326.645842 836.584074 324.847127 835.839022 322.971857 835.839022 
C 321.096588 835.839022 319.297873 836.584074 317.971857 837.910089 
C 316.645842 839.236105 315.90079 841.03482 315.90079 842.910089 
C 315.90079 844.785359 316.645842 846.584074 317.971857 847.910089 
C 319.297873 849.236105 321.096588 849.981157 322.971857 849.981157 
z
" style="fill:#ff0000;fill-opacity:0.7;stroke:#ff0000;stroke-opacity:0.7;"/>
    <path clip-path="url(#p2148b15770)" d="M 323.353146 825.14515 
C 325.228415 825.14515 327.027131 824.400098 328.353146 823.074082 
C 329.679162 821.748067 330.424214 819.949351 330.424214 818.074082 
C 330.424214 816.198813 329.679162 814.400098 328.353146 813.074082 
C 327.027131 811.748067 325.228415 811.003014 323.353146 811.003014 
C 321.477877 811.003014 319.679162 811.748067 318.353146 813.074082 
C 317.027131 814.400098 316.282078 816.198813 316.282078 818.074082 
C 316.282078 819.949351 317.027131 821.748067 318.353146 823.074082 
C 319.679162 824.400098 321.477877 825.14515 323.353146 825.14515 
z
" style="fill:#ff0000;fill-opacity:0.7;stroke:#ff0000;stroke-opacity:0.7;"/>
    <path clip-path="url(#p2148b15770)" d="M 325.048943 800.309143 
C 326.924212 800.309143 328.722927 799.564091 330.048943 798.238075 
C 331.374958 796.91206 332.120011 795.113344 332.120011 793.238075 
C 332.120011 791.362806 331.374958 789.564091 330.048943 788.238075 
C 328.722927 786.91206 326.924212 786.167007 325.048943 786.167007 
C 323.173674 786.167007 321.374958 786.91206 320.048943 788.238075 
C 318.722927 789.564091 317.977875 791.362806 317.977875 793.238075 
C 317.977875 795.113344 318.722927 796.91206 320.048943 798.238075 
C 321.374958 799.564091 323.173674 800.309143 325.048943 800.309143 
z
" style="fill:#ff0000;fill-opacity:0.7;stroke:#ff0000;stroke-opacity:0.7;"/>
    <path clip-path="url(#p2148b15770)" d="M 331.217229 775.473136 
C 333.092498 775.473136 334.891213 774.728083 336.217229 773.402068 
C 337.543244 772.076052 338.288297 770.277337 338.288297 768.402068 
C 338.288297 766.526799 337.543244 764.728083 336.217229 763.402068 
C 334.891213 762.076052 333.092498 761.331 331.217229 761.331 
C 329.34196 761.331 327.543244 762.076052 326.217229 763.402068 
C 324.891213 764.728083 324.146161 766.526799 324.146161 768.402068 
C 324.146161 770.277337 324.891213 772.076052 326.217229 773.402068 
C 327.543244 774.728083 329.34196 775.473136 331.217229 775.473136 
z
" style="fill:#ff0000;fill-opacity:0.7;stroke:#ff0000;stroke-opacity:0.7;"/>
    <path clip-path="url(#p2148b15770)" d="M 331.632315 750.637129 
C 333.507584 750.637129 335.306299 749.892076 336.632315 748.566061 
C 337.95833 747.240045 338.703383 745.44133 338.703383 743.566061 
C 338.703383 741.690792 337.95833 739.892076 336.632315 738.566061 
C 335.306299 737.240045 333.507584 736.494993 331.632315 736.494993 
C 329.757046 736.494993 327.95833 737.240045 326.632315 738.566061 
C 325.306299 739.892076 324.561247 741.690792 324.561247 743.566061 
C 324.561247 745.44133 325.306299 747.240045 326.632315 748.566061 
C 327.95833 749.892076 329.757046 750.637129 331.632315 750.637129 
z
" style="fill:#ff0000;fill-opacity:0.7;stroke:#ff0000;stroke-opacity:0.7;"/>
    <path clip-path="url(#p2148b15770)" d="M 334.766365 725.801121 
C 336.641634 725.801121 338.440349 725.056069 339.766365 723.730054 
C 341.09238 722.404038 341.837432 720.605323 341.837432 718.730054 
C 341.837432 716.854785 341.09238 715.056069 339.766365 713.730054 
C 338.440349 712.404038 336.641634 711.658986 334.766365 711.658986 
C 332.891096 711.658986 331.09238 712.404038 329.766365 713.730054 
C 328.440349 715.056069 327.695297 716.854785 327.695297 718.730054 
C 327.695297 720.605323 328.440349 722.404038 329.766365 723.730054 
C 331.09238 725.056069 332.891096 725.801121 334.766365 725.801121 
z
" style="fill:#ff0000;fill-opacity:0.7;stroke:#ff0000;stroke-opacity:0.7;"/>
    <path clip-path="url(#p2148b15770)" d="M 336.248711 700.965114 
C 338.12398 700.965114 339.922696 700.220062 341.248711 698.894047 
C 342.574727 697.568031 343.319779 695.769316 343.319779 693.894047 
C 343.319779 692.018777 342.574727 690.220062 341.248711 688.894047 
C 339.922696 687.568031 338.12398 686.822979 336.248711 686.822979 
C 334.373442 686.822979 332.574727 687.568031 331.248711 688.894047 
C 329.922696 690.220062 329.177643 692.018777 329.177643 693.894047 
C 329.177643 695.769316 329.922696 697.568031 331.248711 698.894047 
C 332.574727 700.220062 334.373442 700.965114 336.248711 700.965114 
z
" style="fill:#ff0000;fill-opacity:0.7;stroke:#ff0000;stroke-opacity:0.7;"/>
    <path clip-path="url(#p2148b15770)" d="M 336.405232 676.129107 
C 338.280501 676.129107 340.079217 675.384055 341.405232 674.058039 
C 342.731248 672.732024 343.4763 670.933308 343.4763 669.058039 
C 343.4763 667.18277 342.731248 665.384055 341.405232 664.058039 
C 340.079217 662.732024 338.280501 661.986972 336.405232 661.986972 
C 334.529963 661.986972 332.731248 662.732024 331.405232 664.058039 
C 330.079217 665.384055 329.334164 667.18277 329.334164 669.058039 
C 329.334164 670.933308 330.079217 672.732024 331.405232 674.058039 
C 332.731248 675.384055 334.529963 676.129107 336.405232 676.129107 
z
" style="fill:#ff0000;fill-opacity:0.7;stroke:#ff0000;stroke-opacity:0.7;"/>
    <path clip-path="url(#p2148b15770)" d="M 339.137335 651.2931 
C 341.012604 651.2931 342.811319 650.548048 344.137335 649.222032 
C 345.46335 647.896017 346.208403 646.097301 346.208403 644.222032 
C 346.208403 642.346763 345.46335 640.548048 344.137335 639.222032 
C 342.811319 637.896017 341.012604 637.150964 339.137335 637.150964 
C 337.262066 637.150964 335.46335 637.896017 334.137335 639.222032 
C 332.811319 640.548048 332.066267 642.346763 332.066267 644.222032 
C 332.066267 646.097301 332.811319 647.896017 334.137335 649.222032 
C 335.46335 650.548048 337.262066 651.2931 339.137335 651.2931 
z
" style="fill:#ff0000;fill-opacity:0.7;stroke:#ff0000;stroke-opacity:0.7;"/>
    <path clip-path="url(#p2148b15770)" d="M 339.352013 626.457093 
C 341.227282 626.457093 343.025997 625.712041 344.352013 624.386025 
C 345.678028 623.06001 346.42308 621.261294 346.42308 619.386025 
C 346.42308 617.510756 345.678028 615.712041 344.352013 614.386025 
C 343.025997 613.06001 341.227282 612.314957 339.352013 612.314957 
C 337.476743 612.314957 335.678028 613.06001 334.352013 614.386025 
C 333.025997 615.712041 332.280945 617.510756 332.280945 619.386025 
C 332.280945 621.261294 333.025997 623.06001 334.352013 624.386025 
C 335.678028 625.712041 337.476743 626.457093 339.352013 626.457093 
z
" style="fill:#ff0000;fill-opacity:0.7;stroke:#ff0000;stroke-opacity:0.7;"/>
    <path clip-path="url(#p2148b15770)" d="M 341.564338 601.621086 
C 343.439607 601.621086 345.238322 600.876033 346.564338 599.550018 
C 347.890353 598.224002 348.635405 596.425287 348.635405 594.550018 
C 348.635405 592.674749 347.890353 590.876033 346.564338 589.550018 
C 345.238322 588.224002 343.439607 587.47895 341.564338 587.47895 
C 339.689069 587.47895 337.890353 588.224002 336.564338 589.550018 
C 335.238322 590.876033 334.49327 592.674749 334.49327 594.550018 
C 334.49327 596.425287 335.238322 598.224002 336.564338 599.550018 
C 337.890353 600.876033 339.689069 601.621086 341.564338 601.621086 
z
" style="fill:#ff0000;fill-opacity:0.7;stroke:#ff0000;stroke-opacity:0.7;"/>
    <path clip-path="url(#p2148b15770)" d="M 342.394715 576.785079 
C 344.269984 576.785079 346.068699 576.040026 347.394715 574.714011 
C 348.72073 573.387995 349.465782 571.58928 349.465782 569.714011 
C 349.465782 567.838742 348.72073 566.040026 347.394715 564.714011 
C 346.068699 563.387995 344.269984 562.642943 342.394715 562.642943 
C 340.519445 562.642943 338.72073 563.387995 337.394715 564.714011 
C 336.068699 566.040026 335.323647 567.838742 335.323647 569.714011 
C 335.323647 571.58928 336.068699 573.387995 337.394715 574.714011 
C 338.72073 576.040026 340.519445 576.785079 342.394715 576.785079 
z
" style="fill:#ff0000;fill-opacity:0.7;stroke:#ff0000;stroke-opacity:0.7;"/>
    <path clip-path="url(#p2148b15770)" d="M 345.312303 551.949071 
C 347.187572 551.949071 348.986287 551.204019 350.312303 549.878004 
C 351.638318 548.551988 352.38337 546.753273 352.38337 544.878004 
C 352.38337 543.002734 351.638318 541.204019 350.312303 539.878004 
C 348.986287 538.551988 347.187572 537.806936 345.312303 537.806936 
C 343.437034 537.806936 341.638318 538.551988 340.312303 539.878004 
C 338.986287 541.204019 338.241235 543.002734 338.241235 544.878004 
C 338.241235 546.753273 338.986287 548.551988 340.312303 549.878004 
C 341.638318 551.204019 343.437034 551.949071 345.312303 551.949071 
z
" style="fill:#ff0000;fill-opacity:0.7;stroke:#ff0000;stroke-opacity:0.7;"/>
    <path clip-path="url(#p2148b15770)" d="M 345.337959 527.113064 
C 347.213228 527.113064 349.011943 526.368012 350.337959 525.041996 
C 351.663974 523.715981 352.409027 521.917266 352.409027 520.041996 
C 352.409027 518.166727 351.663974 516.368012 350.337959 515.041996 
C 349.011943 513.715981 347.213228 512.970929 345.337959 512.970929 
C 343.46269 512.970929 341.663974 513.715981 340.337959 515.041996 
C 339.011943 516.368012 338.266891 518.166727 338.266891 520.041996 
C 338.266891 521.917266 339.011943 523.715981 340.337959 525.041996 
C 341.663974 526.368012 343.46269 527.113064 345.337959 527.113064 
z
" style="fill:#ff0000;fill-opacity:0.7;stroke:#ff0000;stroke-opacity:0.7;"/>
    <path clip-path="url(#p2148b15770)" d="M 345.368147 502.277057 
C 347.243416 502.277057 349.042132 501.532005 350.368147 500.205989 
C 351.694163 498.879974 352.439215 497.081258 352.439215 495.205989 
C 352.439215 493.33072 351.694163 491.532005 350.368147 490.205989 
C 349.042132 488.879974 347.243416 488.134921 345.368147 488.134921 
C 343.492878 488.134921 341.694163 488.879974 340.368147 490.205989 
C 339.042132 491.532005 338.29708 493.33072 338.29708 495.205989 
C 338.29708 497.081258 339.042132 498.879974 340.368147 500.205989 
C 341.694163 501.532005 343.492878 502.277057 345.368147 502.277057 
z
" style="fill:#ff0000;fill-opacity:0.7;stroke:#ff0000;stroke-opacity:0.7;"/>
    <path clip-path="url(#p2148b15770)" d="M 345.655679 477.44105 
C 347.530948 477.44105 349.329663 476.695998 350.655679 475.369982 
C 351.981694 474.043967 352.726747 472.245251 352.726747 470.369982 
C 352.726747 468.494713 351.981694 466.695998 350.655679 465.369982 
C 349.329663 464.043967 347.530948 463.298914 345.655679 463.298914 
C 343.78041 463.298914 341.981694 464.043967 340.655679 465.369982 
C 339.329663 466.695998 338.584611 468.494713 338.584611 470.369982 
C 338.584611 472.245251 339.329663 474.043967 340.655679 475.369982 
C 341.981694 476.695998 343.78041 477.44105 345.655679 477.44105 
z
" style="fill:#ff0000;fill-opacity:0.7;stroke:#ff0000;stroke-opacity:0.7;"/>
    <path clip-path="url(#p2148b15770)" d="M 345.772661 452.605043 
C 347.64793 452.605043 349.446645 451.85999 350.772661 450.533975 
C 352.098676 449.207959 352.843729 447.409244 352.843729 445.533975 
C 352.843729 443.658706 352.098676 441.85999 350.772661 440.533975 
C 349.446645 439.207959 347.64793 438.462907 345.772661 438.462907 
C 343.897392 438.462907 342.098676 439.207959 340.772661 440.533975 
C 339.446645 441.85999 338.701593 443.658706 338.701593 445.533975 
C 338.701593 447.409244 339.446645 449.207959 340.772661 450.533975 
C 342.098676 451.85999 343.897392 452.605043 345.772661 452.605043 
z
" style="fill:#ff0000;fill-opacity:0.7;stroke:#ff0000;stroke-opacity:0.7;"/>
    <path clip-path="url(#p2148b15770)" d="M 346.352224 427.769036 
C 348.227493 427.769036 350.026208 427.023983 351.352224 425.697968 
C 352.678239 424.371952 353.423292 422.573237 353.423292 420.697968 
C 353.423292 418.822699 352.678239 417.023983 351.352224 415.697968 
C 350.026208 414.371952 348.227493 413.6269 346.352224 413.6269 
C 344.476955 413.6269 342.678239 414.371952 341.352224 415.697968 
C 340.026208 417.023983 339.281156 418.822699 339.281156 420.697968 
C 339.281156 422.573237 340.026208 424.371952 341.352224 425.697968 
C 342.678239 427.023983 344.476955 427.769036 346.352224 427.769036 
z
" style="fill:#ff0000;fill-opacity:0.7;stroke:#ff0000;stroke-opacity:0.7;"/>
    <path clip-path="url(#p2148b15770)" d="M 346.446492 402.933028 
C 348.321761 402.933028 350.120476 402.187976 351.446492 400.861961 
C 352.772507 399.535945 353.51756 397.73723 353.51756 395.861961 
C 353.51756 393.986692 352.772507 392.187976 351.446492 390.861961 
C 350.120476 389.535945 348.321761 388.790893 346.446492 388.790893 
C 344.571223 388.790893 342.772507 389.535945 341.446492 390.861961 
C 340.120476 392.187976 339.375424 393.986692 339.375424 395.861961 
C 339.375424 397.73723 340.120476 399.535945 341.446492 400.861961 
C 342.772507 402.187976 344.571223 402.933028 346.446492 402.933028 
z
" style="fill:#ff0000;fill-opacity:0.7;stroke:#ff0000;stroke-opacity:0.7;"/>
    <path clip-path="url(#p2148b15770)" d="M 347.315366 378.097021 
C 349.190635 378.097021 350.98935 377.351969 352.315366 376.025953 
C 353.641381 374.699938 354.386434 372.901223 354.386434 371.025953 
C 354.386434 369.150684 353.641381 367.351969 352.315366 366.025953 
C 350.98935 364.699938 349.190635 363.954886 347.315366 363.954886 
C 345.440097 363.954886 343.641381 364.699938 342.315366 366.025953 
C 340.98935 367.351969 340.244298 369.150684 340.244298 371.025953 
C 340.244298 372.901223 340.98935 374.699938 342.315366 376.025953 
C 343.641381 377.351969 345.440097 378.097021 347.315366 378.097021 
z
" style="fill:#ff0000;fill-opacity:0.7;stroke:#ff0000;stroke-opacity:0.7;"/>
    <path clip-path="url(#p2148b15770)" d="M 347.589338 353.261014 
C 349.464607 353.261014 351.263322 352.515962 352.589338 351.189946 
C 353.915353 349.863931 354.660406 348.065215 354.660406 346.189946 
C 354.660406 344.314677 353.915353 342.515962 352.589338 341.189946 
C 351.263322 339.863931 349.464607 339.118879 347.589338 339.118879 
C 345.714069 339.118879 343.915353 339.863931 342.589338 341.189946 
C 341.263322 342.515962 340.51827 344.314677 340.51827 346.189946 
C 340.51827 348.065215 341.263322 349.863931 342.589338 351.189946 
C 343.915353 352.515962 345.714069 353.261014 347.589338 353.261014 
z
" style="fill:#ff0000;fill-opacity:0.7;stroke:#ff0000;stroke-opacity:0.7;"/>
    <path clip-path="url(#p2148b15770)" d="M 348.736776 328.425007 
C 350.612045 328.425007 352.41076 327.679955 353.736776 326.353939 
C 355.062791 325.027924 355.807844 323.229208 355.807844 321.353939 
C 355.807844 319.47867 355.062791 317.679955 353.736776 316.353939 
C 352.41076 315.027924 350.612045 314.282871 348.736776 314.282871 
C 346.861507 314.282871 345.062791 315.027924 343.736776 316.353939 
C 342.41076 317.679955 341.665708 319.47867 341.665708 321.353939 
C 341.665708 323.229208 342.41076 325.027924 343.736776 326.353939 
C 345.062791 327.679955 346.861507 328.425007 348.736776 328.425007 
z
" style="fill:#ff0000;fill-opacity:0.7;stroke:#ff0000;stroke-opacity:0.7;"/>
    <path clip-path="url(#p2148b15770)" d="M 348.831728 303.589 
C 350.706997 303.589 352.505712 302.843948 353.831728 301.517932 
C 355.157743 300.191917 355.902796 298.393201 355.902796 296.517932 
C 355.902796 294.642663 355.157743 292.843948 353.831728 291.517932 
C 352.505712 290.191917 350.706997 289.446864 348.831728 289.446864 
C 346.956459 289.446864 345.157743 290.191917 343.831728 291.517932 
C 342.505712 292.843948 341.76066 294.642663 341.76066 296.517932 
C 341.76066 298.393201 342.505712 300.191917 343.831728 301.517932 
C 345.157743 302.843948 346.956459 303.589 348.831728 303.589 
z
" style="fill:#ff0000;fill-opacity:0.7;stroke:#ff0000;stroke-opacity:0.7;"/>
    <path clip-path="url(#p2148b15770)" d="M 349.020752 278.752993 
C 350.896022 278.752993 352.694737 278.00794 354.020752 276.681925 
C 355.346768 275.355909 356.09182 273.557194 356.09182 271.681925 
C 356.09182 269.806656 355.346768 268.00794 354.020752 266.681925 
C 352.694737 265.355909 350.896022 264.610857 349.020752 264.610857 
C 347.145483 264.610857 345.346768 265.355909 344.020752 266.681925 
C 342.694737 268.00794 341.949685 269.806656 341.949685 271.681925 
C 341.949685 273.557194 342.694737 275.355909 344.020752 276.681925 
C 345.346768 278.00794 347.145483 278.752993 349.020752 278.752993 
z
" style="fill:#ff0000;fill-opacity:0.7;stroke:#ff0000;stroke-opacity:0.7;"/>
    <path clip-path="url(#p2148b15770)" d="M 349.505338 253.916986 
C 351.380607 253.916986 353.179323 253.171933 354.505338 251.845918 
C 355.831354 250.519902 356.576406 248.721187 356.576406 246.845918 
C 356.576406 244.970649 355.831354 243.171933 354.505338 241.845918 
C 353.179323 240.519902 351.380607 239.77485 349.505338 239.77485 
C 347.630069 239.77485 345.831354 240.519902 344.505338 241.845918 
C 343.179323 243.171933 342.43427 244.970649 342.43427 246.845918 
C 342.43427 248.721187 343.179323 250.519902 344.505338 251.845918 
C 345.831354 253.171933 347.630069 253.916986 349.505338 253.916986 
z
" style="fill:#ff0000;fill-opacity:0.7;stroke:#ff0000;stroke-opacity:0.7;"/>
    <path clip-path="url(#p2148b15770)" d="M 349.519326 229.080978 
C 351.394595 229.080978 353.19331 228.335926 354.519326 227.009911 
C 355.845341 225.683895 356.590393 223.88518 356.590393 222.009911 
C 356.590393 220.134641 355.845341 218.335926 354.519326 217.009911 
C 353.19331 215.683895 351.394595 214.938843 349.519326 214.938843 
C 347.644057 214.938843 345.845341 215.683895 344.519326 217.009911 
C 343.19331 218.335926 342.448258 220.134641 342.448258 222.009911 
C 342.448258 223.88518 343.19331 225.683895 344.519326 227.009911 
C 345.845341 228.335926 347.644057 229.080978 349.519326 229.080978 
z
" style="fill:#ff0000;fill-opacity:0.7;stroke:#ff0000;stroke-opacity:0.7;"/>
    <path clip-path="url(#p2148b15770)" d="M 350.382092 204.244971 
C 352.257361 204.244971 354.056077 203.499919 355.382092 202.173903 
C 356.708108 200.847888 357.45316 199.049172 357.45316 197.173903 
C 357.45316 195.298634 356.708108 193.499919 355.382092 192.173903 
C 354.056077 190.847888 352.257361 190.102836 350.382092 190.102836 
C 348.506823 190.102836 346.708108 190.847888 345.382092 192.173903 
C 344.056077 193.499919 343.311024 195.298634 343.311024 197.173903 
C 343.311024 199.049172 344.056077 200.847888 345.382092 202.173903 
C 346.708108 203.499919 348.506823 204.244971 350.382092 204.244971 
z
" style="fill:#ff0000;fill-opacity:0.7;stroke:#ff0000;stroke-opacity:0.7;"/>
    <path clip-path="url(#p2148b15770)" d="M 351.086326 179.408964 
C 352.961595 179.408964 354.76031 178.663912 356.086326 177.337896 
C 357.412341 176.011881 358.157393 174.213165 358.157393 172.337896 
C 358.157393 170.462627 357.412341 168.663912 356.086326 167.337896 
C 354.76031 166.011881 352.961595 165.266828 351.086326 165.266828 
C 349.211056 165.266828 347.412341 166.011881 346.086326 167.337896 
C 344.76031 168.663912 344.015258 170.462627 344.015258 172.337896 
C 344.015258 174.213165 344.76031 176.011881 346.086326 177.337896 
C 347.412341 178.663912 349.211056 179.408964 351.086326 179.408964 
z
" style="fill:#ff0000;fill-opacity:0.7;stroke:#ff0000;stroke-opacity:0.7;"/>
    <path clip-path="url(#p2148b15770)" d="M 354.597758 154.572957 
C 356.473027 154.572957 358.271742 153.827905 359.597758 152.501889 
C 360.923773 151.175874 361.668826 149.377158 361.668826 147.501889 
C 361.668826 145.62662 360.923773 143.827905 359.597758 142.501889 
C 358.271742 141.175874 356.473027 140.430821 354.597758 140.430821 
C 352.722489 140.430821 350.923773 141.175874 349.597758 142.501889 
C 348.271742 143.827905 347.52669 145.62662 347.52669 147.501889 
C 347.52669 149.377158 348.271742 151.175874 349.597758 152.501889 
C 350.923773 153.827905 352.722489 154.572957 354.597758 154.572957 
z
" style="fill:#ff0000;fill-opacity:0.7;stroke:#ff0000;stroke-opacity:0.7;"/>
    <path clip-path="url(#p2148b15770)" d="M 355.565461 129.73695 
C 357.44073 129.73695 359.239446 128.991897 360.565461 127.665882 
C 361.891477 126.339866 362.636529 124.541151 362.636529 122.665882 
C 362.636529 120.790613 361.891477 118.991897 360.565461 117.665882 
C 359.239446 116.339866 357.44073 115.594814 355.565461 115.594814 
C 353.690192 115.594814 351.891477 116.339866 350.565461 117.665882 
C 349.239446 118.991897 348.494394 120.790613 348.494394 122.665882 
C 348.494394 124.541151 349.239446 126.339866 350.565461 127.665882 
C 351.891477 128.991897 353.690192 129.73695 355.565461 129.73695 
z
" style="fill:#ff0000;fill-opacity:0.7;stroke:#ff0000;stroke-opacity:0.7;"/>
    <path clip-path="url(#p2148b15770)" d="M 398.397551 104.900943 
C 400.27282 104.900943 402.071535 104.15589 403.397551 102.829875 
C 404.723566 101.503859 405.468618 99.705144 405.468618 97.829875 
C 405.468618 95.954606 404.723566 94.15589 403.397551 92.829875 
C 402.071535 91.503859 400.27282 90.758807 398.397551 90.758807 
C 396.522281 90.758807 394.723566 91.503859 393.397551 92.829875 
C 392.071535 94.15589 391.326483 95.954606 391.326483 97.829875 
C 391.326483 99.705144 392.071535 101.503859 393.397551 102.829875 
C 394.723566 104.15589 396.522281 104.900943 398.397551 104.900943 
z
" style="fill:#ff0000;fill-opacity:0.7;stroke:#ff0000;stroke-opacity:0.7;"/>
    <path clip-path="url(#p2148b15770)" d="M 428.019573 80.064935 
C 429.894842 80.064935 431.693557 79.319883 433.019573 77.993868 
C 434.345588 76.667852 435.09064 74.869137 435.09064 72.993868 
C 435.09064 71.118599 434.345588 69.319883 433.019573 67.993868 
C 431.693557 66.667852 429.894842 65.9228 428.019573 65.9228 
C 426.144303 65.9228 424.345588 66.667852 423.019573 67.993868 
C 421.693557 69.319883 420.948505 71.118599 420.948505 72.993868 
C 420.948505 74.869137 421.693557 76.667852 423.019573 77.993868 
C 424.345588 79.319883 426.144303 80.064935 428.019573 80.064935 
z
" style="fill:#ff0000;fill-opacity:0.7;stroke:#ff0000;stroke-opacity:0.7;"/>
   </g>
   <g id="matplotlib.axis_1">
    <g id="xtick_1">
     <g id="line2d_1">
      <defs>
       <path d="M 0 0 
L 0 3.5 
" id="me81e30f17a" style="stroke:#000000;stroke-width:0.8;"/>
      </defs>
      <g>
       <use style="stroke:#000000;stroke-width:0.8;" x="73.73" xlink:href="#me81e30f17a" y="1038.04"/>
      </g>
     </g>
     <g id="text_1">
      <!-- 0.1 -->
      <defs>
       <path d="M 31.78125 66.40625 
Q 24.171875 66.40625 20.328125 58.90625 
Q 16.5 51.421875 16.5 36.375 
Q 16.5 21.390625 20.328125 13.890625 
Q 24.171875 6.390625 31.78125 6.390625 
Q 39.453125 6.390625 43.28125 13.890625 
Q 47.125 21.390625 47.125 36.375 
Q 47.125 51.421875 43.28125 58.90625 
Q 39.453125 66.40625 31.78125 66.40625 
z
M 31.78125 74.21875 
Q 44.046875 74.21875 50.515625 64.515625 
Q 56.984375 54.828125 56.984375 36.375 
Q 56.984375 17.96875 50.515625 8.265625 
Q 44.046875 -1.421875 31.78125 -1.421875 
Q 19.53125 -1.421875 13.0625 8.265625 
Q 6.59375 17.96875 6.59375 36.375 
Q 6.59375 54.828125 13.0625 64.515625 
Q 19.53125 74.21875 31.78125 74.21875 
z
" id="DejaVuSans-48"/>
       <path d="M 10.6875 12.40625 
L 21 12.40625 
L 21 0 
L 10.6875 0 
z
" id="DejaVuSans-46"/>
       <path d="M 12.40625 8.296875 
L 28.515625 8.296875 
L 28.515625 63.921875 
L 10.984375 60.40625 
L 10.984375 69.390625 
L 28.421875 72.90625 
L 38.28125 72.90625 
L 38.28125 8.296875 
L 54.390625 8.296875 
L 54.390625 0 
L 12.40625 0 
z
" id="DejaVuSans-49"/>
      </defs>
      <g transform="translate(65.778438 1052.638438)scale(0.1 -0.1)">
       <use xlink:href="#DejaVuSans-48"/>
       <use x="63.623047" xlink:href="#DejaVuSans-46"/>
       <use x="95.410156" xlink:href="#DejaVuSans-49"/>
      </g>
     </g>
    </g>
    <g id="xtick_2">
     <g id="line2d_2">
      <g>
       <use style="stroke:#000000;stroke-width:0.8;" x="152.17375" xlink:href="#me81e30f17a" y="1038.04"/>
      </g>
     </g>
     <g id="text_2">
      <!-- 0.2 -->
      <defs>
       <path d="M 19.1875 8.296875 
L 53.609375 8.296875 
L 53.609375 0 
L 7.328125 0 
L 7.328125 8.296875 
Q 12.9375 14.109375 22.625 23.890625 
Q 32.328125 33.6875 34.8125 36.53125 
Q 39.546875 41.84375 41.421875 45.53125 
Q 43.3125 49.21875 43.3125 52.78125 
Q 43.3125 58.59375 39.234375 62.25 
Q 35.15625 65.921875 28.609375 65.921875 
Q 23.96875 65.921875 18.8125 64.3125 
Q 13.671875 62.703125 7.8125 59.421875 
L 7.8125 69.390625 
Q 13.765625 71.78125 18.9375 73 
Q 24.125 74.21875 28.421875 74.21875 
Q 39.75 74.21875 46.484375 68.546875 
Q 53.21875 62.890625 53.21875 53.421875 
Q 53.21875 48.921875 51.53125 44.890625 
Q 49.859375 40.875 45.40625 35.40625 
Q 44.1875 33.984375 37.640625 27.21875 
Q 31.109375 20.453125 19.1875 8.296875 
z
" id="DejaVuSans-50"/>
      </defs>
      <g transform="translate(144.222188 1052.638438)scale(0.1 -0.1)">
       <use xlink:href="#DejaVuSans-48"/>
       <use x="63.623047" xlink:href="#DejaVuSans-46"/>
       <use x="95.410156" xlink:href="#DejaVuSans-50"/>
      </g>
     </g>
    </g>
    <g id="xtick_3">
     <g id="line2d_3">
      <g>
       <use style="stroke:#000000;stroke-width:0.8;" x="230.6175" xlink:href="#me81e30f17a" y="1038.04"/>
      </g>
     </g>
     <g id="text_3">
      <!-- 0.3 -->
      <defs>
       <path d="M 40.578125 39.3125 
Q 47.65625 37.796875 51.625 33 
Q 55.609375 28.21875 55.609375 21.1875 
Q 55.609375 10.40625 48.1875 4.484375 
Q 40.765625 -1.421875 27.09375 -1.421875 
Q 22.515625 -1.421875 17.65625 -0.515625 
Q 12.796875 0.390625 7.625 2.203125 
L 7.625 11.71875 
Q 11.71875 9.328125 16.59375 8.109375 
Q 21.484375 6.890625 26.8125 6.890625 
Q 36.078125 6.890625 40.9375 10.546875 
Q 45.796875 14.203125 45.796875 21.1875 
Q 45.796875 27.640625 41.28125 31.265625 
Q 36.765625 34.90625 28.71875 34.90625 
L 20.21875 34.90625 
L 20.21875 43.015625 
L 29.109375 43.015625 
Q 36.375 43.015625 40.234375 45.921875 
Q 44.09375 48.828125 44.09375 54.296875 
Q 44.09375 59.90625 40.109375 62.90625 
Q 36.140625 65.921875 28.71875 65.921875 
Q 24.65625 65.921875 20.015625 65.03125 
Q 15.375 64.15625 9.8125 62.3125 
L 9.8125 71.09375 
Q 15.4375 72.65625 20.34375 73.4375 
Q 25.25 74.21875 29.59375 74.21875 
Q 40.828125 74.21875 47.359375 69.109375 
Q 53.90625 64.015625 53.90625 55.328125 
Q 53.90625 49.265625 50.4375 45.09375 
Q 46.96875 40.921875 40.578125 39.3125 
z
" id="DejaVuSans-51"/>
      </defs>
      <g transform="translate(222.665938 1052.638438)scale(0.1 -0.1)">
       <use xlink:href="#DejaVuSans-48"/>
       <use x="63.623047" xlink:href="#DejaVuSans-46"/>
       <use x="95.410156" xlink:href="#DejaVuSans-51"/>
      </g>
     </g>
    </g>
    <g id="xtick_4">
     <g id="line2d_4">
      <g>
       <use style="stroke:#000000;stroke-width:0.8;" x="309.06125" xlink:href="#me81e30f17a" y="1038.04"/>
      </g>
     </g>
     <g id="text_4">
      <!-- 0.4 -->
      <defs>
       <path d="M 37.796875 64.3125 
L 12.890625 25.390625 
L 37.796875 25.390625 
z
M 35.203125 72.90625 
L 47.609375 72.90625 
L 47.609375 25.390625 
L 58.015625 25.390625 
L 58.015625 17.1875 
L 47.609375 17.1875 
L 47.609375 0 
L 37.796875 0 
L 37.796875 17.1875 
L 4.890625 17.1875 
L 4.890625 26.703125 
z
" id="DejaVuSans-52"/>
      </defs>
      <g transform="translate(301.109688 1052.638438)scale(0.1 -0.1)">
       <use xlink:href="#DejaVuSans-48"/>
       <use x="63.623047" xlink:href="#DejaVuSans-46"/>
       <use x="95.410156" xlink:href="#DejaVuSans-52"/>
      </g>
     </g>
    </g>
    <g id="xtick_5">
     <g id="line2d_5">
      <g>
       <use style="stroke:#000000;stroke-width:0.8;" x="387.505" xlink:href="#me81e30f17a" y="1038.04"/>
      </g>
     </g>
     <g id="text_5">
      <!-- 0.5 -->
      <defs>
       <path d="M 10.796875 72.90625 
L 49.515625 72.90625 
L 49.515625 64.59375 
L 19.828125 64.59375 
L 19.828125 46.734375 
Q 21.96875 47.46875 24.109375 47.828125 
Q 26.265625 48.1875 28.421875 48.1875 
Q 40.625 48.1875 47.75 41.5 
Q 54.890625 34.8125 54.890625 23.390625 
Q 54.890625 11.625 47.5625 5.09375 
Q 40.234375 -1.421875 26.90625 -1.421875 
Q 22.3125 -1.421875 17.546875 -0.640625 
Q 12.796875 0.140625 7.71875 1.703125 
L 7.71875 11.625 
Q 12.109375 9.234375 16.796875 8.0625 
Q 21.484375 6.890625 26.703125 6.890625 
Q 35.15625 6.890625 40.078125 11.328125 
Q 45.015625 15.765625 45.015625 23.390625 
Q 45.015625 31 40.078125 35.4375 
Q 35.15625 39.890625 26.703125 39.890625 
Q 22.75 39.890625 18.8125 39.015625 
Q 14.890625 38.140625 10.796875 36.28125 
z
" id="DejaVuSans-53"/>
      </defs>
      <g transform="translate(379.553437 1052.638438)scale(0.1 -0.1)">
       <use xlink:href="#DejaVuSans-48"/>
       <use x="63.623047" xlink:href="#DejaVuSans-46"/>
       <use x="95.410156" xlink:href="#DejaVuSans-53"/>
      </g>
     </g>
    </g>
    <g id="xtick_6">
     <g id="line2d_6">
      <g>
       <use style="stroke:#000000;stroke-width:0.8;" x="465.94875" xlink:href="#me81e30f17a" y="1038.04"/>
      </g>
     </g>
     <g id="text_6">
      <!-- 0.6 -->
      <defs>
       <path d="M 33.015625 40.375 
Q 26.375 40.375 22.484375 35.828125 
Q 18.609375 31.296875 18.609375 23.390625 
Q 18.609375 15.53125 22.484375 10.953125 
Q 26.375 6.390625 33.015625 6.390625 
Q 39.65625 6.390625 43.53125 10.953125 
Q 47.40625 15.53125 47.40625 23.390625 
Q 47.40625 31.296875 43.53125 35.828125 
Q 39.65625 40.375 33.015625 40.375 
z
M 52.59375 71.296875 
L 52.59375 62.3125 
Q 48.875 64.0625 45.09375 64.984375 
Q 41.3125 65.921875 37.59375 65.921875 
Q 27.828125 65.921875 22.671875 59.328125 
Q 17.53125 52.734375 16.796875 39.40625 
Q 19.671875 43.65625 24.015625 45.921875 
Q 28.375 48.1875 33.59375 48.1875 
Q 44.578125 48.1875 50.953125 41.515625 
Q 57.328125 34.859375 57.328125 23.390625 
Q 57.328125 12.15625 50.6875 5.359375 
Q 44.046875 -1.421875 33.015625 -1.421875 
Q 20.359375 -1.421875 13.671875 8.265625 
Q 6.984375 17.96875 6.984375 36.375 
Q 6.984375 53.65625 15.1875 63.9375 
Q 23.390625 74.21875 37.203125 74.21875 
Q 40.921875 74.21875 44.703125 73.484375 
Q 48.484375 72.75 52.59375 71.296875 
z
" id="DejaVuSans-54"/>
      </defs>
      <g transform="translate(457.997187 1052.638438)scale(0.1 -0.1)">
       <use xlink:href="#DejaVuSans-48"/>
       <use x="63.623047" xlink:href="#DejaVuSans-46"/>
       <use x="95.410156" xlink:href="#DejaVuSans-54"/>
      </g>
     </g>
    </g>
    <g id="xtick_7">
     <g id="line2d_7">
      <g>
       <use style="stroke:#000000;stroke-width:0.8;" x="544.3925" xlink:href="#me81e30f17a" y="1038.04"/>
      </g>
     </g>
     <g id="text_7">
      <!-- 0.7 -->
      <defs>
       <path d="M 8.203125 72.90625 
L 55.078125 72.90625 
L 55.078125 68.703125 
L 28.609375 0 
L 18.3125 0 
L 43.21875 64.59375 
L 8.203125 64.59375 
z
" id="DejaVuSans-55"/>
      </defs>
      <g transform="translate(536.440937 1052.638438)scale(0.1 -0.1)">
       <use xlink:href="#DejaVuSans-48"/>
       <use x="63.623047" xlink:href="#DejaVuSans-46"/>
       <use x="95.410156" xlink:href="#DejaVuSans-55"/>
      </g>
     </g>
    </g>
    <g id="xtick_8">
     <g id="line2d_8">
      <g>
       <use style="stroke:#000000;stroke-width:0.8;" x="622.83625" xlink:href="#me81e30f17a" y="1038.04"/>
      </g>
     </g>
     <g id="text_8">
      <!-- 0.8 -->
      <defs>
       <path d="M 31.78125 34.625 
Q 24.75 34.625 20.71875 30.859375 
Q 16.703125 27.09375 16.703125 20.515625 
Q 16.703125 13.921875 20.71875 10.15625 
Q 24.75 6.390625 31.78125 6.390625 
Q 38.8125 6.390625 42.859375 10.171875 
Q 46.921875 13.96875 46.921875 20.515625 
Q 46.921875 27.09375 42.890625 30.859375 
Q 38.875 34.625 31.78125 34.625 
z
M 21.921875 38.8125 
Q 15.578125 40.375 12.03125 44.71875 
Q 8.5 49.078125 8.5 55.328125 
Q 8.5 64.0625 14.71875 69.140625 
Q 20.953125 74.21875 31.78125 74.21875 
Q 42.671875 74.21875 48.875 69.140625 
Q 55.078125 64.0625 55.078125 55.328125 
Q 55.078125 49.078125 51.53125 44.71875 
Q 48 40.375 41.703125 38.8125 
Q 48.828125 37.15625 52.796875 32.3125 
Q 56.78125 27.484375 56.78125 20.515625 
Q 56.78125 9.90625 50.3125 4.234375 
Q 43.84375 -1.421875 31.78125 -1.421875 
Q 19.734375 -1.421875 13.25 4.234375 
Q 6.78125 9.90625 6.78125 20.515625 
Q 6.78125 27.484375 10.78125 32.3125 
Q 14.796875 37.15625 21.921875 38.8125 
z
M 18.3125 54.390625 
Q 18.3125 48.734375 21.84375 45.5625 
Q 25.390625 42.390625 31.78125 42.390625 
Q 38.140625 42.390625 41.71875 45.5625 
Q 45.3125 48.734375 45.3125 54.390625 
Q 45.3125 60.0625 41.71875 63.234375 
Q 38.140625 66.40625 31.78125 66.40625 
Q 25.390625 66.40625 21.84375 63.234375 
Q 18.3125 60.0625 18.3125 54.390625 
z
" id="DejaVuSans-56"/>
      </defs>
      <g transform="translate(614.884688 1052.638438)scale(0.1 -0.1)">
       <use xlink:href="#DejaVuSans-48"/>
       <use x="63.623047" xlink:href="#DejaVuSans-46"/>
       <use x="95.410156" xlink:href="#DejaVuSans-56"/>
      </g>
     </g>
    </g>
    <g id="xtick_9">
     <g id="line2d_9">
      <g>
       <use style="stroke:#000000;stroke-width:0.8;" x="701.28" xlink:href="#me81e30f17a" y="1038.04"/>
      </g>
     </g>
     <g id="text_9">
      <!-- 0.9 -->
      <defs>
       <path d="M 10.984375 1.515625 
L 10.984375 10.5 
Q 14.703125 8.734375 18.5 7.8125 
Q 22.3125 6.890625 25.984375 6.890625 
Q 35.75 6.890625 40.890625 13.453125 
Q 46.046875 20.015625 46.78125 33.40625 
Q 43.953125 29.203125 39.59375 26.953125 
Q 35.25 24.703125 29.984375 24.703125 
Q 19.046875 24.703125 12.671875 31.3125 
Q 6.296875 37.9375 6.296875 49.421875 
Q 6.296875 60.640625 12.9375 67.421875 
Q 19.578125 74.21875 30.609375 74.21875 
Q 43.265625 74.21875 49.921875 64.515625 
Q 56.59375 54.828125 56.59375 36.375 
Q 56.59375 19.140625 48.40625 8.859375 
Q 40.234375 -1.421875 26.421875 -1.421875 
Q 22.703125 -1.421875 18.890625 -0.6875 
Q 15.09375 0.046875 10.984375 1.515625 
z
M 30.609375 32.421875 
Q 37.25 32.421875 41.125 36.953125 
Q 45.015625 41.5 45.015625 49.421875 
Q 45.015625 57.28125 41.125 61.84375 
Q 37.25 66.40625 30.609375 66.40625 
Q 23.96875 66.40625 20.09375 61.84375 
Q 16.21875 57.28125 16.21875 49.421875 
Q 16.21875 41.5 20.09375 36.953125 
Q 23.96875 32.421875 30.609375 32.421875 
z
" id="DejaVuSans-57"/>
      </defs>
      <g transform="translate(693.328437 1052.638438)scale(0.1 -0.1)">
       <use xlink:href="#DejaVuSans-48"/>
       <use x="63.623047" xlink:href="#DejaVuSans-46"/>
       <use x="95.410156" xlink:href="#DejaVuSans-57"/>
      </g>
     </g>
    </g>
    <g id="text_10">
     <!-- Proporcao -->
     <defs>
      <path d="M 19.671875 64.796875 
L 19.671875 37.40625 
L 32.078125 37.40625 
Q 38.96875 37.40625 42.71875 40.96875 
Q 46.484375 44.53125 46.484375 51.125 
Q 46.484375 57.671875 42.71875 61.234375 
Q 38.96875 64.796875 32.078125 64.796875 
z
M 9.8125 72.90625 
L 32.078125 72.90625 
Q 44.34375 72.90625 50.609375 67.359375 
Q 56.890625 61.8125 56.890625 51.125 
Q 56.890625 40.328125 50.609375 34.8125 
Q 44.34375 29.296875 32.078125 29.296875 
L 19.671875 29.296875 
L 19.671875 0 
L 9.8125 0 
z
" id="DejaVuSans-80"/>
      <path d="M 41.109375 46.296875 
Q 39.59375 47.171875 37.8125 47.578125 
Q 36.03125 48 33.890625 48 
Q 26.265625 48 22.1875 43.046875 
Q 18.109375 38.09375 18.109375 28.8125 
L 18.109375 0 
L 9.078125 0 
L 9.078125 54.6875 
L 18.109375 54.6875 
L 18.109375 46.1875 
Q 20.953125 51.171875 25.484375 53.578125 
Q 30.03125 56 36.53125 56 
Q 37.453125 56 38.578125 55.875 
Q 39.703125 55.765625 41.0625 55.515625 
z
" id="DejaVuSans-114"/>
      <path d="M 30.609375 48.390625 
Q 23.390625 48.390625 19.1875 42.75 
Q 14.984375 37.109375 14.984375 27.296875 
Q 14.984375 17.484375 19.15625 11.84375 
Q 23.34375 6.203125 30.609375 6.203125 
Q 37.796875 6.203125 41.984375 11.859375 
Q 46.1875 17.53125 46.1875 27.296875 
Q 46.1875 37.015625 41.984375 42.703125 
Q 37.796875 48.390625 30.609375 48.390625 
z
M 30.609375 56 
Q 42.328125 56 49.015625 48.375 
Q 55.71875 40.765625 55.71875 27.296875 
Q 55.71875 13.875 49.015625 6.21875 
Q 42.328125 -1.421875 30.609375 -1.421875 
Q 18.84375 -1.421875 12.171875 6.21875 
Q 5.515625 13.875 5.515625 27.296875 
Q 5.515625 40.765625 12.171875 48.375 
Q 18.84375 56 30.609375 56 
z
" id="DejaVuSans-111"/>
      <path d="M 18.109375 8.203125 
L 18.109375 -20.796875 
L 9.078125 -20.796875 
L 9.078125 54.6875 
L 18.109375 54.6875 
L 18.109375 46.390625 
Q 20.953125 51.265625 25.265625 53.625 
Q 29.59375 56 35.59375 56 
Q 45.5625 56 51.78125 48.09375 
Q 58.015625 40.1875 58.015625 27.296875 
Q 58.015625 14.40625 51.78125 6.484375 
Q 45.5625 -1.421875 35.59375 -1.421875 
Q 29.59375 -1.421875 25.265625 0.953125 
Q 20.953125 3.328125 18.109375 8.203125 
z
M 48.6875 27.296875 
Q 48.6875 37.203125 44.609375 42.84375 
Q 40.53125 48.484375 33.40625 48.484375 
Q 26.265625 48.484375 22.1875 42.84375 
Q 18.109375 37.203125 18.109375 27.296875 
Q 18.109375 17.390625 22.1875 11.75 
Q 26.265625 6.109375 33.40625 6.109375 
Q 40.53125 6.109375 44.609375 11.75 
Q 48.6875 17.390625 48.6875 27.296875 
z
" id="DejaVuSans-112"/>
      <path d="M 48.78125 52.59375 
L 48.78125 44.1875 
Q 44.96875 46.296875 41.140625 47.34375 
Q 37.3125 48.390625 33.40625 48.390625 
Q 24.65625 48.390625 19.8125 42.84375 
Q 14.984375 37.3125 14.984375 27.296875 
Q 14.984375 17.28125 19.8125 11.734375 
Q 24.65625 6.203125 33.40625 6.203125 
Q 37.3125 6.203125 41.140625 7.25 
Q 44.96875 8.296875 48.78125 10.40625 
L 48.78125 2.09375 
Q 45.015625 0.34375 40.984375 -0.53125 
Q 36.96875 -1.421875 32.421875 -1.421875 
Q 20.0625 -1.421875 12.78125 6.34375 
Q 5.515625 14.109375 5.515625 27.296875 
Q 5.515625 40.671875 12.859375 48.328125 
Q 20.21875 56 33.015625 56 
Q 37.15625 56 41.109375 55.140625 
Q 45.0625 54.296875 48.78125 52.59375 
z
" id="DejaVuSans-99"/>
      <path d="M 34.28125 27.484375 
Q 23.390625 27.484375 19.1875 25 
Q 14.984375 22.515625 14.984375 16.5 
Q 14.984375 11.71875 18.140625 8.90625 
Q 21.296875 6.109375 26.703125 6.109375 
Q 34.1875 6.109375 38.703125 11.40625 
Q 43.21875 16.703125 43.21875 25.484375 
L 43.21875 27.484375 
z
M 52.203125 31.203125 
L 52.203125 0 
L 43.21875 0 
L 43.21875 8.296875 
Q 40.140625 3.328125 35.546875 0.953125 
Q 30.953125 -1.421875 24.3125 -1.421875 
Q 15.921875 -1.421875 10.953125 3.296875 
Q 6 8.015625 6 15.921875 
Q 6 25.140625 12.171875 29.828125 
Q 18.359375 34.515625 30.609375 34.515625 
L 43.21875 34.515625 
L 43.21875 35.40625 
Q 43.21875 41.609375 39.140625 45 
Q 35.0625 48.390625 27.6875 48.390625 
Q 23 48.390625 18.546875 47.265625 
Q 14.109375 46.140625 10.015625 43.890625 
L 10.015625 52.203125 
Q 14.9375 54.109375 19.578125 55.046875 
Q 24.21875 56 28.609375 56 
Q 40.484375 56 46.34375 49.84375 
Q 52.203125 43.703125 52.203125 31.203125 
z
" id="DejaVuSans-97"/>
     </defs>
     <g transform="translate(362.2175 1066.316563)scale(0.1 -0.1)">
      <use xlink:href="#DejaVuSans-80"/>
      <use x="60.287109" xlink:href="#DejaVuSans-114"/>
      <use x="101.369141" xlink:href="#DejaVuSans-111"/>
      <use x="162.550781" xlink:href="#DejaVuSans-112"/>
      <use x="226.027344" xlink:href="#DejaVuSans-111"/>
      <use x="287.208984" xlink:href="#DejaVuSans-114"/>
      <use x="328.291016" xlink:href="#DejaVuSans-99"/>
      <use x="383.271484" xlink:href="#DejaVuSans-97"/>
      <use x="444.550781" xlink:href="#DejaVuSans-111"/>
     </g>
    </g>
   </g>
   <g id="matplotlib.axis_2">
    <g id="ytick_1">
     <g id="line2d_10">
      <defs>
       <path d="M 0 0 
L -3.5 0 
" id="m870a9753b5" style="stroke:#000000;stroke-width:0.8;"/>
      </defs>
      <g>
       <use style="stroke:#000000;stroke-width:0.8;" x="73.73" xlink:href="#m870a9753b5" y="991.926132"/>
      </g>
     </g>
     <g id="text_11">
      <!-- NOVO -->
      <defs>
       <path d="M 9.8125 72.90625 
L 23.09375 72.90625 
L 55.421875 11.921875 
L 55.421875 72.90625 
L 64.984375 72.90625 
L 64.984375 0 
L 51.703125 0 
L 19.390625 60.984375 
L 19.390625 0 
L 9.8125 0 
z
" id="DejaVuSans-78"/>
       <path d="M 39.40625 66.21875 
Q 28.65625 66.21875 22.328125 58.203125 
Q 16.015625 50.203125 16.015625 36.375 
Q 16.015625 22.609375 22.328125 14.59375 
Q 28.65625 6.59375 39.40625 6.59375 
Q 50.140625 6.59375 56.421875 14.59375 
Q 62.703125 22.609375 62.703125 36.375 
Q 62.703125 50.203125 56.421875 58.203125 
Q 50.140625 66.21875 39.40625 66.21875 
z
M 39.40625 74.21875 
Q 54.734375 74.21875 63.90625 63.9375 
Q 73.09375 53.65625 73.09375 36.375 
Q 73.09375 19.140625 63.90625 8.859375 
Q 54.734375 -1.421875 39.40625 -1.421875 
Q 24.03125 -1.421875 14.8125 8.828125 
Q 5.609375 19.09375 5.609375 36.375 
Q 5.609375 53.65625 14.8125 63.9375 
Q 24.03125 74.21875 39.40625 74.21875 
z
" id="DejaVuSans-79"/>
       <path d="M 28.609375 0 
L 0.78125 72.90625 
L 11.078125 72.90625 
L 34.1875 11.53125 
L 57.328125 72.90625 
L 67.578125 72.90625 
L 39.796875 0 
z
" id="DejaVuSans-86"/>
      </defs>
      <g transform="translate(36.6675 995.725351)scale(0.1 -0.1)">
       <use xlink:href="#DejaVuSans-78"/>
       <use x="74.804688" xlink:href="#DejaVuSans-79"/>
       <use x="153.5" xlink:href="#DejaVuSans-86"/>
       <use x="221.892578" xlink:href="#DejaVuSans-79"/>
      </g>
     </g>
    </g>
    <g id="ytick_2">
     <g id="line2d_11">
      <g>
       <use style="stroke:#000000;stroke-width:0.8;" x="73.73" xlink:href="#m870a9753b5" y="967.090125"/>
      </g>
     </g>
     <g id="text_12">
      <!-- REDE -->
      <defs>
       <path d="M 44.390625 34.1875 
Q 47.5625 33.109375 50.5625 29.59375 
Q 53.5625 26.078125 56.59375 19.921875 
L 66.609375 0 
L 56 0 
L 46.6875 18.703125 
Q 43.0625 26.03125 39.671875 28.421875 
Q 36.28125 30.8125 30.421875 30.8125 
L 19.671875 30.8125 
L 19.671875 0 
L 9.8125 0 
L 9.8125 72.90625 
L 32.078125 72.90625 
Q 44.578125 72.90625 50.734375 67.671875 
Q 56.890625 62.453125 56.890625 51.90625 
Q 56.890625 45.015625 53.6875 40.46875 
Q 50.484375 35.9375 44.390625 34.1875 
z
M 19.671875 64.796875 
L 19.671875 38.921875 
L 32.078125 38.921875 
Q 39.203125 38.921875 42.84375 42.21875 
Q 46.484375 45.515625 46.484375 51.90625 
Q 46.484375 58.296875 42.84375 61.546875 
Q 39.203125 64.796875 32.078125 64.796875 
z
" id="DejaVuSans-82"/>
       <path d="M 9.8125 72.90625 
L 55.90625 72.90625 
L 55.90625 64.59375 
L 19.671875 64.59375 
L 19.671875 43.015625 
L 54.390625 43.015625 
L 54.390625 34.71875 
L 19.671875 34.71875 
L 19.671875 8.296875 
L 56.78125 8.296875 
L 56.78125 0 
L 9.8125 0 
z
" id="DejaVuSans-69"/>
       <path d="M 19.671875 64.796875 
L 19.671875 8.109375 
L 31.59375 8.109375 
Q 46.6875 8.109375 53.6875 14.9375 
Q 60.6875 21.78125 60.6875 36.53125 
Q 60.6875 51.171875 53.6875 57.984375 
Q 46.6875 64.796875 31.59375 64.796875 
z
M 9.8125 72.90625 
L 30.078125 72.90625 
Q 51.265625 72.90625 61.171875 64.09375 
Q 71.09375 55.28125 71.09375 36.53125 
Q 71.09375 17.671875 61.125 8.828125 
Q 51.171875 0 30.078125 0 
L 9.8125 0 
z
" id="DejaVuSans-68"/>
      </defs>
      <g transform="translate(39.444063 970.889344)scale(0.1 -0.1)">
       <use xlink:href="#DejaVuSans-82"/>
       <use x="69.482422" xlink:href="#DejaVuSans-69"/>
       <use x="132.666016" xlink:href="#DejaVuSans-68"/>
       <use x="209.667969" xlink:href="#DejaVuSans-69"/>
      </g>
     </g>
    </g>
    <g id="ytick_3">
     <g id="line2d_12">
      <g>
       <use style="stroke:#000000;stroke-width:0.8;" x="73.73" xlink:href="#m870a9753b5" y="942.254118"/>
      </g>
     </g>
     <g id="text_13">
      <!-- PCO -->
      <defs>
       <path d="M 64.40625 67.28125 
L 64.40625 56.890625 
Q 59.421875 61.53125 53.78125 63.8125 
Q 48.140625 66.109375 41.796875 66.109375 
Q 29.296875 66.109375 22.65625 58.46875 
Q 16.015625 50.828125 16.015625 36.375 
Q 16.015625 21.96875 22.65625 14.328125 
Q 29.296875 6.6875 41.796875 6.6875 
Q 48.140625 6.6875 53.78125 8.984375 
Q 59.421875 11.28125 64.40625 15.921875 
L 64.40625 5.609375 
Q 59.234375 2.09375 53.4375 0.328125 
Q 47.65625 -1.421875 41.21875 -1.421875 
Q 24.65625 -1.421875 15.125 8.703125 
Q 5.609375 18.84375 5.609375 36.375 
Q 5.609375 53.953125 15.125 64.078125 
Q 24.65625 74.21875 41.21875 74.21875 
Q 47.75 74.21875 53.53125 72.484375 
Q 59.328125 70.75 64.40625 67.28125 
z
" id="DejaVuSans-67"/>
      </defs>
      <g transform="translate(45.845625 946.053337)scale(0.1 -0.1)">
       <use xlink:href="#DejaVuSans-80"/>
       <use x="60.302734" xlink:href="#DejaVuSans-67"/>
       <use x="130.126953" xlink:href="#DejaVuSans-79"/>
      </g>
     </g>
    </g>
    <g id="ytick_4">
     <g id="line2d_13">
      <g>
       <use style="stroke:#000000;stroke-width:0.8;" x="73.73" xlink:href="#m870a9753b5" y="917.418111"/>
      </g>
     </g>
     <g id="text_14">
      <!-- PATRI -->
      <defs>
       <path d="M 34.1875 63.1875 
L 20.796875 26.90625 
L 47.609375 26.90625 
z
M 28.609375 72.90625 
L 39.796875 72.90625 
L 67.578125 0 
L 57.328125 0 
L 50.6875 18.703125 
L 17.828125 18.703125 
L 11.1875 0 
L 0.78125 0 
z
" id="DejaVuSans-65"/>
       <path d="M -0.296875 72.90625 
L 61.375 72.90625 
L 61.375 64.59375 
L 35.5 64.59375 
L 35.5 0 
L 25.59375 0 
L 25.59375 64.59375 
L -0.296875 64.59375 
z
" id="DejaVuSans-84"/>
       <path d="M 9.8125 72.90625 
L 19.671875 72.90625 
L 19.671875 0 
L 9.8125 0 
z
" id="DejaVuSans-73"/>
      </defs>
      <g transform="translate(37.87375 921.21733)scale(0.1 -0.1)">
       <use xlink:href="#DejaVuSans-80"/>
       <use x="60.208984" xlink:href="#DejaVuSans-65"/>
       <use x="128.507812" xlink:href="#DejaVuSans-84"/>
       <use x="189.591797" xlink:href="#DejaVuSans-82"/>
       <use x="259.074219" xlink:href="#DejaVuSans-73"/>
      </g>
     </g>
    </g>
    <g id="ytick_5">
     <g id="line2d_14">
      <g>
       <use style="stroke:#000000;stroke-width:0.8;" x="73.73" xlink:href="#m870a9753b5" y="892.582104"/>
      </g>
     </g>
     <g id="text_15">
      <!-- PROS -->
      <defs>
       <path d="M 53.515625 70.515625 
L 53.515625 60.890625 
Q 47.90625 63.578125 42.921875 64.890625 
Q 37.9375 66.21875 33.296875 66.21875 
Q 25.25 66.21875 20.875 63.09375 
Q 16.5 59.96875 16.5 54.203125 
Q 16.5 49.359375 19.40625 46.890625 
Q 22.3125 44.4375 30.421875 42.921875 
L 36.375 41.703125 
Q 47.40625 39.59375 52.65625 34.296875 
Q 57.90625 29 57.90625 20.125 
Q 57.90625 9.515625 50.796875 4.046875 
Q 43.703125 -1.421875 29.984375 -1.421875 
Q 24.8125 -1.421875 18.96875 -0.25 
Q 13.140625 0.921875 6.890625 3.21875 
L 6.890625 13.375 
Q 12.890625 10.015625 18.65625 8.296875 
Q 24.421875 6.59375 29.984375 6.59375 
Q 38.421875 6.59375 43.015625 9.90625 
Q 47.609375 13.234375 47.609375 19.390625 
Q 47.609375 24.75 44.3125 27.78125 
Q 41.015625 30.8125 33.5 32.328125 
L 27.484375 33.5 
Q 16.453125 35.6875 11.515625 40.375 
Q 6.59375 45.0625 6.59375 53.421875 
Q 6.59375 63.09375 13.40625 68.65625 
Q 20.21875 74.21875 32.171875 74.21875 
Q 37.3125 74.21875 42.625 73.28125 
Q 47.953125 72.359375 53.515625 70.515625 
z
" id="DejaVuSans-83"/>
      </defs>
      <g transform="translate(39.531563 896.381323)scale(0.1 -0.1)">
       <use xlink:href="#DejaVuSans-80"/>
       <use x="60.302734" xlink:href="#DejaVuSans-82"/>
       <use x="129.785156" xlink:href="#DejaVuSans-79"/>
       <use x="208.496094" xlink:href="#DejaVuSans-83"/>
      </g>
     </g>
    </g>
    <g id="ytick_6">
     <g id="line2d_15">
      <g>
       <use style="stroke:#000000;stroke-width:0.8;" x="73.73" xlink:href="#m870a9753b5" y="867.746097"/>
      </g>
     </g>
     <g id="text_16">
      <!-- PSD -->
      <g transform="translate(46.651875 871.545315)scale(0.1 -0.1)">
       <use xlink:href="#DejaVuSans-80"/>
       <use x="60.302734" xlink:href="#DejaVuSans-83"/>
       <use x="123.779297" xlink:href="#DejaVuSans-68"/>
      </g>
     </g>
    </g>
    <g id="ytick_7">
     <g id="line2d_16">
      <g>
       <use style="stroke:#000000;stroke-width:0.8;" x="73.73" xlink:href="#m870a9753b5" y="842.910089"/>
      </g>
     </g>
     <g id="text_17">
      <!-- PSL -->
      <defs>
       <path d="M 9.8125 72.90625 
L 19.671875 72.90625 
L 19.671875 8.296875 
L 55.171875 8.296875 
L 55.171875 0 
L 9.8125 0 
z
" id="DejaVuSans-76"/>
      </defs>
      <g transform="translate(48.78 846.709308)scale(0.1 -0.1)">
       <use xlink:href="#DejaVuSans-80"/>
       <use x="60.302734" xlink:href="#DejaVuSans-83"/>
       <use x="123.779297" xlink:href="#DejaVuSans-76"/>
      </g>
     </g>
    </g>
    <g id="ytick_8">
     <g id="line2d_17">
      <g>
       <use style="stroke:#000000;stroke-width:0.8;" x="73.73" xlink:href="#m870a9753b5" y="818.074082"/>
      </g>
     </g>
     <g id="text_18">
      <!-- PV -->
      <g transform="translate(53.859688 821.873301)scale(0.1 -0.1)">
       <use xlink:href="#DejaVuSans-80"/>
       <use x="60.302734" xlink:href="#DejaVuSans-86"/>
      </g>
     </g>
    </g>
    <g id="ytick_9">
     <g id="line2d_18">
      <g>
       <use style="stroke:#000000;stroke-width:0.8;" x="73.73" xlink:href="#m870a9753b5" y="793.238075"/>
      </g>
     </g>
     <g id="text_19">
      <!-- PPS -->
      <g transform="translate(48.322187 797.037294)scale(0.1 -0.1)">
       <use xlink:href="#DejaVuSans-80"/>
       <use x="60.302734" xlink:href="#DejaVuSans-80"/>
       <use x="120.605469" xlink:href="#DejaVuSans-83"/>
      </g>
     </g>
    </g>
    <g id="ytick_10">
     <g id="line2d_19">
      <g>
       <use style="stroke:#000000;stroke-width:0.8;" x="73.73" xlink:href="#m870a9753b5" y="768.402068"/>
      </g>
     </g>
     <g id="text_20">
      <!-- PODE -->
      <g transform="translate(38.809688 772.201287)scale(0.1 -0.1)">
       <use xlink:href="#DejaVuSans-80"/>
       <use x="60.302734" xlink:href="#DejaVuSans-79"/>
       <use x="139.013672" xlink:href="#DejaVuSans-68"/>
       <use x="216.015625" xlink:href="#DejaVuSans-69"/>
      </g>
     </g>
    </g>
    <g id="ytick_11">
     <g id="line2d_20">
      <g>
       <use style="stroke:#000000;stroke-width:0.8;" x="73.73" xlink:href="#m870a9753b5" y="743.566061"/>
      </g>
     </g>
     <g id="text_21">
      <!-- PTN -->
      <g transform="translate(47.11125 747.36528)scale(0.1 -0.1)">
       <use xlink:href="#DejaVuSans-80"/>
       <use x="60.302734" xlink:href="#DejaVuSans-84"/>
       <use x="121.386719" xlink:href="#DejaVuSans-78"/>
      </g>
     </g>
    </g>
    <g id="ytick_12">
     <g id="line2d_21">
      <g>
       <use style="stroke:#000000;stroke-width:0.8;" x="73.73" xlink:href="#m870a9753b5" y="718.730054"/>
      </g>
     </g>
     <g id="text_22">
      <!-- PSB -->
      <defs>
       <path d="M 19.671875 34.8125 
L 19.671875 8.109375 
L 35.5 8.109375 
Q 43.453125 8.109375 47.28125 11.40625 
Q 51.125 14.703125 51.125 21.484375 
Q 51.125 28.328125 47.28125 31.5625 
Q 43.453125 34.8125 35.5 34.8125 
z
M 19.671875 64.796875 
L 19.671875 42.828125 
L 34.28125 42.828125 
Q 41.5 42.828125 45.03125 45.53125 
Q 48.578125 48.25 48.578125 53.8125 
Q 48.578125 59.328125 45.03125 62.0625 
Q 41.5 64.796875 34.28125 64.796875 
z
M 9.8125 72.90625 
L 35.015625 72.90625 
Q 46.296875 72.90625 52.390625 68.21875 
Q 58.5 63.53125 58.5 54.890625 
Q 58.5 48.1875 55.375 44.234375 
Q 52.25 40.28125 46.1875 39.3125 
Q 53.46875 37.75 57.5 32.78125 
Q 61.53125 27.828125 61.53125 20.40625 
Q 61.53125 10.640625 54.890625 5.3125 
Q 48.25 0 35.984375 0 
L 9.8125 0 
z
" id="DejaVuSans-66"/>
      </defs>
      <g transform="translate(47.490938 722.529272)scale(0.1 -0.1)">
       <use xlink:href="#DejaVuSans-80"/>
       <use x="60.302734" xlink:href="#DejaVuSans-83"/>
       <use x="123.779297" xlink:href="#DejaVuSans-66"/>
      </g>
     </g>
    </g>
    <g id="ytick_13">
     <g id="line2d_22">
      <g>
       <use style="stroke:#000000;stroke-width:0.8;" x="73.73" xlink:href="#m870a9753b5" y="693.894047"/>
      </g>
     </g>
     <g id="text_23">
      <!-- PRTB -->
      <g transform="translate(40.794063 697.693265)scale(0.1 -0.1)">
       <use xlink:href="#DejaVuSans-80"/>
       <use x="60.302734" xlink:href="#DejaVuSans-82"/>
       <use x="129.675781" xlink:href="#DejaVuSans-84"/>
       <use x="190.759766" xlink:href="#DejaVuSans-66"/>
      </g>
     </g>
    </g>
    <g id="ytick_14">
     <g id="line2d_23">
      <g>
       <use style="stroke:#000000;stroke-width:0.8;" x="73.73" xlink:href="#m870a9753b5" y="669.058039"/>
      </g>
     </g>
     <g id="text_24">
      <!-- PPL -->
      <g transform="translate(49.09875 672.857258)scale(0.1 -0.1)">
       <use xlink:href="#DejaVuSans-80"/>
       <use x="60.302734" xlink:href="#DejaVuSans-80"/>
       <use x="120.605469" xlink:href="#DejaVuSans-76"/>
      </g>
     </g>
    </g>
    <g id="ytick_15">
     <g id="line2d_24">
      <g>
       <use style="stroke:#000000;stroke-width:0.8;" x="73.73" xlink:href="#m870a9753b5" y="644.222032"/>
      </g>
     </g>
     <g id="text_25">
      <!-- PTC -->
      <g transform="translate(47.6175 648.021251)scale(0.1 -0.1)">
       <use xlink:href="#DejaVuSans-80"/>
       <use x="60.302734" xlink:href="#DejaVuSans-84"/>
       <use x="121.308594" xlink:href="#DejaVuSans-67"/>
      </g>
     </g>
    </g>
    <g id="ytick_16">
     <g id="line2d_25">
      <g>
       <use style="stroke:#000000;stroke-width:0.8;" x="73.73" xlink:href="#m870a9753b5" y="619.386025"/>
      </g>
     </g>
     <g id="text_26">
      <!-- DEM -->
      <defs>
       <path d="M 9.8125 72.90625 
L 24.515625 72.90625 
L 43.109375 23.296875 
L 61.8125 72.90625 
L 76.515625 72.90625 
L 76.515625 0 
L 66.890625 0 
L 66.890625 64.015625 
L 48.09375 14.015625 
L 38.1875 14.015625 
L 19.390625 64.015625 
L 19.390625 0 
L 9.8125 0 
z
" id="DejaVuSans-77"/>
      </defs>
      <g transform="translate(44.083125 623.185244)scale(0.1 -0.1)">
       <use xlink:href="#DejaVuSans-68"/>
       <use x="77.001953" xlink:href="#DejaVuSans-69"/>
       <use x="140.185547" xlink:href="#DejaVuSans-77"/>
      </g>
     </g>
    </g>
    <g id="ytick_17">
     <g id="line2d_26">
      <g>
       <use style="stroke:#000000;stroke-width:0.8;" x="73.73" xlink:href="#m870a9753b5" y="594.550018"/>
      </g>
     </g>
     <g id="text_27">
      <!-- PSC -->
      <g transform="translate(47.369062 598.349237)scale(0.1 -0.1)">
       <use xlink:href="#DejaVuSans-80"/>
       <use x="60.302734" xlink:href="#DejaVuSans-83"/>
       <use x="123.779297" xlink:href="#DejaVuSans-67"/>
      </g>
     </g>
    </g>
    <g id="ytick_18">
     <g id="line2d_27">
      <g>
       <use style="stroke:#000000;stroke-width:0.8;" x="73.73" xlink:href="#m870a9753b5" y="569.714011"/>
      </g>
     </g>
     <g id="text_28">
      <!-- PHS -->
      <defs>
       <path d="M 9.8125 72.90625 
L 19.671875 72.90625 
L 19.671875 43.015625 
L 55.515625 43.015625 
L 55.515625 72.90625 
L 65.375 72.90625 
L 65.375 0 
L 55.515625 0 
L 55.515625 34.71875 
L 19.671875 34.71875 
L 19.671875 0 
L 9.8125 0 
z
" id="DejaVuSans-72"/>
      </defs>
      <g transform="translate(46.831563 573.513229)scale(0.1 -0.1)">
       <use xlink:href="#DejaVuSans-80"/>
       <use x="60.302734" xlink:href="#DejaVuSans-72"/>
       <use x="135.498047" xlink:href="#DejaVuSans-83"/>
      </g>
     </g>
    </g>
    <g id="ytick_19">
     <g id="line2d_28">
      <g>
       <use style="stroke:#000000;stroke-width:0.8;" x="73.73" xlink:href="#m870a9753b5" y="544.878004"/>
      </g>
     </g>
     <g id="text_29">
      <!-- PSDC -->
      <g transform="translate(39.669063 548.677222)scale(0.1 -0.1)">
       <use xlink:href="#DejaVuSans-80"/>
       <use x="60.302734" xlink:href="#DejaVuSans-83"/>
       <use x="123.779297" xlink:href="#DejaVuSans-68"/>
       <use x="200.78125" xlink:href="#DejaVuSans-67"/>
      </g>
     </g>
    </g>
    <g id="ytick_20">
     <g id="line2d_29">
      <g>
       <use style="stroke:#000000;stroke-width:0.8;" x="73.73" xlink:href="#m870a9753b5" y="520.041996"/>
      </g>
     </g>
     <g id="text_30">
      <!-- PDT -->
      <g transform="translate(46.8925 523.841215)scale(0.1 -0.1)">
       <use xlink:href="#DejaVuSans-80"/>
       <use x="60.302734" xlink:href="#DejaVuSans-68"/>
       <use x="137.304688" xlink:href="#DejaVuSans-84"/>
      </g>
     </g>
    </g>
    <g id="ytick_21">
     <g id="line2d_30">
      <g>
       <use style="stroke:#000000;stroke-width:0.8;" x="73.73" xlink:href="#m870a9753b5" y="495.205989"/>
      </g>
     </g>
     <g id="text_31">
      <!-- DC -->
      <g transform="translate(52.047188 499.005208)scale(0.1 -0.1)">
       <use xlink:href="#DejaVuSans-68"/>
       <use x="77.001953" xlink:href="#DejaVuSans-67"/>
      </g>
     </g>
    </g>
    <g id="ytick_22">
     <g id="line2d_31">
      <g>
       <use style="stroke:#000000;stroke-width:0.8;" x="73.73" xlink:href="#m870a9753b5" y="470.369982"/>
      </g>
     </g>
     <g id="text_32">
      <!-- PP -->
      <g transform="translate(54.670625 474.169201)scale(0.1 -0.1)">
       <use xlink:href="#DejaVuSans-80"/>
       <use x="60.302734" xlink:href="#DejaVuSans-80"/>
      </g>
     </g>
    </g>
    <g id="ytick_23">
     <g id="line2d_32">
      <g>
       <use style="stroke:#000000;stroke-width:0.8;" x="73.73" xlink:href="#m870a9753b5" y="445.533975"/>
      </g>
     </g>
     <g id="text_33">
      <!-- PR -->
      <g transform="translate(53.751875 449.333194)scale(0.1 -0.1)">
       <use xlink:href="#DejaVuSans-80"/>
       <use x="60.302734" xlink:href="#DejaVuSans-82"/>
      </g>
     </g>
    </g>
    <g id="ytick_24">
     <g id="line2d_33">
      <g>
       <use style="stroke:#000000;stroke-width:0.8;" x="73.73" xlink:href="#m870a9753b5" y="420.697968"/>
      </g>
     </g>
     <g id="text_34">
      <!-- PT -->
      <g transform="translate(54.5925 424.497187)scale(0.1 -0.1)">
       <use xlink:href="#DejaVuSans-80"/>
       <use x="60.302734" xlink:href="#DejaVuSans-84"/>
      </g>
     </g>
    </g>
    <g id="ytick_25">
     <g id="line2d_34">
      <g>
       <use style="stroke:#000000;stroke-width:0.8;" x="73.73" xlink:href="#m870a9753b5" y="395.861961"/>
      </g>
     </g>
     <g id="text_35">
      <!-- PSDB -->
      <g transform="translate(39.790937 399.661179)scale(0.1 -0.1)">
       <use xlink:href="#DejaVuSans-80"/>
       <use x="60.302734" xlink:href="#DejaVuSans-83"/>
       <use x="123.779297" xlink:href="#DejaVuSans-68"/>
       <use x="200.78125" xlink:href="#DejaVuSans-66"/>
      </g>
     </g>
    </g>
    <g id="ytick_26">
     <g id="line2d_35">
      <g>
       <use style="stroke:#000000;stroke-width:0.8;" x="73.73" xlink:href="#m870a9753b5" y="371.025953"/>
      </g>
     </g>
     <g id="text_36">
      <!-- PC DO B -->
      <defs>
       <path id="DejaVuSans-32"/>
      </defs>
      <g transform="translate(24.928438 374.825172)scale(0.1 -0.1)">
       <use xlink:href="#DejaVuSans-80"/>
       <use x="60.302734" xlink:href="#DejaVuSans-67"/>
       <use x="130.126953" xlink:href="#DejaVuSans-32"/>
       <use x="161.914062" xlink:href="#DejaVuSans-68"/>
       <use x="238.916016" xlink:href="#DejaVuSans-79"/>
       <use x="317.626953" xlink:href="#DejaVuSans-32"/>
       <use x="349.414062" xlink:href="#DejaVuSans-66"/>
      </g>
     </g>
    </g>
    <g id="ytick_27">
     <g id="line2d_36">
      <g>
       <use style="stroke:#000000;stroke-width:0.8;" x="73.73" xlink:href="#m870a9753b5" y="346.189946"/>
      </g>
     </g>
     <g id="text_37">
      <!-- PRP -->
      <g transform="translate(47.722188 349.989165)scale(0.1 -0.1)">
       <use xlink:href="#DejaVuSans-80"/>
       <use x="60.302734" xlink:href="#DejaVuSans-82"/>
       <use x="129.785156" xlink:href="#DejaVuSans-80"/>
      </g>
     </g>
    </g>
    <g id="ytick_28">
     <g id="line2d_37">
      <g>
       <use style="stroke:#000000;stroke-width:0.8;" x="73.73" xlink:href="#m870a9753b5" y="321.353939"/>
      </g>
     </g>
     <g id="text_38">
      <!-- PSOL -->
      <g transform="translate(40.908125 325.153158)scale(0.1 -0.1)">
       <use xlink:href="#DejaVuSans-80"/>
       <use x="60.302734" xlink:href="#DejaVuSans-83"/>
       <use x="123.779297" xlink:href="#DejaVuSans-79"/>
       <use x="202.490234" xlink:href="#DejaVuSans-76"/>
      </g>
     </g>
    </g>
    <g id="ytick_29">
     <g id="line2d_38">
      <g>
       <use style="stroke:#000000;stroke-width:0.8;" x="73.73" xlink:href="#m870a9753b5" y="296.517932"/>
      </g>
     </g>
     <g id="text_39">
      <!-- AVANTE -->
      <g transform="translate(26.319063 300.317151)scale(0.1 -0.1)">
       <use xlink:href="#DejaVuSans-65"/>
       <use x="68.314453" xlink:href="#DejaVuSans-86"/>
       <use x="136.628906" xlink:href="#DejaVuSans-65"/>
       <use x="205.037109" xlink:href="#DejaVuSans-78"/>
       <use x="279.841797" xlink:href="#DejaVuSans-84"/>
       <use x="340.925781" xlink:href="#DejaVuSans-69"/>
      </g>
     </g>
    </g>
    <g id="ytick_30">
     <g id="line2d_39">
      <g>
       <use style="stroke:#000000;stroke-width:0.8;" x="73.73" xlink:href="#m870a9753b5" y="271.681925"/>
      </g>
     </g>
     <g id="text_40">
      <!-- PT DO B -->
      <g transform="translate(25.803438 275.481144)scale(0.1 -0.1)">
       <use xlink:href="#DejaVuSans-80"/>
       <use x="60.302734" xlink:href="#DejaVuSans-84"/>
       <use x="121.386719" xlink:href="#DejaVuSans-32"/>
       <use x="153.173828" xlink:href="#DejaVuSans-68"/>
       <use x="230.175781" xlink:href="#DejaVuSans-79"/>
       <use x="308.886719" xlink:href="#DejaVuSans-32"/>
       <use x="340.673828" xlink:href="#DejaVuSans-66"/>
      </g>
     </g>
    </g>
    <g id="ytick_31">
     <g id="line2d_40">
      <g>
       <use style="stroke:#000000;stroke-width:0.8;" x="73.73" xlink:href="#m870a9753b5" y="246.845918"/>
      </g>
     </g>
     <g id="text_41">
      <!-- MDB -->
      <g transform="translate(43.540937 250.645136)scale(0.1 -0.1)">
       <use xlink:href="#DejaVuSans-77"/>
       <use x="86.279297" xlink:href="#DejaVuSans-68"/>
       <use x="163.28125" xlink:href="#DejaVuSans-66"/>
      </g>
     </g>
    </g>
    <g id="ytick_32">
     <g id="line2d_41">
      <g>
       <use style="stroke:#000000;stroke-width:0.8;" x="73.73" xlink:href="#m870a9753b5" y="222.009911"/>
      </g>
     </g>
     <g id="text_42">
      <!-- PTB -->
      <g transform="translate(47.731563 225.809129)scale(0.1 -0.1)">
       <use xlink:href="#DejaVuSans-80"/>
       <use x="60.302734" xlink:href="#DejaVuSans-84"/>
       <use x="121.386719" xlink:href="#DejaVuSans-66"/>
      </g>
     </g>
    </g>
    <g id="ytick_33">
     <g id="line2d_42">
      <g>
       <use style="stroke:#000000;stroke-width:0.8;" x="73.73" xlink:href="#m870a9753b5" y="197.173903"/>
      </g>
     </g>
     <g id="text_43">
      <!-- PCB -->
      <g transform="translate(46.856563 200.973122)scale(0.1 -0.1)">
       <use xlink:href="#DejaVuSans-80"/>
       <use x="60.302734" xlink:href="#DejaVuSans-67"/>
       <use x="130.126953" xlink:href="#DejaVuSans-66"/>
      </g>
     </g>
    </g>
    <g id="ytick_34">
     <g id="line2d_43">
      <g>
       <use style="stroke:#000000;stroke-width:0.8;" x="73.73" xlink:href="#m870a9753b5" y="172.337896"/>
      </g>
     </g>
     <g id="text_44">
      <!-- PMN -->
      <g transform="translate(44.590938 176.137115)scale(0.1 -0.1)">
       <use xlink:href="#DejaVuSans-80"/>
       <use x="60.302734" xlink:href="#DejaVuSans-77"/>
       <use x="146.582031" xlink:href="#DejaVuSans-78"/>
      </g>
     </g>
    </g>
    <g id="ytick_35">
     <g id="line2d_44">
      <g>
       <use style="stroke:#000000;stroke-width:0.8;" x="73.73" xlink:href="#m870a9753b5" y="147.501889"/>
      </g>
     </g>
     <g id="text_45">
      <!-- PSTU -->
      <defs>
       <path d="M 8.6875 72.90625 
L 18.609375 72.90625 
L 18.609375 28.609375 
Q 18.609375 16.890625 22.84375 11.734375 
Q 27.09375 6.59375 36.625 6.59375 
Q 46.09375 6.59375 50.34375 11.734375 
Q 54.59375 16.890625 54.59375 28.609375 
L 54.59375 72.90625 
L 64.5 72.90625 
L 64.5 27.390625 
Q 64.5 13.140625 57.4375 5.859375 
Q 50.390625 -1.421875 36.625 -1.421875 
Q 22.796875 -1.421875 15.734375 5.859375 
Q 8.6875 13.140625 8.6875 27.390625 
z
" id="DejaVuSans-85"/>
      </defs>
      <g transform="translate(40.925313 151.301108)scale(0.1 -0.1)">
       <use xlink:href="#DejaVuSans-80"/>
       <use x="60.302734" xlink:href="#DejaVuSans-83"/>
       <use x="123.779297" xlink:href="#DejaVuSans-84"/>
       <use x="184.863281" xlink:href="#DejaVuSans-85"/>
      </g>
     </g>
    </g>
    <g id="ytick_36">
     <g id="line2d_45">
      <g>
       <use style="stroke:#000000;stroke-width:0.8;" x="73.73" xlink:href="#m870a9753b5" y="122.665882"/>
      </g>
     </g>
     <g id="text_46">
      <!-- SD -->
      <g transform="translate(52.681563 126.465101)scale(0.1 -0.1)">
       <use xlink:href="#DejaVuSans-83"/>
       <use x="63.476562" xlink:href="#DejaVuSans-68"/>
      </g>
     </g>
    </g>
    <g id="ytick_37">
     <g id="line2d_46">
      <g>
       <use style="stroke:#000000;stroke-width:0.8;" x="73.73" xlink:href="#m870a9753b5" y="97.829875"/>
      </g>
     </g>
     <g id="text_47">
      <!-- PRB -->
      <g transform="translate(46.890938 101.629094)scale(0.1 -0.1)">
       <use xlink:href="#DejaVuSans-80"/>
       <use x="60.302734" xlink:href="#DejaVuSans-82"/>
       <use x="129.785156" xlink:href="#DejaVuSans-66"/>
      </g>
     </g>
    </g>
    <g id="ytick_38">
     <g id="line2d_47">
      <g>
       <use style="stroke:#000000;stroke-width:0.8;" x="73.73" xlink:href="#m870a9753b5" y="72.993868"/>
      </g>
     </g>
     <g id="text_48">
      <!-- PMB -->
      <g transform="translate(45.21125 76.793086)scale(0.1 -0.1)">
       <use xlink:href="#DejaVuSans-80"/>
       <use x="60.302734" xlink:href="#DejaVuSans-77"/>
       <use x="146.582031" xlink:href="#DejaVuSans-66"/>
      </g>
     </g>
    </g>
    <g id="text_49">
     <!-- Partidos -->
     <defs>
      <path d="M 18.3125 70.21875 
L 18.3125 54.6875 
L 36.8125 54.6875 
L 36.8125 47.703125 
L 18.3125 47.703125 
L 18.3125 18.015625 
Q 18.3125 11.328125 20.140625 9.421875 
Q 21.96875 7.515625 27.59375 7.515625 
L 36.8125 7.515625 
L 36.8125 0 
L 27.59375 0 
Q 17.1875 0 13.234375 3.875 
Q 9.28125 7.765625 9.28125 18.015625 
L 9.28125 47.703125 
L 2.6875 47.703125 
L 2.6875 54.6875 
L 9.28125 54.6875 
L 9.28125 70.21875 
z
" id="DejaVuSans-116"/>
      <path d="M 9.421875 54.6875 
L 18.40625 54.6875 
L 18.40625 0 
L 9.421875 0 
z
M 9.421875 75.984375 
L 18.40625 75.984375 
L 18.40625 64.59375 
L 9.421875 64.59375 
z
" id="DejaVuSans-105"/>
      <path d="M 45.40625 46.390625 
L 45.40625 75.984375 
L 54.390625 75.984375 
L 54.390625 0 
L 45.40625 0 
L 45.40625 8.203125 
Q 42.578125 3.328125 38.25 0.953125 
Q 33.9375 -1.421875 27.875 -1.421875 
Q 17.96875 -1.421875 11.734375 6.484375 
Q 5.515625 14.40625 5.515625 27.296875 
Q 5.515625 40.1875 11.734375 48.09375 
Q 17.96875 56 27.875 56 
Q 33.9375 56 38.25 53.625 
Q 42.578125 51.265625 45.40625 46.390625 
z
M 14.796875 27.296875 
Q 14.796875 17.390625 18.875 11.75 
Q 22.953125 6.109375 30.078125 6.109375 
Q 37.203125 6.109375 41.296875 11.75 
Q 45.40625 17.390625 45.40625 27.296875 
Q 45.40625 37.203125 41.296875 42.84375 
Q 37.203125 48.484375 30.078125 48.484375 
Q 22.953125 48.484375 18.875 42.84375 
Q 14.796875 37.203125 14.796875 27.296875 
z
" id="DejaVuSans-100"/>
      <path d="M 44.28125 53.078125 
L 44.28125 44.578125 
Q 40.484375 46.53125 36.375 47.5 
Q 32.28125 48.484375 27.875 48.484375 
Q 21.1875 48.484375 17.84375 46.4375 
Q 14.5 44.390625 14.5 40.28125 
Q 14.5 37.15625 16.890625 35.375 
Q 19.28125 33.59375 26.515625 31.984375 
L 29.59375 31.296875 
Q 39.15625 29.25 43.1875 25.515625 
Q 47.21875 21.78125 47.21875 15.09375 
Q 47.21875 7.46875 41.1875 3.015625 
Q 35.15625 -1.421875 24.609375 -1.421875 
Q 20.21875 -1.421875 15.453125 -0.5625 
Q 10.6875 0.296875 5.421875 2 
L 5.421875 11.28125 
Q 10.40625 8.6875 15.234375 7.390625 
Q 20.0625 6.109375 24.8125 6.109375 
Q 31.15625 6.109375 34.5625 8.28125 
Q 37.984375 10.453125 37.984375 14.40625 
Q 37.984375 18.0625 35.515625 20.015625 
Q 33.0625 21.96875 24.703125 23.78125 
L 21.578125 24.515625 
Q 13.234375 26.265625 9.515625 29.90625 
Q 5.8125 33.546875 5.8125 39.890625 
Q 5.8125 47.609375 11.28125 51.796875 
Q 16.75 56 26.8125 56 
Q 31.78125 56 36.171875 55.265625 
Q 40.578125 54.546875 44.28125 53.078125 
z
" id="DejaVuSans-115"/>
     </defs>
     <g transform="translate(18.84875 552.77875)rotate(-90)scale(0.1 -0.1)">
      <use xlink:href="#DejaVuSans-80"/>
      <use x="60.240234" xlink:href="#DejaVuSans-97"/>
      <use x="121.519531" xlink:href="#DejaVuSans-114"/>
      <use x="162.632812" xlink:href="#DejaVuSans-116"/>
      <use x="201.841797" xlink:href="#DejaVuSans-105"/>
      <use x="229.625" xlink:href="#DejaVuSans-100"/>
      <use x="293.101562" xlink:href="#DejaVuSans-111"/>
      <use x="354.283203" xlink:href="#DejaVuSans-115"/>
     </g>
    </g>
   </g>
   <g id="line2d_48">
    <path clip-path="url(#p2148b15770)" d="M 387.505 1038.04 
L 387.505 26.88 
" style="fill:none;stroke:#000000;stroke-dasharray:14.8,6.4;stroke-dashoffset:0;stroke-width:4;"/>
   </g>
   <g id="line2d_49">
    <path clip-path="url(#p2148b15770)" d="M 335.57594 1038.04 
L 335.57594 26.88 
" style="fill:none;stroke:#008000;stroke-linecap:square;stroke-width:2;"/>
   </g>
   <g id="text_50">
    <!-- Proporcao de genero em Partidos Politicos -->
    <defs>
     <path d="M 56.203125 29.59375 
L 56.203125 25.203125 
L 14.890625 25.203125 
Q 15.484375 15.921875 20.484375 11.0625 
Q 25.484375 6.203125 34.421875 6.203125 
Q 39.59375 6.203125 44.453125 7.46875 
Q 49.3125 8.734375 54.109375 11.28125 
L 54.109375 2.78125 
Q 49.265625 0.734375 44.1875 -0.34375 
Q 39.109375 -1.421875 33.890625 -1.421875 
Q 20.796875 -1.421875 13.15625 6.1875 
Q 5.515625 13.8125 5.515625 26.8125 
Q 5.515625 40.234375 12.765625 48.109375 
Q 20.015625 56 32.328125 56 
Q 43.359375 56 49.78125 48.890625 
Q 56.203125 41.796875 56.203125 29.59375 
z
M 47.21875 32.234375 
Q 47.125 39.59375 43.09375 43.984375 
Q 39.0625 48.390625 32.421875 48.390625 
Q 24.90625 48.390625 20.390625 44.140625 
Q 15.875 39.890625 15.1875 32.171875 
z
" id="DejaVuSans-101"/>
     <path d="M 45.40625 27.984375 
Q 45.40625 37.75 41.375 43.109375 
Q 37.359375 48.484375 30.078125 48.484375 
Q 22.859375 48.484375 18.828125 43.109375 
Q 14.796875 37.75 14.796875 27.984375 
Q 14.796875 18.265625 18.828125 12.890625 
Q 22.859375 7.515625 30.078125 7.515625 
Q 37.359375 7.515625 41.375 12.890625 
Q 45.40625 18.265625 45.40625 27.984375 
z
M 54.390625 6.78125 
Q 54.390625 -7.171875 48.1875 -13.984375 
Q 42 -20.796875 29.203125 -20.796875 
Q 24.46875 -20.796875 20.265625 -20.09375 
Q 16.0625 -19.390625 12.109375 -17.921875 
L 12.109375 -9.1875 
Q 16.0625 -11.328125 19.921875 -12.34375 
Q 23.78125 -13.375 27.78125 -13.375 
Q 36.625 -13.375 41.015625 -8.765625 
Q 45.40625 -4.15625 45.40625 5.171875 
L 45.40625 9.625 
Q 42.625 4.78125 38.28125 2.390625 
Q 33.9375 0 27.875 0 
Q 17.828125 0 11.671875 7.65625 
Q 5.515625 15.328125 5.515625 27.984375 
Q 5.515625 40.671875 11.671875 48.328125 
Q 17.828125 56 27.875 56 
Q 33.9375 56 38.28125 53.609375 
Q 42.625 51.21875 45.40625 46.390625 
L 45.40625 54.6875 
L 54.390625 54.6875 
z
" id="DejaVuSans-103"/>
     <path d="M 54.890625 33.015625 
L 54.890625 0 
L 45.90625 0 
L 45.90625 32.71875 
Q 45.90625 40.484375 42.875 44.328125 
Q 39.84375 48.1875 33.796875 48.1875 
Q 26.515625 48.1875 22.3125 43.546875 
Q 18.109375 38.921875 18.109375 30.90625 
L 18.109375 0 
L 9.078125 0 
L 9.078125 54.6875 
L 18.109375 54.6875 
L 18.109375 46.1875 
Q 21.34375 51.125 25.703125 53.5625 
Q 30.078125 56 35.796875 56 
Q 45.21875 56 50.046875 50.171875 
Q 54.890625 44.34375 54.890625 33.015625 
z
" id="DejaVuSans-110"/>
     <path d="M 52 44.1875 
Q 55.375 50.25 60.0625 53.125 
Q 64.75 56 71.09375 56 
Q 79.640625 56 84.28125 50.015625 
Q 88.921875 44.046875 88.921875 33.015625 
L 88.921875 0 
L 79.890625 0 
L 79.890625 32.71875 
Q 79.890625 40.578125 77.09375 44.375 
Q 74.3125 48.1875 68.609375 48.1875 
Q 61.625 48.1875 57.5625 43.546875 
Q 53.515625 38.921875 53.515625 30.90625 
L 53.515625 0 
L 44.484375 0 
L 44.484375 32.71875 
Q 44.484375 40.625 41.703125 44.40625 
Q 38.921875 48.1875 33.109375 48.1875 
Q 26.21875 48.1875 22.15625 43.53125 
Q 18.109375 38.875 18.109375 30.90625 
L 18.109375 0 
L 9.078125 0 
L 9.078125 54.6875 
L 18.109375 54.6875 
L 18.109375 46.1875 
Q 21.1875 51.21875 25.484375 53.609375 
Q 29.78125 56 35.6875 56 
Q 41.65625 56 45.828125 52.96875 
Q 50 49.953125 52 44.1875 
z
" id="DejaVuSans-109"/>
     <path d="M 9.421875 75.984375 
L 18.40625 75.984375 
L 18.40625 0 
L 9.421875 0 
z
" id="DejaVuSans-108"/>
    </defs>
    <g transform="translate(260.339687 20.88)scale(0.12 -0.12)">
     <use xlink:href="#DejaVuSans-80"/>
     <use x="60.287109" xlink:href="#DejaVuSans-114"/>
     <use x="101.369141" xlink:href="#DejaVuSans-111"/>
     <use x="162.550781" xlink:href="#DejaVuSans-112"/>
     <use x="226.027344" xlink:href="#DejaVuSans-111"/>
     <use x="287.208984" xlink:href="#DejaVuSans-114"/>
     <use x="328.291016" xlink:href="#DejaVuSans-99"/>
     <use x="383.271484" xlink:href="#DejaVuSans-97"/>
     <use x="444.550781" xlink:href="#DejaVuSans-111"/>
     <use x="505.732422" xlink:href="#DejaVuSans-32"/>
     <use x="537.519531" xlink:href="#DejaVuSans-100"/>
     <use x="600.996094" xlink:href="#DejaVuSans-101"/>
     <use x="662.519531" xlink:href="#DejaVuSans-32"/>
     <use x="694.306641" xlink:href="#DejaVuSans-103"/>
     <use x="757.783203" xlink:href="#DejaVuSans-101"/>
     <use x="819.306641" xlink:href="#DejaVuSans-110"/>
     <use x="882.685547" xlink:href="#DejaVuSans-101"/>
     <use x="944.208984" xlink:href="#DejaVuSans-114"/>
     <use x="985.291016" xlink:href="#DejaVuSans-111"/>
     <use x="1046.472656" xlink:href="#DejaVuSans-32"/>
     <use x="1078.259766" xlink:href="#DejaVuSans-101"/>
     <use x="1139.783203" xlink:href="#DejaVuSans-109"/>
     <use x="1237.195312" xlink:href="#DejaVuSans-32"/>
     <use x="1268.982422" xlink:href="#DejaVuSans-80"/>
     <use x="1329.222656" xlink:href="#DejaVuSans-97"/>
     <use x="1390.501953" xlink:href="#DejaVuSans-114"/>
     <use x="1431.615234" xlink:href="#DejaVuSans-116"/>
     <use x="1470.824219" xlink:href="#DejaVuSans-105"/>
     <use x="1498.607422" xlink:href="#DejaVuSans-100"/>
     <use x="1562.083984" xlink:href="#DejaVuSans-111"/>
     <use x="1623.265625" xlink:href="#DejaVuSans-115"/>
     <use x="1675.365234" xlink:href="#DejaVuSans-32"/>
     <use x="1707.152344" xlink:href="#DejaVuSans-80"/>
     <use x="1767.408203" xlink:href="#DejaVuSans-111"/>
     <use x="1828.589844" xlink:href="#DejaVuSans-108"/>
     <use x="1856.373047" xlink:href="#DejaVuSans-105"/>
     <use x="1884.15625" xlink:href="#DejaVuSans-116"/>
     <use x="1923.365234" xlink:href="#DejaVuSans-105"/>
     <use x="1951.148438" xlink:href="#DejaVuSans-99"/>
     <use x="2006.128906" xlink:href="#DejaVuSans-111"/>
     <use x="2067.310547" xlink:href="#DejaVuSans-115"/>
    </g>
   </g>
   <g id="legend_1">
    <g id="patch_3">
     <path d="M 497.437812 64.23625 
L 694.28 64.23625 
Q 696.28 64.23625 696.28 62.23625 
L 696.28 33.88 
Q 696.28 31.88 694.28 31.88 
L 497.437812 31.88 
Q 495.437812 31.88 495.437812 33.88 
L 495.437812 62.23625 
Q 495.437812 64.23625 497.437812 64.23625 
z
" style="fill:#ffffff;opacity:0.8;stroke:#cccccc;stroke-linejoin:miter;"/>
    </g>
    <g id="line2d_50">
     <path d="M 499.437812 39.978437 
L 519.437812 39.978437 
" style="fill:none;stroke:#000000;stroke-dasharray:14.8,6.4;stroke-dashoffset:0;stroke-width:4;"/>
    </g>
    <g id="line2d_51"/>
    <g id="text_51">
     <!-- Equidade de mulheres e homens -->
     <defs>
      <path d="M 14.796875 27.296875 
Q 14.796875 17.390625 18.875 11.75 
Q 22.953125 6.109375 30.078125 6.109375 
Q 37.203125 6.109375 41.296875 11.75 
Q 45.40625 17.390625 45.40625 27.296875 
Q 45.40625 37.203125 41.296875 42.84375 
Q 37.203125 48.484375 30.078125 48.484375 
Q 22.953125 48.484375 18.875 42.84375 
Q 14.796875 37.203125 14.796875 27.296875 
z
M 45.40625 8.203125 
Q 42.578125 3.328125 38.25 0.953125 
Q 33.9375 -1.421875 27.875 -1.421875 
Q 17.96875 -1.421875 11.734375 6.484375 
Q 5.515625 14.40625 5.515625 27.296875 
Q 5.515625 40.1875 11.734375 48.09375 
Q 17.96875 56 27.875 56 
Q 33.9375 56 38.25 53.625 
Q 42.578125 51.265625 45.40625 46.390625 
L 45.40625 54.6875 
L 54.390625 54.6875 
L 54.390625 -20.796875 
L 45.40625 -20.796875 
z
" id="DejaVuSans-113"/>
      <path d="M 8.5 21.578125 
L 8.5 54.6875 
L 17.484375 54.6875 
L 17.484375 21.921875 
Q 17.484375 14.15625 20.5 10.265625 
Q 23.53125 6.390625 29.59375 6.390625 
Q 36.859375 6.390625 41.078125 11.03125 
Q 45.3125 15.671875 45.3125 23.6875 
L 45.3125 54.6875 
L 54.296875 54.6875 
L 54.296875 0 
L 45.3125 0 
L 45.3125 8.40625 
Q 42.046875 3.421875 37.71875 1 
Q 33.40625 -1.421875 27.6875 -1.421875 
Q 18.265625 -1.421875 13.375 4.4375 
Q 8.5 10.296875 8.5 21.578125 
z
M 31.109375 56 
z
" id="DejaVuSans-117"/>
      <path d="M 54.890625 33.015625 
L 54.890625 0 
L 45.90625 0 
L 45.90625 32.71875 
Q 45.90625 40.484375 42.875 44.328125 
Q 39.84375 48.1875 33.796875 48.1875 
Q 26.515625 48.1875 22.3125 43.546875 
Q 18.109375 38.921875 18.109375 30.90625 
L 18.109375 0 
L 9.078125 0 
L 9.078125 75.984375 
L 18.109375 75.984375 
L 18.109375 46.1875 
Q 21.34375 51.125 25.703125 53.5625 
Q 30.078125 56 35.796875 56 
Q 45.21875 56 50.046875 50.171875 
Q 54.890625 44.34375 54.890625 33.015625 
z
" id="DejaVuSans-104"/>
     </defs>
     <g transform="translate(527.437812 43.478437)scale(0.1 -0.1)">
      <use xlink:href="#DejaVuSans-69"/>
      <use x="63.183594" xlink:href="#DejaVuSans-113"/>
      <use x="126.660156" xlink:href="#DejaVuSans-117"/>
      <use x="190.039062" xlink:href="#DejaVuSans-105"/>
      <use x="217.822266" xlink:href="#DejaVuSans-100"/>
      <use x="281.298828" xlink:href="#DejaVuSans-97"/>
      <use x="342.578125" xlink:href="#DejaVuSans-100"/>
      <use x="406.054688" xlink:href="#DejaVuSans-101"/>
      <use x="467.578125" xlink:href="#DejaVuSans-32"/>
      <use x="499.365234" xlink:href="#DejaVuSans-100"/>
      <use x="562.841797" xlink:href="#DejaVuSans-101"/>
      <use x="624.365234" xlink:href="#DejaVuSans-32"/>
      <use x="656.152344" xlink:href="#DejaVuSans-109"/>
      <use x="753.564453" xlink:href="#DejaVuSans-117"/>
      <use x="816.943359" xlink:href="#DejaVuSans-108"/>
      <use x="844.726562" xlink:href="#DejaVuSans-104"/>
      <use x="908.105469" xlink:href="#DejaVuSans-101"/>
      <use x="969.628906" xlink:href="#DejaVuSans-114"/>
      <use x="1010.710938" xlink:href="#DejaVuSans-101"/>
      <use x="1072.234375" xlink:href="#DejaVuSans-115"/>
      <use x="1124.333984" xlink:href="#DejaVuSans-32"/>
      <use x="1156.121094" xlink:href="#DejaVuSans-101"/>
      <use x="1217.644531" xlink:href="#DejaVuSans-32"/>
      <use x="1249.431641" xlink:href="#DejaVuSans-104"/>
      <use x="1312.810547" xlink:href="#DejaVuSans-111"/>
      <use x="1373.992188" xlink:href="#DejaVuSans-109"/>
      <use x="1471.404297" xlink:href="#DejaVuSans-101"/>
      <use x="1532.927734" xlink:href="#DejaVuSans-110"/>
      <use x="1596.306641" xlink:href="#DejaVuSans-115"/>
     </g>
    </g>
    <g id="line2d_52">
     <path d="M 499.437812 54.656562 
L 519.437812 54.656562 
" style="fill:none;stroke:#008000;stroke-linecap:square;stroke-width:2;"/>
    </g>
    <g id="line2d_53"/>
    <g id="text_52">
     <!-- Proporcao Media de Mulheres -->
     <g transform="translate(527.437812 58.156562)scale(0.1 -0.1)">
      <use xlink:href="#DejaVuSans-80"/>
      <use x="60.287109" xlink:href="#DejaVuSans-114"/>
      <use x="101.369141" xlink:href="#DejaVuSans-111"/>
      <use x="162.550781" xlink:href="#DejaVuSans-112"/>
      <use x="226.027344" xlink:href="#DejaVuSans-111"/>
      <use x="287.208984" xlink:href="#DejaVuSans-114"/>
      <use x="328.291016" xlink:href="#DejaVuSans-99"/>
      <use x="383.271484" xlink:href="#DejaVuSans-97"/>
      <use x="444.550781" xlink:href="#DejaVuSans-111"/>
      <use x="505.732422" xlink:href="#DejaVuSans-32"/>
      <use x="537.519531" xlink:href="#DejaVuSans-77"/>
      <use x="623.798828" xlink:href="#DejaVuSans-101"/>
      <use x="685.322266" xlink:href="#DejaVuSans-100"/>
      <use x="748.798828" xlink:href="#DejaVuSans-105"/>
      <use x="776.582031" xlink:href="#DejaVuSans-97"/>
      <use x="837.861328" xlink:href="#DejaVuSans-32"/>
      <use x="869.648438" xlink:href="#DejaVuSans-100"/>
      <use x="933.125" xlink:href="#DejaVuSans-101"/>
      <use x="994.648438" xlink:href="#DejaVuSans-32"/>
      <use x="1026.435547" xlink:href="#DejaVuSans-77"/>
      <use x="1112.714844" xlink:href="#DejaVuSans-117"/>
      <use x="1176.09375" xlink:href="#DejaVuSans-108"/>
      <use x="1203.876953" xlink:href="#DejaVuSans-104"/>
      <use x="1267.255859" xlink:href="#DejaVuSans-101"/>
      <use x="1328.779297" xlink:href="#DejaVuSans-114"/>
      <use x="1369.861328" xlink:href="#DejaVuSans-101"/>
      <use x="1431.384766" xlink:href="#DejaVuSans-115"/>
     </g>
    </g>
   </g>
  </g>
 </g>
 <defs>
  <clipPath id="p2148b15770">
   <rect height="1011.16" width="627.55" x="73.73" y="26.88"/>
  </clipPath>
 </defs>
</svg>
