<?xml version="1.0" encoding="utf-8" standalone="no"?>
<!DOCTYPE svg PUBLIC "-//W3C//DTD SVG 1.1//EN"
  "http://www.w3.org/Graphics/SVG/1.1/DTD/svg11.dtd">
<!-- Created with matplotlib (https://matplotlib.org/) -->
<svg height="1080pt" version="1.1" viewBox="0 0 720 1080" width="720pt" xmlns="http://www.w3.org/2000/svg" xmlns:xlink="http://www.w3.org/1999/xlink">
 <defs>
  <style type="text/css">
*{stroke-linecap:butt;stroke-linejoin:round;}
  </style>
 </defs>
 <g id="figure_1">
  <g id="patch_1">
   <path d="M 0 1080 
L 720 1080 
L 720 0 
L 0 0 
z
" style="fill:#ffffff;"/>
  </g>
  <g id="axes_1">
   <g id="patch_2">
    <path d="M 73.73 1038.04 
L 706.68 1038.04 
L 706.68 26.88 
L 73.73 26.88 
z
" style="fill:#ffffff;"/>
   </g>
   <g id="patch_3">
    <path clip-path="url(#p042b1f0932)" d="M 362.331077 992.078182 
L 361.979119 992.078182 
L 361.979119 983.464186 
L 362.331077 983.464186 
z
" style="fill:#ff0000;opacity:0.8;"/>
   </g>
   <g id="patch_4">
    <path clip-path="url(#p042b1f0932)" d="M 362.331077 967.466766 
L 361.375516 967.466766 
L 361.375516 958.852771 
L 362.331077 958.852771 
z
" style="fill:#ff0000;opacity:0.8;"/>
   </g>
   <g id="patch_5">
    <path clip-path="url(#p042b1f0932)" d="M 362.331077 942.855351 
L 360.736175 942.855351 
L 360.736175 934.241356 
L 362.331077 934.241356 
z
" style="fill:#ff0000;opacity:0.8;"/>
   </g>
   <g id="patch_6">
    <path clip-path="url(#p042b1f0932)" d="M 362.331077 918.243936 
L 360.43918 918.243936 
L 360.43918 909.62994 
L 362.331077 909.62994 
z
" style="fill:#ff0000;opacity:0.8;"/>
   </g>
   <g id="patch_7">
    <path clip-path="url(#p042b1f0932)" d="M 362.331077 893.63252 
L 360.184085 893.63252 
L 360.184085 885.018525 
L 362.331077 885.018525 
z
" style="fill:#ff0000;opacity:0.8;"/>
   </g>
   <g id="patch_8">
    <path clip-path="url(#p042b1f0932)" d="M 362.331077 869.021105 
L 358.13223 869.021105 
L 358.13223 860.40711 
L 362.331077 860.40711 
z
" style="fill:#ff0000;opacity:0.8;"/>
   </g>
   <g id="patch_9">
    <path clip-path="url(#p042b1f0932)" d="M 362.331077 844.40969 
L 356.671162 844.40969 
L 356.671162 835.795694 
L 362.331077 835.795694 
z
" style="fill:#ff0000;opacity:0.8;"/>
   </g>
   <g id="patch_10">
    <path clip-path="url(#p042b1f0932)" d="M 362.331077 819.798274 
L 354.729971 819.798274 
L 354.729971 811.184279 
L 362.331077 811.184279 
z
" style="fill:#ff0000;opacity:0.8;"/>
   </g>
   <g id="patch_11">
    <path clip-path="url(#p042b1f0932)" d="M 362.331077 795.186859 
L 352.937648 795.186859 
L 352.937648 786.572864 
L 362.331077 786.572864 
z
" style="fill:#ff0000;opacity:0.8;"/>
   </g>
   <g id="patch_12">
    <path clip-path="url(#p042b1f0932)" d="M 362.331077 770.575444 
L 347.8769 770.575444 
L 347.8769 761.961448 
L 362.331077 761.961448 
z
" style="fill:#ff0000;opacity:0.8;"/>
   </g>
   <g id="patch_13">
    <path clip-path="url(#p042b1f0932)" d="M 362.331077 745.964028 
L 346.094928 745.964028 
L 346.094928 737.350033 
L 362.331077 737.350033 
z
" style="fill:#ff0000;opacity:0.8;"/>
   </g>
   <g id="patch_14">
    <path clip-path="url(#p042b1f0932)" d="M 362.331077 721.352613 
L 345.750611 721.352613 
L 345.750611 712.738618 
L 362.331077 712.738618 
z
" style="fill:#ff0000;opacity:0.8;"/>
   </g>
   <g id="patch_15">
    <path clip-path="url(#p042b1f0932)" d="M 362.331077 696.741198 
L 345.17831 696.741198 
L 345.17831 688.127202 
L 362.331077 688.127202 
z
" style="fill:#ff0000;opacity:0.8;"/>
   </g>
   <g id="patch_16">
    <path clip-path="url(#p042b1f0932)" d="M 362.331077 672.129782 
L 342.319762 672.129782 
L 342.319762 663.515787 
L 362.331077 663.515787 
z
" style="fill:#ff0000;opacity:0.8;"/>
   </g>
   <g id="patch_17">
    <path clip-path="url(#p042b1f0932)" d="M 362.331077 647.518367 
L 342.314586 647.518367 
L 342.314586 638.904371 
L 362.331077 638.904371 
z
" style="fill:#ff0000;opacity:0.8;"/>
   </g>
   <g id="patch_18">
    <path clip-path="url(#p042b1f0932)" d="M 362.331077 622.906951 
L 342.298319 622.906951 
L 342.298319 614.292956 
L 362.331077 614.292956 
z
" style="fill:#ff0000;opacity:0.8;"/>
   </g>
   <g id="patch_19">
    <path clip-path="url(#p042b1f0932)" d="M 362.331077 598.295536 
L 342.079455 598.295536 
L 342.079455 589.681541 
L 362.331077 589.681541 
z
" style="fill:#ff0000;opacity:0.8;"/>
   </g>
   <g id="patch_20">
    <path clip-path="url(#p042b1f0932)" d="M 362.331077 573.684121 
L 341.406594 573.684121 
L 341.406594 565.070125 
L 362.331077 565.070125 
z
" style="fill:#ff0000;opacity:0.8;"/>
   </g>
   <g id="patch_21">
    <path clip-path="url(#p042b1f0932)" d="M 362.331077 549.072705 
L 339.480192 549.072705 
L 339.480192 540.45871 
L 362.331077 540.45871 
z
" style="fill:#ff0000;opacity:0.8;"/>
   </g>
   <g id="patch_22">
    <path clip-path="url(#p042b1f0932)" d="M 362.331077 524.46129 
L 338.960882 524.46129 
L 338.960882 515.847295 
L 362.331077 515.847295 
z
" style="fill:#ff0000;opacity:0.8;"/>
   </g>
   <g id="patch_23">
    <path clip-path="url(#p042b1f0932)" d="M 362.331077 499.849875 
L 338.239714 499.849875 
L 338.239714 491.235879 
L 362.331077 491.235879 
z
" style="fill:#ff0000;opacity:0.8;"/>
   </g>
   <g id="patch_24">
    <path clip-path="url(#p042b1f0932)" d="M 362.331077 475.238459 
L 338.17366 475.238459 
L 338.17366 466.624464 
L 362.331077 466.624464 
z
" style="fill:#ff0000;opacity:0.8;"/>
   </g>
   <g id="patch_25">
    <path clip-path="url(#p042b1f0932)" d="M 362.331077 450.627044 
L 335.316098 450.627044 
L 335.316098 442.013049 
L 362.331077 442.013049 
z
" style="fill:#ff0000;opacity:0.8;"/>
   </g>
   <g id="patch_26">
    <path clip-path="url(#p042b1f0932)" d="M 362.331077 426.015629 
L 329.764629 426.015629 
L 329.764629 417.401633 
L 362.331077 417.401633 
z
" style="fill:#ff0000;opacity:0.8;"/>
   </g>
   <g id="patch_27">
    <path clip-path="url(#p042b1f0932)" d="M 362.331077 401.404213 
L 324.522233 401.404213 
L 324.522233 392.790218 
L 362.331077 392.790218 
z
" style="fill:#ff0000;opacity:0.8;"/>
   </g>
   <g id="patch_28">
    <path clip-path="url(#p042b1f0932)" d="M 362.331077 376.792798 
L 319.543311 376.792798 
L 319.543311 368.178802 
L 362.331077 368.178802 
z
" style="fill:#ff0000;opacity:0.8;"/>
   </g>
   <g id="patch_29">
    <path clip-path="url(#p042b1f0932)" d="M 362.331077 352.181382 
L 317.543215 352.181382 
L 317.543215 343.567387 
L 362.331077 343.567387 
z
" style="fill:#ff0000;opacity:0.8;"/>
   </g>
   <g id="patch_30">
    <path clip-path="url(#p042b1f0932)" d="M 362.331077 327.569967 
L 313.762627 327.569967 
L 313.762627 318.955972 
L 362.331077 318.955972 
z
" style="fill:#ff0000;opacity:0.8;"/>
   </g>
   <g id="patch_31">
    <path clip-path="url(#p042b1f0932)" d="M 362.331077 302.958552 
L 313.185396 302.958552 
L 313.185396 294.344556 
L 362.331077 294.344556 
z
" style="fill:#ff0000;opacity:0.8;"/>
   </g>
   <g id="patch_32">
    <path clip-path="url(#p042b1f0932)" d="M 362.331077 278.347136 
L 296.674188 278.347136 
L 296.674188 269.733141 
L 362.331077 269.733141 
z
" style="fill:#ff0000;opacity:0.8;"/>
   </g>
   <g id="patch_33">
    <path clip-path="url(#p042b1f0932)" d="M 362.331077 253.735721 
L 276.79227 253.735721 
L 276.79227 245.121726 
L 362.331077 245.121726 
z
" style="fill:#ff0000;opacity:0.8;"/>
   </g>
   <g id="patch_34">
    <path clip-path="url(#p042b1f0932)" d="M 362.331077 229.124306 
L 247.20095 229.124306 
L 247.20095 220.51031 
L 362.331077 220.51031 
z
" style="fill:#ff0000;opacity:0.8;"/>
   </g>
   <g id="patch_35">
    <path clip-path="url(#p042b1f0932)" d="M 362.331077 204.51289 
L 232.775364 204.51289 
L 232.775364 195.898895 
L 362.331077 195.898895 
z
" style="fill:#ff0000;opacity:0.8;"/>
   </g>
   <g id="patch_36">
    <path clip-path="url(#p042b1f0932)" d="M 362.331077 179.901475 
L 227.494765 179.901475 
L 227.494765 171.28748 
L 362.331077 171.28748 
z
" style="fill:#ff0000;opacity:0.8;"/>
   </g>
   <g id="patch_37">
    <path clip-path="url(#p042b1f0932)" d="M 362.331077 155.29006 
L 207.378208 155.29006 
L 207.378208 146.676064 
L 362.331077 146.676064 
z
" style="fill:#ff0000;opacity:0.8;"/>
   </g>
   <g id="patch_38">
    <path clip-path="url(#p042b1f0932)" d="M 362.331077 130.678644 
L 205.220864 130.678644 
L 205.220864 122.064649 
L 362.331077 122.064649 
z
" style="fill:#ff0000;opacity:0.8;"/>
   </g>
   <g id="patch_39">
    <path clip-path="url(#p042b1f0932)" d="M 362.331077 106.067229 
L 190.79651 106.067229 
L 190.79651 97.453234 
L 362.331077 97.453234 
z
" style="fill:#ff0000;opacity:0.8;"/>
   </g>
   <g id="patch_40">
    <path clip-path="url(#p042b1f0932)" d="M 362.331077 81.455814 
L 102.500455 81.455814 
L 102.500455 72.841818 
L 362.331077 72.841818 
z
" style="fill:#ff0000;opacity:0.8;"/>
   </g>
   <g id="patch_41">
    <path clip-path="url(#p042b1f0932)" d="M 362.331077 992.078182 
L 362.873062 992.078182 
L 362.873062 983.464186 
L 362.331077 983.464186 
z
" style="fill:#0000ff;opacity:0.8;"/>
   </g>
   <g id="patch_42">
    <path clip-path="url(#p042b1f0932)" d="M 362.331077 967.466766 
L 367.713221 967.466766 
L 367.713221 958.852771 
L 362.331077 958.852771 
z
" style="fill:#0000ff;opacity:0.8;"/>
   </g>
   <g id="patch_43">
    <path clip-path="url(#p042b1f0932)" d="M 362.331077 942.855351 
L 364.25945 942.855351 
L 364.25945 934.241356 
L 362.331077 934.241356 
z
" style="fill:#0000ff;opacity:0.8;"/>
   </g>
   <g id="patch_44">
    <path clip-path="url(#p042b1f0932)" d="M 362.331077 918.243936 
L 364.569508 918.243936 
L 364.569508 909.62994 
L 362.331077 909.62994 
z
" style="fill:#0000ff;opacity:0.8;"/>
   </g>
   <g id="patch_45">
    <path clip-path="url(#p042b1f0932)" d="M 362.331077 893.63252 
L 365.885407 893.63252 
L 365.885407 885.018525 
L 362.331077 885.018525 
z
" style="fill:#0000ff;opacity:0.8;"/>
   </g>
   <g id="patch_46">
    <path clip-path="url(#p042b1f0932)" d="M 362.331077 869.021105 
L 367.787901 869.021105 
L 367.787901 860.40711 
L 362.331077 860.40711 
z
" style="fill:#0000ff;opacity:0.8;"/>
   </g>
   <g id="patch_47">
    <path clip-path="url(#p042b1f0932)" d="M 362.331077 844.40969 
L 366.931175 844.40969 
L 366.931175 835.795694 
L 362.331077 835.795694 
z
" style="fill:#0000ff;opacity:0.8;"/>
   </g>
   <g id="patch_48">
    <path clip-path="url(#p042b1f0932)" d="M 362.331077 819.798274 
L 373.893432 819.798274 
L 373.893432 811.184279 
L 362.331077 811.184279 
z
" style="fill:#0000ff;opacity:0.8;"/>
   </g>
   <g id="patch_49">
    <path clip-path="url(#p042b1f0932)" d="M 362.331077 795.186859 
L 376.154046 795.186859 
L 376.154046 786.572864 
L 362.331077 786.572864 
z
" style="fill:#0000ff;opacity:0.8;"/>
   </g>
   <g id="patch_50">
    <path clip-path="url(#p042b1f0932)" d="M 362.331077 770.575444 
L 381.130996 770.575444 
L 381.130996 761.961448 
L 362.331077 761.961448 
z
" style="fill:#0000ff;opacity:0.8;"/>
   </g>
   <g id="patch_51">
    <path clip-path="url(#p042b1f0932)" d="M 362.331077 745.964028 
L 382.128949 745.964028 
L 382.128949 737.350033 
L 362.331077 737.350033 
z
" style="fill:#0000ff;opacity:0.8;"/>
   </g>
   <g id="patch_52">
    <path clip-path="url(#p042b1f0932)" d="M 362.331077 721.352613 
L 384.420125 721.352613 
L 384.420125 712.738618 
L 362.331077 712.738618 
z
" style="fill:#0000ff;opacity:0.8;"/>
   </g>
   <g id="patch_53">
    <path clip-path="url(#p042b1f0932)" d="M 362.331077 696.741198 
L 385.231994 696.741198 
L 385.231994 688.127202 
L 362.331077 688.127202 
z
" style="fill:#0000ff;opacity:0.8;"/>
   </g>
   <g id="patch_54">
    <path clip-path="url(#p042b1f0932)" d="M 362.331077 672.129782 
L 387.159629 672.129782 
L 387.159629 663.515787 
L 362.331077 663.515787 
z
" style="fill:#0000ff;opacity:0.8;"/>
   </g>
   <g id="patch_55">
    <path clip-path="url(#p042b1f0932)" d="M 362.331077 647.518367 
L 386.702921 647.518367 
L 386.702921 638.904371 
L 362.331077 638.904371 
z
" style="fill:#0000ff;opacity:0.8;"/>
   </g>
   <g id="patch_56">
    <path clip-path="url(#p042b1f0932)" d="M 362.331077 622.906951 
L 387.193395 622.906951 
L 387.193395 614.292956 
L 362.331077 614.292956 
z
" style="fill:#0000ff;opacity:0.8;"/>
   </g>
   <g id="patch_57">
    <path clip-path="url(#p042b1f0932)" d="M 362.331077 598.295536 
L 387.013226 598.295536 
L 387.013226 589.681541 
L 362.331077 589.681541 
z
" style="fill:#0000ff;opacity:0.8;"/>
   </g>
   <g id="patch_58">
    <path clip-path="url(#p042b1f0932)" d="M 362.331077 573.684121 
L 389.142225 573.684121 
L 389.142225 565.070125 
L 362.331077 565.070125 
z
" style="fill:#0000ff;opacity:0.8;"/>
   </g>
   <g id="patch_59">
    <path clip-path="url(#p042b1f0932)" d="M 362.331077 549.072705 
L 391.121372 549.072705 
L 391.121372 540.45871 
L 362.331077 540.45871 
z
" style="fill:#0000ff;opacity:0.8;"/>
   </g>
   <g id="patch_60">
    <path clip-path="url(#p042b1f0932)" d="M 362.331077 524.46129 
L 389.844909 524.46129 
L 389.844909 515.847295 
L 362.331077 515.847295 
z
" style="fill:#0000ff;opacity:0.8;"/>
   </g>
   <g id="patch_61">
    <path clip-path="url(#p042b1f0932)" d="M 362.331077 499.849875 
L 391.354285 499.849875 
L 391.354285 491.235879 
L 362.331077 491.235879 
z
" style="fill:#0000ff;opacity:0.8;"/>
   </g>
   <g id="patch_62">
    <path clip-path="url(#p042b1f0932)" d="M 362.331077 475.238459 
L 396.003431 475.238459 
L 396.003431 466.624464 
L 362.331077 466.624464 
z
" style="fill:#0000ff;opacity:0.8;"/>
   </g>
   <g id="patch_63">
    <path clip-path="url(#p042b1f0932)" d="M 362.331077 450.627044 
L 395.467607 450.627044 
L 395.467607 442.013049 
L 362.331077 442.013049 
z
" style="fill:#0000ff;opacity:0.8;"/>
   </g>
   <g id="patch_64">
    <path clip-path="url(#p042b1f0932)" d="M 362.331077 426.015629 
L 408.075977 426.015629 
L 408.075977 417.401633 
L 362.331077 417.401633 
z
" style="fill:#0000ff;opacity:0.8;"/>
   </g>
   <g id="patch_65">
    <path clip-path="url(#p042b1f0932)" d="M 362.331077 401.404213 
L 414.926584 401.404213 
L 414.926584 392.790218 
L 362.331077 392.790218 
z
" style="fill:#0000ff;opacity:0.8;"/>
   </g>
   <g id="patch_66">
    <path clip-path="url(#p042b1f0932)" d="M 362.331077 376.792798 
L 414.888628 376.792798 
L 414.888628 368.178802 
L 362.331077 368.178802 
z
" style="fill:#0000ff;opacity:0.8;"/>
   </g>
   <g id="patch_67">
    <path clip-path="url(#p042b1f0932)" d="M 362.331077 352.181382 
L 419.002936 352.181382 
L 419.002936 343.567387 
L 362.331077 343.567387 
z
" style="fill:#0000ff;opacity:0.8;"/>
   </g>
   <g id="patch_68">
    <path clip-path="url(#p042b1f0932)" d="M 362.331077 327.569967 
L 429.296962 327.569967 
L 429.296962 318.955972 
L 362.331077 318.955972 
z
" style="fill:#0000ff;opacity:0.8;"/>
   </g>
   <g id="patch_69">
    <path clip-path="url(#p042b1f0932)" d="M 362.331077 302.958552 
L 408.820807 302.958552 
L 408.820807 294.344556 
L 362.331077 294.344556 
z
" style="fill:#0000ff;opacity:0.8;"/>
   </g>
   <g id="patch_70">
    <path clip-path="url(#p042b1f0932)" d="M 362.331077 278.347136 
L 448.387714 278.347136 
L 448.387714 269.733141 
L 362.331077 269.733141 
z
" style="fill:#0000ff;opacity:0.8;"/>
   </g>
   <g id="patch_71">
    <path clip-path="url(#p042b1f0932)" d="M 362.331077 253.735721 
L 468.240056 253.735721 
L 468.240056 245.121726 
L 362.331077 245.121726 
z
" style="fill:#0000ff;opacity:0.8;"/>
   </g>
   <g id="patch_72">
    <path clip-path="url(#p042b1f0932)" d="M 362.331077 229.124306 
L 509.686784 229.124306 
L 509.686784 220.51031 
L 362.331077 220.51031 
z
" style="fill:#0000ff;opacity:0.8;"/>
   </g>
   <g id="patch_73">
    <path clip-path="url(#p042b1f0932)" d="M 362.331077 204.51289 
L 519.67223 204.51289 
L 519.67223 195.898895 
L 362.331077 195.898895 
z
" style="fill:#0000ff;opacity:0.8;"/>
   </g>
   <g id="patch_74">
    <path clip-path="url(#p042b1f0932)" d="M 362.331077 179.901475 
L 529.652008 179.901475 
L 529.652008 171.28748 
L 362.331077 171.28748 
z
" style="fill:#0000ff;opacity:0.8;"/>
   </g>
   <g id="patch_75">
    <path clip-path="url(#p042b1f0932)" d="M 362.331077 155.29006 
L 554.300145 155.29006 
L 554.300145 146.676064 
L 362.331077 146.676064 
z
" style="fill:#0000ff;opacity:0.8;"/>
   </g>
   <g id="patch_76">
    <path clip-path="url(#p042b1f0932)" d="M 362.331077 130.678644 
L 556.180704 130.678644 
L 556.180704 122.064649 
L 362.331077 122.064649 
z
" style="fill:#0000ff;opacity:0.8;"/>
   </g>
   <g id="patch_77">
    <path clip-path="url(#p042b1f0932)" d="M 362.331077 106.067229 
L 574.081011 106.067229 
L 574.081011 97.453234 
L 362.331077 97.453234 
z
" style="fill:#0000ff;opacity:0.8;"/>
   </g>
   <g id="patch_78">
    <path clip-path="url(#p042b1f0932)" d="M 362.331077 81.455814 
L 677.909545 81.455814 
L 677.909545 72.841818 
L 362.331077 72.841818 
z
" style="fill:#0000ff;opacity:0.8;"/>
   </g>
   <g id="matplotlib.axis_1">
    <g id="xtick_1">
     <g id="line2d_1">
      <defs>
       <path d="M 0 0 
L 0 3.5 
" id="mb3d294a03b" style="stroke:#000000;stroke-width:0.8;"/>
      </defs>
      <g>
       <use style="stroke:#000000;stroke-width:0.8;" x="115.862034" xlink:href="#mb3d294a03b" y="1038.04"/>
      </g>
     </g>
     <g id="text_1">
      <!-- −1000000 -->
      <defs>
       <path d="M 10.59375 35.5 
L 73.1875 35.5 
L 73.1875 27.203125 
L 10.59375 27.203125 
z
" id="DejaVuSans-8722"/>
       <path d="M 12.40625 8.296875 
L 28.515625 8.296875 
L 28.515625 63.921875 
L 10.984375 60.40625 
L 10.984375 69.390625 
L 28.421875 72.90625 
L 38.28125 72.90625 
L 38.28125 8.296875 
L 54.390625 8.296875 
L 54.390625 0 
L 12.40625 0 
z
" id="DejaVuSans-49"/>
       <path d="M 31.78125 66.40625 
Q 24.171875 66.40625 20.328125 58.90625 
Q 16.5 51.421875 16.5 36.375 
Q 16.5 21.390625 20.328125 13.890625 
Q 24.171875 6.390625 31.78125 6.390625 
Q 39.453125 6.390625 43.28125 13.890625 
Q 47.125 21.390625 47.125 36.375 
Q 47.125 51.421875 43.28125 58.90625 
Q 39.453125 66.40625 31.78125 66.40625 
z
M 31.78125 74.21875 
Q 44.046875 74.21875 50.515625 64.515625 
Q 56.984375 54.828125 56.984375 36.375 
Q 56.984375 17.96875 50.515625 8.265625 
Q 44.046875 -1.421875 31.78125 -1.421875 
Q 19.53125 -1.421875 13.0625 8.265625 
Q 6.59375 17.96875 6.59375 36.375 
Q 6.59375 54.828125 13.0625 64.515625 
Q 19.53125 74.21875 31.78125 74.21875 
z
" id="DejaVuSans-48"/>
      </defs>
      <g transform="translate(89.403441 1052.638438)scale(0.1 -0.1)">
       <use xlink:href="#DejaVuSans-8722"/>
       <use x="83.789062" xlink:href="#DejaVuSans-49"/>
       <use x="147.412109" xlink:href="#DejaVuSans-48"/>
       <use x="211.035156" xlink:href="#DejaVuSans-48"/>
       <use x="274.658203" xlink:href="#DejaVuSans-48"/>
       <use x="338.28125" xlink:href="#DejaVuSans-48"/>
       <use x="401.904297" xlink:href="#DejaVuSans-48"/>
       <use x="465.527344" xlink:href="#DejaVuSans-48"/>
      </g>
     </g>
    </g>
    <g id="xtick_2">
     <g id="line2d_2">
      <g>
       <use style="stroke:#000000;stroke-width:0.8;" x="239.096555" xlink:href="#mb3d294a03b" y="1038.04"/>
      </g>
     </g>
     <g id="text_2">
      <!-- −500000 -->
      <defs>
       <path d="M 10.796875 72.90625 
L 49.515625 72.90625 
L 49.515625 64.59375 
L 19.828125 64.59375 
L 19.828125 46.734375 
Q 21.96875 47.46875 24.109375 47.828125 
Q 26.265625 48.1875 28.421875 48.1875 
Q 40.625 48.1875 47.75 41.5 
Q 54.890625 34.8125 54.890625 23.390625 
Q 54.890625 11.625 47.5625 5.09375 
Q 40.234375 -1.421875 26.90625 -1.421875 
Q 22.3125 -1.421875 17.546875 -0.640625 
Q 12.796875 0.140625 7.71875 1.703125 
L 7.71875 11.625 
Q 12.109375 9.234375 16.796875 8.0625 
Q 21.484375 6.890625 26.703125 6.890625 
Q 35.15625 6.890625 40.078125 11.328125 
Q 45.015625 15.765625 45.015625 23.390625 
Q 45.015625 31 40.078125 35.4375 
Q 35.15625 39.890625 26.703125 39.890625 
Q 22.75 39.890625 18.8125 39.015625 
Q 14.890625 38.140625 10.796875 36.28125 
z
" id="DejaVuSans-53"/>
      </defs>
      <g transform="translate(215.819212 1052.638438)scale(0.1 -0.1)">
       <use xlink:href="#DejaVuSans-8722"/>
       <use x="83.789062" xlink:href="#DejaVuSans-53"/>
       <use x="147.412109" xlink:href="#DejaVuSans-48"/>
       <use x="211.035156" xlink:href="#DejaVuSans-48"/>
       <use x="274.658203" xlink:href="#DejaVuSans-48"/>
       <use x="338.28125" xlink:href="#DejaVuSans-48"/>
       <use x="401.904297" xlink:href="#DejaVuSans-48"/>
      </g>
     </g>
    </g>
    <g id="xtick_3">
     <g id="line2d_3">
      <g>
       <use style="stroke:#000000;stroke-width:0.8;" x="362.331077" xlink:href="#mb3d294a03b" y="1038.04"/>
      </g>
     </g>
     <g id="text_3">
      <!-- 0 -->
      <g transform="translate(359.149827 1052.638438)scale(0.1 -0.1)">
       <use xlink:href="#DejaVuSans-48"/>
      </g>
     </g>
    </g>
    <g id="xtick_4">
     <g id="line2d_4">
      <g>
       <use style="stroke:#000000;stroke-width:0.8;" x="485.565598" xlink:href="#mb3d294a03b" y="1038.04"/>
      </g>
     </g>
     <g id="text_4">
      <!-- 500000 -->
      <g transform="translate(466.478098 1052.638438)scale(0.1 -0.1)">
       <use xlink:href="#DejaVuSans-53"/>
       <use x="63.623047" xlink:href="#DejaVuSans-48"/>
       <use x="127.246094" xlink:href="#DejaVuSans-48"/>
       <use x="190.869141" xlink:href="#DejaVuSans-48"/>
       <use x="254.492188" xlink:href="#DejaVuSans-48"/>
       <use x="318.115234" xlink:href="#DejaVuSans-48"/>
      </g>
     </g>
    </g>
    <g id="xtick_5">
     <g id="line2d_5">
      <g>
       <use style="stroke:#000000;stroke-width:0.8;" x="608.800119" xlink:href="#mb3d294a03b" y="1038.04"/>
      </g>
     </g>
     <g id="text_5">
      <!-- 1000000 -->
      <g transform="translate(586.531369 1052.638438)scale(0.1 -0.1)">
       <use xlink:href="#DejaVuSans-49"/>
       <use x="63.623047" xlink:href="#DejaVuSans-48"/>
       <use x="127.246094" xlink:href="#DejaVuSans-48"/>
       <use x="190.869141" xlink:href="#DejaVuSans-48"/>
       <use x="254.492188" xlink:href="#DejaVuSans-48"/>
       <use x="318.115234" xlink:href="#DejaVuSans-48"/>
       <use x="381.738281" xlink:href="#DejaVuSans-48"/>
      </g>
     </g>
    </g>
    <g id="text_6">
     <!-- Numero de Filiados -->
     <defs>
      <path d="M 9.8125 72.90625 
L 23.09375 72.90625 
L 55.421875 11.921875 
L 55.421875 72.90625 
L 64.984375 72.90625 
L 64.984375 0 
L 51.703125 0 
L 19.390625 60.984375 
L 19.390625 0 
L 9.8125 0 
z
" id="DejaVuSans-78"/>
      <path d="M 8.5 21.578125 
L 8.5 54.6875 
L 17.484375 54.6875 
L 17.484375 21.921875 
Q 17.484375 14.15625 20.5 10.265625 
Q 23.53125 6.390625 29.59375 6.390625 
Q 36.859375 6.390625 41.078125 11.03125 
Q 45.3125 15.671875 45.3125 23.6875 
L 45.3125 54.6875 
L 54.296875 54.6875 
L 54.296875 0 
L 45.3125 0 
L 45.3125 8.40625 
Q 42.046875 3.421875 37.71875 1 
Q 33.40625 -1.421875 27.6875 -1.421875 
Q 18.265625 -1.421875 13.375 4.4375 
Q 8.5 10.296875 8.5 21.578125 
z
M 31.109375 56 
z
" id="DejaVuSans-117"/>
      <path d="M 52 44.1875 
Q 55.375 50.25 60.0625 53.125 
Q 64.75 56 71.09375 56 
Q 79.640625 56 84.28125 50.015625 
Q 88.921875 44.046875 88.921875 33.015625 
L 88.921875 0 
L 79.890625 0 
L 79.890625 32.71875 
Q 79.890625 40.578125 77.09375 44.375 
Q 74.3125 48.1875 68.609375 48.1875 
Q 61.625 48.1875 57.5625 43.546875 
Q 53.515625 38.921875 53.515625 30.90625 
L 53.515625 0 
L 44.484375 0 
L 44.484375 32.71875 
Q 44.484375 40.625 41.703125 44.40625 
Q 38.921875 48.1875 33.109375 48.1875 
Q 26.21875 48.1875 22.15625 43.53125 
Q 18.109375 38.875 18.109375 30.90625 
L 18.109375 0 
L 9.078125 0 
L 9.078125 54.6875 
L 18.109375 54.6875 
L 18.109375 46.1875 
Q 21.1875 51.21875 25.484375 53.609375 
Q 29.78125 56 35.6875 56 
Q 41.65625 56 45.828125 52.96875 
Q 50 49.953125 52 44.1875 
z
" id="DejaVuSans-109"/>
      <path d="M 56.203125 29.59375 
L 56.203125 25.203125 
L 14.890625 25.203125 
Q 15.484375 15.921875 20.484375 11.0625 
Q 25.484375 6.203125 34.421875 6.203125 
Q 39.59375 6.203125 44.453125 7.46875 
Q 49.3125 8.734375 54.109375 11.28125 
L 54.109375 2.78125 
Q 49.265625 0.734375 44.1875 -0.34375 
Q 39.109375 -1.421875 33.890625 -1.421875 
Q 20.796875 -1.421875 13.15625 6.1875 
Q 5.515625 13.8125 5.515625 26.8125 
Q 5.515625 40.234375 12.765625 48.109375 
Q 20.015625 56 32.328125 56 
Q 43.359375 56 49.78125 48.890625 
Q 56.203125 41.796875 56.203125 29.59375 
z
M 47.21875 32.234375 
Q 47.125 39.59375 43.09375 43.984375 
Q 39.0625 48.390625 32.421875 48.390625 
Q 24.90625 48.390625 20.390625 44.140625 
Q 15.875 39.890625 15.1875 32.171875 
z
" id="DejaVuSans-101"/>
      <path d="M 41.109375 46.296875 
Q 39.59375 47.171875 37.8125 47.578125 
Q 36.03125 48 33.890625 48 
Q 26.265625 48 22.1875 43.046875 
Q 18.109375 38.09375 18.109375 28.8125 
L 18.109375 0 
L 9.078125 0 
L 9.078125 54.6875 
L 18.109375 54.6875 
L 18.109375 46.1875 
Q 20.953125 51.171875 25.484375 53.578125 
Q 30.03125 56 36.53125 56 
Q 37.453125 56 38.578125 55.875 
Q 39.703125 55.765625 41.0625 55.515625 
z
" id="DejaVuSans-114"/>
      <path d="M 30.609375 48.390625 
Q 23.390625 48.390625 19.1875 42.75 
Q 14.984375 37.109375 14.984375 27.296875 
Q 14.984375 17.484375 19.15625 11.84375 
Q 23.34375 6.203125 30.609375 6.203125 
Q 37.796875 6.203125 41.984375 11.859375 
Q 46.1875 17.53125 46.1875 27.296875 
Q 46.1875 37.015625 41.984375 42.703125 
Q 37.796875 48.390625 30.609375 48.390625 
z
M 30.609375 56 
Q 42.328125 56 49.015625 48.375 
Q 55.71875 40.765625 55.71875 27.296875 
Q 55.71875 13.875 49.015625 6.21875 
Q 42.328125 -1.421875 30.609375 -1.421875 
Q 18.84375 -1.421875 12.171875 6.21875 
Q 5.515625 13.875 5.515625 27.296875 
Q 5.515625 40.765625 12.171875 48.375 
Q 18.84375 56 30.609375 56 
z
" id="DejaVuSans-111"/>
      <path id="DejaVuSans-32"/>
      <path d="M 45.40625 46.390625 
L 45.40625 75.984375 
L 54.390625 75.984375 
L 54.390625 0 
L 45.40625 0 
L 45.40625 8.203125 
Q 42.578125 3.328125 38.25 0.953125 
Q 33.9375 -1.421875 27.875 -1.421875 
Q 17.96875 -1.421875 11.734375 6.484375 
Q 5.515625 14.40625 5.515625 27.296875 
Q 5.515625 40.1875 11.734375 48.09375 
Q 17.96875 56 27.875 56 
Q 33.9375 56 38.25 53.625 
Q 42.578125 51.265625 45.40625 46.390625 
z
M 14.796875 27.296875 
Q 14.796875 17.390625 18.875 11.75 
Q 22.953125 6.109375 30.078125 6.109375 
Q 37.203125 6.109375 41.296875 11.75 
Q 45.40625 17.390625 45.40625 27.296875 
Q 45.40625 37.203125 41.296875 42.84375 
Q 37.203125 48.484375 30.078125 48.484375 
Q 22.953125 48.484375 18.875 42.84375 
Q 14.796875 37.203125 14.796875 27.296875 
z
" id="DejaVuSans-100"/>
      <path d="M 9.8125 72.90625 
L 51.703125 72.90625 
L 51.703125 64.59375 
L 19.671875 64.59375 
L 19.671875 43.109375 
L 48.578125 43.109375 
L 48.578125 34.8125 
L 19.671875 34.8125 
L 19.671875 0 
L 9.8125 0 
z
" id="DejaVuSans-70"/>
      <path d="M 9.421875 54.6875 
L 18.40625 54.6875 
L 18.40625 0 
L 9.421875 0 
z
M 9.421875 75.984375 
L 18.40625 75.984375 
L 18.40625 64.59375 
L 9.421875 64.59375 
z
" id="DejaVuSans-105"/>
      <path d="M 9.421875 75.984375 
L 18.40625 75.984375 
L 18.40625 0 
L 9.421875 0 
z
" id="DejaVuSans-108"/>
      <path d="M 34.28125 27.484375 
Q 23.390625 27.484375 19.1875 25 
Q 14.984375 22.515625 14.984375 16.5 
Q 14.984375 11.71875 18.140625 8.90625 
Q 21.296875 6.109375 26.703125 6.109375 
Q 34.1875 6.109375 38.703125 11.40625 
Q 43.21875 16.703125 43.21875 25.484375 
L 43.21875 27.484375 
z
M 52.203125 31.203125 
L 52.203125 0 
L 43.21875 0 
L 43.21875 8.296875 
Q 40.140625 3.328125 35.546875 0.953125 
Q 30.953125 -1.421875 24.3125 -1.421875 
Q 15.921875 -1.421875 10.953125 3.296875 
Q 6 8.015625 6 15.921875 
Q 6 25.140625 12.171875 29.828125 
Q 18.359375 34.515625 30.609375 34.515625 
L 43.21875 34.515625 
L 43.21875 35.40625 
Q 43.21875 41.609375 39.140625 45 
Q 35.0625 48.390625 27.6875 48.390625 
Q 23 48.390625 18.546875 47.265625 
Q 14.109375 46.140625 10.015625 43.890625 
L 10.015625 52.203125 
Q 14.9375 54.109375 19.578125 55.046875 
Q 24.21875 56 28.609375 56 
Q 40.484375 56 46.34375 49.84375 
Q 52.203125 43.703125 52.203125 31.203125 
z
" id="DejaVuSans-97"/>
      <path d="M 44.28125 53.078125 
L 44.28125 44.578125 
Q 40.484375 46.53125 36.375 47.5 
Q 32.28125 48.484375 27.875 48.484375 
Q 21.1875 48.484375 17.84375 46.4375 
Q 14.5 44.390625 14.5 40.28125 
Q 14.5 37.15625 16.890625 35.375 
Q 19.28125 33.59375 26.515625 31.984375 
L 29.59375 31.296875 
Q 39.15625 29.25 43.1875 25.515625 
Q 47.21875 21.78125 47.21875 15.09375 
Q 47.21875 7.46875 41.1875 3.015625 
Q 35.15625 -1.421875 24.609375 -1.421875 
Q 20.21875 -1.421875 15.453125 -0.5625 
Q 10.6875 0.296875 5.421875 2 
L 5.421875 11.28125 
Q 10.40625 8.6875 15.234375 7.390625 
Q 20.0625 6.109375 24.8125 6.109375 
Q 31.15625 6.109375 34.5625 8.28125 
Q 37.984375 10.453125 37.984375 14.40625 
Q 37.984375 18.0625 35.515625 20.015625 
Q 33.0625 21.96875 24.703125 23.78125 
L 21.578125 24.515625 
Q 13.234375 26.265625 9.515625 29.90625 
Q 5.8125 33.546875 5.8125 39.890625 
Q 5.8125 47.609375 11.28125 51.796875 
Q 16.75 56 26.8125 56 
Q 31.78125 56 36.171875 55.265625 
Q 40.578125 54.546875 44.28125 53.078125 
z
" id="DejaVuSans-115"/>
     </defs>
     <g transform="translate(341.866719 1066.316563)scale(0.1 -0.1)">
      <use xlink:href="#DejaVuSans-78"/>
      <use x="74.804688" xlink:href="#DejaVuSans-117"/>
      <use x="138.183594" xlink:href="#DejaVuSans-109"/>
      <use x="235.595703" xlink:href="#DejaVuSans-101"/>
      <use x="297.119141" xlink:href="#DejaVuSans-114"/>
      <use x="338.201172" xlink:href="#DejaVuSans-111"/>
      <use x="399.382812" xlink:href="#DejaVuSans-32"/>
      <use x="431.169922" xlink:href="#DejaVuSans-100"/>
      <use x="494.646484" xlink:href="#DejaVuSans-101"/>
      <use x="556.169922" xlink:href="#DejaVuSans-32"/>
      <use x="587.957031" xlink:href="#DejaVuSans-70"/>
      <use x="645.367188" xlink:href="#DejaVuSans-105"/>
      <use x="673.150391" xlink:href="#DejaVuSans-108"/>
      <use x="700.933594" xlink:href="#DejaVuSans-105"/>
      <use x="728.716797" xlink:href="#DejaVuSans-97"/>
      <use x="789.996094" xlink:href="#DejaVuSans-100"/>
      <use x="853.472656" xlink:href="#DejaVuSans-111"/>
      <use x="914.654297" xlink:href="#DejaVuSans-115"/>
     </g>
    </g>
   </g>
   <g id="matplotlib.axis_2">
    <g id="ytick_1">
     <g id="line2d_6">
      <defs>
       <path d="M 0 0 
L -3.5 0 
" id="mebb7992694" style="stroke:#000000;stroke-width:0.8;"/>
      </defs>
      <g>
       <use style="stroke:#000000;stroke-width:0.8;" x="73.73" xlink:href="#mebb7992694" y="987.771184"/>
      </g>
     </g>
     <g id="text_7">
      <!-- PCO -->
      <defs>
       <path d="M 19.671875 64.796875 
L 19.671875 37.40625 
L 32.078125 37.40625 
Q 38.96875 37.40625 42.71875 40.96875 
Q 46.484375 44.53125 46.484375 51.125 
Q 46.484375 57.671875 42.71875 61.234375 
Q 38.96875 64.796875 32.078125 64.796875 
z
M 9.8125 72.90625 
L 32.078125 72.90625 
Q 44.34375 72.90625 50.609375 67.359375 
Q 56.890625 61.8125 56.890625 51.125 
Q 56.890625 40.328125 50.609375 34.8125 
Q 44.34375 29.296875 32.078125 29.296875 
L 19.671875 29.296875 
L 19.671875 0 
L 9.8125 0 
z
" id="DejaVuSans-80"/>
       <path d="M 64.40625 67.28125 
L 64.40625 56.890625 
Q 59.421875 61.53125 53.78125 63.8125 
Q 48.140625 66.109375 41.796875 66.109375 
Q 29.296875 66.109375 22.65625 58.46875 
Q 16.015625 50.828125 16.015625 36.375 
Q 16.015625 21.96875 22.65625 14.328125 
Q 29.296875 6.6875 41.796875 6.6875 
Q 48.140625 6.6875 53.78125 8.984375 
Q 59.421875 11.28125 64.40625 15.921875 
L 64.40625 5.609375 
Q 59.234375 2.09375 53.4375 0.328125 
Q 47.65625 -1.421875 41.21875 -1.421875 
Q 24.65625 -1.421875 15.125 8.703125 
Q 5.609375 18.84375 5.609375 36.375 
Q 5.609375 53.953125 15.125 64.078125 
Q 24.65625 74.21875 41.21875 74.21875 
Q 47.75 74.21875 53.53125 72.484375 
Q 59.328125 70.75 64.40625 67.28125 
z
" id="DejaVuSans-67"/>
       <path d="M 39.40625 66.21875 
Q 28.65625 66.21875 22.328125 58.203125 
Q 16.015625 50.203125 16.015625 36.375 
Q 16.015625 22.609375 22.328125 14.59375 
Q 28.65625 6.59375 39.40625 6.59375 
Q 50.140625 6.59375 56.421875 14.59375 
Q 62.703125 22.609375 62.703125 36.375 
Q 62.703125 50.203125 56.421875 58.203125 
Q 50.140625 66.21875 39.40625 66.21875 
z
M 39.40625 74.21875 
Q 54.734375 74.21875 63.90625 63.9375 
Q 73.09375 53.65625 73.09375 36.375 
Q 73.09375 19.140625 63.90625 8.859375 
Q 54.734375 -1.421875 39.40625 -1.421875 
Q 24.03125 -1.421875 14.8125 8.828125 
Q 5.609375 19.09375 5.609375 36.375 
Q 5.609375 53.65625 14.8125 63.9375 
Q 24.03125 74.21875 39.40625 74.21875 
z
" id="DejaVuSans-79"/>
      </defs>
      <g transform="translate(45.845625 991.570403)scale(0.1 -0.1)">
       <use xlink:href="#DejaVuSans-80"/>
       <use x="60.302734" xlink:href="#DejaVuSans-67"/>
       <use x="130.126953" xlink:href="#DejaVuSans-79"/>
      </g>
     </g>
    </g>
    <g id="ytick_2">
     <g id="line2d_7">
      <g>
       <use style="stroke:#000000;stroke-width:0.8;" x="73.73" xlink:href="#mebb7992694" y="963.159769"/>
      </g>
     </g>
     <g id="text_8">
      <!-- NOVO -->
      <defs>
       <path d="M 28.609375 0 
L 0.78125 72.90625 
L 11.078125 72.90625 
L 34.1875 11.53125 
L 57.328125 72.90625 
L 67.578125 72.90625 
L 39.796875 0 
z
" id="DejaVuSans-86"/>
      </defs>
      <g transform="translate(36.6675 966.958988)scale(0.1 -0.1)">
       <use xlink:href="#DejaVuSans-78"/>
       <use x="74.804688" xlink:href="#DejaVuSans-79"/>
       <use x="153.5" xlink:href="#DejaVuSans-86"/>
       <use x="221.892578" xlink:href="#DejaVuSans-79"/>
      </g>
     </g>
    </g>
    <g id="ytick_3">
     <g id="line2d_8">
      <g>
       <use style="stroke:#000000;stroke-width:0.8;" x="73.73" xlink:href="#mebb7992694" y="938.548353"/>
      </g>
     </g>
     <g id="text_9">
      <!-- PCB -->
      <defs>
       <path d="M 19.671875 34.8125 
L 19.671875 8.109375 
L 35.5 8.109375 
Q 43.453125 8.109375 47.28125 11.40625 
Q 51.125 14.703125 51.125 21.484375 
Q 51.125 28.328125 47.28125 31.5625 
Q 43.453125 34.8125 35.5 34.8125 
z
M 19.671875 64.796875 
L 19.671875 42.828125 
L 34.28125 42.828125 
Q 41.5 42.828125 45.03125 45.53125 
Q 48.578125 48.25 48.578125 53.8125 
Q 48.578125 59.328125 45.03125 62.0625 
Q 41.5 64.796875 34.28125 64.796875 
z
M 9.8125 72.90625 
L 35.015625 72.90625 
Q 46.296875 72.90625 52.390625 68.21875 
Q 58.5 63.53125 58.5 54.890625 
Q 58.5 48.1875 55.375 44.234375 
Q 52.25 40.28125 46.1875 39.3125 
Q 53.46875 37.75 57.5 32.78125 
Q 61.53125 27.828125 61.53125 20.40625 
Q 61.53125 10.640625 54.890625 5.3125 
Q 48.25 0 35.984375 0 
L 9.8125 0 
z
" id="DejaVuSans-66"/>
      </defs>
      <g transform="translate(46.856563 942.347572)scale(0.1 -0.1)">
       <use xlink:href="#DejaVuSans-80"/>
       <use x="60.302734" xlink:href="#DejaVuSans-67"/>
       <use x="130.126953" xlink:href="#DejaVuSans-66"/>
      </g>
     </g>
    </g>
    <g id="ytick_4">
     <g id="line2d_9">
      <g>
       <use style="stroke:#000000;stroke-width:0.8;" x="73.73" xlink:href="#mebb7992694" y="913.936938"/>
      </g>
     </g>
     <g id="text_10">
      <!-- PSTU -->
      <defs>
       <path d="M 53.515625 70.515625 
L 53.515625 60.890625 
Q 47.90625 63.578125 42.921875 64.890625 
Q 37.9375 66.21875 33.296875 66.21875 
Q 25.25 66.21875 20.875 63.09375 
Q 16.5 59.96875 16.5 54.203125 
Q 16.5 49.359375 19.40625 46.890625 
Q 22.3125 44.4375 30.421875 42.921875 
L 36.375 41.703125 
Q 47.40625 39.59375 52.65625 34.296875 
Q 57.90625 29 57.90625 20.125 
Q 57.90625 9.515625 50.796875 4.046875 
Q 43.703125 -1.421875 29.984375 -1.421875 
Q 24.8125 -1.421875 18.96875 -0.25 
Q 13.140625 0.921875 6.890625 3.21875 
L 6.890625 13.375 
Q 12.890625 10.015625 18.65625 8.296875 
Q 24.421875 6.59375 29.984375 6.59375 
Q 38.421875 6.59375 43.015625 9.90625 
Q 47.609375 13.234375 47.609375 19.390625 
Q 47.609375 24.75 44.3125 27.78125 
Q 41.015625 30.8125 33.5 32.328125 
L 27.484375 33.5 
Q 16.453125 35.6875 11.515625 40.375 
Q 6.59375 45.0625 6.59375 53.421875 
Q 6.59375 63.09375 13.40625 68.65625 
Q 20.21875 74.21875 32.171875 74.21875 
Q 37.3125 74.21875 42.625 73.28125 
Q 47.953125 72.359375 53.515625 70.515625 
z
" id="DejaVuSans-83"/>
       <path d="M -0.296875 72.90625 
L 61.375 72.90625 
L 61.375 64.59375 
L 35.5 64.59375 
L 35.5 0 
L 25.59375 0 
L 25.59375 64.59375 
L -0.296875 64.59375 
z
" id="DejaVuSans-84"/>
       <path d="M 8.6875 72.90625 
L 18.609375 72.90625 
L 18.609375 28.609375 
Q 18.609375 16.890625 22.84375 11.734375 
Q 27.09375 6.59375 36.625 6.59375 
Q 46.09375 6.59375 50.34375 11.734375 
Q 54.59375 16.890625 54.59375 28.609375 
L 54.59375 72.90625 
L 64.5 72.90625 
L 64.5 27.390625 
Q 64.5 13.140625 57.4375 5.859375 
Q 50.390625 -1.421875 36.625 -1.421875 
Q 22.796875 -1.421875 15.734375 5.859375 
Q 8.6875 13.140625 8.6875 27.390625 
z
" id="DejaVuSans-85"/>
      </defs>
      <g transform="translate(40.925313 917.736157)scale(0.1 -0.1)">
       <use xlink:href="#DejaVuSans-80"/>
       <use x="60.302734" xlink:href="#DejaVuSans-83"/>
       <use x="123.779297" xlink:href="#DejaVuSans-84"/>
       <use x="184.863281" xlink:href="#DejaVuSans-85"/>
      </g>
     </g>
    </g>
    <g id="ytick_5">
     <g id="line2d_10">
      <g>
       <use style="stroke:#000000;stroke-width:0.8;" x="73.73" xlink:href="#mebb7992694" y="889.325523"/>
      </g>
     </g>
     <g id="text_11">
      <!-- REDE -->
      <defs>
       <path d="M 44.390625 34.1875 
Q 47.5625 33.109375 50.5625 29.59375 
Q 53.5625 26.078125 56.59375 19.921875 
L 66.609375 0 
L 56 0 
L 46.6875 18.703125 
Q 43.0625 26.03125 39.671875 28.421875 
Q 36.28125 30.8125 30.421875 30.8125 
L 19.671875 30.8125 
L 19.671875 0 
L 9.8125 0 
L 9.8125 72.90625 
L 32.078125 72.90625 
Q 44.578125 72.90625 50.734375 67.671875 
Q 56.890625 62.453125 56.890625 51.90625 
Q 56.890625 45.015625 53.6875 40.46875 
Q 50.484375 35.9375 44.390625 34.1875 
z
M 19.671875 64.796875 
L 19.671875 38.921875 
L 32.078125 38.921875 
Q 39.203125 38.921875 42.84375 42.21875 
Q 46.484375 45.515625 46.484375 51.90625 
Q 46.484375 58.296875 42.84375 61.546875 
Q 39.203125 64.796875 32.078125 64.796875 
z
" id="DejaVuSans-82"/>
       <path d="M 9.8125 72.90625 
L 55.90625 72.90625 
L 55.90625 64.59375 
L 19.671875 64.59375 
L 19.671875 43.015625 
L 54.390625 43.015625 
L 54.390625 34.71875 
L 19.671875 34.71875 
L 19.671875 8.296875 
L 56.78125 8.296875 
L 56.78125 0 
L 9.8125 0 
z
" id="DejaVuSans-69"/>
       <path d="M 19.671875 64.796875 
L 19.671875 8.109375 
L 31.59375 8.109375 
Q 46.6875 8.109375 53.6875 14.9375 
Q 60.6875 21.78125 60.6875 36.53125 
Q 60.6875 51.171875 53.6875 57.984375 
Q 46.6875 64.796875 31.59375 64.796875 
z
M 9.8125 72.90625 
L 30.078125 72.90625 
Q 51.265625 72.90625 61.171875 64.09375 
Q 71.09375 55.28125 71.09375 36.53125 
Q 71.09375 17.671875 61.125 8.828125 
Q 51.171875 0 30.078125 0 
L 9.8125 0 
z
" id="DejaVuSans-68"/>
      </defs>
      <g transform="translate(39.444063 893.124741)scale(0.1 -0.1)">
       <use xlink:href="#DejaVuSans-82"/>
       <use x="69.482422" xlink:href="#DejaVuSans-69"/>
       <use x="132.666016" xlink:href="#DejaVuSans-68"/>
       <use x="209.667969" xlink:href="#DejaVuSans-69"/>
      </g>
     </g>
    </g>
    <g id="ytick_6">
     <g id="line2d_11">
      <g>
       <use style="stroke:#000000;stroke-width:0.8;" x="73.73" xlink:href="#mebb7992694" y="864.714107"/>
      </g>
     </g>
     <g id="text_12">
      <!-- PPL -->
      <defs>
       <path d="M 9.8125 72.90625 
L 19.671875 72.90625 
L 19.671875 8.296875 
L 55.171875 8.296875 
L 55.171875 0 
L 9.8125 0 
z
" id="DejaVuSans-76"/>
      </defs>
      <g transform="translate(49.09875 868.513326)scale(0.1 -0.1)">
       <use xlink:href="#DejaVuSans-80"/>
       <use x="60.302734" xlink:href="#DejaVuSans-80"/>
       <use x="120.605469" xlink:href="#DejaVuSans-76"/>
      </g>
     </g>
    </g>
    <g id="ytick_7">
     <g id="line2d_12">
      <g>
       <use style="stroke:#000000;stroke-width:0.8;" x="73.73" xlink:href="#mebb7992694" y="840.102692"/>
      </g>
     </g>
     <g id="text_13">
      <!-- PMB -->
      <defs>
       <path d="M 9.8125 72.90625 
L 24.515625 72.90625 
L 43.109375 23.296875 
L 61.8125 72.90625 
L 76.515625 72.90625 
L 76.515625 0 
L 66.890625 0 
L 66.890625 64.015625 
L 48.09375 14.015625 
L 38.1875 14.015625 
L 19.390625 64.015625 
L 19.390625 0 
L 9.8125 0 
z
" id="DejaVuSans-77"/>
      </defs>
      <g transform="translate(45.21125 843.901911)scale(0.1 -0.1)">
       <use xlink:href="#DejaVuSans-80"/>
       <use x="60.302734" xlink:href="#DejaVuSans-77"/>
       <use x="146.582031" xlink:href="#DejaVuSans-66"/>
      </g>
     </g>
    </g>
    <g id="ytick_8">
     <g id="line2d_13">
      <g>
       <use style="stroke:#000000;stroke-width:0.8;" x="73.73" xlink:href="#mebb7992694" y="815.491277"/>
      </g>
     </g>
     <g id="text_14">
      <!-- PATRI -->
      <defs>
       <path d="M 34.1875 63.1875 
L 20.796875 26.90625 
L 47.609375 26.90625 
z
M 28.609375 72.90625 
L 39.796875 72.90625 
L 67.578125 0 
L 57.328125 0 
L 50.6875 18.703125 
L 17.828125 18.703125 
L 11.1875 0 
L 0.78125 0 
z
" id="DejaVuSans-65"/>
       <path d="M 9.8125 72.90625 
L 19.671875 72.90625 
L 19.671875 0 
L 9.8125 0 
z
" id="DejaVuSans-73"/>
      </defs>
      <g transform="translate(37.87375 819.290495)scale(0.1 -0.1)">
       <use xlink:href="#DejaVuSans-80"/>
       <use x="60.208984" xlink:href="#DejaVuSans-65"/>
       <use x="128.507812" xlink:href="#DejaVuSans-84"/>
       <use x="189.591797" xlink:href="#DejaVuSans-82"/>
       <use x="259.074219" xlink:href="#DejaVuSans-73"/>
      </g>
     </g>
    </g>
    <g id="ytick_9">
     <g id="line2d_14">
      <g>
       <use style="stroke:#000000;stroke-width:0.8;" x="73.73" xlink:href="#mebb7992694" y="790.879861"/>
      </g>
     </g>
     <g id="text_15">
      <!-- PROS -->
      <g transform="translate(39.531563 794.67908)scale(0.1 -0.1)">
       <use xlink:href="#DejaVuSans-80"/>
       <use x="60.302734" xlink:href="#DejaVuSans-82"/>
       <use x="129.785156" xlink:href="#DejaVuSans-79"/>
       <use x="208.496094" xlink:href="#DejaVuSans-83"/>
      </g>
     </g>
    </g>
    <g id="ytick_10">
     <g id="line2d_15">
      <g>
       <use style="stroke:#000000;stroke-width:0.8;" x="73.73" xlink:href="#mebb7992694" y="766.268446"/>
      </g>
     </g>
     <g id="text_16">
      <!-- PRTB -->
      <g transform="translate(40.794063 770.067665)scale(0.1 -0.1)">
       <use xlink:href="#DejaVuSans-80"/>
       <use x="60.302734" xlink:href="#DejaVuSans-82"/>
       <use x="129.675781" xlink:href="#DejaVuSans-84"/>
       <use x="190.759766" xlink:href="#DejaVuSans-66"/>
      </g>
     </g>
    </g>
    <g id="ytick_11">
     <g id="line2d_16">
      <g>
       <use style="stroke:#000000;stroke-width:0.8;" x="73.73" xlink:href="#mebb7992694" y="741.657031"/>
      </g>
     </g>
     <g id="text_17">
      <!-- PSOL -->
      <g transform="translate(40.908125 745.456249)scale(0.1 -0.1)">
       <use xlink:href="#DejaVuSans-80"/>
       <use x="60.302734" xlink:href="#DejaVuSans-83"/>
       <use x="123.779297" xlink:href="#DejaVuSans-79"/>
       <use x="202.490234" xlink:href="#DejaVuSans-76"/>
      </g>
     </g>
    </g>
    <g id="ytick_12">
     <g id="line2d_17">
      <g>
       <use style="stroke:#000000;stroke-width:0.8;" x="73.73" xlink:href="#mebb7992694" y="717.045615"/>
      </g>
     </g>
     <g id="text_18">
      <!-- PTN -->
      <g transform="translate(47.11125 720.844834)scale(0.1 -0.1)">
       <use xlink:href="#DejaVuSans-80"/>
       <use x="60.302734" xlink:href="#DejaVuSans-84"/>
       <use x="121.386719" xlink:href="#DejaVuSans-78"/>
      </g>
     </g>
    </g>
    <g id="ytick_13">
     <g id="line2d_18">
      <g>
       <use style="stroke:#000000;stroke-width:0.8;" x="73.73" xlink:href="#mebb7992694" y="692.4342"/>
      </g>
     </g>
     <g id="text_19">
      <!-- PODE -->
      <g transform="translate(38.809688 696.233419)scale(0.1 -0.1)">
       <use xlink:href="#DejaVuSans-80"/>
       <use x="60.302734" xlink:href="#DejaVuSans-79"/>
       <use x="139.013672" xlink:href="#DejaVuSans-68"/>
       <use x="216.015625" xlink:href="#DejaVuSans-69"/>
      </g>
     </g>
    </g>
    <g id="ytick_14">
     <g id="line2d_19">
      <g>
       <use style="stroke:#000000;stroke-width:0.8;" x="73.73" xlink:href="#mebb7992694" y="667.822784"/>
      </g>
     </g>
     <g id="text_20">
      <!-- DC -->
      <g transform="translate(52.047188 671.622003)scale(0.1 -0.1)">
       <use xlink:href="#DejaVuSans-68"/>
       <use x="77.001953" xlink:href="#DejaVuSans-67"/>
      </g>
     </g>
    </g>
    <g id="ytick_15">
     <g id="line2d_20">
      <g>
       <use style="stroke:#000000;stroke-width:0.8;" x="73.73" xlink:href="#mebb7992694" y="643.211369"/>
      </g>
     </g>
     <g id="text_21">
      <!-- PT DO B -->
      <g transform="translate(25.803438 647.010588)scale(0.1 -0.1)">
       <use xlink:href="#DejaVuSans-80"/>
       <use x="60.302734" xlink:href="#DejaVuSans-84"/>
       <use x="121.386719" xlink:href="#DejaVuSans-32"/>
       <use x="153.173828" xlink:href="#DejaVuSans-68"/>
       <use x="230.175781" xlink:href="#DejaVuSans-79"/>
       <use x="308.886719" xlink:href="#DejaVuSans-32"/>
       <use x="340.673828" xlink:href="#DejaVuSans-66"/>
      </g>
     </g>
    </g>
    <g id="ytick_16">
     <g id="line2d_21">
      <g>
       <use style="stroke:#000000;stroke-width:0.8;" x="73.73" xlink:href="#mebb7992694" y="618.599954"/>
      </g>
     </g>
     <g id="text_22">
      <!-- PSDC -->
      <g transform="translate(39.669063 622.399173)scale(0.1 -0.1)">
       <use xlink:href="#DejaVuSans-80"/>
       <use x="60.302734" xlink:href="#DejaVuSans-83"/>
       <use x="123.779297" xlink:href="#DejaVuSans-68"/>
       <use x="200.78125" xlink:href="#DejaVuSans-67"/>
      </g>
     </g>
    </g>
    <g id="ytick_17">
     <g id="line2d_22">
      <g>
       <use style="stroke:#000000;stroke-width:0.8;" x="73.73" xlink:href="#mebb7992694" y="593.988538"/>
      </g>
     </g>
     <g id="text_23">
      <!-- AVANTE -->
      <g transform="translate(26.319063 597.787757)scale(0.1 -0.1)">
       <use xlink:href="#DejaVuSans-65"/>
       <use x="68.314453" xlink:href="#DejaVuSans-86"/>
       <use x="136.628906" xlink:href="#DejaVuSans-65"/>
       <use x="205.037109" xlink:href="#DejaVuSans-78"/>
       <use x="279.841797" xlink:href="#DejaVuSans-84"/>
       <use x="340.925781" xlink:href="#DejaVuSans-69"/>
      </g>
     </g>
    </g>
    <g id="ytick_18">
     <g id="line2d_23">
      <g>
       <use style="stroke:#000000;stroke-width:0.8;" x="73.73" xlink:href="#mebb7992694" y="569.377123"/>
      </g>
     </g>
     <g id="text_24">
      <!-- PTC -->
      <g transform="translate(47.6175 573.176342)scale(0.1 -0.1)">
       <use xlink:href="#DejaVuSans-80"/>
       <use x="60.302734" xlink:href="#DejaVuSans-84"/>
       <use x="121.308594" xlink:href="#DejaVuSans-67"/>
      </g>
     </g>
    </g>
    <g id="ytick_19">
     <g id="line2d_24">
      <g>
       <use style="stroke:#000000;stroke-width:0.8;" x="73.73" xlink:href="#mebb7992694" y="544.765708"/>
      </g>
     </g>
     <g id="text_25">
      <!-- PHS -->
      <defs>
       <path d="M 9.8125 72.90625 
L 19.671875 72.90625 
L 19.671875 43.015625 
L 55.515625 43.015625 
L 55.515625 72.90625 
L 65.375 72.90625 
L 65.375 0 
L 55.515625 0 
L 55.515625 34.71875 
L 19.671875 34.71875 
L 19.671875 0 
L 9.8125 0 
z
" id="DejaVuSans-72"/>
      </defs>
      <g transform="translate(46.831563 548.564926)scale(0.1 -0.1)">
       <use xlink:href="#DejaVuSans-80"/>
       <use x="60.302734" xlink:href="#DejaVuSans-72"/>
       <use x="135.498047" xlink:href="#DejaVuSans-83"/>
      </g>
     </g>
    </g>
    <g id="ytick_20">
     <g id="line2d_25">
      <g>
       <use style="stroke:#000000;stroke-width:0.8;" x="73.73" xlink:href="#mebb7992694" y="520.154292"/>
      </g>
     </g>
     <g id="text_26">
      <!-- SD -->
      <g transform="translate(52.681563 523.953511)scale(0.1 -0.1)">
       <use xlink:href="#DejaVuSans-83"/>
       <use x="63.476562" xlink:href="#DejaVuSans-68"/>
      </g>
     </g>
    </g>
    <g id="ytick_21">
     <g id="line2d_26">
      <g>
       <use style="stroke:#000000;stroke-width:0.8;" x="73.73" xlink:href="#mebb7992694" y="495.542877"/>
      </g>
     </g>
     <g id="text_27">
      <!-- PMN -->
      <g transform="translate(44.590938 499.342096)scale(0.1 -0.1)">
       <use xlink:href="#DejaVuSans-80"/>
       <use x="60.302734" xlink:href="#DejaVuSans-77"/>
       <use x="146.582031" xlink:href="#DejaVuSans-78"/>
      </g>
     </g>
    </g>
    <g id="ytick_22">
     <g id="line2d_27">
      <g>
       <use style="stroke:#000000;stroke-width:0.8;" x="73.73" xlink:href="#mebb7992694" y="470.931462"/>
      </g>
     </g>
     <g id="text_28">
      <!-- PSL -->
      <g transform="translate(48.78 474.73068)scale(0.1 -0.1)">
       <use xlink:href="#DejaVuSans-80"/>
       <use x="60.302734" xlink:href="#DejaVuSans-83"/>
       <use x="123.779297" xlink:href="#DejaVuSans-76"/>
      </g>
     </g>
    </g>
    <g id="ytick_23">
     <g id="line2d_28">
      <g>
       <use style="stroke:#000000;stroke-width:0.8;" x="73.73" xlink:href="#mebb7992694" y="446.320046"/>
      </g>
     </g>
     <g id="text_29">
      <!-- PRP -->
      <g transform="translate(47.722188 450.119265)scale(0.1 -0.1)">
       <use xlink:href="#DejaVuSans-80"/>
       <use x="60.302734" xlink:href="#DejaVuSans-82"/>
       <use x="129.785156" xlink:href="#DejaVuSans-80"/>
      </g>
     </g>
    </g>
    <g id="ytick_24">
     <g id="line2d_29">
      <g>
       <use style="stroke:#000000;stroke-width:0.8;" x="73.73" xlink:href="#mebb7992694" y="421.708631"/>
      </g>
     </g>
     <g id="text_30">
      <!-- PSD -->
      <g transform="translate(46.651875 425.50785)scale(0.1 -0.1)">
       <use xlink:href="#DejaVuSans-80"/>
       <use x="60.302734" xlink:href="#DejaVuSans-83"/>
       <use x="123.779297" xlink:href="#DejaVuSans-68"/>
      </g>
     </g>
    </g>
    <g id="ytick_25">
     <g id="line2d_30">
      <g>
       <use style="stroke:#000000;stroke-width:0.8;" x="73.73" xlink:href="#mebb7992694" y="397.097216"/>
      </g>
     </g>
     <g id="text_31">
      <!-- PV -->
      <g transform="translate(53.859688 400.896434)scale(0.1 -0.1)">
       <use xlink:href="#DejaVuSans-80"/>
       <use x="60.302734" xlink:href="#DejaVuSans-86"/>
      </g>
     </g>
    </g>
    <g id="ytick_26">
     <g id="line2d_31">
      <g>
       <use style="stroke:#000000;stroke-width:0.8;" x="73.73" xlink:href="#mebb7992694" y="372.4858"/>
      </g>
     </g>
     <g id="text_32">
      <!-- PC DO B -->
      <g transform="translate(24.928438 376.285019)scale(0.1 -0.1)">
       <use xlink:href="#DejaVuSans-80"/>
       <use x="60.302734" xlink:href="#DejaVuSans-67"/>
       <use x="130.126953" xlink:href="#DejaVuSans-32"/>
       <use x="161.914062" xlink:href="#DejaVuSans-68"/>
       <use x="238.916016" xlink:href="#DejaVuSans-79"/>
       <use x="317.626953" xlink:href="#DejaVuSans-32"/>
       <use x="349.414062" xlink:href="#DejaVuSans-66"/>
      </g>
     </g>
    </g>
    <g id="ytick_27">
     <g id="line2d_32">
      <g>
       <use style="stroke:#000000;stroke-width:0.8;" x="73.73" xlink:href="#mebb7992694" y="347.874385"/>
      </g>
     </g>
     <g id="text_33">
      <!-- PSC -->
      <g transform="translate(47.369062 351.673604)scale(0.1 -0.1)">
       <use xlink:href="#DejaVuSans-80"/>
       <use x="60.302734" xlink:href="#DejaVuSans-83"/>
       <use x="123.779297" xlink:href="#DejaVuSans-67"/>
      </g>
     </g>
    </g>
    <g id="ytick_28">
     <g id="line2d_33">
      <g>
       <use style="stroke:#000000;stroke-width:0.8;" x="73.73" xlink:href="#mebb7992694" y="323.262969"/>
      </g>
     </g>
     <g id="text_34">
      <!-- PPS -->
      <g transform="translate(48.322187 327.062188)scale(0.1 -0.1)">
       <use xlink:href="#DejaVuSans-80"/>
       <use x="60.302734" xlink:href="#DejaVuSans-80"/>
       <use x="120.605469" xlink:href="#DejaVuSans-83"/>
      </g>
     </g>
    </g>
    <g id="ytick_29">
     <g id="line2d_34">
      <g>
       <use style="stroke:#000000;stroke-width:0.8;" x="73.73" xlink:href="#mebb7992694" y="298.651554"/>
      </g>
     </g>
     <g id="text_35">
      <!-- PRB -->
      <g transform="translate(46.890938 302.450773)scale(0.1 -0.1)">
       <use xlink:href="#DejaVuSans-80"/>
       <use x="60.302734" xlink:href="#DejaVuSans-82"/>
       <use x="129.785156" xlink:href="#DejaVuSans-66"/>
      </g>
     </g>
    </g>
    <g id="ytick_30">
     <g id="line2d_35">
      <g>
       <use style="stroke:#000000;stroke-width:0.8;" x="73.73" xlink:href="#mebb7992694" y="274.040139"/>
      </g>
     </g>
     <g id="text_36">
      <!-- PSB -->
      <g transform="translate(47.490938 277.839357)scale(0.1 -0.1)">
       <use xlink:href="#DejaVuSans-80"/>
       <use x="60.302734" xlink:href="#DejaVuSans-83"/>
       <use x="123.779297" xlink:href="#DejaVuSans-66"/>
      </g>
     </g>
    </g>
    <g id="ytick_31">
     <g id="line2d_36">
      <g>
       <use style="stroke:#000000;stroke-width:0.8;" x="73.73" xlink:href="#mebb7992694" y="249.428723"/>
      </g>
     </g>
     <g id="text_37">
      <!-- PR -->
      <g transform="translate(53.751875 253.227942)scale(0.1 -0.1)">
       <use xlink:href="#DejaVuSans-80"/>
       <use x="60.302734" xlink:href="#DejaVuSans-82"/>
      </g>
     </g>
    </g>
    <g id="ytick_32">
     <g id="line2d_37">
      <g>
       <use style="stroke:#000000;stroke-width:0.8;" x="73.73" xlink:href="#mebb7992694" y="224.817308"/>
      </g>
     </g>
     <g id="text_38">
      <!-- DEM -->
      <g transform="translate(44.083125 228.616527)scale(0.1 -0.1)">
       <use xlink:href="#DejaVuSans-68"/>
       <use x="77.001953" xlink:href="#DejaVuSans-69"/>
       <use x="140.185547" xlink:href="#DejaVuSans-77"/>
      </g>
     </g>
    </g>
    <g id="ytick_33">
     <g id="line2d_38">
      <g>
       <use style="stroke:#000000;stroke-width:0.8;" x="73.73" xlink:href="#mebb7992694" y="200.205893"/>
      </g>
     </g>
     <g id="text_39">
      <!-- PTB -->
      <g transform="translate(47.731563 204.005111)scale(0.1 -0.1)">
       <use xlink:href="#DejaVuSans-80"/>
       <use x="60.302734" xlink:href="#DejaVuSans-84"/>
       <use x="121.386719" xlink:href="#DejaVuSans-66"/>
      </g>
     </g>
    </g>
    <g id="ytick_34">
     <g id="line2d_39">
      <g>
       <use style="stroke:#000000;stroke-width:0.8;" x="73.73" xlink:href="#mebb7992694" y="175.594477"/>
      </g>
     </g>
     <g id="text_40">
      <!-- PDT -->
      <g transform="translate(46.8925 179.393696)scale(0.1 -0.1)">
       <use xlink:href="#DejaVuSans-80"/>
       <use x="60.302734" xlink:href="#DejaVuSans-68"/>
       <use x="137.304688" xlink:href="#DejaVuSans-84"/>
      </g>
     </g>
    </g>
    <g id="ytick_35">
     <g id="line2d_40">
      <g>
       <use style="stroke:#000000;stroke-width:0.8;" x="73.73" xlink:href="#mebb7992694" y="150.983062"/>
      </g>
     </g>
     <g id="text_41">
      <!-- PP -->
      <g transform="translate(54.670625 154.782281)scale(0.1 -0.1)">
       <use xlink:href="#DejaVuSans-80"/>
       <use x="60.302734" xlink:href="#DejaVuSans-80"/>
      </g>
     </g>
    </g>
    <g id="ytick_36">
     <g id="line2d_41">
      <g>
       <use style="stroke:#000000;stroke-width:0.8;" x="73.73" xlink:href="#mebb7992694" y="126.371647"/>
      </g>
     </g>
     <g id="text_42">
      <!-- PSDB -->
      <g transform="translate(39.790937 130.170865)scale(0.1 -0.1)">
       <use xlink:href="#DejaVuSans-80"/>
       <use x="60.302734" xlink:href="#DejaVuSans-83"/>
       <use x="123.779297" xlink:href="#DejaVuSans-68"/>
       <use x="200.78125" xlink:href="#DejaVuSans-66"/>
      </g>
     </g>
    </g>
    <g id="ytick_37">
     <g id="line2d_42">
      <g>
       <use style="stroke:#000000;stroke-width:0.8;" x="73.73" xlink:href="#mebb7992694" y="101.760231"/>
      </g>
     </g>
     <g id="text_43">
      <!-- PT -->
      <g transform="translate(54.5925 105.55945)scale(0.1 -0.1)">
       <use xlink:href="#DejaVuSans-80"/>
       <use x="60.302734" xlink:href="#DejaVuSans-84"/>
      </g>
     </g>
    </g>
    <g id="ytick_38">
     <g id="line2d_43">
      <g>
       <use style="stroke:#000000;stroke-width:0.8;" x="73.73" xlink:href="#mebb7992694" y="77.148816"/>
      </g>
     </g>
     <g id="text_44">
      <!-- MDB -->
      <g transform="translate(43.540937 80.948035)scale(0.1 -0.1)">
       <use xlink:href="#DejaVuSans-77"/>
       <use x="86.279297" xlink:href="#DejaVuSans-68"/>
       <use x="163.28125" xlink:href="#DejaVuSans-66"/>
      </g>
     </g>
    </g>
    <g id="text_45">
     <!-- Partidos -->
     <defs>
      <path d="M 18.3125 70.21875 
L 18.3125 54.6875 
L 36.8125 54.6875 
L 36.8125 47.703125 
L 18.3125 47.703125 
L 18.3125 18.015625 
Q 18.3125 11.328125 20.140625 9.421875 
Q 21.96875 7.515625 27.59375 7.515625 
L 36.8125 7.515625 
L 36.8125 0 
L 27.59375 0 
Q 17.1875 0 13.234375 3.875 
Q 9.28125 7.765625 9.28125 18.015625 
L 9.28125 47.703125 
L 2.6875 47.703125 
L 2.6875 54.6875 
L 9.28125 54.6875 
L 9.28125 70.21875 
z
" id="DejaVuSans-116"/>
     </defs>
     <g transform="translate(18.84875 552.77875)rotate(-90)scale(0.1 -0.1)">
      <use xlink:href="#DejaVuSans-80"/>
      <use x="60.240234" xlink:href="#DejaVuSans-97"/>
      <use x="121.519531" xlink:href="#DejaVuSans-114"/>
      <use x="162.632812" xlink:href="#DejaVuSans-116"/>
      <use x="201.841797" xlink:href="#DejaVuSans-105"/>
      <use x="229.625" xlink:href="#DejaVuSans-100"/>
      <use x="293.101562" xlink:href="#DejaVuSans-111"/>
      <use x="354.283203" xlink:href="#DejaVuSans-115"/>
     </g>
    </g>
   </g>
   <g id="line2d_44">
    <path clip-path="url(#p042b1f0932)" d="M 362.331077 1038.04 
L 362.331077 26.88 
" style="fill:none;stroke:#000000;stroke-linecap:square;stroke-width:3;"/>
   </g>
   <g id="text_46">
    <!-- Numeros absolutos do genero em Partidos Politicos -->
    <defs>
     <path d="M 48.6875 27.296875 
Q 48.6875 37.203125 44.609375 42.84375 
Q 40.53125 48.484375 33.40625 48.484375 
Q 26.265625 48.484375 22.1875 42.84375 
Q 18.109375 37.203125 18.109375 27.296875 
Q 18.109375 17.390625 22.1875 11.75 
Q 26.265625 6.109375 33.40625 6.109375 
Q 40.53125 6.109375 44.609375 11.75 
Q 48.6875 17.390625 48.6875 27.296875 
z
M 18.109375 46.390625 
Q 20.953125 51.265625 25.265625 53.625 
Q 29.59375 56 35.59375 56 
Q 45.5625 56 51.78125 48.09375 
Q 58.015625 40.1875 58.015625 27.296875 
Q 58.015625 14.40625 51.78125 6.484375 
Q 45.5625 -1.421875 35.59375 -1.421875 
Q 29.59375 -1.421875 25.265625 0.953125 
Q 20.953125 3.328125 18.109375 8.203125 
L 18.109375 0 
L 9.078125 0 
L 9.078125 75.984375 
L 18.109375 75.984375 
z
" id="DejaVuSans-98"/>
     <path d="M 45.40625 27.984375 
Q 45.40625 37.75 41.375 43.109375 
Q 37.359375 48.484375 30.078125 48.484375 
Q 22.859375 48.484375 18.828125 43.109375 
Q 14.796875 37.75 14.796875 27.984375 
Q 14.796875 18.265625 18.828125 12.890625 
Q 22.859375 7.515625 30.078125 7.515625 
Q 37.359375 7.515625 41.375 12.890625 
Q 45.40625 18.265625 45.40625 27.984375 
z
M 54.390625 6.78125 
Q 54.390625 -7.171875 48.1875 -13.984375 
Q 42 -20.796875 29.203125 -20.796875 
Q 24.46875 -20.796875 20.265625 -20.09375 
Q 16.0625 -19.390625 12.109375 -17.921875 
L 12.109375 -9.1875 
Q 16.0625 -11.328125 19.921875 -12.34375 
Q 23.78125 -13.375 27.78125 -13.375 
Q 36.625 -13.375 41.015625 -8.765625 
Q 45.40625 -4.15625 45.40625 5.171875 
L 45.40625 9.625 
Q 42.625 4.78125 38.28125 2.390625 
Q 33.9375 0 27.875 0 
Q 17.828125 0 11.671875 7.65625 
Q 5.515625 15.328125 5.515625 27.984375 
Q 5.515625 40.671875 11.671875 48.328125 
Q 17.828125 56 27.875 56 
Q 33.9375 56 38.28125 53.609375 
Q 42.625 51.21875 45.40625 46.390625 
L 45.40625 54.6875 
L 54.390625 54.6875 
z
" id="DejaVuSans-103"/>
     <path d="M 54.890625 33.015625 
L 54.890625 0 
L 45.90625 0 
L 45.90625 32.71875 
Q 45.90625 40.484375 42.875 44.328125 
Q 39.84375 48.1875 33.796875 48.1875 
Q 26.515625 48.1875 22.3125 43.546875 
Q 18.109375 38.921875 18.109375 30.90625 
L 18.109375 0 
L 9.078125 0 
L 9.078125 54.6875 
L 18.109375 54.6875 
L 18.109375 46.1875 
Q 21.34375 51.125 25.703125 53.5625 
Q 30.078125 56 35.796875 56 
Q 45.21875 56 50.046875 50.171875 
Q 54.890625 44.34375 54.890625 33.015625 
z
" id="DejaVuSans-110"/>
     <path d="M 48.78125 52.59375 
L 48.78125 44.1875 
Q 44.96875 46.296875 41.140625 47.34375 
Q 37.3125 48.390625 33.40625 48.390625 
Q 24.65625 48.390625 19.8125 42.84375 
Q 14.984375 37.3125 14.984375 27.296875 
Q 14.984375 17.28125 19.8125 11.734375 
Q 24.65625 6.203125 33.40625 6.203125 
Q 37.3125 6.203125 41.140625 7.25 
Q 44.96875 8.296875 48.78125 10.40625 
L 48.78125 2.09375 
Q 45.015625 0.34375 40.984375 -0.53125 
Q 36.96875 -1.421875 32.421875 -1.421875 
Q 20.0625 -1.421875 12.78125 6.34375 
Q 5.515625 14.109375 5.515625 27.296875 
Q 5.515625 40.671875 12.859375 48.328125 
Q 20.21875 56 33.015625 56 
Q 37.15625 56 41.109375 55.140625 
Q 45.0625 54.296875 48.78125 52.59375 
z
" id="DejaVuSans-99"/>
    </defs>
    <g transform="translate(235.508125 20.88)scale(0.12 -0.12)">
     <use xlink:href="#DejaVuSans-78"/>
     <use x="74.804688" xlink:href="#DejaVuSans-117"/>
     <use x="138.183594" xlink:href="#DejaVuSans-109"/>
     <use x="235.595703" xlink:href="#DejaVuSans-101"/>
     <use x="297.119141" xlink:href="#DejaVuSans-114"/>
     <use x="338.201172" xlink:href="#DejaVuSans-111"/>
     <use x="399.382812" xlink:href="#DejaVuSans-115"/>
     <use x="451.482422" xlink:href="#DejaVuSans-32"/>
     <use x="483.269531" xlink:href="#DejaVuSans-97"/>
     <use x="544.548828" xlink:href="#DejaVuSans-98"/>
     <use x="608.025391" xlink:href="#DejaVuSans-115"/>
     <use x="660.125" xlink:href="#DejaVuSans-111"/>
     <use x="721.306641" xlink:href="#DejaVuSans-108"/>
     <use x="749.089844" xlink:href="#DejaVuSans-117"/>
     <use x="812.46875" xlink:href="#DejaVuSans-116"/>
     <use x="851.677734" xlink:href="#DejaVuSans-111"/>
     <use x="912.859375" xlink:href="#DejaVuSans-115"/>
     <use x="964.958984" xlink:href="#DejaVuSans-32"/>
     <use x="996.746094" xlink:href="#DejaVuSans-100"/>
     <use x="1060.222656" xlink:href="#DejaVuSans-111"/>
     <use x="1121.404297" xlink:href="#DejaVuSans-32"/>
     <use x="1153.191406" xlink:href="#DejaVuSans-103"/>
     <use x="1216.667969" xlink:href="#DejaVuSans-101"/>
     <use x="1278.191406" xlink:href="#DejaVuSans-110"/>
     <use x="1341.570312" xlink:href="#DejaVuSans-101"/>
     <use x="1403.09375" xlink:href="#DejaVuSans-114"/>
     <use x="1444.175781" xlink:href="#DejaVuSans-111"/>
     <use x="1505.357422" xlink:href="#DejaVuSans-32"/>
     <use x="1537.144531" xlink:href="#DejaVuSans-101"/>
     <use x="1598.667969" xlink:href="#DejaVuSans-109"/>
     <use x="1696.080078" xlink:href="#DejaVuSans-32"/>
     <use x="1727.867188" xlink:href="#DejaVuSans-80"/>
     <use x="1788.107422" xlink:href="#DejaVuSans-97"/>
     <use x="1849.386719" xlink:href="#DejaVuSans-114"/>
     <use x="1890.5" xlink:href="#DejaVuSans-116"/>
     <use x="1929.708984" xlink:href="#DejaVuSans-105"/>
     <use x="1957.492188" xlink:href="#DejaVuSans-100"/>
     <use x="2020.96875" xlink:href="#DejaVuSans-111"/>
     <use x="2082.150391" xlink:href="#DejaVuSans-115"/>
     <use x="2134.25" xlink:href="#DejaVuSans-32"/>
     <use x="2166.037109" xlink:href="#DejaVuSans-80"/>
     <use x="2226.292969" xlink:href="#DejaVuSans-111"/>
     <use x="2287.474609" xlink:href="#DejaVuSans-108"/>
     <use x="2315.257812" xlink:href="#DejaVuSans-105"/>
     <use x="2343.041016" xlink:href="#DejaVuSans-116"/>
     <use x="2382.25" xlink:href="#DejaVuSans-105"/>
     <use x="2410.033203" xlink:href="#DejaVuSans-99"/>
     <use x="2465.013672" xlink:href="#DejaVuSans-111"/>
     <use x="2526.195312" xlink:href="#DejaVuSans-115"/>
    </g>
   </g>
   <g id="legend_1">
    <g id="patch_79">
     <path d="M 621.975313 64.23625 
L 699.68 64.23625 
Q 701.68 64.23625 701.68 62.23625 
L 701.68 33.88 
Q 701.68 31.88 699.68 31.88 
L 621.975313 31.88 
Q 619.975313 31.88 619.975313 33.88 
L 619.975313 62.23625 
Q 619.975313 64.23625 621.975313 64.23625 
z
" style="fill:#ffffff;opacity:0.8;stroke:#cccccc;stroke-linejoin:miter;"/>
    </g>
    <g id="patch_80">
     <path d="M 623.975313 43.478437 
L 643.975313 43.478437 
L 643.975313 36.478437 
L 623.975313 36.478437 
z
" style="fill:#ff0000;opacity:0.8;"/>
    </g>
    <g id="text_47">
     <!-- Mulheres -->
     <defs>
      <path d="M 54.890625 33.015625 
L 54.890625 0 
L 45.90625 0 
L 45.90625 32.71875 
Q 45.90625 40.484375 42.875 44.328125 
Q 39.84375 48.1875 33.796875 48.1875 
Q 26.515625 48.1875 22.3125 43.546875 
Q 18.109375 38.921875 18.109375 30.90625 
L 18.109375 0 
L 9.078125 0 
L 9.078125 75.984375 
L 18.109375 75.984375 
L 18.109375 46.1875 
Q 21.34375 51.125 25.703125 53.5625 
Q 30.078125 56 35.796875 56 
Q 45.21875 56 50.046875 50.171875 
Q 54.890625 44.34375 54.890625 33.015625 
z
" id="DejaVuSans-104"/>
     </defs>
     <g transform="translate(651.975313 43.478437)scale(0.1 -0.1)">
      <use xlink:href="#DejaVuSans-77"/>
      <use x="86.279297" xlink:href="#DejaVuSans-117"/>
      <use x="149.658203" xlink:href="#DejaVuSans-108"/>
      <use x="177.441406" xlink:href="#DejaVuSans-104"/>
      <use x="240.820312" xlink:href="#DejaVuSans-101"/>
      <use x="302.34375" xlink:href="#DejaVuSans-114"/>
      <use x="343.425781" xlink:href="#DejaVuSans-101"/>
      <use x="404.949219" xlink:href="#DejaVuSans-115"/>
     </g>
    </g>
    <g id="patch_81">
     <path d="M 623.975313 58.156562 
L 643.975313 58.156562 
L 643.975313 51.156562 
L 623.975313 51.156562 
z
" style="fill:#0000ff;opacity:0.8;"/>
    </g>
    <g id="text_48">
     <!-- Homens -->
     <g transform="translate(651.975313 58.156562)scale(0.1 -0.1)">
      <use xlink:href="#DejaVuSans-72"/>
      <use x="75.195312" xlink:href="#DejaVuSans-111"/>
      <use x="136.376953" xlink:href="#DejaVuSans-109"/>
      <use x="233.789062" xlink:href="#DejaVuSans-101"/>
      <use x="295.3125" xlink:href="#DejaVuSans-110"/>
      <use x="358.691406" xlink:href="#DejaVuSans-115"/>
     </g>
    </g>
   </g>
  </g>
 </g>
 <defs>
  <clipPath id="p042b1f0932">
   <rect height="1011.16" width="632.95" x="73.73" y="26.88"/>
  </clipPath>
 </defs>
</svg>
